<svg width="136" height="136" viewBox="0 0 136 136" fill="none" xmlns="http://www.w3.org/2000/svg">
<circle cx="68" cy="68" r="68" fill="#FD5523"/>
<path fill-rule="evenodd" clip-rule="evenodd" d="M75.8744 58.0543C73.1161 60.8126 67.9847 60.709 65.1103 57.8346L63.9318 56.6561L61.6691 58.9188L62.8476 60.0973C64.9383 62.188 67.7795 63.2688 70.6011 63.3276L56.6411 77.2876L58.9981 79.6446L72.9581 65.6846C73.0168 68.5062 74.0977 71.3474 76.1883 73.4381L77.3669 74.6166L79.6296 72.3539L78.4511 71.1753C75.5767 68.301 75.4731 63.1696 78.2314 60.4113L79.3628 59.2799L77.0058 56.9229L75.8744 58.0543Z" fill="#F4F5F9"/>
<path d="M72.7998 17.1106C71.933 17.0317 71.2029 16.7779 70.6093 16.3493C70.0248 15.9132 69.5937 15.3454 69.3162 14.6459C69.0476 13.9389 68.9536 13.1438 69.034 12.2605C69.1144 11.3772 69.3506 10.6121 69.7424 9.9653C70.1425 9.31921 70.6695 8.83449 71.3232 8.51115C71.9851 8.18855 72.7495 8.06672 73.6163 8.14566C74.6647 8.24114 75.4995 8.57937 76.1208 9.16033C76.7421 9.74129 77.0921 10.514 77.1707 11.4783L75.3505 11.3125C75.2853 10.8405 75.0909 10.4607 74.7675 10.1732C74.4531 9.87826 74.0194 9.70558 73.4663 9.65521C72.9545 9.6086 72.5016 9.6922 72.1076 9.90602C71.7225 10.1123 71.4107 10.4294 71.1719 10.8571C70.934 11.2766 70.7868 11.7959 70.7304 12.415C70.6748 13.0259 70.7257 13.5632 70.8832 14.027C71.0408 14.4908 71.2902 14.859 71.6317 15.1315C71.9813 15.4047 72.4121 15.5646 72.9239 15.6112C73.477 15.6616 73.9336 15.5825 74.2939 15.3739C74.6549 15.1571 74.909 14.8348 75.0562 14.4071L76.8888 14.574C76.6417 15.4587 76.1606 16.1266 75.4453 16.5775C74.73 17.0284 73.8482 17.2061 72.7998 17.1106Z" fill="white"/>
<path d="M80.9024 18.5664C80.3252 18.4146 79.8389 18.1453 79.4435 17.7585C79.0582 17.3658 78.7915 16.8971 78.6433 16.3525C78.5052 15.8019 78.5174 15.218 78.6797 14.6007C78.8462 13.9674 79.1239 13.449 79.5128 13.0456C79.9119 12.6363 80.3787 12.3604 80.9132 12.2182C81.4498 12.0678 82.0068 12.0686 82.584 12.2204C83.1692 12.3742 83.6544 12.6475 84.0397 13.0403C84.4351 13.4271 84.7019 13.8958 84.8399 14.4463C84.9881 14.991 84.98 15.576 84.8156 16.2013C84.6512 16.8266 84.3694 17.3439 83.9704 17.7532C83.5815 18.1566 83.1187 18.4335 82.5821 18.5838C82.0475 18.7261 81.4877 18.7203 80.9024 18.5664ZM81.2724 17.1595C81.545 17.2312 81.8023 17.2303 82.0445 17.1568C82.2947 17.0854 82.5147 16.9333 82.7045 16.7004C82.9023 16.4695 83.0529 16.1577 83.1561 15.7649C83.2594 15.3721 83.2807 15.0306 83.2199 14.7403C83.1692 14.4441 83.0525 14.2034 82.8697 14.0183C82.6971 13.8272 82.4786 13.6968 82.214 13.6273C81.9575 13.5598 81.7031 13.5658 81.4508 13.6452C81.2006 13.7165 80.9766 13.8676 80.7788 14.0984C80.5911 14.3233 80.4456 14.6322 80.3423 15.025C80.239 15.4178 80.2127 15.7623 80.2634 16.0585C80.3221 16.3568 80.4388 16.5975 80.6135 16.7805C80.7962 16.9657 81.0159 17.092 81.2724 17.1595Z" fill="white"/>
<path d="M85.4621 19.7692L87.9372 14.0121L89.2965 14.5965L89.008 15.5822C89.3207 15.3377 89.6795 15.1852 90.0845 15.1247C90.497 15.0675 90.928 15.1354 91.3773 15.3286C91.8571 15.5348 92.2181 15.8074 92.4604 16.1461C92.7028 16.4849 92.8259 16.8807 92.8297 17.3335C92.8412 17.7895 92.7274 18.2955 92.4884 18.8514L91.0594 22.1755L89.5287 21.5175L90.8939 18.3419C91.0903 17.885 91.1419 17.4921 91.0487 17.1633C90.9631 16.8378 90.7185 16.5882 90.3149 16.4147C90.0559 16.3034 89.7975 16.2645 89.5395 16.2979C89.2891 16.3347 89.0577 16.4427 88.8452 16.6221C88.6361 16.7938 88.4627 17.0396 88.3252 17.3594L87.0042 20.4322L85.4621 19.7692Z" fill="white"/>
<path d="M94.6331 24.2938C94.2539 24.072 93.9547 23.8201 93.7355 23.5382C93.5276 23.2534 93.4245 22.929 93.4261 22.565C93.4319 22.1939 93.5751 21.7686 93.8555 21.2892L95.1991 18.9925L94.2761 18.4526L94.9856 17.2399L95.9085 17.7798L96.9297 16.4036L98.2175 17.1571L97.3574 18.6274L98.7848 19.4624L98.0753 20.6751L96.6479 19.8401L95.2918 22.1583C95.1495 22.4015 95.1048 22.6011 95.1577 22.7569C95.2106 22.9127 95.3659 23.0659 95.6234 23.2166L96.3318 23.631L95.6098 24.8652L94.6331 24.2938Z" fill="white"/>
<path d="M98.1869 26.9007C97.7705 26.5856 97.4768 26.2594 97.3058 25.9221C97.1398 25.5782 97.0758 25.2439 97.1137 24.9191C97.1632 24.5927 97.2929 24.2907 97.503 24.0131C97.7331 23.709 98.0117 23.4989 98.3388 23.3826C98.6725 23.2713 99.0447 23.2671 99.4555 23.37C99.8728 23.4779 100.319 23.7119 100.795 24.0721L102.035 25.01C102.22 24.7654 102.339 24.5388 102.393 24.3301C102.452 24.1149 102.442 23.9151 102.363 23.7307C102.285 23.5463 102.13 23.3666 101.898 23.1915C101.647 23.0015 101.39 22.8951 101.126 22.8724C100.874 22.8481 100.644 22.9333 100.434 23.128L99.135 22.1451C99.4381 21.8132 99.7864 21.5934 100.18 21.4856C100.585 21.3763 101.008 21.374 101.448 21.4787C101.895 21.5884 102.324 21.7983 102.734 22.1084C103.203 22.4636 103.549 22.8505 103.773 23.2693C103.997 23.688 104.088 24.1161 104.048 24.5536C104.008 24.9911 103.823 25.428 103.493 25.8643L101.152 28.9577L100.022 28.1023L100.451 27.2263C100.278 27.3035 100.102 27.3574 99.923 27.3882C99.7438 27.4189 99.5581 27.4239 99.3659 27.4032C99.1737 27.3824 98.98 27.3294 98.7847 27.244C98.5844 27.1652 98.3852 27.0508 98.1869 26.9007ZM99.2845 26.1097C99.4563 26.2397 99.6309 26.325 99.8081 26.3656C99.9969 26.4045 100.181 26.4087 100.36 26.3779C100.544 26.3406 100.715 26.2725 100.873 26.1737C101.043 26.0733 101.2 25.948 101.345 25.7978L101.352 25.7879L100.331 25.015C100.126 24.86 99.9377 24.7589 99.7655 24.7117C99.6049 24.6629 99.4598 24.6623 99.3303 24.7098C99.2008 24.7573 99.091 24.8406 99.001 24.9596C98.9009 25.0918 98.8481 25.2233 98.8426 25.3543C98.8371 25.4852 98.873 25.6164 98.9503 25.7477C99.0277 25.879 99.1391 25.9996 99.2845 26.1097Z" fill="white"/>
<path d="M104.182 32.1277C103.737 31.6815 103.442 31.1858 103.296 30.6405C103.151 30.0952 103.154 29.553 103.308 29.014C103.461 28.475 103.76 27.9831 104.207 27.5383C104.664 27.0818 105.163 26.7777 105.703 26.6262C106.248 26.4687 106.793 26.4637 107.338 26.611C107.889 26.7525 108.387 27.0464 108.831 27.4925C109.399 28.0619 109.726 28.6896 109.813 29.3755C109.9 30.0614 109.735 30.7176 109.318 31.3441L108.062 30.085C108.215 29.8273 108.265 29.5548 108.213 29.2676C108.167 28.9861 108.029 28.731 107.801 28.502C107.596 28.2966 107.359 28.1643 107.09 28.1053C106.832 28.0463 106.556 28.0693 106.263 28.1744C105.981 28.2795 105.706 28.4666 105.436 28.7358C105.23 28.9407 105.072 29.1514 104.96 29.3681C104.854 29.579 104.789 29.7899 104.766 30.0009C104.748 30.206 104.774 30.4024 104.844 30.5901C104.92 30.7836 105.034 30.9567 105.186 31.1093C105.338 31.2619 105.502 31.3736 105.678 31.4442C105.859 31.5206 106.041 31.5561 106.223 31.5505C106.41 31.539 106.592 31.4807 106.768 31.3755L108.023 32.6346C107.407 33.0381 106.751 33.1954 106.053 33.1064C105.368 33.0175 104.744 32.6912 104.182 32.1277Z" fill="white"/>
<path d="M108.837 37.3095C108.566 36.9635 108.381 36.6191 108.281 36.2763C108.192 35.9348 108.216 35.5952 108.352 35.2575C108.494 34.9146 108.784 34.5721 109.221 34.2298L111.317 32.5899L110.658 31.7478L111.764 30.8819L112.423 31.724L113.879 30.821L114.799 31.996L113.458 33.0458L114.477 34.3481L113.37 35.214L112.351 33.9118L110.236 35.567C110.014 35.7407 109.899 35.9097 109.891 36.074C109.883 36.2384 109.97 36.438 110.154 36.673L110.66 37.3193L109.534 38.2005L108.837 37.3095Z" fill="white"/>
<path d="M113.495 45.2038C113.21 44.6329 113.065 44.0564 113.061 43.4744C113.058 42.8924 113.217 42.3493 113.54 41.8452C113.862 41.341 114.379 40.911 115.091 40.5551L119.873 38.1641L120.624 39.6654L115.831 42.062C115.445 42.2548 115.15 42.4809 114.946 42.7404C114.75 42.9962 114.648 43.2742 114.641 43.5745C114.637 43.8822 114.718 44.2028 114.885 44.5365C115.056 44.8775 115.263 45.1352 115.508 45.3094C115.756 45.491 116.042 45.58 116.364 45.5763C116.694 45.5689 117.052 45.4688 117.438 45.276L122.231 42.8794L122.981 44.3808L118.199 46.7718C117.488 47.1277 116.831 47.2797 116.231 47.2278C115.63 47.1759 115.095 46.9664 114.624 46.5995C114.157 46.2399 113.781 45.7746 113.495 45.2038Z" fill="white"/>
<path d="M116.351 52.2389C116.174 51.6952 116.106 51.1941 116.148 50.7357C116.19 50.2772 116.327 49.8835 116.56 49.5545C116.792 49.2256 117.096 48.9823 117.472 48.8245L117.99 50.4082C117.853 50.4965 117.737 50.6086 117.642 50.7443C117.555 50.8775 117.501 51.0345 117.482 51.2152C117.463 51.396 117.489 51.5967 117.561 51.8173C117.631 52.03 117.715 52.1943 117.814 52.3103C117.921 52.4236 118.036 52.495 118.159 52.5246C118.284 52.562 118.402 52.5627 118.512 52.5266C118.678 52.4726 118.788 52.3841 118.844 52.2612C118.908 52.1357 118.938 51.9734 118.934 51.7741C118.929 51.5749 118.913 51.3363 118.883 51.0582C118.845 50.7566 118.821 50.455 118.809 50.1534C118.808 49.8572 118.836 49.5822 118.893 49.3282C118.949 49.0743 119.055 48.8521 119.211 48.6616C119.367 48.4712 119.591 48.3283 119.882 48.233C120.237 48.1171 120.583 48.1086 120.92 48.2076C121.266 48.3039 121.58 48.5063 121.864 48.8146C122.148 49.123 122.374 49.5332 122.541 50.0454C122.776 50.7623 122.8 51.3824 122.613 51.9056C122.427 52.4288 122.063 52.8225 121.521 53.0867L121.03 51.5858C121.196 51.4793 121.303 51.3265 121.352 51.1276C121.41 50.934 121.396 50.7032 121.308 50.4353C121.216 50.1517 121.094 49.9518 120.942 49.8355C120.791 49.7193 120.632 49.6883 120.467 49.7423C120.357 49.7784 120.274 49.8579 120.218 49.9808C120.165 50.1115 120.136 50.2778 120.132 50.4796C120.137 50.6789 120.154 50.9175 120.183 51.1955C120.238 51.6834 120.259 52.1213 120.247 52.5092C120.242 52.8945 120.157 53.223 119.993 53.4946C119.837 53.7637 119.546 53.9678 119.121 54.1069C118.742 54.2305 118.37 54.2388 118.004 54.1319C117.645 54.0223 117.321 53.8055 117.032 53.4814C116.746 53.1652 116.519 52.751 116.351 52.2389Z" fill="white"/>
<path d="M122.944 60.6002L124.7 60.6211L123.436 59.4118L124.456 58.6467L125.27 60.1623L125.679 58.508L126.788 58.9598L125.887 60.487L127.594 60.0127L127.744 61.222L125.97 61.1657L127.216 62.4273L126.262 63.1216L125.436 61.6076L125.018 63.288L123.869 62.8161L124.786 61.3121L123.09 61.7848L122.944 60.6002Z" fill="white"/>
<path d="M118.519 73.0854C118.602 72.219 118.86 71.4902 119.291 70.8989C119.73 70.3166 120.3 69.8885 121.001 69.6145C121.71 69.3497 122.505 69.2597 123.388 69.3447C124.271 69.4297 125.035 69.6698 125.68 70.065C126.324 70.4685 126.806 70.9979 127.126 71.6533C127.445 72.3169 127.563 73.0819 127.479 73.9482C127.378 74.9961 127.036 75.8292 126.452 76.4475C125.867 77.0658 125.093 77.4117 124.128 77.4854L124.303 75.666C124.776 75.6033 125.157 75.4109 125.446 75.089C125.742 74.7761 125.917 74.3433 125.97 73.7905C126.02 73.2789 125.938 72.8256 125.727 72.4304C125.522 72.0443 125.207 71.7308 124.78 71.4899C124.362 71.2498 123.844 71.0999 123.225 71.0403C122.614 70.9815 122.077 71.0297 121.612 71.1848C121.147 71.3399 120.778 71.5875 120.504 71.9275C120.229 72.2757 120.067 72.7057 120.017 73.2172C119.964 73.77 120.041 74.2271 120.248 74.5884C120.463 74.9506 120.783 75.2063 121.21 75.3557L121.034 77.1874C120.151 76.9358 119.485 76.4512 119.038 75.7336C118.591 75.016 118.418 74.1333 118.519 73.0854Z" fill="white"/>
<path d="M117.02 81.1793C117.175 80.6029 117.447 80.118 117.836 79.7246C118.23 79.3414 118.701 79.0771 119.246 78.9318C119.797 78.7966 120.381 78.8118 120.998 78.9774C121.63 79.1472 122.147 79.4277 122.548 79.8187C122.955 80.2199 123.229 80.6881 123.368 81.2234C123.516 81.7608 123.512 82.3177 123.357 82.8941C123.2 83.4785 122.924 83.9623 122.53 84.3456C122.141 84.7389 121.671 85.0032 121.119 85.1384C120.574 85.2837 119.989 85.2725 119.365 85.1048C118.74 84.9371 118.224 84.6527 117.817 84.2515C117.416 83.8604 117.141 83.3962 116.994 82.8588C116.854 82.3235 116.863 81.7637 117.02 81.1793ZM118.425 81.5566C118.352 81.8288 118.352 82.0862 118.424 82.3287C118.494 82.5793 118.645 82.8 118.877 82.9911C119.106 83.1901 119.418 83.3423 119.81 83.4477C120.202 83.553 120.543 83.5761 120.834 83.5168C121.13 83.4676 121.372 83.3522 121.558 83.1705C121.75 82.9989 121.881 82.781 121.952 82.5168C122.021 82.2606 122.017 82.0062 121.938 81.7535C121.868 81.5029 121.719 81.2781 121.489 81.0791C121.265 80.8902 120.957 80.7431 120.564 80.6377C120.172 80.5324 119.828 80.5043 119.531 80.5534C119.233 80.6105 118.992 80.726 118.808 80.8997C118.621 81.0815 118.494 81.3004 118.425 81.5566Z" fill="white"/>
<path d="M115.791 85.7359L121.535 88.2411L120.944 89.5974L119.959 89.3037C120.202 89.6177 120.353 89.9773 120.411 90.3826C120.466 90.7954 120.396 91.226 120.201 91.6743C119.992 92.153 119.717 92.5126 119.377 92.7531C119.037 92.9937 118.641 93.1147 118.188 93.1162C117.732 93.1252 117.227 93.0088 116.672 92.7669L113.355 91.3204L114.021 89.7932L117.19 91.1751C117.646 91.3739 118.038 91.4276 118.368 91.3361C118.694 91.2522 118.944 91.0089 119.12 90.6062C119.233 90.3478 119.273 90.0896 119.241 89.8314C119.205 89.5808 119.099 89.3489 118.92 89.1355C118.75 88.9254 118.505 88.7508 118.186 88.6116L115.12 87.2745L115.791 85.7359Z" fill="white"/>
<path d="M111.218 94.8799C111.442 94.5019 111.696 94.204 111.979 93.9862C112.265 93.7798 112.59 93.6784 112.954 93.6819C113.325 93.6897 113.749 93.835 114.227 94.1179L116.517 95.4734L117.061 94.5532L118.27 95.269L117.726 96.1891L119.097 97.2174L118.337 98.5013L116.871 97.6336L116.028 99.0566L114.819 98.3409L115.662 96.9178L113.351 95.5497C113.108 95.4061 112.909 95.3604 112.753 95.4125C112.597 95.4646 112.443 95.619 112.291 95.8758L111.872 96.582L110.642 95.8536L111.218 94.8799Z" fill="white"/>
<path d="M108.595 98.4222C108.912 98.0074 109.24 97.7154 109.578 97.5462C109.923 97.382 110.257 97.3197 110.582 97.3593C110.908 97.4104 111.209 97.5418 111.486 97.7533C111.789 97.985 111.998 98.2647 112.112 98.5924C112.222 98.9266 112.224 99.2989 112.119 99.709C112.009 100.126 111.773 100.571 111.41 101.045L110.466 102.28C110.709 102.466 110.935 102.587 111.144 102.642C111.359 102.702 111.558 102.693 111.743 102.615C111.928 102.537 112.108 102.383 112.285 102.153C112.476 101.903 112.584 101.646 112.608 101.382C112.633 101.131 112.549 100.899 112.356 100.689L113.345 99.3949C113.676 99.6998 113.894 100.049 113.999 100.443C114.107 100.849 114.107 101.271 114 101.711C113.888 102.158 113.676 102.585 113.364 102.994C113.006 103.461 112.617 103.805 112.197 104.027C111.777 104.248 111.349 104.338 110.912 104.296C110.474 104.254 110.038 104.066 109.604 103.734L106.523 101.377L107.384 100.251L108.257 100.685C108.181 100.511 108.128 100.335 108.098 100.156C108.069 99.9765 108.065 99.7907 108.086 99.5986C108.108 99.4065 108.162 99.2131 108.248 99.0182C108.328 98.8184 108.444 98.6197 108.595 98.4222ZM109.38 99.5239C109.249 99.695 109.163 99.8691 109.122 100.046C109.082 100.235 109.077 100.419 109.106 100.598C109.143 100.782 109.21 100.954 109.308 101.112C109.407 101.282 109.532 101.44 109.681 101.586L109.691 101.593L110.469 100.576C110.625 100.372 110.728 100.184 110.776 100.012C110.825 99.8518 110.827 99.7067 110.78 99.5769C110.733 99.4472 110.65 99.337 110.532 99.2463C110.4 99.1456 110.269 99.0921 110.138 99.0859C110.007 99.0797 109.876 99.1149 109.744 99.1916C109.612 99.2683 109.491 99.379 109.38 99.5239Z" fill="white"/>
<path d="M103.34 104.391C103.788 103.948 104.285 103.655 104.831 103.513C105.378 103.37 105.92 103.376 106.458 103.532C106.996 103.688 107.486 103.99 107.929 104.439C108.383 104.899 108.685 105.399 108.833 105.939C108.988 106.486 108.99 107.031 108.84 107.575C108.696 108.125 108.399 108.621 107.951 109.064C107.379 109.628 106.749 109.952 106.063 110.036C105.376 110.119 104.721 109.951 104.097 109.53L105.362 108.281C105.619 108.436 105.891 108.487 106.179 108.436C106.461 108.391 106.717 108.255 106.947 108.028C107.153 107.824 107.287 107.588 107.347 107.319C107.407 107.061 107.386 106.786 107.282 106.492C107.179 106.21 106.993 105.933 106.725 105.662C106.521 105.455 106.311 105.295 106.095 105.183C105.885 105.076 105.674 105.01 105.463 104.985C105.258 104.966 105.062 104.991 104.874 105.06C104.68 105.135 104.506 105.248 104.353 105.4C104.199 105.551 104.087 105.714 104.015 105.89C103.938 106.071 103.902 106.252 103.906 106.434C103.917 106.622 103.974 106.804 104.079 106.98L102.813 108.229C102.413 107.611 102.259 106.954 102.351 106.257C102.444 105.572 102.773 104.95 103.34 104.391Z" fill="white"/>
<path d="M98.1326 109.017C98.48 108.748 98.8253 108.564 99.1687 108.466C99.5106 108.38 99.85 108.405 100.187 108.543C100.529 108.687 100.87 108.978 101.21 109.417L102.839 111.521L103.685 110.866L104.545 111.977L103.7 112.632L104.595 114.093L103.415 115.007L102.372 113.66L101.065 114.672L100.205 113.561L101.512 112.549L99.8678 110.425C99.6953 110.202 99.5269 110.086 99.3626 110.077C99.1983 110.068 98.9982 110.155 98.7623 110.338L98.1134 110.84L97.238 109.71L98.1326 109.017Z" fill="white"/>
<path d="M90.2105 113.632C90.7829 113.35 91.3601 113.208 91.9421 113.208C92.5241 113.207 93.0664 113.369 93.5688 113.694C94.0713 114.019 94.4986 114.539 94.8508 115.252L97.2168 120.047L95.7115 120.79L93.34 115.984C93.1493 115.598 92.9247 115.302 92.6662 115.096C92.4115 114.899 92.134 114.795 91.8338 114.786C91.5261 114.781 91.205 114.861 90.8705 115.026C90.5286 115.195 90.2699 115.401 90.0944 115.645C89.9114 115.892 89.821 116.177 89.823 116.5C89.8287 116.829 89.9269 117.188 90.1176 117.574L92.4892 122.38L90.9839 123.123L88.6179 118.328C88.2657 117.615 88.1172 116.958 88.1722 116.357C88.2273 115.757 88.4395 115.223 88.8089 114.754C89.171 114.289 89.6382 113.915 90.2105 113.632Z" fill="white"/>
<path d="M83.166 116.452C83.7106 116.277 84.212 116.211 84.6703 116.256C85.1286 116.3 85.5215 116.439 85.8493 116.674C86.177 116.908 86.4187 117.214 86.5745 117.59L84.9881 118.1C84.9005 117.962 84.7891 117.846 84.6538 117.75C84.5211 117.662 84.3644 117.608 84.1837 117.587C84.0031 117.567 83.8023 117.592 83.5813 117.663C83.3682 117.732 83.2034 117.815 83.087 117.913C82.9731 118.02 82.9011 118.134 82.8709 118.257C82.8328 118.382 82.8315 118.5 82.867 118.611C82.9202 118.777 83.0081 118.888 83.1307 118.944C83.2558 119.008 83.418 119.039 83.6173 119.036C83.8165 119.033 84.0553 119.017 84.3334 118.989C84.6353 118.953 84.937 118.93 85.2386 118.92C85.5348 118.921 85.8097 118.95 86.0634 119.008C86.317 119.066 86.5387 119.173 86.7283 119.33C86.9179 119.487 87.0596 119.711 87.1534 120.003C87.2675 120.358 87.2741 120.704 87.1734 121.041C87.0752 121.386 86.8712 121.7 86.5614 121.982C86.2516 122.264 85.8402 122.488 85.3272 122.653C84.609 122.883 83.9888 122.904 83.4666 122.715C82.9444 122.526 82.5526 122.159 82.2912 121.617L83.7947 121.134C83.9003 121.3 84.0525 121.408 84.2512 121.457C84.4445 121.517 84.6753 121.504 84.9437 121.418C85.2278 121.327 85.4284 121.206 85.5454 121.055C85.6624 120.904 85.6943 120.746 85.641 120.58C85.6056 120.47 85.5265 120.386 85.4039 120.33C85.2735 120.276 85.1073 120.246 84.9055 120.242C84.7063 120.245 84.4675 120.26 84.1893 120.289C83.7012 120.341 83.2632 120.36 82.8754 120.345C82.4901 120.338 82.1621 120.252 81.8913 120.087C81.623 119.929 81.4204 119.637 81.2836 119.211C81.1619 118.832 81.1555 118.46 81.2644 118.094C81.3759 117.736 81.5944 117.413 81.92 117.126C82.2377 116.841 82.6531 116.616 83.166 116.452Z" fill="white"/>
<path d="M74.7704 123L74.7404 124.757L75.9562 123.498L76.7161 124.523L75.1963 125.329L76.8484 125.747L76.3909 126.853L74.8684 125.944L75.3338 127.654L74.1238 127.797L74.1893 126.024L72.9212 127.263L72.2319 126.306L73.7502 125.487L72.0719 125.06L72.5498 123.914L74.049 124.839L73.585 123.141L74.7704 123Z" fill="white"/>
<path d="M62.3049 118.511C63.1708 118.599 63.8983 118.861 64.4874 119.295C65.0674 119.737 65.4925 120.31 65.7628 121.012C66.0241 121.722 66.1099 122.518 66.0203 123.4C65.9307 124.283 65.6867 125.045 65.2881 125.688C64.8814 126.33 64.3495 126.809 63.6925 127.126C63.0272 127.441 62.2616 127.555 61.3957 127.467C60.3483 127.361 59.517 127.014 58.9018 126.427C58.2865 125.84 57.9446 125.063 57.8759 124.098L59.6944 124.283C59.7547 124.755 59.9451 125.137 60.2655 125.428C60.5768 125.726 61.0087 125.903 61.5613 125.96C62.0726 126.011 62.5263 125.933 62.9226 125.723C63.3097 125.52 63.6248 125.207 63.868 124.781C64.1102 124.364 64.2628 123.847 64.3256 123.228C64.3875 122.618 64.3421 122.08 64.1894 121.615C64.0367 121.149 63.7911 120.779 63.4525 120.503C63.1057 120.226 62.6766 120.061 62.1653 120.009C61.6128 119.953 61.1553 120.028 60.7929 120.233C60.4297 120.446 60.1722 120.765 60.0207 121.191L58.1899 121.006C58.4461 120.123 58.9341 119.461 59.654 119.017C60.3739 118.574 61.2575 118.405 62.3049 118.511Z" fill="white"/>
<path d="M54.2178 116.97C54.7933 117.128 55.2768 117.402 55.6681 117.793C56.0492 118.19 56.311 118.662 56.4535 119.208C56.5858 119.76 56.5675 120.344 56.3987 120.959C56.2255 121.591 55.9424 122.106 55.5492 122.505C55.1459 122.91 54.6762 123.181 54.1402 123.318C53.6021 123.463 53.0452 123.456 52.4696 123.298C51.886 123.138 51.4037 122.86 51.0226 122.463C50.6312 122.072 50.3694 121.601 50.2372 121.049C50.0947 120.502 50.109 119.918 50.2799 119.294C50.4509 118.671 50.7381 118.156 51.1414 117.751C51.5345 117.352 52.0002 117.08 52.5384 116.935C53.0744 116.798 53.6342 116.81 54.2178 116.97ZM53.833 118.373C53.5612 118.299 53.3039 118.297 53.061 118.368C52.81 118.436 52.5885 118.586 52.3962 118.817C52.196 119.046 52.0421 119.356 51.9347 119.748C51.8273 120.14 51.8025 120.481 51.8602 120.772C51.9078 121.068 52.022 121.31 52.2027 121.497C52.3733 121.69 52.5905 121.823 52.8543 121.895C53.1101 121.965 53.3646 121.962 53.6177 121.885C53.8686 121.817 54.0942 121.668 54.2944 121.439C54.4845 121.216 54.6332 120.909 54.7406 120.517C54.8481 120.126 54.878 119.781 54.8304 119.485C54.7748 119.186 54.6607 118.944 54.4879 118.759C54.3071 118.572 54.0888 118.443 53.833 118.373Z" fill="white"/>
<path d="M49.67 115.719L47.1346 121.449L45.7815 120.851L46.0803 119.868C45.7651 120.109 45.4047 120.258 44.9991 120.314C44.5859 120.367 44.1557 120.295 43.7085 120.097C43.2309 119.886 42.8727 119.609 42.634 119.268C42.3952 118.927 42.2763 118.53 42.2772 118.077C42.2705 117.621 42.3896 117.116 42.6344 116.563L44.0983 113.254L45.622 113.928L44.2235 117.089C44.0223 117.544 43.9666 117.936 44.0563 118.266C44.1385 118.592 44.3805 118.844 44.7823 119.022C45.04 119.136 45.298 119.178 45.5564 119.147C45.8071 119.113 46.0397 119.007 46.254 118.83C46.4649 118.661 46.6409 118.417 46.7817 118.098L48.1349 115.04L49.67 115.719Z" fill="white"/>
<path d="M40.5509 111.098C40.9278 111.324 41.2244 111.579 41.4407 111.863C41.6456 112.15 41.7454 112.475 41.7399 112.839C41.7303 113.21 41.5827 113.634 41.2973 114.111L39.93 116.393L40.8473 116.943L40.1253 118.148L39.208 117.599L38.1727 118.964L36.8927 118.197L37.768 116.736L36.3494 115.886L37.0714 114.681L38.49 115.531L39.8701 113.227C40.015 112.985 40.0617 112.786 40.0104 112.63C39.9591 112.473 39.8055 112.318 39.5495 112.165L38.8455 111.743L39.5803 110.517L40.5509 111.098Z" fill="white"/>
<path d="M37.0241 108.458C37.4372 108.777 37.7275 109.106 37.895 109.445C38.0574 109.791 38.1179 110.126 38.0767 110.45C38.0238 110.776 37.8909 111.077 37.678 111.352C37.4447 111.654 37.164 111.861 36.8357 111.974C36.5009 112.082 36.1286 112.082 35.719 111.975C35.3028 111.863 34.8587 111.624 34.3865 111.259L33.157 110.309C32.9694 110.551 32.8475 110.777 32.7914 110.985C32.7302 111.199 32.7381 111.399 32.8149 111.584C32.8918 111.769 33.045 111.951 33.2745 112.128C33.5237 112.321 33.7799 112.43 34.0432 112.455C34.2948 112.482 34.5265 112.399 34.7382 112.207L36.0268 113.203C35.7202 113.532 35.3697 113.748 34.9752 113.852C34.5691 113.957 34.1464 113.955 33.7069 113.846C33.2609 113.731 32.8347 113.517 32.4281 113.203C31.9625 112.843 31.62 112.452 31.4007 112.031C31.1814 111.61 31.094 111.181 31.1386 110.744C31.1831 110.307 31.3727 109.872 31.7073 109.439L34.0802 106.37L35.2016 107.237L34.7635 108.109C34.937 108.033 35.1136 107.981 35.2931 107.952C35.4725 107.923 35.6583 107.92 35.8503 107.943C36.0423 107.966 36.2355 108.021 36.4298 108.108C36.6293 108.189 36.8273 108.306 37.0241 108.458ZM35.9183 109.237C35.7478 109.105 35.5742 109.018 35.3974 108.976C35.209 108.935 35.025 108.929 34.8456 108.958C34.661 108.993 34.4892 109.06 34.3303 109.157C34.1597 109.255 34.0013 109.379 33.8548 109.528L33.8472 109.538L34.8604 110.321C35.0637 110.478 35.2512 110.581 35.4229 110.63C35.583 110.681 35.728 110.683 35.858 110.637C35.988 110.59 36.0987 110.508 36.1899 110.39C36.2913 110.259 36.3455 110.128 36.3524 109.997C36.3593 109.866 36.3247 109.735 36.2487 109.603C36.1727 109.471 36.0626 109.349 35.9183 109.237Z" fill="white"/>
<path d="M31.0825 103.171C31.5227 103.621 31.8128 104.12 31.9529 104.667C32.093 105.214 32.0836 105.756 31.9249 106.293C31.7661 106.83 31.4614 107.319 31.0107 107.759C30.5481 108.211 30.0464 108.51 29.5053 108.656C28.9584 108.808 28.4133 108.807 27.8699 108.654C27.3207 108.507 26.826 108.208 26.3858 107.758C25.824 107.182 25.5032 106.551 25.4234 105.865C25.3436 105.178 25.5155 104.523 25.939 103.901L27.1813 105.173C27.0259 105.429 26.9728 105.701 27.0222 105.989C27.0657 106.271 27.2005 106.527 27.4263 106.759C27.629 106.966 27.8649 107.101 28.1338 107.163C28.391 107.224 28.6667 107.204 28.961 107.102C29.2436 107 29.5212 106.816 29.794 106.549C30.0016 106.347 30.1623 106.137 30.2763 105.922C30.3842 105.712 30.4512 105.502 30.4771 105.291C30.4972 105.086 30.4731 104.89 30.405 104.701C30.3311 104.507 30.2188 104.333 30.0683 104.178C29.9177 104.024 29.7549 103.911 29.5799 103.839C29.3991 103.76 29.2178 103.723 29.0361 103.727C28.8484 103.736 28.666 103.793 28.4889 103.896L27.2466 102.624C27.8668 102.227 28.5251 102.076 29.2215 102.173C29.9062 102.269 30.5265 102.601 31.0825 103.171Z" fill="white"/>
<path d="M26.4806 97.9382C26.7478 98.2869 26.9295 98.6333 27.0259 98.9771C27.1106 99.3195 27.0834 99.6588 26.9443 99.9951C26.7985 100.336 26.5052 100.676 26.0643 101.014L23.9521 102.632L24.6024 103.481L23.487 104.335L22.8367 103.486L21.3711 104.374L20.4637 103.19L21.8159 102.154L20.8103 100.841L21.9256 99.9866L22.9313 101.299L25.0633 99.6661C25.287 99.4947 25.4039 99.3269 25.4138 99.1627C25.4237 98.9984 25.3379 98.7979 25.1565 98.561L24.6574 97.9096L25.7925 97.04L26.4806 97.9382Z" fill="white"/>
<path d="M21.9043 89.9922C22.1838 90.566 22.3223 91.144 22.3199 91.726C22.3176 92.308 22.1525 92.8494 21.8247 93.3501C21.497 93.8509 20.9754 94.2755 20.2599 94.6239L15.4531 96.9648L14.7182 95.4557L19.5362 93.1093C19.9237 92.9206 20.2207 92.6976 20.4273 92.4402C20.6265 92.1865 20.7313 91.9096 20.7419 91.6094C20.7488 91.3018 20.6706 90.9803 20.5073 90.6449C20.3403 90.3021 20.1354 90.0423 19.8926 89.8655C19.6461 89.6813 19.3616 89.5893 19.0391 89.5897C18.7091 89.5936 18.3504 89.69 17.9628 89.8787L13.1448 92.2251L12.4099 90.716L17.2167 88.375C17.9321 88.0266 18.5898 87.8815 19.1898 87.9397C19.7898 87.9978 20.3232 88.2129 20.7901 88.5848C21.2535 88.9492 21.6248 89.4184 21.9043 89.9922Z" fill="white"/>
<path d="M19.1222 82.9344C19.2942 83.4799 19.3568 83.9816 19.31 84.4396C19.2633 84.8977 19.1219 85.2899 18.8859 85.6164C18.6499 85.9429 18.3432 86.183 17.9658 86.3368L17.4646 84.7478C17.6024 84.6609 17.7195 84.5501 17.8161 84.4154C17.9048 84.2831 17.9597 84.1267 17.981 83.9461C18.0023 83.7656 17.9781 83.5647 17.9083 83.3433C17.8409 83.1299 17.7584 82.9647 17.6607 82.8477C17.5551 82.7333 17.4409 82.6606 17.3182 82.6298C17.193 82.5911 17.075 82.5892 16.9644 82.6241C16.7984 82.6764 16.6868 82.7637 16.6298 82.886C16.5648 83.0108 16.5334 83.1728 16.5354 83.3721C16.5374 83.5714 16.5518 83.8102 16.5788 84.0885C16.6132 84.3906 16.6345 84.6924 16.6427 84.994C16.6405 85.2902 16.6098 85.565 16.5507 85.8183C16.4915 86.0717 16.383 86.2927 16.2253 86.4816C16.0675 86.6704 15.8424 86.8109 15.5499 86.9031C15.1942 87.0153 14.848 87.0202 14.5115 86.9177C14.1671 86.8177 13.8545 86.6121 13.5738 86.3008C13.2931 85.9895 13.0718 85.5769 12.9097 85.0631C12.6828 84.3437 12.6654 83.7234 12.8574 83.2022C13.0494 82.681 13.4175 82.2911 13.9617 82.0326L14.4367 83.5385C14.2698 83.6433 14.1612 83.7949 14.1108 83.9933C14.0499 84.1863 14.0619 84.4172 14.1467 84.686C14.2364 84.9706 14.3564 85.1718 14.5065 85.2896C14.6567 85.4074 14.8147 85.4401 14.9807 85.3878C15.0914 85.3529 15.1753 85.2743 15.2323 85.152C15.2869 85.0218 15.3171 84.8558 15.323 84.654C15.321 84.4548 15.3065 84.216 15.2796 83.9376C15.2299 83.4492 15.2134 83.0111 15.2302 82.6234C15.2391 82.2382 15.327 81.9106 15.4939 81.6406C15.6529 81.3732 15.9459 81.1722 16.3728 81.0375C16.7522 80.9179 17.1246 80.9134 17.4898 81.0242C17.8471 81.1375 18.1686 81.3577 18.4543 81.6848C18.7375 82.004 18.9601 82.4206 19.1222 82.9344Z" fill="white"/>
<path d="M12.6189 74.5083L10.8627 74.4692L12.1146 75.6915L11.0863 76.446L10.2882 74.9221L9.86179 76.5721L8.75827 76.1088L9.67518 74.5911L7.96249 75.0476L7.82549 73.8369L9.59829 73.9116L8.36544 72.6371L9.3266 71.9527L10.137 73.4752L10.5731 71.7992L11.7164 72.2829L10.7844 73.7774L12.4847 73.3222L12.6189 74.5083Z" fill="white"/>
<path d="M17.1714 62.0624C17.079 62.9278 16.8139 63.654 16.3761 64.2408C15.931 64.8185 15.3566 65.2407 14.6529 65.5074C13.9418 65.7649 13.1453 65.8466 12.2634 65.7525C11.3814 65.6584 10.6201 65.4104 9.97944 65.0085C9.33964 64.5984 8.86315 64.0641 8.54999 63.4054C8.23771 62.7385 8.12775 61.9724 8.22013 61.1069C8.33187 60.0601 8.683 59.2306 9.27354 58.6184C9.86407 58.0062 10.6421 57.6683 11.6075 57.6046L11.4135 59.4221C10.9405 59.48 10.5578 59.6683 10.2653 59.9873C9.9655 60.297 9.78612 60.728 9.72717 61.2803C9.67262 61.7913 9.74919 62.2455 9.95687 62.6428C10.1572 63.031 10.4693 63.3477 10.8933 63.593C11.309 63.8375 11.826 63.9927 12.4442 64.0587C13.0541 64.1238 13.5922 64.0812 14.0584 63.9309C14.5246 63.7806 14.8966 63.5368 15.1743 63.1997C15.4529 62.8543 15.6195 62.4261 15.674 61.9151C15.733 61.3628 15.661 60.905 15.458 60.5415C15.2468 60.1772 14.9285 59.9181 14.5031 59.7644L14.6984 57.9346C15.5793 58.1953 16.2396 58.6868 16.6793 59.4089C17.1191 60.1311 17.2831 61.0156 17.1714 62.0624Z" fill="white"/>
<path d="M18.7553 53.982C18.5945 54.5567 18.3175 55.0387 17.9245 55.428C17.5258 55.807 17.053 56.0663 16.506 56.2059C15.9534 56.3353 15.3697 56.314 14.7551 56.1419C14.1244 55.9655 13.6105 55.6796 13.2133 55.2844C12.8103 54.8789 12.5419 54.4078 12.408 53.8711C12.2662 53.3322 12.2757 52.7753 12.4366 52.2006C12.5996 51.6179 12.8806 51.137 13.2793 50.758C13.6723 50.3687 14.1451 50.1094 14.6978 49.98C15.2447 49.8404 15.8295 49.8577 16.4521 50.032C17.0748 50.2063 17.5876 50.4961 17.9906 50.9016C18.3878 51.2968 18.6574 51.7639 18.7992 52.3028C18.933 52.8395 18.9184 53.3992 18.7553 53.982ZM17.3544 53.5899C17.4304 53.3185 17.4335 53.0611 17.3639 52.8178C17.2965 52.5666 17.1478 52.3442 16.9179 52.1507C16.6902 51.9493 16.3808 51.7938 15.9897 51.6844C15.5986 51.5749 15.2574 51.5483 14.9662 51.6045C14.6693 51.6505 14.4268 51.7634 14.2387 51.9432C14.045 52.1128 13.9112 52.3293 13.8375 52.5927C13.766 52.8481 13.7679 53.1026 13.8433 53.3561C13.9107 53.6074 14.0583 53.8337 14.2859 54.0352C14.5079 54.2264 14.8144 54.3768 15.2055 54.4862C15.5967 54.5957 15.9407 54.6274 16.2376 54.5814C16.5368 54.5274 16.7793 54.4145 16.9651 54.2427C17.1531 54.0629 17.2829 53.8453 17.3544 53.5899Z" fill="white"/>
<path d="M20.0313 49.439L14.3139 46.8736L14.9196 45.5236L15.9007 45.8276C15.6611 45.5111 15.5143 45.1499 15.4602 44.7441C15.4095 44.3306 15.4842 43.9008 15.6844 43.4546C15.8982 42.9782 16.1764 42.6215 16.5189 42.3845C16.8615 42.1475 17.2591 42.0307 17.7119 42.034C18.1681 42.0297 18.6723 42.1514 19.2243 42.3991L22.5255 43.8804L21.8434 45.4005L18.6897 43.9854C18.236 43.7818 17.844 43.724 17.5137 43.8121C17.1869 43.8926 16.9335 44.1332 16.7537 44.534C16.6383 44.7912 16.5953 45.049 16.6247 45.3075C16.6575 45.5584 16.7618 45.7915 16.9378 46.0067C17.1062 46.2186 17.3493 46.3958 17.6669 46.5383L20.7185 47.9076L20.0313 49.439Z" fill="white"/>
<path d="M24.6958 40.3489C24.4681 40.7246 24.2116 41.0199 23.9264 41.2347C23.6383 41.4381 23.3123 41.5362 22.9484 41.5289C22.5774 41.5173 22.1545 41.3675 21.6795 41.0797L19.404 39.7006L18.8497 40.615L17.6482 39.8868L18.2024 38.9723L16.8423 37.9299L17.6156 36.6539L19.0724 37.5368L19.9295 36.1226L21.1311 36.8508L20.274 38.2651L22.5708 39.6571C22.8118 39.8031 23.0106 39.8509 23.1672 39.8005C23.3238 39.75 23.4794 39.5971 23.6341 39.3419L24.0594 38.6401L25.2823 39.3813L24.6958 40.3489Z" fill="white"/>
<path d="M27.3589 36.8335C27.0374 37.245 26.7066 37.5336 26.3668 37.6993C26.0203 37.8599 25.685 37.9188 25.3609 37.8758C25.0353 37.8213 24.7354 37.6868 24.461 37.4725C24.1606 37.2377 23.9548 36.9558 23.8436 36.627C23.7375 36.2916 23.7391 35.9194 23.8483 35.5103C23.9627 35.0947 24.2036 34.6518 24.5711 34.1815L25.5281 32.9569C25.2865 32.768 25.0617 32.645 24.854 32.5878C24.6396 32.5256 24.4397 32.5324 24.2541 32.6083C24.0686 32.6842 23.8865 32.8364 23.7078 33.065C23.5139 33.3132 23.4035 33.5689 23.3767 33.832C23.3485 34.0835 23.4301 34.3156 23.6216 34.5283L22.6186 35.8117C22.2914 35.5035 22.0771 35.1518 21.9754 34.7568C21.8724 34.3502 21.8767 33.9274 21.9882 33.4886C22.1048 33.0432 22.3213 32.618 22.6378 32.2131C23.0002 31.7493 23.3925 31.4089 23.8146 31.1918C24.2368 30.9746 24.6663 30.8895 25.1031 30.9363C25.5399 30.9831 25.9739 31.1749 26.405 31.5118L29.4617 33.9005L28.5888 35.0174L27.7196 34.5748C27.7941 34.7487 27.8453 34.9255 27.8733 35.1052C27.9012 35.2848 27.9033 35.4705 27.8796 35.6624C27.8559 35.8543 27.7999 36.0472 27.7114 36.2411C27.6296 36.4401 27.5121 36.6376 27.3589 36.8335ZM26.585 35.7238C26.7177 35.554 26.8057 35.3808 26.849 35.2042C26.8909 35.016 26.8979 34.8321 26.8699 34.6525C26.8355 34.4677 26.7701 34.2956 26.6737 34.1362C26.576 33.9651 26.4531 33.806 26.3052 33.6588L26.2954 33.6511L25.5068 34.6602C25.3485 34.8627 25.2445 35.0497 25.1947 35.2211C25.1434 35.381 25.1405 35.526 25.1861 35.6562C25.2316 35.7865 25.3131 35.8975 25.4307 35.9894C25.5613 36.0915 25.692 36.1463 25.8229 36.1539C25.9537 36.1615 26.0854 36.1276 26.2179 36.0523C26.3504 35.977 26.4727 35.8675 26.585 35.7238Z" fill="white"/>
<path d="M32.6762 30.9189C32.2232 31.3567 31.723 31.6442 31.1755 31.7815C30.6279 31.9188 30.0859 31.9066 29.5493 31.7451C29.0127 31.5836 28.5255 31.2763 28.0877 30.8234C27.6383 30.3585 27.3421 29.8552 27.1988 29.3134C27.0499 28.7657 27.0533 28.2206 27.209 27.678C27.359 27.1295 27.6605 26.6364 28.1135 26.1985C28.6916 25.6397 29.3242 25.3222 30.0114 25.2459C30.6986 25.1696 31.3522 25.3449 31.9722 25.7716L30.6938 27.0074C30.4385 26.8506 30.1668 26.7962 29.8788 26.844C29.5967 26.8861 29.3394 27.0195 29.1069 27.2442C28.8983 27.4458 28.7624 27.681 28.6993 27.9495C28.6363 28.2064 28.655 28.4823 28.7556 28.7771C28.8563 29.0602 29.0391 29.3388 29.3041 29.613C29.5058 29.8216 29.7141 29.9834 29.929 30.0984C30.1382 30.2075 30.3481 30.2755 30.5587 30.3025C30.7635 30.3236 30.9603 30.3006 31.149 30.2334C31.3437 30.1605 31.5185 30.0492 31.6735 29.8994C31.8284 29.7496 31.9426 29.5874 32.0159 29.4128C32.0951 29.2324 32.1334 29.0513 32.1306 28.8695C32.1221 28.6818 32.0666 28.4991 31.9641 28.3215L33.2425 27.0858C33.6364 27.708 33.7835 28.3671 33.6837 29.063C33.5842 29.7472 33.2483 30.3658 32.6762 30.9189Z" fill="white"/>
<path d="M37.9298 26.3452C37.5797 26.6105 37.2325 26.7905 36.8881 26.8851C36.5453 26.968 36.2062 26.9391 35.8706 26.7982C35.53 26.6507 35.1919 26.3556 34.8565 25.913L33.2493 23.7924L32.3971 24.4383L31.5484 23.3185L32.4006 22.6726L31.5204 21.2024L32.7095 20.3012L33.7384 21.6588L35.0564 20.6599L35.905 21.7797L34.5871 22.7785L36.2093 24.919C36.3795 25.1436 36.5467 25.2613 36.7109 25.272C36.8751 25.2828 37.0761 25.1981 37.3139 25.0178L37.9679 24.5222L38.8316 25.6618L37.9298 26.3452Z" fill="white"/>
<path d="M45.8997 21.8118C45.3245 22.0882 44.7458 22.2238 44.1638 22.2183C43.5818 22.2129 43.0413 22.045 42.5423 21.7146C42.0432 21.3843 41.6214 20.8604 41.2767 20.1432L38.9609 15.3242L40.4739 14.5972L42.795 19.4274C42.9817 19.8159 43.2032 20.1141 43.4595 20.322C43.7121 20.5225 43.9885 20.6288 44.2887 20.6409C44.5962 20.6494 44.9181 20.5729 45.2544 20.4113C45.598 20.2462 45.8589 20.0427 46.0369 19.8008C46.2225 19.5553 46.3159 19.2713 46.3172 18.9487C46.315 18.6187 46.2205 18.2595 46.0338 17.871L43.7127 13.0408L45.2256 12.3137L47.5414 17.1327C47.8861 17.8499 48.0277 18.5084 47.9664 19.1081C47.9051 19.7077 47.6873 20.24 47.313 20.705C46.9461 21.1664 46.475 21.5353 45.8997 21.8118Z" fill="white"/>
<path d="M52.9729 19.0668C52.4265 19.236 51.9244 19.296 51.4667 19.2468C51.0089 19.1976 50.6174 19.0542 50.2921 18.8165C49.9669 18.5788 49.7284 18.2708 49.5766 17.8926L51.1681 17.3998C51.2543 17.538 51.3645 17.6557 51.4988 17.753C51.6306 17.8424 51.7867 17.8982 51.9671 17.9204C52.1475 17.9426 52.3486 17.9194 52.5703 17.8508C52.7841 17.7846 52.9497 17.7029 53.0672 17.6058C53.1822 17.5008 53.2554 17.387 53.2869 17.2645C53.3263 17.1394 53.3288 17.0215 53.2945 16.9107C53.243 16.7444 53.1563 16.6324 53.0343 16.5747C52.9099 16.5091 52.748 16.4768 52.5487 16.4778C52.3494 16.4787 52.1106 16.4919 51.8321 16.5174C51.5299 16.5502 51.2279 16.57 50.9263 16.5766C50.6301 16.5729 50.3555 16.5407 50.1024 16.4802C49.8494 16.4197 49.6289 16.3101 49.4409 16.1514C49.2529 15.9927 49.1136 15.7668 49.0229 15.4738C48.9126 15.1175 48.9095 14.7713 49.0137 14.4354C49.1155 14.0915 49.3228 13.78 49.6355 13.5009C49.9483 13.2219 50.362 13.0026 50.8767 12.8433C51.5973 12.6202 52.2177 12.606 52.7379 12.8007C53.2581 12.9954 53.646 13.3656 53.9017 13.9112L52.3933 14.3782C52.2894 14.2108 52.1383 14.1014 51.9402 14.0499C51.7475 13.9881 51.5165 13.9989 51.2473 14.0822C50.9622 14.1705 50.7604 14.2894 50.6419 14.4389C50.5233 14.5884 50.4897 14.7463 50.5412 14.9126C50.5755 15.0235 50.6537 15.1077 50.7757 15.1654C50.9056 15.2206 51.0714 15.2517 51.2731 15.2587C51.4724 15.2577 51.7113 15.2445 51.9898 15.219C52.4785 15.1719 52.9166 15.1577 53.3043 15.1765C53.6894 15.1874 54.0166 15.277 54.2856 15.4454C54.5522 15.6058 54.7517 15.8998 54.8841 16.3274C55.0018 16.7075 55.0043 17.0798 54.8916 17.4445C54.7764 17.8012 54.5545 18.1215 54.2259 18.4055C53.9052 18.687 53.4876 18.9074 52.9729 19.0668Z" fill="white"/>
<path d="M61.4335 12.6052L61.4816 10.8492L60.2529 12.0948L59.5037 11.0626L61.0317 10.2724L59.384 9.83744L59.8529 8.73633L61.3659 9.66107L60.9182 7.94604L62.1297 7.8153L62.0458 9.58769L63.3266 8.36145L64.006 9.32613L62.4794 10.1287L64.1531 10.5734L63.6635 11.7142L62.1739 10.7744L62.6202 12.4771L61.4335 12.6052Z" fill="white"/>
</svg>
