<svg width="138" height="138" viewBox="0 0 138 138" fill="none" xmlns="http://www.w3.org/2000/svg">
<circle cx="69" cy="69" r="69" fill="#062E39"/>
<path d="M73.4323 24.2523C72.6674 24.1814 72.0234 23.9563 71.5003 23.5771C70.9851 23.1913 70.6055 22.6896 70.3616 22.0718C70.1257 21.4475 70.0439 20.7456 70.1162 19.9662C70.1886 19.1868 70.3982 18.512 70.745 17.9417C71.0991 17.3721 71.5648 16.9452 72.1422 16.6608C72.7269 16.3771 73.4017 16.2708 74.1665 16.3418C75.0916 16.4276 75.8278 16.7274 76.3753 17.2411C76.9227 17.7547 77.2304 18.4371 77.2983 19.2883L75.6921 19.1393C75.6353 18.7226 75.4644 18.3871 75.1794 18.1329C74.9024 17.8721 74.5199 17.719 74.0319 17.6737C73.5802 17.6318 73.1804 17.7049 72.8323 17.893C72.4922 18.0745 72.2165 18.3538 72.0052 18.7309C71.7945 19.1008 71.6638 19.5588 71.6131 20.1052C71.5631 20.6442 71.6072 21.1185 71.7456 21.528C71.8839 21.9376 72.1035 22.2629 72.4044 22.5039C72.7125 22.7455 73.0924 22.8873 73.5441 22.9293C74.0321 22.9746 74.4352 22.9054 74.7535 22.7219C75.0724 22.5311 75.2972 22.2471 75.4277 21.8698L77.0448 22.0199C76.8254 22.8003 76.3997 23.389 75.7678 23.7859C75.1359 24.1827 74.3574 24.3382 73.4323 24.2523Z" fill="white"/>
<path d="M80.726 25.5752C80.2171 25.4391 79.789 25.1995 79.4415 24.8566C79.103 24.5086 78.8694 24.0939 78.7407 23.6127C78.621 23.1263 78.6339 22.611 78.7795 22.0669C78.9289 21.5086 79.176 21.0522 79.5208 20.6976C79.8745 20.3379 80.2875 20.0963 80.7598 19.9728C81.234 19.8422 81.7255 19.845 82.2343 19.9812C82.7502 20.1192 83.1774 20.3623 83.5159 20.7103C83.8633 21.0532 84.0969 21.4679 84.2167 21.9543C84.3454 22.4355 84.336 22.9517 84.1885 23.5029C84.041 24.0542 83.7903 24.5096 83.4366 24.8693C83.0918 25.2239 82.6824 25.4664 82.2082 25.597C81.7359 25.7205 81.2418 25.7133 80.726 25.5752ZM81.0578 24.335C81.2981 24.3993 81.5252 24.3995 81.7392 24.3356C81.9603 24.2736 82.155 24.1402 82.3234 23.9353C82.4989 23.7324 82.633 23.4578 82.7256 23.1115C82.8183 22.7652 82.8384 22.4639 82.7858 22.2075C82.7422 21.9459 82.6401 21.7331 82.4796 21.5689C82.328 21.3996 82.1356 21.2838 81.9024 21.2214C81.6763 21.1609 81.4517 21.1651 81.2288 21.2342C81.0077 21.2962 80.8094 21.4287 80.634 21.6317C80.4675 21.8294 80.3379 22.1014 80.2452 22.4477C80.1525 22.794 80.128 23.0979 80.1716 23.3595C80.2223 23.6229 80.3243 23.8358 80.4778 23.998C80.6384 24.1622 80.8317 24.2745 81.0578 24.335Z" fill="white"/>
<path d="M84.8271 26.6774L87.0487 21.6128L88.2445 22.1373L87.9835 23.0054C88.261 22.7916 88.5787 22.6594 88.9364 22.6086C89.3009 22.5608 89.6808 22.6236 90.076 22.7969C90.4981 22.9821 90.815 23.2249 91.0266 23.5255C91.2383 23.826 91.3443 24.1761 91.3448 24.5757C91.3519 24.9782 91.2483 25.424 91.0337 25.9131L89.751 28.8373L88.4045 28.2467L89.6299 25.4531C89.8062 25.0511 89.8543 24.7047 89.7741 24.414C89.7007 24.1261 89.4864 23.9043 89.1314 23.7486C88.9036 23.6487 88.6758 23.6126 88.4479 23.6405C88.2267 23.6712 88.0217 23.7651 87.8331 23.922C87.6474 24.0722 87.4928 24.288 87.3694 24.5693L86.1837 27.2725L84.8271 26.6774Z" fill="white"/>
<path d="M93.049 30.8022C92.7147 30.6059 92.451 30.3831 92.258 30.134C92.075 29.8822 91.9845 29.5957 91.9866 29.2745C91.9923 28.947 92.1193 28.572 92.3676 28.1493L93.557 26.1246L92.7433 25.6466L93.3714 24.5775L94.185 25.0555L95.0884 23.8426L96.2238 24.5096L95.4623 25.8058L96.7207 26.545L96.0927 27.6142L94.8343 26.8749L93.6337 28.9186C93.5078 29.1331 93.468 29.3091 93.5144 29.4467C93.5609 29.5842 93.6976 29.7197 93.9247 29.8531L94.5492 30.22L93.91 31.308L93.049 30.8022Z" fill="white"/>
<path d="M95.6266 32.7357C95.2581 32.4589 94.9979 32.1719 94.846 31.8748C94.6985 31.5718 94.6409 31.277 94.6733 30.9902C94.716 30.702 94.8295 30.4351 95.0141 30.1894C95.2162 29.9204 95.4614 29.734 95.7497 29.6304C96.0439 29.5311 96.3723 29.5262 96.7351 29.6158C97.1038 29.7097 97.4986 29.9148 97.9198 30.2312L99.0164 31.055C99.179 30.8386 99.2838 30.6383 99.3307 30.4539C99.3821 30.2638 99.3727 30.0875 99.3026 29.925C99.2325 29.7626 99.0951 29.6044 98.8904 29.4507C98.6681 29.2837 98.4407 29.1906 98.2081 29.1714C97.9857 29.1507 97.7823 29.2267 97.5978 29.3992L96.4485 28.5358C96.715 28.2419 97.0216 28.0468 97.3685 27.9505C97.7255 27.8528 98.0986 27.8494 98.4877 27.9404C98.8827 28.0358 99.2615 28.2197 99.6241 28.4922C100.039 28.8041 100.346 29.1445 100.545 29.5134C100.744 29.8822 100.826 30.2598 100.792 30.646C100.758 31.0322 100.596 31.4184 100.306 31.8044L98.25 34.5417L97.2498 33.7904L97.6257 33.016C97.4735 33.0846 97.3184 33.1328 97.1603 33.1604C97.0023 33.1881 96.8384 33.1931 96.6687 33.1754C96.499 33.1577 96.3279 33.1115 96.1553 33.0368C95.9783 32.9679 95.8021 32.8675 95.6266 32.7357ZM96.5928 32.0342C96.7449 32.1484 96.8992 32.2231 97.0557 32.2584C97.2225 32.2921 97.3849 32.2952 97.5429 32.2675C97.7053 32.234 97.8561 32.1734 97.9951 32.0857C98.1444 31.9966 98.2828 31.8855 98.4102 31.7525L98.4168 31.7437L97.5131 31.0648C97.3318 30.9286 97.1651 30.84 97.0129 30.7989C96.871 30.7564 96.743 30.7563 96.6289 30.7986C96.5147 30.8409 96.4181 30.9148 96.339 31.02C96.2511 31.137 96.205 31.2533 96.2005 31.3689C96.196 31.4845 96.2281 31.6001 96.2968 31.7157C96.3654 31.8313 96.4641 31.9375 96.5928 32.0342Z" fill="white"/>
<path d="M101.081 37.4618C100.688 37.0679 100.428 36.6303 100.299 36.149C100.171 35.6677 100.175 35.1892 100.31 34.7136C100.445 34.2379 100.71 33.8039 101.104 33.4115C101.508 33.0088 101.948 32.7407 102.425 32.6071C102.906 32.4684 103.387 32.4641 103.868 32.5944C104.354 32.7195 104.793 32.9789 105.185 33.3728C105.686 33.8756 105.975 34.4296 106.051 35.035C106.128 35.6403 105.982 36.2194 105.613 36.7722L104.506 35.6605C104.641 35.4332 104.685 35.1927 104.639 34.9391C104.598 34.6908 104.477 34.4655 104.276 34.2634C104.095 34.082 103.886 33.9652 103.648 33.913C103.421 33.8609 103.177 33.8811 102.919 33.9737C102.67 34.0663 102.427 34.2314 102.188 34.4689C102.007 34.6496 101.867 34.8355 101.768 35.0267C101.675 35.2128 101.617 35.3989 101.596 35.5851C101.581 35.7661 101.603 35.9394 101.665 36.1051C101.732 36.2759 101.833 36.4287 101.967 36.5634C102.101 36.6982 102.246 36.7968 102.401 36.8591C102.561 36.9267 102.721 36.958 102.882 36.9532C103.047 36.9431 103.208 36.8917 103.363 36.7989L104.471 37.9106C103.927 38.2665 103.347 38.405 102.732 38.3263C102.127 38.2475 101.576 37.9594 101.081 37.4618Z" fill="white"/>
<path d="M105.288 42.1372C105.047 41.8333 104.882 41.5304 104.792 41.2283C104.712 40.9275 104.731 40.6277 104.849 40.3289C104.973 40.0256 105.227 39.7217 105.611 39.4173L107.452 37.959L106.865 37.2193L107.837 36.4492L108.423 37.1889L109.704 36.3843L110.522 37.4164L109.343 38.35L110.25 39.4939L109.278 40.2639L108.372 39.12L106.514 40.592C106.319 40.7465 106.218 40.8962 106.212 41.0413C106.205 41.1864 106.284 41.3621 106.448 41.5685L106.897 42.1362L105.908 42.9199L105.288 42.1372Z" fill="white"/>
<path d="M108.69 47.7783C108.483 47.3829 108.386 47.0003 108.399 46.6303C108.421 46.2634 108.552 45.9223 108.792 45.6069C109.038 45.2882 109.397 45.0049 109.871 44.7572L112.719 43.2656L113.406 44.5779L110.694 45.9982C110.299 46.2053 110.043 46.4424 109.927 46.7096C109.814 46.9833 109.848 47.2919 110.028 47.6354C110.143 47.8557 110.293 48.0247 110.479 48.1423C110.671 48.2565 110.886 48.3129 111.125 48.3117C111.374 48.3136 111.637 48.2416 111.916 48.0957L114.531 46.7263L115.213 48.0289L110.314 50.5946L109.713 49.4475L110.454 48.9231C110.101 48.9265 109.767 48.833 109.453 48.6425C109.145 48.4487 108.891 48.1606 108.69 47.7783Z" fill="white"/>
<path d="M111.475 54.1146C111.307 53.6387 111.237 53.198 111.264 52.7926C111.291 52.3872 111.404 52.037 111.603 51.7419C111.801 51.4468 112.064 51.2257 112.392 51.0787L112.882 52.4651C112.763 52.5459 112.663 52.6472 112.582 52.7689C112.508 52.8883 112.464 53.0279 112.451 53.1878C112.438 53.3477 112.465 53.5242 112.533 53.7173C112.599 53.9035 112.677 54.0467 112.767 54.1469C112.863 54.2447 112.966 54.3053 113.075 54.3288C113.187 54.3592 113.291 54.3573 113.388 54.3232C113.532 54.272 113.628 54.1916 113.675 54.082C113.728 53.97 113.751 53.8262 113.743 53.6505C113.736 53.4748 113.716 53.2646 113.684 53.0199C113.644 52.7545 113.616 52.4889 113.6 52.2232C113.593 51.9618 113.612 51.7186 113.656 51.4933C113.701 51.2681 113.79 51.0698 113.923 50.8985C114.057 50.7272 114.251 50.5965 114.506 50.5063C114.816 50.3966 115.122 50.3819 115.422 50.4621C115.728 50.5399 116.01 50.7119 116.267 50.9779C116.524 51.244 116.732 51.6013 116.89 52.0496C117.112 52.6773 117.146 53.2238 116.993 53.6893C116.839 54.1548 116.526 54.5098 116.054 54.7543L115.59 53.4403C115.734 53.3429 115.825 53.2059 115.863 53.0294C115.911 52.8573 115.894 52.654 115.811 52.4195C115.723 52.1712 115.611 51.9973 115.475 51.898C115.339 51.7986 115.199 51.7745 115.054 51.8257C114.957 51.8598 114.886 51.9317 114.839 52.0413C114.795 52.1578 114.773 52.3051 114.774 52.4832C114.782 52.6589 114.802 52.8691 114.834 53.1138C114.893 53.5431 114.92 53.929 114.917 54.2715C114.921 54.6115 114.853 54.9031 114.714 55.1462C114.582 55.3869 114.33 55.5731 113.957 55.7047C113.626 55.8217 113.298 55.8368 112.972 55.7501C112.654 55.661 112.364 55.4765 112.102 55.1966C111.842 54.9236 111.634 54.5629 111.475 54.1146Z" fill="white"/>
<path d="M117.574 61.8466L119.124 61.8438L117.993 60.792L118.885 60.1045L119.621 61.432L119.962 59.9673L120.946 60.3526L120.169 61.7111L121.67 61.2719L121.817 62.3372L120.251 62.309L121.366 63.4072L120.532 64.0314L119.785 62.7054L119.436 64.1934L118.417 63.7908L119.208 62.4525L117.717 62.8902L117.574 61.8466Z" fill="white"/>
<path d="M113.808 73.3322C113.878 72.5672 114.102 71.9227 114.48 71.3988C114.864 70.8828 115.365 70.5022 115.983 70.257C116.606 70.0198 117.308 69.9366 118.088 70.0073C118.867 70.078 119.543 70.2862 120.114 70.6318C120.684 70.9847 121.112 71.4496 121.397 72.0264C121.682 72.6105 121.79 73.285 121.721 74.05C121.637 74.9753 121.338 75.7122 120.826 76.2606C120.313 76.8091 119.632 77.1182 118.78 77.1879L118.926 75.5815C119.343 75.5238 119.678 75.3522 119.932 75.0667C120.192 74.7891 120.344 74.4063 120.388 73.9181C120.429 73.4664 120.355 73.0667 120.167 72.7191C119.984 72.3793 119.704 72.1042 119.327 71.8936C118.957 71.6838 118.498 71.554 117.952 71.5045C117.413 71.4555 116.939 71.5007 116.529 71.6398C116.12 71.779 115.795 71.9993 115.555 72.3007C115.314 72.6093 115.173 72.9895 115.132 73.4412C115.088 73.9294 115.157 74.3324 115.342 74.6502C115.533 74.9688 115.818 75.1929 116.195 75.3227L116.048 76.94C115.267 76.7223 114.678 76.2979 114.28 75.6667C113.882 75.0356 113.725 74.2574 113.808 73.3322Z" fill="white"/>
<path d="M112.498 80.6299C112.633 80.1208 112.871 79.6921 113.213 79.3439C113.561 79.0047 113.975 78.7702 114.456 78.6405C114.942 78.5198 115.457 78.5316 116.002 78.6761C116.56 78.8243 117.017 79.0704 117.373 79.4145C117.733 79.7674 117.976 80.1799 118.1 80.652C118.232 81.1259 118.23 81.6173 118.095 82.1264C117.958 82.6426 117.716 83.0703 117.368 83.4096C117.026 83.7577 116.612 83.9922 116.126 84.113C115.645 84.2427 115.129 84.2344 114.577 84.088C114.026 83.9417 113.57 83.692 113.209 83.339C112.854 82.995 112.611 82.586 112.479 82.1121C112.354 81.6401 112.361 81.146 112.498 80.6299ZM113.739 80.9591C113.675 81.1995 113.675 81.4267 113.739 81.6405C113.802 81.8615 113.936 82.0559 114.141 82.2239C114.344 82.3989 114.619 82.5324 114.966 82.6244C115.312 82.7163 115.613 82.7357 115.87 82.6826C116.131 82.6385 116.344 82.536 116.508 82.3751C116.677 82.2231 116.792 82.0305 116.854 81.7972C116.914 81.5709 116.909 81.3464 116.84 81.1236C116.777 80.9026 116.644 80.7046 116.441 80.5296C116.243 80.3635 115.971 80.2345 115.624 80.1425C115.278 80.0506 114.974 80.0267 114.712 80.0709C114.449 80.1221 114.236 80.2246 114.074 80.3784C113.91 80.5393 113.799 80.7329 113.739 80.9591Z" fill="white"/>
<path d="M111.404 84.7286L116.473 86.9395L115.951 88.1365L115.082 87.8773C115.297 88.1544 115.43 88.4717 115.481 88.8294C115.53 89.1938 115.468 89.5738 115.295 89.9694C115.111 90.3918 114.869 90.7092 114.569 90.9215C114.269 91.1338 113.919 91.2406 113.519 91.2419C113.117 91.2499 112.671 91.1471 112.181 90.9337L109.254 89.6571L109.842 88.3093L112.638 89.5288C113.041 89.7043 113.387 89.7517 113.678 89.6709C113.965 89.5969 114.187 89.3821 114.342 89.0267C114.441 88.7988 114.477 88.5709 114.448 88.343C114.417 88.1219 114.323 87.9172 114.165 87.7288C114.015 87.5434 113.799 87.3893 113.517 87.2665L110.812 86.0864L111.404 84.7286Z" fill="white"/>
<path d="M107.297 92.9631C107.493 92.6284 107.715 92.3643 107.964 92.1707C108.215 91.9872 108.501 91.8961 108.823 91.8975C109.15 91.9025 109.525 92.0288 109.949 92.2761L111.976 93.4613L112.452 92.6467L113.523 93.2725L113.046 94.0872L114.261 94.988L113.596 96.1248L112.299 95.366L111.562 96.6259L110.491 96.0001L111.228 94.7402L109.182 93.5439C108.967 93.4184 108.791 93.379 108.654 93.4257C108.516 93.4724 108.381 93.6095 108.248 93.8368L107.882 94.462L106.793 93.8251L107.297 92.9631Z" fill="white"/>
<path d="M105.362 95.545C105.638 95.1759 105.924 94.9151 106.221 94.7626C106.524 94.6144 106.819 94.5562 107.106 94.588C107.394 94.6301 107.661 94.7431 107.907 94.9272C108.176 95.1287 108.363 95.3736 108.468 95.6617C108.567 95.9556 108.573 96.2841 108.484 96.647C108.391 97.0158 108.187 97.4111 107.871 97.8329L107.05 98.9313C107.266 99.0934 107.467 99.1978 107.651 99.2444C107.842 99.2953 108.018 99.2856 108.18 99.2151C108.343 99.1447 108.5 99.007 108.654 98.8019C108.82 98.5793 108.913 98.3517 108.932 98.119C108.952 97.8966 108.875 97.6934 108.703 97.5092L109.564 96.3581C109.858 96.624 110.054 96.9303 110.151 97.2769C110.249 97.6338 110.253 98.0069 110.163 98.3962C110.069 98.7913 109.885 99.1705 109.614 99.5337C109.303 99.9496 108.963 100.257 108.595 100.457C108.226 100.656 107.849 100.739 107.462 100.706C107.076 100.673 106.69 100.512 106.303 100.223L103.561 98.1721L104.311 97.1704L105.086 97.5447C105.017 97.3926 104.968 97.2376 104.94 97.0796C104.912 96.9216 104.907 96.7577 104.924 96.588C104.942 96.4183 104.988 96.247 105.062 96.0743C105.131 95.8972 105.231 95.7207 105.362 95.545ZM106.066 96.5097C105.952 96.662 105.877 96.8165 105.842 96.9731C105.809 97.1399 105.806 97.3023 105.834 97.4603C105.868 97.6226 105.929 97.7733 106.017 97.9121C106.106 98.0613 106.218 98.1994 106.351 98.3265L106.36 98.3331L107.037 97.428C107.173 97.2464 107.261 97.0795 107.302 96.9273C107.344 96.7853 107.344 96.6573 107.301 96.5432C107.259 96.4292 107.185 96.3327 107.079 96.2538C106.962 96.1662 106.846 96.1202 106.73 96.116C106.614 96.1118 106.499 96.1441 106.383 96.213C106.268 96.2819 106.162 96.3808 106.066 96.5097Z" fill="white"/>
<path d="M100.651 101.007C101.044 100.614 101.481 100.353 101.962 100.223C102.443 100.094 102.922 100.097 103.398 100.231C103.874 100.365 104.308 100.629 104.701 101.022C105.105 101.426 105.374 101.865 105.509 102.341C105.648 102.822 105.654 103.303 105.524 103.784C105.4 104.271 105.142 104.71 104.749 105.104C104.247 105.605 103.693 105.895 103.088 105.973C102.483 106.051 101.904 105.906 101.35 105.539L102.459 104.429C102.687 104.563 102.928 104.607 103.181 104.561C103.429 104.519 103.654 104.398 103.856 104.196C104.037 104.015 104.153 103.805 104.205 103.567C104.257 103.34 104.236 103.097 104.143 102.838C104.05 102.59 103.884 102.347 103.646 102.109C103.465 101.928 103.279 101.788 103.088 101.69C102.901 101.597 102.715 101.54 102.529 101.519C102.348 101.504 102.175 101.527 102.009 101.589C101.838 101.656 101.686 101.757 101.551 101.892C101.417 102.026 101.319 102.171 101.256 102.326C101.189 102.487 101.158 102.647 101.163 102.807C101.174 102.973 101.226 103.133 101.319 103.288L100.209 104.398C99.8523 103.855 99.7125 103.276 99.79 102.66C99.8675 102.055 100.155 101.504 100.651 101.007Z" fill="white"/>
<path d="M95.9879 105.224C96.2913 104.982 96.5939 104.816 96.8958 104.726C97.1964 104.645 97.4963 104.664 97.7953 104.781C98.0989 104.904 98.4033 105.157 98.7085 105.541L100.171 107.378L100.909 106.791L101.681 107.761L100.943 108.349L101.75 109.628L100.72 110.447L99.7835 109.271L98.6415 110.18L97.8695 109.21L99.0115 108.301L97.5356 106.446C97.3808 106.252 97.2308 106.151 97.0857 106.145C96.9406 106.139 96.7651 106.218 96.559 106.382L95.9923 106.833L95.2065 105.845L95.9879 105.224Z" fill="white"/>
<path d="M90.354 108.637C90.7488 108.429 91.1313 108.331 91.5013 108.343C91.8683 108.365 92.2097 108.496 92.5255 108.734C92.8448 108.98 93.1288 109.339 93.3775 109.811L94.875 112.656L93.5641 113.346L92.1382 110.637C91.9303 110.242 91.6927 109.987 91.4252 109.872C91.1513 109.759 90.8427 109.794 90.4996 109.974C90.2795 110.09 90.1109 110.241 89.9937 110.427C89.8799 110.619 89.8239 110.834 89.8256 111.073C89.8242 111.322 89.8968 111.585 90.0433 111.864L91.4182 114.476L90.117 115.161L87.5411 110.267L88.6869 109.664L89.2128 110.404C89.2087 110.05 89.3015 109.716 89.4913 109.401C89.6845 109.093 89.972 108.838 90.354 108.637Z" fill="white"/>
<path d="M84.0242 111.437C84.4998 111.268 84.9403 111.197 85.3458 111.223C85.7512 111.25 86.1017 111.362 86.3972 111.56C86.6927 111.758 86.9143 112.02 87.062 112.348L85.6767 112.841C85.5956 112.722 85.4941 112.623 85.3722 112.542C85.2527 112.468 85.113 112.424 84.9531 112.411C84.7932 112.398 84.6167 112.426 84.4237 112.495C84.2376 112.561 84.0946 112.639 83.9946 112.729C83.897 112.826 83.8366 112.929 83.8134 113.038C83.7832 113.15 83.7853 113.254 83.8196 113.35C83.8711 113.495 83.9517 113.591 84.0614 113.637C84.1735 113.69 84.3174 113.713 84.4931 113.705C84.6688 113.697 84.8789 113.676 85.1235 113.643C85.3888 113.603 85.6543 113.575 85.9201 113.558C86.1814 113.551 86.4247 113.569 86.65 113.613C86.8754 113.657 87.0738 113.746 87.2454 113.879C87.417 114.012 87.5481 114.206 87.6388 114.461C87.7492 114.771 87.7645 115.076 87.6849 115.376C87.6078 115.683 87.4364 115.965 87.1709 116.223C86.9053 116.48 86.5485 116.689 86.1005 116.848C85.4733 117.071 84.9268 117.107 84.461 116.954C83.9952 116.801 83.6395 116.489 83.3941 116.017L84.7071 115.55C84.8048 115.694 84.942 115.785 85.1186 115.823C85.2908 115.871 85.494 115.853 85.7284 115.769C85.9765 115.681 86.1501 115.569 86.2492 115.433C86.3483 115.296 86.3721 115.156 86.3206 115.011C86.2862 114.915 86.2142 114.843 86.1046 114.797C85.988 114.753 85.8406 114.732 85.6625 114.733C85.4868 114.741 85.2767 114.761 85.0321 114.794C84.6029 114.854 84.217 114.882 83.8745 114.88C83.5345 114.884 83.2428 114.817 82.9994 114.679C82.7584 114.547 82.5717 114.295 82.4393 113.923C82.3216 113.592 82.3058 113.264 82.3918 112.938C82.4803 112.619 82.6642 112.329 82.9436 112.066C83.216 111.806 83.5762 111.597 84.0242 111.437Z" fill="white"/>
<path d="M76.3016 117.547L76.3076 119.097L77.3571 117.964L78.0465 118.854L76.7204 119.593L78.1859 119.931L77.8026 120.916L76.4425 120.142L76.8848 121.642L75.8197 121.791L75.8448 120.225L74.7488 121.342L74.1229 120.51L75.4474 119.76L73.9587 119.414L74.3591 118.394L75.699 119.182L75.2583 117.692L76.3016 117.547Z" fill="white"/>
<path d="M64.8148 113.807C65.5799 113.875 66.2249 114.097 66.7496 114.474C67.2664 114.858 67.648 115.358 67.8945 115.975C68.133 116.598 68.2177 117.299 68.1486 118.079C68.0795 118.859 67.8727 119.535 67.5282 120.106C67.1765 120.677 66.7125 121.106 66.1363 121.393C65.5528 121.679 64.8785 121.788 64.1134 121.72C63.1879 121.638 62.4504 121.342 61.9009 120.83C61.3513 120.319 61.0408 119.638 60.9694 118.787L62.5761 118.929C62.6347 119.346 62.807 119.68 63.093 119.933C63.3711 120.193 63.7543 120.345 64.2425 120.388C64.6943 120.428 65.0938 120.353 65.4411 120.164C65.7804 119.981 66.055 119.7 66.2648 119.322C66.4739 118.952 66.6027 118.493 66.6511 117.946C66.6989 117.407 66.6528 116.933 66.5128 116.524C66.3728 116.115 66.1518 115.791 65.8499 115.551C65.5408 115.311 65.1603 115.17 64.7085 115.13C64.2203 115.087 63.8174 115.158 63.4999 115.343C63.1818 115.535 62.9582 115.82 62.8293 116.198L61.2116 116.054C61.4277 115.273 61.8509 114.682 62.4812 114.283C63.1115 113.884 63.8894 113.725 64.8148 113.807Z" fill="white"/>
<path d="M57.5053 112.508C58.0147 112.642 58.4438 112.88 58.7927 113.221C59.1327 113.568 59.368 113.981 59.4988 114.462C59.6205 114.948 59.6098 115.463 59.4664 116.008C59.3194 116.567 59.0742 117.024 58.7309 117.38C58.3787 117.742 57.9667 117.985 57.495 118.111C57.0214 118.243 56.5299 118.242 56.0205 118.108C55.504 117.972 55.0758 117.731 54.7359 117.385C54.3869 117.043 54.1516 116.629 54.0298 116.144C53.8991 115.663 53.9063 115.147 54.0515 114.595C54.1967 114.043 54.4454 113.586 54.7976 113.225C55.1409 112.869 55.5494 112.625 56.023 112.492C56.4947 112.367 56.9888 112.372 57.5053 112.508ZM57.1786 113.75C56.9381 113.686 56.7109 113.687 56.4972 113.752C56.2764 113.815 56.0823 113.949 55.9147 114.155C55.7401 114.358 55.6072 114.633 55.516 114.98C55.4248 115.327 55.406 115.628 55.4596 115.884C55.5043 116.146 55.6073 116.358 55.7685 116.522C55.9208 116.69 56.1137 116.805 56.3472 116.867C56.5735 116.926 56.7981 116.921 57.0207 116.851C57.2415 116.788 57.4392 116.655 57.6139 116.451C57.7795 116.253 57.908 115.98 57.9992 115.633C58.0904 115.287 58.1137 114.983 58.069 114.721C58.0172 114.458 57.9142 114.246 57.7601 114.084C57.5988 113.921 57.405 113.809 57.1786 113.75Z" fill="white"/>
<path d="M53.4089 111.43L51.2086 116.504L50.0106 115.985L50.2679 115.115C49.9913 115.33 49.6742 115.464 49.3167 115.516C48.9524 115.566 48.5723 115.504 48.1763 115.333C47.7535 115.149 47.4356 114.908 47.2227 114.608C47.0098 114.309 46.9022 113.959 46.9001 113.559C46.8912 113.157 46.9931 112.711 47.2055 112.221L48.4759 109.291L49.8249 109.876L48.6113 112.675C48.4367 113.077 48.39 113.424 48.4714 113.714C48.5461 114.002 48.7612 114.223 49.117 114.377C49.3452 114.476 49.5731 114.511 49.8009 114.482C50.022 114.451 50.2265 114.356 50.4145 114.198C50.5996 114.047 50.7532 113.831 50.8755 113.549L52.0498 110.841L53.4089 111.43Z" fill="white"/>
<path d="M45.1698 107.334C45.5049 107.529 45.7695 107.751 45.9635 107.999C46.1476 108.25 46.2392 108.536 46.2385 108.857C46.2341 109.185 46.1087 109.56 45.8622 109.984L44.6812 112.014L45.4969 112.488L44.8732 113.56L44.0576 113.085L43.1593 114.302L42.0211 113.64L42.7772 112.34L41.5158 111.606L42.1394 110.535L43.4008 111.269L44.5928 109.22C44.7179 109.005 44.757 108.829 44.71 108.691C44.6629 108.554 44.5256 108.419 44.298 108.287L43.672 107.922L44.3067 106.832L45.1698 107.334Z" fill="white"/>
<path d="M42.5835 105.413C42.9531 105.688 43.2145 105.974 43.3677 106.271C43.5165 106.573 43.5753 106.868 43.5441 107.154C43.5026 107.443 43.3901 107.71 43.2066 107.957C43.0056 108.226 42.7612 108.414 42.4733 108.519C42.1795 108.619 41.8511 108.625 41.4879 108.537C41.1189 108.445 40.7232 108.241 40.3008 107.927L39.2007 107.108C39.039 107.325 38.9351 107.525 38.8889 107.71C38.8383 107.9 38.8484 108.077 38.9192 108.239C38.99 108.401 39.128 108.558 39.3334 108.711C39.5563 108.877 39.7842 108.97 40.0169 108.988C40.2393 109.008 40.4424 108.931 40.6262 108.758L41.7791 109.616C41.5138 109.911 41.2079 110.107 40.8615 110.205C40.5048 110.304 40.1318 110.309 39.7423 110.22C39.3469 110.126 38.9674 109.944 38.6036 109.673C38.1871 109.363 37.8787 109.024 37.6784 108.656C37.4782 108.288 37.3943 107.91 37.4266 107.524C37.459 107.138 37.6193 106.751 37.9077 106.364L39.9527 103.618L40.9559 104.365L40.5833 105.141C40.7352 105.072 40.8901 105.023 41.048 104.994C41.206 104.966 41.3698 104.96 41.5396 104.977C41.7094 104.994 41.8807 105.04 42.0536 105.114C42.2309 105.182 42.4075 105.282 42.5835 105.413ZM41.6202 106.118C41.4677 106.005 41.3131 105.931 41.1564 105.896C40.9895 105.863 40.8271 105.861 40.6692 105.889C40.5069 105.923 40.3564 105.984 40.2177 106.073C40.0688 106.162 39.9309 106.274 39.804 106.408L39.7975 106.416L40.704 107.092C40.8858 107.227 41.0529 107.315 41.2052 107.355C41.3473 107.397 41.4753 107.397 41.5893 107.354C41.7033 107.311 41.7996 107.237 41.8782 107.131C41.9656 107.014 42.0113 106.898 42.0153 106.782C42.0193 106.666 41.9867 106.551 41.9176 106.436C41.8484 106.32 41.7493 106.215 41.6202 106.118Z" fill="white"/>
<path d="M37.105 100.709C37.499 101.102 37.7612 101.538 37.8916 102.019C38.022 102.5 38.0204 102.978 37.887 103.454C37.7536 103.931 37.4907 104.366 37.0984 104.76C36.6959 105.164 36.2568 105.434 35.7812 105.569C35.3004 105.71 34.8193 105.716 34.338 105.588C33.8515 105.465 33.4112 105.207 33.0172 104.815C32.5143 104.315 32.2235 103.762 32.1445 103.157C32.0656 102.552 32.2092 101.972 32.5752 101.418L33.6872 102.525C33.5532 102.753 33.5098 102.993 33.5569 103.247C33.5988 103.495 33.7209 103.72 33.9231 103.921C34.1045 104.102 34.3143 104.217 34.5523 104.269C34.7801 104.32 35.0231 104.299 35.2816 104.205C35.5297 104.111 35.7724 103.945 36.0098 103.707C36.1905 103.525 36.3297 103.339 36.4276 103.147C36.5203 102.961 36.5768 102.774 36.5971 102.588C36.6122 102.407 36.5885 102.234 36.5261 102.068C36.4585 101.898 36.3573 101.746 36.2225 101.611C36.0877 101.477 35.9426 101.379 35.7873 101.317C35.6268 101.251 35.4664 101.22 35.306 101.225C35.1405 101.236 34.9803 101.288 34.8253 101.382L33.7133 100.275C34.2556 99.9164 34.8347 99.7754 35.4504 99.8517C36.0558 99.9279 36.6073 100.214 37.105 100.709Z" fill="white"/>
<path d="M32.8798 96.0505C33.1218 96.3534 33.2884 96.6557 33.3797 96.9574C33.4606 97.2579 33.4428 97.5578 33.3261 97.857C33.2037 98.1609 32.951 98.4658 32.5681 98.7718L30.7336 100.238L31.3228 100.975L30.3541 101.749L29.765 101.012L28.4878 101.822L27.6658 100.793L28.8402 99.8545L27.9291 98.7144L28.8978 97.9403L29.8089 99.0805L31.6605 97.6008C31.8548 97.4455 31.9548 97.2953 31.9606 97.1502C31.9664 97.0052 31.8871 96.8297 31.7227 96.624L31.2706 96.0582L32.2564 95.2705L32.8798 96.0505Z" fill="white"/>
<path d="M29.4548 90.4315C29.6635 90.826 29.7623 91.2082 29.7511 91.5783C29.7301 91.9452 29.6005 92.2869 29.3623 92.6033C29.1177 92.923 28.7593 93.2078 28.2873 93.4575L25.4453 94.9609L24.7526 93.6515L27.4588 92.2199C27.8532 92.0112 28.1079 91.773 28.2229 91.5053C28.3344 91.2312 28.2995 90.9227 28.1182 90.58C28.0019 90.3601 27.8507 90.1918 27.6648 90.075C27.4724 89.9616 27.2568 89.906 27.0179 89.9082C26.7692 89.9074 26.5058 89.9805 26.2278 90.1276L23.6186 91.5079L22.931 90.2082L27.8196 87.622L28.4251 88.7666L27.6862 89.294C28.0395 89.2892 28.3737 89.3813 28.689 89.5704C28.9977 89.763 29.253 90.05 29.4548 90.4315Z" fill="white"/>
<path d="M26.6396 84.1006C26.8097 84.5758 26.882 85.0162 26.8562 85.4217C26.8305 85.8272 26.7191 86.1779 26.522 86.4738C26.3249 86.7697 26.0626 86.9919 25.735 87.1403L25.2392 85.7559C25.3578 85.6746 25.4573 85.5729 25.5379 85.4508C25.6116 85.3312 25.6548 85.1914 25.6675 85.0315C25.6801 84.8715 25.652 84.6951 25.5829 84.5023C25.5163 84.3163 25.4379 84.1734 25.3478 84.0736C25.2508 83.9763 25.1476 83.9161 25.0384 83.893C24.9266 83.8631 24.8226 83.8654 24.7261 83.8999C24.5815 83.9517 24.4861 84.0325 24.44 84.1423C24.3869 84.2545 24.3646 84.3985 24.3732 84.5742C24.3817 84.7498 24.4025 84.9599 24.4357 85.2045C24.4763 85.4697 24.5053 85.7351 24.5227 86.0009C24.5308 86.2621 24.5131 86.5055 24.4695 86.7309C24.4258 86.9563 24.3377 87.155 24.205 87.3268C24.0722 87.4987 23.8785 87.6302 23.6236 87.7215C23.3137 87.8325 23.0086 87.8485 22.7084 87.7695C22.4013 87.693 22.1187 87.5222 21.8606 87.2572C21.6025 86.9922 21.3933 86.6358 21.233 86.1882C21.0086 85.5614 20.9722 85.015 21.1239 84.5489C21.2755 84.0827 21.587 83.7264 22.0582 83.48L22.528 84.792C22.3844 84.89 22.2937 85.0274 22.256 85.2041C22.2089 85.3764 22.2273 85.5796 22.3111 85.8138C22.3999 86.0617 22.5125 86.2351 22.6489 86.3339C22.7853 86.4327 22.9258 86.4562 23.0704 86.4044C23.1668 86.3698 23.2381 86.2977 23.2843 86.1879C23.328 86.0712 23.349 85.9238 23.3474 85.7457C23.3389 85.57 23.318 85.3599 23.2849 85.1154C23.2245 84.6863 23.1951 84.3006 23.1968 83.9581C23.1916 83.618 23.258 83.3262 23.3961 83.0825C23.5273 82.8412 23.7788 82.654 24.1507 82.5209C24.4813 82.4025 24.8095 82.386 25.1353 82.4713C25.4543 82.5591 25.7453 82.7424 26.0083 83.0212C26.2688 83.2931 26.4793 83.6529 26.6396 84.1006Z" fill="white"/>
<path d="M20.5115 76.3951L18.9612 76.4044L20.0961 77.4515L19.2077 78.1427L18.4657 76.8182L18.1306 78.2844L17.1456 77.9031L17.9167 76.5414L16.4171 76.9868L16.2662 75.9221L17.832 75.9439L16.7127 74.8502L17.5436 74.2226L18.2964 75.5455L18.6393 74.0561L19.66 74.4545L18.8749 75.796L20.3636 75.3522L20.5115 76.3951Z" fill="white"/>
<path d="M24.2339 64.8993C24.1676 65.6646 23.9466 66.3099 23.5706 66.8355C23.1881 67.3531 22.6887 67.7357 22.0725 67.9834C21.4496 68.2232 20.7483 68.3094 19.9684 68.2419C19.1886 68.1744 18.5125 67.969 17.9401 67.6258C17.3683 67.2752 16.9384 66.8122 16.6505 66.2365C16.3632 65.6536 16.2526 64.9795 16.3189 64.2143C16.399 63.2886 16.6942 62.5505 17.2044 61.9999C17.7147 61.4493 18.3952 61.1374 19.2459 61.0642L19.1068 62.6713C18.6905 62.7307 18.3561 62.9037 18.1037 63.1902C17.8446 63.4688 17.6939 63.8523 17.6517 64.3406C17.6126 64.7925 17.6881 65.1919 17.8784 65.5388C18.062 65.8777 18.343 66.1517 18.7214 66.3607C19.0926 66.569 19.5514 66.6969 20.0981 66.7442C20.6374 66.7909 21.1114 66.7438 21.5201 66.6029C21.9288 66.4621 22.2527 66.2404 22.4918 65.9381C22.7316 65.6284 22.871 65.2476 22.9101 64.7957C22.9524 64.3074 22.8808 63.9047 22.6953 63.5876C22.5025 63.2699 22.217 63.0469 21.839 62.9187L21.979 61.3008C22.7608 61.5153 23.3521 61.9373 23.7529 62.5667C24.1536 63.1962 24.314 63.9737 24.2339 64.8993Z" fill="white"/>
<path d="M25.5129 57.5935C25.3799 58.1032 25.1431 58.5328 24.8024 58.8825C24.4565 59.2232 24.0433 59.4594 23.5629 59.5911C23.0773 59.7139 22.5619 59.7042 22.0169 59.5621C21.4577 59.4162 20.9997 59.172 20.643 58.8295C20.2811 58.478 20.0368 58.0665 19.9103 57.5951C19.7768 57.1217 19.7764 56.6302 19.9094 56.1206C20.0442 55.6038 20.2845 55.1751 20.6304 54.8344C20.9711 54.4848 21.3843 54.2486 21.8699 54.1257C22.3504 53.994 22.8666 54.0002 23.4188 54.1442C23.9709 54.2882 24.4279 54.5359 24.7899 54.8874C25.1466 55.2299 25.3917 55.6379 25.5253 56.1112C25.6518 56.5827 25.6476 57.0768 25.5129 57.5935ZM24.2706 57.2695C24.3333 57.0288 24.3321 56.8017 24.2669 56.5881C24.2035 56.3674 24.0688 56.1736 23.8629 56.0064C23.6589 55.8323 23.3834 55.6999 23.0365 55.6094C22.6897 55.519 22.3882 55.5008 22.1322 55.555C21.8709 55.6002 21.6587 55.7037 21.4956 55.8652C21.3272 56.0179 21.2126 56.211 21.1517 56.4446C21.0926 56.6711 21.0983 56.8956 21.1688 57.1181C21.2322 57.3388 21.3659 57.5362 21.57 57.7104C21.7688 57.8757 22.0416 58.0036 22.3885 58.094C22.7353 58.1845 23.0394 58.2071 23.3007 58.1619C23.5638 58.1095 23.776 58.0061 23.9373 57.8516C24.1004 57.6901 24.2115 57.496 24.2706 57.2695Z" fill="white"/>
<path d="M26.5901 53.4917L21.5115 51.3021L22.0285 50.103L22.8983 50.3585C22.6827 50.0824 22.5485 49.7656 22.4954 49.4081C22.4453 49.0439 22.5057 48.6637 22.6766 48.2673C22.859 47.8441 23.0999 47.5257 23.3991 47.3122C23.6983 47.0986 24.0477 46.9904 24.4473 46.9874C24.8498 46.9777 25.2962 47.0786 25.7866 47.29L28.7189 48.5542L28.1367 49.9045L25.3355 48.6967C24.9324 48.523 24.5857 48.4771 24.2955 48.559C24.0081 48.6343 23.7877 48.8499 23.6341 49.206C23.5357 49.4344 23.5011 49.6624 23.5304 49.8902C23.5625 50.1112 23.6577 50.3155 23.8158 50.5031C23.9671 50.6879 24.1839 50.8411 24.466 50.9627L27.1766 52.1314L26.5901 53.4917Z" fill="white"/>
<path d="M30.6604 45.24C30.4661 45.5756 30.245 45.8406 29.9971 46.0352C29.7465 46.2197 29.4606 46.312 29.1394 46.312C28.8118 46.3083 28.436 46.1836 28.0118 45.938L25.9797 44.7612L25.5068 45.5779L24.4338 44.9565L24.9067 44.1398L23.6882 43.244L24.3481 42.1045L25.649 42.8579L26.3804 41.5949L27.4534 42.2163L26.7221 43.4793L28.7732 44.667C28.9884 44.7917 29.1647 44.8304 29.302 44.7831C29.4392 44.7358 29.5739 44.5982 29.7059 44.3703L30.0688 43.7435L31.1608 44.3759L30.6604 45.24Z" fill="white"/>
<path d="M32.5831 42.6495C32.3086 43.0197 32.0233 43.2817 31.7271 43.4355C31.425 43.5849 31.1306 43.6443 30.8436 43.6136C30.5552 43.5728 30.2875 43.4609 30.0407 43.2778C29.7704 43.0774 29.5825 42.8334 29.4771 42.5457C29.376 42.2522 29.3691 41.9237 29.4564 41.5604C29.548 41.1912 29.7507 40.7951 30.0644 40.372L30.8814 39.2702C30.664 39.109 30.463 39.0055 30.2784 38.9596C30.0879 38.9095 29.9116 38.9199 29.7496 38.991C29.5876 39.0622 29.4303 39.2005 29.2778 39.4062C29.1123 39.6295 29.0206 39.8575 29.0028 40.0903C28.9836 40.3128 29.0608 40.5157 29.2344 40.6991L28.3782 41.8538C28.0827 41.5891 27.8857 41.2837 27.7872 40.9374C27.6873 40.581 27.6816 40.2079 27.7702 39.8182C27.8631 39.4227 28.0447 39.0428 28.3148 38.6784C28.6242 38.2612 28.9627 37.9521 29.3303 37.7512C29.6979 37.5502 30.0749 37.4654 30.4613 37.497C30.8478 37.5285 31.2349 37.6881 31.6227 37.9757L34.3728 40.0149L33.6277 41.0197L32.8509 40.6487C32.9205 40.8005 32.9697 40.9553 32.9983 41.1132C33.027 41.271 33.033 41.4348 33.0164 41.6047C32.9997 41.7745 32.9546 41.9459 32.8809 42.119C32.8131 42.2964 32.7138 42.4732 32.5831 42.6495ZM31.8756 41.6877C31.9889 41.5349 32.0627 41.3801 32.0969 41.2234C32.1297 41.0564 32.1317 40.894 32.103 40.7362C32.0685 40.5739 32.007 40.4236 31.9184 40.2851C31.8284 40.1363 31.7164 39.9987 31.5826 39.8721L31.5738 39.8656L30.9006 40.7734C30.7655 40.9556 30.6779 41.1229 30.6377 41.2752C30.5961 41.4174 30.5968 41.5454 30.6398 41.6593C30.6829 41.7732 30.7573 41.8694 30.8631 41.9478C30.9806 42.0349 31.0972 42.0804 31.2128 42.0841C31.3284 42.0879 31.4438 42.0551 31.559 41.9857C31.6742 41.9163 31.7797 41.817 31.8756 41.6877Z" fill="white"/>
<path d="M37.2715 37.1627C36.8801 37.5575 36.4441 37.8206 35.9636 37.952C35.4831 38.0834 35.0046 38.0828 34.5281 37.9504C34.0516 37.8179 33.616 37.5559 33.2212 37.1645C32.816 36.7627 32.5451 36.3242 32.4086 35.8489C32.2669 35.3684 32.2597 34.8874 32.3869 34.4057C32.509 33.919 32.7657 33.4782 33.1572 33.0834C33.6568 32.5795 34.2091 32.2874 34.8139 32.2073C35.4188 32.1271 35.9988 32.2695 36.5538 32.6344L35.449 33.7486C35.2208 33.6151 34.9801 33.5722 34.7269 33.6198C34.4787 33.6623 34.2542 33.7848 34.0534 33.9874C33.8731 34.1692 33.7576 34.3792 33.7069 34.6174C33.6561 34.8452 33.6779 35.0882 33.7721 35.3465C33.8663 35.5944 34.0328 35.8368 34.2718 36.0737C34.4536 36.254 34.6404 36.3928 34.8322 36.4903C35.0189 36.5826 35.2053 36.6387 35.3916 36.6586C35.5727 36.6734 35.7459 36.6494 35.9112 36.5866C36.0816 36.5186 36.2338 36.4171 36.3677 36.282C36.5016 36.1469 36.5993 36.0017 36.6607 35.8462C36.7272 35.6856 36.7576 35.5251 36.7517 35.3648C36.7407 35.1993 36.6883 35.0392 36.5945 34.8844L37.6993 33.7701C38.0585 34.3117 38.2007 34.8904 38.1257 35.5063C38.0507 36.1119 37.766 36.664 37.2715 37.1627Z" fill="white"/>
<path d="M41.918 32.9285C41.6156 33.1712 41.3137 33.3385 41.0122 33.4303C40.7119 33.5119 40.412 33.4947 40.1125 33.3786C39.8084 33.2568 39.5029 33.0048 39.1962 32.6225L37.7264 30.7911L36.9904 31.3817L36.2143 30.4147L36.9503 29.824L36.1378 28.5485L37.1648 27.7244L38.1057 28.8968L39.2439 27.9834L40.02 28.9505L38.8818 29.8639L40.3653 31.7125C40.5209 31.9064 40.6713 32.0062 40.8164 32.0117C40.9615 32.0172 41.1368 31.9375 41.3422 31.7727L41.907 31.3194L42.6968 32.3036L41.918 32.9285Z" fill="white"/>
<path d="M47.5378 29.4923C47.1437 29.7017 46.7617 29.8013 46.3916 29.7909C46.0246 29.7707 45.6827 29.6418 45.3658 29.4043C45.0456 29.1603 44.7601 28.8025 44.5094 28.331L43 25.4922L44.308 24.7967L45.7452 27.4999C45.9547 27.8939 46.1934 28.1481 46.4614 28.2625C46.7358 28.3735 47.0442 28.3379 47.3865 28.1559C47.6061 28.0391 47.7741 27.8877 47.8906 27.7015C48.0035 27.5089 48.0587 27.2931 48.056 27.0543C48.0563 26.8056 47.9826 26.5423 47.835 26.2646L46.4492 23.6583L47.7475 22.968L50.3438 27.8512L49.2006 28.459L48.6716 27.7212C48.6771 28.0745 48.5857 28.409 48.3972 28.7246C48.2053 29.0337 47.9189 29.2896 47.5378 29.4923Z" fill="white"/>
<path d="M53.8543 26.6617C53.3794 26.8329 52.9392 26.906 52.5337 26.8811C52.1281 26.8562 51.7772 26.7456 51.4808 26.5491C51.1845 26.3526 50.9618 26.0908 50.8127 25.7635L52.196 25.2649C52.2776 25.3832 52.3795 25.4826 52.5018 25.5629C52.6215 25.6364 52.7614 25.6793 52.9214 25.6916C53.0814 25.7039 53.2577 25.6754 53.4504 25.6059C53.6362 25.5389 53.7789 25.4603 53.8786 25.3699C53.9757 25.2727 54.0357 25.1694 54.0585 25.0601C54.0882 24.9483 54.0857 24.8442 54.0509 24.7479C53.9988 24.6034 53.9179 24.5081 53.808 24.4622C53.6956 24.4094 53.5516 24.3874 53.376 24.3963C53.2003 24.4052 52.9903 24.4265 52.7458 24.4601C52.4807 24.5013 52.2153 24.5308 51.9496 24.5488C51.6883 24.5575 51.4449 24.5402 51.2194 24.4971C50.9939 24.454 50.7951 24.3662 50.623 24.2338C50.4509 24.1015 50.3189 23.908 50.2271 23.6534C50.1155 23.3437 50.0989 23.0386 50.1772 22.7382C50.2531 22.4309 50.4232 22.148 50.6877 21.8893C50.9522 21.6307 51.3081 21.4208 51.7554 21.2595C52.3817 21.0338 52.9281 20.9963 53.3945 21.147C53.861 21.2977 54.2179 21.6083 54.4653 22.079L53.1543 22.5516C53.056 22.4082 52.9184 22.3178 52.7416 22.2804C52.5693 22.2337 52.3661 22.2525 52.1321 22.3368C51.8843 22.4261 51.7112 22.5391 51.6127 22.6757C51.5142 22.8123 51.491 22.9529 51.5431 23.0974C51.5778 23.1937 51.6501 23.2649 51.76 23.3108C51.8767 23.3543 52.0242 23.375 52.2023 23.373C52.378 23.3641 52.588 23.3428 52.8325 23.3091C53.2614 23.2478 53.6471 23.2177 53.9896 23.2187C54.3296 23.2127 54.6216 23.2786 54.8656 23.4161C55.1071 23.5468 55.2949 23.798 55.4288 24.1696C55.5479 24.4999 55.5651 24.8281 55.4804 25.1541C55.3933 25.4732 55.2106 25.7646 54.9323 26.0282C54.661 26.2893 54.3016 26.5005 53.8543 26.6617Z" fill="white"/>
<path d="M61.5582 20.5228L61.5457 18.9725L60.5009 20.1095L59.8079 19.2226L61.1309 18.4779L59.664 18.1457L60.0432 17.1599L61.4065 17.9282L60.9581 16.4296L62.0225 16.2765L62.0039 17.8423L63.0953 16.7207L63.7246 17.5503L62.4032 18.3059L63.8933 18.6458L63.4971 19.6673L62.154 18.885L62.6009 20.3727L61.5582 20.5228Z" fill="white"/>
<g clip-path="url(#clip0_1830_169)">
<path fill-rule="evenodd" clip-rule="evenodd" d="M77.9414 56.7786C81.5828 57.6236 82.9758 59.7529 84.7221 62.6836H77.9414V56.7786ZM56.6607 62.9297C57.3737 62.9297 57.8912 63.2738 57.8912 64.0781C57.8912 64.7565 57.3423 65.3067 56.6642 65.3086H49.2305C48.5508 65.3086 48 65.8597 48 66.5391C48 67.2187 48.5508 67.7695 49.2305 67.7695H60.3047C60.9907 67.7695 61.54 68.32 61.54 69C61.54 69.6796 60.9891 70.2305 60.3095 70.2305H49.2305C48.5508 70.2305 48 70.7813 48 71.4609C48 72.1406 48.5508 72.6914 49.2305 72.6914H51.9375V76.3828C51.9375 77.0625 52.4883 77.6133 53.168 77.6133H55.6414C56.0823 79.7852 58.0014 81.3867 60.2637 81.3867C62.5259 81.3867 64.445 79.7852 64.8859 77.6133H77.3797C77.8206 79.7852 79.7397 81.3867 82.002 81.3867C84.2642 81.3867 86.1833 79.7852 86.6242 77.6133H88.7695C89.4492 77.6133 90 77.0625 90 76.3828V69C90 65.3897 86.192 65.15 86.1884 65.1445H76.7109C76.0313 65.1445 75.4805 64.5937 75.4805 63.9141V56.5312H53.168C52.4883 56.5312 51.9375 57.0821 51.9375 57.7617V60.4688H50.4609C49.7813 60.4688 49.2305 61.0196 49.2305 61.6992C49.2305 62.3789 49.7813 62.9297 50.4609 62.9297H56.6607ZM83.5971 75.0748C84.478 75.9557 84.478 77.3845 83.5971 78.2654C82.1801 79.6823 79.7461 78.6742 79.7461 76.6699C79.7461 74.6659 82.1801 73.6578 83.5971 75.0748ZM61.8588 75.0748C62.7397 75.9557 62.7397 77.3845 61.8588 78.2654C60.4418 79.6823 58.0078 78.6742 58.0078 76.6699C58.0078 74.6659 60.4418 73.6578 61.8588 75.0748Z" fill="#FD5523"/>
</g>
<defs>
<clipPath id="clip0_1830_169">
<rect width="42" height="42" fill="white" transform="translate(48 48)"/>
</clipPath>
</defs>
</svg>
