<svg width="44" height="34" viewBox="0 0 44 34" fill="none" xmlns="http://www.w3.org/2000/svg">
<path d="M4.35885 30.7746C1.94219 28.1163 0.492188 25.2163 0.492188 20.383C0.492188 11.9246 6.53386 4.43295 14.9922 0.566284L17.1672 3.70795C9.19219 8.05795 7.50052 13.6163 7.01719 17.2413C8.22552 16.5163 9.91719 16.2746 11.6089 16.5163C15.9589 16.9996 19.3422 20.383 19.3422 24.9746C19.3422 27.1496 18.3755 29.3246 16.9255 31.0163C15.2339 32.708 13.3005 33.4329 10.8839 33.4329C8.22552 33.4329 5.80885 32.2246 4.35885 30.7746ZM28.5255 30.7746C26.1089 28.1163 24.6589 25.2163 24.6589 20.383C24.6589 11.9246 30.7005 4.43295 39.1589 0.566284L41.3339 3.70795C33.3589 8.05795 31.6672 13.6163 31.1839 17.2413C32.3922 16.5163 34.0839 16.2746 35.7755 16.5163C40.1255 16.9996 43.5089 20.383 43.5089 24.9746C43.5089 27.1496 42.5422 29.3246 41.0922 31.0163C39.6422 32.708 37.4672 33.4329 35.0505 33.4329C32.3922 33.4329 29.9755 32.2246 28.5255 30.7746Z" fill="white"/>
</svg>
