<svg width="30" height="30" viewBox="0 0 30 30" fill="none" xmlns="http://www.w3.org/2000/svg">
<g clip-path="url(#clip0_295_5739)">
<path d="M13.3554 3.21143C13.4348 3.20889 13.5141 3.20652 13.5935 3.20433C13.6648 3.20214 13.7361 3.19995 13.8095 3.19769C14.0425 3.22764 14.1357 3.28815 14.2966 3.45702C14.3856 3.67733 14.34 3.88233 14.3085 4.11293C14.2968 4.20168 14.2852 4.29043 14.2737 4.3792C14.2674 4.42669 14.2611 4.47418 14.2546 4.5231C14.0562 6.04475 13.9421 7.57162 13.8681 9.10399C13.8648 9.17061 13.8615 9.23724 13.8581 9.30588C13.6891 12.8248 13.9695 15.6254 16.4046 18.3115C17.0891 19.0556 17.8212 19.7456 18.5739 20.4199C18.6484 20.4868 18.6484 20.4868 18.7243 20.555C19.8463 21.5609 20.998 22.5268 22.1994 23.4366C22.2354 23.4639 22.2715 23.4913 22.3086 23.5194C22.4045 23.592 22.5008 23.6642 22.5971 23.7363C22.7703 23.8771 22.7867 23.9273 22.822 24.1479C22.7462 24.7351 22.0046 25.1972 21.5622 25.5469C20.9511 26.0153 20.3124 26.4238 19.6286 26.7773C19.5868 26.7991 19.545 26.8209 19.502 26.8434C16.6858 28.2954 13.4821 28.5214 10.4376 27.7327C10.0494 27.598 10.0494 27.598 9.67523 27.6626C9.64494 27.6944 9.61465 27.7261 9.58345 27.7588C9.23818 28.0873 8.84043 28.1902 8.36891 28.1918C8.27935 28.1923 8.27935 28.1923 8.18799 28.1928C8.12312 28.1929 8.05825 28.193 7.99142 28.193C7.88818 28.1935 7.88818 28.1935 7.78286 28.1939C7.59447 28.1946 7.40608 28.195 7.21769 28.1953C7.09976 28.1955 6.98183 28.1957 6.86389 28.196C6.49423 28.1968 6.12456 28.1973 5.75489 28.1976C5.32944 28.1978 4.90401 28.1989 4.47856 28.2006C4.14888 28.2018 3.81921 28.2024 3.48952 28.2025C3.29301 28.2026 3.09651 28.203 2.9 28.204C2.6804 28.205 2.46082 28.2048 2.24122 28.2045C2.17694 28.205 2.11266 28.2055 2.04644 28.2061C1.46498 28.203 0.982626 28.0976 0.529796 27.721C0.111026 27.2903 -0.016765 26.8448 -0.0191197 26.2616C-0.0110577 25.779 0.143706 25.4377 0.468456 25.0781C0.401018 24.932 0.326455 24.8081 0.234081 24.6753C-0.0494234 24.2323 -0.0682116 23.7142 -0.000294149 23.2031C0.0708444 22.9867 0.167907 22.8069 0.292675 22.6172C0.327721 22.5567 0.362767 22.4963 0.398876 22.4341C0.421837 22.3978 0.444799 22.3616 0.468456 22.3242C0.434618 22.2867 0.40078 22.2493 0.365917 22.2107C-0.0158424 21.6911 -0.0627645 21.195 -0.000294149 20.5664C0.117377 20.0762 0.463478 19.6669 0.885936 19.4018C1.21442 19.2328 1.56989 19.1978 1.9333 19.1601C1.89644 19.1289 1.85958 19.0976 1.82161 19.0654C0.822331 18.1955 0.086742 16.9923 -0.0132546 15.6458C-0.0423389 14.8542 -0.0324636 14.1107 0.234081 13.3594C0.258251 13.29 0.282421 13.2207 0.307323 13.1492C0.643875 12.283 1.26974 11.396 2.08024 10.9176C2.39499 10.7122 2.50842 10.4594 2.65474 10.1221C4.02238 7.19417 6.64705 5.00957 9.65486 3.91501C10.8523 3.49208 12.0885 3.27301 13.3554 3.21143ZM6.50361 6.85545C6.45739 6.89533 6.41116 6.93521 6.36354 6.9763C6.21218 7.10911 6.06453 7.24502 5.91767 7.3828C5.88693 7.41155 5.85619 7.4403 5.82452 7.46992C5.05574 8.19497 4.36366 9.02292 3.86689 9.96092C3.86689 9.99959 3.86689 10.0383 3.86689 10.0781C3.92913 10.0688 3.99137 10.0595 4.05549 10.05C4.97066 9.93677 5.92229 9.94674 6.79658 10.2539C6.89073 10.2867 6.89073 10.2867 6.98678 10.3203C7.66329 10.5805 8.21586 10.9784 8.73018 11.4844C8.79815 11.5512 8.79815 11.5512 8.8675 11.6194C9.74653 12.5376 10.1865 13.8083 10.2133 15.0696C10.1672 16.4791 9.65608 17.7432 8.67158 18.75C8.53058 18.8714 8.38877 18.984 8.23693 19.0915C8.20634 19.1141 8.17575 19.1368 8.14424 19.1601C8.14424 19.1795 8.14424 19.1988 8.14424 19.2187C8.20224 19.2245 8.26025 19.2302 8.32002 19.2361C8.93057 19.3026 9.37918 19.4041 9.81187 19.8635C10.1251 20.2698 10.2428 20.763 10.195 21.2695C10.1126 21.7027 9.92961 22.0319 9.66768 22.3828C9.69101 22.4092 9.71435 22.4355 9.7384 22.4627C10.0502 22.8413 10.166 23.2206 10.217 23.7048C10.1691 24.1434 10.0435 24.5007 9.77273 24.8504C9.71116 24.9644 9.71116 24.9644 9.76747 25.1026C9.79254 25.1525 9.81762 25.2025 9.84346 25.2539C9.8677 25.3022 9.89195 25.3506 9.91693 25.4004C9.96808 25.4981 10.0193 25.5958 10.0707 25.6933C10.2062 25.9955 10.2005 26.276 10.195 26.6015C10.731 26.7914 11.2639 26.9297 11.8247 27.0264C11.8798 27.0359 11.9349 27.0454 11.9918 27.0552C14.9557 27.5434 18.0612 26.8195 20.5075 25.0781C20.7001 24.9344 20.8886 24.7864 21.0751 24.635C21.1184 24.6001 21.1616 24.5652 21.2061 24.5292C21.2453 24.4964 21.2845 24.4635 21.3249 24.4297C21.3595 24.4007 21.3941 24.3717 21.4298 24.3419C21.5229 24.2544 21.5229 24.2544 21.5036 24.082C21.4054 23.967 21.3068 23.8626 21.1993 23.7569C21.1665 23.7241 21.1338 23.6912 21.1 23.6574C20.9897 23.5468 20.8787 23.4369 20.7677 23.327C20.6886 23.2482 20.6096 23.1692 20.5307 23.0903C20.3157 22.8755 20.1002 22.6613 19.8846 22.4471C19.6595 22.2233 19.4348 21.9989 19.2102 21.7747C18.7844 21.3497 18.3581 20.9251 17.9317 20.5007C17.1677 19.7404 16.4045 18.9794 15.6414 18.2182C15.3734 17.9508 15.1051 17.6837 14.8368 17.4167C14.6701 17.2508 14.5035 17.0848 14.337 16.9188C14.2595 16.8416 14.182 16.7645 14.1044 16.6874C13.9988 16.5825 13.8934 16.4774 13.7881 16.3723C13.7415 16.3262 13.7415 16.3262 13.6939 16.2791C13.4237 16.0087 13.4089 15.8505 13.4084 15.4785C13.4081 15.4305 13.4078 15.3826 13.4075 15.3332C13.4066 15.1716 13.4061 15.01 13.4056 14.8484C13.4051 14.733 13.4045 14.6175 13.4039 14.502C13.4023 14.1878 13.4011 13.8735 13.3999 13.5592C13.3986 13.2311 13.397 12.903 13.3954 12.5749C13.3925 11.9531 13.3899 11.3314 13.3874 10.7097C13.3845 10.0021 13.3812 9.29442 13.378 8.58677C13.3713 7.13076 13.3651 5.67475 13.3591 4.21873C10.9381 4.20613 8.30446 5.2547 6.50361 6.85545ZM1.89302 12.4255C1.44119 13.0047 1.11363 13.6871 0.9958 14.414C0.986887 14.469 0.977974 14.524 0.968792 14.5807C0.842081 15.6281 1.12569 16.6767 1.75752 17.5195C2.49256 18.438 3.38737 18.9705 4.53706 19.2004C5.67333 19.3001 6.76075 19.0371 7.67549 18.3398C8.63817 17.529 9.15654 16.4623 9.27034 15.2106C9.31531 14.0863 8.86197 13.0666 8.14378 12.2255C7.38705 11.432 6.36951 10.967 5.27758 10.9334C3.92559 10.9171 2.79553 11.3965 1.89302 12.4255ZM1.05806 20.5737C0.945234 20.879 0.945234 21.1913 1.05806 21.4966C1.30244 21.7646 1.53898 21.868 1.89523 21.8852C2.01923 21.8866 2.14324 21.8867 2.26724 21.8858C2.36921 21.8864 2.36921 21.8864 2.47324 21.887C2.69733 21.8881 2.92137 21.8874 3.14546 21.8866C3.30153 21.8867 3.4576 21.887 3.61368 21.8873C3.94053 21.8877 4.26737 21.8871 4.59422 21.886C4.97137 21.8847 5.34848 21.8851 5.72563 21.8864C6.05023 21.8875 6.37483 21.8876 6.69944 21.887C6.89296 21.8867 7.08647 21.8867 7.28 21.8874C7.49585 21.888 7.71164 21.8871 7.92749 21.8858C7.99111 21.8863 8.05474 21.8867 8.1203 21.8872C8.4925 21.8831 8.71979 21.8417 9.02314 21.6211C9.19852 21.4126 9.25752 21.2102 9.25752 20.9399C9.17738 20.6695 9.06725 20.4788 8.85217 20.2941C8.5714 20.1708 8.29737 20.1899 7.99401 20.1912C7.8912 20.1905 7.8912 20.1906 7.78632 20.1899C7.5597 20.1889 7.33311 20.1891 7.10649 20.1894C6.98876 20.1893 6.87103 20.189 6.7533 20.1888C6.38316 20.1879 6.01304 20.188 5.6429 20.1887C5.2617 20.1894 4.88052 20.1885 4.49932 20.187C4.17148 20.1857 3.84365 20.1853 3.51581 20.1856C3.32025 20.1858 3.12472 20.1856 2.92916 20.1847C2.71091 20.1838 2.49272 20.1844 2.27448 20.1854C2.21012 20.1849 2.14576 20.1843 2.07945 20.1837C1.64874 20.1879 1.35969 20.2429 1.05806 20.5737ZM1.15327 23.1775C0.971849 23.4395 0.957735 23.6508 0.9958 23.9648C1.12624 24.2257 1.26007 24.3672 1.52314 24.4922C1.69749 24.5452 1.85427 24.5583 2.03614 24.559C2.09198 24.5593 2.14783 24.5597 2.20537 24.56C2.2967 24.5601 2.2967 24.5601 2.38986 24.5602C2.45429 24.5605 2.51873 24.5608 2.58511 24.5611C2.79844 24.5619 3.01177 24.5623 3.22511 24.5627C3.37341 24.563 3.52171 24.5633 3.67002 24.5637C3.94136 24.5642 4.2127 24.5646 4.48405 24.5648C4.8826 24.565 5.28114 24.5661 5.67969 24.5678C6.02558 24.5692 6.37147 24.5696 6.71736 24.5697C6.86416 24.5699 7.01096 24.5704 7.15776 24.5711C7.36336 24.5721 7.56893 24.572 7.77454 24.5717C7.83494 24.5722 7.89535 24.5727 7.95759 24.5733C8.39656 24.5708 8.74212 24.5249 9.07808 24.2175C9.23183 23.9706 9.25752 23.8454 9.25752 23.5547C9.15455 23.2458 8.98594 23.0966 8.73018 22.9101C8.55966 22.8533 8.45057 22.8439 8.27314 22.8433C8.21523 22.843 8.15732 22.8426 8.09765 22.8423C8.03419 22.8422 7.97072 22.8422 7.90533 22.8421C7.83843 22.8418 7.77153 22.8415 7.70261 22.8412C7.48078 22.8404 7.25896 22.84 7.03714 22.8396C6.88321 22.8393 6.72929 22.839 6.57537 22.8386C6.29369 22.8381 6.01202 22.8377 5.73034 22.8375C5.31609 22.8373 4.90186 22.8363 4.48763 22.8346C4.12856 22.8331 3.76951 22.8327 3.41044 22.8326C3.25782 22.8324 3.1052 22.8319 2.95258 22.8312C2.73909 22.8302 2.52563 22.8303 2.31214 22.8307C2.21747 22.8299 2.21747 22.8299 2.12089 22.829C1.71764 22.8313 1.43652 22.8636 1.15327 23.1775ZM1.14228 25.8142C0.976924 26.0829 0.965969 26.2891 0.9958 26.6015C1.09874 26.8453 1.24933 26.9782 1.46455 27.1289C1.63469 27.1856 1.74378 27.1952 1.9208 27.1961C1.97854 27.1965 2.03628 27.1969 2.09577 27.1974C2.19069 27.1976 2.19069 27.1976 2.28754 27.1979C2.3876 27.1984 2.3876 27.1984 2.48969 27.199C2.71095 27.2002 2.93221 27.2009 3.15347 27.2014C3.229 27.2017 3.30454 27.2019 3.38236 27.2022C3.74095 27.2033 4.09954 27.2041 4.45814 27.2046C4.87139 27.2052 5.28462 27.2067 5.69786 27.2091C6.05629 27.2111 6.41472 27.2118 6.77316 27.212C6.92536 27.2123 7.07756 27.213 7.22975 27.2141C7.44294 27.2155 7.65608 27.2154 7.86928 27.215C7.96331 27.2161 7.96331 27.2161 8.05925 27.2173C8.44591 27.2146 8.69269 27.1574 9.02314 26.9531C9.17763 26.7833 9.24799 26.5903 9.26851 26.3621C9.25318 26.1122 9.17748 25.9223 9.00113 25.7367C8.6361 25.4581 8.16267 25.4629 7.7247 25.4655C7.66146 25.4652 7.59822 25.4649 7.53307 25.4646C7.3254 25.4638 7.11777 25.4643 6.91011 25.4649C6.76499 25.4648 6.61987 25.4646 6.47476 25.4644C6.17117 25.4642 5.86759 25.4645 5.56399 25.4653C5.17567 25.4664 4.78736 25.4658 4.39903 25.4647C4.09954 25.4641 3.80005 25.4643 3.50056 25.4647C3.3574 25.4649 3.21425 25.4647 3.0711 25.4643C2.87073 25.4639 2.67039 25.4645 2.47003 25.4655C2.38207 25.465 2.38207 25.465 2.29233 25.4644C1.86881 25.4682 1.45002 25.4988 1.14228 25.8142Z" fill="#FD5523"/>
<path d="M21.6801 3.16405C22.8003 3.74147 23.7942 4.50066 24.7019 5.36922C24.7767 5.44067 24.8522 5.51137 24.9277 5.58196C25.3145 5.95292 25.6361 6.36973 25.9575 6.79687C25.9827 6.82988 26.0078 6.8629 26.0338 6.89692C27.5635 8.91247 28.3961 11.4405 28.4404 13.9636C28.4419 14.0165 28.4435 14.0694 28.445 14.1239C28.4452 14.1735 28.4453 14.2231 28.4454 14.2742C28.4459 14.3182 28.4464 14.3622 28.4469 14.4075C28.4045 14.5916 28.3346 14.6514 28.184 14.7656C28.01 14.7886 27.8577 14.7973 27.6836 14.7954C27.6326 14.7957 27.5816 14.7961 27.5291 14.7965C27.3579 14.7974 27.1867 14.7967 27.0155 14.7959C26.8929 14.7963 26.7703 14.7967 26.6477 14.7972C26.3144 14.7983 25.9811 14.7978 25.6478 14.7971C25.2994 14.7965 24.951 14.7971 24.6025 14.7974C24.0174 14.7978 23.4322 14.7973 22.847 14.7962C22.17 14.7949 21.493 14.7953 20.8161 14.7966C20.2353 14.7977 19.6545 14.7978 19.0738 14.7972C18.7267 14.7968 18.3796 14.7968 18.0325 14.7976C17.7063 14.7982 17.38 14.7978 17.0537 14.7964C16.9338 14.7961 16.8139 14.7962 16.694 14.7967C16.5307 14.7973 16.3674 14.7965 16.204 14.7954C16.1563 14.7959 16.1086 14.7964 16.0594 14.797C15.8631 14.7942 15.7267 14.7795 15.557 14.6777C15.431 14.4674 15.437 14.2711 15.4398 14.0331C15.4395 13.9823 15.4392 13.9315 15.4389 13.8792C15.4381 13.7088 15.4389 13.5385 15.4398 13.3681C15.4396 13.246 15.4393 13.124 15.4388 13.002C15.438 12.6702 15.4387 12.3386 15.4397 12.0069C15.4405 11.6601 15.4401 11.3133 15.4399 10.9665C15.4397 10.3841 15.4405 9.80166 15.4419 9.21924C15.4434 8.54544 15.4435 7.87166 15.4428 7.19787C15.4422 6.55026 15.4426 5.90266 15.4434 5.25505C15.4437 4.97919 15.4437 4.70333 15.4435 4.42746C15.4432 4.10273 15.4438 3.77802 15.445 3.45329C15.4454 3.33396 15.4454 3.21463 15.4451 3.0953C15.4447 2.9327 15.4455 2.77015 15.4465 2.60756C15.4461 2.56007 15.4458 2.51257 15.4454 2.46365C15.4476 2.27328 15.456 2.13376 15.5475 1.9647C16.6902 0.912811 20.5033 2.58144 21.6801 3.16405ZM16.4653 2.81249C16.4653 6.44765 16.4653 10.0828 16.4653 13.8281C20.0811 13.8281 23.6969 13.8281 27.4223 13.8281C27.3793 13.0035 27.3793 13.0035 27.2649 12.1948C27.2547 12.1409 27.2446 12.087 27.2341 12.0315C26.8947 10.3147 26.1293 8.71534 25.0786 7.32421C25.0381 7.26937 24.9976 7.21454 24.9559 7.15804C24.0693 6.01465 22.9376 5.04694 21.6801 4.33593C21.6259 4.30471 21.6259 4.30471 21.5705 4.27287C20.0481 3.40315 18.2313 2.81249 16.4653 2.81249Z" fill="#FD5523"/>
<path d="M17.8495 15.9007C17.9003 15.9003 17.9511 15.8998 18.0034 15.8994C18.1737 15.8984 18.3438 15.8994 18.5141 15.9005C18.6361 15.9002 18.7582 15.8998 18.8802 15.8992C19.2117 15.8982 19.5431 15.8989 19.8746 15.9001C20.2212 15.901 20.5678 15.9005 20.9145 15.9002C21.4965 15.8999 22.0786 15.9009 22.6607 15.9025C23.334 15.9044 24.0074 15.9044 24.6807 15.9034C25.3281 15.9024 25.9754 15.9028 26.6227 15.9038C26.8984 15.9042 27.1741 15.9042 27.4498 15.9038C27.7743 15.9033 28.0988 15.904 28.4233 15.9056C28.5425 15.906 28.6617 15.906 28.781 15.9056C28.9434 15.9051 29.1058 15.906 29.2683 15.9073C29.3158 15.9068 29.3632 15.9064 29.4121 15.9059C29.6222 15.909 29.7423 15.9196 29.9126 16.0477C30.0208 16.2005 30.0299 16.2857 30.0296 16.4719C30.0297 16.5309 30.0299 16.59 30.0301 16.6508C30.0288 16.7139 30.0275 16.777 30.0261 16.842C30.0253 16.9075 30.0245 16.9729 30.0236 17.0403C29.9614 19.8932 28.7643 22.6827 26.8389 24.7716C26.7286 24.8921 26.6227 25.0151 26.5178 25.1404C26.334 25.3511 26.3089 25.3646 26.0329 25.3953C25.784 25.3911 25.67 25.3146 25.4945 25.1447C25.4622 25.111 25.4299 25.0773 25.3965 25.0427C25.3608 25.0073 25.325 24.972 25.2881 24.9356C25.1688 24.8171 25.0511 24.697 24.9334 24.5769C24.8481 24.4915 24.7627 24.4063 24.6772 24.3211C24.4454 24.0898 24.2151 23.8569 23.985 23.6238C23.7442 23.3803 23.5022 23.1381 23.2602 22.8958C22.8542 22.4888 22.4491 22.0809 22.0446 21.6725C21.4735 21.0959 20.9009 20.5207 20.328 19.9459C19.5613 19.1765 18.7951 18.4067 18.0306 17.6352C17.9476 17.5514 17.8646 17.4678 17.7815 17.3842C17.6685 17.2704 17.5557 17.1565 17.443 17.0425C17.4097 17.0091 17.3765 16.9757 17.3422 16.9413C17.0612 16.6565 17.0612 16.6565 17.0293 16.4172C17.0513 16.2305 17.0513 16.2305 17.1675 16.0746C17.3944 15.8985 17.5738 15.8966 17.8495 15.9007ZM18.8091 16.9336C19.0241 17.1844 19.2291 17.4195 19.461 17.6511C19.503 17.6933 19.503 17.6933 19.546 17.7363C19.6387 17.8291 19.7316 17.9216 19.8245 18.0142C19.8915 18.0812 19.9585 18.1483 20.0255 18.2153C20.2065 18.3963 20.3876 18.5771 20.5688 18.7578C20.7584 18.9471 20.9479 19.1366 21.1374 19.326C21.4959 19.6843 21.8545 20.0424 22.2132 20.4005C22.6217 20.8083 23.03 21.2163 23.4383 21.6244C24.2779 22.4633 25.1176 23.302 25.9575 24.1406C26.2013 24.0312 26.3329 23.8698 26.4922 23.6609C26.5204 23.6242 26.5486 23.5874 26.5777 23.5496C28.0281 21.641 29.0044 19.3564 29.0044 16.9336C25.6399 16.9336 22.2755 16.9336 18.8091 16.9336Z" fill="#FD5523"/>
<path d="M5.39072 11.8945C5.48937 11.9655 5.48937 11.9655 5.5665 12.0703C5.5887 12.2182 5.5887 12.2182 5.59946 12.3853C5.63507 12.635 5.63507 12.635 5.80683 12.8057C5.90937 12.8508 6.01264 12.8942 6.11651 12.9362C6.41379 13.0753 6.60989 13.3116 6.737 13.6116C6.80354 13.8497 6.80833 13.9721 6.72373 14.209C6.62119 14.3555 6.62119 14.3555 6.504 14.4141C6.08351 14.448 6.08351 14.448 5.89975 14.3189C5.80088 14.1797 5.80088 14.1797 5.71665 13.9966C5.6396 13.824 5.6396 13.824 5.50058 13.7439C5.18542 13.6822 4.8972 13.7079 4.629 13.8867C4.56821 14.027 4.56095 14.0935 4.61069 14.2387C4.71226 14.3929 4.79536 14.4155 4.96958 14.4727C5.02713 14.4922 5.08469 14.5116 5.14399 14.5317C5.27131 14.5711 5.39922 14.6086 5.52759 14.6443C5.97344 14.7701 6.36331 14.8949 6.64087 15.2861C6.82997 15.6281 6.8962 15.9715 6.81528 16.355C6.69377 16.7643 6.43297 17.0398 6.09385 17.2852C5.91513 17.3745 5.82491 17.4024 5.6251 17.4024C5.62872 17.4737 5.63235 17.545 5.63608 17.6184C5.63649 17.8476 5.59105 17.9787 5.44931 18.1641C5.33213 18.2813 5.33213 18.2813 5.13804 18.3032C4.92197 18.2813 4.92197 18.2813 4.74985 18.208C4.55396 17.9468 4.60669 17.659 4.629 17.3438C4.5855 17.3373 4.54199 17.3309 4.49717 17.3243C4.03853 17.2129 3.70529 16.7943 3.46811 16.4099C3.38389 16.1927 3.36493 16.0514 3.39853 15.8203C3.54209 15.6219 3.62494 15.5398 3.86728 15.4944C4.09209 15.5365 4.17607 15.5977 4.33603 15.7617C4.385 15.8402 4.43253 15.9197 4.47886 15.9998C4.61388 16.225 4.72285 16.3254 4.98056 16.4063C5.21287 16.4383 5.4026 16.4261 5.62143 16.333C5.74604 16.2397 5.74604 16.2397 5.80454 16.117C5.81188 15.9892 5.81188 15.9892 5.71962 15.8823C5.49746 15.7073 5.25858 15.657 4.98789 15.5859C4.53618 15.4663 4.16155 15.3441 3.85264 14.9707C3.82454 14.9375 3.79644 14.9042 3.76749 14.87C3.55707 14.581 3.51218 14.2986 3.51572 13.9453C3.57721 13.5675 3.69782 13.2701 3.98447 13.0078C4.08634 12.9624 4.18895 12.9185 4.29209 12.876C4.44747 12.812 4.44747 12.812 4.57041 12.7149C4.62018 12.5584 4.62592 12.4333 4.61962 12.2697C4.63146 12.0921 4.68273 12.0217 4.80478 11.8945C5.02572 11.8209 5.16446 11.8461 5.39072 11.8945Z" fill="#FD5523"/>
</g>
<defs>
<clipPath id="clip0_295_5739">
<rect width="30" height="30" fill="white"/>
</clipPath>
</defs>
</svg>
