<svg width="31" height="32" viewBox="0 0 31 32" fill="none" xmlns="http://www.w3.org/2000/svg">
<path d="M8.65186 1.41848C8.9009 1.5902 9.12561 1.77968 9.3456 1.98657C9.4008 2.03833 9.4008 2.03833 9.45711 2.09114C10.0647 2.66568 10.655 3.25836 11.2467 3.84915C11.4251 4.0272 11.604 4.20469 11.7831 4.38206C11.9234 4.52132 12.0634 4.66098 12.2032 4.80075C12.2689 4.86629 12.3348 4.93169 12.4008 4.99693C12.7496 5.34183 13.0796 5.69402 13.3844 6.07875C13.4108 6.11199 13.4373 6.14524 13.4646 6.17949C13.9468 6.80329 14.1323 7.53212 14.0498 8.31057C13.9362 9.01022 13.673 9.51461 13.2039 10.0391C13.1609 10.0884 13.1179 10.1377 13.0736 10.1885C12.7079 10.5983 12.3207 10.9868 11.9331 11.3758C11.8809 11.4282 11.8287 11.4807 11.7749 11.5348C11.4795 11.8295 11.1788 12.1134 10.8601 12.3828C11.368 13.5409 12.0385 14.5794 12.8523 15.5469C12.8776 15.5771 12.903 15.6074 12.9291 15.6385C13.5485 16.3757 14.1995 17.0751 14.8774 17.7588C14.928 17.8101 14.9785 17.8614 15.0306 17.9142C15.3799 18.264 15.7477 18.5782 16.1335 18.8867C16.2067 18.9482 16.2796 19.0099 16.3521 19.0719C17.1828 19.7738 18.0921 20.3939 19.0486 20.9119C19.0887 20.9339 19.1288 20.956 19.1701 20.9787C19.369 21.0853 19.369 21.0853 19.5887 21.1015C19.7381 21.0428 19.8165 20.9659 19.9285 20.8511C19.971 20.808 20.0135 20.765 20.0573 20.7206C20.1255 20.6502 20.1255 20.6502 20.1951 20.5784C20.2426 20.5302 20.2902 20.482 20.3392 20.4323C20.5426 20.226 20.7449 20.0188 20.9473 19.8116C21.0953 19.6603 21.2439 19.5096 21.3926 19.3589C21.4372 19.3128 21.4818 19.2667 21.5278 19.2192C21.9398 18.8018 22.3989 18.4004 22.9524 18.1873C23.0084 18.165 23.0645 18.1427 23.1222 18.1198C23.8254 17.885 24.6008 17.9547 25.2742 18.2422C25.9377 18.5987 26.4418 19.1412 26.9672 19.6698C27.0611 19.7635 27.155 19.8572 27.2489 19.9508C27.4448 20.1463 27.6402 20.3422 27.8353 20.5384C28.0842 20.7886 28.3341 21.0377 28.5843 21.2866C28.7781 21.4795 28.9713 21.6731 29.1644 21.8667C29.2563 21.9588 29.3484 22.0507 29.4406 22.1423C30.3577 23.0552 30.3577 23.0552 30.6648 23.6328C30.6892 23.677 30.7137 23.7211 30.7389 23.7666C31.1021 24.4481 31.0608 25.2599 30.8463 25.9777C30.5059 26.9021 29.7293 27.5783 29.0425 28.2508C28.9126 28.3786 28.7828 28.5066 28.6532 28.6347C28.5733 28.7136 28.4932 28.7924 28.4129 28.8709C28.186 29.0942 27.9723 29.3247 27.7655 29.5669C27.0498 30.3798 25.9347 30.9075 24.864 31.0157C23.3344 31.0894 21.9278 30.8791 20.4695 30.4297C20.4225 30.4153 20.3754 30.4009 20.327 30.3861C17.969 29.6492 15.6888 28.3806 13.6726 26.9727C13.6394 26.9496 13.6062 26.9264 13.572 26.9026C13.3301 26.7334 13.0906 26.561 12.8523 26.3867C12.8144 26.3591 12.7766 26.3314 12.7376 26.3029C12.2517 25.9467 11.781 25.5788 11.3247 25.1853C11.1776 25.06 11.0279 24.9409 10.8748 24.823C10.3065 24.3736 9.7894 23.8522 9.27808 23.3399C9.18078 23.2438 9.08343 23.1479 8.98603 23.0519C8.90207 22.9688 8.81811 22.8856 8.7342 22.8024C8.67739 22.7462 8.62048 22.6901 8.56345 22.6341C8.21119 22.2879 7.88218 21.9319 7.57371 21.5457C7.44722 21.3883 7.31465 21.2418 7.17603 21.095C6.87247 20.7639 6.59514 20.4175 6.32253 20.0609C6.25925 19.9781 6.19576 19.8955 6.1321 19.8131C5.52155 19.0212 4.95834 18.2024 4.4148 17.3633C4.39029 17.3255 4.36578 17.2877 4.34053 17.2488C4.20364 17.0362 4.07347 16.82 3.94605 16.6016C3.91915 16.5559 3.89225 16.5101 3.86454 16.463C2.22972 13.6717 0.336052 9.79755 1.20485 6.46302C1.45199 5.58058 1.88239 4.91295 2.49906 4.24678C2.54406 4.19814 2.54406 4.19814 2.58997 4.14853C2.95428 3.75738 3.32947 3.37704 3.70687 2.99857C3.82913 2.87573 3.95076 2.75228 4.07239 2.62881C5.1639 1.5285 5.1639 1.5285 5.87964 1.22073C5.94128 1.19354 6.00291 1.16635 6.06641 1.13833C6.90222 0.813298 7.89627 0.982142 8.65186 1.41848ZM4.69734 4.29325C4.55044 4.43959 4.40292 4.58528 4.25538 4.73098C4.16055 4.82543 4.06575 4.91992 3.971 5.01445C3.92753 5.05719 3.88406 5.09993 3.83928 5.14397C3.04173 5.94491 2.61278 6.84008 2.59731 7.98144C2.61387 9.87186 3.2903 11.6782 4.06324 13.3789C4.08859 13.4352 4.11394 13.4915 4.14006 13.5496C4.7375 14.8671 5.45981 16.1194 6.2898 17.3047C6.31284 17.3377 6.33587 17.3708 6.35961 17.4048C6.91173 18.1944 7.48649 18.9692 8.10621 19.7071C8.13119 19.737 8.15617 19.767 8.18191 19.7978C8.50988 20.1911 8.84393 20.5768 9.1911 20.9533C9.30391 21.0773 9.41357 21.2027 9.52275 21.3298C9.77876 21.6232 10.0533 21.8971 10.3291 22.1717C10.3792 22.222 10.4293 22.2723 10.481 22.3242C10.7412 22.5841 11.0052 22.8355 11.2842 23.0752C11.4267 23.1979 11.5643 23.3257 11.7024 23.4534C11.998 23.7224 12.3027 23.9733 12.6179 24.2188C12.6967 24.281 12.7754 24.3433 12.8541 24.4055C13.4453 24.8714 14.0463 25.3189 14.6687 25.7422C14.7069 25.7682 14.7451 25.7942 14.7845 25.821C17.4156 27.5975 21.3305 29.9544 24.6642 29.4611C25.3489 29.3243 25.8549 29.1243 26.3875 28.6719C26.4781 28.6012 26.4781 28.6012 26.5706 28.5291C26.6965 28.4168 26.7933 28.3176 26.8995 28.1899C27.1092 27.9478 27.3335 27.7231 27.5614 27.4984C27.5992 27.4611 27.637 27.4237 27.676 27.3853C27.8343 27.229 27.9929 27.0729 28.152 26.9174C29.0332 26.1148 29.0332 26.1148 29.4014 25.0281C29.4037 24.9777 29.406 24.9273 29.4085 24.8754C29.3214 24.3755 29.0222 23.9977 28.6687 23.6515C28.6079 23.5902 28.6079 23.5902 28.5459 23.5277C28.4132 23.3943 28.2795 23.262 28.1457 23.1298C28.0525 23.0366 27.9593 22.9434 27.8662 22.8502C27.6715 22.6556 27.4763 22.4615 27.2807 22.2678C27.0306 22.02 26.7815 21.7711 26.5327 21.5219C26.3406 21.3296 26.1481 21.1378 25.9554 20.9462C25.8634 20.8546 25.7715 20.7628 25.6797 20.671C25.5513 20.5427 25.4223 20.415 25.2932 20.2874C25.2557 20.2497 25.2182 20.212 25.1795 20.1732C24.8335 19.8337 24.5086 19.6155 24.0137 19.5839C23.3557 19.6108 22.9056 20.1272 22.4765 20.5658C22.4216 20.6215 22.3666 20.677 22.3115 20.7326C22.0792 20.9673 21.8476 21.2027 21.6162 21.4383C21.474 21.5829 21.3315 21.7271 21.1887 21.8711C21.1087 21.952 21.0292 22.0334 20.9497 22.1149C20.6878 22.3788 20.4533 22.5913 20.1179 22.7539C20.0793 22.7733 20.0406 22.7926 20.0007 22.8125C19.4006 22.9132 18.989 22.6946 18.4836 22.4117C18.3617 22.3446 18.2384 22.2818 18.1138 22.22C17.4888 21.9069 16.9287 21.5291 16.3679 21.1133C16.3026 21.0655 16.2372 21.0176 16.1718 20.9698C15.7775 20.6783 15.3959 20.3736 15.0203 20.0586C14.9905 20.0343 14.9608 20.0099 14.9302 19.9848C14.383 19.5359 13.8796 19.0462 13.3796 18.5462C13.3479 18.5144 13.3161 18.4827 13.2833 18.45C12.9317 18.0983 12.5886 17.7425 12.2664 17.3633C12.2122 17.3019 12.1578 17.2405 12.1034 17.1793C11.102 16.04 10.2117 14.803 9.56418 13.4281C9.48875 13.271 9.40833 13.1165 9.32786 12.962C9.16913 12.6101 9.14272 12.1863 9.27327 11.823C9.43102 11.5334 9.63239 11.3214 9.87798 11.1036C10.2937 10.7296 10.6912 10.3381 11.0872 9.94329C11.2089 9.82217 11.3312 9.7017 11.4535 9.58121C11.5321 9.50293 11.6108 9.42462 11.6893 9.34626C11.7254 9.31097 11.7614 9.27568 11.7985 9.23932C12.1577 8.87823 12.4447 8.50512 12.4641 7.98098C12.4543 7.44364 12.1892 7.14122 11.8336 6.76021C11.8027 6.72702 11.7719 6.69383 11.7401 6.65963C11.3942 6.28915 11.038 5.92894 10.6802 5.56994C10.6454 5.53495 10.6106 5.49996 10.5747 5.46391C10.391 5.2794 10.2072 5.09505 10.0233 4.91085C9.83511 4.72234 9.64747 4.53329 9.45996 4.34412C9.31377 4.19683 9.16718 4.04994 9.02048 3.90316C8.95115 3.83365 8.88196 3.764 8.81293 3.69419C8.06718 2.89658 8.06718 2.89658 7.06983 2.57937C6.08089 2.59362 5.34687 3.64525 4.69734 4.29325Z" fill="#062E39"/>
</svg>
