<svg width="30" height="30" viewBox="0 0 30 30" fill="none" xmlns="http://www.w3.org/2000/svg">
<path d="M12.3632 1.17183C12.5188 1.26953 12.5188 1.26953 12.6562 1.40621C12.6885 1.56209 12.6885 1.56209 12.6827 1.74179C12.6814 1.80928 12.6801 1.87678 12.6787 1.94631C12.6748 2.05545 12.6748 2.05545 12.6708 2.16678C12.6694 2.28163 12.668 2.39648 12.6669 2.51133C12.6637 2.79408 12.6577 3.07671 12.6483 3.35933C12.5629 4.28151 12.5629 4.28151 12.8779 5.09204C13.0609 5.24299 13.2452 5.33285 13.4765 5.39058C13.8683 5.3487 14.1985 5.1378 14.4726 4.86324C14.5673 4.59673 14.5564 4.34971 14.5437 4.06948C14.5431 3.95411 14.5426 3.83875 14.542 3.72339C14.5405 3.5629 14.5357 3.40258 14.5309 3.24217C14.523 2.96049 14.5191 2.67876 14.5168 2.39699C14.5153 2.24724 14.5121 2.09749 14.5071 1.94782C14.5059 1.88014 14.5048 1.81245 14.5037 1.74272C14.5019 1.68324 14.5002 1.62376 14.4984 1.56248C14.5312 1.40621 14.5312 1.40621 14.6685 1.26948C14.8594 1.14969 14.9537 1.14224 15.1757 1.17183C15.6672 1.34908 16.078 1.64728 16.4647 1.99215C16.5064 2.02893 16.548 2.06571 16.5909 2.10361C17.0753 2.55828 17.399 3.13382 17.6366 3.74996C17.6648 3.82292 17.6648 3.82292 17.6936 3.89736C18.0284 4.96245 17.8666 6.20815 17.3693 7.18868C17.1324 7.62772 16.8096 7.96487 16.4647 8.32027C16.0366 8.79266 16.0002 9.24815 15.9642 9.86385C15.9603 9.92874 15.9603 9.92874 15.9563 9.99494C15.9499 10.1008 15.9436 10.2066 15.9374 10.3125C16.3149 10.313 16.6922 10.3108 17.0697 10.3067C17.198 10.3057 17.3263 10.3052 17.4546 10.3054C17.6394 10.3056 17.824 10.3035 18.0088 10.301C18.0659 10.3015 18.1231 10.3021 18.1819 10.3026C18.4677 10.2966 18.6394 10.2819 18.8475 10.0751C18.8926 10.0181 18.9378 9.96107 18.9843 9.9023C18.9193 9.90079 18.8544 9.89928 18.7874 9.89773C18.7017 9.89443 18.6159 9.89107 18.5302 9.88765C18.4874 9.88682 18.4447 9.88599 18.4006 9.88514C18.2128 9.8766 18.0753 9.86275 17.9173 9.75725C17.762 9.53828 17.7788 9.34444 17.7813 9.08199C17.7811 9.03086 17.7808 8.97972 17.7806 8.92704C17.7804 8.81908 17.7809 8.71112 17.7818 8.60317C17.7831 8.43802 17.7819 8.27302 17.7804 8.10787C17.7805 8.00289 17.7808 7.89791 17.7813 7.79293C17.7808 7.74361 17.7803 7.69428 17.7798 7.64347C17.7834 7.42121 17.7862 7.30252 17.9173 7.11767C18.1102 6.98886 18.3054 6.99163 18.5302 6.98726C18.5738 6.98553 18.6175 6.98379 18.6625 6.982C18.7697 6.97787 18.877 6.97511 18.9843 6.97261C18.9427 6.93508 18.901 6.89754 18.8582 6.85886C18.8043 6.80818 18.7505 6.7575 18.695 6.70528C18.6413 6.65566 18.5876 6.60603 18.5322 6.5549C18.3694 6.35035 18.3349 6.23724 18.3397 5.97652C18.4852 5.72855 18.6555 5.52854 18.8579 5.32558C18.9116 5.27173 18.9653 5.21787 19.0207 5.16239C19.0484 5.13492 19.0761 5.10746 19.1046 5.07916C19.1896 4.99488 19.2738 4.90999 19.358 4.82502C19.4117 4.77146 19.4654 4.71791 19.5208 4.66274C19.594 4.58969 19.594 4.58969 19.6688 4.51517C19.8669 4.33914 19.9719 4.27615 20.2388 4.28073C20.4927 4.34734 20.5909 4.44121 20.7677 4.63253C20.8184 4.68638 20.8691 4.74023 20.9213 4.79572C20.9588 4.83734 20.9964 4.87895 21.0351 4.92183C21.0366 4.85688 21.0381 4.79192 21.0396 4.72499C21.0429 4.63924 21.0463 4.55348 21.0497 4.46773C21.0505 4.42498 21.0514 4.38223 21.0522 4.33818C21.0608 4.1504 21.0746 4.01286 21.1801 3.85484C21.3991 3.69958 21.5929 3.71631 21.8554 3.71883C21.9065 3.71861 21.9576 3.71838 22.0103 3.71815C22.1183 3.71799 22.2262 3.71842 22.3342 3.7194C22.4993 3.72066 22.6643 3.71941 22.8295 3.71791C22.9345 3.71807 23.0395 3.71837 23.1444 3.71883C23.1938 3.71836 23.2431 3.71788 23.2939 3.71739C23.5161 3.72095 23.6348 3.72377 23.8197 3.85484C23.9485 4.04775 23.9457 4.24298 23.9501 4.46773C23.9527 4.53322 23.9527 4.53322 23.9554 4.60002C23.9595 4.70726 23.9623 4.81455 23.9647 4.92183C24.0023 4.88022 24.0398 4.8386 24.0785 4.79572C24.1292 4.74187 24.1799 4.68801 24.2321 4.63253C24.3065 4.55197 24.3065 4.55197 24.3825 4.46979C24.587 4.30699 24.7001 4.2724 24.9608 4.2773C25.2088 4.4227 25.4088 4.59308 25.6118 4.79549C25.6656 4.84919 25.7195 4.90289 25.775 4.95823C25.8162 4.99979 25.8162 4.99979 25.8582 5.0422C25.9425 5.12711 26.0274 5.21137 26.1123 5.2956C26.1927 5.37615 26.1927 5.37615 26.2746 5.45833C26.3477 5.53158 26.3477 5.53158 26.4222 5.6063C26.5982 5.80445 26.6612 5.90942 26.6566 6.17633C26.59 6.4303 26.4962 6.5285 26.3048 6.70528C26.251 6.75596 26.1971 6.80664 26.1416 6.85886C26.1 6.8964 26.0584 6.93394 26.0155 6.97261C26.0805 6.97412 26.1454 6.97564 26.2124 6.97719C26.2981 6.98049 26.3839 6.98385 26.4696 6.98726C26.5124 6.98809 26.5551 6.98892 26.5992 6.98978C26.787 6.99832 26.9245 7.01216 27.0825 7.11767C27.2378 7.33663 27.2211 7.53048 27.2185 7.79293C27.2188 7.84406 27.219 7.8952 27.2192 7.94788C27.2194 8.05584 27.2189 8.1638 27.218 8.27175C27.2167 8.4369 27.2179 8.6019 27.2194 8.76705C27.2193 8.87203 27.219 8.97701 27.2185 9.08199C27.219 9.13131 27.2195 9.18063 27.22 9.23145C27.2164 9.4537 27.2136 9.5724 27.0825 9.75725C26.8896 9.88605 26.6944 9.88329 26.4696 9.88765C26.426 9.88939 26.3823 9.89113 26.3373 9.89292C26.2301 9.89704 26.1228 9.89981 26.0155 9.9023C26.2181 10.1633 26.2181 10.1633 26.5127 10.282C26.6131 10.2875 26.7137 10.2901 26.8143 10.2891C27.006 10.3214 27.0602 10.4012 27.1874 10.5468C27.2579 10.6656 27.3237 10.7871 27.3861 10.9102C27.4045 10.9461 27.4228 10.982 27.4417 11.0189C27.5017 11.1369 27.5611 11.2552 27.6204 11.3736C27.6621 11.4562 27.7038 11.5388 27.7456 11.6214C27.8328 11.7944 27.9196 11.9676 28.0062 12.1409C28.1169 12.3623 28.2288 12.5831 28.3411 12.8037C28.4276 12.9741 28.5133 13.1449 28.5987 13.3158C28.6396 13.3973 28.6808 13.4787 28.7223 13.56C28.7805 13.6739 28.8374 13.7884 28.894 13.9031C28.9266 13.968 28.9592 14.0328 28.9928 14.0997C29.0808 14.3489 29.0919 14.5023 29.0624 14.7656C28.9851 14.8429 28.9077 14.9203 28.828 15C28.2866 15 27.7452 15 27.1874 15C27.1874 16.6822 27.1874 18.3644 27.1874 20.0976C27.3421 20.117 27.4968 20.1363 27.6562 20.1562C28.1686 20.3231 28.5403 20.6552 28.7919 21.1292C29.0256 21.6955 29.0212 22.2549 28.788 22.8204C28.4283 23.512 27.6915 23.8727 27.0336 24.2321C26.5359 24.5074 26.0411 24.7867 25.5504 25.0744C25.0643 25.3593 24.5774 25.6427 24.0893 25.924C24.026 25.9605 23.9627 25.997 23.8975 26.0346C23.7692 26.1085 23.6409 26.1824 23.5125 26.2563C23.2578 26.4031 23.0031 26.55 22.7485 26.697C22.6223 26.7698 22.4961 26.8426 22.3699 26.9153C22.0764 27.0845 21.783 27.2539 21.4902 27.4243C21.3876 27.484 21.2851 27.5436 21.1825 27.6031C21.0546 27.6773 20.9269 27.7517 20.7993 27.8263C19.9422 28.3233 19.2991 28.6114 18.3019 28.6107C18.2217 28.6111 18.1415 28.6115 18.0613 28.6119C17.8444 28.613 17.6276 28.6132 17.4107 28.6133C17.2749 28.6134 17.139 28.6136 17.0032 28.614C16.5282 28.615 16.0532 28.6155 15.5782 28.6154C15.1372 28.6154 14.6962 28.6166 14.2552 28.6184C13.8751 28.62 13.4951 28.6206 13.115 28.6205C12.8887 28.6205 12.6623 28.6208 12.436 28.6221C12.2228 28.6232 12.0096 28.6232 11.7964 28.6224C11.6821 28.6222 11.5679 28.6232 11.4536 28.6242C10.8152 28.6197 10.2426 28.4677 9.67886 28.1689C9.62047 28.1384 9.56209 28.1079 9.50193 28.0764C9.46001 28.0538 9.41809 28.0311 9.3749 28.0078C9.37762 28.0643 9.38034 28.1208 9.38314 28.179C9.38526 28.253 9.38737 28.327 9.38955 28.4033C9.39227 28.4767 9.39499 28.5501 9.39779 28.6258C9.3749 28.8281 9.3749 28.8281 9.28192 28.956C9.09103 29.0997 8.96808 29.0922 8.73037 29.0928C8.68957 29.0932 8.64876 29.0936 8.60672 29.094C8.47213 29.0951 8.33762 29.0944 8.20303 29.0936C8.10934 29.0937 8.01565 29.094 7.92196 29.0943C7.72572 29.0946 7.52951 29.0941 7.33328 29.093C7.08185 29.0917 6.83048 29.0924 6.57906 29.0939C6.38563 29.0947 6.19221 29.0944 5.99878 29.0938C5.90609 29.0937 5.81339 29.0939 5.72069 29.0944C5.59107 29.095 5.46155 29.0941 5.33194 29.0928C5.25822 29.0926 5.1845 29.0924 5.10855 29.0922C4.92178 29.0625 4.92178 29.0625 4.77987 28.9663C4.65993 28.787 4.66346 28.6756 4.67276 28.4619C4.67487 28.3987 4.67699 28.3356 4.67916 28.2705C4.68188 28.2225 4.6846 28.1745 4.6874 28.125C4.64388 28.1255 4.60036 28.126 4.55551 28.1265C4.14515 28.1312 3.73479 28.1348 3.32441 28.1371C3.11342 28.1383 2.90247 28.14 2.6915 28.1426C2.48786 28.1452 2.28424 28.1466 2.08059 28.1472C1.96517 28.1478 1.84976 28.1497 1.73435 28.1515C1.62879 28.1515 1.62879 28.1515 1.52111 28.1516C1.42821 28.1523 1.42821 28.1523 1.33343 28.1531C1.12688 28.1171 1.06849 28.0515 0.937404 27.8906C0.90791 27.7526 0.90791 27.7526 0.907642 27.597C0.906651 27.5083 0.906651 27.5083 0.905639 27.4178C0.906351 27.321 0.906351 27.321 0.907077 27.2222C0.906666 27.154 0.906256 27.0858 0.905832 27.0155C0.9048 26.7896 0.905484 26.5637 0.906276 26.3378C0.906118 26.1811 0.905891 26.0244 0.905596 25.8676C0.90517 25.539 0.905732 25.2103 0.906848 24.8817C0.908124 24.5019 0.90771 24.1221 0.90642 23.7422C0.905356 23.416 0.905207 23.0897 0.90582 22.7635C0.906185 22.5687 0.906142 22.3739 0.90546 22.1791C0.904866 21.9619 0.90577 21.7448 0.907077 21.5277C0.906603 21.4631 0.906128 21.3986 0.905639 21.3321C0.9063 21.273 0.906961 21.2138 0.907642 21.1529C0.90773 21.1015 0.907819 21.0502 0.90791 20.9973C0.947385 20.8126 1.02635 20.7416 1.17178 20.625C1.33343 20.5968 1.33343 20.5968 1.52111 20.5984C1.59148 20.5984 1.66185 20.5984 1.73435 20.5984C1.81004 20.5996 1.88573 20.6008 1.96371 20.6021C2.0422 20.6025 2.12068 20.6028 2.19917 20.6031C2.40532 20.604 2.61144 20.6063 2.81758 20.6089C3.0281 20.6113 3.23863 20.6123 3.44915 20.6135C3.86192 20.616 4.27466 20.62 4.6874 20.625C4.68468 20.5769 4.68197 20.5289 4.67916 20.4794C4.67705 20.4162 4.67493 20.3531 4.67276 20.288C4.67004 20.2255 4.66732 20.163 4.66452 20.0985C4.6874 19.9218 4.6874 19.9218 4.77987 19.7837C4.97163 19.6537 5.10099 19.6577 5.33194 19.6571C5.37274 19.6567 5.41355 19.6563 5.45559 19.6559C5.59018 19.6549 5.72469 19.6555 5.85928 19.6563C5.95297 19.6562 6.04666 19.6559 6.14035 19.6557C6.33658 19.6553 6.5328 19.6558 6.72903 19.6569C6.98046 19.6582 7.23183 19.6575 7.48325 19.6561C7.67668 19.6552 7.8701 19.6555 8.06353 19.6561C8.15622 19.6563 8.24892 19.6561 8.34162 19.6555C8.47124 19.6549 8.60076 19.6558 8.73037 19.6571C8.84095 19.6574 8.84095 19.6574 8.95376 19.6577C9.173 19.6926 9.24228 19.7473 9.3749 19.9218C9.40151 20.0399 9.40151 20.0399 9.39779 20.1626C9.39704 20.2068 9.39628 20.251 9.3955 20.2965C9.39256 20.3648 9.39256 20.3648 9.38955 20.4345C9.38849 20.481 9.38744 20.5274 9.38635 20.5753C9.38359 20.6895 9.37939 20.8037 9.3749 20.9179C9.66494 20.8406 9.95498 20.7632 10.2538 20.6836C10.2731 18.808 10.2925 16.9324 10.3124 15C9.771 15 9.22959 15 8.67178 15C8.4374 14.7656 8.4374 14.7656 8.41184 14.542C8.42504 14.2967 8.50156 14.1105 8.61211 13.8905C8.63069 13.8529 8.64927 13.8153 8.66841 13.7765C8.72943 13.6536 8.79177 13.5314 8.8542 13.4092C8.8972 13.3235 8.94013 13.2378 8.98299 13.152C9.0727 12.9729 9.16304 12.7942 9.25387 12.6157C9.3703 12.3868 9.48547 12.1573 9.60023 11.9276C9.68868 11.7508 9.77761 11.5742 9.8667 11.3977C9.90936 11.3132 9.95189 11.2286 9.99432 11.1439C10.0536 11.0259 10.1135 10.9081 10.1735 10.7905C10.2245 10.69 10.2245 10.69 10.2765 10.5874C10.371 10.4296 10.371 10.4296 10.5468 10.3125C10.7178 10.301 10.7178 10.301 10.9093 10.3051C10.973 10.3062 11.0367 10.3072 11.1023 10.3083C11.151 10.3097 11.1997 10.3111 11.2499 10.3125C11.2369 10.0975 11.2216 9.88272 11.206 9.66793C11.2023 9.60758 11.1987 9.54723 11.195 9.48505C11.1515 8.91579 11.0138 8.57288 10.5871 8.18477C9.82636 7.46178 9.38886 6.44536 9.31631 5.40088C9.31631 4.16734 9.68016 3.04194 10.5573 2.15168C11.0147 1.71008 11.6764 1.07735 12.3632 1.17183ZM11.1327 2.98824C10.4419 3.79238 10.2987 4.72164 10.371 5.74215C10.5099 6.56043 10.9894 7.1454 11.5429 7.73433C11.9316 8.15647 12.1277 8.57263 12.1473 9.14516C12.1498 9.21314 12.1523 9.28112 12.1548 9.35115C12.1571 9.42185 12.1594 9.49255 12.1618 9.56539C12.1643 9.63699 12.1668 9.7086 12.1694 9.78237C12.1756 9.95906 12.1816 10.1358 12.1874 10.3125C12.4968 10.3125 12.8062 10.3125 13.1249 10.3125C13.1271 10.1961 13.1293 10.0797 13.1315 9.95975C13.1344 9.84689 13.1373 9.73402 13.1403 9.62116C13.1432 9.50428 13.1452 9.38738 13.1472 9.27047C13.1493 9.19702 13.1514 9.12357 13.1535 9.04789C13.155 8.98007 13.1566 8.91226 13.1582 8.84239C13.1835 8.67183 13.1835 8.67183 13.2662 8.5619C13.3825 8.47962 13.452 8.47247 13.5937 8.47408C13.6535 8.4734 13.6535 8.4734 13.7145 8.47271C13.8671 8.5041 13.91 8.54714 14.0038 8.67183C14.0291 8.84239 14.0291 8.84239 14.0338 9.04789C14.0359 9.12134 14.0379 9.19479 14.0401 9.27047C14.0421 9.38564 14.0421 9.38564 14.0441 9.50313C14.046 9.58137 14.0481 9.65961 14.0502 9.73785C14.055 9.92937 14.0588 10.1209 14.0624 10.3125C14.3718 10.3125 14.6812 10.3125 14.9999 10.3125C15.0014 10.2093 15.0029 10.1061 15.0045 9.99981C15.0078 9.86232 15.0111 9.72484 15.0146 9.58736C15.0154 9.51961 15.0162 9.45186 15.0171 9.38205C15.0374 8.66139 15.2441 8.11717 15.7726 7.61715C16.4664 6.93477 16.833 6.13247 16.8456 5.15621C16.836 4.21283 16.5004 3.50583 15.8804 2.80719C15.7526 2.68676 15.62 2.60754 15.4687 2.51949C15.4684 2.55494 15.4682 2.59039 15.468 2.62691C15.4656 2.99572 15.4615 3.36449 15.4565 3.73328C15.4548 3.87093 15.4536 4.00858 15.4528 4.14624C15.4515 4.34407 15.4488 4.54183 15.4458 4.73964C15.4457 4.80123 15.4456 4.86283 15.4455 4.92629C15.437 5.35192 15.437 5.35192 15.3095 5.53501C15.2653 5.56469 15.2212 5.59437 15.1757 5.62496C15.1285 5.66036 15.0814 5.69577 15.0328 5.73225C14.8614 5.84899 14.6893 5.96439 14.5165 6.07906C14.4572 6.11992 14.3979 6.16078 14.3368 6.20288C13.7695 6.57893 13.7695 6.57893 13.4889 6.54941C13.192 6.44507 12.9341 6.26163 12.6763 6.08472C12.5714 6.01278 12.4657 5.94236 12.3596 5.87215C11.8463 5.52873 11.8463 5.52873 11.7772 5.39058C11.7703 5.29847 11.7669 5.20608 11.7652 5.11372C11.764 5.05625 11.7629 4.99878 11.7617 4.93956C11.7607 4.87737 11.7597 4.81517 11.7587 4.75109C11.7575 4.68753 11.7563 4.62396 11.755 4.55848C11.7512 4.35489 11.7477 4.1513 11.7443 3.94771C11.7418 3.80992 11.7392 3.67214 11.7366 3.53435C11.7303 3.19607 11.7244 2.85778 11.7187 2.51949C11.5216 2.51949 11.2637 2.85827 11.1327 2.98824ZM22.0312 4.68746C22.029 4.7827 22.0268 4.87795 22.0245 4.97608C22.0207 5.10082 22.0168 5.22556 22.0128 5.3503C22.0115 5.4131 22.0102 5.47591 22.0088 5.54062C22.0068 5.60085 22.0047 5.66109 22.0025 5.72315C22.001 5.77869 21.9995 5.83423 21.9979 5.89145C21.9685 6.05837 21.9291 6.10876 21.7968 6.2109C21.5581 6.33686 21.3608 6.36883 21.0937 6.32808C20.9176 6.21074 20.7733 6.06802 20.6249 5.91793C20.585 5.8788 20.5451 5.83968 20.5041 5.79937C20.4066 5.7031 20.3103 5.60596 20.2147 5.50777C20.151 5.5599 20.0876 5.61248 20.0243 5.66524C19.989 5.69447 19.9536 5.7237 19.9172 5.75382C19.7864 5.8764 19.6795 6.01042 19.5702 6.1523C19.6517 6.23274 19.6517 6.23274 19.7348 6.31481C19.8057 6.38514 19.8765 6.45549 19.9474 6.52584C19.9833 6.56119 20.0191 6.59653 20.056 6.63295C20.1073 6.68394 20.1073 6.68394 20.1596 6.73595C20.1912 6.76725 20.2228 6.79855 20.2554 6.83079C20.3794 6.96558 20.3908 7.03441 20.4052 7.22164C20.3859 7.51091 20.3027 7.70495 20.0976 7.91011C19.9605 7.9288 19.9605 7.9288 19.7913 7.93438C19.7309 7.93664 19.6705 7.93891 19.6082 7.94124C19.5449 7.94305 19.4816 7.94487 19.4164 7.94674C19.3208 7.95013 19.3208 7.95013 19.2232 7.9536C19.0655 7.95914 18.9077 7.96399 18.7499 7.96871C18.7499 8.27808 18.7499 8.58746 18.7499 8.90621C18.8451 8.9084 18.9404 8.91059 19.0385 8.91285C19.1633 8.91669 19.288 8.92059 19.4127 8.92452C19.4755 8.92584 19.5384 8.92716 19.6031 8.92852C19.6934 8.93164 19.6934 8.93164 19.7856 8.93482C19.8689 8.93712 19.8689 8.93712 19.9539 8.93947C20.1208 8.9689 20.1712 9.00825 20.2733 9.14058C20.3992 9.37906 20.4268 9.57657 20.3905 9.84371C20.2745 9.9984 20.1585 10.1531 20.039 10.3125C20.6964 10.3125 21.3538 10.3125 22.0312 10.3125C21.8956 10.2221 21.7742 10.1541 21.6283 10.0854C21.1757 9.85867 20.9238 9.56237 20.735 9.09526C20.596 8.58498 20.6174 7.9805 20.8485 7.50225C21.0894 7.08721 21.4497 6.80249 21.9041 6.64165C22.5258 6.54083 23.1175 6.58312 23.6578 6.91974C24.0031 7.17629 24.2051 7.56173 24.3163 7.96871C24.373 8.59934 24.3405 9.1609 23.9501 9.68624C23.6636 9.96626 23.3566 10.1472 22.9687 10.2539C22.9687 10.2732 22.9687 10.2925 22.9687 10.3125C23.6261 10.3125 24.2835 10.3125 24.9608 10.3125C24.8448 10.1578 24.7288 10.0031 24.6093 9.84371C24.5616 9.53634 24.6256 9.34571 24.7851 9.08199C24.9351 8.93191 24.9998 8.94742 25.2085 8.94054C25.2689 8.93827 25.3293 8.93601 25.3916 8.93367C25.4549 8.93186 25.5182 8.93005 25.5834 8.92818C25.6471 8.92592 25.7109 8.92365 25.7766 8.92131C25.9343 8.91578 26.0921 8.91093 26.2499 8.90621C26.2499 8.59683 26.2499 8.28746 26.2499 7.96871C26.1547 7.96652 26.0594 7.96433 25.9613 7.96207C25.8365 7.95822 25.7118 7.95433 25.5871 7.9504C25.4929 7.94841 25.4929 7.94841 25.3967 7.94639C25.3365 7.94431 25.2763 7.94224 25.2142 7.9401C25.1309 7.9378 25.1309 7.9378 25.0459 7.93545C24.879 7.90601 24.8286 7.86667 24.7265 7.73433C24.6005 7.49566 24.5685 7.29831 24.6093 7.03121C24.7266 6.8552 24.8693 6.71081 25.0194 6.56246C25.0586 6.52258 25.0977 6.4827 25.138 6.44161C25.2343 6.34416 25.3314 6.24781 25.4296 6.1523C25.3775 6.08853 25.3249 6.02513 25.2721 5.96187C25.2283 5.90885 25.2283 5.90885 25.1835 5.85476C25.061 5.72393 24.9269 5.61702 24.7851 5.50777C24.7314 5.56208 24.6778 5.61638 24.6226 5.67234C24.5522 5.74322 24.4819 5.8141 24.4115 5.88497C24.3762 5.92081 24.3408 5.95665 24.3044 5.99357C24.2534 6.04484 24.2534 6.04484 24.2014 6.09714C24.1701 6.12875 24.1388 6.16035 24.1066 6.19291C23.9718 6.31692 23.903 6.32833 23.7157 6.34273C23.4265 6.32345 23.2324 6.24027 23.0272 6.03511C23.0086 5.8981 23.0086 5.8981 23.003 5.72887C23.0007 5.66845 22.9985 5.60802 22.9961 5.54576C22.9943 5.48247 22.9925 5.41917 22.9906 5.35396C22.9884 5.29021 22.9861 5.22647 22.9838 5.16079C22.9782 5.00303 22.9734 4.84524 22.9687 4.68746C22.6593 4.68746 22.3499 4.68746 22.0312 4.68746ZM21.7162 7.94674C21.5871 8.21496 21.5743 8.43778 21.621 8.73043C21.7575 9.01394 21.9234 9.17986 22.2069 9.31636C22.4996 9.36307 22.7224 9.3503 22.9906 9.22115C23.2006 9.03115 23.3551 8.87898 23.4012 8.58989C23.4162 8.25686 23.3751 8.04785 23.1444 7.79293C22.8895 7.56229 22.6805 7.52112 22.3475 7.53612C22.0584 7.58226 21.9062 7.73673 21.7162 7.94674ZM11.0741 11.25C10.1678 12.6013 10.1678 12.6013 9.72647 14.0625C11.9888 14.0625 14.2511 14.0625 16.5819 14.0625C17.4882 12.7111 17.4882 12.7111 17.9296 11.25C15.6673 11.25 13.405 11.25 11.0741 11.25ZM19.5702 11.25C19.899 12.2362 20.453 13.1326 20.9179 14.0625C23.1802 14.0625 25.4425 14.0625 27.7733 14.0625C27.4446 13.0762 26.8906 12.1798 26.4257 11.25C24.1634 11.25 21.9011 11.25 19.5702 11.25ZM18.2226 12.8906C18.193 12.9506 18.1634 13.0107 18.133 13.0725C18.0235 13.2947 17.9135 13.5166 17.8034 13.7385C17.7558 13.8347 17.7083 13.9309 17.6609 14.0272C17.5929 14.1654 17.5244 14.3033 17.4558 14.4413C17.424 14.5062 17.424 14.5062 17.3916 14.5724C17.2398 14.8761 17.2398 14.8761 17.1093 14.9414C17.0306 14.9474 16.9516 14.9499 16.8727 14.9506C16.7985 14.9515 16.7985 14.9515 16.7229 14.9524C16.6413 14.9529 16.6413 14.9529 16.5581 14.9534C16.5009 14.954 16.4438 14.9546 16.3849 14.9552C16.1953 14.957 16.0057 14.9585 15.8161 14.9599C15.6849 14.9611 15.5537 14.9623 15.4225 14.9636C15.0767 14.9668 14.7309 14.9697 14.385 14.9726C13.9704 14.976 13.5557 14.9799 13.1411 14.9837C12.5107 14.9894 11.8803 14.9947 11.2499 15C11.2499 16.7982 11.2499 18.5964 11.2499 20.4492C11.5689 20.3912 11.5689 20.3912 11.8944 20.332C12.4735 20.2278 12.983 20.2539 13.5522 20.3871C13.6069 20.3998 13.6616 20.4124 13.7179 20.4254C14.5509 20.6218 15.3759 20.851 16.2017 21.0754C16.5601 21.1727 16.9187 21.2696 17.2772 21.3665C17.4016 21.4002 17.526 21.434 17.6504 21.4678C17.7249 21.4879 17.7993 21.5081 17.876 21.5289C17.9417 21.5467 18.0074 21.5646 18.0751 21.583C18.2066 21.6235 18.2066 21.6235 18.2812 21.6211C18.2812 18.74 18.2812 15.8589 18.2812 12.8906C18.2618 12.8906 18.2425 12.8906 18.2226 12.8906ZM19.2187 12.8906C19.2187 15.849 19.2187 18.8074 19.2187 21.8554C19.5219 21.9565 19.816 22.0523 20.1228 22.1359C20.6157 22.2719 21.0113 22.4086 21.372 22.7856C21.4155 22.8267 21.459 22.8678 21.5038 22.9101C21.7586 22.8763 21.9721 22.7308 22.1923 22.6062C22.2382 22.5804 22.2842 22.5546 22.3316 22.528C22.8323 22.2458 23.328 21.955 23.824 21.6645C24.2204 21.4325 24.6179 21.2024 25.0158 20.9729C25.0785 20.9366 25.1413 20.9003 25.206 20.863C25.2957 20.8112 25.2957 20.8112 25.3872 20.7584C25.4394 20.7283 25.4915 20.6983 25.5452 20.6673C25.7791 20.5342 26.0147 20.4041 26.2499 20.2734C26.2499 18.5332 26.2499 16.7929 26.2499 15C25.6185 14.9967 25.6185 14.9967 24.9743 14.9933C24.7081 14.9915 24.4419 14.9897 24.1757 14.9877C23.7528 14.9845 23.33 14.9815 22.9072 14.9797C22.5664 14.9781 22.2256 14.9758 21.8848 14.9728C21.7546 14.9718 21.6244 14.9712 21.4942 14.9708C21.3123 14.9702 21.1303 14.9686 20.9484 14.9667C20.8942 14.9668 20.84 14.9669 20.7842 14.967C20.7347 14.9662 20.6852 14.9655 20.6341 14.9647C20.5911 14.9645 20.548 14.9642 20.5037 14.9639C20.3565 14.9346 20.308 14.8813 20.2147 14.7656C20.1366 14.6241 20.0634 14.4833 19.9925 14.3383C19.9719 14.2969 19.9514 14.2555 19.9302 14.2129C19.8648 14.0811 19.7999 13.9491 19.735 13.8171C19.6907 13.7276 19.6463 13.638 19.6019 13.5485C19.4933 13.3294 19.3852 13.11 19.2772 12.8906C19.2579 12.8906 19.2386 12.8906 19.2187 12.8906ZM5.6249 20.625C5.6249 23.1 5.6249 25.575 5.6249 28.125C6.55303 28.125 7.48115 28.125 8.4374 28.125C8.4374 25.65 8.4374 23.175 8.4374 20.625C7.50928 20.625 6.58115 20.625 5.6249 20.625ZM26.2462 21.3647C26.196 21.3935 26.1458 21.4224 26.094 21.4521C25.9305 21.5464 25.7679 21.6422 25.6054 21.7382C25.495 21.8025 25.3846 21.8666 25.2742 21.9307C25.0415 22.0659 24.8093 22.2017 24.5772 22.3379C24.0978 22.6186 23.615 22.8934 23.1322 23.1683C23.0038 23.2415 22.8755 23.315 22.7474 23.3888C22.6179 23.4623 22.4873 23.5339 22.3558 23.6038C22.2599 23.6559 22.2599 23.6559 22.1621 23.7091C22.1045 23.7396 22.0469 23.77 21.9876 23.8013C21.8418 23.8966 21.8418 23.8966 21.8068 24.0655C21.7946 24.223 21.7946 24.223 21.7991 24.3885C21.7933 24.8003 21.5446 25.1486 21.2731 25.4418C20.8718 25.7907 20.3953 25.9235 19.8726 25.9167C19.4479 25.8747 19.0359 25.7437 18.6254 25.6311C18.5197 25.6026 18.4139 25.5742 18.3081 25.5458C18.0762 25.4835 17.8444 25.4209 17.6127 25.358C17.2659 25.2642 16.9187 25.1724 16.5712 25.081C16.2715 25.0022 15.9718 24.923 15.6721 24.8437C15.5246 24.8047 15.377 24.7659 15.2294 24.7271C15.0212 24.6724 14.8131 24.6172 14.6051 24.5617C14.5426 24.5455 14.4802 24.5292 14.4158 24.5124C14.358 24.4969 14.3002 24.4814 14.2406 24.4654C14.1904 24.4521 14.1402 24.4388 14.0885 24.4251C13.8841 24.3536 13.6933 24.2814 13.5937 24.082C13.5771 23.8919 13.5705 23.7713 13.6656 23.6032C13.7694 23.4961 13.7694 23.4961 13.8951 23.4684C14.2517 23.4797 14.5712 23.5331 14.9137 23.6315C14.9923 23.653 14.9923 23.653 15.0725 23.675C15.1852 23.7061 15.2978 23.7374 15.4104 23.7691C15.5888 23.8193 15.7675 23.8685 15.9463 23.9175C16.39 24.0392 16.8333 24.1624 17.2765 24.2859C17.6518 24.3904 18.0273 24.4943 18.4032 24.597C18.5787 24.6454 18.7539 24.6948 18.9291 24.7442C19.0373 24.7739 19.1455 24.8035 19.2538 24.8331C19.326 24.8539 19.326 24.8539 19.3997 24.8752C19.8012 24.9827 20.1548 24.9942 20.5297 24.7998C20.787 24.5792 20.8937 24.3732 20.9254 24.0305C20.9081 23.7446 20.769 23.5219 20.5691 23.3246C20.3249 23.1584 20.0789 23.0987 19.795 23.025C19.7345 23.0087 19.674 22.9924 19.6116 22.9755C19.41 22.9213 19.2081 22.8681 19.0063 22.8149C18.8647 22.777 18.7231 22.7391 18.5816 22.7011C18.2759 22.6192 17.97 22.5376 17.6641 22.4564C17.1849 22.329 16.7062 22.2 16.2275 22.0708C15.8257 21.9623 15.4238 21.8539 15.0219 21.7456C14.9783 21.7338 14.9347 21.7221 14.8897 21.7099C14.6375 21.642 14.3853 21.5741 14.133 21.5064C14.0192 21.4758 13.9053 21.4452 13.7915 21.4145C13.6891 21.387 13.6891 21.387 13.5846 21.359C13.5252 21.3431 13.4658 21.3271 13.4047 21.3107C12.7792 21.1523 12.2366 21.2035 11.6157 21.3626C11.553 21.3781 11.4903 21.3936 11.4257 21.4095C11.2946 21.442 11.1635 21.4749 11.0325 21.5081C10.8311 21.5591 10.6295 21.6091 10.4278 21.6589C10.3 21.6907 10.1723 21.7226 10.0446 21.7545C9.9539 21.7771 9.9539 21.7771 9.86135 21.8002C9.80595 21.8143 9.75055 21.8283 9.69348 21.8428C9.62008 21.8614 9.62008 21.8614 9.5452 21.8803C9.43403 21.9043 9.43403 21.9043 9.3749 21.9726C9.36933 22.1259 9.36755 22.2777 9.36825 22.4311C9.36824 22.4791 9.36823 22.5271 9.36823 22.5766C9.36827 22.7361 9.36872 22.8955 9.36918 23.055C9.36929 23.1653 9.36937 23.2755 9.36943 23.3858C9.36966 23.6766 9.37023 23.9674 9.37088 24.2582C9.37148 24.5547 9.37175 24.8513 9.37204 25.1478C9.37267 25.73 9.37367 26.3123 9.3749 26.8945C9.58412 27.001 9.79434 27.1054 10.0048 27.2094C10.0924 27.2541 10.0924 27.2541 10.1817 27.2996C10.2402 27.3283 10.2988 27.357 10.3591 27.3866C10.4119 27.413 10.4647 27.4394 10.519 27.4666C11.0461 27.6542 11.5917 27.6735 12.1461 27.6714C12.2484 27.6717 12.2484 27.6717 12.3528 27.672C12.5761 27.6725 12.7993 27.6722 13.0226 27.6718C13.179 27.6719 13.3354 27.672 13.4918 27.6721C13.8187 27.6723 14.1456 27.672 14.4724 27.6715C14.8487 27.6708 15.225 27.6711 15.6013 27.6717C15.9263 27.6722 16.2512 27.6723 16.5761 27.672C16.7693 27.6718 16.9626 27.6718 17.1559 27.6722C17.3715 27.6725 17.5871 27.672 17.8027 27.6714C17.8656 27.6716 17.9284 27.6718 17.9932 27.6721C18.5524 27.669 19.0721 27.6132 19.5739 27.3523C19.6312 27.3225 19.6312 27.3225 19.6897 27.2922C20.345 26.9466 20.9817 26.5654 21.621 26.1914C21.74 26.1219 21.859 26.0525 21.9781 25.9831C22.1513 25.882 22.3246 25.7809 22.4978 25.6798C23.1166 25.3184 23.7374 24.9606 24.3584 24.603C24.5496 24.4928 24.7408 24.3825 24.932 24.2722C24.9949 24.2359 25.0578 24.1997 25.1225 24.1623C25.2484 24.0896 25.3742 24.0169 25.5 23.9441C25.7968 23.7725 26.094 23.6016 26.3928 23.4334C26.5336 23.3541 26.6742 23.2744 26.8148 23.1946C26.9139 23.1386 27.0133 23.0832 27.1128 23.0279C27.1729 22.9937 27.233 22.9595 27.295 22.9243C27.3479 22.8946 27.4008 22.8649 27.4553 22.8343C27.6996 22.6626 27.8764 22.4392 27.9491 22.1484C27.9645 21.8457 27.9207 21.6268 27.7257 21.3903C27.57 21.2209 27.4149 21.113 27.185 21.0727C26.8076 21.0628 26.5659 21.1733 26.2462 21.3647ZM1.8749 21.5625C1.8749 23.4187 1.8749 25.275 1.8749 27.1875C2.80303 27.1875 3.73115 27.1875 4.6874 27.1875C4.6874 25.3312 4.6874 23.475 4.6874 21.5625C3.75928 21.5625 2.83115 21.5625 1.8749 21.5625Z" fill="#FD5523"/>
</svg>
