<svg width="40" height="40" viewBox="0 0 40 40" fill="none" xmlns="http://www.w3.org/2000/svg">
<path d="M31.25 4.375C29.4782 4.3773 27.7643 5.00582 26.411 6.1495C25.0578 7.29317 24.1524 8.87838 23.8548 10.625H3.4375C2.85754 10.6257 2.30153 10.8563 1.89143 11.2664C1.48134 11.6765 1.25066 12.2325 1.25 12.8125V30C1.25066 30.58 1.48134 31.136 1.89143 31.5461C2.30153 31.9562 2.85754 32.1868 3.4375 32.1875H32.8125C33.3925 32.1868 33.9485 31.9562 34.3586 31.5461C34.7687 31.136 34.9993 30.58 35 30V18.3682C36.4298 17.5429 37.5473 16.2688 38.1791 14.7436C38.8109 13.2184 38.9217 11.5273 38.4944 9.93267C38.0671 8.33805 37.1254 6.92901 35.8156 5.92414C34.5057 4.91927 32.9009 4.37473 31.25 4.375ZM26.4966 17.6719L19.8207 23.8341C19.3575 24.2576 18.7526 24.4925 18.125 24.4925C17.4974 24.4925 16.8925 24.2576 16.4293 23.8341L3.47359 11.875H23.75C23.7498 12.9844 23.9961 14.0799 24.4711 15.0824C24.9461 16.085 25.6379 16.9694 26.4966 17.6719ZM2.5 30V12.8125C2.50032 12.7702 2.50351 12.7281 2.50953 12.6863L12.366 21.7845L2.59422 30.4069C2.53236 30.2802 2.50014 30.141 2.5 30ZM13.2891 22.6369L15.5812 24.7527C16.276 25.3879 17.1833 25.7401 18.1247 25.7401C19.0661 25.7401 19.9734 25.3879 20.6682 24.7527L22.9609 22.6369L32.3678 30.9375H3.88211L13.2891 22.6369ZM33.75 30C33.7499 30.141 33.7176 30.2802 33.6558 30.4069L23.884 21.7846L27.5525 18.3984C28.486 18.9283 29.5225 19.2515 30.5917 19.346C31.661 19.4404 32.738 19.304 33.75 18.946V30ZM31.25 18.125C30.0139 18.125 28.8055 17.7584 27.7777 17.0717C26.7499 16.3849 25.9488 15.4088 25.4758 14.2668C25.0027 13.1247 24.8789 11.8681 25.1201 10.6557C25.3612 9.4433 25.9565 8.32966 26.8306 7.45558C27.7047 6.5815 28.8183 5.98625 30.0307 5.74509C31.2431 5.50393 32.4997 5.62771 33.6418 6.10075C34.7838 6.5738 35.7599 7.37488 36.4467 8.40269C37.1334 9.43049 37.5 10.6389 37.5 11.875C37.4981 13.532 36.839 15.1206 35.6673 16.2923C34.4956 17.464 32.907 18.1231 31.25 18.125Z" fill="#FD5523"/>
<path d="M35.3101 13.7134C34.6994 12.7992 34.3739 11.7243 34.375 10.625C34.374 9.90492 34.1249 9.20719 33.6695 8.6494C33.2141 8.09161 32.5803 7.70788 31.875 7.56289V6.875C31.875 6.70924 31.8091 6.55027 31.6919 6.43306C31.5747 6.31585 31.4157 6.25 31.25 6.25C31.0842 6.25 30.9253 6.31585 30.808 6.43306C30.6908 6.55027 30.625 6.70924 30.625 6.875V7.56289C29.9197 7.70788 29.2859 8.09161 28.8305 8.6494C28.3751 9.20719 28.1259 9.90492 28.125 10.625C28.126 11.7243 27.8006 12.7992 27.1899 13.7134L26.98 14.0283C26.9172 14.1224 26.8812 14.2318 26.8757 14.3448C26.8703 14.4578 26.8956 14.5701 26.9489 14.6699C27.0023 14.7696 27.0818 14.853 27.1788 14.9112C27.2759 14.9693 27.3869 15 27.5 15H29.375C29.375 15.4973 29.5725 15.9742 29.9242 16.3258C30.2758 16.6775 30.7527 16.875 31.25 16.875C31.7473 16.875 32.2242 16.6775 32.5758 16.3258C32.9274 15.9742 33.125 15.4973 33.125 15H35C35.1131 15 35.2241 14.9693 35.3212 14.9112C35.4182 14.853 35.4977 14.7696 35.551 14.6699C35.6044 14.5701 35.6297 14.4578 35.6242 14.3448C35.6188 14.2318 35.5827 14.1224 35.52 14.0283L35.3101 13.7134ZM31.25 15.625C31.0843 15.6248 30.9254 15.5589 30.8083 15.4417C30.6911 15.3246 30.6252 15.1657 30.625 15H31.875C31.8748 15.1657 31.8089 15.3246 31.6917 15.4417C31.5746 15.5589 31.4157 15.6248 31.25 15.625ZM28.6172 13.75C29.1163 12.784 29.3761 11.7123 29.375 10.625C29.375 10.1277 29.5725 9.65081 29.9242 9.29917C30.2758 8.94754 30.7527 8.75 31.25 8.75C31.7473 8.75 32.2242 8.94754 32.5758 9.29917C32.9274 9.65081 33.125 10.1277 33.125 10.625C33.1238 11.7123 33.3837 12.784 33.8828 13.75H28.6172Z" fill="#FD5523"/>
</svg>
