<svg width="60" height="60" viewBox="0 0 60 60" fill="none" xmlns="http://www.w3.org/2000/svg">
<path d="M54.9353 11.4103C53.7559 9.74496 51.3259 9.2284 47.7125 9.87516C44.8686 10.3843 41.3609 11.6163 37.5005 13.4536V10.3125C37.5005 10.167 37.4666 10.0234 37.4015 9.89324C37.3364 9.76306 37.2419 9.64983 37.1255 9.5625L33.3755 6.75C33.2132 6.62829 33.0159 6.5625 32.813 6.5625C32.6102 6.5625 32.4128 6.62829 32.2505 6.75L28.5005 9.5625C28.384 9.64978 28.2894 9.76299 28.2242 9.89317C28.1591 10.0233 28.1251 10.1669 28.125 10.3125V14.7663C25.4021 15.6103 22.9541 17.1668 21.0347 19.2745C19.1152 21.3823 17.794 23.9647 17.2077 26.7546L17.206 26.7559C12.4416 30.7949 8.67942 34.7979 6.32594 38.3323C3.7436 42.2104 3.09157 45.2666 4.43922 47.1705C5.2893 48.3693 6.79598 48.9727 8.92973 48.9727C9.06075 48.9727 9.19481 48.9697 9.33051 48.9653V49.5094C9.33051 49.6869 9.38089 49.8607 9.4758 50.0107C9.5707 50.1607 9.70624 50.2807 9.86664 50.3566L14.8892 52.7355C15.0136 52.7946 15.1496 52.8254 15.2874 52.8258C15.4252 52.8261 15.5613 52.7958 15.6861 52.7373C15.6879 52.7365 15.6899 52.7364 15.6918 52.7355L20.7143 50.3566C20.8747 50.2807 21.0103 50.1607 21.1052 50.0107C21.2001 49.8607 21.2505 49.6869 21.2505 49.5094V45.4195C22.3783 44.8966 23.5261 44.3263 24.694 43.7086C27.1496 45.1703 29.9549 45.9405 32.8125 45.9375C41.6016 45.9375 48.75 38.7879 48.75 30C48.7506 28.6862 48.5885 27.3773 48.2675 26.1033C49.3807 24.9314 50.3951 23.7732 51.2941 22.6429C55.3074 17.5976 56.5664 13.7134 54.9353 11.4103ZM44.0559 38.4375H39.1641C39.4679 37.1967 39.7121 35.9467 39.8966 34.6875H46.0714C45.5939 36.0326 44.9143 37.2971 44.0559 38.4375ZM33.75 44.0305V40.3125H36.6952C36.3257 41.4961 35.8981 42.6655 35.4125 43.8206C34.863 43.9237 34.3079 43.9937 33.75 44.0305ZM30.2127 43.8206C29.8413 42.9394 29.5042 42.0487 29.2016 41.1488C29.6532 40.8753 30.1053 40.5966 30.5579 40.3126H31.875V44.0306C31.3174 43.9938 30.7625 43.9237 30.2132 43.8206H30.2127ZM21.5702 21.5625H25.9748C25.7453 22.8068 25.5749 24.0568 25.4635 25.3125H19.5549C20.0322 23.9674 20.7118 22.7028 21.5702 21.5625ZM31.875 15.9695V19.6875H28.2959C28.5681 18.5798 28.8905 17.4813 29.2632 16.3917C30.1185 16.1688 30.993 16.0275 31.875 15.9695ZM36.3625 16.3914C36.7349 17.48 37.0573 18.5786 37.3298 19.6871H33.75V15.9695C34.6325 16.0274 35.5075 16.1688 36.3633 16.3917L36.3625 16.3914ZM28.3974 38.4375C28.078 37.1977 27.8215 35.9477 27.6279 34.6875H31.875V37.2227C31.2546 37.6373 30.6339 38.0423 30.0129 38.4375H28.3974ZM27.2189 27.1875H31.875V32.8125H27.3868C27.193 30.9441 27.1369 29.0641 27.2189 27.1875ZM27.3479 25.3125C27.4646 24.0575 27.6435 22.8075 27.8847 21.5625H31.875V25.3125H27.3479ZM33.75 34.6875H35.5005C35.0654 35.0059 33.8941 35.8386 33.75 35.9395V34.6875ZM33.75 38.2191C34.2562 37.8737 37.0482 35.8832 37.9117 35.2308C37.731 36.3061 37.5034 37.375 37.2288 38.4375H33.75V38.2191ZM38.2618 32.5941C38.1691 32.667 38.0754 32.7395 37.9822 32.8123H33.75V27.1875H38.4067C38.4861 28.9909 38.4379 30.7977 38.2626 32.5943L38.2618 32.5941ZM40.285 27.1875H44.5354C43.2112 28.4491 41.7815 29.7178 40.265 30.9768C40.3314 29.7151 40.3381 28.452 40.285 27.1875ZM33.75 25.3125V21.5625H37.7412C37.982 22.8062 38.1609 24.0562 38.2779 25.3125H33.75ZM26.3672 19.6875H23.2634C24.3783 18.6533 25.6529 17.8061 27.0381 17.1786C26.7868 18.01 26.5632 18.8462 26.3672 19.6875ZM25.3415 27.1875C25.2631 29.0639 25.3162 30.9435 25.5005 32.8125H19.0333C18.6563 30.9565 18.6563 29.0435 19.0333 27.1875H25.3415ZM25.7298 34.6875C25.9141 35.9453 26.1583 37.1953 26.4625 38.4375H21.5702C20.7116 37.2972 20.032 36.0327 19.5545 34.6875H25.7298ZM26.9445 40.3125C26.2187 40.7365 25.497 41.1439 24.7795 41.5349C24.2467 41.1627 23.7401 40.7542 23.2634 40.3125H26.9445ZM38.6566 40.3125H42.3633C41.0074 41.5707 39.417 42.5494 37.6829 43.193C38.0437 42.2419 38.3682 41.2817 38.6562 40.3125H38.6566ZM40.9854 32.8125C43.0491 31.1214 44.9647 29.4077 46.6886 27.7105C46.9669 29.4029 46.9345 31.1318 46.5929 32.8125H40.9854ZM40.163 25.3125C40.0518 24.058 39.8814 22.808 39.6518 21.5625H44.0562C44.9147 22.7029 45.5944 23.9674 46.0718 25.3125H40.163ZM39.2596 19.6875C39.063 18.8466 38.8392 18.0104 38.5884 17.1786C39.9736 17.8061 41.2484 18.6533 42.3633 19.6875H39.2596ZM32.8125 8.67188L35.625 10.7812V14.3111C35.005 14.2006 34.3788 14.1271 33.75 14.0909V12.1875C33.75 11.9389 33.6513 11.7004 33.4755 11.5246C33.2996 11.3488 33.0612 11.25 32.8125 11.25C32.5639 11.25 32.3254 11.3488 32.1496 11.5246C31.9738 11.7004 31.875 11.9389 31.875 12.1875V14.0909C31.2462 14.1271 30.6201 14.2006 30 14.3111V10.7812L32.8125 8.67188ZM15.2902 44.8001L12.5639 43.5087L15.2902 42.3602L18.0164 43.5087L15.2902 44.8001ZM14.3527 50.4075L11.2052 48.9166V44.9398L14.3527 46.4306V50.4075ZM16.2277 50.4075V46.4306L19.3151 44.9682C19.3254 45.0466 19.3456 45.1234 19.3752 45.1966V48.9166L16.2277 50.4075ZM21.2433 43.35C21.2273 43.2112 21.1804 43.0778 21.1061 42.9595C21.0319 42.8412 20.9321 42.741 20.8141 42.6662C20.7741 42.6409 15.6541 40.4796 15.6541 40.4796C15.5389 40.4311 15.4152 40.4061 15.2903 40.4061C15.1653 40.4061 15.0416 40.4311 14.9264 40.4796C14.9264 40.4796 9.80442 42.6421 9.76633 42.6662C9.63272 42.7508 9.52267 42.8677 9.44641 43.0062C9.37015 43.1447 9.33016 43.3003 9.33016 43.4584V47.0904C7.22899 47.1764 6.34188 46.6113 5.97028 46.0864C5.13344 44.9048 5.83211 42.4571 7.88711 39.371C9.85739 36.412 13.0161 32.9587 16.8835 29.5193C16.8787 29.679 16.8755 29.8391 16.8755 29.9998C16.8754 32.4076 17.4215 34.784 18.4728 36.9503C19.524 39.1165 21.053 41.0159 22.9447 42.5057C22.3728 42.7989 21.8057 43.0804 21.2433 43.35ZM27.5541 42.1252C27.6784 42.4824 27.8083 42.8384 27.9439 43.193C27.5046 43.0302 27.0738 42.8455 26.653 42.6395C26.9528 42.471 27.2532 42.2995 27.5541 42.1252ZM47.6049 24.0677C46.7777 22.0193 45.5359 20.1639 43.9574 18.6184C42.3789 17.0728 40.4978 15.8702 38.4324 15.0864C42.0906 13.3537 45.3898 12.1963 48.0431 11.7212C50.7986 11.228 52.703 11.5023 53.4053 12.4939C54.0164 13.357 53.7002 14.7459 53.3272 15.7591C52.7368 17.3624 51.5266 19.3391 49.8272 21.4758C49.1517 22.3251 48.4109 23.1891 47.6048 24.0677H47.6049Z" fill="white"/>
</svg>
