<svg width="32" height="32" viewBox="0 0 32 32" fill="none" xmlns="http://www.w3.org/2000/svg">
<g clip-path="url(#clip0_295_5800)">
<path d="M2.41478 4.16645C2.47895 4.16603 2.54311 4.16561 2.60923 4.16518C2.7446 4.16455 2.87998 4.16426 3.01535 4.16428C3.22263 4.164 3.42982 4.16173 3.63707 4.15937C3.76871 4.159 3.90034 4.15875 4.03197 4.15863C4.12495 4.15729 4.12495 4.15729 4.2198 4.15591C4.64631 4.15875 4.64631 4.15875 4.85227 4.30057C4.97783 4.50108 4.96693 4.64335 4.93798 4.87494C4.82797 5.07401 4.78179 5.1145 4.56298 5.18744C4.47862 5.19358 4.39401 5.19653 4.30944 5.1973C4.23341 5.19826 4.23341 5.19826 4.15585 5.19924C4.10135 5.1997 4.04686 5.20015 3.99071 5.20062C3.87539 5.20238 3.76008 5.20417 3.64476 5.206C3.46289 5.20858 3.28103 5.21089 3.09914 5.21253C2.92365 5.21425 2.74821 5.21711 2.57274 5.22016C2.51825 5.22036 2.46375 5.22056 2.4076 5.22077C2.33158 5.22233 2.33158 5.22233 2.25402 5.22391C2.18721 5.22467 2.18721 5.22467 2.11905 5.22544C1.95479 5.25938 1.91157 5.30031 1.81298 5.43744C1.79421 5.60244 1.78698 5.75283 1.78806 5.91793C1.78764 5.96735 1.78723 6.01676 1.7868 6.06768C1.78563 6.2338 1.7858 6.3999 1.78595 6.56603C1.78539 6.6849 1.78474 6.80376 1.78402 6.92263C1.78229 7.24583 1.78172 7.56902 1.78134 7.89222C1.78076 8.2298 1.77912 8.56738 1.77759 8.90495C1.77486 9.54443 1.77308 10.1839 1.77164 10.8234C1.76995 11.5513 1.7672 12.2792 1.76437 13.0071C1.75856 14.5047 1.75408 16.0023 1.75048 17.4999C1.78642 17.4993 1.82236 17.4986 1.8594 17.498C2.02377 17.4953 2.18814 17.4937 2.35253 17.4921C2.40907 17.4911 2.46561 17.49 2.52387 17.489C2.95139 17.4858 3.28832 17.5276 3.62548 17.8124C4.09493 18.2859 4.14359 18.7951 4.16454 19.4335C4.16696 19.4942 4.16937 19.5548 4.17186 19.6173C4.17771 19.7656 4.18307 19.914 4.18798 20.0624C4.22565 20.041 4.26332 20.0196 4.30213 19.9975C5.28931 19.4476 6.43114 19.3442 7.5156 19.6305C7.934 19.7544 8.48215 19.9337 8.76292 20.2798C8.93904 20.4835 9.08093 20.5554 9.34883 20.5975C9.64265 20.6163 9.93655 20.613 10.2308 20.6108C10.3442 20.6113 10.4575 20.6119 10.5709 20.6128C10.878 20.6145 11.185 20.614 11.492 20.6131C11.8132 20.6125 12.1343 20.614 12.4554 20.6153C13.0633 20.6175 13.6711 20.6177 14.2789 20.6173C14.971 20.6169 15.6631 20.6186 16.3552 20.6205C17.7786 20.6243 19.202 20.6255 20.6255 20.6249C20.6218 18.7024 20.6171 16.7798 20.6112 14.8572C20.6105 14.6303 20.6098 14.4035 20.6091 14.1766C20.6089 14.1088 20.6089 14.1088 20.6087 14.0397C20.6064 13.3079 20.6049 12.5762 20.6036 11.8444C20.6022 11.0938 20.6002 10.3432 20.5974 9.59259C20.5959 9.17088 20.5947 8.74917 20.5944 8.32746C20.594 7.93082 20.5928 7.53418 20.5908 7.13754C20.5903 6.99171 20.5901 6.84588 20.5902 6.70005C20.5903 6.50142 20.5892 6.30283 20.5879 6.10421C20.5882 6.04609 20.5885 5.98796 20.5888 5.92808C20.5864 5.71392 20.5782 5.54048 20.5026 5.33915C20.2925 5.19173 20.0632 5.21576 19.816 5.21835C19.7581 5.21797 19.7002 5.21758 19.6405 5.21719C19.4456 5.21621 19.2507 5.21702 19.0558 5.21781C18.9164 5.21747 18.777 5.21701 18.6376 5.21646C18.337 5.2155 18.0364 5.21532 17.7358 5.21575C17.2608 5.21643 16.7858 5.21534 16.3108 5.21402C15.645 5.21234 14.9793 5.21144 14.3135 5.21125C14.2713 5.21123 14.229 5.21122 14.1855 5.21121C14.1431 5.21119 14.1008 5.21118 14.0572 5.21117C13.4575 5.21099 12.8578 5.21056 12.2581 5.20984C12.1948 5.20977 12.1948 5.20977 12.1302 5.20969C11.4271 5.20883 10.7239 5.20747 10.0208 5.20585C9.54829 5.20482 9.07581 5.20448 8.60332 5.2047C8.30968 5.20473 8.01604 5.20425 7.72239 5.20366C7.58594 5.20349 7.44948 5.20354 7.31302 5.20381C7.12714 5.20416 6.94127 5.20376 6.75539 5.20316C6.67387 5.2036 6.67387 5.2036 6.5907 5.20405C6.516 5.20358 6.516 5.20358 6.43979 5.2031C6.39688 5.20309 6.35398 5.20309 6.30978 5.20308C6.11418 5.17797 5.97719 5.11286 5.85595 4.95697C5.79306 4.74547 5.8252 4.58765 5.87548 4.37494C5.95689 4.26925 5.95689 4.26925 6.06298 4.18744C6.257 4.16885 6.43851 4.1619 6.63264 4.16321C6.72116 4.16271 6.72116 4.16271 6.81148 4.16219C7.01012 4.16129 7.20874 4.16174 7.40738 4.16219C7.54945 4.16183 7.69153 4.1614 7.8336 4.16089C8.22023 4.15976 8.60686 4.15984 8.99349 4.1602C9.31608 4.16039 9.63867 4.16001 9.96126 4.15963C10.766 4.1587 11.5707 4.15893 12.3754 4.15969C13.0739 4.16031 13.7723 4.1595 14.4707 4.158C15.188 4.15648 15.9053 4.1559 16.6226 4.15629C17.0252 4.1565 17.4279 4.15635 17.8305 4.15528C18.2094 4.15431 18.5882 4.15456 18.967 4.15573C19.106 4.15596 19.245 4.15577 19.384 4.15512C19.5739 4.15429 19.7637 4.15501 19.9536 4.15612C20.0085 4.15552 20.0633 4.15492 20.1198 4.1543C20.5503 4.15944 20.8751 4.27579 21.2031 4.55805C21.2368 4.59817 21.2705 4.63829 21.3052 4.67963C21.3398 4.71943 21.3745 4.75923 21.4101 4.80023C21.6191 5.11763 21.6426 5.43388 21.6333 5.80463C21.6327 5.84765 21.6322 5.89067 21.6316 5.935C21.6301 6.03999 21.6279 6.14497 21.6255 6.24994C21.6889 6.24939 21.7524 6.24883 21.8178 6.24826C22.4182 6.24317 23.0186 6.23944 23.619 6.23699C23.9276 6.23569 24.2362 6.23393 24.5448 6.23108C24.843 6.22835 25.1413 6.22687 25.4396 6.22622C25.5529 6.22576 25.6662 6.22487 25.7796 6.22351C26.5639 6.2145 27.2527 6.24604 27.8891 6.76508C28.4031 7.27223 28.5613 7.91733 28.6836 8.60665C28.6942 8.66445 28.7048 8.72225 28.7157 8.7818C28.7385 8.90627 28.7611 9.03077 28.7835 9.15531C28.8191 9.35274 28.8553 9.55006 28.8917 9.74735C28.9948 10.308 29.0971 10.8687 29.1988 11.4296C29.2612 11.7737 29.3243 12.1175 29.3879 12.4613C29.4118 12.5919 29.4355 12.7224 29.4589 12.8531C29.4917 13.036 29.5254 13.2187 29.5593 13.4013C29.5686 13.4547 29.578 13.5082 29.5876 13.5632C29.67 13.9985 29.8061 14.4254 30.1565 14.7182C30.2164 14.7703 30.2164 14.7703 30.2775 14.8234C30.3189 14.8584 30.3602 14.8935 30.4028 14.9296C30.829 15.3075 31.0698 15.6454 31.2505 16.1874C31.2561 16.336 31.2578 16.4847 31.2576 16.6333C31.2576 16.6784 31.2576 16.7236 31.2576 16.7701C31.2576 16.9192 31.2571 17.0683 31.2566 17.2175C31.2565 17.3209 31.2564 17.4243 31.2563 17.5277C31.2561 17.7999 31.2555 18.0721 31.2548 18.3443C31.2541 18.622 31.2538 18.8998 31.2535 19.1776C31.2529 19.7225 31.2518 20.2675 31.2505 20.8124C31.2884 20.8302 31.3264 20.8479 31.3655 20.8662C31.6874 21.0361 31.8621 21.2971 32.0005 21.6249C32.0331 21.8921 32.0301 22.1578 32.0284 22.4269C32.0278 22.5539 32.0296 22.6808 32.0316 22.8078C32.0313 23.3383 32.0122 23.7304 31.6277 24.1264C31.587 24.1543 31.5463 24.1822 31.5044 24.2109C31.4639 24.2397 31.4233 24.2686 31.3816 24.2983C31.0231 24.5079 30.7318 24.5156 30.3247 24.5078C30.2695 24.5072 30.2142 24.5066 30.1573 24.506C30.0217 24.5046 29.8861 24.5023 29.7505 24.4999C29.742 24.5447 29.7336 24.5894 29.7248 24.6354C29.4869 25.7369 28.8433 26.5776 27.9221 27.2075C26.9262 27.8166 25.7412 27.9931 24.5981 27.746C23.496 27.4096 22.5412 26.6966 21.9678 25.6893C21.8598 25.4679 21.7833 25.2444 21.7082 25.0102C21.6941 24.967 21.68 24.9238 21.6655 24.8793C21.631 24.7738 21.597 24.6681 21.563 24.5624C21.5104 24.5622 21.4579 24.562 21.4037 24.5618C20.9081 24.5594 20.4124 24.5558 19.9168 24.5509C19.662 24.5485 19.4072 24.5465 19.1523 24.5455C18.9063 24.5446 18.6604 24.5424 18.4144 24.5394C18.3206 24.5385 18.2269 24.538 18.1331 24.5379C18.0016 24.5378 17.8701 24.5361 17.7386 24.5341C17.6638 24.5335 17.589 24.5329 17.5119 24.5324C17.2747 24.4937 17.1698 24.4173 17.0005 24.2499C16.959 24.1249 16.959 24.1249 16.9614 23.9999C16.9602 23.9381 16.9602 23.9381 16.959 23.8749C17.0241 23.6788 17.1431 23.6123 17.313 23.4999C17.5095 23.4699 17.5095 23.4699 17.7329 23.4716C17.7737 23.4715 17.8146 23.4715 17.8568 23.4714C17.991 23.4716 18.1252 23.4736 18.2595 23.4755C18.3529 23.476 18.4464 23.4763 18.5398 23.4766C18.7851 23.4776 19.0303 23.48 19.2756 23.4828C19.5261 23.4853 19.7767 23.4865 20.0272 23.4877C20.5183 23.4904 21.0094 23.4947 21.5005 23.4999C21.5044 23.4484 21.5082 23.3969 21.5122 23.3438C21.5176 23.2762 21.5229 23.2086 21.5283 23.1389C21.5335 23.0719 21.5387 23.0049 21.544 22.9359C21.5651 22.729 21.6095 22.547 21.6802 22.3515C21.7006 22.293 21.7211 22.2345 21.7422 22.1743C21.8183 21.9868 21.91 21.8059 22.0005 21.6249C18.0405 21.6249 14.0805 21.6249 10.0005 21.6249C10.1036 21.8518 10.2067 22.0787 10.313 22.3124C10.3845 22.56 10.3845 22.56 10.4263 22.7734C10.4408 22.8448 10.4554 22.9161 10.4704 22.9897C10.497 23.1646 10.5028 23.3237 10.5005 23.4999C10.5665 23.4994 10.6325 23.4988 10.7005 23.4983C11.3222 23.4932 11.9438 23.4894 12.5655 23.487C12.8851 23.4857 13.2048 23.4839 13.5244 23.4811C13.8328 23.4784 14.1411 23.4769 14.4495 23.4762C14.5673 23.4758 14.685 23.4749 14.8027 23.4735C14.9675 23.4717 15.1322 23.4714 15.2969 23.4716C15.3457 23.4707 15.3945 23.4698 15.4447 23.4688C15.6658 23.4705 15.7885 23.4813 15.9668 23.6172C16.0803 23.7739 16.1161 23.8692 16.1255 24.0624C16.059 24.3007 16.0239 24.3593 15.813 24.4999C15.6394 24.5133 15.4719 24.5194 15.2983 24.5199C15.2458 24.5205 15.1934 24.5211 15.1393 24.5218C14.9659 24.5237 14.7924 24.5248 14.6189 24.5258C14.4986 24.527 14.3784 24.5282 14.2582 24.5295C13.9416 24.5327 13.625 24.5352 13.3085 24.5375C12.9855 24.54 12.6625 24.5432 12.3395 24.5463C11.7056 24.5524 11.0718 24.5577 10.438 24.5624C10.4178 24.6259 10.3976 24.6894 10.3768 24.7547C10.3493 24.8393 10.3219 24.9239 10.2944 25.0085C10.2812 25.0502 10.268 25.0918 10.2544 25.1348C9.9319 26.1213 9.18971 26.8561 8.31298 27.3749C7.27752 27.8958 6.07335 27.9929 4.9641 27.6445C3.80143 27.198 2.95172 26.3814 2.43846 25.2436C2.35379 25.0001 2.30191 24.7523 2.25048 24.4999C2.172 24.5036 2.09353 24.5072 2.01268 24.5109C0.869708 24.5484 0.869708 24.5484 0.437976 24.1874C-0.000537574 23.7217 -0.0143731 23.3324 -0.0179714 22.7087C-0.01869 22.6221 -0.019966 22.5354 -0.0218166 22.4487C-0.0352221 21.8205 -0.0113587 21.4812 0.410633 21.0078C0.562976 20.8749 0.562976 20.8749 0.750476 20.8124C0.750131 20.6929 0.750131 20.6929 0.749778 20.571C0.744361 18.6785 0.74024 16.786 0.73771 14.8935C0.737397 14.6604 0.737074 14.4274 0.736744 14.1943C0.736678 14.1479 0.736612 14.1015 0.736545 14.0537C0.735458 13.303 0.733487 12.5522 0.731188 11.8015C0.728849 11.0309 0.727461 10.2603 0.726954 9.48969C0.726612 9.01436 0.72553 8.53905 0.723497 8.06372C0.722017 7.69896 0.721863 7.3342 0.7222 6.96944C0.722131 6.82001 0.721634 6.67058 0.720675 6.52115C0.719428 6.31688 0.719731 6.11267 0.720413 5.9084C0.719321 5.82003 0.719321 5.82003 0.718206 5.72987C0.722121 5.29468 0.805825 4.89728 1.10986 4.56953C1.51389 4.19818 1.88319 4.16764 2.41478 4.16645ZM21.6255 7.24994C21.6255 11.6637 21.6255 16.0774 21.6255 20.6249C22.8133 20.7605 22.8133 20.7605 23.313 20.2499C23.4719 20.1548 23.624 20.0689 23.7895 19.9882C23.8332 19.9669 23.8769 19.9456 23.9219 19.9236C24.9828 19.4241 26.092 19.4498 27.188 19.8124C27.4229 19.9065 27.6507 20.0087 27.8755 20.1249C27.8836 20.0254 27.8836 20.0254 27.8918 19.9238C27.9482 19.3259 28.0188 18.9045 28.4692 18.4765C28.7262 18.3095 28.9497 18.2353 29.2556 18.2241C29.3138 18.2216 29.372 18.2192 29.432 18.2167C29.522 18.2138 29.522 18.2138 29.6138 18.2109C29.7055 18.2073 29.7055 18.2073 29.7992 18.2036C29.9496 18.1977 30.1 18.1923 30.2505 18.1874C30.2567 17.9373 30.2612 17.6873 30.2642 17.4371C30.2655 17.3522 30.2672 17.2672 30.2693 17.1823C30.2724 17.0596 30.2737 16.9369 30.2749 16.8141C30.2762 16.7405 30.2775 16.6669 30.2789 16.591C30.2148 16.1035 29.8547 15.698 29.4855 15.3925C29.0551 15.0931 28.5056 15.1647 28.0054 15.1779C27.8857 15.1784 27.7661 15.1786 27.6464 15.1785C27.3334 15.1788 27.0205 15.183 26.7075 15.1883C26.2059 15.1962 25.7042 15.1985 25.2025 15.2002C25.0281 15.2013 24.8538 15.2044 24.6794 15.2077C24.5719 15.2087 24.4645 15.2097 24.357 15.2106C24.3091 15.212 24.2612 15.2134 24.2119 15.2149C23.8288 15.2159 23.4981 15.1126 23.215 14.8447C22.9593 14.55 22.93 14.332 22.9279 13.9523C22.9276 13.9096 22.9273 13.8668 22.927 13.8228C22.9261 13.6816 22.9256 13.5404 22.9253 13.3991C22.9249 13.3008 22.9246 13.2025 22.9242 13.1041C22.9235 12.8979 22.9232 12.6917 22.923 12.4855C22.9226 12.2217 22.9211 11.958 22.9193 11.6943C22.9182 11.4911 22.9178 11.2879 22.9178 11.0848C22.9176 10.9876 22.9171 10.8904 22.9162 10.7932C22.9152 10.6569 22.9153 10.5207 22.9157 10.3844C22.9155 10.307 22.9152 10.2295 22.915 10.1497C22.9511 9.816 23.0646 9.62071 23.3052 9.39057C23.607 9.17327 23.8336 9.10954 24.2042 9.10501C24.2817 9.10377 24.3593 9.10253 24.4392 9.10125C24.5232 9.10051 24.6072 9.09978 24.6912 9.09906C24.7776 9.09789 24.864 9.09667 24.9504 9.09539C25.1772 9.09219 25.404 9.08971 25.6307 9.08739C25.8624 9.08488 26.0941 9.08169 26.3258 9.07855C26.7798 9.07252 27.2339 9.06724 27.688 9.06244C27.6785 8.96215 27.6688 8.86188 27.6591 8.76161C27.6538 8.70577 27.6484 8.64993 27.6429 8.5924C27.5976 8.18921 27.4936 7.78082 27.188 7.49994C25.5279 6.6699 23.4815 7.24994 21.6255 7.24994ZM23.8755 10.1874C23.8563 10.3585 23.8563 10.3585 23.8593 10.5611C23.8589 10.6395 23.8585 10.7179 23.8581 10.7987C23.8583 10.8847 23.8586 10.9706 23.8589 11.0566C23.8588 11.1444 23.8587 11.2322 23.8585 11.32C23.8583 11.5041 23.8586 11.6882 23.8592 11.8723C23.8599 12.1085 23.8595 12.3448 23.8587 12.581C23.8583 12.7623 23.8584 12.9437 23.8587 13.125C23.8588 13.2121 23.8587 13.2992 23.8584 13.3863C23.8581 13.508 23.8587 13.6296 23.8593 13.7513C23.8594 13.8206 23.8595 13.8899 23.8596 13.9613C23.8589 14.1349 23.8589 14.1349 24.0005 14.2499C24.1511 14.2617 24.2944 14.2657 24.445 14.2641C24.5136 14.2642 24.5136 14.2642 24.5836 14.2642C24.7351 14.2641 24.8866 14.2631 25.0381 14.2621C25.143 14.2619 25.2479 14.2617 25.3528 14.2616C25.6292 14.2611 25.9056 14.2599 26.182 14.2585C26.4639 14.2572 26.7459 14.2567 27.0278 14.256C27.5812 14.2547 28.1346 14.2526 28.688 14.2499C28.6078 13.7097 28.5174 13.1724 28.4162 12.6357C28.3959 12.5273 28.3959 12.5273 28.3752 12.4168C28.3469 12.266 28.3184 12.1151 28.29 11.9643C28.2462 11.7324 28.2029 11.5003 28.1595 11.2683C28.1318 11.1212 28.1041 10.9741 28.0764 10.8271C28.0634 10.7575 28.0505 10.6879 28.0371 10.6162C28.025 10.5525 28.0129 10.4888 28.0005 10.4232C27.9899 10.367 27.9793 10.3107 27.9684 10.2527C27.9501 10.1261 27.9501 10.1261 27.8755 10.0624C27.7553 10.0559 27.635 10.0538 27.5147 10.0534C27.4375 10.053 27.3603 10.0526 27.2808 10.0522C27.1959 10.0521 27.111 10.052 27.0261 10.0519C26.9396 10.0517 26.8531 10.0515 26.7666 10.0513C26.5851 10.0509 26.4036 10.0508 26.222 10.0509C25.9891 10.0509 25.7562 10.05 25.5232 10.0489C25.3445 10.0482 25.1658 10.0481 24.9871 10.0481C24.9012 10.0481 24.8153 10.0478 24.7294 10.0473C24.6094 10.0467 24.4894 10.047 24.3694 10.0473C24.301 10.0472 24.2326 10.0471 24.1622 10.047C23.9903 10.0461 23.9903 10.0461 23.8755 10.1874ZM1.75048 18.4999C1.75048 19.2012 1.75048 19.9024 1.75048 20.6249C2.20423 20.6249 2.65798 20.6249 3.12548 20.6249C3.13053 20.3398 3.13426 20.0547 3.1372 19.7695C3.13877 19.6886 3.14034 19.6078 3.14196 19.5245C3.14256 19.4465 3.14316 19.3686 3.14379 19.2883C3.14477 19.2166 3.14575 19.1449 3.14676 19.0711C3.12309 18.8529 3.0685 18.737 2.93798 18.5624C2.58344 18.3852 2.14686 18.4999 1.75048 18.4999ZM28.9653 19.3085C28.8413 19.5728 28.8481 19.7945 28.8599 20.082C28.865 20.2612 28.8702 20.4403 28.8755 20.6249C29.3292 20.6249 29.783 20.6249 30.2505 20.6249C30.2505 20.1506 30.2505 19.6762 30.2505 19.1874C30.07 19.181 29.8895 19.1746 29.7036 19.1679C29.6471 19.1651 29.5907 19.1622 29.5325 19.1593C29.2885 19.1551 29.1644 19.158 28.9653 19.3085ZM3.87548 21.6249C3.56423 22.0004 3.39281 22.4115 3.25048 22.8749C3.23839 22.9126 3.22631 22.9504 3.21386 22.9892C3.0561 23.8167 3.21073 24.6453 3.6411 25.3632C4.12118 26.0625 4.7776 26.5909 5.61888 26.7851C6.55769 26.9174 7.41872 26.7993 8.21532 26.2516C8.84401 25.7543 9.35297 25.0127 9.48729 24.2082C9.58038 23.1791 9.3383 22.3059 8.67968 21.5016C8.13867 20.9142 7.3536 20.5428 6.56151 20.4865C5.48341 20.4545 4.61479 20.8441 3.87548 21.6249ZM23.279 21.5458C22.6723 22.3007 22.4298 23.1055 22.5005 24.0624C22.6321 24.9439 23.0784 25.6715 23.7624 26.2385C24.105 26.483 24.4748 26.6269 24.8755 26.7499C24.9132 26.762 24.9509 26.7741 24.9897 26.7866C25.8172 26.9443 26.6458 26.7897 27.3638 26.3593C28.0631 25.8792 28.5914 25.2228 28.7856 24.3815C28.9195 23.4314 28.7939 22.581 28.2397 21.7766C27.7537 21.1316 27.0449 20.6875 26.2505 20.5248C25.1491 20.3786 24.0316 20.6999 23.279 21.5458ZM1.00048 21.8749C0.924634 22.1025 0.92407 22.3137 0.922351 22.5507C0.921062 22.5944 0.919773 22.6381 0.918445 22.6832C0.916209 22.982 0.965983 23.1847 1.12548 23.4374C1.31706 23.5332 1.5172 23.5064 1.72704 23.5038C1.77119 23.5036 1.81534 23.5033 1.86083 23.503C1.96988 23.5023 2.07893 23.5011 2.18798 23.4999C2.19789 23.4327 2.2078 23.3654 2.21801 23.2961C2.31096 22.7024 2.44478 22.1777 2.68798 21.6249C2.46534 21.6177 2.24273 21.6132 2.02001 21.6093C1.95705 21.6072 1.89408 21.6051 1.82921 21.603C1.36116 21.5941 1.36116 21.5941 1.00048 21.8749ZM29.313 21.6249C29.3386 21.6922 29.3642 21.7595 29.3906 21.8288C29.5978 22.3859 29.753 22.9056 29.813 23.4999C29.9641 23.5067 30.1149 23.5117 30.2661 23.5156C30.3087 23.5177 30.3513 23.5198 30.3953 23.5219C30.6112 23.5261 30.7272 23.5175 30.9018 23.3857C31.088 23.1295 31.0764 22.8745 31.0786 22.5703C31.0799 22.526 31.0812 22.4818 31.0825 22.4362C31.0846 22.1528 31.0521 21.9737 30.8755 21.7499C30.669 21.6123 30.6083 21.61 30.3689 21.6127C30.3075 21.6131 30.246 21.6135 30.1827 21.614C30.0867 21.6155 30.0867 21.6155 29.9888 21.6171C29.8917 21.618 29.8917 21.618 29.7926 21.6188C29.6327 21.6203 29.4728 21.6224 29.313 21.6249Z" fill="white"/>
<path d="M13.7891 9.04297C13.8633 9.04063 13.9376 9.0383 14.0142 9.03589C14.5069 9.09149 14.8511 9.3744 15.2188 9.6875C15.6079 10.0117 16.0046 10.3215 16.4122 10.6221C17.1439 11.163 17.1439 11.163 17.2695 11.4414C17.2982 11.5024 17.2982 11.5024 17.3274 11.5647C17.4172 11.7963 17.4456 12.0023 17.4476 12.2505C17.4482 12.3127 17.4488 12.3749 17.4494 12.439C17.4498 12.5393 17.4498 12.5393 17.4502 12.6416C17.4506 12.7108 17.4509 12.78 17.4513 12.8513C17.4519 12.9978 17.4523 13.1443 17.4525 13.2907C17.4531 13.5139 17.4551 13.737 17.457 13.9602C17.4574 14.1027 17.4578 14.2452 17.458 14.3877C17.4588 14.4541 17.4596 14.5204 17.4603 14.5888C17.459 15.0312 17.4272 15.4167 17.1289 15.7673C17.0864 15.8016 17.0438 15.8358 17 15.8711C16.9575 15.9065 16.9149 15.9418 16.8711 15.9783C16.6135 16.1574 16.3462 16.1358 16.0453 16.138C15.9925 16.1387 15.9397 16.1393 15.8854 16.1399C15.7105 16.1418 15.5357 16.1431 15.3608 16.1443C15.301 16.1447 15.2412 16.1451 15.1796 16.1455C14.8629 16.1476 14.5461 16.1491 14.2294 16.1503C13.9677 16.1514 13.7061 16.1536 13.4445 16.1567C13.1282 16.1605 12.8119 16.1624 12.4956 16.163C12.3753 16.1635 12.2551 16.1647 12.1348 16.1666C11.0003 16.183 11.0003 16.183 10.5947 15.8543C10.2728 15.4997 10.2458 15.2123 10.25 14.75C10.127 14.752 10.127 14.752 10.0015 14.754C9.69729 14.7585 9.39306 14.7614 9.08881 14.7637C8.95713 14.765 8.82545 14.7667 8.69379 14.7689C8.50451 14.7719 8.31528 14.7733 8.12598 14.7744C8.03768 14.7763 8.03768 14.7763 7.94761 14.7783C7.5409 14.7785 7.5409 14.7785 7.33783 14.6371C7.20839 14.435 7.21648 14.2971 7.25 14.0625C7.33783 13.9254 7.33783 13.9254 7.5 13.8125C7.70885 13.7777 7.91477 13.7835 8.12598 13.7881C8.18666 13.7884 8.24735 13.7888 8.30987 13.7892C8.50349 13.7906 8.69703 13.7937 8.89062 13.7969C9.02197 13.7981 9.15332 13.7993 9.28467 13.8003C9.60647 13.803 9.92822 13.8074 10.25 13.8125C10.25 13.4619 10.25 13.1112 10.25 12.75C10.0981 12.7515 10.0981 12.7515 9.94316 12.753C9.56823 12.7564 9.19329 12.7585 8.81834 12.7603C8.65593 12.7612 8.49351 12.7625 8.3311 12.7641C8.09793 12.7664 7.86477 12.7675 7.63159 12.7683C7.52231 12.7698 7.52231 12.7698 7.41082 12.7712C7.34326 12.7713 7.2757 12.7713 7.2061 12.7713C7.14656 12.7717 7.08702 12.7721 7.02568 12.7725C6.875 12.75 6.875 12.75 6.76397 12.6662C6.64739 12.5081 6.63278 12.3821 6.625 12.1875C6.69611 12.042 6.76053 11.927 6.875 11.8125C6.98242 11.8067 7.09007 11.8052 7.19765 11.8054C7.26646 11.8054 7.33528 11.8054 7.40618 11.8054C7.51849 11.8059 7.51849 11.8059 7.63306 11.8064C7.70927 11.8065 7.78548 11.8066 7.864 11.8067C8.10855 11.807 8.3531 11.8078 8.59766 11.8086C8.76298 11.8089 8.9283 11.8092 9.09363 11.8094C9.49992 11.8101 9.90621 11.8112 10.3125 11.8125C10.3213 11.7532 10.33 11.694 10.339 11.6329C10.4319 11.1284 10.9482 10.8219 11.3384 10.5393C11.6582 10.3076 11.9664 10.0605 12.2761 9.81552C13.247 9.054 13.247 9.054 13.7891 9.04297ZM12.9102 10.625C12.5133 10.954 12.108 11.2677 11.6908 11.5706C11.5086 11.7044 11.3766 11.8101 11.25 12C11.2315 12.1392 11.2315 12.1392 11.2348 12.2947C11.2346 12.3543 11.2344 12.414 11.2342 12.4754C11.2347 12.5397 11.2351 12.604 11.2356 12.6702C11.2356 12.7362 11.2357 12.8022 11.2357 12.8702C11.2359 13.0098 11.2364 13.1494 11.2371 13.289C11.2383 13.5033 11.2384 13.7175 11.2384 13.9318C11.2387 14.0672 11.2391 14.2027 11.2395 14.3381C11.2396 14.4025 11.2396 14.4669 11.2397 14.5332C11.2401 14.5927 11.2405 14.6521 11.2409 14.7134C11.2412 14.7658 11.2414 14.8183 11.2416 14.8723C11.242 15.0042 11.242 15.0042 11.3125 15.125C11.9725 15.125 12.6325 15.125 13.3125 15.125C13.3281 14.6015 13.3281 14.6015 13.3424 14.0779C13.3446 14.0126 13.3468 13.9472 13.3491 13.8799C13.3511 13.8131 13.353 13.7463 13.3551 13.6776C13.3747 13.5026 13.4043 13.3965 13.5 13.25C13.6756 13.1622 13.8055 13.1719 14 13.1875C14.1348 13.2572 14.1348 13.2572 14.25 13.375C14.2841 13.5569 14.2841 13.5569 14.2881 13.7761C14.2901 13.8545 14.2921 13.9328 14.2942 14.0135C14.2951 14.0954 14.296 14.1773 14.2969 14.2617C14.2986 14.3452 14.3005 14.4286 14.3025 14.5121C14.3069 14.7164 14.3102 14.9207 14.3125 15.125C14.595 15.1281 14.8776 15.1304 15.1601 15.1319C15.2563 15.1325 15.3524 15.1333 15.4486 15.1344C15.5867 15.1359 15.7247 15.1367 15.8628 15.1372C15.9274 15.1382 15.9274 15.1382 15.9934 15.1392C16.0999 15.1392 16.2063 15.1326 16.3125 15.125C16.4658 14.9717 16.4533 14.9306 16.4537 14.7201C16.4543 14.6331 16.4543 14.6331 16.4549 14.5444C16.4546 14.4816 16.4544 14.4187 16.4541 14.354C16.4542 14.2896 16.4543 14.2251 16.4545 14.1588C16.4545 14.0223 16.4543 13.8858 16.4538 13.7493C16.4531 13.5404 16.4538 13.3315 16.4546 13.1226C16.4545 12.9901 16.4543 12.8576 16.4541 12.7251C16.4544 12.6625 16.4546 12.6 16.4549 12.5355C16.4545 12.4771 16.4541 12.4187 16.4537 12.3586C16.4536 12.3073 16.4535 12.256 16.4534 12.2032C16.4309 12.0038 16.368 11.8645 16.2214 11.7272C16.1861 11.7018 16.1508 11.6765 16.1145 11.6504C16.0546 11.6066 16.0546 11.6066 15.9935 11.5619C15.9505 11.5312 15.9076 11.5004 15.8633 11.4688C15.7724 11.4024 15.6817 11.3359 15.5911 11.2693C15.5217 11.2183 15.5217 11.2183 15.4508 11.1662C15.1952 10.9745 14.948 10.772 14.7016 10.5686C13.9218 9.93317 13.67 9.9862 12.9102 10.625Z" fill="white"/>
<path d="M26.7021 21.9577C27.1688 22.2919 27.4819 22.6899 27.625 23.2499C27.6862 23.8102 27.6599 24.331 27.313 24.7895C26.8981 25.2686 26.5235 25.5851 25.876 25.641C25.2758 25.6622 24.8246 25.5543 24.3555 25.1718C23.9075 24.7474 23.6939 24.2777 23.668 23.664C23.688 23.0148 23.9478 22.5315 24.4163 22.0895C25.066 21.5749 25.9962 21.5393 26.7021 21.9577ZM24.8477 23.1093C24.6868 23.4438 24.6505 23.684 24.7539 24.0429C24.9242 24.334 25.11 24.5158 25.4375 24.6249C25.8203 24.6563 26.0078 24.6311 26.3125 24.3749C26.5558 24.0987 26.6449 23.9422 26.6382 23.568C26.6084 23.2731 26.4708 23.0981 26.2734 22.8866C25.7865 22.5154 25.2271 22.6812 24.8477 23.1093Z" fill="white"/>
<path d="M7.55093 22.0781C8.01922 22.4737 8.25409 22.9049 8.33047 23.5181C8.35215 24.0516 8.19624 24.5359 7.8583 24.949C7.4241 25.4047 6.97664 25.6309 6.34781 25.6484C5.6289 25.6261 5.247 25.3951 4.75015 24.875C4.38706 24.4552 4.34542 23.9907 4.35586 23.4551C4.4073 22.9081 4.66155 22.4918 5.06265 22.125C5.79931 21.5448 6.79136 21.5176 7.55093 22.0781ZM5.65567 22.9646C5.42073 23.2345 5.35233 23.4517 5.35757 23.8088C5.39693 24.0969 5.5796 24.2724 5.78921 24.457C6.0448 24.6386 6.25422 24.6561 6.56265 24.625C6.86701 24.5176 7.09388 24.3477 7.25015 24.0625C7.3449 23.765 7.34184 23.5167 7.21499 23.2305C7.05814 22.9617 6.87148 22.8039 6.56778 22.7148C6.21844 22.65 5.9225 22.7116 5.65567 22.9646Z" fill="white"/>
</g>
<defs>
<clipPath id="clip0_295_5800">
<rect width="32" height="32" fill="white"/>
</clipPath>
</defs>
</svg>
