<svg width="60" height="60" viewBox="0 0 60 60" fill="none" xmlns="http://www.w3.org/2000/svg">
<path d="M10.8077 22.389C10.9574 22.469 11.1259 22.5069 11.2954 22.4987C11.4649 22.4904 11.6289 22.4363 11.7701 22.3421C12.0555 22.1518 12.3456 21.9721 12.6402 21.8031L18.2155 33.75H15.9375C15.6889 33.75 15.4504 33.8488 15.2746 34.0246C15.0988 34.2004 15 34.4389 15 34.6875V51.5625C15.002 53.3024 15.694 54.9704 16.9243 56.2007C18.1546 57.431 19.8226 58.123 21.5625 58.125H40.3125C41.5553 58.1236 42.7467 57.6293 43.6255 56.7505C44.5043 55.8717 44.9986 54.6803 45 53.4375V34.6875C45 34.4389 44.9012 34.2004 44.7254 34.0246C44.5496 33.8488 44.3111 33.75 44.0625 33.75H41.6786L47.3548 21.8C47.6507 21.9709 47.9424 22.1517 48.2299 22.3425C48.3711 22.4366 48.5352 22.4907 48.7047 22.4989C48.8742 22.5071 49.0427 22.4691 49.1923 22.3891C49.3419 22.309 49.467 22.1898 49.5542 22.0443C49.6414 21.8987 49.6875 21.7322 49.6875 21.5625C49.6875 10.7067 40.8558 1.875 30 1.875C19.1442 1.875 10.3125 10.7067 10.3125 21.5625C10.3125 21.7322 10.3586 21.8987 10.4458 22.0443C10.533 22.1898 10.6581 22.309 10.8077 22.389ZM20.4902 19.6767C20.576 19.6905 20.6634 19.6911 20.7493 19.6784C23.3345 19.711 25.8723 20.3764 28.1409 21.6163L28.9799 22.0739L28.5971 24.7532C27.5676 24.4131 26.4766 24.3005 25.3993 24.423C24.322 24.5456 23.2841 24.9004 22.3572 25.463C21.4304 26.0256 20.6366 26.7826 20.0308 27.6818C19.4249 28.5809 19.0213 29.6009 18.8479 30.6711L14.3169 20.962C16.2672 20.1225 18.3669 19.6853 20.4902 19.6767ZM39.375 33.75H33.75V31.875C33.7509 29.9279 32.9917 28.0573 31.6341 26.6616C32.4882 26.3157 33.4142 26.1848 34.3308 26.2804C35.2473 26.376 36.1264 26.6952 36.8907 27.21C37.6551 27.7248 38.2813 28.4194 38.7145 29.2328C39.1477 30.0462 39.3745 30.9535 39.375 31.875V33.75ZM20.625 33.75V31.875C20.6243 30.9567 20.8487 30.0523 21.2783 29.2407C21.708 28.4292 22.3299 27.7352 23.0897 27.2196C23.8496 26.7039 24.7241 26.3822 25.637 26.2827C26.5499 26.1831 27.4732 26.3087 28.3263 26.6484L27.3118 33.75H20.625ZM30.0639 27.7451C30.635 28.2707 31.0909 28.9092 31.4026 29.6201C31.7144 30.3309 31.8752 31.0988 31.875 31.875V33.75H29.2059L30.0639 27.7451ZM16.875 51.5625V35.625H18.75V38.4375C18.75 38.6861 18.8488 38.9246 19.0246 39.1004C19.2004 39.2762 19.4389 39.375 19.6875 39.375C19.9361 39.375 20.1746 39.2762 20.3504 39.1004C20.5262 38.9246 20.625 38.6861 20.625 38.4375V35.625H31.875V38.4375C31.875 38.6861 31.9738 38.9246 32.1496 39.1004C32.3254 39.2762 32.5639 39.375 32.8125 39.375C33.0611 39.375 33.2996 39.2762 33.4754 39.1004C33.6512 38.9246 33.75 38.6861 33.75 38.4375V35.625H35.625V53.4375C35.6239 54.4523 35.954 55.4398 36.5651 56.25H21.5625C20.3197 56.2486 19.1283 55.7543 18.2495 54.8755C17.3707 53.9967 16.8764 52.8053 16.875 51.5625ZM43.125 53.4375C43.125 54.1834 42.8287 54.8988 42.3012 55.4262C41.7738 55.9537 41.0584 56.25 40.3125 56.25C39.5666 56.25 38.8512 55.9537 38.3238 55.4262C37.7963 54.8988 37.5 54.1834 37.5 53.4375V35.625H43.125V53.4375ZM41.1282 30.5382C40.9211 29.3961 40.4517 28.3175 39.757 27.3875C39.0624 26.4575 38.1613 25.7014 37.1249 25.1786C36.0884 24.6559 34.9448 24.3809 33.784 24.3751C32.6232 24.3693 31.4768 24.633 30.4352 25.1454L30.8617 22.1604L31.8591 21.6163C34.1276 20.3764 36.6654 19.711 39.2504 19.6782C39.2917 19.6841 39.3333 19.6872 39.375 19.6875C39.4202 19.6871 39.4654 19.6835 39.5101 19.6767C41.6314 19.6855 43.7292 20.1219 45.6779 20.96L41.1282 30.5382ZM47.7322 19.8647C45.4327 18.6434 42.8916 17.9456 40.2908 17.8212C40.0778 12.8693 38.1679 8.1414 34.8817 4.43098C41.8125 6.40887 47.0317 12.488 47.7322 19.8647ZM31.6055 3.82266L31.7019 3.90703C33.7008 5.65629 35.3257 7.79132 36.4792 10.184C37.6326 12.5767 38.2908 15.1778 38.4143 17.8311C35.8024 17.985 33.2571 18.7156 30.9612 19.9704L30.0002 20.4946L29.0393 19.9704C26.7434 18.7154 24.1981 17.9846 21.5862 17.8303C21.7097 15.1772 22.3678 12.5763 23.5211 10.1837C24.6745 7.79119 26.2992 5.65626 28.2979 3.90703L28.3942 3.82266C28.9233 3.77578 29.4587 3.75 29.9996 3.75C30.5406 3.75 31.0767 3.7752 31.6055 3.82266ZM25.1181 4.43098C21.8318 8.14144 19.9219 12.8694 19.7089 17.8214C17.1082 17.9458 14.5671 18.6436 12.2675 19.8647C12.9683 12.488 18.1875 6.40875 25.1184 4.43098H25.1181Z" fill="white"/>
</svg>
