<svg width="30" height="30" viewBox="0 0 30 30" fill="none" xmlns="http://www.w3.org/2000/svg">
<path d="M21.5625 3.4724C21.5624 3.35998 21.5446 3.24827 21.5098 3.1414L21.1439 1.93554C21.0575 1.64621 20.8797 1.39264 20.6372 1.21274C20.3947 1.03284 20.1004 0.936282 19.7985 0.937513H7.38902C7.08703 0.936231 6.79273 1.03276 6.55016 1.21267C6.3076 1.39257 6.12979 1.64617 6.04336 1.93554L5.67773 3.1414C5.64287 3.24827 5.62507 3.35998 5.625 3.4724V17.2126C5.62536 17.496 5.73808 17.7676 5.93843 17.9679C6.13879 18.1682 6.41042 18.2809 6.69375 18.2813H13.689C14.5683 19.1433 15.6723 19.7406 16.875 20.005V20.625C16.7507 20.625 16.6315 20.6744 16.5435 20.7623C16.4556 20.8502 16.4062 20.9694 16.4062 21.0938V27.1875C16.4062 27.6848 16.6038 28.1617 16.9554 28.5133C17.3071 28.865 17.784 29.0625 18.2812 29.0625C18.7785 29.0625 19.2554 28.865 19.6071 28.5133C19.9587 28.1617 20.1562 27.6848 20.1562 27.1875V21.0938C20.1562 20.9694 20.1069 20.8502 20.019 20.7623C19.931 20.6744 19.8118 20.625 19.6875 20.625V20.005C20.9803 19.7214 22.1571 19.0536 23.0635 18.0891C23.9699 17.1246 24.5634 15.9086 24.7662 14.6007C24.969 13.2928 24.7716 11.9541 24.1998 10.7605C23.6281 9.56682 22.7087 8.57395 21.5625 7.91222V3.4724ZM20.2471 2.20771L20.5104 3.07618C20.5048 3.07618 20.4994 3.07531 20.4938 3.07531H15.5005L15.3326 1.87501H19.7985C19.8992 1.87458 19.9973 1.90676 20.0781 1.96673C20.159 2.02671 20.2183 2.11125 20.2471 2.20771ZM12.5625 4.01954H14.625V5.68261L13.7679 5.33978C13.6561 5.29509 13.5314 5.29509 13.4196 5.33978L12.5625 5.68261V4.01954ZM14.386 1.87501L14.5539 3.07501H12.6336L12.8015 1.87501H14.386ZM7.38902 1.87501H11.8549L11.687 3.07501H6.69375C6.68789 3.07501 6.68268 3.07577 6.67711 3.07589L6.94043 2.20771C6.96925 2.11125 7.02852 2.02671 7.10938 1.96673C7.19024 1.90676 7.28835 1.87458 7.38902 1.87501ZM19.2188 27.1875C19.2188 27.4362 19.12 27.6746 18.9442 27.8504C18.7683 28.0262 18.5299 28.125 18.2812 28.125C18.0326 28.125 17.7942 28.0262 17.6183 27.8504C17.4425 27.6746 17.3438 27.4362 17.3438 27.1875V21.5625H19.2188V27.1875ZM23.9062 13.5938C23.9062 14.9356 23.4265 16.2332 22.5539 17.2525C21.6812 18.2718 20.473 18.9456 19.1472 19.1525C19.0366 19.1696 18.9358 19.2257 18.8629 19.3106C18.7901 19.3956 18.75 19.5038 18.75 19.6157V20.625H17.8125V19.6157C17.8125 19.5038 17.7724 19.3956 17.6996 19.3106C17.6267 19.2257 17.5259 19.1696 17.4153 19.1525C16.3525 18.987 15.3595 18.5203 14.5538 17.8076C13.7482 17.095 13.1637 16.1663 12.8698 15.1317C12.5758 14.0971 12.5846 12.9998 12.8951 11.97C13.2056 10.9402 13.8049 10.0211 14.6218 9.32144C15.4388 8.62182 16.4392 8.17107 17.5045 8.02262C18.5698 7.87417 19.6553 8.03425 20.6324 8.48387C21.6095 8.9335 22.4373 9.65382 23.0175 10.5595C23.5977 11.4651 23.9062 12.5182 23.9062 13.5938ZM18.2812 7.03126C17.0821 7.03098 15.9057 7.35936 14.8801 7.98073C13.8544 8.6021 13.0187 9.49269 12.4637 10.5557C11.9087 11.6187 11.6557 12.8135 11.7321 14.0103C11.8085 15.207 12.2115 16.36 12.8972 17.3438H6.69375C6.65895 17.3437 6.6256 17.3299 6.60099 17.3053C6.57639 17.2807 6.56255 17.2473 6.5625 17.2125V4.14376C6.56255 4.10897 6.57639 4.07561 6.60099 4.05101C6.6256 4.0264 6.65895 4.01256 6.69375 4.01251H11.625V6.37501C11.625 6.45162 11.6438 6.52707 11.6797 6.59474C11.7156 6.66242 11.7675 6.72026 11.831 6.76321C11.8944 6.80615 11.9674 6.8329 12.0436 6.8411C12.1197 6.8493 12.1968 6.83871 12.2679 6.81025L13.5938 6.27986L14.9196 6.81025C14.9907 6.83871 15.0678 6.8493 15.1439 6.8411C15.2201 6.8329 15.2931 6.80615 15.3565 6.76321C15.42 6.72026 15.4719 6.66242 15.5078 6.59474C15.5437 6.52707 15.5625 6.45162 15.5625 6.37501V4.01251H20.4938C20.5285 4.01256 20.5619 4.0264 20.5865 4.05101C20.6111 4.07561 20.625 4.10897 20.625 4.14376V7.46427C19.8769 7.17737 19.0824 7.03059 18.2812 7.03126Z" fill="#FD5523"/>
<path d="M13.5938 13.5938C13.5938 14.5208 13.8687 15.4271 14.3837 16.198C14.8988 16.9688 15.6309 17.5696 16.4874 17.9244C17.3439 18.2792 18.2865 18.372 19.1957 18.1912C20.105 18.0103 20.9403 17.5639 21.5958 16.9083C22.2514 16.2528 22.6978 15.4175 22.8787 14.5082C23.0595 13.5989 22.9667 12.6565 22.6119 11.7999C22.2571 10.9434 21.6563 10.2113 20.8855 9.69624C20.1146 9.18117 19.2083 8.90625 18.2812 8.90625C17.0385 8.90766 15.847 9.40197 14.9682 10.2807C14.0895 11.1595 13.5952 12.351 13.5938 13.5938ZM22.0312 13.5938C22.0312 14.3354 21.8113 15.0605 21.3993 15.6771C20.9872 16.2938 20.4015 16.7745 19.7163 17.0583C19.0311 17.3421 18.2771 17.4164 17.5497 17.2717C16.8222 17.127 16.154 16.7698 15.6296 16.2454C15.1052 15.721 14.748 15.0528 14.6033 14.3253C14.4586 13.5979 14.5329 12.8439 14.8167 12.1587C15.1005 11.4735 15.5812 10.8878 16.1979 10.4757C16.8145 10.0637 17.5396 9.84375 18.2812 9.84375C19.2755 9.84487 20.2286 10.2403 20.9317 10.9433C21.6347 11.6464 22.0301 12.5995 22.0312 13.5938Z" fill="#FD5523"/>
<path d="M15.9375 11.7188H16.875V15.4688H15.9375V11.7188Z" fill="#FD5523"/>
<path d="M19.6875 11.7188H20.1562V15.4688H19.6875V11.7188Z" fill="#FD5523"/>
<path d="M20.625 11.7188H21.0938V15.4688H20.625V11.7188Z" fill="#FD5523"/>
<path d="M17.3438 11.7188H17.8125V15.4688H17.3438V11.7188Z" fill="#FD5523"/>
<path d="M18.2812 11.7188H19.2188V15.4688H18.2812V11.7188Z" fill="#FD5523"/>
<path d="M9.84375 12.6562H7.96875C7.84443 12.6562 7.7252 12.7056 7.63729 12.7935C7.54939 12.8815 7.5 13.0007 7.5 13.125C7.5 13.2493 7.54939 13.3685 7.63729 13.4565C7.7252 13.5444 7.84443 13.5938 7.96875 13.5938H9.84375C9.96807 13.5938 10.0873 13.5444 10.1752 13.4565C10.2631 13.3685 10.3125 13.2493 10.3125 13.125C10.3125 13.0007 10.2631 12.8815 10.1752 12.7935C10.0873 12.7056 9.96807 12.6562 9.84375 12.6562Z" fill="#FD5523"/>
<path d="M9.375 14.5312H7.96875C7.84443 14.5312 7.7252 14.5806 7.63729 14.6685C7.54939 14.7565 7.5 14.8757 7.5 15C7.5 15.1243 7.54939 15.2435 7.63729 15.3315C7.7252 15.4194 7.84443 15.4688 7.96875 15.4688H9.375C9.49932 15.4688 9.61855 15.4194 9.70646 15.3315C9.79436 15.2435 9.84375 15.1243 9.84375 15C9.84375 14.8757 9.79436 14.7565 9.70646 14.6685C9.61855 14.5806 9.49932 14.5312 9.375 14.5312Z" fill="#FD5523"/>
</svg>
