<svg width="31" height="31" viewBox="0 0 31 31" fill="none" xmlns="http://www.w3.org/2000/svg">
<g clip-path="url(#clip0_288_198)">
<path d="M2.47409 1.86228C2.53736 1.86205 2.60063 1.86183 2.66581 1.8616C2.73498 1.86165 2.80414 1.8617 2.8754 1.86175C2.94914 1.86158 3.02288 1.8614 3.09886 1.86122C3.30339 1.86075 3.50793 1.86065 3.71246 1.8606C3.9331 1.86049 4.15374 1.86005 4.37437 1.85966C4.85667 1.85886 5.33897 1.85851 5.82126 1.85825C6.12234 1.85809 6.42342 1.85784 6.7245 1.85758C7.55799 1.85686 8.39147 1.85626 9.22496 1.85606C9.27829 1.85605 9.33161 1.85603 9.38655 1.85602C9.46673 1.856 9.46673 1.856 9.54853 1.85598C9.65685 1.85596 9.76516 1.85593 9.87348 1.8559C9.92721 1.85589 9.98094 1.85588 10.0363 1.85586C10.9075 1.85563 11.7788 1.85461 12.65 1.85325C13.5444 1.85186 14.4387 1.85113 15.333 1.85106C15.8352 1.851 16.3375 1.85067 16.8397 1.8496C17.2671 1.8487 17.6946 1.8484 18.1221 1.84888C18.3402 1.84911 18.5584 1.84906 18.7765 1.84824C19.0129 1.84736 19.2492 1.84783 19.4855 1.84845C19.5893 1.84774 19.5893 1.84774 19.6951 1.84702C19.7584 1.8474 19.8216 1.84779 19.8868 1.84819C19.9414 1.84815 19.9959 1.84812 20.0521 1.84808C20.2358 1.87459 20.347 1.93803 20.4969 2.04576C20.5486 2.15517 20.5486 2.15517 20.5628 2.27281C20.5721 2.33059 20.5721 2.33059 20.5815 2.38954C20.5493 2.54403 20.4842 2.63588 20.3705 2.74423C20.1263 2.88723 19.8219 2.84672 19.5475 2.84375C19.4741 2.84412 19.4008 2.84448 19.3252 2.84486C19.1216 2.84584 18.9181 2.845 18.7146 2.84386C18.495 2.84296 18.2754 2.84374 18.0559 2.84433C17.6754 2.84513 17.295 2.84488 16.9145 2.84393C16.3639 2.84258 15.8133 2.84301 15.2627 2.84391C14.3687 2.84533 13.4747 2.84557 12.5807 2.84496C12.5272 2.84492 12.4737 2.84489 12.4186 2.84485C12.3103 2.84477 12.202 2.8447 12.0937 2.84462C12.0132 2.84457 12.0132 2.84457 11.931 2.84451C11.8773 2.84447 11.8235 2.84444 11.7682 2.8444C11.1718 2.844 10.5753 2.84388 9.97889 2.84387C9.92551 2.84387 9.87212 2.84387 9.81711 2.84387C8.92668 2.84387 8.03626 2.84458 7.14583 2.84569C6.59668 2.84633 6.04755 2.84628 5.4984 2.84534C5.12203 2.84472 4.74567 2.84471 4.3693 2.84517C4.15219 2.84541 3.93509 2.84535 3.71799 2.84453C3.48249 2.84364 3.24701 2.8441 3.01151 2.84468C2.94308 2.8442 2.87465 2.84371 2.80415 2.84322C2.33776 2.84596 2.00893 2.9049 1.61502 3.17003C0.687239 4.1189 1.18152 5.81742 1.16092 6.90904C8.83729 6.90904 16.5137 6.90904 24.4226 6.90904C24.5992 5.09354 24.5992 5.09354 23.9444 3.18781C23.5391 2.85908 23.0551 2.83483 22.555 2.83678C21.9494 2.83908 21.9494 2.83908 21.7472 2.70105C21.6292 2.50869 21.6338 2.38392 21.6687 2.16295C21.7752 2.00548 21.7752 2.00548 21.9617 1.86998C22.187 1.82741 22.4069 1.83117 22.6355 1.83702C22.7302 1.83848 22.7302 1.83848 22.8268 1.83997C23.5841 1.86202 24.1624 2.02347 24.7097 2.56624C25.3628 3.26903 25.3775 4.04644 25.3716 4.9592C25.3714 5.0596 25.3712 5.16 25.3711 5.2604C25.3706 5.52308 25.3695 5.78575 25.3682 6.04843C25.367 6.3171 25.3665 6.58578 25.3659 6.85445C25.3646 7.38047 25.3626 7.90647 25.3601 8.43248C25.4244 8.43935 25.4887 8.44623 25.5549 8.45331C25.8183 8.49949 25.8968 8.57956 26.0633 8.78404C26.0838 8.82755 26.1044 8.87105 26.1255 8.91588C26.1726 9.03136 26.1726 9.03136 26.305 9.06236C26.3412 9.0672 26.3775 9.07203 26.4148 9.07701C26.4366 8.99725 26.4366 8.99725 26.4588 8.91588C26.5354 8.71665 26.6029 8.62486 26.7664 8.49107C27.1726 8.35567 27.4865 8.46162 27.8614 8.62291C27.9051 8.64051 27.9488 8.65811 27.9938 8.67624C28.2747 8.79404 28.4995 8.91032 28.6414 9.1942C28.647 9.28928 28.649 9.3846 28.6487 9.47984C28.6489 9.53045 28.649 9.58105 28.6492 9.63319C28.642 9.76881 28.6209 9.8846 28.5828 10.0145C28.7675 10.1068 28.9288 10.0199 29.1218 9.96645C29.3591 9.95122 29.4916 10.0126 29.6961 10.1317C29.7902 10.2712 29.8545 10.3833 29.9195 10.5345C29.9362 10.5704 29.9529 10.6063 29.9702 10.6432C30.0173 10.7454 30.0618 10.8487 30.1062 10.952C30.129 11.0035 30.1519 11.055 30.1754 11.1081C30.2732 11.3868 30.2646 11.6671 30.1575 11.9408C30.0203 12.0962 29.8872 12.1638 29.6961 12.2411C29.6574 12.2411 29.6187 12.2411 29.5789 12.2411C29.5812 12.3538 29.5812 12.3538 29.6375 12.4754C29.7541 12.5351 29.8714 12.5936 29.989 12.6512C30.1774 12.8148 30.2429 12.9533 30.2637 13.1969C30.2456 13.6763 30.0031 14.2438 29.6933 14.6091C29.4732 14.7878 29.2659 14.7699 28.993 14.7606C28.8754 14.7435 28.758 14.7248 28.6414 14.702C28.6511 14.7504 28.6607 14.7987 28.6707 14.8485C28.7118 15.1362 28.7405 15.3977 28.6487 15.6798C28.4504 15.8957 28.2037 15.9918 27.9383 16.1083C27.8887 16.1322 27.8392 16.1561 27.7881 16.1808C27.4583 16.3308 27.1774 16.4038 26.825 16.284C26.581 16.1023 26.4896 15.9318 26.4148 15.6395C26.3375 15.6395 26.2601 15.6395 26.1805 15.6395C26.1756 15.6818 26.1708 15.7241 26.1658 15.7677C26.1017 16.008 25.9796 16.163 25.774 16.3024C25.631 16.35 25.51 16.3454 25.3601 16.3426C25.3125 16.9795 25.3125 16.9795 25.562 17.5401C25.6735 17.6543 25.7896 17.752 25.9129 17.8544C26.0916 18.0075 26.1635 18.111 26.2001 18.3415C26.2075 18.7538 26.0915 18.9992 25.8131 19.2977C25.6837 19.4284 25.5525 19.5564 25.4187 19.6825C25.4361 19.734 25.4535 19.7855 25.4714 19.8386C25.5273 20.0081 25.5803 20.1779 25.6311 20.349C25.654 20.4258 25.654 20.4258 25.6774 20.5042C25.6887 20.5424 25.7 20.5806 25.7117 20.62C25.8198 20.6169 25.8198 20.6169 25.9301 20.6138C26.0257 20.6122 26.1214 20.6105 26.2171 20.609C26.2881 20.6068 26.2881 20.6068 26.3606 20.6045C26.6586 20.6009 26.86 20.6296 27.118 20.7958C27.4017 21.1102 27.4208 21.3195 27.4228 21.7326C27.4232 21.785 27.4235 21.8375 27.4238 21.8915C27.4244 22.0027 27.4248 22.1139 27.425 22.2251C27.4256 22.3948 27.4274 22.5645 27.4292 22.7343C27.4296 22.8423 27.4299 22.9503 27.4301 23.0583C27.4309 23.1089 27.4316 23.1596 27.4323 23.2118C27.4313 23.4908 27.416 23.6746 27.2351 23.9012C27.0069 24.1016 26.8725 24.2019 26.57 24.1999C26.5202 24.1997 26.4703 24.1995 26.4189 24.1993C26.3668 24.1989 26.3147 24.1984 26.261 24.1979C26.2085 24.1976 26.1559 24.1973 26.1017 24.1971C25.9717 24.1964 25.8417 24.1954 25.7117 24.1942C25.7004 24.2324 25.689 24.2706 25.6774 24.31C25.6545 24.3868 25.6545 24.3868 25.6311 24.4652C25.6162 24.5155 25.6012 24.5658 25.5858 24.6176C25.5329 24.79 25.4763 24.9609 25.4187 25.1317C25.4541 25.165 25.4894 25.1983 25.5259 25.2326C26.1796 25.8642 26.1796 25.8642 26.2171 26.3255C26.177 26.9104 25.6311 27.3471 25.2393 27.7318C25.1874 27.7838 25.1356 27.8359 25.0822 27.8895C24.4714 28.4952 24.4714 28.4952 24.0235 28.5082C23.6865 28.4999 23.5305 28.4143 23.2991 28.1761C23.2461 28.1193 23.2461 28.1193 23.1922 28.0614C23.1149 27.9933 23.0368 27.9261 22.9578 27.86C22.8998 27.8104 22.8418 27.7609 22.782 27.7098C22.7333 27.731 22.6846 27.7521 22.6344 27.7739C22.5707 27.8011 22.507 27.8283 22.4414 27.8563C22.3466 27.8971 22.3466 27.8971 22.2499 27.9387C22.0789 28.0028 22.0789 28.0028 21.9031 28.0028C21.9062 28.1109 21.9062 28.1109 21.9093 28.2211C21.9109 28.3168 21.9125 28.4125 21.9141 28.5082C21.9163 28.5792 21.9163 28.5792 21.9186 28.6517C21.9227 28.9929 21.8787 29.2431 21.6394 29.5054C21.3268 29.7488 21.0953 29.771 20.7102 29.7746C20.662 29.775 20.6138 29.7755 20.5641 29.776C20.4621 29.7768 20.36 29.7774 20.258 29.7779C20.154 29.7786 20.05 29.7798 19.946 29.7815C19.7954 29.784 19.6449 29.785 19.4944 29.7856C19.4483 29.7866 19.4023 29.7876 19.3549 29.7887C19.0246 29.7874 18.8357 29.7145 18.5633 29.5262C18.2999 29.2362 18.2911 28.9697 18.2849 28.5961C18.2823 28.5188 18.2823 28.5188 18.2797 28.44C18.2756 28.3138 18.2728 28.1876 18.2703 28.0614C18.1486 28.0105 18.0264 27.9607 17.9041 27.9112C17.8361 27.8834 17.7681 27.8555 17.6981 27.8268C17.4784 27.7553 17.4784 27.7553 17.2742 27.827C17.1398 27.9445 17.1398 27.9445 17.0105 28.087C16.8055 28.3058 16.6641 28.4518 16.361 28.4912C16.307 28.492 16.2531 28.4927 16.1975 28.4935C16.1439 28.4952 16.0903 28.4968 16.035 28.4986C15.6799 28.4411 15.4255 28.1648 15.1786 27.919C15.1481 27.889 15.1177 27.8589 15.0863 27.828C15.0226 27.7648 14.959 27.7015 14.8955 27.638C14.7987 27.5414 14.7009 27.4458 14.6032 27.3503C14.541 27.2884 14.4789 27.2266 14.4168 27.1646C14.3878 27.1364 14.3587 27.1082 14.3288 27.0791C14.112 26.8594 14.01 26.6532 13.9799 26.3461C14.0134 25.9062 14.2465 25.6888 14.5539 25.3951C14.6229 25.3289 14.6891 25.2598 14.7547 25.1903C14.7547 25.1323 14.7547 25.0743 14.7547 25.0145C14.6871 25.0144 14.6871 25.0144 14.6181 25.0142C13.5217 25.0121 12.4253 25.0086 11.329 25.0037C10.7988 25.0014 10.2686 24.9995 9.73838 24.9986C9.27632 24.9979 8.81427 24.9963 8.35221 24.9937C8.1075 24.9924 7.8628 24.9915 7.61809 24.9915C7.38781 24.9916 7.15756 24.9905 6.92729 24.9887C6.84273 24.9882 6.75817 24.9881 6.67361 24.9884C6.55822 24.9888 6.44284 24.9876 6.32746 24.9863C6.26286 24.9861 6.19827 24.9859 6.13171 24.9857C5.92552 24.9487 5.85583 24.8875 5.73123 24.7215C5.70374 24.5016 5.7001 24.3677 5.80814 24.1722C5.97702 24.0096 6.1434 24.0108 6.36642 24.0091C6.42484 24.0086 6.48325 24.008 6.54344 24.0074C6.60746 24.0071 6.67148 24.0067 6.73744 24.0064C6.8049 24.0058 6.87237 24.0052 6.94187 24.0046C7.16539 24.0028 7.3889 24.0013 7.61241 23.9999C7.76718 23.9987 7.92194 23.9974 8.07671 23.9962C8.44276 23.9933 8.80881 23.9906 9.17486 23.9881C9.5916 23.9852 10.0083 23.982 10.4251 23.9787C11.2823 23.9721 12.1396 23.9658 12.9969 23.9598C12.9691 23.9248 12.9413 23.8897 12.9126 23.8536C12.7323 23.6012 12.7512 23.3449 12.7485 23.047C12.748 22.9975 12.7476 22.948 12.7471 22.897C12.7463 22.7922 12.7457 22.6874 12.7452 22.5826C12.7442 22.4231 12.7416 22.2637 12.739 22.1043C12.7384 22.0023 12.7379 21.9003 12.7375 21.7983C12.736 21.7273 12.736 21.7273 12.7344 21.6549C12.7357 21.3211 12.8037 21.1284 12.9969 20.8544C13.3113 20.6165 13.5727 20.5829 13.96 20.576C14.0327 20.5734 14.0327 20.5734 14.1068 20.5708C14.2251 20.5667 14.3434 20.5639 14.4617 20.5614C14.5125 20.4396 14.5624 20.3175 14.6118 20.1952C14.6397 20.1272 14.6676 20.0592 14.6963 19.9892C14.7689 19.7691 14.7689 19.7691 14.6961 19.5653C14.5535 19.4129 14.4014 19.2747 14.2477 19.1336C14.05 18.9119 13.9666 18.6761 13.982 18.3788C14.0349 18.038 14.2399 17.8475 14.4792 17.613C14.6012 17.4925 14.7206 17.3697 14.8403 17.2469C14.9349 17.1505 15.0297 17.0542 15.1245 16.9579C15.1939 16.8874 15.1939 16.8874 15.2646 16.8154C15.3088 16.7712 15.353 16.7269 15.3985 16.6814C15.4381 16.6415 15.4777 16.6017 15.5185 16.5606C15.7692 16.341 15.9817 16.316 16.3065 16.325C16.7805 16.3817 17.0821 16.7761 17.3914 17.1044C17.4443 17.0832 17.4973 17.0621 17.5518 17.0403C17.6209 17.0131 17.6901 16.9859 17.7613 16.9579C17.8299 16.9307 17.8986 16.9035 17.9693 16.8755C18.1531 16.8114 18.1531 16.8114 18.3289 16.8114C18.3277 16.7777 18.3264 16.7441 18.3252 16.7094C18.3203 16.5554 18.3172 16.4014 18.3142 16.2474C18.3123 16.1945 18.3103 16.1415 18.3083 16.087C18.3034 15.7501 18.3332 15.5529 18.5633 15.2879C18.8802 15.0581 19.1653 15.0439 19.5477 15.0417C19.5919 15.0413 19.6361 15.041 19.6817 15.0407C19.7751 15.0401 19.8685 15.0397 19.962 15.0395C20.1039 15.0389 20.2458 15.0371 20.3878 15.0353C20.4789 15.0349 20.5699 15.0346 20.661 15.0343C20.724 15.0333 20.724 15.0333 20.7883 15.0322C21.118 15.0336 21.3989 15.0979 21.6536 15.3172C21.8302 15.5511 21.9109 15.713 21.9088 16.0046C21.9086 16.0516 21.9085 16.0986 21.9083 16.1471C21.9078 16.1959 21.9073 16.2447 21.9068 16.295C21.9065 16.3445 21.9062 16.394 21.906 16.4451C21.9053 16.5672 21.9042 16.6893 21.9031 16.8114C21.9459 16.8184 21.9888 16.8254 22.0329 16.8327C22.2394 16.8799 22.4083 16.9696 22.5955 17.0666C22.7217 17.1166 22.7217 17.1166 22.8404 17.0689C22.9857 16.9677 23.0997 16.852 23.2215 16.7235C23.5695 16.3564 23.5695 16.3564 23.8665 16.3291C23.9171 16.33 23.9677 16.3308 24.0198 16.3316C24.0707 16.332 24.1216 16.3324 24.1741 16.3328C24.3055 16.3426 24.3055 16.3426 24.4226 16.4012C24.4165 16.202 24.4165 16.202 24.364 15.9911C24.2248 15.8968 24.2248 15.8968 24.0711 15.8153C23.928 15.6102 23.8817 15.4664 23.9099 15.222C23.9732 14.8955 23.9732 14.8955 24.0125 14.7606C23.9545 14.7413 23.8965 14.7219 23.8367 14.702C23.798 14.7213 23.7594 14.7407 23.7195 14.7606C23.5774 14.7766 23.5774 14.7766 23.4082 14.7826C23.3529 14.7854 23.2975 14.7883 23.2405 14.7913C23.0059 14.7478 22.9305 14.6519 22.782 14.4676C22.695 14.3222 22.6251 14.1729 22.5586 14.0172C22.532 13.9551 22.532 13.9551 22.5048 13.8917C22.3769 13.5771 22.2872 13.2837 22.3719 12.9442C22.4928 12.7369 22.6133 12.6147 22.8406 12.534C22.8986 12.534 22.9566 12.534 23.0164 12.534C23.0141 12.4214 23.0141 12.4214 22.9578 12.2997C22.8411 12.24 22.7239 12.1816 22.6062 12.1239C22.4154 11.9581 22.3532 11.8211 22.3352 11.5746C22.3466 11.2942 22.4285 11.0467 22.5293 10.7872C22.5507 10.7315 22.5507 10.7315 22.5726 10.6746C22.6919 10.3896 22.8518 10.1554 23.1336 10.0145C23.2189 10.0089 23.3044 10.0069 23.3899 10.0072C23.4351 10.007 23.4803 10.0069 23.5268 10.0067C23.657 10.0143 23.7703 10.0371 23.8953 10.0731C23.9734 9.89732 23.9734 9.89732 23.8953 9.72154C23.8723 9.44055 23.867 9.30734 23.9978 9.05504C24.1297 8.90123 24.1297 8.90123 24.364 8.78404C24.3834 8.47467 24.4027 8.16529 24.4226 7.84654C16.7463 7.84654 9.06991 7.84654 1.16092 7.84654C1.16455 10.3505 1.16817 12.8545 1.17191 15.4344C1.1723 16.2255 1.17269 17.0166 1.1731 17.8316C1.17485 18.5398 1.17485 18.5398 1.17698 19.248C1.17793 19.5638 1.17807 19.8796 1.17768 20.1954C1.17718 20.5982 1.17818 21.0009 1.18014 21.4036C1.18062 21.5515 1.18061 21.6993 1.18006 21.8472C1.17938 22.0469 1.1805 22.2465 1.18206 22.4462C1.18143 22.5041 1.18081 22.562 1.18017 22.6216C1.18519 22.9664 1.24379 23.1787 1.44971 23.458C1.51248 23.5497 1.51248 23.5497 1.51248 23.6669C1.58998 23.7072 1.66834 23.7458 1.74686 23.784C1.83799 23.8289 1.83799 23.8289 1.93097 23.8747C2.16298 23.9732 2.38574 23.9856 2.63538 23.9857C2.67962 23.9865 2.72387 23.9872 2.76945 23.988C2.90955 23.9904 3.04962 23.9917 3.18973 23.9928C3.33025 23.9942 3.47075 23.9958 3.61126 23.9982C3.69832 23.9996 3.78539 24.0005 3.87245 24.0007C4.10628 24.0042 4.29409 24.0223 4.50077 24.1356C4.63797 24.3414 4.64703 24.4206 4.61795 24.6629C4.53225 24.8186 4.53225 24.8186 4.38358 24.9559C4.20845 24.9992 4.03748 24.9956 3.85784 24.9928C3.78064 24.993 3.78064 24.993 3.70189 24.9932C3.59289 24.9931 3.4839 24.9924 3.37491 24.9909C3.21001 24.9889 3.0453 24.9897 2.8804 24.9908C2.1024 24.9903 1.4966 24.9118 0.885348 24.3901C0.299868 23.7927 0.205835 23.2119 0.207358 22.4105C0.207097 22.33 0.206785 22.2494 0.206428 22.1688C0.205599 21.948 0.2055 21.7271 0.205526 21.5063C0.205429 21.2679 0.204663 21.0294 0.203991 20.791C0.202653 20.27 0.202188 19.7489 0.201892 19.2279C0.201701 18.9023 0.201318 18.5768 0.200895 18.2513C0.199749 17.3495 0.198788 16.4477 0.198618 15.5459C0.198607 15.4882 0.198596 15.4305 0.198584 15.3711C0.198563 15.2542 0.198542 15.1373 0.19852 15.0203C0.19851 14.9623 0.198499 14.9042 0.198488 14.8444C0.198477 14.7863 0.198467 14.7282 0.198456 14.6684C0.198249 13.7269 0.196665 12.7855 0.194474 11.844C0.192242 10.8768 0.191108 9.90956 0.191091 8.94233C0.191056 8.39953 0.190561 7.85674 0.188864 7.31394C0.187426 6.85172 0.187002 6.38951 0.187883 5.92729C0.188302 5.69163 0.188256 5.456 0.186921 5.22035C0.185709 5.00423 0.185873 4.78815 0.18709 4.57203C0.187389 4.45763 0.186257 4.34324 0.185059 4.22886C0.191598 3.53739 0.402128 2.97286 0.883288 2.47148C1.33886 2.09455 1.88016 1.86307 2.47409 1.86228ZM27.2351 9.42857C27.1771 9.6026 27.1191 9.77662 27.0594 9.95592C26.7295 9.9953 26.4028 10.0217 26.0706 10.0292C25.9766 10.0314 25.9766 10.0314 25.8806 10.0337C25.6888 10.0119 25.6142 9.97223 25.4773 9.83873C25.3748 9.65196 25.3748 9.65196 25.3015 9.48717C25.1662 9.52584 25.0308 9.56451 24.8914 9.60435C24.9107 9.65511 24.9301 9.70587 24.95 9.75816C25.0108 9.96353 25.0395 10.0956 25.0086 10.3075C24.9139 10.4401 24.8284 10.545 24.7156 10.659C24.6661 10.711 24.6165 10.763 24.5655 10.8165C24.2437 11.1218 24.2437 11.1218 24.0198 11.1461C23.8268 11.1268 23.666 11.0795 23.4851 11.0106C23.4465 11.146 23.4078 11.2813 23.368 11.4208C23.4011 11.4363 23.4343 11.4519 23.4684 11.4679C23.5329 11.499 23.5329 11.499 23.5987 11.5306C23.6629 11.5612 23.6629 11.5612 23.7284 11.5924C23.8367 11.6551 23.8367 11.6551 23.8953 11.7723C23.9125 11.9856 23.9116 12.1993 23.9136 12.4132C23.9153 12.4727 23.917 12.5322 23.9188 12.5934C23.9192 12.6505 23.9197 12.7076 23.9202 12.7664C23.9211 12.8187 23.922 12.871 23.9228 12.925C23.8953 13.0614 23.8953 13.0614 23.7866 13.1634C23.6511 13.243 23.5157 13.301 23.368 13.3544C23.4032 13.4727 23.4425 13.59 23.4851 13.7059C23.5238 13.7253 23.5625 13.7446 23.6023 13.7645C23.6658 13.7355 23.6658 13.7355 23.7305 13.7059C23.9519 13.6272 24.0772 13.6502 24.3055 13.7059C24.4494 13.798 24.5638 13.9097 24.6826 14.0318C24.7143 14.0612 24.746 14.0905 24.7787 14.1208C24.9503 14.2928 25.0288 14.4087 25.0308 14.656C25.0132 14.8321 24.9929 14.9993 24.95 15.1708C25.1051 15.2563 25.1782 15.2879 25.3601 15.2879C25.3835 15.2382 25.3835 15.2382 25.4073 15.1875C25.428 15.1445 25.4487 15.1015 25.47 15.0572C25.4904 15.0144 25.5108 14.9716 25.5318 14.9275C25.5945 14.8192 25.5945 14.8192 25.7117 14.7606C25.9042 14.7451 26.0972 14.747 26.2903 14.746C26.3437 14.7447 26.3971 14.7435 26.4521 14.7423C26.5037 14.742 26.5553 14.7417 26.6085 14.7414C26.6556 14.7408 26.7027 14.7403 26.7513 14.7397C26.9177 14.766 26.995 14.8227 27.118 14.9364C27.2205 15.1232 27.2205 15.1232 27.2937 15.2879C27.4968 15.2299 27.4968 15.2299 27.7039 15.1708C27.6846 15.1321 27.6652 15.0934 27.6453 15.0536C27.5718 14.833 27.5425 14.6371 27.5867 14.409C27.6827 14.2475 27.8056 14.127 27.9419 13.9989C27.9748 13.9647 28.0077 13.9305 28.0416 13.8952C28.2226 13.7186 28.3079 13.6518 28.5663 13.6235C28.7489 13.6461 28.9296 13.6707 29.1101 13.7059C29.1488 13.5899 29.1875 13.4739 29.2273 13.3544C29.1776 13.331 29.1776 13.331 29.1268 13.3072C29.0839 13.2865 29.0409 13.2658 28.9966 13.2445C28.9538 13.2241 28.911 13.2037 28.8668 13.1827C28.7586 13.12 28.7586 13.12 28.7 13.0028C28.6758 12.8217 28.6672 12.6394 28.656 12.4571C28.652 12.407 28.648 12.3569 28.6439 12.3053C28.6267 12.0197 28.6196 11.8237 28.8172 11.5965C28.95 11.5132 29.0782 11.4742 29.2273 11.4208C29.1693 11.2854 29.1113 11.1501 29.0515 11.0106C28.9932 11.0264 28.9932 11.0264 28.9337 11.0424C28.8561 11.0611 28.8561 11.0611 28.7769 11.0802C28.7259 11.0931 28.6749 11.106 28.6224 11.1193C28.3542 11.1338 28.2142 10.9877 28.0179 10.819C27.9675 10.7699 27.917 10.7207 27.865 10.67C27.814 10.6213 27.7629 10.5726 27.7103 10.5224C27.5693 10.3441 27.5393 10.2396 27.5281 10.0145C27.583 9.78746 27.583 9.78746 27.6453 9.60435C27.5099 9.54635 27.3746 9.48834 27.2351 9.42857ZM19.2664 15.9911C19.2541 16.3828 19.2541 16.3828 19.2437 16.7746C19.222 17.3234 19.222 17.3234 19.032 17.5145C18.857 17.6025 18.6762 17.6632 18.49 17.7233C18.1371 17.8408 17.8287 17.9693 17.5086 18.159C17.3145 18.2066 17.3145 18.2066 17.0984 18.159C16.885 18.0009 16.6992 17.8203 16.5125 17.6317C16.4786 17.5986 16.4448 17.5655 16.4099 17.5314C16.3455 17.4681 16.2823 17.4036 16.2195 17.3387C16.0224 17.4241 15.8946 17.5327 15.7444 17.6853C15.7002 17.7298 15.656 17.7744 15.6105 17.8203C15.5649 17.8668 15.5194 17.9134 15.4724 17.9613C15.426 18.0083 15.3795 18.0552 15.3317 18.1037C15.2172 18.2195 15.103 18.3356 14.989 18.452C15.2029 18.7059 15.4204 18.9462 15.662 19.1741C15.762 19.2847 15.8199 19.365 15.868 19.5067C15.851 19.7954 15.7392 20.0285 15.6116 20.2831C15.4632 20.5868 15.3442 20.8769 15.2703 21.2087C15.2068 21.3636 15.1308 21.4111 14.989 21.4989C14.8441 21.5242 14.8441 21.5242 14.6842 21.5289C14.6324 21.5308 14.5807 21.5327 14.5273 21.5347C14.4296 21.5369 14.4296 21.5369 14.3299 21.5392C14.122 21.5452 13.9141 21.5513 13.7 21.5575C13.7 22.1182 13.7 22.679 13.7 23.2567C14.1136 23.2667 14.1136 23.2667 14.5273 23.2742C14.9463 23.2887 14.9463 23.2887 15.1367 23.4073C15.251 23.595 15.3257 23.7893 15.3955 23.9964C15.5122 24.3287 15.64 24.6346 15.8219 24.9378C15.8933 25.1476 15.8712 25.2703 15.8094 25.4833C15.6873 25.6462 15.5448 25.7812 15.3955 25.9191C15.3567 25.9563 15.3178 25.9936 15.2778 26.032C15.1823 26.1234 15.0861 26.2138 14.989 26.3036C15.2374 26.6004 15.4973 26.8778 15.7727 27.1495C15.8103 27.1868 15.8478 27.2241 15.8865 27.2625C15.9778 27.3531 16.0693 27.4437 16.1609 27.534C16.4322 27.3076 16.6774 27.0747 16.9117 26.8096C17.0959 26.6718 17.2203 26.6573 17.45 26.6551C17.6225 26.7099 17.7775 26.7902 17.937 26.8749C18.2612 27.0389 18.5627 27.1772 18.9217 27.2491C19.098 27.3299 19.1332 27.4131 19.2078 27.5926C19.2367 27.8037 19.243 28.0134 19.2481 28.2262C19.2541 28.4232 19.2602 28.6201 19.2664 28.8231C19.8271 28.8231 20.3879 28.8231 20.9656 28.8231C20.9779 28.3875 20.9779 28.3875 20.9883 27.9519C20.9912 27.8705 20.9912 27.8705 20.9942 27.7874C20.9965 27.7041 20.9965 27.7041 20.9989 27.6191C21.0286 27.4508 21.0645 27.4008 21.2 27.2997C21.3474 27.2384 21.4925 27.1832 21.6431 27.1312C21.9749 27.0135 22.2806 26.8853 22.5824 26.7011C22.7977 26.6309 22.9816 26.6397 23.1922 26.7137C23.3592 26.8336 23.4935 26.9759 23.6316 27.1275C23.6686 27.1664 23.7056 27.2053 23.7438 27.2453C23.8344 27.3407 23.9238 27.4369 24.0125 27.534C24.2991 27.2957 24.5676 27.0451 24.8291 26.7796C24.8636 26.7449 24.8981 26.7102 24.9336 26.6744C25.0173 26.59 25.1009 26.5054 25.1844 26.4208C25.0923 26.1954 24.9481 26.0573 24.7742 25.8898C24.3718 25.5008 24.3718 25.5008 24.3448 25.2349C24.3663 24.9886 24.4421 24.8087 24.5545 24.5934C24.722 24.258 24.8494 23.9297 24.9488 23.5668C25.0236 23.3986 25.0743 23.3815 25.243 23.3153C25.3825 23.2966 25.3825 23.2966 25.535 23.291C25.5844 23.2889 25.6338 23.2869 25.6846 23.2847C25.7467 23.2827 25.8088 23.2807 25.8728 23.2787C26.071 23.2714 26.2692 23.2642 26.4734 23.2567C26.4734 22.696 26.4734 22.1352 26.4734 21.5575C26.0598 21.5475 26.0598 21.5475 25.6461 21.54C25.2268 21.5255 25.2268 21.5255 25.0349 21.4053C24.9253 21.2236 24.8671 21.0469 24.8072 20.8434C24.7121 20.5316 24.6038 20.2579 24.4178 19.9885C24.3336 19.7845 24.3122 19.6022 24.364 19.3895C24.4793 19.2188 24.6216 19.0873 24.7742 18.9501C24.8133 18.913 24.8525 18.876 24.8928 18.8379C24.989 18.7472 25.0861 18.6577 25.1844 18.5692C25.099 18.3721 24.9903 18.2443 24.8378 18.094C24.7933 18.0499 24.7487 18.0057 24.7028 17.9601C24.633 17.8918 24.633 17.8918 24.5618 17.8221C24.5148 17.7757 24.4678 17.7292 24.4194 17.6814C24.3036 17.5669 24.1875 17.4527 24.0711 17.3387C23.8384 17.4455 23.6824 17.5989 23.5071 17.7818C23.15 18.1516 23.15 18.1516 22.918 18.1746C22.6843 18.1559 22.5107 18.0741 22.3059 17.9686C21.9694 17.8021 21.6378 17.6721 21.2757 17.5685C21.1414 17.5145 21.1414 17.5145 21.0242 17.3387C21.0055 17.1951 21.0055 17.1951 20.9999 17.0268C20.9968 16.9453 20.9968 16.9453 20.9936 16.8623C20.9916 16.7935 20.9896 16.7248 20.9876 16.6539C20.9803 16.4352 20.9731 16.2164 20.9656 15.9911C20.4049 15.9911 19.8441 15.9911 19.2664 15.9911Z" fill="#FD5523"/>
<path d="M21.7347 20.2942C21.8548 20.3943 21.9388 20.4866 22.0203 20.6201C22.0133 20.8194 21.9993 20.9676 21.8958 21.1401C21.7112 21.2509 21.5928 21.2682 21.3758 21.2647C21.2342 21.1884 21.1109 21.1018 20.9837 21.0035C20.5896 20.7401 20.1335 20.7452 19.6766 20.7959C19.4641 20.8705 19.2816 20.9709 19.0906 21.0889C19.0491 21.1066 19.0075 21.1242 18.9647 21.1424C18.827 21.2232 18.7994 21.2945 18.7391 21.4404C18.719 21.4791 18.699 21.5178 18.6784 21.5576C18.6585 21.5963 18.6387 21.635 18.6182 21.6748C18.5982 21.7135 18.5782 21.7522 18.5576 21.792C18.377 22.1922 18.4068 22.5954 18.545 23.0042C18.7294 23.4649 18.9968 23.7389 19.4422 23.96C19.8539 24.1304 20.2944 24.1068 20.7125 23.9655C21.2268 23.7341 21.5022 23.4059 21.709 22.887C21.7402 22.7985 21.7402 22.7985 21.772 22.7082C21.8525 22.5367 21.9136 22.4684 22.0789 22.3779C22.2815 22.385 22.4283 22.3961 22.5989 22.5098C22.718 22.6949 22.7336 22.8549 22.6902 23.0692C22.5554 23.4688 22.4005 23.8049 22.1375 24.1358C22.0955 24.1898 22.0955 24.1898 22.0526 24.2449C21.6137 24.7435 20.9055 25.0202 20.2572 25.0856C19.505 25.121 18.7952 24.8505 18.2367 24.353C17.9212 24.0249 17.7209 23.6838 17.5672 23.2568C17.5528 23.2172 17.5385 23.1775 17.5237 23.1367C17.336 22.5158 17.4219 21.7966 17.7054 21.2198C18.0938 20.5511 18.5983 20.0634 19.352 19.8385C20.2313 19.6745 20.9909 19.7911 21.7347 20.2942Z" fill="#FD5523"/>
<path d="M10.3311 9.87207C10.5449 9.89879 10.6305 9.91188 10.7706 10.0735C10.8386 10.3379 10.8249 10.4986 10.7257 10.751C10.7011 10.8148 10.6765 10.8785 10.6512 10.9442C10.6096 11.0482 10.6096 11.0482 10.5671 11.1543C10.5379 11.2289 10.5088 11.3035 10.4798 11.3782C10.3996 11.5835 10.3183 11.7884 10.2367 11.9932C10.1657 12.1719 10.0953 12.3508 10.0249 12.5297C9.81749 13.0563 9.6081 13.582 9.39789 14.1075C9.29837 14.3563 9.19927 14.6052 9.10027 14.8542C9.02281 15.0488 8.94508 15.2434 8.86727 15.4378C8.83057 15.5297 8.79396 15.6216 8.75746 15.7135C8.70679 15.8411 8.65573 15.9684 8.60458 16.0958C8.59 16.1327 8.57542 16.1697 8.56039 16.2078C8.29067 16.8751 8.29067 16.8751 8.07734 16.9921C7.84184 17.0126 7.75204 17.0064 7.54793 16.8704C7.40013 16.6487 7.40886 16.5483 7.43075 16.2844C7.47805 16.1143 7.54382 15.9539 7.61202 15.7912C7.63162 15.7427 7.65123 15.6943 7.67142 15.6444C7.73702 15.4827 7.8036 15.3214 7.8702 15.1602C7.94122 14.9862 8.01203 14.8121 8.08283 14.638C8.13378 14.5128 8.18482 14.3876 8.23594 14.2625C8.43141 13.7833 8.62272 13.3027 8.81242 12.8212C8.90759 12.5798 9.0031 12.3386 9.09857 12.0973C9.17701 11.899 9.25524 11.7006 9.33306 11.502C9.42079 11.2782 9.50949 11.0547 9.59826 10.8313C9.62446 10.764 9.65067 10.6967 9.67767 10.6273C9.70244 10.5653 9.72721 10.5034 9.75272 10.4396C9.78464 10.3586 9.78464 10.3586 9.81721 10.276C9.94618 10.0268 10.0488 9.90737 10.3311 9.87207Z" fill="#FD5523"/>
<path d="M5.37258 10.165C5.56825 10.1704 5.60391 10.1819 5.76076 10.3152C5.86909 10.5228 5.87927 10.6019 5.84865 10.8352C5.75239 11.0428 5.6325 11.2343 5.51174 11.4285C5.47782 11.4846 5.44389 11.5408 5.40894 11.5986C5.2344 11.887 5.05642 12.1733 4.87774 12.4591C4.84516 12.5119 4.81259 12.5646 4.77903 12.619C4.71685 12.7195 4.6539 12.8196 4.59009 12.9191C4.56205 12.9644 4.53401 13.0098 4.50512 13.0565C4.4802 13.0959 4.45529 13.1352 4.42962 13.1758C4.3674 13.3393 4.38989 13.4231 4.4424 13.5891C4.49817 13.7009 4.55849 13.8104 4.62185 13.918C4.65866 13.9811 4.69548 14.0441 4.73341 14.1091C4.77273 14.1756 4.81205 14.242 4.85256 14.3105C4.89268 14.3793 4.93274 14.448 4.97274 14.5168C5.1191 14.7683 5.26614 15.0194 5.41444 15.2698C5.49019 15.3977 5.56512 15.5261 5.63991 15.6545C5.66163 15.6904 5.68334 15.7262 5.70572 15.7631C5.83381 15.9845 5.88076 16.1466 5.84865 16.4016C5.73147 16.5737 5.73147 16.5737 5.55569 16.6946C5.26565 16.7222 5.26565 16.7222 5.08694 16.636C5.00288 16.5407 5.00288 16.5407 4.92489 16.4169C4.89483 16.3693 4.86477 16.3217 4.83381 16.2727C4.64365 15.9558 4.45947 15.6357 4.27761 15.314C4.23611 15.2407 4.19461 15.1675 4.1531 15.0942C4.09151 14.9855 4.02993 14.8768 3.96845 14.7681C3.85398 14.5659 3.73784 14.3648 3.61957 14.1647C3.59467 14.1222 3.56977 14.0796 3.54411 14.0357C3.50014 13.9606 3.45562 13.8858 3.41042 13.8115C3.28011 13.5866 3.24482 13.4367 3.27053 13.179C3.33876 13.0334 3.40742 12.9052 3.4914 12.7695C3.51439 12.731 3.53739 12.6925 3.56108 12.6529C3.63559 12.5287 3.71119 12.4052 3.78689 12.2817C3.83816 12.1969 3.88939 12.1121 3.94057 12.0272C5.04464 10.2021 5.04464 10.2021 5.37258 10.165Z" fill="#FD5523"/>
<path d="M13.1144 10.1905C13.4737 10.5441 13.7047 10.987 13.953 11.4209C14.0411 11.5738 14.1294 11.7265 14.2176 11.8792C14.2389 11.9162 14.2603 11.9531 14.2822 11.9913C14.3994 12.194 14.5192 12.3944 14.6443 12.5924C14.6692 12.6321 14.6942 12.6718 14.7199 12.7127C14.7823 12.811 14.8457 12.9086 14.9091 13.0062C15.0084 13.2195 15.0069 13.3548 14.9894 13.5889C14.9154 13.7656 14.9154 13.7656 14.8111 13.9425C14.7727 14.0087 14.7343 14.0749 14.6947 14.143C14.6526 14.2135 14.6104 14.2839 14.5683 14.3543C14.5255 14.427 14.4829 14.4997 14.4403 14.5725C14.3536 14.7202 14.2665 14.8676 14.179 15.0148C14.0603 15.2148 13.944 15.416 13.8283 15.6177C13.7613 15.7337 13.6942 15.8497 13.6271 15.9656C13.5811 16.046 13.5811 16.046 13.5341 16.128C13.5053 16.1772 13.4765 16.2264 13.4468 16.2771C13.4097 16.3411 13.4097 16.3411 13.3718 16.4063C13.2784 16.5349 13.1922 16.6128 13.0558 16.6944C12.8094 16.6814 12.6764 16.6563 12.4699 16.5186C12.377 16.2093 12.396 16.0406 12.5454 15.7546C12.6094 15.6448 12.6746 15.5357 12.7409 15.4273C12.7747 15.369 12.8085 15.3106 12.8434 15.2505C13.0221 14.9442 13.2091 14.6453 13.4058 14.3502C13.4423 14.2936 13.4787 14.2371 13.5163 14.1789C13.5863 14.071 13.6586 13.9645 13.7333 13.8598C13.8312 13.7076 13.897 13.5903 13.9347 13.4131C13.865 13.1668 13.728 12.9775 13.5832 12.7686C13.5104 12.6474 13.4383 12.5258 13.3669 12.4038C13.2914 12.2787 13.2158 12.1537 13.14 12.0288C12.994 11.7876 12.8485 11.5461 12.7043 11.3038C12.6738 11.2527 12.6433 11.2017 12.6119 11.1491C12.5852 11.1028 12.5584 11.0566 12.5308 11.009C12.5075 10.9692 12.4843 10.9294 12.4604 10.8884C12.3764 10.6968 12.4043 10.559 12.4699 10.3663C12.6502 10.1512 12.8472 10.1444 13.1144 10.1905Z" fill="#FD5523"/>
<path d="M27.3453 11.1133C27.7384 11.5295 27.9133 12.0004 27.8985 12.5713C27.8433 12.9846 27.6743 13.3221 27.3526 13.5889C27.3104 13.63 27.2681 13.6711 27.2245 13.7134C26.8829 13.9411 26.4719 14.0436 26.0636 13.999C25.6119 13.9064 25.1862 13.6793 24.9258 13.2884C24.6947 12.8354 24.6459 12.3693 24.7429 11.867C24.8989 11.3999 25.2148 11.1187 25.639 10.8904C26.2292 10.642 26.8169 10.7916 27.3453 11.1133ZM25.8292 11.8897C25.686 12.0615 25.6554 12.1644 25.6315 12.3877C25.6554 12.611 25.686 12.7139 25.8292 12.8858C26.0256 13.0196 26.1479 13.0604 26.3859 13.0689C26.6613 12.9803 26.8018 12.8442 26.9425 12.5928C26.9781 12.3635 26.9639 12.235 26.8766 12.0215C26.7391 11.8565 26.6145 11.7912 26.4151 11.7139C26.1554 11.7139 26.0477 11.7548 25.8292 11.8897Z" fill="#FD5523"/>
<path d="M9.07133 4.03788C9.33254 4.16612 9.47867 4.29996 9.59867 4.56523C9.67978 4.85224 9.65759 5.05276 9.54008 5.32695C9.36384 5.54407 9.17393 5.6904 8.89555 5.74077C8.58485 5.75762 8.34717 5.64229 8.11185 5.44413C7.93006 5.22039 7.93835 4.98834 7.94157 4.71217C7.9726 4.43544 8.11512 4.28188 8.31693 4.1038C8.56997 4.00479 8.80336 3.99924 9.07133 4.03788Z" fill="#FD5523"/>
<path d="M6.55164 4.03788C6.81285 4.16612 6.95898 4.29996 7.07898 4.56523C7.1601 4.85224 7.1379 5.05276 7.02039 5.32695C6.84416 5.54407 6.65424 5.6904 6.37586 5.74077C6.04013 5.75765 5.81107 5.62919 5.55921 5.41484C5.39735 5.20046 5.40089 4.97971 5.41364 4.71904C5.45871 4.43862 5.59 4.28667 5.79725 4.1038C6.05028 4.00479 6.28367 3.99924 6.55164 4.03788Z" fill="#FD5523"/>
<path d="M4.03234 4.03788C4.29062 4.16468 4.45605 4.29464 4.55968 4.56523C4.6012 4.83573 4.62153 5.09009 4.49308 5.33862C4.31486 5.56174 4.14432 5.69106 3.85656 5.7371C3.49254 5.7371 3.32196 5.65924 3.05661 5.41324C2.87127 5.2107 2.89983 4.98911 2.90258 4.72728C2.93184 4.43948 3.06813 4.28893 3.27794 4.1038C3.53098 4.00479 3.76437 3.99924 4.03234 4.03788Z" fill="#FD5523"/>
</g>
<defs>
<clipPath id="clip0_288_198">
<rect width="30" height="30" fill="white" transform="translate(0.223633 0.81543)"/>
</clipPath>
</defs>
</svg>
