<svg width="40" height="40" viewBox="0 0 40 40" fill="none" xmlns="http://www.w3.org/2000/svg">
<path d="M38.3967 10.6875L20.2717 1.93752C20.187 1.89661 20.0941 1.87537 20 1.87537C19.9059 1.87537 19.813 1.89661 19.7283 1.93752L1.60328 10.6875C1.49748 10.7386 1.40822 10.8185 1.34573 10.918C1.28324 11.0174 1.25006 11.1325 1.25 11.25V13.75C1.25 13.9158 1.31585 14.0748 1.43306 14.192C1.55027 14.3092 1.70924 14.375 1.875 14.375H3.125V34.375H2.5C2.33424 34.375 2.17527 34.4409 2.05806 34.5581C1.94085 34.6753 1.875 34.8343 1.875 35V37.5C1.875 37.6658 1.94085 37.8248 2.05806 37.942C2.17527 38.0592 2.33424 38.125 2.5 38.125H37.5C37.6658 38.125 37.8247 38.0592 37.9419 37.942C38.0592 37.8248 38.125 37.6658 38.125 37.5V35C38.125 34.8343 38.0592 34.6753 37.9419 34.5581C37.8247 34.4409 37.6658 34.375 37.5 34.375H36.875V14.375H38.125C38.2908 14.375 38.4497 14.3092 38.5669 14.192C38.6842 14.0748 38.75 13.9158 38.75 13.75V11.25C38.7499 11.1325 38.7168 11.0174 38.6543 10.918C38.5918 10.8185 38.5025 10.7386 38.3967 10.6875ZM4.375 14.375H7.5V21.25C7.5 21.4158 7.56585 21.5748 7.68306 21.692C7.80027 21.8092 7.95924 21.875 8.125 21.875V34.375H4.375V14.375ZM33.125 26.9825C32.7207 26.8392 32.2793 26.8392 31.875 26.9825V21.875C32.0408 21.875 32.1997 21.8092 32.3169 21.692C32.4342 21.5748 32.5 21.4158 32.5 21.25V16.875C32.6657 16.8752 32.8246 16.9411 32.9417 17.0583C33.0589 17.1755 33.1248 17.3343 33.125 17.5V26.9825ZM18.125 34.375V30.625H19.375V31.875C19.375 32.0408 19.4408 32.1998 19.5581 32.317C19.6753 32.4342 19.8342 32.5 20 32.5C20.1658 32.5 20.3247 32.4342 20.4419 32.317C20.5592 32.1998 20.625 32.0408 20.625 31.875V30.625H21.875V34.375H18.125ZM13.125 34.375V30.625H14.375V31.875C14.375 32.0408 14.4408 32.1998 14.5581 32.317C14.6753 32.4342 14.8342 32.5 15 32.5C15.1658 32.5 15.3247 32.4342 15.4419 32.317C15.5592 32.1998 15.625 32.0408 15.625 31.875V30.625H16.875V34.375H13.125ZM9.375 34.375V21.875H16.875V24.375H15C14.8342 24.375 14.6753 24.4409 14.5581 24.5581C14.4408 24.6753 14.375 24.8343 14.375 25V29.375H12.5C12.3342 29.375 12.1753 29.4409 12.0581 29.5581C11.9408 29.6753 11.875 29.8343 11.875 30V34.375H9.375ZM31.25 20.625H8.75V19.375H31.25V20.625ZM24.375 29.375H20.625V25.625H21.875V26.875C21.875 27.0408 21.9408 27.1998 22.0581 27.317C22.1753 27.4342 22.3342 27.5 22.5 27.5C22.6658 27.5 22.8247 27.4342 22.9419 27.317C23.0592 27.1998 23.125 27.0408 23.125 26.875V25.625H24.375V29.375ZM15.625 29.375V25.625H16.875V26.875C16.875 27.0408 16.9408 27.1998 17.0581 27.317C17.1753 27.4342 17.3342 27.5 17.5 27.5C17.6658 27.5 17.8247 27.4342 17.9419 27.317C18.0592 27.1998 18.125 27.0408 18.125 26.875V25.625H19.375V29.375H15.625ZM21.875 24.375H18.125V21.875H19.375C19.375 22.0408 19.4408 22.1998 19.5581 22.317C19.6753 22.4342 19.8342 22.5 20 22.5C20.1658 22.5 20.3247 22.4342 20.4419 22.317C20.5592 22.1998 20.625 22.0408 20.625 21.875H21.875V24.375ZM31.25 18.125H8.75V16.875H31.25V18.125ZM23.125 30.625H24.375V31.875C24.375 32.0408 24.4408 32.1998 24.5581 32.317C24.6753 32.4342 24.8342 32.5 25 32.5C25.1658 32.5 25.3247 32.4342 25.4419 32.317C25.5592 32.1998 25.625 32.0408 25.625 31.875V30.625H26.875V34.375H23.125V30.625ZM27.5 29.375H25.625V25C25.625 24.8343 25.5592 24.6753 25.4419 24.5581C25.3247 24.4409 25.1658 24.375 25 24.375H23.125V21.875H30.625V34.375H28.125V30C28.125 29.8343 28.0592 29.6753 27.9419 29.5581C27.8247 29.4409 27.6658 29.375 27.5 29.375ZM33.125 28.75C33.125 28.8736 33.0883 28.9945 33.0197 29.0973C32.951 29.2 32.8534 29.2801 32.7392 29.3274C32.625 29.3747 32.4993 29.3871 32.3781 29.363C32.2568 29.3389 32.1455 29.2794 32.0581 29.192C31.9706 29.1046 31.9111 28.9932 31.887 28.872C31.8629 28.7507 31.8753 28.625 31.9226 28.5108C31.9699 28.3966 32.05 28.299 32.1528 28.2304C32.2556 28.1617 32.3764 28.125 32.5 28.125C32.6657 28.1252 32.8246 28.1911 32.9417 28.3083C33.0589 28.4255 33.1248 28.5843 33.125 28.75ZM31.25 15.625H8.75V14.375H31.25V15.625ZM36.875 36.875H3.125V35.625H36.875V36.875ZM35.625 34.375H31.875V30.5175C32.1578 30.6177 32.4605 30.6484 32.7576 30.6073C33.0548 30.5662 33.3377 30.4543 33.5827 30.2811C33.8276 30.108 34.0275 29.8785 34.1653 29.6121C34.3032 29.3456 34.3751 29.05 34.375 28.75V17.5C34.3744 17.0029 34.1767 16.5263 33.8252 16.1748C33.4737 15.8233 32.9971 15.6256 32.5 15.625V14.375H35.625V34.375ZM37.5 13.125H2.5V11.6423L20 3.19408L37.5 11.6423V13.125Z" fill="#FD5523"/>
<path d="M16.875 6.25V11.25C16.875 11.4158 16.9408 11.5747 17.0581 11.6919C17.1753 11.8092 17.3342 11.875 17.5 11.875H22.5C22.6658 11.875 22.8247 11.8092 22.9419 11.6919C23.0592 11.5747 23.125 11.4158 23.125 11.25V6.25C23.125 6.08424 23.0592 5.92527 22.9419 5.80806C22.8247 5.69085 22.6658 5.625 22.5 5.625H17.5C17.3342 5.625 17.1753 5.69085 17.0581 5.80806C16.9408 5.92527 16.875 6.08424 16.875 6.25ZM21.875 9.74109L20.8839 8.75L21.875 7.75891V9.74109ZM20.9911 10.625H19.0089L20 9.63391L20.9911 10.625ZM20 7.86609L19.0089 6.875H20.9911L20 7.86609ZM19.1161 8.75L18.125 9.74109V7.75891L19.1161 8.75Z" fill="#FD5523"/>
</svg>
