<svg width="30" height="30" viewBox="0 0 30 30" fill="none" xmlns="http://www.w3.org/2000/svg">
<g clip-path="url(#clip0_295_785)">
<path d="M7.17429 8.20311C7.21772 8.20553 7.26115 8.20794 7.3059 8.21043C7.51635 8.28993 7.62451 8.42372 7.7346 8.61326C7.82492 8.87836 7.8835 9.14989 7.94265 9.42328C7.96054 9.50251 7.97852 9.58172 7.99657 9.66091C8.04362 9.86842 8.08941 10.0762 8.13498 10.284C8.17245 10.4539 8.21081 10.6235 8.24922 10.7932C8.29504 10.9957 8.34046 11.1982 8.38577 11.4008C8.39441 11.4394 8.40304 11.478 8.41195 11.5177C8.43627 11.6268 8.46027 11.7359 8.48426 11.845C8.50479 11.9381 8.50479 11.9381 8.52574 12.033C8.55491 12.1875 8.55491 12.1875 8.55491 12.3633C8.60411 12.3628 8.65331 12.3623 8.704 12.3619C9.90113 12.3506 11.0983 12.3404 12.2954 12.3312C12.8743 12.3268 13.4533 12.322 14.0322 12.3164C14.5368 12.3116 15.0414 12.3074 15.546 12.3039C15.8132 12.302 16.0803 12.2999 16.3475 12.2969C16.599 12.2942 16.8505 12.2923 17.1021 12.291C17.1943 12.2904 17.2866 12.2895 17.3788 12.2882C17.505 12.2866 17.6311 12.286 17.7572 12.2858C17.863 12.2849 17.863 12.2849 17.971 12.284C18.2778 12.3168 18.5067 12.4376 18.7026 12.6745C18.737 12.7159 18.7713 12.7572 18.8068 12.7997C19.035 13.0858 19.2617 13.3728 19.4865 13.6616C19.6203 13.8334 19.7547 14.0047 19.8891 14.176C19.9153 14.2094 19.9415 14.2427 19.9684 14.2771C20.1118 14.4597 20.2562 14.6414 20.4016 14.8224C20.4484 14.8806 20.4484 14.8806 20.4961 14.94C20.5557 15.0141 20.6154 15.088 20.6752 15.1619C20.7571 15.2635 20.8379 15.3658 20.9182 15.4687C20.946 15.5043 20.9738 15.5399 21.0024 15.5766C21.184 15.8181 21.266 15.968 21.2406 16.2664C21.1499 16.6975 20.6895 17.0666 20.3945 17.373C20.1261 17.6534 19.8625 17.9358 19.6083 18.2292C19.4643 18.3945 19.3162 18.5558 19.1677 18.717C19.1393 18.748 19.1109 18.7789 19.0816 18.8108C18.8774 19.0329 18.8774 19.0329 18.8088 19.1015C18.8028 19.2324 18.8009 19.3634 18.8005 19.4943C18.8003 19.5354 18.8001 19.5765 18.7999 19.6188C18.7995 19.7083 18.7991 19.7978 18.7989 19.8874C18.7985 20.0292 18.7976 20.1711 18.7965 20.313C18.7934 20.7166 18.7906 21.1201 18.7897 21.5237C18.7891 21.7703 18.7874 22.017 18.785 22.2636C18.7842 22.3574 18.7839 22.4513 18.7841 22.5452C18.7842 22.677 18.7829 22.8088 18.7813 22.9406C18.7809 23.0155 18.7806 23.0904 18.7802 23.1676C18.7352 23.4849 18.5882 23.7437 18.3536 23.9664C18.3247 23.9944 18.2958 24.0224 18.2661 24.0513C18.2361 24.0795 18.2062 24.1078 18.1753 24.1369C18.1121 24.1982 18.0491 24.2595 17.9862 24.321C17.9561 24.3503 17.9261 24.3797 17.8951 24.4099C17.7559 24.5489 17.63 24.6984 17.5026 24.8481C17.3444 25.0265 17.1728 25.1911 17.0032 25.3585C16.8881 25.4752 16.7803 25.5945 16.6738 25.719C16.4683 25.9588 16.2449 26.178 16.0203 26.3999C15.8634 26.5589 15.7182 26.725 15.5731 26.8947C15.4132 27.0743 15.2407 27.2405 15.0696 27.4093C14.9545 27.526 14.8467 27.6453 14.7402 27.7698C14.5347 28.0096 14.3113 28.2288 14.0868 28.4507C13.93 28.6095 13.785 28.7755 13.64 28.9448C13.4398 29.17 13.2226 29.3785 13.008 29.5898C12.9506 29.6484 12.8932 29.7069 12.8359 29.7656C12.6251 29.9701 12.4452 29.9501 12.1657 29.95C12.1207 29.9502 12.0756 29.9504 12.0291 29.9507C11.8773 29.9513 11.7254 29.9515 11.5736 29.9518C11.465 29.9521 11.3565 29.9525 11.2479 29.9529C10.9524 29.9539 10.6569 29.9546 10.3614 29.955C10.1768 29.9554 9.99228 29.9557 9.80773 29.9561C9.23058 29.9572 8.65343 29.958 8.07627 29.9585C7.40959 29.9591 6.74292 29.9606 6.07625 29.963C5.56126 29.9648 5.04629 29.9656 4.5313 29.9658C4.22358 29.966 3.91587 29.9665 3.60815 29.968C3.31862 29.9693 3.02912 29.9696 2.73959 29.969C2.63335 29.9689 2.5271 29.9693 2.42086 29.9701C2.27574 29.9712 2.13069 29.9707 1.98557 29.97C1.92259 29.9709 1.92259 29.9709 1.85834 29.9719C1.56472 29.9682 1.39343 29.8989 1.1721 29.707C1.03905 29.4803 1.04171 29.2755 1.04529 29.0163C1.04566 28.977 1.04602 28.9377 1.0464 28.8972C1.04773 28.7657 1.04989 28.6342 1.05203 28.5027C1.05312 28.4081 1.05414 28.3135 1.0551 28.2189C1.05721 28.0146 1.05959 27.8102 1.06211 27.6059C1.06595 27.2781 1.0679 26.9504 1.06939 26.6227C1.06964 26.5669 1.0699 26.5112 1.07016 26.4538C1.07093 26.2818 1.07168 26.1099 1.07242 25.9379C1.07547 25.2337 1.07971 24.5297 1.09006 23.8256C1.0998 23.1444 1.10446 22.4633 1.10229 21.782C1.10204 21.6983 1.10204 21.6983 1.10179 21.613C1.09235 19.5512 0.773045 17.655 0.143287 15.693C0.0379092 15.3573 -0.0381663 15.1091 0.058815 14.7656C0.139453 14.6369 0.139453 14.6369 0.241234 14.5303C0.296933 14.4713 0.296933 14.4713 0.353758 14.4112C0.529109 14.2372 0.707456 14.0677 0.890114 13.9014C1.32806 13.4973 1.74984 13.0787 2.168 12.6542C2.37501 12.4451 2.58162 12.2396 2.8054 12.0483C3.12813 11.7713 3.42243 11.4646 3.72092 11.1621C4.05211 10.8264 4.3819 10.4944 4.74071 10.1879C5.01833 9.93973 5.2759 9.66926 5.53733 9.40428C6.75668 8.16837 6.75668 8.16837 7.17429 8.20311ZM6.56236 10.2485C6.48629 10.3256 6.48629 10.3256 6.40868 10.4043C6.36756 10.4457 6.36756 10.4457 6.3256 10.488C6.20809 10.6065 6.09092 10.7253 5.97374 10.8441C5.41404 11.4108 5.41404 11.4108 5.1567 11.6306C4.83593 11.9047 4.54437 12.2096 4.24827 12.5097C3.60155 13.1653 3.60155 13.1653 3.34052 13.3882C3.01704 13.6645 2.72314 13.9723 2.42454 14.2749C2.30676 14.3942 2.18879 14.5134 2.07069 14.6324C1.99323 14.7109 1.99323 14.7109 1.91422 14.7909C1.75092 14.9482 1.58224 15.0913 1.40647 15.2344C1.49671 15.8143 1.6463 16.3775 1.79465 16.9446C1.81955 17.0404 1.84442 17.1363 1.86927 17.2322C1.9296 17.4647 1.99022 17.6972 2.051 17.9297C2.22888 17.8502 2.35083 17.7612 2.48742 17.6228C2.52578 17.5843 2.56413 17.5457 2.60365 17.506C2.66499 17.4435 2.66499 17.4435 2.72758 17.3797C2.77035 17.3366 2.81313 17.2935 2.8572 17.2491C2.99402 17.1113 3.13045 16.973 3.26682 16.8347C3.40241 16.6975 3.53808 16.5604 3.67394 16.4234C3.75837 16.3383 3.84264 16.253 3.92673 16.1675C4.1144 15.978 4.30391 15.7947 4.5062 15.6208C4.78861 15.3773 5.04917 15.1135 5.31142 14.8487C5.36367 14.7962 5.41591 14.7438 5.46973 14.6897C5.63523 14.5235 5.80054 14.3571 5.9658 14.1907C6.18451 13.9704 6.40343 13.7503 6.62246 13.5303C6.67263 13.4797 6.7228 13.429 6.77449 13.3768C6.82106 13.3301 6.86763 13.2833 6.91561 13.2351C6.95649 13.1939 6.99736 13.1528 7.03947 13.1103C7.14866 13.0078 7.14866 13.0078 7.32444 12.8906C7.2362 12.2923 7.10245 11.7067 6.96555 11.1181C6.94349 11.0226 6.92144 10.927 6.89941 10.8314C6.84599 10.5998 6.79232 10.3682 6.7385 10.1367C6.65995 10.13 6.65995 10.13 6.56236 10.2485ZM7.52753 14.4225C7.41 14.5713 7.27588 14.6988 7.13825 14.8289C7.05185 14.9157 6.96559 15.0026 6.87949 15.0897C6.83251 15.1369 6.78553 15.1841 6.73712 15.2327C6.59095 15.3796 6.44497 15.5267 6.29905 15.6738C6.10452 15.8699 5.90979 16.0658 5.71494 16.2616C5.6716 16.3054 5.62826 16.3492 5.5836 16.3944C5.34823 16.6309 5.10706 16.8556 4.85431 17.0734C4.69833 17.21 4.55245 17.3542 4.40574 17.5007C4.37649 17.5299 4.34724 17.5591 4.3171 17.5892C4.25639 17.6499 4.19574 17.7106 4.13517 17.7715C4.04194 17.865 3.9484 17.9582 3.85482 18.0514C3.79552 18.1108 3.73624 18.1701 3.67698 18.2295C3.59677 18.3098 3.59677 18.3098 3.51493 18.3918C3.39197 18.4944 3.39197 18.4944 3.39866 18.5742C4.5248 18.592 5.65091 18.6054 6.77716 18.6137C7.30017 18.6176 7.82308 18.6229 8.34603 18.6317C8.80208 18.6393 9.25807 18.6442 9.71419 18.6459C9.95552 18.6469 10.1967 18.6492 10.4379 18.6547C11.4685 18.73 11.4685 18.73 12.3982 18.41C12.5842 18.2314 12.7048 18.0354 12.8323 17.8125C12.919 17.7115 13.0077 17.6122 13.0996 17.5159C13.1414 17.4692 13.1831 17.4226 13.2262 17.3746C13.3771 17.2072 13.5293 17.041 13.6819 16.875C13.9215 16.6142 14.159 16.3517 14.3955 16.0881C14.5497 15.9173 14.7053 15.7479 14.8611 15.5786C15.0681 15.3535 15.2718 15.1259 15.4717 14.8945C15.5662 14.7881 15.662 14.6838 15.7592 14.58C15.7904 14.5466 15.8215 14.5133 15.8536 14.4789C15.9154 14.413 15.9774 14.3473 16.0396 14.2818C16.0684 14.2509 16.0973 14.2201 16.127 14.1884C16.1526 14.1613 16.1782 14.1342 16.2046 14.1063C16.3231 13.963 16.4212 13.8074 16.5237 13.6523C15.478 13.6317 14.4323 13.6163 13.3865 13.6068C12.9008 13.6023 12.4152 13.5961 11.9296 13.586C11.5059 13.5772 11.0823 13.5716 10.6585 13.5696C10.4344 13.5685 10.2106 13.5659 9.98658 13.5594C8.94839 13.5307 8.20338 13.5508 7.52753 14.4225ZM17.9885 14.0039C17.9579 14.038 17.9273 14.0722 17.8958 14.1073C17.645 14.3867 17.3929 14.6649 17.1389 14.9414C16.9424 15.1552 16.7469 15.3698 16.553 15.5859C16.359 15.802 16.1635 16.0166 15.967 16.2305C15.6817 16.5411 15.399 16.854 15.1174 17.168C14.8358 17.482 14.5531 17.7948 14.2678 18.1055C14.2136 18.1647 14.1593 18.2239 14.1051 18.2831C14.0008 18.3969 13.8963 18.5103 13.7915 18.6236C13.7444 18.675 13.6974 18.7264 13.6489 18.7793C13.6071 18.8246 13.5654 18.8699 13.5223 18.9166C13.4026 19.0522 13.4026 19.0522 13.301 19.2773C13.9004 19.8767 14.4998 20.4762 15.1174 21.0937C15.3531 20.9759 15.4859 20.8467 15.6557 20.6543C15.6841 20.6228 15.7124 20.5913 15.7416 20.5588C15.8268 20.464 15.9116 20.3687 15.9963 20.2734C16.0842 20.1757 16.172 20.0781 16.26 19.9805C16.3021 19.9335 16.3443 19.8865 16.3877 19.8381C16.5419 19.6673 16.6975 19.4979 16.8533 19.3286C17.0277 19.1389 17.201 18.9485 17.3696 18.7536C17.5795 18.5116 17.7974 18.2772 18.0151 18.0422C18.2371 17.8025 18.4563 17.5606 18.6742 17.3172C18.7744 17.2061 18.875 17.0957 18.9764 16.9858C19.0051 16.9546 19.0338 16.9234 19.0634 16.8912C19.1449 16.803 19.2264 16.7148 19.308 16.6266C19.4406 16.479 19.5656 16.3282 19.6877 16.1719C19.5886 15.9422 19.4365 15.7574 19.2812 15.5639C19.2232 15.4909 19.1651 15.4179 19.107 15.3449C19.0772 15.3075 19.0474 15.27 19.0166 15.2315C18.9272 15.1186 18.8386 15.0051 18.7505 14.8913C18.7222 14.8548 18.6939 14.8184 18.6647 14.7809C18.6109 14.7116 18.5572 14.6422 18.5037 14.5727C18.3437 14.3674 18.1756 14.1839 17.9885 14.0039ZM2.40257 19.9219C2.40257 22.8029 2.40257 25.684 2.40257 28.6523C5.47698 28.6523 8.55139 28.6523 11.719 28.6523C11.719 25.7713 11.719 22.8902 11.719 19.9219C8.64456 19.9219 5.57014 19.9219 2.40257 19.9219ZM17.2631 20.7622C17.2292 20.7985 17.1953 20.8348 17.1604 20.8722C17.104 20.9324 17.104 20.9324 17.0464 20.9939C17.0068 21.0365 16.9673 21.0791 16.9265 21.123C16.8883 21.1638 16.8501 21.2046 16.8107 21.2466C16.5529 21.5228 16.3022 21.8043 16.0549 22.0898C15.9708 22.1864 15.8866 22.2829 15.8022 22.3791C15.7638 22.4232 15.7253 22.4672 15.6857 22.5126C15.5343 22.6716 15.4157 22.693 15.2016 22.7087C14.864 22.7053 14.7092 22.5711 14.4763 22.3391C14.34 22.1899 14.2069 22.0388 14.0765 21.8845C13.8864 21.6722 13.6854 21.4712 13.4841 21.2695C13.4244 21.2094 13.4244 21.2094 13.3635 21.1481C13.3261 21.1108 13.2887 21.0735 13.2502 21.0351C13.2163 21.0013 13.1824 20.9675 13.1475 20.9326C13.0776 20.8528 13.0776 20.8528 13.008 20.8594C13.008 23.083 13.008 25.3066 13.008 27.5976C13.4368 27.2301 13.8217 26.857 14.1888 26.4297C14.3082 26.2962 14.4333 26.1706 14.5608 26.0449C14.7228 25.885 14.8779 25.7235 15.0259 25.5505C15.2314 25.3107 15.4547 25.0915 15.6793 24.8696C15.8363 24.7106 15.9814 24.5445 16.1266 24.3748C16.286 24.1957 16.4581 24.0299 16.6287 23.8616C16.7848 23.7033 16.9303 23.538 17.0741 23.3686C17.1682 23.2617 17.1682 23.2617 17.2898 23.1713C17.4594 22.9548 17.4319 22.7591 17.4255 22.4917C17.425 22.4142 17.425 22.4142 17.4244 22.3351C17.4231 22.1703 17.4202 22.0056 17.4172 21.8408C17.416 21.729 17.415 21.6171 17.414 21.5053C17.4114 21.2313 17.4074 20.9575 17.4026 20.6836C17.3322 20.6768 17.3322 20.6768 17.2631 20.7622Z" fill="white"/>
<path d="M18.9842 0.058574C19.1302 0.123576 19.1302 0.123576 19.2698 0.219707C19.3253 0.257397 19.3808 0.295087 19.438 0.333919C19.5324 0.400651 19.5324 0.400651 19.6287 0.46873C19.7026 0.520399 19.7765 0.572049 19.8505 0.623683C20.0182 0.741315 20.1855 0.859671 20.3524 0.97845C20.6339 1.17862 20.9167 1.3768 21.1997 1.57469C21.2726 1.62569 21.2726 1.62569 21.347 1.67773C21.6008 1.85533 21.8548 2.03276 22.1089 2.21006C22.1602 2.24595 22.2116 2.28184 22.2645 2.31881C22.3613 2.38636 22.458 2.45387 22.5548 2.52131C22.9109 2.77011 23.2625 3.02482 23.6131 3.28123C23.6139 3.20412 23.6139 3.20412 23.6147 3.12545C23.6173 2.93344 23.6209 2.7415 23.6252 2.54952C23.6269 2.46668 23.6281 2.38382 23.629 2.30096C23.6302 2.18135 23.633 2.06185 23.636 1.94227C23.6372 1.87047 23.6384 1.79867 23.6397 1.72469C23.6778 1.48495 23.7522 1.35814 23.906 1.17186C24.1112 1.03411 24.296 1.03949 24.5389 1.03857C24.5785 1.03828 24.618 1.03798 24.6588 1.03767C24.7893 1.03685 24.9197 1.03691 25.0502 1.03704C25.1411 1.03682 25.2321 1.03656 25.323 1.03628C25.5135 1.03585 25.7039 1.03586 25.8944 1.03617C26.1382 1.03651 26.3819 1.03552 26.6257 1.03416C26.8135 1.03329 27.0012 1.03324 27.189 1.03343C27.2788 1.0334 27.3687 1.03309 27.4586 1.0325C27.5844 1.03178 27.7101 1.03217 27.8359 1.03285C27.9432 1.0328 27.9432 1.0328 28.0526 1.03274C28.3114 1.0627 28.451 1.15389 28.6404 1.32667C28.7477 1.5374 28.7291 1.74552 28.7221 1.97605C28.7213 2.02762 28.7205 2.0792 28.7196 2.13234C28.7179 2.24431 28.7157 2.35627 28.7133 2.46823C28.7086 2.70689 28.7071 2.94553 28.7054 3.18423C28.7023 3.62842 28.6979 4.07249 28.6876 4.51658C28.6806 4.82577 28.6779 5.13474 28.678 5.44401C28.6772 5.56141 28.6749 5.67881 28.6709 5.79614C28.6315 6.41339 28.6315 6.41339 28.8553 6.96589C29.0632 7.16055 29.2952 7.29908 29.5434 7.43595C29.7666 7.57228 29.9174 7.72143 29.9998 7.96873C30.0057 8.12466 30.0082 8.27907 30.008 8.43501C30.0083 8.50707 30.0083 8.50707 30.0085 8.58058C30.0091 8.74211 30.0091 8.90363 30.0092 9.06516C30.0095 9.18074 30.0098 9.29632 30.0101 9.41191C30.0109 9.7263 30.0113 10.0407 30.0115 10.3551C30.0117 10.5514 30.0119 10.7477 30.0122 10.944C30.013 11.5579 30.0136 12.1719 30.0138 12.7858C30.0141 13.495 30.0151 14.2043 30.0168 14.9135C30.018 15.4614 30.0186 16.0093 30.0187 16.5572C30.0188 16.8846 30.0191 17.212 30.0202 17.5394C30.0211 17.8472 30.0213 18.1551 30.0207 18.463C30.0207 18.5761 30.021 18.6892 30.0215 18.8022C30.0223 18.9565 30.0219 19.1107 30.0213 19.2649C30.0218 19.3098 30.0223 19.3546 30.0228 19.4008C30.0198 19.7217 29.9395 19.8984 29.7398 20.1416C29.5398 20.3016 29.2983 20.281 29.0521 20.2816C28.9779 20.282 28.9036 20.2823 28.8271 20.2827C28.745 20.2827 28.6628 20.2828 28.5806 20.2829C28.494 20.2831 28.4074 20.2834 28.3207 20.2837C28.0855 20.2845 27.8503 20.2849 27.6151 20.2851C27.4681 20.2853 27.3211 20.2856 27.1741 20.2858C26.7141 20.2866 26.2541 20.2872 25.794 20.2874C25.2632 20.2877 24.7324 20.2887 24.2015 20.2904C23.791 20.2917 23.3805 20.2923 22.9701 20.2923C22.725 20.2924 22.4799 20.2927 22.2348 20.2938C22.0042 20.2948 21.7736 20.2949 21.5431 20.2944C21.4586 20.2943 21.3741 20.2946 21.2895 20.2952C21.174 20.2959 21.0584 20.2955 20.9428 20.295C20.8459 20.2951 20.8459 20.2951 20.747 20.2952C20.4923 20.2645 20.2982 20.17 20.1048 20.0024C20.0007 19.7828 20.0006 19.5741 20.0389 19.3359C20.1776 19.0944 20.3067 19.0115 20.5662 18.9258C20.7124 18.9125 20.7124 18.9125 20.864 18.9143C20.9185 18.9147 20.9731 18.9151 21.0293 18.9155C21.0856 18.9164 21.1418 18.9174 21.1997 18.9184C21.2571 18.919 21.3145 18.9195 21.3736 18.92C21.5146 18.9214 21.6556 18.9233 21.7967 18.9258C21.7961 18.8486 21.7956 18.7714 21.7951 18.6919C21.7903 17.9651 21.7868 17.2383 21.7845 16.5115C21.7833 16.1378 21.7816 15.7642 21.779 15.3905C21.7764 15.03 21.775 14.6695 21.7744 14.3089C21.774 14.1713 21.7732 14.0337 21.7719 13.896C21.7702 13.7034 21.77 13.5109 21.7701 13.3182C21.7692 13.2612 21.7684 13.2042 21.7675 13.1454C21.7691 12.8925 21.7728 12.7534 21.9082 12.5343C22.1225 12.3381 22.268 12.3551 22.5549 12.3529C22.5967 12.3525 22.6386 12.3521 22.6817 12.3517C22.8204 12.3506 22.9591 12.3499 23.0979 12.3493C23.1452 12.3491 23.1926 12.3488 23.2414 12.3486C23.4921 12.3474 23.7428 12.3465 23.9935 12.346C24.2524 12.3453 24.5113 12.3433 24.7702 12.341C24.9693 12.3394 25.1684 12.339 25.3675 12.3387C25.4629 12.3385 25.5584 12.3378 25.6538 12.3367C25.7875 12.3353 25.9211 12.3353 26.0547 12.3357C26.1308 12.3354 26.2068 12.335 26.2851 12.3347C26.5172 12.368 26.6127 12.4339 26.7771 12.5976C26.8454 12.7342 26.843 12.8127 26.8428 12.9647C26.8429 13.0433 26.8429 13.0433 26.843 13.1236C26.8428 13.1812 26.8426 13.2389 26.8424 13.2983C26.8424 13.3589 26.8424 13.4195 26.8424 13.4819C26.8424 13.6829 26.8419 13.8839 26.8415 14.0849C26.8413 14.224 26.8413 14.3631 26.8412 14.5022C26.841 14.8688 26.8404 15.2354 26.8398 15.602C26.8392 15.9759 26.8389 16.3498 26.8386 16.7237C26.838 17.4577 26.8369 18.1917 26.8357 18.9258C27.4351 18.9258 28.0346 18.9258 28.6521 18.9258C28.6689 17.5714 28.6801 16.2172 28.6839 14.8627C28.6858 14.2338 28.6896 13.6049 28.6981 12.976C28.7056 12.4276 28.7093 11.8793 28.7085 11.3308C28.7083 11.0406 28.7099 10.7506 28.7159 10.4604C28.808 9.22177 28.808 9.22177 28.3672 8.1332C28.1533 7.95661 27.9293 7.83818 27.673 7.73468C27.4541 7.63855 27.2696 7.4977 27.0774 7.35716C27.0005 7.30427 26.9235 7.2516 26.8463 7.19923C26.5728 7.01217 26.3014 6.82224 26.0301 6.63206C25.9808 6.59755 25.9316 6.56303 25.8809 6.52748C25.7805 6.45709 25.6801 6.38669 25.5797 6.31629C25.3345 6.14428 25.089 5.97253 24.8435 5.80076C24.7459 5.7324 24.6482 5.66404 24.5506 5.59568C24.4781 5.54493 24.4781 5.54493 24.4041 5.49314C21.6209 3.5449 21.6209 3.5449 21.4743 3.44229C21.377 3.37417 21.2797 3.30605 21.1823 3.23793C20.933 3.06344 20.6838 2.88891 20.4346 2.71429C19.8936 2.33528 19.3521 1.95707 18.8084 1.58201C18.5172 1.73158 18.2464 1.89523 17.9837 2.09104C17.5836 2.38497 17.17 2.65679 16.7553 2.92967C16.4684 3.11944 16.1852 3.31195 15.908 3.51561C15.5163 3.80337 15.1105 4.06877 14.7045 4.33592C14.3627 4.56202 14.0285 4.7954 13.6982 5.03798C13.4104 5.24646 13.1154 5.44439 12.8208 5.64329C12.6909 5.73129 12.561 5.81935 12.4311 5.90742C12.3688 5.94959 12.3066 5.99175 12.2425 6.03519C12.0231 6.18424 11.8048 6.33474 11.5867 6.48558C11.2155 6.74177 10.8412 6.99321 10.4661 7.24363C10.412 7.27979 10.3579 7.31594 10.3022 7.3532C10.2267 7.40342 10.2267 7.40342 10.1498 7.45466C10.0823 7.4996 10.0823 7.4996 10.0135 7.54544C9.79052 7.68905 9.6502 7.68751 9.39036 7.65356C9.21866 7.60649 9.11386 7.52213 9.01224 7.3757C8.92232 7.16774 8.90943 6.95718 8.96464 6.73826C9.11972 6.51988 9.27672 6.37739 9.50068 6.2322C9.58838 6.1747 9.58838 6.1747 9.67786 6.11603C9.77075 6.05605 9.77075 6.05605 9.86552 5.99485C9.99406 5.91057 10.1225 5.82619 10.251 5.74171C10.3126 5.70121 10.3743 5.6607 10.4378 5.61897C10.6362 5.48723 10.8299 5.35087 11.0227 5.21116C11.5251 4.84736 12.0396 4.50145 12.5527 4.15301C12.7999 3.98498 13.0466 3.81627 13.2932 3.64744C13.3388 3.61627 13.3843 3.5851 13.4313 3.55298C13.8764 3.2482 14.321 2.94254 14.7654 2.6367C15.3102 2.26178 15.8554 1.88745 16.4015 1.51435C16.6636 1.33517 16.9252 1.15522 17.1862 0.974402C17.3379 0.869603 17.4902 0.765622 17.6426 0.661878C17.7176 0.610566 17.7925 0.558925 17.8671 0.506982C17.9764 0.431053 18.0865 0.356394 18.1968 0.281963C18.2597 0.238835 18.3226 0.195706 18.3875 0.151271C18.6081 0.041634 18.7406 0.0292156 18.9842 0.058574ZM24.9607 2.40232C24.8346 3.40788 24.8346 3.40788 25.0339 4.41617C25.2336 4.62842 25.4878 4.73643 25.7517 4.85073C26.032 4.98681 26.2767 5.1788 26.5281 5.36131C26.6266 5.43043 26.7251 5.49941 26.8238 5.56822C26.9502 5.65671 27.0742 5.7454 27.1954 5.84093C27.2982 5.92921 27.2982 5.92921 27.4217 5.91795C27.4217 4.75779 27.4217 3.59764 27.4217 2.40232C26.6096 2.40232 25.7974 2.40232 24.9607 2.40232ZM23.0857 13.6523C23.0857 15.3926 23.0857 17.1328 23.0857 18.9258C23.8978 18.9258 24.7099 18.9258 25.5467 18.9258C25.5467 17.1855 25.5467 15.4453 25.5467 13.6523C24.7346 13.6523 23.9224 13.6523 23.0857 13.6523Z" fill="white"/>
<path d="M20.1381 5.60673C20.6769 5.99224 21.092 6.54352 21.2111 7.20707C21.266 8.05578 21.1709 8.71786 20.6334 9.4096C20.1713 9.92994 19.5661 10.2055 18.8802 10.2691C18.1974 10.296 17.5817 10.0986 17.051 9.66801C17.0143 9.63863 16.9777 9.60925 16.94 9.57897C16.4713 9.15937 16.2103 8.53341 16.1574 7.91477C16.1276 7.13489 16.3514 6.49839 16.8752 5.91801C17.7813 5.05526 19.0829 4.96466 20.1381 5.60673ZM17.7285 6.96537C17.5066 7.29998 17.4329 7.56191 17.4927 7.95918C17.5803 8.37024 17.8306 8.6125 18.1642 8.8477C18.4805 8.98572 18.7718 8.99844 19.1017 8.90629C19.488 8.73581 19.7075 8.50224 19.8747 8.11642C19.9708 7.81679 19.9519 7.59461 19.8561 7.2913C19.6842 6.97608 19.5132 6.74901 19.2006 6.5662C18.6416 6.40512 18.1031 6.49065 17.7285 6.96537Z" fill="white"/>
</g>
<defs>
<clipPath id="clip0_295_785">
<rect width="30" height="30" fill="white"/>
</clipPath>
</defs>
</svg>
