<svg width="30" height="30" viewBox="0 0 30 30" fill="none" xmlns="http://www.w3.org/2000/svg">
<g clip-path="url(#clip0_295_798)">
<path d="M5.00597 9.95864C5.69964 9.95286 6.3933 9.95258 7.08699 9.95302C7.39639 9.95318 7.70579 9.95303 8.01518 9.95294C8.53818 9.95284 9.06117 9.95298 9.58416 9.95326C10.1097 9.95353 10.6352 9.95354 11.1608 9.95326C13.7608 9.95189 16.3608 9.95316 18.9607 9.97683C19.177 9.97879 19.3932 9.98036 19.6094 9.98159C19.8589 9.98305 20.1083 9.98534 20.3577 9.98832C20.4482 9.98927 20.5387 9.98993 20.6293 9.99028C20.7523 9.9908 20.8752 9.9924 20.9982 9.99427C21.0666 9.9949 21.135 9.99553 21.2055 9.99617C21.4076 10.0222 21.5174 10.0739 21.6797 10.1953C21.851 10.4567 21.8767 10.661 21.8735 10.9699C21.8733 11.0115 21.8732 11.053 21.873 11.0958C21.8722 11.2352 21.8701 11.3745 21.868 11.5139C21.8672 11.6148 21.8664 11.7158 21.8658 11.8167C21.8641 12.0371 21.8619 12.2575 21.8594 12.4779C21.8552 12.8428 21.8526 13.2077 21.8502 13.5726C21.8457 14.2413 21.8399 14.9099 21.8336 15.5786C21.8311 15.8535 21.8286 16.1284 21.8263 16.4034C21.82 17.1434 21.8129 17.8834 21.8038 18.6235C21.7997 18.9586 21.7961 19.2938 21.7934 19.6289C21.7908 19.9597 21.787 20.2905 21.7824 20.6213C21.7809 20.7448 21.7798 20.8684 21.7791 20.9919C21.7781 21.1616 21.7756 21.3311 21.7728 21.5008C21.7728 21.5505 21.7729 21.6003 21.7729 21.6516C21.7676 21.8856 21.7544 22.0051 21.6287 22.2087C21.4669 22.3584 21.3851 22.3591 21.167 22.3548C21.0985 22.3542 21.03 22.3535 20.9594 22.3528C20.8877 22.3506 20.816 22.3484 20.7422 22.3461C20.6759 22.3453 20.6097 22.3445 20.5414 22.3436C19.7488 22.3309 18.9562 22.2949 18.164 22.2656C18.1646 22.3138 18.1651 22.362 18.1656 22.4117C18.1703 22.8693 18.1739 23.327 18.1762 23.7846C18.1774 24.0198 18.179 24.255 18.1817 24.4902C18.1843 24.7178 18.1857 24.9453 18.1863 25.1729C18.1867 25.2591 18.1875 25.3453 18.1888 25.4315C18.1969 25.9969 18.1312 26.4802 17.9297 27.0117C17.9099 27.0652 17.8902 27.1186 17.8699 27.1737C17.8109 27.3293 17.7492 27.4836 17.6864 27.6377C17.664 27.693 17.6416 27.7483 17.6185 27.8053C17.5717 27.9207 17.5247 28.036 17.4775 28.1513C17.4057 28.3272 17.3349 28.5034 17.2642 28.6796C17.2182 28.7926 17.1722 28.9054 17.1261 29.0183C17.1052 29.0705 17.0844 29.1227 17.063 29.1764C16.9317 29.4936 16.7883 29.8382 16.4648 30C16.2897 30.0057 16.1159 30.0079 15.9408 30.0075C15.8864 30.0076 15.8319 30.0077 15.7758 30.0078C15.5942 30.0081 15.4126 30.0079 15.2309 30.0077C15.1033 30.0078 14.9757 30.0078 14.8481 30.0079C14.5788 30.008 14.3095 30.0079 14.0402 30.0076C13.768 30.0073 13.4958 30.0073 13.2236 30.0076C12.3892 30.0084 11.5549 30.0068 10.7206 30.0011C10.5527 30 10.3848 29.9992 10.2169 29.9985C9.97124 29.9973 9.72565 29.9946 9.48003 29.9905C9.39276 29.9892 9.30548 29.9884 9.2182 29.9881C9.10046 29.9876 8.98273 29.9851 8.86502 29.9825C8.76785 29.9812 8.76785 29.9812 8.66871 29.9799C8.38813 29.9173 8.25623 29.7297 8.10404 29.4969C8.07472 29.4429 8.0454 29.389 8.01519 29.3335C7.98129 29.2717 7.94738 29.21 7.91244 29.1464C7.85873 29.0468 7.85873 29.0468 7.80394 28.9453C7.76572 28.8753 7.72745 28.8054 7.68914 28.7354C7.60855 28.5883 7.52823 28.4409 7.44808 28.2935C7.32465 28.0668 7.19986 27.8408 7.07472 27.615C6.27317 26.1683 5.70283 25.1311 5.75956 23.4465C5.76421 23.3072 5.76811 23.1679 5.77192 23.0286C5.77463 22.9394 5.77737 22.8503 5.78016 22.7611C5.78133 22.7197 5.78249 22.6784 5.78369 22.6357C5.78993 22.4591 5.80306 22.3173 5.85936 22.1484C5.7592 22.1611 5.7592 22.1611 5.65702 22.174C5.14027 22.2361 4.62582 22.2799 4.10521 22.2876C4.03091 22.2898 4.03091 22.2898 3.95512 22.2921C3.90865 22.2923 3.86217 22.2924 3.8143 22.2926C3.77351 22.2931 3.73273 22.2936 3.69071 22.294C3.5153 22.2512 3.45148 22.172 3.33982 22.0312C3.30515 21.8367 3.30515 21.8367 3.29771 21.6073C3.29525 21.5453 3.29525 21.5453 3.29274 21.482C3.28785 21.3526 3.28449 21.2232 3.28123 21.0937C3.27704 20.978 3.27704 20.978 3.27276 20.8599C3.26444 20.6206 3.25797 20.3812 3.25193 20.1418C3.24956 20.0525 3.24717 19.9632 3.24477 19.8739C3.23846 19.6373 3.23238 19.4006 3.22637 19.164C3.2226 19.0159 3.21879 18.8677 3.21496 18.7196C3.20098 18.178 3.18729 17.6365 3.17389 17.0949C3.16707 16.82 3.16011 16.545 3.153 16.27C3.13377 15.5212 3.11828 14.7724 3.10815 14.0234C3.10569 13.8457 3.103 13.6679 3.10027 13.4902C3.09411 13.0838 3.08933 12.6774 3.0864 12.2709C3.08496 12.0714 3.08307 11.8719 3.07997 11.6723C3.07683 11.4513 3.07557 11.2303 3.07478 11.0092C3.07345 10.9429 3.07213 10.8767 3.07076 10.8084C3.07101 10.7166 3.07101 10.7166 3.07126 10.6229C3.07079 10.5697 3.07031 10.5166 3.06982 10.4618C3.12348 10.2368 3.21267 10.1554 3.39842 10.0195C3.57618 9.9736 3.74999 9.97344 3.93293 9.97237C4.01953 9.97025 4.01953 9.97025 4.10788 9.96809C4.40721 9.962 4.70659 9.9613 5.00597 9.95864ZM4.27732 11.1914C4.23865 13.647 4.19998 16.1027 4.16014 18.6328C4.1408 19.5802 4.12146 20.5277 4.10154 21.5039C4.68162 21.5232 5.2617 21.5425 5.85936 21.5625C5.91736 21.1854 5.91736 21.1854 5.97654 20.8007C6.36367 19.9793 7.04828 19.7646 7.8483 19.4452C7.96948 19.3942 8.08577 19.3366 8.20311 19.2773C8.202 19.2232 8.202 19.2232 8.20088 19.168C8.1812 18.1956 8.1633 17.2232 8.14767 16.2507C8.14569 16.1275 8.14366 16.0042 8.14158 15.881C8.13688 15.6012 8.13295 15.3214 8.13091 15.0416C8.12989 14.9266 8.12801 14.8117 8.12609 14.6967C8.12376 14.0914 8.205 13.5385 8.64645 13.0904C9.09623 12.6788 9.58377 12.5767 10.1829 12.5804C10.5187 12.6111 10.8479 12.7249 11.1328 12.9068C11.2542 12.9647 11.2542 12.9647 11.3928 12.8986C11.4424 12.8706 11.4919 12.8425 11.5429 12.8137C12.0255 12.5452 12.5873 12.5065 13.1248 12.6418C13.4025 12.7496 13.6472 12.8899 13.8867 13.0664C13.9411 13.0138 13.9411 13.0138 13.9966 12.9602C14.4345 12.6536 14.9353 12.5947 15.4527 12.6837C15.9256 12.7931 16.2541 12.9794 16.5454 13.3703C16.7798 13.8404 16.7757 14.4062 16.78 14.9198C16.781 14.9829 16.782 15.046 16.783 15.1109C16.7861 15.3107 16.7885 15.5106 16.7908 15.7104C16.7966 16.1588 16.8034 16.6071 16.813 17.0554C16.8152 17.1654 16.8169 17.2755 16.8182 17.3856C16.8199 17.5251 16.8236 17.6643 16.8278 17.8038C16.8294 17.8796 16.831 17.9555 16.8327 18.0337C16.8596 18.2337 16.8596 18.2337 17.0229 18.3684C17.1835 18.4751 17.1835 18.4751 17.3577 18.5495C17.7097 18.7307 17.8693 19.0915 17.9883 19.4531C18.1437 20.141 18.1406 20.8605 18.164 21.5625C19.0649 21.5706 19.9596 21.5486 20.8594 21.5039C20.84 20.6724 20.8207 19.841 20.8008 18.9843C20.7428 16.432 20.6847 13.8796 20.625 11.25C15.2303 11.2306 9.83553 11.2113 4.27732 11.1914ZM14.4726 13.7695C14.3268 13.9883 14.3406 14.1018 14.3394 14.3634C14.3384 14.4525 14.3373 14.5416 14.3362 14.6307C14.3356 14.702 14.3356 14.702 14.335 14.7747C14.3249 15.7737 14.2665 16.7658 14.1833 17.7612C14.1758 17.8542 14.1758 17.8542 14.1681 17.949C14.1537 18.1259 14.1386 18.3026 14.1231 18.4794C14.1188 18.5322 14.1145 18.5849 14.11 18.6393C14.0869 18.8912 14.0588 19.1055 13.9453 19.3359C13.7768 19.3432 13.7768 19.3432 13.5937 19.3359C13.0229 18.765 13.2479 16.8046 13.2149 16.0066C13.2102 15.8971 13.2056 15.7876 13.2009 15.6781C13.1917 15.4628 13.1836 15.2474 13.1761 15.032C13.172 14.9322 13.1679 14.8324 13.1637 14.7326C13.1624 14.687 13.1611 14.6413 13.1598 14.5943C13.1477 14.3313 13.1097 14.1561 12.9492 13.9453C12.7751 13.8099 12.5829 13.8005 12.3653 13.805C12.1513 13.8465 12.0446 13.9673 11.8945 14.1211C11.8199 14.2703 11.8226 14.3849 11.815 14.5519C11.8119 14.6178 11.8087 14.6836 11.8055 14.7515C11.8023 14.8233 11.7991 14.8952 11.7959 14.9693C11.7904 15.0833 11.785 15.1973 11.7796 15.3113C11.7701 15.5127 11.7609 15.7141 11.7517 15.9155C11.6702 17.6987 11.6702 17.6987 11.6031 18.5609C11.5989 18.6194 11.5946 18.6779 11.5903 18.7382C11.5858 18.7916 11.5814 18.845 11.5768 18.9C11.5731 18.9463 11.5694 18.9925 11.5656 19.0402C11.5429 19.1601 11.5429 19.1601 11.4258 19.3359C11.25 19.3579 11.25 19.3579 11.0742 19.3359C10.9309 19.1209 10.9203 18.9329 10.8964 18.6827C10.889 18.6116 10.889 18.6116 10.8815 18.5391C10.8659 18.3873 10.8511 18.2354 10.8362 18.0835C10.8259 17.9834 10.8157 17.8834 10.8054 17.7834C10.7764 17.5002 10.7492 17.2169 10.7226 16.9336C10.7161 16.866 10.7096 16.7985 10.7029 16.7289C10.6716 16.3718 10.6602 16.0173 10.6579 15.6591C10.657 15.5695 10.6561 15.4798 10.6552 15.3902C10.6539 15.2526 10.6531 15.1151 10.6538 14.9775C10.6543 14.8421 10.6526 14.7069 10.6505 14.5715C10.6513 14.5305 10.652 14.4896 10.6527 14.4474C10.6486 14.2837 10.6358 14.1572 10.5286 14.0294C10.3688 13.8924 10.2343 13.787 10.0195 13.7915C9.81692 13.809 9.64776 13.8567 9.49838 14.0036C9.40905 14.1655 9.4062 14.2963 9.3965 14.4811C9.39345 14.5378 9.39345 14.5378 9.39034 14.5956C9.36345 15.1525 9.35988 15.7104 9.35225 16.2678C9.32512 18.1745 9.27038 20.0794 9.10765 21.9799C9.10389 22.0239 9.10014 22.0678 9.09628 22.113C9.03514 22.8164 9.03514 22.8164 8.96482 23.0273C8.79637 23.0639 8.79637 23.0639 8.61326 23.0859C8.43066 22.9033 8.43049 22.7104 8.41469 22.4603C8.40942 22.3794 8.40942 22.3794 8.40404 22.2968C8.4005 22.2391 8.39696 22.1813 8.39331 22.1218C8.38758 22.0326 8.38758 22.0326 8.38173 21.9416C8.3696 21.7517 8.35776 21.5619 8.34593 21.372C8.33775 21.2432 8.32954 21.1145 8.32132 20.9857C8.30122 20.6701 8.28137 20.3546 8.2617 20.039C8.00375 20.039 7.8241 20.159 7.59886 20.2771C7.5332 20.3096 7.5332 20.3096 7.46622 20.3429C7.1652 20.5001 6.91538 20.6806 6.73826 20.9765C6.6851 21.1894 6.67292 21.3865 6.67468 21.6054C6.6751 21.6715 6.67552 21.7377 6.67595 21.8058C6.6768 21.8768 6.67765 21.9478 6.67852 22.0209C6.67935 22.0945 6.68018 22.1682 6.68103 22.244C6.68297 22.3998 6.68508 22.5556 6.68741 22.7114C6.69029 22.9095 6.69183 23.1076 6.69306 23.3057C6.69455 23.4963 6.69764 23.687 6.7005 23.8776C6.70075 23.948 6.70101 24.0184 6.70127 24.0909C6.71359 24.705 6.89563 25.1505 7.20816 25.6697C7.23018 25.7066 7.2522 25.7435 7.27489 25.7814C7.34585 25.9 7.41741 26.0182 7.48899 26.1364C7.53858 26.219 7.58813 26.3016 7.63764 26.3842C7.73797 26.5515 7.83854 26.7187 7.93932 26.8857C8.07695 27.1138 8.21385 27.3424 8.35051 27.5711C8.50024 27.8215 8.65003 28.0719 8.80026 28.322C8.82938 28.3705 8.8585 28.4191 8.88851 28.469C8.9507 28.5706 9.01593 28.6704 9.08201 28.7695C9.22396 28.7956 9.22396 28.7956 9.39213 28.7904C9.45766 28.7905 9.52318 28.7907 9.59069 28.7909C9.69861 28.7898 9.69861 28.7898 9.80871 28.7887C9.88378 28.7886 9.95885 28.7885 10.0362 28.7884C10.2409 28.7881 10.4455 28.7867 10.6502 28.7851C10.8196 28.7838 10.9891 28.7832 11.1585 28.7826C12.7127 28.7771 14.2666 28.7498 15.8203 28.7109C15.9614 28.3659 16.1022 28.0208 16.2427 27.6756C16.2905 27.5582 16.3384 27.4408 16.3864 27.3235C16.4554 27.1547 16.5241 26.9858 16.5928 26.8169C16.6143 26.7646 16.6357 26.7123 16.6579 26.6584C16.6778 26.6091 16.6978 26.5599 16.7183 26.5091C16.7359 26.4661 16.7534 26.423 16.7715 26.3786C16.8882 26.0439 16.884 25.7206 16.8844 25.3699C16.8847 25.311 16.885 25.2521 16.8853 25.1914C16.8862 24.9968 16.8866 24.8023 16.8869 24.6077C16.8872 24.4724 16.8876 24.337 16.8879 24.2016C16.8885 23.918 16.8889 23.6343 16.8891 23.3507C16.8894 22.9873 16.8908 22.6239 16.8925 22.2605C16.8935 21.981 16.8939 21.7015 16.8939 21.4219C16.8941 21.2879 16.8946 21.154 16.8954 21.02C16.8964 20.8326 16.8962 20.6453 16.8959 20.4579C16.8967 20.375 16.8967 20.375 16.8975 20.2904C16.8956 19.9868 16.8702 19.7739 16.6992 19.5117C16.5296 19.376 16.3725 19.3246 16.1645 19.2773C16.0313 19.2459 15.9413 19.2211 15.824 19.1491C15.6576 18.8653 15.6959 18.4862 15.7011 18.1659C15.7016 18.1212 15.702 18.0765 15.7025 18.0304C15.7035 17.9339 15.7046 17.8375 15.7059 17.7411C15.7083 17.5359 15.7097 17.3306 15.7111 17.1254C15.7138 16.744 15.7169 16.3625 15.722 15.9811C15.7255 15.7151 15.7275 15.4491 15.7286 15.183C15.7293 15.0819 15.7305 14.9807 15.7323 14.8796C15.7347 14.7382 15.7353 14.5969 15.7354 14.4555C15.7366 14.4139 15.7377 14.3724 15.7389 14.3295C15.737 14.1019 15.7092 14.0113 15.5627 13.8329C15.2056 13.5472 14.858 13.5414 14.4726 13.7695Z" fill="white"/>
<path d="M18.3621 4.9145C18.4346 4.91289 18.507 4.91129 18.5816 4.90963C18.6409 4.90779 18.7003 4.90595 18.7614 4.90405C19.0237 4.9327 19.2056 5.02088 19.3856 5.21417C19.4904 5.48891 19.478 5.75628 19.4763 6.04786C19.4766 6.14353 19.4766 6.14353 19.4768 6.24113C19.4769 6.37583 19.4766 6.51053 19.4759 6.64523C19.4749 6.85098 19.4759 7.05667 19.477 7.26242C19.4769 7.39346 19.4766 7.52449 19.4763 7.65553C19.4767 7.71688 19.477 7.77823 19.4774 7.84144C19.4719 8.41114 19.4719 8.41114 19.2772 8.67199C19.032 8.8187 18.8544 8.86927 18.57 8.86421C18.5 8.8634 18.4299 8.86258 18.3577 8.86174C18.2816 8.85993 18.2055 8.85811 18.127 8.85624C18.0454 8.85493 17.9638 8.8537 17.8822 8.85253C17.6601 8.84912 17.4381 8.84454 17.2161 8.83972C17.0278 8.83577 16.8395 8.83245 16.6512 8.82912C16.0528 8.81854 15.4545 8.80574 14.8561 8.79246C14.6618 8.78819 14.4676 8.78408 14.2733 8.77998C12.9613 8.75219 11.6496 8.71741 10.338 8.67642C10.193 8.67192 10.0479 8.66752 9.90283 8.66314C9.32849 8.64572 8.75426 8.62655 8.18006 8.60497C8.00133 8.59829 7.82259 8.59224 7.64382 8.58675C7.39799 8.57915 7.15231 8.56928 6.90657 8.55915C6.83398 8.55719 6.7614 8.55523 6.68661 8.55321C6.20462 8.53059 6.20462 8.53059 5.96059 8.37061C5.83682 8.16628 5.82377 8.04434 5.82648 7.80613C5.82689 7.72883 5.82731 7.65152 5.82774 7.57187C5.8287 7.5317 5.82967 7.49153 5.83067 7.45015C5.83352 7.33016 5.83427 7.21032 5.8346 7.0903C5.84342 6.02312 5.84342 6.02312 5.97639 5.56652C6.38933 5.16506 7.2582 5.25134 7.80218 5.22778C7.87453 5.22436 7.94688 5.22094 8.02142 5.21741C8.21788 5.20827 8.41436 5.19952 8.61085 5.19102C8.73541 5.1856 8.85996 5.18004 8.98451 5.17445C11.9739 5.04064 14.9667 4.96159 17.9588 4.92433C18.0933 4.92218 18.2277 4.91863 18.3621 4.9145ZM6.50374 5.97668C6.50734 6.02189 6.51095 6.06709 6.51467 6.11367C6.51949 6.17407 6.52431 6.23448 6.52927 6.29671C6.5343 6.35965 6.53933 6.42259 6.54451 6.48744C6.55497 6.61867 6.56531 6.74991 6.57559 6.88116C6.5802 6.93768 6.58482 6.99419 6.58957 7.05242C6.59417 7.11011 6.59877 7.1678 6.60352 7.22723C6.61869 7.36298 6.64495 7.48562 6.67952 7.6173C7.53788 7.62076 8.39541 7.6126 9.25359 7.5956C11.1932 7.55781 13.1331 7.54227 15.0731 7.52575C15.1493 7.5251 15.2256 7.52445 15.3041 7.52378C16.2574 7.51566 17.2106 7.5078 18.1639 7.50012C18.1639 7.07473 18.1639 6.64934 18.1639 6.21105C17.9686 6.20931 17.9686 6.20931 17.7694 6.20753C15.3639 6.18568 12.9589 6.1571 10.554 6.09387C10.4834 6.09202 10.4834 6.09202 10.4114 6.09013C9.10877 6.05595 7.80624 6.01695 6.50374 5.97668Z" fill="white"/>
<path d="M26.6016 13.7696C26.8318 13.9388 27.0217 14.1404 27.2168 14.3482C27.2947 14.4278 27.2947 14.4278 27.3741 14.5089C27.7242 14.8709 28.0444 15.2521 28.3594 15.6446C28.4142 15.7103 28.4692 15.7757 28.5247 15.8408C29.3437 16.8056 29.3437 16.8056 29.3699 17.0902C29.3555 17.2267 29.3555 17.2267 29.2933 17.3329C29.1098 17.4453 28.982 17.4264 28.7696 17.4024C28.5946 17.3088 28.4464 17.1877 28.2935 17.0619C28.2288 17.0105 28.2288 17.0105 28.1628 16.9581C27.8249 16.6882 27.4934 16.4103 27.1663 16.1276C27.0396 16.0199 26.9118 15.9181 26.7774 15.8204C26.7858 16.0047 26.7944 16.1891 26.803 16.3734C26.8053 16.4237 26.8076 16.4741 26.81 16.5259C26.8235 16.8133 26.8391 17.1003 26.8578 17.3873C26.8927 17.9345 26.9049 18.4796 26.9065 19.0277C26.9069 19.1192 26.9073 19.2106 26.9077 19.3021C26.9088 19.593 26.9091 19.8838 26.9092 20.1747C26.9093 20.2241 26.9093 20.2736 26.9094 20.3245C26.9108 21.8709 26.8886 23.4109 26.7316 24.9508C26.7227 25.0396 26.7142 25.1285 26.706 25.2174C26.6932 25.3558 26.6793 25.4941 26.6652 25.6323C26.6615 25.6743 26.6577 25.7162 26.6539 25.7594C26.6357 25.9262 26.619 26.0498 26.5207 26.1882C26.3673 26.2883 26.2517 26.276 26.0743 26.2501C25.845 26.0436 25.8552 25.7697 25.8321 25.4808C25.8273 25.4279 25.8225 25.3749 25.8175 25.3204C25.8023 25.1506 25.7881 24.9808 25.774 24.8109C25.764 24.7 25.754 24.5891 25.744 24.4782C25.7148 24.1511 25.6886 23.8237 25.6641 23.4962C25.6607 23.4513 25.6574 23.4065 25.6539 23.3602C25.5886 22.4524 25.594 21.5421 25.5945 20.6325C25.5945 20.5031 25.5945 20.3737 25.5944 20.2442C25.5942 19.0611 25.6188 17.886 25.7117 16.706C25.7295 16.4108 25.7275 16.116 25.7227 15.8204C25.6934 15.851 25.6641 15.8815 25.6338 15.913C25.3146 16.2432 24.9704 16.5333 24.6094 16.8165C24.5712 16.8468 24.533 16.8772 24.4937 16.9084C24.3693 17.0068 24.2441 17.104 24.1187 17.201C24.079 17.2325 24.0392 17.264 23.9983 17.2964C23.7133 17.5137 23.7133 17.5137 23.5041 17.5437C23.3789 17.5196 23.3789 17.5196 23.2727 17.4537C23.1672 17.2871 23.1796 17.1884 23.2032 16.9923C23.2898 16.8221 23.4004 16.6727 23.5144 16.5199C23.5463 16.476 23.5782 16.4322 23.611 16.3871C23.8809 16.0203 24.1682 15.6713 24.4684 15.3292C24.555 15.2297 24.64 15.1289 24.7248 15.0278C25.9646 13.5527 25.9646 13.5527 26.6016 13.7696Z" fill="white"/>
<path d="M1.41165 4.9728C1.48495 4.97267 1.55826 4.97254 1.63379 4.97241C1.71302 4.97265 1.79224 4.97293 1.87147 4.97326C1.9111 4.97337 1.95073 4.97348 1.99156 4.97359C2.48143 4.9752 2.97132 4.97872 3.46082 4.99889C3.52647 5.00086 3.52647 5.00086 3.59345 5.00287C3.84724 5.01601 4.01677 5.05883 4.21888 5.21496C4.45942 5.57576 4.33173 6.11014 4.28892 6.52759C4.28399 6.57707 4.27907 6.62654 4.274 6.67752C4.26361 6.78088 4.25306 6.88422 4.24237 6.98755C4.2261 7.14587 4.21069 7.30427 4.19531 7.46269C4.18506 7.56359 4.17476 7.66449 4.16441 7.76539C4.15762 7.83625 4.15762 7.83625 4.15071 7.90854C4.12748 8.12596 4.10787 8.25257 3.98451 8.43761C3.81395 8.47717 3.65203 8.50618 3.47914 8.52916C3.42915 8.53633 3.37917 8.54349 3.32767 8.55087C3.22488 8.56542 3.12203 8.5796 3.01914 8.59342C2.88589 8.61141 2.75291 8.6307 2.61991 8.65047C1.16027 8.85488 1.16027 8.85488 0.76185 8.5548C0.558976 8.18963 0.576811 7.74445 0.576227 7.33692C0.576032 7.28891 0.575837 7.24091 0.575636 7.19144C0.575341 7.09055 0.575202 6.98965 0.575211 6.88875C0.575083 6.73498 0.574016 6.58123 0.572908 6.42746C0.572736 6.329 0.57262 6.23054 0.572565 6.13208C0.572144 6.08648 0.571723 6.04088 0.571289 5.9939C0.572646 5.66856 0.599468 5.39355 0.820444 5.13805C1.02241 4.96764 1.15061 4.97306 1.41165 4.9728ZM2.35121 6.24035C2.1941 6.25001 2.037 6.25968 1.87513 6.26964C1.87513 6.71437 1.87513 7.1591 1.87513 7.6173C2.37787 7.65597 2.8806 7.69464 3.39857 7.73449C3.38044 7.52663 3.36231 7.31876 3.34364 7.1046C3.33805 7.03944 3.33247 6.97428 3.32671 6.90714C3.3221 6.85538 3.31749 6.80362 3.31274 6.75029C3.30814 6.69752 3.30353 6.64474 3.29879 6.59036C3.28306 6.45938 3.25814 6.33796 3.22279 6.21105C2.93099 6.20732 2.64223 6.2221 2.35121 6.24035Z" fill="white"/>
<path d="M26.9644 4.9608C27.0201 4.96041 27.0758 4.96002 27.1333 4.95962C27.2504 4.95903 27.3674 4.95875 27.4845 4.95877C27.6633 4.95851 27.8419 4.95638 28.0207 4.95417C28.1349 4.95382 28.2491 4.95359 28.3633 4.95348C28.4164 4.95264 28.4695 4.9518 28.5242 4.95093C28.8462 4.95325 29.0513 4.98498 29.2967 5.21486C29.4514 5.51159 29.4269 5.824 29.4187 6.1503C29.4176 6.20606 29.4166 6.26181 29.4155 6.31925C29.4131 6.43681 29.4104 6.55437 29.4073 6.67191C29.4029 6.85101 29.4 7.03009 29.3973 7.20922C29.3947 7.32378 29.3921 7.43834 29.3894 7.55289C29.3886 7.60606 29.3879 7.65924 29.3871 7.71402C29.3759 8.08241 29.3346 8.39962 29.0623 8.67189C28.9058 8.68588 28.7576 8.69126 28.6009 8.6902C28.5531 8.69009 28.5054 8.68997 28.4562 8.68985C26.2336 8.65573 26.2336 8.65573 25.8983 8.32033C25.8385 8.05265 25.8087 7.77927 25.7737 7.50734C25.7686 7.46781 25.7634 7.42827 25.758 7.38754C25.6934 6.88779 25.6401 6.38946 25.6346 5.88503C25.6335 5.83847 25.6324 5.79192 25.6313 5.74395C25.6335 5.54099 25.6585 5.40077 25.7536 5.22058C26.0859 4.93824 26.5489 4.96183 26.9644 4.9608ZM26.7772 6.21096C26.7578 6.38498 26.7385 6.559 26.7186 6.7383C26.7124 6.79215 26.7063 6.84601 26.7 6.90149C26.6953 6.94553 26.6905 6.98956 26.6856 7.03493C26.6807 7.07912 26.6758 7.1233 26.6707 7.16883C26.6564 7.37641 26.66 7.5849 26.66 7.79299C27.1434 7.73498 27.6268 7.67697 28.1248 7.61721C28.1248 7.17248 28.1248 6.72775 28.1248 6.26955C27.4577 6.24055 27.4577 6.24055 26.7772 6.21096Z" fill="white"/>
<path d="M22.1871 0.105689C22.2634 0.113076 22.2634 0.113076 22.3413 0.120611C22.4477 0.131004 22.5541 0.141548 22.6604 0.152238C22.8236 0.168519 22.9869 0.183928 23.1502 0.199302C23.254 0.209549 23.3577 0.219847 23.4615 0.230201C23.5103 0.234723 23.5591 0.239245 23.6094 0.243903C23.9516 0.279497 23.9516 0.279497 24.0822 0.410102C24.1419 0.677785 24.1717 0.951166 24.2067 1.22309C24.2119 1.26263 24.2171 1.30216 24.2224 1.34289C24.287 1.84264 24.3404 2.34097 24.3459 2.8454C24.3469 2.89196 24.348 2.93852 24.3491 2.98648C24.3469 3.19166 24.3224 3.32919 24.2232 3.50985C23.8943 3.79657 23.4668 3.76866 23.0527 3.76963C22.9649 3.77021 22.9649 3.77021 22.8753 3.77081C22.7521 3.7714 22.6288 3.77168 22.5056 3.77166C22.3172 3.77192 22.1289 3.77405 21.9405 3.77627C21.8205 3.77661 21.7005 3.77684 21.5805 3.77695C21.4963 3.77822 21.4963 3.77822 21.4103 3.77951C21.1569 3.77777 21.0157 3.77404 20.7962 3.63839C20.5885 3.41151 20.6166 3.2052 20.6174 2.91178C20.6173 2.83845 20.6173 2.83845 20.6172 2.76363C20.6172 2.6597 20.6173 2.55577 20.6175 2.45184C20.6178 2.29509 20.6175 2.13835 20.6172 1.9816C20.6164 0.520955 20.6164 0.520955 20.7973 0.223334C21.1505 -0.0871013 21.7485 0.0620984 22.1871 0.105689ZM22.5221 1.05097C22.4774 1.05607 22.4327 1.06117 22.3866 1.06642C22.2016 1.08833 22.0329 1.11274 21.8556 1.17182C21.854 1.29877 21.8529 1.42572 21.852 1.55268C21.8513 1.62338 21.8506 1.69407 21.8499 1.76691C21.8558 1.99915 21.8854 2.23036 21.9142 2.46088C22.3396 2.48022 22.765 2.49956 23.2033 2.51948C23.2226 2.35512 23.242 2.19077 23.2619 2.02143C23.268 1.97064 23.2741 1.91984 23.2804 1.86751C23.3138 1.57491 23.3259 1.29053 23.3205 0.99604C23.0508 0.987982 22.7893 1.01883 22.5221 1.05097Z" fill="white"/>
<path d="M11.5375 -0.00784525C11.615 -0.00792934 11.615 -0.00792934 11.6941 -0.00801512C11.8037 -0.00805502 11.9133 -0.00794675 12.0229 -0.0077022C12.1889 -0.00739135 12.3549 -0.0076978 12.5209 -0.00807413C12.6276 -0.00803536 12.7344 -0.00796019 12.8412 -0.00784525C12.8902 -0.00796386 12.9391 -0.00808246 12.9896 -0.00820467C13.8845 -0.00472397 13.8845 -0.00472397 14.1831 0.153745C14.4072 0.428377 14.3576 0.74343 14.3266 1.07934C14.3111 1.22253 14.2949 1.36566 14.2783 1.50873C14.2707 1.57972 14.263 1.65072 14.2551 1.72387C14.1122 3.00554 14.1122 3.00554 13.8865 3.39837C13.6948 3.49293 13.514 3.53592 13.3031 3.5634C13.2204 3.57431 13.2204 3.57431 13.1361 3.58544C13.078 3.59259 13.0199 3.59975 12.96 3.60711C12.9001 3.61461 12.8403 3.6221 12.7786 3.62982C11.1763 3.82457 11.1763 3.82457 10.792 3.55951C10.5684 3.22994 10.5864 2.86085 10.5856 2.47896C10.585 2.38906 10.585 2.38906 10.5844 2.29734C10.5838 2.17102 10.5835 2.0447 10.5835 1.91838C10.5833 1.72523 10.5811 1.53215 10.5789 1.33901C10.5786 1.21606 10.5783 1.09311 10.5782 0.970167C10.5774 0.912543 10.5766 0.85492 10.5757 0.795551C10.5774 0.541281 10.5811 0.392126 10.7131 0.17001C10.9581 -0.0458818 11.2286 -0.00858085 11.5375 -0.00784525ZM11.8943 1.289C11.8476 1.72027 11.8282 2.14433 11.8357 2.57806C11.9844 2.65238 12.1061 2.65492 12.272 2.66801C12.335 2.67311 12.3981 2.67821 12.4631 2.68346C12.5622 2.69111 12.5622 2.69111 12.6633 2.69891C12.7299 2.70424 12.7964 2.70956 12.865 2.71505C13.0297 2.7282 13.1944 2.74112 13.3591 2.75384C13.3295 2.24495 13.2992 1.73712 13.242 1.23041C12.7876 1.22459 12.3449 1.22685 11.8943 1.289Z" fill="white"/>
<path d="M2.50865 0.139185C2.57749 0.146587 2.64634 0.153989 2.71727 0.161615C3.05351 0.199587 3.37034 0.243748 3.69151 0.351587C3.69151 0.390259 3.69151 0.428931 3.69151 0.468774C3.73743 0.476025 3.78335 0.483276 3.83067 0.490747C3.98448 0.527368 3.98448 0.527368 4.10166 0.644556C4.13017 0.770412 4.13017 0.770412 4.1495 0.92608C4.1604 1.01136 4.1604 1.01136 4.17151 1.09837C4.17868 1.15889 4.18584 1.21941 4.19322 1.28176C4.20079 1.34319 4.20837 1.40461 4.21618 1.4679C4.26575 1.87632 4.31483 2.28431 4.33604 2.69534C4.33981 2.75297 4.34359 2.8106 4.34748 2.86997C4.36424 3.29286 4.36424 3.29286 4.22617 3.52297C4.03269 3.69369 3.90499 3.70377 3.65122 3.72279C3.58293 3.72791 3.51464 3.73303 3.44427 3.73831C1.11241 3.90019 1.11241 3.90019 0.761819 3.63284C0.531091 3.31077 0.563804 2.97198 0.57139 2.5928C0.572117 2.52792 0.572844 2.46304 0.573593 2.39619C0.60228 0.391003 0.60228 0.391003 0.863629 0.134464C1.29521 -0.112462 2.03574 0.0843246 2.50865 0.139185ZM2.5416 1.05105C2.49055 1.05615 2.43949 1.06125 2.38688 1.0665C2.33809 1.0716 2.28929 1.0767 2.23902 1.08195C2.17222 1.08885 2.17222 1.08885 2.10407 1.0959C1.98758 1.10823 1.98758 1.10823 1.8751 1.1719C1.8751 1.59729 1.8751 2.02268 1.8751 2.46096C2.01882 2.53282 2.11244 2.52624 2.2729 2.52528C2.3556 2.52499 2.3556 2.52499 2.43998 2.52471C2.49769 2.52421 2.55539 2.52372 2.61485 2.52322C2.67301 2.52295 2.73116 2.52269 2.79109 2.52242C2.93498 2.52172 3.07887 2.52076 3.22276 2.51956C3.24262 2.35357 3.26209 2.18756 3.28135 2.02151C3.28973 1.95194 3.28973 1.95194 3.29829 1.88098C3.33239 1.5838 3.34543 1.29524 3.33994 0.996118C3.07054 0.996118 2.80925 1.02289 2.5416 1.05105Z" fill="white"/>
<path d="M21.9505 5.07936C21.9915 5.08195 22.0325 5.08453 22.0748 5.08719C23.5994 5.18622 23.5994 5.18622 24.0819 5.50783C24.1233 5.65945 24.1233 5.65945 24.1503 5.85184C24.1603 5.9225 24.1704 5.99316 24.1807 6.06596C24.1904 6.1416 24.2001 6.21725 24.21 6.29518C24.2201 6.37181 24.2302 6.44844 24.2406 6.52738C24.2965 6.96818 24.3389 7.40703 24.3419 7.85158C24.3427 7.91757 24.3427 7.91757 24.3436 7.98489C24.3395 8.24109 24.3068 8.41526 24.1404 8.6133C23.8565 8.77355 23.5439 8.75419 23.2268 8.76093C23.1667 8.76248 23.1067 8.76403 23.0449 8.76563C22.9182 8.76871 22.7915 8.7715 22.6649 8.77402C22.4712 8.77808 22.2776 8.7837 22.0839 8.78942C21.9607 8.79223 21.8375 8.79494 21.7143 8.79755C21.6565 8.79937 21.5987 8.80119 21.5391 8.80307C21.1706 8.80857 20.9731 8.77119 20.6956 8.51718C20.5878 8.30669 20.6021 8.09692 20.6056 7.866C20.6057 7.81584 20.6058 7.76568 20.6059 7.71399C20.6063 7.60776 20.6071 7.50152 20.6083 7.39529C20.6102 7.23469 20.6107 7.07412 20.6111 6.91351C20.6172 5.50095 20.6172 5.50095 20.7933 5.20754C21.1068 4.93092 21.5614 5.05419 21.9505 5.07936ZM22.891 6.01503C22.8006 6.02693 22.8006 6.02693 22.7084 6.03906C22.6456 6.04745 22.5828 6.05583 22.5181 6.06447C22.4546 6.07285 22.3912 6.08124 22.3258 6.08988C22.1689 6.1106 22.0121 6.13144 21.8553 6.15236C21.8537 6.28908 21.8525 6.42579 21.8516 6.56252C21.8506 6.67414 21.8496 6.78575 21.8486 6.89737C21.8587 7.09918 21.8888 7.29952 21.9139 7.50002C22.3393 7.50002 22.7647 7.50002 23.2029 7.50002C23.2324 7.27909 23.2617 7.05814 23.2908 6.83718C23.2992 6.77437 23.3076 6.71157 23.3162 6.64686C23.3242 6.58662 23.3321 6.52639 23.3403 6.46433C23.3513 6.38102 23.3513 6.38102 23.3626 6.29603C23.382 6.14734 23.382 6.14734 23.3787 5.97658C23.2112 5.97658 23.0569 5.99303 22.891 6.01503Z" fill="white"/>
<path d="M18.6509 0.0294189C18.7208 0.0276062 18.7906 0.0257935 18.8626 0.0239258C19.1145 0.0725758 19.1912 0.139048 19.3357 0.351685C19.3897 0.564981 19.3901 0.776953 19.3943 0.996216C19.3955 1.03921 19.3967 1.0822 19.3979 1.1265C19.4064 1.43606 19.4103 1.74547 19.4116 2.05514C19.4123 2.16525 19.4135 2.27537 19.4152 2.38547C19.4177 2.54603 19.4187 2.70652 19.4193 2.8671C19.4203 2.91611 19.4213 2.96512 19.4224 3.01562C19.4215 3.23684 19.4082 3.37188 19.3049 3.57094C18.9668 3.85223 18.5391 3.82464 18.1215 3.81352C18.0685 3.81247 18.0155 3.81142 17.9609 3.81034C17.8496 3.80794 17.7383 3.80522 17.6269 3.80218C17.4574 3.79774 17.2878 3.79487 17.1182 3.79212C17.0095 3.78958 16.9008 3.78696 16.7922 3.78423C16.7419 3.78348 16.6917 3.78274 16.6399 3.78198C16.3266 3.77188 16.0949 3.72998 15.8201 3.57434C15.6485 3.34155 15.6829 3.06844 15.6846 2.79065C15.6848 2.73706 15.6851 2.68348 15.6853 2.62827C15.6919 2.21669 15.7247 1.81103 15.7761 1.40271C15.7825 1.34803 15.7889 1.29336 15.7955 1.23703C15.8284 1.00364 15.8508 0.85733 15.995 0.666855C16.1131 0.58606 16.1131 0.58606 16.2302 0.58606C16.2339 0.549805 16.2375 0.51355 16.2412 0.476196C16.2888 0.351685 16.2888 0.351685 16.4177 0.288427C16.5845 0.233607 16.7366 0.205474 16.9107 0.184601C16.9738 0.17701 17.0368 0.169419 17.1018 0.161598C18.1942 0.0405854 18.1942 0.0405854 18.6509 0.0294189ZM16.5818 0.996216C16.6398 1.49895 16.6978 2.00168 16.7576 2.51965C17.0259 2.52147 17.0259 2.52147 17.2996 2.52332C17.3836 2.52412 17.3836 2.52412 17.4692 2.52493C17.5139 2.52508 17.5585 2.52522 17.6045 2.52538C17.6726 2.52584 17.6726 2.52584 17.7421 2.52631C17.8705 2.51968 17.982 2.49654 18.1052 2.46106C18.1704 1.81765 18.1704 1.81765 18.1638 1.172C18.0762 1.08433 17.9926 1.09491 17.8704 1.08205C17.8222 1.07695 17.774 1.07185 17.7244 1.0666C17.6736 1.0615 17.6229 1.0564 17.5706 1.05115C17.5212 1.04582 17.4718 1.0405 17.4209 1.03501C17.1367 1.00566 16.8703 0.996216 16.5818 0.996216Z" fill="white"/>
<path d="M7.56277 -0.0204461C7.68221 -0.0214206 7.80165 -0.0230251 7.92108 -0.0252526C8.09458 -0.028463 8.268 -0.0297429 8.44153 -0.0306028C8.49464 -0.031931 8.54774 -0.0332593 8.60246 -0.0346279C8.85588 -0.0337828 9.02888 -0.0231935 9.23183 0.137482C9.45799 0.383362 9.44283 0.602121 9.44083 0.919257C9.44063 0.964802 9.44043 1.01035 9.44023 1.05727C9.43687 1.457 9.42586 1.85645 9.41153 2.25593C9.40973 2.31391 9.40792 2.3719 9.40606 2.43164C9.37435 3.21534 9.37435 3.21534 9.25772 3.51569C9.00152 3.75184 8.76739 3.71547 8.43192 3.70887C8.06866 3.69058 7.70746 3.65121 7.3461 3.61091C7.2794 3.60353 7.21269 3.59616 7.14397 3.58856C7.08061 3.58098 7.01725 3.5734 6.95197 3.56559C6.89527 3.55884 6.83857 3.55209 6.78016 3.54513C6.44153 3.4825 6.26805 3.35741 6.03506 3.10554C5.99639 3.06686 5.95772 3.02819 5.91788 2.98835C5.88937 2.87677 5.88937 2.87677 5.87004 2.74116C5.86275 2.69131 5.85546 2.64146 5.84795 2.59009C5.84082 2.53783 5.83368 2.48556 5.82632 2.43171C5.81528 2.35603 5.81528 2.35603 5.80401 2.27882C5.73253 1.77885 5.67528 1.27788 5.66153 0.772772C5.65866 0.699885 5.65579 0.626998 5.65283 0.551902C5.6835 0.35163 5.6835 0.35163 5.80206 0.182486C6.24959 -0.135249 7.03286 -0.0172782 7.56277 -0.0204461ZM6.73819 1.28913C6.72482 1.39753 6.71504 1.50638 6.70683 1.61529C6.70173 1.68119 6.69664 1.74709 6.69138 1.81499C6.68629 1.88436 6.68119 1.95374 6.67593 2.02521C6.67061 2.09482 6.66528 2.16442 6.6598 2.23613C6.64663 2.40873 6.63371 2.58134 6.621 2.75397C7.01788 2.72674 7.41473 2.69895 7.81119 2.66608C7.86293 2.66185 7.91467 2.65762 7.96797 2.65327C8.0855 2.6489 8.0855 2.6489 8.14444 2.57819C8.14954 2.48241 8.15071 2.38641 8.15016 2.29049C8.14988 2.20353 8.14988 2.20353 8.14959 2.11482C8.1491 2.05383 8.14861 1.99284 8.1481 1.93C8.14784 1.86878 8.14757 1.80756 8.1473 1.74449C8.14661 1.5927 8.14564 1.44092 8.14444 1.28913C7.8414 1.23902 7.55045 1.22152 7.24356 1.22321C7.20119 1.22299 7.15882 1.22276 7.11516 1.22253C6.90958 1.20423 6.90958 1.20423 6.73819 1.28913Z" fill="white"/>
<path d="M27.6908 -0.0204335C27.7977 -0.0214111 27.9045 -0.0230196 28.0114 -0.02524C28.1674 -0.0284508 28.3234 -0.0297299 28.4795 -0.0305902C28.5269 -0.0319184 28.5744 -0.0332467 28.6232 -0.0346153C28.8659 -0.0337109 29.0167 -0.0141821 29.2088 0.141157C29.4002 0.339409 29.4215 0.421211 29.4218 0.688099C29.4219 0.745196 29.422 0.802292 29.4222 0.861119C29.4218 0.95335 29.4218 0.95335 29.4213 1.04744C29.4211 1.11033 29.4209 1.17321 29.4207 1.238C29.4182 1.64476 29.4101 2.05098 29.392 2.45736C29.3902 2.50331 29.3884 2.54926 29.3866 2.5966C29.3748 2.82457 29.3516 3.04921 29.3129 3.27423C29.3057 3.31635 29.2986 3.35846 29.2912 3.40185C29.2126 3.57081 29.1124 3.61519 28.9453 3.69149C28.439 3.7578 27.9005 3.66669 27.3962 3.61092C27.2873 3.59982 27.2873 3.59982 27.1761 3.58849C27.0713 3.57716 27.0713 3.57716 26.9643 3.5656C26.9016 3.55885 26.8388 3.5521 26.7742 3.54514C26.603 3.51596 26.4638 3.476 26.3085 3.39852C26.2609 3.27401 26.2609 3.27401 26.25 3.16414C26.1956 3.15327 26.1956 3.15327 26.1401 3.14217C26.0156 3.10555 26.0156 3.10555 25.8984 2.98836C25.8699 2.86994 25.8699 2.86994 25.8506 2.72332C25.8396 2.64162 25.8396 2.64162 25.8285 2.55826C25.8214 2.49959 25.8142 2.44091 25.8068 2.38045C25.7994 2.32049 25.7919 2.26053 25.7843 2.19875C25.7364 1.79616 25.6969 1.39348 25.6713 0.98885C25.6677 0.940708 25.6642 0.892566 25.6605 0.842966C25.6465 0.568893 25.6583 0.397545 25.8398 0.175861C26.3122 -0.139047 27.135 -0.0167111 27.6908 -0.0204335ZM26.7773 1.23055C26.7193 1.73328 26.6613 2.23602 26.6015 2.75399C27.2014 2.71072 27.2014 2.71072 27.7917 2.63314C27.9567 2.60595 27.9567 2.60595 28.125 2.5782C28.125 2.15281 28.125 1.72742 28.125 1.28914C27.7875 1.25165 27.4887 1.22364 27.1545 1.22689C26.9678 1.2287 26.9678 1.2287 26.7773 1.23055Z" fill="white"/>
</g>
<defs>
<clipPath id="clip0_295_798">
<rect width="30" height="30" fill="white"/>
</clipPath>
</defs>
</svg>
