<svg width="30" height="30" viewBox="0 0 30 30" fill="none" xmlns="http://www.w3.org/2000/svg">
<g clip-path="url(#clip0_303_197)">
<path d="M16.5239 0.820306C16.5846 0.840851 16.6453 0.861395 16.7079 0.882562C17.8353 1.30756 18.7849 2.15201 19.4103 3.17161C19.5048 3.29357 19.5048 3.29357 19.6566 3.31581C19.8681 3.26659 19.9147 3.16773 20.0322 2.98828C20.233 2.69472 20.4417 2.42791 20.684 2.16796C20.7237 2.12453 20.7634 2.0811 20.8042 2.03636C21.6404 1.15565 22.8859 0.620527 24.0971 0.56167C25.8115 0.520328 27.1698 1.02395 28.4221 2.20458C29.0543 2.85363 29.489 3.69335 29.7075 4.57031C29.6974 4.77228 29.6882 4.91836 29.5793 5.09033C29.4238 5.18687 29.3042 5.20753 29.1215 5.21484C28.9572 5.15161 28.857 5.09112 28.7714 4.93414C28.7174 4.80195 28.6697 4.66881 28.6235 4.53369C28.5884 4.43769 28.553 4.34178 28.5173 4.24598C28.4919 4.17754 28.4919 4.17754 28.466 4.10771C28.0829 3.11516 27.2907 2.40819 26.353 1.9519C25.2173 1.46952 24.0082 1.40531 22.8535 1.86218C21.9574 2.23262 21.3566 2.8223 20.8038 3.60752C20.5805 3.92333 20.3621 4.16033 19.9809 4.27734C19.5665 4.33061 19.2077 4.29631 18.8676 4.04296C18.6399 3.83076 18.4719 3.57063 18.2927 3.31787C17.6079 2.37333 16.6274 1.76768 15.4692 1.58203C14.2368 1.47849 13.0984 1.68559 12.1037 2.46093C12.0136 2.53794 11.9244 2.61598 11.8364 2.69531C11.7999 2.72703 11.7634 2.75875 11.7258 2.79144C11.222 3.2579 10.8848 3.8676 10.6645 4.51171C10.6458 4.56519 10.6271 4.61866 10.6078 4.67376C10.367 5.50755 10.4103 6.51106 10.5803 7.35626C10.6068 7.50496 10.6077 7.64226 10.6059 7.79296C10.6635 7.79272 10.6635 7.79272 10.7223 7.79247C11.6589 7.78858 12.5955 7.78568 13.5321 7.78385C13.9851 7.78295 14.438 7.78172 14.8909 7.7797C15.2859 7.77794 15.6809 7.77681 16.0759 7.77642C16.2848 7.7762 16.4938 7.77566 16.7027 7.77438C16.9365 7.77295 17.1703 7.77293 17.4041 7.77301C17.4727 7.77238 17.5413 7.77174 17.6119 7.77109C18.2317 7.77342 18.7135 7.90147 19.2192 8.26171C19.2953 8.31247 19.2953 8.31247 19.373 8.36425C19.7854 8.75494 20.0963 9.33017 20.1285 9.90228C20.1302 10.0061 20.1307 10.1099 20.1301 10.2138C20.1307 10.271 20.1313 10.3282 20.1319 10.3872C20.1336 10.5743 20.1337 10.7613 20.1338 10.9483C20.1347 11.0789 20.1357 11.2094 20.1367 11.3399C20.1393 11.6819 20.1405 12.0238 20.1414 12.3658C20.1425 12.7154 20.145 13.0649 20.1473 13.4145C20.1517 14.0993 20.1547 14.784 20.1567 15.4687C20.185 15.4215 20.2134 15.3743 20.2426 15.3256C20.3492 15.1481 20.456 14.9708 20.563 14.7935C20.609 14.7172 20.6549 14.6409 20.7007 14.5644C21.4211 13.3631 21.4211 13.3631 21.7754 13.1873C21.8184 13.165 21.8615 13.1427 21.9058 13.1197C22.3153 12.9463 22.7171 12.9703 23.1276 13.1232C23.6551 13.36 23.9854 13.6898 24.2091 14.2252C24.2334 14.2897 24.2334 14.2897 24.2583 14.3555C24.5813 14.1224 24.8806 13.8745 25.1701 13.6011C25.2279 13.5467 25.2279 13.5467 25.2869 13.4912C25.5467 13.2447 25.7895 12.9924 26.0161 12.7148C26.0588 12.6655 26.1016 12.6162 26.1456 12.5654C27.5393 10.9408 28.4717 9.08839 28.7982 6.96696C28.8358 6.74341 28.8621 6.59636 28.9986 6.41189C29.1837 6.28573 29.3136 6.29696 29.5317 6.32812C29.6779 6.44295 29.7551 6.51485 29.7972 6.69799C29.7672 9.2744 28.282 11.7418 26.5662 13.565C26.4822 13.6551 26.3997 13.7463 26.3175 13.838C26.0548 14.1302 25.7915 14.4127 25.4899 14.6658C25.3065 14.8205 25.1312 14.984 24.9545 15.1462C24.7856 15.293 24.7856 15.293 24.6516 15.373C24.0822 15.7438 23.9588 16.3138 23.7639 16.9299C23.7287 17.0363 23.6933 17.1426 23.6578 17.2489C23.5778 17.4891 23.4997 17.7299 23.4229 17.9712C23.3632 18.1553 23.2996 18.338 23.2355 18.5206C23.1907 18.6782 23.1977 18.7754 23.2622 18.9258C23.4073 19.1059 23.5056 19.1808 23.7309 19.2187C23.892 19.2248 24.0516 19.2278 24.2127 19.228C24.2853 19.2284 24.2853 19.2284 24.3594 19.2289C24.4645 19.2295 24.5695 19.23 24.6746 19.2304C24.8411 19.2311 25.0077 19.2323 25.1742 19.2335C25.6476 19.2371 26.1211 19.2403 26.5946 19.2423C26.8843 19.2435 27.1741 19.2456 27.4639 19.2482C27.574 19.249 27.6842 19.2495 27.7944 19.2497C27.9489 19.25 28.1034 19.2513 28.2579 19.2529C28.303 19.2528 28.348 19.2526 28.3945 19.2524C28.8714 19.2597 29.252 19.4124 29.6001 19.7427C29.9695 20.1577 30.0494 20.5664 30.0284 21.1157C29.962 21.6209 29.7277 21.9354 29.3424 22.2551C29.2387 22.3242 29.2387 22.3242 29.1215 22.3242C29.1505 22.3834 29.1796 22.4426 29.2094 22.5037C29.3832 22.9739 29.3861 23.5404 29.1765 23.9978C28.9862 24.3237 28.7275 24.5205 28.4184 24.7266C28.4311 24.7585 28.4438 24.7905 28.4569 24.8234C28.6378 25.3134 28.6464 25.7256 28.4843 26.2244C28.3611 26.4914 28.1583 26.7609 27.8911 26.8945C27.9226 27.0312 27.9606 27.1586 28.0092 27.2905C28.1509 27.7572 28.1148 28.2566 27.9098 28.6981C27.6473 29.1392 27.2658 29.3767 26.7744 29.5039C26.5353 29.5418 26.2999 29.5419 26.0582 29.5431C26.006 29.5435 25.9538 29.5438 25.9 29.5442C25.7899 29.5447 25.6797 29.5451 25.5696 29.5453C25.4014 29.5459 25.2333 29.5477 25.0651 29.5496C24.9579 29.5499 24.8507 29.5502 24.7435 29.5505C24.6683 29.5516 24.6683 29.5516 24.5916 29.5527C24.3159 29.5516 24.1287 29.538 23.9067 29.3555C23.8188 29.1907 23.8188 29.1907 23.7895 29.0039C23.9122 28.6789 23.9122 28.6789 24.0825 28.5937C24.257 28.5866 24.4304 28.5829 24.605 28.5814C24.7123 28.5797 24.8195 28.5781 24.9267 28.5763C25.0958 28.5739 25.2648 28.5718 25.4339 28.5702C25.5971 28.5686 25.7602 28.5659 25.9234 28.5631C25.9734 28.5629 26.0235 28.5627 26.0751 28.5625C26.3909 28.5561 26.615 28.5086 26.895 28.3594C27.0431 28.1873 27.0688 28.0881 27.0891 27.8613C27.0657 27.5972 27.0657 27.5972 26.9536 27.3633C26.6291 27.211 26.3003 27.2307 25.9499 27.2321C25.8216 27.2312 25.6932 27.2303 25.5648 27.2293C25.3633 27.2283 25.1619 27.2278 24.9604 27.2282C24.7653 27.2283 24.5703 27.2267 24.3752 27.2248C24.315 27.2254 24.2549 27.226 24.1928 27.2266C23.9133 27.2228 23.7756 27.2209 23.5465 27.0497C23.438 26.8945 23.438 26.8945 23.4013 26.7187C23.439 26.538 23.4863 26.4383 23.621 26.3114C23.8757 26.1692 24.1944 26.2116 24.4778 26.2147C24.5506 26.2143 24.6235 26.2138 24.6986 26.2133C24.892 26.2122 25.0854 26.2122 25.2788 26.213C25.5509 26.2139 25.823 26.2136 26.0951 26.2122C26.2398 26.2115 26.3845 26.2116 26.5292 26.2127C27.0012 26.2144 27.0012 26.2144 27.4223 26.0156C27.5511 25.8568 27.5937 25.7526 27.6237 25.5505C27.5909 25.3205 27.51 25.1984 27.3637 25.0195C27.1735 24.8962 27.0195 24.8879 26.7954 24.8883C26.6948 24.888 26.6948 24.888 26.5922 24.8876C26.52 24.8879 26.4478 24.8881 26.3734 24.8884C26.2206 24.8875 26.0678 24.8865 25.915 24.8855C25.6741 24.8844 25.4331 24.8839 25.1921 24.8844C24.9596 24.8849 24.7272 24.883 24.4947 24.8811C24.3866 24.882 24.3866 24.882 24.2762 24.8829C23.7199 24.8765 23.7199 24.8765 23.5385 24.7061C23.4156 24.5162 23.4001 24.4214 23.438 24.1992C23.5422 24.0155 23.5858 23.9742 23.7895 23.9062C23.9179 23.8999 24.0465 23.8971 24.175 23.8961C24.2139 23.8957 24.2528 23.8953 24.2929 23.8949C24.3773 23.8941 24.4617 23.8934 24.5461 23.8928C24.6799 23.8918 24.8136 23.8905 24.9474 23.889C25.3277 23.8848 25.708 23.8813 26.0883 23.8783C26.321 23.8764 26.5537 23.874 26.7864 23.8713C26.8749 23.8703 26.9634 23.8696 27.0519 23.8691C27.1761 23.8684 27.3001 23.867 27.4242 23.8654C27.4947 23.8648 27.5653 23.8642 27.6379 23.8636C27.8388 23.8471 27.9981 23.8074 28.184 23.7305C28.3493 23.5045 28.34 23.2371 28.3012 22.9687C28.1627 22.7276 28.0344 22.6414 27.7739 22.5586C27.5802 22.5415 27.5802 22.5415 27.3678 22.5446C27.3083 22.5444 27.3083 22.5444 27.2476 22.5442C27.1619 22.544 27.0762 22.544 26.9905 22.5443C26.8548 22.5446 26.7191 22.5441 26.5834 22.5433C26.1977 22.5411 25.812 22.54 25.4263 22.5407C25.19 22.541 24.9538 22.54 24.7175 22.538C24.6276 22.5375 24.5377 22.5376 24.4477 22.5382C24.3221 22.5391 24.1965 22.5381 24.0708 22.5368C23.9993 22.5367 23.9279 22.5367 23.8543 22.5367C23.6723 22.5 23.6723 22.5 23.5321 22.3624C23.417 22.1724 23.4008 22.074 23.438 21.8555C23.5687 21.6886 23.646 21.6299 23.8481 21.5625C24.0007 21.557 24.1518 21.5547 24.3045 21.5551C24.3509 21.555 24.3973 21.5549 24.4451 21.5548C24.5459 21.5545 24.6467 21.5544 24.7475 21.5544C24.9619 21.5542 25.1761 21.553 25.3905 21.5518C25.7895 21.5495 26.1885 21.5477 26.5876 21.5478C26.8651 21.5479 27.1426 21.5465 27.4202 21.5442C27.5259 21.5436 27.6317 21.5435 27.7374 21.5439C27.8854 21.5445 28.0333 21.5433 28.1813 21.5416C28.2467 21.5425 28.2467 21.5425 28.3134 21.5434C28.5481 21.5387 28.6429 21.5123 28.8251 21.3587C28.8649 21.31 28.9047 21.2612 28.9458 21.2109C28.9651 21.1916 28.9844 21.1723 29.0044 21.1523C29.0445 20.8749 29.0469 20.6838 28.8798 20.4529C28.5585 20.2223 28.2499 20.1977 27.8639 20.1989C27.8153 20.1986 27.7668 20.1983 27.7168 20.198C27.6118 20.1974 27.5069 20.1971 27.402 20.197C27.2357 20.1968 27.0694 20.1958 26.9031 20.1946C26.4305 20.1913 25.9579 20.1895 25.4853 20.1881C25.1958 20.1872 24.9063 20.1854 24.6168 20.1831C24.5067 20.1825 24.3967 20.1821 24.2866 20.1821C24.1325 20.1821 23.9784 20.181 23.8243 20.1797C23.7792 20.18 23.7341 20.1803 23.6877 20.1805C23.2492 20.1747 22.9171 20.027 22.5927 19.7296C22.276 19.3839 22.1897 18.9755 22.2075 18.5156C22.3557 17.8227 22.6267 17.1498 22.863 16.4831C22.901 16.3755 22.9389 16.2678 22.9769 16.1601C23.0596 15.9254 23.1425 15.6907 23.2256 15.4562C23.341 15.1263 23.3715 14.8508 23.2548 14.5203C23.0853 14.2659 22.9116 14.0963 22.614 14.0112C22.4407 14.0039 22.3123 14.0035 22.1489 14.0625C22.1068 14.139 22.0686 14.2177 22.0317 14.2969C21.9533 14.4342 21.874 14.5708 21.7937 14.707C21.7686 14.7495 21.7436 14.792 21.7178 14.8357C21.4269 15.3277 21.1302 15.8161 20.8327 16.3041C20.7894 16.3751 20.7461 16.446 20.7028 16.517C20.6814 16.5521 20.6601 16.5871 20.6381 16.6232C20.4992 16.8512 20.3621 17.0802 20.2258 17.3099C19.8489 17.9429 19.4639 18.5413 18.9848 19.1016C18.935 19.1623 18.8852 19.2232 18.8354 19.284C18.3882 19.8091 18.0101 19.9898 17.3442 20.1562C16.9768 20.1562 16.6094 20.1562 16.2309 20.1562C16.2309 22.3799 16.2309 24.6035 16.2309 26.8945C16.5596 26.8945 16.8883 26.8945 17.227 26.8945C17.9575 27.021 18.3585 27.3271 18.8953 27.8176C19.7121 28.5435 20.5198 28.5614 21.5616 28.5607C21.7018 28.5609 21.842 28.5625 21.9823 28.5642C22.0464 28.5635 22.0464 28.5635 22.1117 28.5628C22.3154 28.5658 22.4228 28.579 22.586 28.7053C22.7376 28.9115 22.7041 29.0459 22.6762 29.2969C22.5701 29.4536 22.5076 29.4703 22.3247 29.5312C22.1771 29.5376 22.0312 29.5409 21.8836 29.5411C21.84 29.5413 21.7964 29.5415 21.7515 29.5417C21.6589 29.542 21.5664 29.5421 21.4738 29.5421C21.3346 29.5422 21.1954 29.5433 21.0561 29.5444C19.9323 29.5488 19.078 29.3548 18.2602 28.5562C17.7783 28.0877 17.3507 27.8935 16.685 27.8577C16.6414 27.8551 16.5977 27.8526 16.5527 27.85C16.4455 27.8438 16.3382 27.8379 16.2309 27.832C16.2317 27.881 16.2317 27.881 16.2325 27.9309C16.2188 28.2847 16.1183 28.471 15.8842 28.7327C15.6001 28.9549 15.2792 28.9628 14.9317 28.9623C14.885 28.9627 14.8382 28.9631 14.7901 28.9635C14.6364 28.9646 14.4826 28.9649 14.3289 28.965C14.2215 28.9654 14.1141 28.9658 14.0067 28.9662C13.7818 28.9669 13.5569 28.9671 13.332 28.967C13.0446 28.967 12.7573 28.9686 12.4699 28.9706C12.2481 28.9719 12.0263 28.9722 11.8045 28.9721C11.6986 28.9722 11.5927 28.9728 11.4868 28.9737C11.3383 28.9748 11.1899 28.9745 11.0414 28.9738C10.9982 28.9744 10.9549 28.9751 10.9104 28.9758C10.5588 28.9716 10.2512 28.8699 9.98875 28.6282C9.66101 28.2556 9.65169 27.9256 9.65512 27.4522C9.6551 27.3905 9.65508 27.3287 9.65507 27.2651C9.65515 27.0612 9.65606 26.8574 9.65698 26.6535C9.6572 26.5121 9.65736 26.3706 9.65748 26.2291C9.65793 25.857 9.65908 25.4849 9.66038 25.1128C9.66157 24.733 9.66211 24.3532 9.6627 23.9734C9.66396 23.2284 9.66593 22.4833 9.66842 21.7383C9.53652 21.7403 9.40464 21.7444 9.27281 21.7493C9.19938 21.7514 9.12594 21.7535 9.05028 21.7556C8.84077 21.779 8.84077 21.779 8.71095 21.934C8.60194 22.1101 8.51736 22.2882 8.43429 22.478C8.3838 22.5819 8.3333 22.6857 8.28242 22.7894C8.23059 22.8957 8.18006 23.0027 8.12962 23.1097C7.9722 23.4353 7.79609 23.7493 7.61764 24.0637C7.58742 24.1186 7.55721 24.1734 7.52607 24.2299C7.08184 25.0223 7.08184 25.0223 6.73873 25.1367C6.49136 25.1608 6.27737 25.1646 6.0466 25.0671C5.79197 24.8562 5.63502 24.5948 5.47874 24.3068C5.45999 24.2725 5.44124 24.2381 5.42192 24.2028C5.38197 24.1296 5.34214 24.0563 5.30242 23.983C5.19874 23.7918 5.09402 23.6012 4.98939 23.4105C4.96867 23.3727 4.94795 23.3349 4.9266 23.2959C4.74522 22.9653 4.56087 22.6365 4.37301 22.3096C4.33386 22.2406 4.33386 22.2406 4.29392 22.1703C4.17712 21.9469 4.17712 21.9469 3.98483 21.7969C3.83366 21.7898 3.6838 21.786 3.53256 21.7845C3.43948 21.7829 3.3464 21.7812 3.25332 21.7795C3.10703 21.7771 2.96075 21.7749 2.81444 21.7734C1.88285 21.7626 1.20842 21.6645 0.521388 20.9685C0.00154751 20.3498 -0.0338153 19.6823 -0.028944 18.9104C-0.029166 18.8096 -0.0294895 18.7087 -0.0299042 18.6079C-0.0307178 18.3358 -0.030069 18.0636 -0.0290995 17.7915C-0.0282841 17.5058 -0.0286664 17.2202 -0.0288724 16.9345C-0.0290304 16.4551 -0.0282449 15.9757 -0.026884 15.4962C-0.025324 14.9428 -0.0252235 14.3894 -0.0259113 13.836C-0.0265439 13.3023 -0.0261797 12.7686 -0.0253516 12.2349C-0.0250152 12.0084 -0.0250174 11.7818 -0.0252962 11.5553C-0.0255768 11.2883 -0.0249795 11.0214 -0.0237172 10.7545C-0.0233925 10.6568 -0.023361 10.5592 -0.0236546 10.4615C-0.0258087 9.64185 0.0922887 9.07882 0.644984 8.43749C1.07299 8.02236 1.66179 7.78535 2.25586 7.78592C2.32126 7.78584 2.38666 7.78576 2.45404 7.78567C2.52552 7.78588 2.597 7.78609 2.67065 7.78631C2.74612 7.7863 2.82159 7.78629 2.89935 7.78628C3.1061 7.78627 3.31285 7.78661 3.51961 7.78702C3.73575 7.78739 3.9519 7.78742 4.16804 7.78749C4.57726 7.78767 4.98647 7.78815 5.39568 7.78874C5.8616 7.7894 6.32751 7.78972 6.79342 7.79001C7.75175 7.79063 8.71009 7.79166 9.66842 7.79296C9.66038 7.75708 9.65233 7.7212 9.64404 7.68424C9.62821 7.61337 9.62821 7.61337 9.61206 7.54108C9.6016 7.49432 9.59114 7.44757 9.58036 7.39939C9.26057 5.93041 9.46438 4.30287 10.2727 3.02856C11.0673 1.82386 12.243 0.977307 13.6528 0.644525C14.5894 0.471044 15.6242 0.505214 16.5239 0.820306ZM1.23092 9.19921C0.96182 9.63414 0.872269 10.0162 0.871524 10.5265C0.871391 10.5642 0.87126 10.6019 0.871123 10.6407C0.870754 10.7662 0.870799 10.8917 0.870848 11.0172C0.870672 11.1075 0.870474 11.1978 0.870252 11.2881C0.869736 11.5329 0.869596 11.7777 0.869559 12.0225C0.869517 12.1756 0.869392 12.3288 0.869237 12.4819C0.868695 13.0167 0.868456 13.5516 0.868502 14.0864C0.868537 14.584 0.867918 15.0816 0.866993 15.5792C0.866225 16.0071 0.865913 16.4351 0.86595 16.863C0.865965 17.1183 0.8658 17.3736 0.865178 17.6288C0.864608 17.8691 0.864608 18.1094 0.865033 18.3496C0.865094 18.4375 0.864958 18.5253 0.864602 18.6131C0.846515 19.5391 0.846515 19.5391 1.24351 20.3462C1.60309 20.7003 1.95755 20.8083 2.45269 20.8131C2.54585 20.8148 2.639 20.8165 2.73216 20.8182C2.87833 20.8206 3.02449 20.8227 3.17067 20.8243C4.38243 20.8383 4.38243 20.8383 4.72236 21.1093C5.03437 21.4347 5.22699 21.8677 5.43869 22.262C5.48014 22.3383 5.52164 22.4146 5.5632 22.4909C5.64467 22.6405 5.72595 22.7902 5.8071 22.94C5.94925 23.2012 6.09423 23.4607 6.24069 23.7195C6.2622 23.7576 6.28371 23.7957 6.30588 23.8349C6.35244 23.9173 6.39909 23.9997 6.44577 24.082C6.61842 23.8774 6.75062 23.6735 6.87469 23.4366C6.91061 23.3685 6.94653 23.3005 6.98354 23.2304C7.00217 23.1948 7.0208 23.1592 7.04 23.1225C7.13711 22.9374 7.2356 22.7531 7.33406 22.5687C7.36314 22.5142 7.36314 22.5142 7.39281 22.4586C7.55349 22.1579 7.71582 21.8585 7.88497 21.5625C7.90655 21.5234 7.92812 21.4842 7.95035 21.4439C8.09515 21.1948 8.24286 21.0538 8.49655 20.918C8.74352 20.8544 8.99364 20.8412 9.24728 20.8264C9.28788 20.8239 9.32847 20.8214 9.3703 20.8187C9.46967 20.8126 9.56904 20.8067 9.66842 20.8008C9.66866 20.7488 9.6689 20.6969 9.66915 20.6433C9.67075 20.4478 9.67364 20.2524 9.67736 20.0569C9.67871 19.9728 9.67956 19.8887 9.67988 19.8046C9.6846 18.7638 9.6846 18.7638 10.02 18.3984C10.3411 18.1904 10.6195 18.1296 10.9971 18.1328C11.0455 18.1323 11.094 18.1318 11.1439 18.1313C11.3028 18.13 11.4615 18.1303 11.6203 18.1309C11.7315 18.1306 11.8427 18.1302 11.9539 18.1298C12.1863 18.1292 12.4188 18.1294 12.6513 18.1303C12.9484 18.1313 13.2454 18.1299 13.5425 18.1279C13.772 18.1266 14.0014 18.1266 14.2308 18.1271C14.3403 18.1272 14.4498 18.1268 14.5593 18.1259C14.7128 18.1249 14.866 18.1258 15.0194 18.1271C15.0641 18.1264 15.1088 18.1257 15.1549 18.125C15.4953 18.131 15.7337 18.2405 15.9965 18.457C16.1776 18.7198 16.2041 18.9666 16.2309 19.2773C16.8289 19.2973 17.4651 19.2862 17.9301 18.8672C18.1226 18.6666 18.309 18.4613 18.4743 18.2374C18.5747 18.1055 18.5747 18.1055 18.7182 17.9491C19.2984 17.2668 19.2429 16.5107 19.2297 15.6541C19.2271 15.4497 19.2276 15.2454 19.2277 15.041C19.2274 14.6983 19.2249 14.3558 19.2209 14.0131C19.2163 13.6185 19.2148 13.2239 19.215 12.8292C19.2152 12.4064 19.2131 11.9836 19.2104 11.5608C19.2098 11.44 19.2096 11.3192 19.2095 11.1984C19.2091 10.9725 19.2063 10.7467 19.2032 10.5208C19.2033 10.4547 19.2034 10.3886 19.2036 10.3205C19.1941 9.84802 19.1011 9.42397 18.7494 9.08536C18.3291 8.74439 17.9248 8.71328 17.4009 8.71519C17.303 8.71485 17.303 8.71485 17.2031 8.71451C16.9842 8.7139 16.7653 8.71414 16.5465 8.71437C16.3896 8.71411 16.2327 8.71381 16.0758 8.71346C15.6938 8.71272 15.3119 8.71261 14.9299 8.71275C14.6194 8.71285 14.3088 8.71275 13.9983 8.7125C13.932 8.71245 13.932 8.71245 13.8643 8.71239C13.7745 8.71232 13.6847 8.71225 13.5949 8.71218C12.7527 8.71154 11.9105 8.71167 11.0683 8.71203C10.2981 8.71233 9.528 8.71167 8.75785 8.71056C7.96674 8.70942 7.17563 8.70894 6.38452 8.70916C5.9405 8.70927 5.49648 8.70912 5.05246 8.70829C4.67444 8.7076 4.29643 8.70751 3.91842 8.70822C3.72563 8.70857 3.53287 8.70854 3.34009 8.70793C3.13088 8.70732 2.92171 8.70779 2.71251 8.70854C2.65188 8.7081 2.59124 8.70767 2.52877 8.70723C2.03553 8.71092 1.56589 8.7999 1.23092 9.19921ZM10.6645 19.043C10.585 19.2021 10.5984 19.3267 10.5981 19.5049C10.5978 19.5783 10.5976 19.6518 10.5973 19.7275C10.5974 19.8093 10.5974 19.8912 10.5974 19.973C10.5972 20.0589 10.597 20.1447 10.5968 20.2305C10.5963 20.4641 10.5962 20.6976 10.5961 20.9311C10.5961 21.1258 10.5959 21.3205 10.5956 21.5152C10.5952 21.9743 10.595 22.4335 10.5951 22.8926C10.5951 23.3669 10.5945 23.8412 10.5936 24.3155C10.5928 24.7222 10.5925 25.1289 10.5925 25.5356C10.5925 25.7787 10.5924 26.0218 10.5917 26.265C10.5912 26.4935 10.5912 26.722 10.5916 26.9506C10.5917 27.0346 10.5915 27.1187 10.5912 27.2027C10.5907 27.3171 10.5911 27.4315 10.5914 27.5459C10.5914 27.61 10.5914 27.6741 10.5913 27.7402C10.5908 27.9003 10.5908 27.9003 10.7231 28.0078C11.3032 28.0078 11.8833 28.0078 12.4809 28.0078C12.4809 25.0494 12.4809 22.091 12.4809 19.043C11.8815 19.043 11.2821 19.043 10.6645 19.043ZM13.4184 19.043C13.4184 22.0014 13.4184 24.9598 13.4184 28.0078C14.0178 28.0078 14.6172 28.0078 15.2348 28.0078C15.31 27.9457 15.31 27.9457 15.3006 27.8029C15.3006 27.7373 15.3005 27.6717 15.3005 27.6041C15.3005 27.529 15.3006 27.454 15.3007 27.3767C15.3005 27.2928 15.3003 27.2089 15.3001 27.125C15.3001 27.0372 15.3001 26.9495 15.3001 26.8617C15.3001 26.6228 15.2998 26.3838 15.2994 26.1448C15.299 25.8954 15.299 25.6459 15.2989 25.3965C15.2987 24.9237 15.2982 24.451 15.2976 23.9783C15.297 23.4403 15.2967 22.9022 15.2964 22.3642C15.2958 21.2571 15.2947 20.15 15.2934 19.043C14.6747 19.043 14.0559 19.043 13.4184 19.043Z" fill="#FD5523"/>
<path d="M10.6507 13.5036C11.0005 13.7454 11.1802 14.025 11.2844 14.437C11.3511 14.8611 11.2739 15.2183 11.0496 15.5835C10.7978 15.9086 10.4832 16.0996 10.078 16.1719C9.68027 16.211 9.37641 16.1248 9.02332 15.9375C8.71549 15.6832 8.46128 15.3606 8.42136 14.954C8.40711 14.494 8.44913 14.1443 8.73035 13.7696C9.2692 13.2374 9.98843 13.1273 10.6507 13.5036ZM9.49207 14.3555C9.34674 14.5735 9.34774 14.6835 9.37489 14.9414C9.4953 15.1174 9.57858 15.166 9.78138 15.2308C10.002 15.2353 10.0869 15.2023 10.2538 15.0586C10.3517 14.8968 10.3517 14.8968 10.371 14.7071C10.2851 14.4721 10.2289 14.378 10.0194 14.2383C9.80894 14.2167 9.66967 14.2392 9.49207 14.3555Z" fill="#FD5523"/>
<path d="M14.8245 13.5938C15.1365 13.8649 15.3106 14.1913 15.3704 14.599C15.3928 15.0085 15.2811 15.3931 15.014 15.708C14.6932 16.0079 14.3638 16.1728 13.9236 16.1975C13.4924 16.1789 13.1299 16.0328 12.836 15.7141C12.5155 15.3029 12.4183 14.9292 12.4808 14.4141C12.5898 13.9625 12.8731 13.684 13.2425 13.418C13.7641 13.1459 14.36 13.2711 14.8245 13.5938ZM13.4769 14.4727C13.4037 14.6722 13.4037 14.6722 13.4183 14.8828C13.53 15.0885 13.6029 15.1589 13.8248 15.2344C14.0409 15.2344 14.1299 15.1934 14.2972 15.0586C14.4093 14.9108 14.4146 14.8355 14.4107 14.6485C14.341 14.4254 14.2625 14.3563 14.0628 14.2383C13.7957 14.1849 13.6574 14.2771 13.4769 14.4727Z" fill="#FD5523"/>
<path d="M6.6741 13.5479C6.95708 13.7642 7.11976 14.0097 7.20671 14.3554C7.26079 14.8104 7.24785 15.2077 6.97233 15.5859C6.73828 15.8642 6.40786 16.1266 6.03483 16.1718C5.58433 16.2024 5.2314 16.1183 4.84831 15.8752C4.57372 15.622 4.43248 15.2626 4.33928 14.9084C4.33108 14.4578 4.44557 14.0544 4.74577 13.7109C5.32784 13.2328 6.02074 13.1311 6.6741 13.5479ZM5.3903 14.414C5.29972 14.5952 5.3145 14.7418 5.33171 14.9414C5.45372 15.1197 5.53456 15.1665 5.74186 15.227C5.92691 15.2347 6.00302 15.2236 6.15202 15.1171C6.29695 14.8997 6.29177 14.7884 6.26921 14.5312C6.21633 14.3858 6.21633 14.3858 6.09343 14.2968C5.79641 14.2143 5.63378 14.2207 5.3903 14.414Z" fill="#FD5523"/>
</g>
<defs>
<clipPath id="clip0_303_197">
<rect width="30" height="30" fill="white"/>
</clipPath>
</defs>
</svg>
