<svg width="30" height="30" viewBox="0 0 30 30" fill="none" xmlns="http://www.w3.org/2000/svg">
<g clip-path="url(#clip0_295_5744)">
<path d="M5.93287 2.35107C6.62712 3.07688 6.57606 3.85998 6.56275 4.80469C7.27818 4.80469 7.99361 4.80469 8.73072 4.80469C8.72613 4.44276 8.72613 4.44276 8.72017 4.08086C8.71637 3.48123 8.82892 3.00158 9.19947 2.51953C9.57836 2.14691 9.98436 1.98567 10.5105 1.96655C11.0456 1.9814 11.4595 2.14869 11.8504 2.51587C12.1753 2.89716 12.3136 3.33121 12.3107 3.82622C12.3105 3.87783 12.3104 3.92944 12.3102 3.98262C12.3097 4.04725 12.3092 4.11188 12.3086 4.17847C12.3074 4.38512 12.3062 4.59177 12.3049 4.80469C13.0397 4.80469 13.7745 4.80469 14.5315 4.80469C14.5223 4.34896 14.5223 4.34896 14.5104 3.89331C14.5054 3.39482 14.6042 3.01742 14.8648 2.59277C15.2716 2.19691 15.7056 1.97664 16.2783 1.97021C16.8283 1.98005 17.189 2.14822 17.5905 2.5193C17.8921 2.85639 18.0551 3.22692 18.0529 3.67744C18.0527 3.73649 18.0526 3.79553 18.0524 3.85636C18.0516 3.96867 18.0516 3.96867 18.0508 4.08325C18.0496 4.32133 18.0484 4.5594 18.0471 4.80469C18.7819 4.80469 19.5167 4.80469 20.2737 4.80469C20.2676 4.58716 20.2616 4.36963 20.2554 4.14551C20.249 3.47874 20.2958 2.97393 20.7608 2.46094C21.203 2.06506 21.6631 1.9705 22.2428 1.97571C22.6895 2.01272 23.0691 2.19533 23.3792 2.51953C23.9081 3.23281 23.8636 3.9551 23.8479 4.80469C23.8966 4.80331 23.8966 4.80331 23.9462 4.8019C24.8349 4.77998 25.5373 4.79871 26.2319 5.4126C26.7616 6.01382 26.8637 6.55458 26.8494 7.35123C26.8485 7.46922 26.8475 7.58721 26.8466 7.7052C26.8455 7.83091 26.844 7.95662 26.8423 8.08232C26.8391 8.3454 26.8379 8.60846 26.8371 8.87155C26.8368 8.96196 26.8365 9.05238 26.8362 9.1428C26.836 9.21067 26.836 9.21067 26.8358 9.27992C26.8336 9.89152 26.8298 10.5031 26.8219 11.1146C26.8166 11.5285 26.814 11.9422 26.8145 12.3561C26.8146 12.5746 26.8134 12.7929 26.8088 13.0114C26.7349 13.943 26.7349 13.943 27.0602 14.7624C27.2402 14.9189 27.4414 15.0153 27.6565 15.1172C28.8101 16.0944 29.5597 17.5894 29.8831 19.043C29.8935 19.089 29.9039 19.135 29.9147 19.1824C30.0098 19.6425 30.0229 20.0939 30.0222 20.5627C30.0222 20.6225 30.0222 20.6225 30.0221 20.6834C30.0161 22.3327 29.4962 23.9834 28.4187 25.2578C28.3035 25.3687 28.2159 25.4331 28.0667 25.4883C27.868 25.4802 27.7568 25.4659 27.6052 25.3345C27.5113 25.1361 27.5174 25.0039 27.5393 24.7852C27.6191 24.6273 27.7244 24.4927 27.8323 24.353C28.4753 23.4695 28.8699 22.4736 29.0042 21.3867C29.0121 21.3256 29.02 21.2645 29.0282 21.2016C29.2072 19.4426 28.5965 17.7717 27.5093 16.4081C26.456 15.1249 24.846 14.3426 23.2034 14.1797C21.5505 14.0566 19.8916 14.5122 18.5855 15.5493C18.0649 15.9994 17.5935 16.4648 17.2268 17.0508C17.1926 17.1043 17.1584 17.1577 17.1231 17.2128C16.1951 18.7251 15.9962 20.4285 16.3479 22.1484C16.7514 23.7823 17.7842 25.1991 19.219 26.0742C20.6674 26.9435 22.3743 27.2665 24.0361 26.8966C24.8534 26.6733 25.6171 26.3633 26.3226 25.8879C26.5055 25.7675 26.6171 25.7227 26.8362 25.7227C27.0576 25.8407 27.1171 25.9179 27.1914 26.1584C27.1869 26.4179 27.128 26.4737 26.9534 26.6602C25.3855 27.814 23.3539 28.2412 21.4422 27.9595C20.3945 27.7758 19.073 27.3937 18.3103 26.6301C17.6901 26.0284 16.9812 26.1116 16.1617 26.1223C16.0062 26.1222 15.8507 26.1218 15.6952 26.1212C15.3614 26.1202 15.0277 26.1214 14.694 26.124C14.2108 26.1277 13.7277 26.128 13.2445 26.1275C12.4594 26.1267 11.6744 26.1284 10.8893 26.1318C10.1288 26.1351 9.3682 26.1377 8.60764 26.1389C8.56078 26.139 8.51391 26.1391 8.46562 26.1392C7.95346 26.14 7.4413 26.1406 6.92914 26.1409C6.88407 26.1409 6.839 26.1409 6.79257 26.1409C6.61235 26.1411 6.43213 26.1412 6.25191 26.1412C5.72557 26.1415 5.19924 26.1425 4.67291 26.145C4.34275 26.1465 4.01261 26.1475 3.68245 26.148C3.49225 26.1483 3.30207 26.1491 3.11188 26.1504C2.9052 26.1518 2.69855 26.1522 2.49187 26.1522C2.43248 26.1529 2.37309 26.1536 2.31191 26.1543C1.62878 26.152 1.04442 25.9855 0.542245 25.508C0.206486 25.1403 -0.00651244 24.7186 -0.00761145 24.2169C-0.00800326 24.1338 -0.00800299 24.1338 -0.00840271 24.049C-0.0083919 23.9882 -0.0083812 23.9275 -0.00837007 23.865C-0.0085855 23.8003 -0.00880078 23.7357 -0.00902274 23.6691C-0.00966987 23.4518 -0.00989488 23.2344 -0.010118 23.017C-0.010485 22.8615 -0.0108737 22.706 -0.0112847 22.5505C-0.0124417 22.0834 -0.0130323 21.6163 -0.0135539 21.1492C-0.0138108 20.9293 -0.0141254 20.7094 -0.0144323 20.4895C-0.0154288 19.7586 -0.0162782 19.0278 -0.0167028 18.2969C-0.0168147 18.1074 -0.0169271 17.9178 -0.0170417 17.7282C-0.01707 17.6811 -0.0170983 17.634 -0.0171275 17.5854C-0.0176143 16.8214 -0.0190999 16.0573 -0.0210015 15.2932C-0.0229373 14.509 -0.0239943 13.7248 -0.0241817 12.9406C-0.0243087 12.5002 -0.0248234 12.0598 -0.0263181 11.6193C-0.0275874 11.2445 -0.028063 10.8696 -0.027492 10.4947C-0.027225 10.3034 -0.0274678 10.1121 -0.0284741 9.92076C-0.0295035 9.71352 -0.0291003 9.50633 -0.0283257 9.29908C-0.0289684 9.23837 -0.0296112 9.17766 -0.0302734 9.1151C-0.0266078 8.71098 -0.0266076 8.71098 0.10641 8.51732C0.296093 8.39924 0.426254 8.40628 0.644784 8.4375C0.879159 8.67188 0.879159 8.67188 0.879159 9.96094C9.1356 9.96094 17.3921 9.96094 25.8987 9.96094C26.0828 7.05974 26.0828 7.05974 25.5471 6.09375C25.0376 5.71549 24.4595 5.74909 23.8479 5.74219C23.8493 5.81575 23.8506 5.88932 23.852 5.96512C23.8712 7.39705 23.8712 7.39705 23.3792 8.02734C22.9919 8.40739 22.5822 8.56114 22.0462 8.58765C21.5034 8.57427 21.0603 8.37664 20.6838 7.9834C20.3111 7.48813 20.24 7.01693 20.259 6.40869C20.2639 6.18875 20.2687 5.9688 20.2737 5.74219C19.5389 5.74219 18.8042 5.74219 18.0471 5.74219C18.0563 6.20055 18.0563 6.20055 18.0682 6.65885C18.0743 7.26326 17.9186 7.6614 17.5077 8.10219C17.0836 8.5096 16.652 8.58185 16.0831 8.57346C15.8004 8.54744 15.5937 8.46401 15.3518 8.32031C15.2902 8.28768 15.2285 8.25505 15.165 8.22144C14.8382 7.9527 14.6479 7.61044 14.5315 7.20703C14.5182 7.03265 14.5182 7.03265 14.5201 6.85226C14.5204 6.79366 14.5206 6.73506 14.5209 6.67468C14.522 6.60141 14.5231 6.52813 14.5242 6.45264C14.5266 6.21819 14.529 5.98374 14.5315 5.74219C13.7967 5.74219 13.062 5.74219 12.3049 5.74219C12.3118 6.14005 12.3118 6.14005 12.3208 6.53787C12.3254 7.07728 12.2298 7.55348 11.8833 7.97928C11.5069 8.35897 11.0694 8.57005 10.5325 8.57666C10.0256 8.56742 9.60346 8.42174 9.2306 8.07175C8.77945 7.55384 8.71087 6.95742 8.7234 6.29517C8.72581 6.11268 8.72823 5.9302 8.73072 5.74219C8.01529 5.74219 7.29986 5.74219 6.56275 5.74219C6.56517 5.91379 6.56759 6.0854 6.57008 6.26221C6.57168 6.93928 6.52528 7.47489 6.094 8.02734C5.70676 8.40739 5.297 8.56114 4.761 8.58765C4.21819 8.57427 3.77515 8.37664 3.39869 7.9834C3.02584 7.48803 2.95465 7.01748 2.97389 6.40869C2.97494 6.34426 2.976 6.27984 2.97709 6.21346C2.97982 6.05631 2.98366 5.89928 2.98853 5.74219C2.80291 5.74526 2.61744 5.75084 2.43189 5.75684C2.37993 5.75767 2.32796 5.7585 2.27442 5.75935C1.84565 5.77512 1.51013 5.8644 1.20875 6.18164C0.992307 6.51463 0.960438 6.80031 0.91784 7.19444C0.878852 7.38431 0.858608 7.44898 0.703378 7.55859C0.524869 7.61966 0.434553 7.62449 0.252939 7.56958C0.117441 7.5 0.117441 7.5 0.00025323 7.38281C-0.0131179 7.23104 -0.0192546 7.0878 -0.0180573 6.93604C-0.0177269 6.89336 -0.0173964 6.85068 -0.017056 6.8067C-0.00995067 6.4927 0.0193972 6.2483 0.176034 5.97656C0.1996 5.93351 0.223166 5.89046 0.247446 5.8461C0.550432 5.34281 0.964112 5.03116 1.52369 4.86328C1.72011 4.81768 1.90013 4.79767 2.10162 4.79897C2.17951 4.79925 2.17951 4.79925 2.25897 4.79954C2.33913 4.80027 2.33913 4.80027 2.42091 4.80103C2.47548 4.80129 2.53005 4.80155 2.58627 4.80183C2.72037 4.80251 2.85445 4.80348 2.98853 4.80469C2.98731 4.76724 2.98608 4.72979 2.98482 4.69121C2.94091 3.15029 2.94091 3.15029 3.40968 2.55615C4.10614 1.82516 5.11554 1.81666 5.93287 2.35107ZM4.05421 3.28491C3.92741 3.4918 3.9182 3.66351 3.91659 3.90056C3.91603 3.96745 3.91547 4.03434 3.91489 4.10326C3.91464 4.17559 3.91439 4.24792 3.91413 4.32243C3.9138 4.39678 3.91346 4.47113 3.91312 4.54773C3.91257 4.7052 3.91216 4.86267 3.91196 5.02014C3.91164 5.2213 3.91023 5.42243 3.90856 5.62359C3.9072 5.81609 3.90709 6.00859 3.90681 6.2011C3.90609 6.27307 3.90536 6.34504 3.90462 6.41919C3.90149 6.89768 3.90149 6.89768 4.10182 7.32422C4.37068 7.56685 4.54273 7.64262 4.89947 7.63687C5.13194 7.60415 5.30257 7.50689 5.44947 7.32422C5.63734 6.92347 5.65099 6.57265 5.6486 6.13403C5.64877 6.06558 5.64894 5.99712 5.64911 5.92659C5.64923 5.7824 5.64891 5.63821 5.64817 5.49402C5.64723 5.27414 5.64816 5.05432 5.64929 4.83444C5.64917 4.69391 5.64894 4.55338 5.6486 4.41284C5.64895 4.34752 5.64931 4.2822 5.64968 4.2149C5.64634 3.84294 5.61186 3.55938 5.44947 3.22266C5.22791 3.00663 5.06661 2.93673 4.75733 2.91138C4.4471 2.91537 4.25637 3.05486 4.05421 3.28491ZM9.96119 3.10547C9.74423 3.38694 9.66144 3.59501 9.65785 3.94654C9.6571 4.0107 9.65635 4.07487 9.65557 4.14098C9.65514 4.21038 9.65471 4.27977 9.65426 4.35127C9.65379 4.42274 9.65331 4.49421 9.65283 4.56785C9.65202 4.71931 9.65139 4.87077 9.65093 5.02223C9.64992 5.25319 9.64735 5.48411 9.64476 5.71507C9.64417 5.86227 9.64367 6.00948 9.64327 6.15669C9.64225 6.2255 9.64122 6.2943 9.64016 6.36519C9.64124 6.77202 9.68193 7.03775 9.9026 7.38281C10.0999 7.5664 10.2535 7.63227 10.5178 7.64648C10.7789 7.63418 10.9327 7.55459 11.1331 7.38281C11.3393 7.14817 11.3748 6.9532 11.3769 6.64631C11.3774 6.57942 11.378 6.51253 11.3786 6.44361C11.3788 6.37129 11.3791 6.29896 11.3793 6.22444C11.3798 6.11292 11.3798 6.11292 11.3804 5.99914C11.3809 5.84167 11.3813 5.68421 11.3815 5.52674C11.3818 5.32558 11.3832 5.12444 11.3849 4.92329C11.3863 4.73079 11.3864 4.53829 11.3867 4.34578C11.3874 4.27381 11.3881 4.20184 11.3889 4.12769C11.392 3.6492 11.392 3.6492 11.1917 3.22266C10.9363 2.9922 10.7838 2.91102 10.4354 2.91733C10.2432 2.93669 10.1201 2.99715 9.96119 3.10547ZM15.5276 3.33984C15.4652 3.52691 15.4608 3.6624 15.4596 3.85903C15.459 3.92963 15.4584 4.00023 15.4579 4.07297C15.4576 4.14933 15.4574 4.22568 15.4571 4.30435C15.4568 4.38353 15.4564 4.46272 15.4561 4.5419C15.4555 4.70789 15.4551 4.87387 15.4549 5.03986C15.4546 5.2522 15.4532 5.4645 15.4515 5.67683C15.4504 5.8404 15.4501 6.00396 15.45 6.16754C15.4498 6.28377 15.4487 6.39999 15.4476 6.51621C15.4478 6.58718 15.4479 6.65815 15.4481 6.73127C15.4479 6.79359 15.4477 6.8559 15.4475 6.9201C15.4725 7.11701 15.5271 7.22411 15.6448 7.38281C15.9494 7.60378 16.1492 7.66474 16.5237 7.61719C16.7917 7.48319 16.9976 7.31287 17.1096 7.03125C17.1447 6.76763 17.1425 6.50585 17.1408 6.24023C17.1411 6.12518 17.1411 6.12518 17.1414 6.00781C17.1418 5.84586 17.1413 5.68395 17.1402 5.522C17.1388 5.31512 17.1396 5.10831 17.141 4.90143C17.1421 4.70316 17.1413 4.50491 17.1408 4.30664C17.1412 4.23266 17.1417 4.15868 17.1422 4.08245C17.1386 3.57569 17.1386 3.57569 16.8753 3.16406C16.645 2.96519 16.4683 2.89115 16.1696 2.90657C15.9117 2.95856 15.6927 3.14 15.5276 3.33984ZM21.3394 3.28491C21.2126 3.4918 21.2034 3.66351 21.2017 3.90056C21.2012 3.96745 21.2006 4.03434 21.2 4.10326C21.1998 4.17559 21.1995 4.24792 21.1993 4.32243C21.199 4.39678 21.1986 4.47113 21.1983 4.54773C21.1977 4.7052 21.1973 4.86267 21.1971 5.02014C21.1968 5.2213 21.1954 5.42243 21.1937 5.62359C21.1924 5.81609 21.1922 6.00859 21.192 6.2011C21.1912 6.27307 21.1905 6.34504 21.1898 6.41919C21.1866 6.89768 21.1866 6.89768 21.387 7.32422C21.6385 7.55122 21.7951 7.63867 22.1391 7.63367C22.3631 7.60456 22.493 7.51564 22.676 7.38281C22.8774 7.11432 22.9174 6.87433 22.9199 6.54492C22.9204 6.48291 22.921 6.42091 22.9216 6.35702C22.9218 6.29031 22.9221 6.2236 22.9223 6.15486C22.9228 6.05147 22.9228 6.05147 22.9233 5.946C22.9239 5.80016 22.9243 5.65432 22.9245 5.50849C22.9251 5.28589 22.9269 5.06332 22.9287 4.84074C22.9291 4.69894 22.9294 4.55715 22.9296 4.41536C22.9304 4.349 22.9311 4.28264 22.9318 4.21428C22.9306 3.76211 22.8932 3.4636 22.5881 3.11279C22.3751 2.93168 22.1948 2.90942 21.918 2.91298C21.6665 2.94775 21.5016 3.10034 21.3394 3.28491ZM0.879159 10.8984C0.879159 12.2713 0.879159 13.6441 0.879159 15.0586C2.29068 15.0586 3.70221 15.0586 5.1565 15.0586C5.1565 13.6857 5.1565 12.3129 5.1565 10.8984C3.74498 10.8984 2.33346 10.8984 0.879159 10.8984ZM6.094 10.8984C6.094 12.2713 6.094 13.6441 6.094 15.0586C7.50553 15.0586 8.91705 15.0586 10.3713 15.0586C10.3713 13.6857 10.3713 12.3129 10.3713 10.8984C8.95982 10.8984 7.5483 10.8984 6.094 10.8984ZM11.2503 10.8984C11.2503 12.2713 11.2503 13.6441 11.2503 15.0586C12.6618 15.0586 14.0733 15.0586 15.5276 15.0586C15.5276 13.6857 15.5276 12.3129 15.5276 10.8984C14.1161 10.8984 12.7046 10.8984 11.2503 10.8984ZM16.4651 10.8984C16.4651 12.2713 16.4651 13.6441 16.4651 15.0586C17.5435 15.1378 17.5435 15.1378 18.2721 14.6368C18.8194 14.1293 19.5841 13.8477 20.2737 13.5938C20.4284 13.5357 20.5831 13.4777 20.7424 13.418C20.7424 12.5865 20.7424 11.7551 20.7424 10.8984C19.3309 10.8984 17.9194 10.8984 16.4651 10.8984ZM21.6799 10.8984C21.6799 11.6719 21.6799 12.4453 21.6799 13.2422C22.0371 13.2367 22.0371 13.2367 22.4014 13.2312C23.6763 13.2259 24.7143 13.5012 25.8987 13.9453C25.8987 12.9398 25.8987 11.9344 25.8987 10.8984C24.5065 10.8984 23.1143 10.8984 21.6799 10.8984ZM0.879159 15.9961C0.879159 17.3496 0.879159 18.7031 0.879159 20.0977C2.29068 20.0977 3.70221 20.0977 5.1565 20.0977C5.1565 18.7441 5.1565 17.3906 5.1565 15.9961C3.74498 15.9961 2.33346 15.9961 0.879159 15.9961ZM6.094 15.9961C6.094 17.3496 6.094 18.7031 6.094 20.0977C7.50553 20.0977 8.91705 20.0977 10.3713 20.0977C10.3713 18.7441 10.3713 17.3906 10.3713 15.9961C8.95982 15.9961 7.5483 15.9961 6.094 15.9961ZM11.2503 15.9961C11.2503 17.3496 11.2503 18.7031 11.2503 20.0977C12.5651 20.0977 13.8799 20.0977 15.2346 20.0977C15.2926 19.7303 15.3506 19.3629 15.4104 18.9844C15.4491 18.8297 15.4878 18.675 15.5276 18.5156C15.5439 18.3671 15.5439 18.3671 15.5409 18.2311C15.5409 18.1545 15.5409 18.1545 15.5409 18.0763C15.5403 18.0243 15.5397 17.9723 15.539 17.9187C15.5389 17.8696 15.5388 17.8206 15.5387 17.77C15.5381 17.5889 15.5364 17.4077 15.5349 17.2266C15.5325 16.8205 15.5301 16.4145 15.5276 15.9961C14.1161 15.9961 12.7046 15.9961 11.2503 15.9961ZM16.4651 15.9961C16.4651 16.1314 16.4651 16.2668 16.4651 16.4063C16.6131 16.2678 16.6929 16.1915 16.7581 15.9961C16.6614 15.9961 16.5647 15.9961 16.4651 15.9961ZM0.879159 21.0352C0.876742 21.5186 0.874326 22.002 0.871835 22.5C0.870768 22.6517 0.869702 22.8035 0.868602 22.9598C0.86826 23.0812 0.867961 23.2026 0.867715 23.324C0.867116 23.3861 0.866516 23.4482 0.865899 23.5122C0.86578 24.0183 0.90424 24.4333 1.23072 24.8438C1.523 25.1206 1.81791 25.2104 2.21637 25.2086C2.31624 25.2086 2.31624 25.2086 2.41812 25.2086C2.52169 25.2077 2.52169 25.2077 2.62736 25.2068C2.69151 25.2066 2.75566 25.2065 2.82175 25.2064C3.06045 25.2058 3.29915 25.2042 3.53785 25.2026C4.33908 25.199 4.33908 25.199 5.1565 25.1953C5.1565 23.8225 5.1565 22.4496 5.1565 21.0352C3.74498 21.0352 2.33346 21.0352 0.879159 21.0352ZM6.094 21.0352C6.094 22.408 6.094 23.7809 6.094 25.1953C7.50553 25.1953 8.91705 25.1953 10.3713 25.1953C10.3713 23.8225 10.3713 22.4496 10.3713 21.0352C8.95982 21.0352 7.5483 21.0352 6.094 21.0352ZM11.2503 21.0352C11.2503 22.408 11.2503 23.7809 11.2503 25.1953C13.0678 25.1953 14.8854 25.1953 16.7581 25.1953C16.6227 24.9826 16.4874 24.7699 16.3479 24.5508C15.7427 23.5194 15.3293 22.4006 15.247 21.1988C15.2455 21.0925 15.2455 21.0925 15.176 21.0352C15.0538 21.0296 14.9314 21.0283 14.809 21.0285C14.7506 21.0285 14.7506 21.0285 14.6911 21.0285C14.5646 21.0285 14.4381 21.029 14.3115 21.0294C14.1959 21.0295 14.1959 21.0295 14.0779 21.0296C13.7884 21.0299 13.4989 21.0307 13.2095 21.0315C12.5629 21.0327 11.9164 21.0339 11.2503 21.0352Z" fill="#FD5523"/>
<path d="M25.899 16.1719C26.1496 16.3704 26.3777 16.5889 26.6021 16.8164C26.6605 16.875 26.6605 16.875 26.7202 16.9347C27.8104 18.101 28.125 19.61 28.0777 21.1526C27.9901 22.5811 27.1787 23.9055 26.1333 24.8437C25.4784 25.3828 24.6672 25.7533 23.8482 25.957C23.7743 25.9767 23.7743 25.9767 23.6989 25.9968C22.2897 26.3163 20.779 25.943 19.5708 25.1953C18.3993 24.3814 17.4979 23.1532 17.2271 21.7383C17.017 20.3379 17.1588 18.9955 17.8972 17.7594C17.9956 17.6276 18.0819 17.545 18.2232 17.4609C18.4222 17.4679 18.5712 17.4855 18.7469 17.5818C18.8486 17.7673 18.8343 17.9596 18.8091 18.164C18.7507 18.3341 18.6698 18.4888 18.5857 18.6474C18.0403 19.7443 17.9928 20.906 18.3477 22.0715C18.5973 22.7649 18.9953 23.328 19.5122 23.8476C19.5511 23.8885 19.5899 23.9294 19.6299 23.9715C20.4194 24.7445 21.6072 25.0942 22.6874 25.0926C23.8912 25.0739 24.9522 24.5925 25.8257 23.7781C26.6913 22.8647 27.1045 21.6931 27.0953 20.4459C27.0621 19.2772 26.5873 18.2034 25.7577 17.3792C24.8353 16.5195 23.6994 16.0663 22.4298 16.0966C21.5495 16.1627 20.748 16.4148 20.0356 16.9367C19.7948 17.1058 19.6277 17.1389 19.3365 17.1094C19.1973 17.0471 19.1973 17.0471 19.1021 16.9336C19.0398 16.7395 19.0398 16.7395 19.0435 16.5234C19.3699 15.9333 20.3047 15.5472 20.9185 15.3515C22.6409 14.87 24.4367 15.1098 25.899 16.1719Z" fill="#FD5523"/>
<path d="M22.6213 17.3108C22.8296 17.3507 22.8976 17.4141 23.0278 17.5781C23.1019 17.7262 23.0935 17.828 23.0931 17.9937C23.0931 18.0559 23.093 18.118 23.093 18.1821C23.0927 18.2494 23.0924 18.3167 23.0921 18.3861C23.092 18.4548 23.092 18.5236 23.0919 18.5945C23.0915 18.8148 23.0908 19.0351 23.0901 19.2554C23.0898 19.4044 23.0895 19.5535 23.0893 19.7026C23.0886 20.0687 23.0876 20.4347 23.0864 20.8008C23.1255 20.8003 23.1646 20.7997 23.2049 20.7992C23.6117 20.794 24.0185 20.7905 24.4254 20.7879C24.5772 20.7867 24.7291 20.7851 24.881 20.7831C25.0991 20.7803 25.3173 20.7789 25.5354 20.7779C25.6374 20.7761 25.6374 20.7761 25.7415 20.7742C25.8365 20.7742 25.8365 20.7742 25.9334 20.7742C26.0169 20.7734 26.0169 20.7734 26.1022 20.7726C26.2949 20.8092 26.363 20.8848 26.4848 21.0352C26.5583 21.2261 26.5571 21.2973 26.4739 21.4856C26.3598 21.6311 26.3031 21.6729 26.1333 21.7383C25.9692 21.7536 25.9692 21.7536 25.7778 21.7544C25.7061 21.7549 25.6343 21.7555 25.5604 21.7561C25.483 21.756 25.4057 21.756 25.326 21.7559C25.2456 21.7561 25.1652 21.7564 25.0848 21.7567C24.9164 21.7571 24.748 21.7571 24.5796 21.7568C24.3642 21.7564 24.1488 21.7574 23.9334 21.7588C23.7673 21.7597 23.6013 21.7597 23.4353 21.7595C23.3174 21.7596 23.1994 21.7604 23.0815 21.7612C23.0096 21.7608 22.9376 21.7605 22.8635 21.7601C22.8003 21.7601 22.7371 21.7602 22.672 21.7602C22.4761 21.7352 22.3657 21.679 22.2075 21.5625C22.1266 21.4007 22.1397 21.2681 22.1376 21.087C22.1367 21.0117 22.1357 20.9364 22.1348 20.8589C22.1341 20.7763 22.1335 20.6936 22.1329 20.611C22.1326 20.5695 22.1323 20.5279 22.1319 20.4851C22.1304 20.2652 22.1292 20.0453 22.1284 19.8254C22.1274 19.5984 22.1248 19.3714 22.1218 19.1444C22.1198 18.9698 22.1192 18.7951 22.1188 18.6204C22.1184 18.5368 22.1175 18.4531 22.1161 18.3694C22.1143 18.2522 22.1145 18.135 22.1147 18.0177C22.1142 17.9511 22.1138 17.8844 22.1133 17.8157C22.1708 17.5265 22.332 17.3639 22.6213 17.3108Z" fill="#FD5523"/>
</g>
<defs>
<clipPath id="clip0_295_5744">
<rect width="30" height="30" fill="white"/>
</clipPath>
</defs>
</svg>
