<svg width="30" height="30" viewBox="0 0 30 30" fill="none" xmlns="http://www.w3.org/2000/svg">
<path d="M2.45307 0.614843C2.52226 0.614195 2.59144 0.613548 2.66273 0.612881C2.7385 0.613364 2.81428 0.613847 2.89236 0.614344C2.97385 0.614032 3.05534 0.613618 3.13683 0.613111C3.36075 0.612018 3.58464 0.61239 3.80856 0.613003C4.05005 0.613412 4.29154 0.612475 4.53302 0.611714C5.00609 0.610445 5.47915 0.610454 5.95221 0.61093C6.33663 0.611299 6.72104 0.611233 7.10546 0.610856C7.16014 0.610803 7.21481 0.61075 7.27115 0.610696C7.38222 0.610587 7.49329 0.610478 7.60436 0.610368C8.64629 0.609396 9.6882 0.609908 10.7301 0.610895C11.6838 0.611756 12.6374 0.610899 13.5911 0.609209C14.5699 0.607488 15.5487 0.606843 16.5276 0.607403C16.6382 0.607463 16.7489 0.607521 16.8596 0.607578C16.9412 0.60762 16.9412 0.60762 17.0246 0.607663C17.4086 0.60779 17.7926 0.607214 18.1766 0.606361C18.6445 0.605336 19.1124 0.605339 19.5803 0.606675C19.8191 0.607329 20.0579 0.60751 20.2967 0.606423C20.5152 0.605441 20.7337 0.605806 20.9522 0.607256C21.0689 0.607679 21.1856 0.606659 21.3023 0.605591C21.8666 0.611528 21.8666 0.611528 22.0487 0.78372C22.1613 0.957154 22.1849 1.04782 22.1833 1.2531C22.1831 1.34288 22.1831 1.34288 22.1829 1.43449C22.1812 1.49646 22.1795 1.55843 22.1778 1.62228C22.178 1.68312 22.1781 1.74396 22.1783 1.80665C22.17 2.46298 22.0325 2.98335 21.5626 3.457C20.8917 3.98805 20.3044 3.86716 19.3946 3.86716C19.3946 5.16266 19.3946 6.45817 19.3946 7.79294C19.8007 7.73493 19.8007 7.73493 20.2149 7.67575C20.426 7.66423 20.6306 7.65606 20.8411 7.65744C20.8959 7.65777 20.9506 7.6581 21.007 7.65844C22.928 7.69129 24.6407 8.45994 26.0157 9.78513C26.0615 9.82652 26.1073 9.86791 26.1544 9.91055C27.4353 11.1048 28.1267 12.9509 28.2002 14.6731C28.2489 16.5982 27.6526 18.4859 26.3163 19.9047C26.2359 19.9888 26.1551 20.0725 26.0743 20.1562C26.0102 20.2259 26.0102 20.2259 25.9448 20.297C24.743 21.568 22.9428 22.2832 21.211 22.3384C20.5865 22.3484 20.0198 22.3032 19.3946 22.207C19.3946 23.5025 19.3946 24.798 19.3946 26.1328C19.8393 26.1328 20.2841 26.1328 20.7423 26.1328C21.3622 26.3808 21.6658 26.5388 21.9702 27.103C22.1514 27.527 22.1717 27.9088 22.1742 28.3667C22.1761 28.4294 22.178 28.4922 22.18 28.5569C22.1804 28.6175 22.1808 28.6782 22.1813 28.7407C22.182 28.7954 22.1828 28.8502 22.1836 28.9066C22.1458 29.0748 22.0931 29.1745 21.9674 29.2932C21.7026 29.4405 21.3668 29.3949 21.0727 29.3922C20.9912 29.3925 20.9097 29.393 20.8282 29.3935C20.6043 29.3946 20.3804 29.3939 20.1565 29.3929C19.915 29.3921 19.6735 29.393 19.432 29.3937C18.9589 29.3948 18.4859 29.3943 18.0128 29.3932C17.6284 29.3924 17.244 29.3922 16.8596 29.3924C16.8049 29.3924 16.7502 29.3924 16.6939 29.3924C16.5828 29.3925 16.4717 29.3926 16.3606 29.3926C15.3781 29.3931 14.3956 29.3922 13.4131 29.3904C12.4594 29.3887 11.5056 29.3883 10.5519 29.3892C9.51376 29.3902 8.47561 29.3904 7.43746 29.3894C7.32679 29.3893 7.21612 29.3892 7.10546 29.3891C7.02378 29.389 7.02378 29.389 6.94045 29.3889C6.55642 29.3886 6.1724 29.3888 5.78838 29.3892C5.32048 29.3896 4.85259 29.3892 4.3847 29.3878C4.14589 29.387 3.90711 29.3867 3.6683 29.3873C3.44978 29.3879 3.23128 29.3874 3.01276 29.3861C2.89609 29.3856 2.7794 29.3863 2.66273 29.3871C2.59354 29.3864 2.52435 29.3858 2.45307 29.3851C2.39336 29.385 2.33364 29.385 2.27212 29.3849C2.0646 29.3473 1.9654 29.2678 1.81649 29.1211C1.77951 28.9585 1.77951 28.9585 1.77964 28.7727C1.77953 28.7047 1.77941 28.6368 1.7793 28.5667C1.78139 28.4604 1.78139 28.4604 1.78353 28.352C1.78289 28.2825 1.78225 28.213 1.78159 28.1415C1.78668 27.5266 1.91696 27.0418 2.34383 26.5873C2.69998 26.2743 3.0698 26.1244 3.54043 26.1271C3.60048 26.1273 3.66052 26.1274 3.72239 26.1276C3.81586 26.1284 3.81586 26.1284 3.91122 26.1291C3.97444 26.1294 4.03766 26.1297 4.10279 26.1299C4.25866 26.1306 4.41453 26.1316 4.5704 26.1328C4.56962 26.0343 4.56962 26.0343 4.56882 25.9338C4.56403 25.3099 4.56054 24.686 4.55825 24.062C4.55704 23.7414 4.5554 23.4208 4.55272 23.1001C4.55014 22.7897 4.54876 22.4793 4.54816 22.1689C4.54773 22.0515 4.5469 21.9341 4.54562 21.8166C4.53533 20.8339 4.62878 19.8634 4.99154 18.9404C5.01745 18.8727 5.01745 18.8727 5.04388 18.8036C5.64914 17.2777 6.78417 15.9449 8.20321 15.1172C8.28073 15.0953 8.35879 15.0752 8.43758 15.0586C8.43758 15.0199 8.43758 14.9812 8.43758 14.9414C8.37425 14.9177 8.37425 14.9177 8.30964 14.8935C7.7524 14.6594 7.30929 14.2653 6.8805 13.8498C6.80321 13.7755 6.72416 13.7031 6.64498 13.6308C5.82358 12.8588 5.26735 11.8392 4.90365 10.7812C4.89014 10.7424 4.87664 10.7036 4.86272 10.6636C4.58022 9.79025 4.54587 8.9416 4.55323 8.03281C4.55356 7.91197 4.55381 7.79114 4.55398 7.67031C4.55465 7.35552 4.55637 7.04074 4.55833 6.72595C4.56014 6.40344 4.56093 6.08092 4.56181 5.75841C4.56369 5.12798 4.56668 4.49757 4.5704 3.86716C4.53264 3.86838 4.49488 3.86961 4.45598 3.87088C4.28173 3.87581 4.10749 3.87881 3.93319 3.88181C3.84414 3.88475 3.84414 3.88475 3.75329 3.88776C3.17006 3.89523 2.70177 3.74675 2.27105 3.34393C1.84258 2.83929 1.80174 2.3075 1.79452 1.67355C1.79233 1.60085 1.79014 1.52816 1.78788 1.45325C1.7872 1.38343 1.78652 1.3136 1.78582 1.24165C1.78408 1.14575 1.78408 1.14575 1.7823 1.04792C1.81649 0.878875 1.81649 0.878875 1.94364 0.752976C2.13376 0.628606 2.22826 0.615105 2.45307 0.614843ZM2.6368 1.46481C2.58936 2.17339 2.58936 2.17339 2.87118 2.75388C3.22947 3.07524 3.58429 3.08846 4.04792 3.08326C4.11842 3.08363 4.18891 3.08401 4.26155 3.08439C4.45625 3.08513 4.65087 3.08456 4.84556 3.08342C5.0559 3.08252 5.26622 3.08331 5.47656 3.08388C5.88817 3.08473 6.29977 3.08401 6.71138 3.08276C7.19082 3.08135 7.67026 3.08145 8.1497 3.0816C9.00512 3.08182 9.86054 3.0806 10.716 3.0786C11.5459 3.07666 12.3758 3.07583 13.2057 3.0762C14.1098 3.07659 15.0139 3.07645 15.918 3.0753C15.9658 3.07524 16.0136 3.07518 16.0628 3.07511C16.1588 3.07499 16.2549 3.07487 16.3509 3.07474C16.685 3.07434 17.0192 3.0743 17.3534 3.07438C17.7605 3.07447 18.1677 3.0739 18.5748 3.07251C18.7825 3.07182 18.9903 3.0714 19.198 3.07174C19.4231 3.0721 19.6482 3.0711 19.8734 3.06995C19.9719 3.07042 19.9719 3.07042 20.0724 3.0709C20.4542 3.06755 20.7346 3.04027 21.0272 2.77035C21.0553 2.73591 21.0833 2.70147 21.1121 2.66598C21.1409 2.63154 21.1697 2.5971 21.1993 2.56161C21.4364 2.22184 21.3282 1.9141 21.3282 1.46481C15.16 1.46481 8.99188 1.46481 2.6368 1.46481ZM5.39071 3.86716C5.16679 7.20459 5.16679 7.20459 5.75326 10.7007C5.77095 10.7472 5.78863 10.7937 5.80686 10.8416C6.45425 12.4888 7.70131 13.7416 9.28742 14.4907C9.46141 14.5749 9.62668 14.6552 9.78524 14.7656C9.84383 14.9377 9.84383 14.9377 9.84383 15.1172C9.71319 15.3559 9.55066 15.4127 9.30184 15.5053C8.51194 15.8217 7.86376 16.3372 7.26571 16.9336C7.21586 16.9821 7.16601 17.0305 7.11465 17.0805C4.75232 19.5097 5.39071 23.0148 5.39071 26.1328C9.74129 26.1328 14.0919 26.1328 18.5743 26.1328C18.8439 20.9352 18.8439 20.9352 16.6297 16.8384C16.0404 16.2713 15.4129 15.8512 14.6636 15.5217C14.6185 15.5018 14.5733 15.4819 14.5268 15.4614C14.4666 15.4358 14.4666 15.4358 14.4052 15.4097C14.2839 15.3445 14.2062 15.2843 14.1212 15.1758C14.1212 14.9707 14.1212 14.9707 14.1798 14.7656C14.3721 14.6284 14.5864 14.533 14.7991 14.4316C15.5019 14.0942 16.0733 13.6591 16.6407 13.125C16.6761 13.0934 16.7114 13.0618 16.7478 13.0293C17.8303 12.0227 18.2935 10.6033 18.5743 9.19919C18.5743 7.43962 18.5743 5.68005 18.5743 3.86716C14.2237 3.86716 9.87313 3.86716 5.39071 3.86716ZM19.3946 8.67185C19.3674 8.78304 19.3674 8.78304 19.3571 8.91835C19.3485 8.99628 19.3485 8.99628 19.3398 9.07578C19.3337 9.13221 19.3276 9.18865 19.3214 9.2468C19.0791 11.2086 18.1288 13.0208 16.5801 14.2763C16.343 14.4606 16.1015 14.6384 15.8577 14.8137C15.7465 14.8938 15.6367 14.9758 15.5274 15.0586C15.605 15.1065 15.605 15.1065 15.6842 15.1554C17.4812 16.2787 18.6906 17.8971 19.2078 19.9585C19.3025 20.41 19.3479 20.8696 19.3946 21.3281C20.908 21.7914 22.6044 21.4597 23.9793 20.7319C24.424 20.487 24.8207 20.2076 25.1954 19.8633C25.2241 19.8371 25.2528 19.8109 25.2823 19.7839C26.522 18.6389 27.2968 17.026 27.3821 15.3357C27.4347 13.6212 26.8932 11.9378 25.7227 10.664C25.6965 10.6353 25.6703 10.6067 25.6433 10.5771C24.5474 9.39045 22.9714 8.57857 21.3452 8.48714C20.3467 8.4294 20.3467 8.4294 19.3946 8.67185ZM2.79099 27.3399C2.54909 27.7325 2.6368 28.0424 2.6368 28.5351C8.80497 28.5351 14.9731 28.5351 21.3282 28.5351C21.3691 27.7704 21.3691 27.7704 21.0096 27.2021C20.7829 27.0031 20.6292 26.9385 20.3276 26.9379C20.2672 26.9374 20.2068 26.937 20.1446 26.9366C20.0784 26.9367 20.0121 26.9369 19.9438 26.937C19.8734 26.9367 19.8029 26.9364 19.7303 26.9361C19.5347 26.9354 19.3391 26.9352 19.1434 26.9352C18.9324 26.9351 18.7215 26.9343 18.5105 26.9337C18.0491 26.9323 17.5877 26.9319 17.1264 26.9316C16.8383 26.9314 16.5502 26.931 16.2621 26.9306C15.4644 26.9294 14.6667 26.9285 13.869 26.9283C13.818 26.9283 13.7669 26.9283 13.7143 26.9283C13.6108 26.9282 13.5073 26.9282 13.4038 26.9282C13.3268 26.9282 13.3268 26.9282 13.2481 26.9282C13.1967 26.9282 13.1453 26.9281 13.0923 26.9281C12.2588 26.9279 11.4254 26.9263 10.592 26.9241C9.73623 26.9219 8.88051 26.9208 8.02478 26.9208C7.54433 26.9207 7.0639 26.9202 6.58347 26.9185C6.17435 26.9171 5.76525 26.9167 5.35613 26.9176C5.14744 26.918 4.93878 26.9179 4.7301 26.9166C4.5037 26.9152 4.27734 26.916 4.05093 26.9171C3.9852 26.9163 3.91947 26.9155 3.85175 26.9147C3.41553 26.9194 3.08355 26.9977 2.79099 27.3399Z" fill="#FD5523"/>
<path d="M12.187 15.4688C12.3219 15.558 12.4233 15.6376 12.5386 15.7471C12.6053 15.8066 12.6722 15.866 12.7391 15.9254C12.7735 15.9564 12.8079 15.9874 12.8434 16.0193C13.3903 16.507 13.9599 16.9094 14.5962 17.2714C15.929 18.0306 16.8939 19.191 17.3543 20.658C17.5855 21.535 17.5982 22.4365 17.5962 23.3384C17.596 23.5169 17.5974 23.6952 17.5988 23.8736C17.599 23.988 17.599 24.1024 17.5989 24.2169C17.5995 24.2697 17.6 24.3226 17.6006 24.377C17.5983 24.6865 17.5733 24.9067 17.3433 25.1367C17.2051 25.1427 17.0686 25.1449 16.9303 25.1446C16.8648 25.1448 16.8648 25.1448 16.7979 25.145C16.6503 25.1453 16.5027 25.1453 16.3551 25.1452C16.2498 25.1454 16.1444 25.1456 16.039 25.1458C15.752 25.1464 15.465 25.1465 15.1779 25.1465C14.9387 25.1466 14.6994 25.1468 14.4602 25.147C13.8959 25.1475 13.3316 25.1476 12.7673 25.1476C12.1844 25.1475 11.6015 25.1482 11.0186 25.1491C10.5189 25.1499 10.0192 25.1502 9.51953 25.1501C9.22076 25.1501 8.92199 25.1503 8.62321 25.1509C8.34226 25.1515 8.0613 25.1515 7.78034 25.1511C7.67705 25.151 7.57376 25.1511 7.47046 25.1515C7.32978 25.1519 7.18912 25.1517 7.04845 25.1512C7.00728 25.1515 6.96611 25.1518 6.92369 25.1521C6.7112 25.1506 6.62712 25.1411 6.44485 25.0195C6.38809 24.8493 6.37853 24.7397 6.37774 24.5625C6.37737 24.5053 6.37699 24.4482 6.37661 24.3893C6.37654 24.3274 6.37648 24.2655 6.37641 24.2017C6.37622 24.1376 6.37602 24.0735 6.37582 24.0074C6.37552 23.8712 6.37539 23.735 6.3754 23.5988C6.37527 23.393 6.37421 23.1871 6.37309 22.9812C6.36829 21.1279 6.73949 19.5831 8.06716 18.2117C8.42457 17.856 8.82609 17.6002 9.25735 17.3438C9.81793 17.0052 10.3439 16.6619 10.8394 16.2305C10.9496 16.1355 11.0599 16.0408 11.1703 15.9461C11.2439 15.8828 11.3173 15.8193 11.3906 15.7557C11.6739 15.5104 11.805 15.4321 12.187 15.4688ZM11.9527 16.4063C11.903 16.4502 11.8533 16.4942 11.8021 16.5395C11.1724 17.0912 10.5298 17.5756 9.803 17.992C8.50366 18.7384 7.71936 19.8081 7.31185 21.2428C7.221 21.6369 7.19806 22.0188 7.20084 22.4213C7.20093 22.4674 7.20101 22.5136 7.2011 22.5611C7.20142 22.7068 7.20215 22.8524 7.2029 22.9981C7.2032 23.0975 7.20347 23.197 7.2037 23.2965C7.20435 23.5388 7.20536 23.7811 7.20657 24.0234C7.31201 23.8653 7.39506 23.7091 7.48122 23.54C7.81748 22.9301 8.26995 22.6381 8.90578 22.3828C9.07676 22.3496 9.07676 22.3496 9.22805 22.3316C9.40177 22.3056 9.46906 22.2911 9.58717 22.1585C9.64417 22.0672 9.69952 21.9748 9.75333 21.8816C10.058 21.3962 10.5404 21.1443 11.0738 20.9766C11.7882 20.8339 12.5032 20.9313 13.1245 21.3281C13.4027 21.5303 13.5869 21.7172 13.7434 22.0239C13.8213 22.1643 13.8213 22.1643 13.9448 22.2656C14.1662 22.3091 14.3743 22.3133 14.5997 22.3155C15.2253 22.3398 15.7912 22.6792 16.2154 23.1262C16.4391 23.3948 16.5701 23.7009 16.6988 24.0234C16.7181 24.0234 16.7374 24.0234 16.7573 24.0234C16.7618 23.7496 16.7649 23.4758 16.767 23.202C16.7679 23.1093 16.7691 23.0167 16.7706 22.924C16.786 21.974 16.6891 21.0894 16.2886 20.2149C16.264 20.1609 16.2395 20.107 16.2142 20.0514C15.7328 19.0887 14.937 18.4361 14.0191 17.9096C13.4707 17.5944 12.9847 17.2183 12.5094 16.8028C12.3328 16.6496 12.1571 16.5198 11.9527 16.4063ZM10.3706 22.3242C10.2681 22.4916 10.177 22.6601 10.0909 22.8365C10.0191 22.9688 10.0191 22.9688 9.90188 23.0274C9.8031 23.0349 9.70419 23.0408 9.60525 23.0457C9.05568 23.0937 8.62953 23.3173 8.26125 23.7305C8.14525 23.9112 8.02688 24.0961 8.02688 24.3164C10.6372 24.3164 13.2476 24.3164 15.937 24.3164C15.7549 23.77 15.5198 23.4958 15.021 23.2107C14.7994 23.105 14.6194 23.0792 14.3749 23.0905C14.3236 23.092 14.2723 23.0935 14.2194 23.0951C14.1118 23.0988 14.0042 23.1034 13.8967 23.1088C13.7513 23.1123 13.6191 23.1126 13.4761 23.0859C13.3596 22.9525 13.3596 22.9525 13.3003 22.793C13.0407 22.3183 12.7107 21.9104 12.1797 21.7383C11.4941 21.5772 10.8277 21.7751 10.3706 22.3242Z" fill="#FD5523"/>
<path d="M9.32867 5.21348C9.51117 5.27437 9.693 5.33648 9.87415 5.40128C11.4439 5.95721 13.082 5.77358 14.6266 5.24049C15.3524 4.99155 16.0365 4.85061 16.8056 4.84132C16.8818 4.84008 16.8818 4.84008 16.9595 4.83881C17.0307 4.83937 17.0307 4.83937 17.1033 4.83994C17.1666 4.84024 17.1666 4.84024 17.2312 4.84054C17.3776 4.87009 17.4284 4.92282 17.5197 5.03907C17.5731 5.19949 17.5859 5.2949 17.5868 5.46011C17.5871 5.50949 17.5875 5.55886 17.5879 5.60972C17.588 5.68991 17.588 5.68991 17.5881 5.77172C17.5883 5.8275 17.5885 5.88327 17.5887 5.94074C17.589 6.05939 17.5891 6.17805 17.5891 6.29671C17.5892 6.47454 17.5903 6.65235 17.5914 6.83019C17.5966 8.59002 17.3561 10.2031 16.1134 11.543C16.0706 11.5898 16.0278 11.6366 15.9836 11.6849C15.5853 12.1021 15.1399 12.4016 14.6425 12.6879C13.914 13.1075 13.2824 13.6075 12.6526 14.1627C12.6174 14.1937 12.5823 14.2247 12.5461 14.2566C12.515 14.2842 12.484 14.3117 12.452 14.3401C12.292 14.4737 12.2003 14.5299 11.9903 14.5525C11.741 14.5276 11.6617 14.473 11.4772 14.3079C11.4218 14.2598 11.3665 14.2116 11.3094 14.1621C11.2506 14.1094 11.1917 14.0567 11.1329 14.0039C10.5665 13.5036 9.98585 13.0788 9.32844 12.7048C8.81185 12.409 8.38748 12.0836 7.96888 11.6602C7.89852 11.5907 7.89852 11.5907 7.82675 11.5199C6.76191 10.4109 6.37859 8.95208 6.37701 7.44759C6.37672 7.35006 6.37672 7.35006 6.37642 7.25055C6.37612 7.114 6.37598 6.97745 6.37599 6.8409C6.37586 6.63171 6.3748 6.42254 6.37369 6.21335C6.37352 6.08033 6.3734 5.94731 6.37335 5.81429C6.37293 5.75179 6.3725 5.68929 6.37207 5.6249C6.37225 5.56679 6.37243 5.50868 6.37262 5.44881C6.37253 5.39784 6.37245 5.34686 6.37236 5.29434C6.38818 5.14355 6.42312 5.04951 6.50404 4.92188C7.24826 4.54977 8.5898 4.97239 9.32867 5.21348ZM7.20716 5.6836C7.20275 6.00857 7.1996 6.33351 7.19751 6.6585C7.19663 6.76861 7.19544 6.87872 7.1939 6.98883C7.17174 8.61679 7.53347 10.0073 8.68803 11.2134C9.02361 11.5345 9.39098 11.7626 9.78964 11.9941C10.4037 12.3513 10.9618 12.7483 11.4891 13.2252C11.5235 13.2562 11.5578 13.2872 11.5932 13.3191C11.6232 13.3467 11.6532 13.3742 11.6841 13.4026C11.7874 13.4844 11.8925 13.5387 12.0119 13.5938C12.0665 13.5449 12.1211 13.496 12.1773 13.4457C12.7567 12.9321 13.3438 12.4775 14.0188 12.0955C15.2073 11.4202 16.1386 10.4648 16.5442 9.12942C16.7647 8.32399 16.7659 7.52664 16.7616 6.69801C16.7613 6.59932 16.761 6.50063 16.7608 6.40195C16.7602 6.1625 16.7592 5.92305 16.7579 5.6836C15.8915 5.66725 15.1251 5.92085 14.3117 6.19777C13.5802 6.44284 12.898 6.52465 12.1302 6.52241C11.9982 6.52223 11.8662 6.5236 11.7342 6.52509C10.8327 6.52927 10.0351 6.35377 9.18104 6.0608C8.5124 5.83301 7.91478 5.67353 7.20716 5.6836Z" fill="#FD5523"/>
<path d="M21.0354 11.4844C21.1621 11.5747 21.1621 11.5747 21.2697 11.7187C21.2902 11.8799 21.2972 12.0169 21.2926 12.1774C21.2923 12.2213 21.292 12.2652 21.2916 12.3104C21.2903 12.4501 21.2874 12.5898 21.2844 12.7295C21.2832 12.8244 21.2821 12.9193 21.2812 13.0142C21.2786 13.2465 21.2746 13.4787 21.2697 13.7109C21.3253 13.7285 21.3809 13.746 21.4382 13.7641C21.7733 13.8812 21.9668 14.1298 22.145 14.4287C22.2399 14.7639 22.2667 15.1263 22.1482 15.4584C22.1488 15.6863 22.193 15.7184 22.3459 15.8798C22.433 15.9636 22.5211 16.0463 22.6101 16.1279C22.6979 16.2111 22.7857 16.2944 22.8733 16.3779C22.9126 16.4143 22.952 16.4507 22.9925 16.4882C23.1354 16.6313 23.1443 16.6933 23.1594 16.9006C23.1447 17.1094 23.1447 17.1094 23.0825 17.2229C22.8903 17.3283 22.7751 17.3206 22.5588 17.2852C22.3209 17.1312 22.1331 16.9209 21.9404 16.7152C21.8895 16.6616 21.8386 16.608 21.7861 16.5527C21.7393 16.5014 21.6926 16.45 21.6444 16.3971C21.5146 16.2721 21.5146 16.2721 21.3608 16.3005C21.2867 16.3238 21.2867 16.3238 21.2112 16.3477C20.7251 16.3958 20.3181 16.3607 19.9221 16.0547C19.5931 15.6721 19.4858 15.3367 19.4925 14.8363C19.53 14.4737 19.6597 14.1877 19.9377 13.9481C20.2811 13.7109 20.2811 13.7109 20.4494 13.7109C20.4482 13.6518 20.447 13.5927 20.4457 13.5318C20.4415 13.3121 20.4388 13.0924 20.4366 12.8727C20.4354 12.7776 20.4338 12.6826 20.4318 12.5876C20.4289 12.4509 20.4276 12.3142 20.4265 12.1774C20.4253 12.1351 20.4241 12.0927 20.4229 12.049C20.4228 11.8473 20.4347 11.7384 20.5571 11.5747C20.7299 11.4515 20.8276 11.4497 21.0354 11.4844ZM20.3908 14.707C20.3072 14.8742 20.3141 14.9903 20.3322 15.1758C20.4377 15.334 20.5129 15.4419 20.6838 15.5273C20.9107 15.5526 21.0075 15.5459 21.2002 15.4175C21.3513 15.2706 21.3821 15.2195 21.4052 15.011C21.3827 14.7814 21.3112 14.6946 21.1526 14.5312C20.8421 14.376 20.6247 14.4798 20.3908 14.707Z" fill="#FD5523"/>
<path d="M24.9466 10.5396C25.137 10.6055 25.137 10.6055 25.2542 10.7043C25.3399 10.9025 25.3253 10.986 25.2542 11.1914C25.1316 11.3624 24.9924 11.5112 24.8441 11.6602C24.8141 11.6915 24.7841 11.7228 24.7532 11.7551C24.5941 11.9065 24.4956 11.9527 24.2764 11.9824C24.0823 11.9531 24.0823 11.9531 23.9688 11.8909C23.8635 11.6987 23.8711 11.5835 23.9066 11.3672C24.023 11.1893 24.1646 11.0461 24.3167 10.8984C24.3511 10.8622 24.3855 10.8259 24.4209 10.7886C24.605 10.6082 24.6808 10.5484 24.9466 10.5396Z" fill="#FD5523"/>
<path d="M24.4922 18.0469C24.6695 18.164 24.8139 18.3044 24.9609 18.457C24.9915 18.4878 25.0221 18.5185 25.0536 18.5502C25.1805 18.6881 25.2552 18.8122 25.3198 18.988C25.3125 19.1602 25.3125 19.1602 25.1953 19.3323C25.0195 19.4531 25.0195 19.4531 24.825 19.4513C24.5691 19.3839 24.4378 19.2658 24.2651 19.0759C24.2225 19.0317 24.2225 19.0317 24.1791 18.9866C23.9957 18.7937 23.9111 18.7 23.8916 18.4314C23.9062 18.2227 23.9062 18.2227 23.9685 18.1091C24.1607 18.0038 24.2759 18.0114 24.4922 18.0469Z" fill="#FD5523"/>
<path d="M21.0359 19.4531C21.1623 19.5355 21.1623 19.5355 21.2703 19.6875C21.3054 19.8833 21.303 20.075 21.2996 20.2734C21.3005 20.3263 21.3014 20.3792 21.3024 20.4337C21.3001 20.8175 21.3001 20.8175 21.1623 21.0114C20.9887 21.1245 20.8876 21.1276 20.6844 21.0937C20.558 21.0114 20.558 21.0114 20.45 20.8594C20.415 20.6636 20.4173 20.4719 20.4207 20.2734C20.4198 20.2206 20.4189 20.1677 20.418 20.1132C20.4202 19.7294 20.4202 19.7294 20.558 19.5355C20.7316 19.4223 20.8327 19.4193 21.0359 19.4531Z" fill="#FD5523"/>
<path d="M26.1331 14.5606C26.186 14.5597 26.2389 14.5588 26.2933 14.5578C26.6772 14.5601 26.6772 14.5601 26.871 14.6979C26.9842 14.8715 26.9873 14.9726 26.9534 15.1758C26.871 15.3022 26.871 15.3022 26.7191 15.4102C26.5232 15.4452 26.3315 15.4429 26.1331 15.4395C26.0538 15.4409 26.0538 15.4409 25.9729 15.4422C25.5891 15.44 25.5891 15.44 25.3952 15.3022C25.282 15.1286 25.2789 15.0275 25.3128 14.8243C25.5157 14.5131 25.7972 14.5548 26.1331 14.5606Z" fill="#FD5523"/>
<path d="M21.0359 8.90625C21.1623 8.98865 21.1623 8.98865 21.2703 9.14062C21.3054 9.33644 21.303 9.52813 21.2996 9.72656C21.3005 9.77943 21.3014 9.83231 21.3024 9.88678C21.3001 10.2706 21.3001 10.2706 21.1623 10.4645C20.9887 10.5777 20.8876 10.5807 20.6844 10.5469C20.558 10.4645 20.558 10.4645 20.45 10.3125C20.415 10.1167 20.4173 9.92499 20.4207 9.72656C20.4198 9.67369 20.4189 9.62082 20.418 9.56634C20.4202 9.18251 20.4202 9.18251 20.558 8.98865C20.7316 8.87546 20.8327 8.87238 21.0359 8.90625Z" fill="#FD5523"/>
</svg>
