<svg width="60" height="60" viewBox="0 0 60 60" fill="none" xmlns="http://www.w3.org/2000/svg">
<path d="M45.9375 13.5938C46.7142 13.5938 47.3438 12.9642 47.3438 12.1875C47.3438 11.4108 46.7142 10.7812 45.9375 10.7812C45.1608 10.7812 44.5312 11.4108 44.5312 12.1875C44.5312 12.9642 45.1608 13.5938 45.9375 13.5938Z" fill="white"/>
<path d="M41.5308 13.3594C42.178 13.3594 42.7026 12.8347 42.7026 12.1875C42.7026 11.5403 42.178 11.0156 41.5308 11.0156C40.8836 11.0156 40.3589 11.5403 40.3589 12.1875C40.3589 12.8347 40.8836 13.3594 41.5308 13.3594Z" fill="white"/>
<path d="M50.3441 13.3594C50.9913 13.3594 51.516 12.8347 51.516 12.1875C51.516 11.5403 50.9913 11.0156 50.3441 11.0156C49.6969 11.0156 49.1722 11.5403 49.1722 12.1875C49.1722 12.8347 49.6969 13.3594 50.3441 13.3594Z" fill="white"/>
<path d="M20.9766 21.394C21.6885 21.394 22.2656 20.8169 22.2656 20.105C22.2656 19.3931 21.6885 18.8159 20.9766 18.8159C20.2646 18.8159 19.6875 19.3931 19.6875 20.105C19.6875 20.8169 20.2646 21.394 20.9766 21.394Z" fill="white"/>
<path d="M15.3516 21.394C16.0635 21.394 16.6406 20.8169 16.6406 20.105C16.6406 19.3931 16.0635 18.8159 15.3516 18.8159C14.6396 18.8159 14.0625 19.3931 14.0625 20.105C14.0625 20.8169 14.6396 21.394 15.3516 21.394Z" fill="white"/>
<path d="M20.4538 24.8455C20.3828 24.7449 20.2928 24.6592 20.1887 24.5934C20.0847 24.5275 19.9687 24.4828 19.8474 24.4618C19.7261 24.4408 19.6018 24.4439 19.4817 24.471C19.3616 24.498 19.248 24.5484 19.1473 24.6193C18.9741 24.7414 18.7692 24.8105 18.5574 24.8185C18.3456 24.8265 18.1361 24.773 17.9541 24.6643L17.692 24.5076C17.4785 24.3801 17.2231 24.3427 16.982 24.4035C16.7409 24.4642 16.5338 24.6183 16.4063 24.8318C16.2788 25.0453 16.2413 25.3006 16.3021 25.5418C16.3629 25.7829 16.517 25.9899 16.7305 26.1175L16.9922 26.2739C17.4855 26.5684 18.0536 26.7136 18.6278 26.6919C19.2019 26.6703 19.7575 26.4827 20.2272 26.1519C20.3279 26.081 20.4136 25.991 20.4795 25.8869C20.5453 25.7829 20.59 25.6669 20.6111 25.5456C20.6321 25.4243 20.629 25.3 20.6021 25.1799C20.5751 25.0598 20.5247 24.9462 20.4538 24.8455Z" fill="white"/>
<path d="M8.43745 58.1537H39.3749C39.4991 58.1537 39.6219 58.1291 39.7364 58.0812C39.851 58.0334 39.9548 57.9633 40.042 57.875C40.1292 57.7867 40.1981 57.6819 40.2445 57.5668C40.2909 57.4517 40.314 57.3286 40.3124 57.2045L40.0968 40.5314C40.072 38.7431 39.3457 37.0361 38.0744 35.7782C36.803 34.5203 35.0884 33.8121 33.2999 33.8063H29.38V30.3962H31.18C32.3398 30.3963 33.4758 30.0673 34.456 29.4474C35.4362 28.8275 36.2203 27.9422 36.7173 26.8943C37.2142 25.8464 37.4035 24.6789 37.2633 23.5277C37.123 22.3764 36.6589 21.2886 35.9248 20.3907L34.5675 18.7296C33.7772 17.7607 33.3451 16.549 33.3439 15.2987V15.2607C33.3458 13.4288 32.8241 11.6346 31.8402 10.0894C30.8563 8.54414 29.4512 7.31235 27.7905 6.53915L27.3291 5.97126C27.2515 5.87571 27.1558 5.79639 27.0475 5.73783C26.9392 5.67928 26.8204 5.64262 26.6979 5.62997C26.5755 5.61731 26.4517 5.6289 26.3337 5.66408C26.2157 5.69925 26.1058 5.75732 26.0103 5.83497C25.9869 5.85348 25.966 5.87317 25.9454 5.89356C25.2126 5.71638 24.4615 5.62627 23.7077 5.62508H19.9469C17.3969 5.62797 14.9522 6.64223 13.1491 8.44534C11.3461 10.2485 10.3318 12.6932 10.329 15.2431V23.6814C10.3313 25.6966 11.1328 27.6286 12.5577 29.0536C13.9826 30.4785 15.9145 31.2802 17.9296 31.2826H18.2559V33.8059H14.5123C12.7242 33.8115 11.0098 34.5193 9.73851 35.7767C8.4672 37.0342 7.74068 38.7407 7.71546 40.5287L7.49995 57.204C7.4984 57.3281 7.5215 57.4513 7.56792 57.5664C7.61434 57.6815 7.68315 57.7862 7.77036 57.8745C7.85757 57.9628 7.96144 58.0329 8.07596 58.0807C8.19047 58.1286 8.31334 58.1532 8.43745 58.1532V58.1537ZM9.38667 56.2787L9.55741 43.1251H14.1754V44.5489L13.9346 44.8487C12.8488 45.9573 12.1769 47.4053 12.0313 48.9502C11.8857 50.495 12.2752 52.0431 13.1347 53.335L14.0625 54.6932V56.2923C14.0117 56.2836 13.9603 56.279 13.9088 56.2787H9.38667ZM33.75 56.2787V54.729L34.8087 53.387C34.8244 53.3674 34.8391 53.3472 34.8528 53.3263C35.7148 52.0271 36.1018 50.4701 35.9482 48.9185C35.7945 47.3669 35.1098 45.916 34.0098 44.8111L33.6848 44.4862L33.6699 43.1211C33.6963 43.1233 33.723 43.1251 33.75 43.1251H38.2551L38.4257 56.2787H33.75ZM38.2218 40.5529L38.2308 41.2501H33.75C33.7164 41.2501 33.6829 41.252 33.6495 41.2556L33.5887 35.6901C34.8317 35.7674 35.9997 36.3113 36.8588 37.213C37.7179 38.1147 38.2047 39.3076 38.2218 40.5529ZM31.814 44.8889C31.8168 45.134 31.9153 45.3682 32.0886 45.5416L32.6835 46.1368C33.4736 46.9304 33.9672 47.9712 34.0817 49.0851C34.1962 50.1991 33.9246 51.3186 33.3124 52.2562L32.0765 53.8229C31.946 53.9883 31.8749 54.1929 31.875 54.4037V56.2787H15.9375V54.4037C15.9375 54.215 15.8805 54.0306 15.7741 53.8748L14.6889 52.2862C14.0665 51.3479 13.7872 50.2235 13.8983 49.103C14.0093 47.9826 14.5039 46.9348 15.2983 46.1369C15.3223 46.1128 15.345 46.0875 15.3663 46.061L15.8443 45.4658C15.978 45.2994 16.0509 45.0923 16.0509 44.8788V35.6809H18.3808L19.1198 40.8548C19.2814 41.9858 19.8455 43.0205 20.7085 43.7691C21.5716 44.5176 22.6757 44.9297 23.8182 44.9297C24.9607 44.9297 26.0648 44.5176 26.9279 43.7691C27.7909 43.0205 28.355 41.9858 28.5166 40.8548L29.2557 35.681H31.7135L31.814 44.8889ZM25.3125 22.5001C25.3124 22.1144 25.3918 21.7329 25.5458 21.3794C25.6998 21.0258 25.925 20.7078 26.2074 20.4452C26.2442 20.4172 26.2788 20.3864 26.3109 20.3532C26.8002 19.9404 27.4158 19.7071 28.0557 19.6917C28.6957 19.6763 29.3218 19.8798 29.8304 20.2686C30.339 20.6574 30.6996 21.2081 30.8527 21.8297C31.0057 22.4513 30.942 23.1066 30.672 23.687C30.4021 24.2675 29.9421 24.7384 29.3681 25.0219C28.7941 25.3054 28.1406 25.3845 27.5155 25.2461C26.8905 25.1077 26.3315 24.76 25.9308 24.2607C25.5302 23.7614 25.3121 23.1403 25.3125 22.5001ZM29.3974 9.9827C30.7309 11.4167 31.4712 13.3029 31.4689 15.2612V15.2991C31.4705 16.9818 32.0521 18.6124 33.1156 19.9163L34.473 21.5775C34.9822 22.2006 35.3041 22.9555 35.4014 23.7544C35.4986 24.5533 35.3672 25.3633 35.0223 26.0905C34.6774 26.8176 34.1333 27.432 33.4532 27.8622C32.773 28.2923 31.9848 28.5207 31.18 28.5207H29.38V27.0156C30.3938 26.7336 31.2832 26.1187 31.9051 25.2699C32.527 24.4211 32.8452 23.3878 32.8085 22.3362C32.7719 21.2846 32.3825 20.2759 31.7029 19.4725C31.0234 18.669 30.0934 18.1176 29.0625 17.9069V9.93536C29.0625 9.83551 29.0585 9.73614 29.0526 9.63641C29.1705 9.74833 29.2863 9.86294 29.3974 9.9827ZM19.9469 7.50008H23.7077C24.6989 7.50153 25.6807 7.69299 26.5999 8.06411C26.9814 8.61365 27.1863 9.26639 27.1875 9.93536V17.9069C26.6898 18.0088 26.2122 18.1914 25.7736 18.4476C25.5304 18.0528 25.4064 17.5961 25.4164 17.1325V13.1688C25.4164 12.9991 25.3703 12.8326 25.2831 12.687C25.1959 12.5415 25.0708 12.4223 24.9212 12.3422C24.7716 12.2622 24.6031 12.2242 24.4336 12.2324C24.2641 12.2406 24.1 12.2947 23.9588 12.3888C21.5294 14.0117 18.6728 14.8766 15.7512 14.8738H12.2133C12.3105 12.8873 13.1673 11.0141 14.6068 9.64165C16.0462 8.26921 17.958 7.50249 19.9469 7.50008ZM17.9296 29.4076C16.4115 29.4058 14.9561 28.802 13.8826 27.7285C12.8091 26.655 12.2052 25.1996 12.2035 23.6814V16.7488H15.7508C18.4663 16.7515 21.1411 16.0885 23.5409 14.8177V17.1329C23.5301 18.0567 23.8191 18.9591 24.3644 19.7048C23.7202 20.5686 23.3941 21.6285 23.4413 22.7051C23.4886 23.7816 23.9062 24.8088 24.6236 25.6129L23.6548 26.5817C23.1158 26.5618 22.5021 26.862 22.0624 27.4177C21.4197 28.2297 21.3925 29.2787 22.0014 29.7607C22.6103 30.2427 23.6252 29.9751 24.2677 29.163C24.5041 28.8692 24.6651 28.5221 24.7365 28.1518L26.1417 26.7466C26.5729 26.9486 27.0326 27.0833 27.5047 27.1457C27.5047 27.1457 27.5108 34.5174 27.5212 34.5734C27.5189 34.586 27.5159 34.5983 27.5141 34.6111L26.6599 40.59C26.562 41.274 26.2207 41.8998 25.6986 42.3525C25.1766 42.8052 24.5087 43.0544 23.8177 43.0544C23.1267 43.0544 22.4589 42.8052 21.9368 42.3525C21.4147 41.8998 21.0734 41.274 20.9756 40.59L20.1215 34.6111C20.1196 34.5983 20.1309 30.3454 20.1309 30.3454C20.1309 30.0968 20.0321 29.8583 19.8563 29.6825C19.6805 29.5067 19.442 29.4079 19.1934 29.4079L17.9296 29.4076ZM14.175 35.6938V41.2501H9.5812L9.59022 40.5507C9.60768 39.3141 10.0884 38.129 10.9374 37.2297C11.7864 36.3304 12.9419 35.7823 14.1754 35.6938H14.175Z" fill="white"/>
<path d="M25.3125 48.75C25.3125 48.9986 25.4113 49.2371 25.5871 49.4129C25.7629 49.5887 26.0014 49.6875 26.25 49.6875H30.9375C31.1861 49.6875 31.4246 49.5887 31.6004 49.4129C31.7762 49.2371 31.875 48.9986 31.875 48.75C31.875 48.5014 31.7762 48.2629 31.6004 48.0871C31.4246 47.9113 31.1861 47.8125 30.9375 47.8125H26.25C26.0014 47.8125 25.7629 47.9113 25.5871 48.0871C25.4113 48.2629 25.3125 48.5014 25.3125 48.75Z" fill="white"/>
<path d="M42.1874 21.7968V24.3749C42.1874 24.549 42.2359 24.7197 42.3274 24.8678C42.419 25.0159 42.5499 25.1356 42.7057 25.2134C42.8614 25.2913 43.0357 25.3243 43.2091 25.3086C43.3825 25.293 43.5481 25.2294 43.6874 25.1249L47.3098 22.4081C49.7955 22.0726 52.0736 20.8421 53.7171 18.9473C55.3606 17.0524 56.2567 14.6232 56.2374 12.115C56.2181 9.60679 55.2848 7.19169 53.6124 5.32231C51.94 3.45294 49.6432 2.25761 47.1526 1.96035C44.662 1.66309 42.1484 2.2843 40.083 3.70756C38.0176 5.13082 36.5422 7.25843 35.9331 9.69166C35.324 12.1249 35.6232 14.6967 36.7746 16.9251C37.9259 19.1536 39.8504 20.8857 42.1874 21.7968ZM45.9374 3.7499C48.0956 3.75078 50.1714 4.57865 51.7379 6.06323C53.3044 7.54781 54.2425 9.57622 54.3591 11.7313C54.4758 13.8863 53.7622 16.0042 52.3652 17.6492C50.9681 19.2942 48.9938 20.3413 46.8483 20.5752C46.6806 20.5932 46.5209 20.6562 46.3859 20.7573L44.0624 22.4999V21.1326C44.0624 20.9331 43.9988 20.7387 43.8808 20.5779C43.7627 20.417 43.5965 20.298 43.4062 20.2382C41.4832 19.6331 39.8404 18.3597 38.775 16.6483C37.7096 14.9369 37.2921 12.9007 37.598 10.9081C37.9039 8.91552 38.913 7.0983 40.4427 5.78529C41.9723 4.47229 43.9215 3.75027 45.9374 3.7499Z" fill="white"/>
</svg>
