<svg width="32" height="32" viewBox="0 0 32 32" fill="none" xmlns="http://www.w3.org/2000/svg">
<path d="M16.9576 2.13043C17.955 2.76009 18.9862 3.2113 20.129 3.49615C20.184 3.51016 20.2391 3.52416 20.2958 3.53859C20.7423 3.64323 21.0853 3.63272 21.5 3.41803C22.0509 3.15591 22.6991 2.96312 23.3125 2.93756C23.4189 2.93273 23.4189 2.93273 23.5274 2.9278C25.179 2.87802 26.6002 3.45573 27.826 4.56256C28.7066 5.40095 29.3738 6.70949 29.4486 7.93068C29.4865 9.7886 29.1609 11.2087 27.8628 12.6027C27.1844 13.3052 26.3599 13.7551 25.4375 14.0626C25.3582 14.2212 25.3641 14.3382 25.3597 14.5157C25.3577 14.5828 25.3557 14.65 25.3537 14.7192C25.3517 14.7913 25.3497 14.8633 25.3477 14.9376C25.2651 17.3581 24.6448 19.1261 23.1875 21.0626C23.851 22.2257 24.5178 23.3869 25.1879 24.5463C25.2949 24.7314 25.4019 24.9166 25.5088 25.1017C25.589 25.2405 25.6692 25.3793 25.7494 25.518C25.8542 25.6993 25.9584 25.8809 26.0625 26.0626C26.0939 26.1163 26.1252 26.1701 26.1574 26.2255C26.2 26.2998 26.2 26.2998 26.2435 26.3755C26.2805 26.4396 26.2805 26.4396 26.3184 26.505C26.4109 26.701 26.4122 26.8519 26.375 27.0626C26.2852 27.2188 26.2852 27.2188 26.125 27.3126C25.6841 27.2915 25.3038 27.1794 24.8892 27.034C24.8264 27.0125 24.7637 26.991 24.699 26.9688C24.4997 26.9003 24.3006 26.8311 24.1016 26.7618C23.9685 26.716 23.8353 26.6702 23.7022 26.6245C23.1121 26.4213 22.5235 26.2148 21.9375 26.0001C21.9295 26.0439 21.9215 26.0877 21.9133 26.1328C21.8351 26.561 21.7556 26.9889 21.6756 27.4167C21.6403 27.6056 21.6053 27.7944 21.5703 27.9833C21.5231 28.2382 21.4752 28.493 21.4269 28.7477C21.408 28.8479 21.3893 28.9482 21.3709 29.0485C21.3447 29.1905 21.3177 29.3323 21.2906 29.4742C21.2792 29.5376 21.2792 29.5376 21.2675 29.6022C21.2144 29.8737 21.1372 30.1129 20.9375 30.3126C20.7416 30.3425 20.6253 30.3589 20.4375 30.3126C20.0978 30.0005 19.8831 29.5168 19.6604 29.1197C19.5962 29.0052 19.5315 28.8908 19.4667 28.7765C19.3767 28.6176 19.2867 28.4587 19.1969 28.2997C18.9873 27.9292 18.7751 27.5602 18.5625 27.1915C18.5237 27.1241 18.4849 27.0567 18.4449 26.9873C18.1794 26.5281 17.9076 26.0739 17.625 25.6251C17.5889 25.6499 17.5527 25.6748 17.5155 25.7004C17.3479 25.8152 17.1799 25.9291 17.0118 26.043C16.9549 26.0821 16.8981 26.1213 16.8395 26.1616C15.8208 26.8491 14.8714 27.0595 13.6556 26.9107C12.7436 26.7135 11.9876 26.102 11.25 25.5626C11.2374 25.6106 11.2247 25.6586 11.2117 25.7081C11.0899 26.0307 10.9147 26.3139 10.7383 26.6094C10.6589 26.7439 10.5796 26.8785 10.5003 27.013C10.4591 27.0827 10.418 27.1523 10.3756 27.2241C10.1699 27.5738 9.96791 27.9257 9.76567 28.2774C9.65025 28.4776 9.53476 28.6777 9.41923 28.8777C9.35066 28.9965 9.28213 29.1153 9.21367 29.2342C9.12714 29.3842 9.04023 29.534 8.95317 29.6837C8.92854 29.7265 8.9039 29.7694 8.87852 29.8135C8.65141 30.2022 8.65141 30.2022 8.50004 30.3126C8.37895 30.3375 8.37895 30.3375 8.25004 30.336C8.2075 30.3365 8.16497 30.337 8.12114 30.3375C7.95888 30.3041 7.91526 30.2553 7.81254 30.1251C7.75915 29.9483 7.75915 29.9483 7.71667 29.7309C7.70872 29.6912 7.70077 29.6515 7.69258 29.6107C7.66653 29.4799 7.64151 29.349 7.6165 29.2181C7.59861 29.1273 7.58066 29.0364 7.56265 28.9456C7.51547 28.7069 7.46916 28.4679 7.42303 28.229C7.37578 27.985 7.32771 27.7413 7.27971 27.4975C7.18568 27.0193 7.09258 26.541 7.00004 26.0626C6.77031 26.1036 6.55709 26.1646 6.33673 26.2412C6.26789 26.2649 6.19905 26.2887 6.12813 26.3132C6.05436 26.3388 5.98059 26.3645 5.90458 26.3909C5.78792 26.4311 5.67126 26.4712 5.55458 26.5113C5.26758 26.61 4.98071 26.709 4.69403 26.8086C4.53291 26.8646 4.3717 26.9202 4.21036 26.9756C4.05863 27.0276 3.90705 27.0801 3.75564 27.1331C3.68661 27.1567 3.61757 27.1803 3.54645 27.2045C3.48604 27.2255 3.42564 27.2464 3.36341 27.2679C3.17102 27.3168 3.01028 27.3271 2.81254 27.3126C2.66411 27.2149 2.66411 27.2149 2.56254 27.0626C2.51822 26.6733 2.62757 26.4513 2.82036 26.129C2.86203 26.0567 2.86203 26.0567 2.90454 25.983C2.99797 25.8215 3.09275 25.6608 3.18754 25.5001C3.25541 25.3835 3.3232 25.2669 3.39091 25.1502C3.53694 24.899 3.68347 24.648 3.83037 24.3973C4.47826 23.2904 5.11496 22.1769 5.75004 21.0626C5.71474 21.0155 5.71474 21.0155 5.67872 20.9675C5.61163 20.878 5.54456 20.7885 5.47752 20.699C5.41642 20.6177 5.35515 20.5364 5.29356 20.4554C4.04326 18.8075 3.65632 16.9408 3.59257 14.9029C3.58995 14.8214 3.58734 14.7399 3.58464 14.6559C3.555 13.7057 3.54022 12.7553 3.52739 11.8047C3.52677 11.7591 3.52615 11.7134 3.52551 11.6664C3.51805 11.1128 3.5112 10.5592 3.50472 10.0055C3.50144 9.72941 3.49758 9.45331 3.49333 9.17722C3.48842 8.85627 3.48472 8.53534 3.48216 8.21437C3.48108 8.1023 3.47958 7.99022 3.4776 7.87815C3.45793 6.72753 3.66118 5.73492 4.4727 4.85944C5.21545 4.15631 6.06706 3.87913 7.06514 3.77556C8.30166 3.64469 9.48885 3.39461 10.625 2.87506C10.6637 2.85754 10.7023 2.84001 10.7421 2.82196C11.2673 2.58086 11.7537 2.29887 12.2383 1.98444C13.8214 0.957288 15.4169 1.15158 16.9576 2.13043ZM12.4971 2.94226C12.0618 3.23842 11.6017 3.46627 11.125 3.68756C11.0553 3.72092 10.9855 3.75427 10.9136 3.78864C9.77328 4.30893 8.53206 4.5748 7.28911 4.68756C6.42775 4.76705 5.69294 4.99466 5.06254 5.62506C4.42758 6.45571 4.41031 7.24733 4.42192 8.25006C4.42272 8.37663 4.42345 8.50319 4.42413 8.62976C4.42696 9.06572 4.43222 9.50163 4.43754 9.93756C4.43853 10.0226 4.4395 10.1076 4.44047 10.1927C4.44775 10.8316 4.45597 11.4705 4.46489 12.1094C4.4655 12.1536 4.4661 12.1978 4.46673 12.2433C4.47967 13.1795 4.49618 14.1155 4.52861 15.0513C4.5308 15.1182 4.53298 15.1851 4.53524 15.2541C4.62381 17.6065 5.43288 19.3305 7.06254 21.0001C7.11185 21.0511 7.16116 21.1022 7.21196 21.1548C8.48668 22.4547 10.0238 23.5084 11.5 24.5626C11.5466 24.5959 11.5931 24.6292 11.641 24.6635C11.9467 24.882 12.2537 25.0986 12.5625 25.3126C12.6269 25.3572 12.6913 25.4018 12.7576 25.4478C13.5259 25.96 14.2793 26.1398 15.1902 25.9632C15.6946 25.8015 16.1305 25.4861 16.5625 25.1876C16.6033 25.1595 16.6441 25.1314 16.6861 25.1025C18.0623 24.1513 19.4238 23.1599 20.6875 22.0626C20.7335 22.0229 20.7794 21.9833 20.8267 21.9424C20.9477 21.8374 21.0677 21.7314 21.1875 21.6251C21.2361 21.5823 21.2847 21.5395 21.3348 21.4954C23.0879 19.938 24.2018 18.19 24.375 15.8126C24.3898 15.5392 24.4005 15.2658 24.4102 14.9922C24.4129 14.9205 24.4156 14.8488 24.4184 14.775C24.4249 14.6 24.4313 14.425 24.4375 14.2501C24.3813 14.2477 24.3813 14.2477 24.324 14.2453C24.1522 14.238 23.9804 14.2304 23.8086 14.2227C23.7497 14.2203 23.6908 14.2178 23.63 14.2153C23.5722 14.2127 23.5144 14.21 23.4549 14.2073C23.3758 14.2039 23.3758 14.2039 23.2952 14.2004C23.0909 14.185 22.89 14.1557 22.6875 14.1251C22.6851 14.1798 22.6826 14.2345 22.68 14.2908C22.5636 16.7386 22.0409 18.5402 20.1875 20.2501C19.963 20.4435 19.7318 20.6279 19.5 20.8126C19.423 20.8756 19.3461 20.9388 19.2693 21.002C18.3784 21.7347 17.4533 22.4186 16.5142 23.0882C16.4217 23.1543 16.3293 23.2206 16.2371 23.2872C16.1052 23.3823 15.9726 23.4765 15.8399 23.5704C15.8013 23.5985 15.7626 23.6265 15.7228 23.6555C15.231 23.9993 14.7219 24.131 14.125 24.0626C13.4794 23.9481 12.9739 23.4995 12.4648 23.1147C12.2607 22.961 12.0544 22.8101 11.8482 22.659C11.6066 22.4818 11.3658 22.3035 11.125 22.1251C11.0885 22.098 11.0519 22.0709 11.0142 22.0431C6.88169 18.9812 6.88169 18.9812 6.43754 16.5626C6.41015 16.3676 6.38971 16.1723 6.37089 15.9764C6.36558 15.9216 6.36027 15.8669 6.3548 15.8104C6.30517 15.2735 6.28349 14.7382 6.27348 14.1993C6.27242 14.1465 6.27135 14.0938 6.27026 14.0394C6.26108 13.568 6.2555 13.0965 6.25004 12.6251C6.24885 12.5294 6.24764 12.4338 6.24643 12.3382C6.23891 11.7369 6.23306 11.1356 6.22973 10.5343C6.22817 10.2534 6.22614 9.97257 6.22286 9.69172C6.21978 9.42322 6.21829 9.15475 6.21792 8.88624C6.21753 8.78623 6.21661 8.68621 6.2151 8.58621C6.20606 7.9549 6.23333 7.41521 6.68693 6.92932C7.19102 6.44641 7.71977 6.3961 8.39067 6.32037C10.1927 6.10129 11.7763 5.51918 13.3054 4.54262C13.8245 4.21455 14.2608 4.13146 14.875 4.18756C15.3007 4.2838 15.6365 4.52366 15.9944 4.76364C16.3483 4.99481 16.7207 5.18068 17.1016 5.36334C17.1604 5.39183 17.2193 5.42031 17.2799 5.44966C18.0501 5.85683 18.0501 5.85683 18.875 5.87506C18.986 5.74156 18.986 5.74156 19.0743 5.57037C19.316 5.16231 19.6101 4.84068 19.9375 4.50006C19.7626 4.38341 19.6231 4.33489 19.4225 4.28163C18.153 3.94408 17.0288 3.3469 15.9375 2.62897C14.7774 1.88639 13.561 2.20893 12.4971 2.94226ZM20.4375 5.31256C20.3891 5.35873 20.3407 5.40489 20.2908 5.45245C19.4695 6.29063 19.0518 7.52547 19.0625 8.68756C19.1361 9.99086 19.6399 11.1372 20.5625 12.0626C21.5785 12.9699 22.7867 13.3855 24.1319 13.336C25.4237 13.2552 26.5039 12.6415 27.3938 11.7274C28.348 10.625 28.588 9.28904 28.5 7.87506C28.3532 6.68171 27.6311 5.65293 26.75 4.87506C24.7756 3.40353 22.187 3.5967 20.4375 5.31256ZM13.375 5.54694C11.8606 6.48517 10.2132 7.00846 8.44263 7.18286C7.91444 7.23809 7.55045 7.33378 7.18754 7.75006C7.09466 7.93584 7.11708 8.10324 7.11696 8.31055C7.11685 8.35552 7.11674 8.40049 7.11662 8.44682C7.11635 8.59706 7.11653 8.74729 7.11674 8.89752C7.1167 9.00375 7.11664 9.10999 7.11656 9.21622C7.11647 9.4409 7.1166 9.66558 7.1169 9.89026C7.11724 10.1705 7.11705 10.4507 7.11668 10.731C7.11546 11.8239 7.12018 12.9167 7.14548 14.0094C7.14775 14.1082 7.14988 14.2071 7.15184 14.306C7.16223 14.8123 7.18695 15.3138 7.24391 15.8171C7.24857 15.8593 7.25323 15.9015 7.25803 15.9449C7.35629 16.7423 7.65538 17.4398 8.06254 18.1251C8.20483 18.0722 8.20483 18.0722 8.24125 17.9051C8.25962 17.8372 8.27799 17.7693 8.29692 17.6993C8.50677 16.9941 8.82205 16.4227 9.31254 15.8751C9.35879 15.8229 9.40503 15.7708 9.45268 15.7171C10.0481 15.0836 10.7816 14.6773 11.5625 14.3126C11.5452 14.2694 11.5279 14.2262 11.5101 14.1817C11.4319 13.986 11.3542 13.7901 11.2774 13.5938C11.2502 13.5248 11.2231 13.4559 11.1951 13.3848C10.8812 12.5011 11.0342 11.5164 11.4141 10.6837C11.8719 9.81323 12.5664 9.30927 13.4815 8.99664C14.3388 8.75082 15.2442 8.84422 16.0555 9.20538C16.9461 9.70735 17.5293 10.4601 17.8125 11.4376C18.0424 12.3323 17.8691 13.2658 17.4368 14.0628C17.3658 14.183 17.3658 14.183 17.375 14.3126C17.4703 14.3569 17.4703 14.3569 17.5674 14.4022C18.9798 15.0743 20.0952 16.0728 20.6268 17.5665C20.6468 17.6271 20.6669 17.6876 20.6875 17.7501C20.7108 17.8197 20.7341 17.8893 20.7581 17.961C20.7761 18.0151 20.794 18.0693 20.8125 18.1251C21.5149 17.4878 21.6943 16.2817 21.75 15.3751C21.7566 15.112 21.756 14.8492 21.754 14.586C21.7535 14.4829 21.7535 14.4829 21.7531 14.3777C21.7524 14.2102 21.7513 14.0426 21.75 13.8751C21.6806 13.8403 21.6111 13.8055 21.5396 13.7696C21.0028 13.4962 20.5092 13.2229 20.0625 12.8126C20.0108 12.7666 19.9591 12.7206 19.9058 12.6732C18.7922 11.6294 18.2364 10.1669 18.1871 8.66144C18.1796 8.05847 18.2688 7.45359 18.4375 6.87506C18.4033 6.86136 18.3691 6.84767 18.3338 6.83356C18.2252 6.79013 18.1168 6.74648 18.0083 6.7027C17.8771 6.65067 17.7453 6.60022 17.6128 6.55133C17.1017 6.35809 16.6178 6.12708 16.1329 5.87506C16.0727 5.84392 16.0125 5.81278 15.9506 5.7807C15.617 5.60475 15.3008 5.41667 14.992 5.20001C14.4082 4.82579 13.8738 5.23412 13.375 5.54694ZM12.8125 10.3751C12.756 10.4221 12.756 10.4221 12.6983 10.47C12.2378 10.8814 11.9692 11.459 11.9227 12.0706C11.9054 12.8668 12.073 13.4767 12.625 14.0626C13.0966 14.5476 13.6368 14.809 14.3125 14.8751C15.0175 14.8843 15.6666 14.6666 16.1875 14.1876C16.7252 13.6565 17.0153 13.0638 17.0235 12.2969C17.0102 11.5489 16.7486 10.9931 16.25 10.4376C15.7587 9.98484 15.1351 9.74888 14.4688 9.71881C13.8398 9.74636 13.2767 9.95094 12.8125 10.3751ZM16.4873 15.0611C16.4451 15.0951 16.4029 15.1291 16.3594 15.1641C15.6501 15.682 14.8273 15.8044 13.9637 15.721C13.4204 15.6359 12.9735 15.4507 12.5281 15.1297C12.3057 15.0322 12.1719 15.0676 11.9375 15.1251C11.7613 15.1939 11.5961 15.2774 11.4297 15.3672C11.3835 15.3922 11.3372 15.4171 11.2896 15.4427C10.2245 16.0373 9.46284 16.9209 9.07451 18.0897C9.03899 18.2271 9.01671 18.3591 9.00004 18.5001C8.99199 18.5561 8.98393 18.612 8.97563 18.6697C8.95501 18.9203 8.94792 19.1073 9.08769 19.3226C9.21776 19.4564 9.35382 19.5717 9.50004 19.6876C9.57485 19.7505 9.57485 19.7505 9.65117 19.8148C9.79472 19.9344 9.93994 20.0517 10.086 20.1683C10.1955 20.2565 10.3039 20.3459 10.4122 20.4356C11.3092 21.1764 12.2491 21.8581 13.2037 22.5225C13.3458 22.6218 13.4833 22.723 13.6206 22.8292C13.9175 23.0566 14.1497 23.1755 14.524 23.2137C14.9592 23.1442 15.3134 22.8587 15.6524 22.5938C15.9998 22.3275 16.3514 22.0701 16.711 21.8204C17.2819 21.4217 17.83 20.9957 18.375 20.5626C18.4265 20.5218 18.4265 20.5218 18.479 20.4803C19.3636 19.8595 19.3636 19.8595 19.9607 19.0464C19.9859 17.9607 19.5132 17.0559 18.7813 16.2757C18.3859 15.8946 17.093 14.7926 16.4873 15.0611ZM6.43754 21.8126C6.35156 21.9295 6.35156 21.9295 6.26689 22.0836C6.23262 22.1429 6.19836 22.2022 6.16305 22.2634C6.12602 22.3286 6.08898 22.3938 6.05082 22.461C5.99304 22.5614 5.99304 22.5614 5.93408 22.6639C5.85197 22.8066 5.77002 22.9495 5.68834 23.0925C5.48469 23.449 5.27936 23.8045 5.07426 24.1602C5.01556 24.2622 5.01556 24.2622 4.95567 24.3662C4.66371 24.8727 4.36658 25.3757 4.06254 25.8751C4.27516 25.9459 4.31816 25.93 4.52257 25.8596C4.60489 25.8317 4.60489 25.8317 4.68887 25.8033C4.77764 25.7724 4.77764 25.7724 4.86821 25.7408C4.95989 25.7097 4.95989 25.7097 5.05343 25.6779C5.24936 25.6113 5.44503 25.544 5.64067 25.4766C5.83543 25.4097 6.03025 25.343 6.22523 25.2767C6.34661 25.2354 6.46787 25.1937 6.58898 25.1517C7.40189 24.8747 7.40189 24.8747 7.75004 25.0001C7.9852 26.1656 8.21278 27.3325 8.43754 28.5001C8.62938 28.3226 8.75624 28.1501 8.88139 27.9212C8.91689 27.8569 8.95238 27.7926 8.98895 27.7264C9.04472 27.624 9.04472 27.624 9.10161 27.5196C9.17973 27.3781 9.25793 27.2367 9.33623 27.0953C9.37459 27.0259 9.41294 26.9565 9.45247 26.885C9.60143 26.6178 9.75463 26.3533 9.9102 26.0899C9.93398 26.0495 9.95775 26.0091 9.98225 25.9675C10.0772 25.8073 10.1726 25.648 10.2742 25.4918C10.3029 25.4475 10.3316 25.4033 10.3611 25.3577C10.3876 25.3177 10.4141 25.2777 10.4414 25.2364C10.5146 25.1184 10.5146 25.1184 10.5 24.9376C10.3785 24.8378 10.2593 24.7511 10.129 24.6641C10.0484 24.6085 9.96803 24.5528 9.88774 24.4969C9.845 24.4672 9.80226 24.4375 9.75822 24.4069C8.87008 23.7778 8.03398 23.0782 7.21 22.3685C7.17588 22.3392 7.14177 22.3099 7.10661 22.2798C7.03085 22.2142 6.95563 22.148 6.88078 22.0815C6.84183 22.0471 6.80287 22.0127 6.76274 21.9774C6.72739 21.9458 6.69204 21.9143 6.65562 21.8818C6.56517 21.8001 6.56517 21.8001 6.43754 21.8126ZM22.1094 22.0469C21.4138 22.6838 20.6919 23.2747 19.9387 23.8422C19.75 23.9848 19.5624 24.1291 19.375 24.2735C19.311 24.3228 19.2469 24.3721 19.181 24.4229C18.9326 24.6146 18.6849 24.8071 18.4375 25.0001C18.706 25.5609 18.9996 26.0989 19.3186 26.6324C19.4582 26.8658 19.5946 27.1008 19.7303 27.3365C19.7697 27.4049 19.8092 27.4733 19.8499 27.5438C19.9284 27.6799 20.0066 27.8162 20.0847 27.9527C20.1385 28.0457 20.1385 28.0457 20.1934 28.1407C20.2414 28.2243 20.2414 28.2243 20.2904 28.3096C20.365 28.4456 20.365 28.4456 20.5 28.5001C20.5081 28.4582 20.5162 28.4163 20.5245 28.3732C20.6084 27.938 20.6938 27.5031 20.78 27.0684C20.812 26.9061 20.8437 26.7436 20.875 26.5812C20.9199 26.3478 20.9662 26.1147 21.0127 25.8817C21.0265 25.8088 21.0402 25.7359 21.0544 25.6609C21.0681 25.5933 21.0819 25.5258 21.0961 25.4562C21.1077 25.3966 21.1194 25.3371 21.1314 25.2757C21.2001 25.0915 21.2661 25.031 21.4375 24.9376C21.8438 24.9487 22.2014 25.0775 22.5813 25.2134C22.7042 25.2562 22.827 25.2991 22.9499 25.3419C23.1419 25.4095 23.334 25.4773 23.5259 25.5452C23.7122 25.6108 23.8987 25.6758 24.0852 25.7408C24.1429 25.7614 24.2005 25.782 24.2598 25.8033C24.3133 25.8219 24.3667 25.8405 24.4218 25.8596C24.4687 25.8762 24.5156 25.8928 24.564 25.9099C24.6997 25.9514 24.6997 25.9514 24.875 25.8751C24.8534 25.8381 24.8319 25.8012 24.8096 25.7632C24.4151 25.0883 24.0214 24.4131 23.6316 23.7356C23.4424 23.4068 23.2525 23.0784 23.0625 22.7501C23.0316 22.6965 23.0007 22.6429 22.9688 22.5877C22.8899 22.4514 22.8104 22.3155 22.7305 22.1797C22.7083 22.1413 22.6862 22.1028 22.6633 22.0632C22.6124 21.9774 22.5567 21.8946 22.5 21.8126C22.3108 21.8126 22.2462 21.9192 22.1094 22.0469Z" fill="white"/>
<path d="M26.375 6.12491C26.5 6.24991 26.5 6.24991 26.5364 6.45889C26.5243 6.8709 26.259 7.19593 26.043 7.53116C25.9705 7.64632 25.8985 7.76172 25.8264 7.87714C25.7758 7.95809 25.7251 8.03897 25.6743 8.11976C25.4839 8.42286 25.2996 8.72912 25.1179 9.0375C25.0917 9.08206 25.0654 9.12662 25.0384 9.17253C24.9354 9.34753 24.8326 9.5226 24.73 9.69783C23.9175 11.0844 23.9175 11.0844 23.5899 11.2108C23.1597 11.1639 22.8209 10.804 22.49 10.5396C22.2777 10.37 22.064 10.2038 21.8457 10.0419C21.7539 9.97194 21.6621 9.90195 21.5703 9.83194C21.5039 9.78415 21.5039 9.78415 21.4362 9.7354C21.1422 9.50728 21.1422 9.50728 21.093 9.30714C21.0859 9.07356 21.1075 8.9585 21.2578 8.77725C21.4851 8.66361 21.5694 8.68378 21.8125 8.74991C21.9498 8.83973 22.0701 8.9273 22.1953 9.03116C22.266 9.08769 22.3367 9.14416 22.4075 9.20059C22.4432 9.22941 22.479 9.25824 22.5158 9.28793C22.6912 9.42761 22.8709 9.56138 23.0508 9.69522C23.1131 9.74179 23.1754 9.78835 23.2395 9.83633C23.2842 9.86969 23.329 9.90304 23.375 9.93741C23.8783 9.15087 24.3526 8.34744 24.8273 7.5435C24.9 7.42062 24.9731 7.29797 25.0462 7.17535C25.1404 7.01744 25.2329 6.8587 25.3244 6.69922C25.3678 6.6252 25.4112 6.55119 25.4546 6.4772C25.4921 6.41216 25.5296 6.34712 25.5682 6.2801C25.8093 5.96649 26.0296 5.97139 26.375 6.12491Z" fill="white"/>
</svg>
