<svg width="40" height="40" viewBox="0 0 40 40" fill="none" xmlns="http://www.w3.org/2000/svg">
<path d="M28.75 4.62986C28.7499 4.47997 28.7262 4.33103 28.6797 4.18853L28.1919 2.58072C28.0766 2.19495 27.8396 1.85685 27.5163 1.61698C27.1929 1.37712 26.8006 1.24838 26.398 1.25002H9.85203C9.44937 1.24831 9.05697 1.37702 8.73355 1.61689C8.41013 1.85676 8.17306 2.1949 8.05781 2.58072L7.57031 4.18853C7.52382 4.33103 7.50009 4.47997 7.5 4.62986V22.9502C7.50048 23.3279 7.65077 23.6901 7.91791 23.9572C8.18505 24.2243 8.54723 24.3746 8.925 24.375H18.252C19.4244 25.5244 20.8965 26.3208 22.5 26.6733V27.5C22.3342 27.5 22.1753 27.5659 22.0581 27.6831C21.9408 27.8003 21.875 27.9593 21.875 28.125V36.25C21.875 36.9131 22.1384 37.5489 22.6072 38.0178C23.0761 38.4866 23.712 38.75 24.375 38.75C25.038 38.75 25.6739 38.4866 26.1428 38.0178C26.6116 37.5489 26.875 36.9131 26.875 36.25V28.125C26.875 27.9593 26.8092 27.8003 26.6919 27.6831C26.5747 27.5659 26.4158 27.5 26.25 27.5V26.6733C27.9737 26.2952 29.5428 25.4047 30.7514 24.1188C31.9599 22.8328 32.7512 21.2115 33.0216 19.4676C33.292 17.7237 33.0288 15.9389 32.2664 14.3473C31.5041 12.7558 30.2783 11.4319 28.75 10.5496V4.62986ZM26.9961 2.94361L27.3472 4.10158C27.3398 4.10158 27.3325 4.10041 27.325 4.10041H20.6673L20.4435 2.50002H26.398C26.5322 2.49945 26.663 2.54235 26.7708 2.62231C26.8786 2.70227 26.9577 2.81499 26.9961 2.94361ZM16.75 5.35939H19.5V7.57681L18.3572 7.1197C18.2081 7.06012 18.0419 7.06012 17.8928 7.1197L16.75 7.57681V5.35939ZM19.1813 2.50002L19.4052 4.10002H16.8448L17.0687 2.50002H19.1813ZM9.85203 2.50002H15.8065L15.5827 4.10002H8.925C8.91719 4.10002 8.91023 4.10103 8.90281 4.10119L9.25391 2.94361C9.29233 2.81499 9.37136 2.70227 9.47917 2.62231C9.58699 2.54235 9.7178 2.49945 9.85203 2.50002ZM25.625 36.25C25.625 36.5815 25.4933 36.8995 25.2589 37.1339C25.0245 37.3683 24.7065 37.5 24.375 37.5C24.0435 37.5 23.7255 37.3683 23.4911 37.1339C23.2567 36.8995 23.125 36.5815 23.125 36.25V28.75H25.625V36.25ZM31.875 18.125C31.8749 19.9141 31.2354 21.6443 30.0718 23.0033C28.9083 24.3624 27.2973 25.2609 25.5296 25.5367C25.3821 25.5594 25.2477 25.6342 25.1505 25.7475C25.0534 25.8608 25 26.0051 25 26.1543V27.5H23.75V26.1543C23.75 26.0051 23.6966 25.8608 23.5995 25.7475C23.5023 25.6342 23.3679 25.5594 23.2204 25.5367C21.8033 25.316 20.4793 24.6937 19.4051 23.7435C18.3309 22.7933 17.5517 21.5551 17.1597 20.1756C16.7677 18.7961 16.7794 17.3331 17.1935 15.96C17.6075 14.587 18.4065 13.3614 19.4958 12.4286C20.5851 11.4958 21.9189 10.8948 23.3393 10.6968C24.7597 10.4989 26.2071 10.7123 27.5099 11.3118C28.8127 11.9113 29.9164 12.8718 30.69 14.0793C31.4637 15.2869 31.8749 16.6909 31.875 18.125ZM24.375 9.37502C22.7761 9.37463 21.2076 9.81248 19.8401 10.641C18.4726 11.4695 17.3583 12.6569 16.6183 14.0743C15.8783 15.4917 15.5409 17.0847 15.6428 18.6804C15.7447 20.2761 16.282 21.8133 17.1962 23.125H8.925C8.87861 23.125 8.83413 23.1065 8.80132 23.0737C8.76852 23.0409 8.75006 22.9964 8.75 22.95V5.52502C8.75006 5.47862 8.76852 5.43415 8.80132 5.40134C8.83413 5.36854 8.87861 5.35008 8.925 5.35002H15.5V8.50002C15.5 8.60216 15.525 8.70276 15.5729 8.79299C15.6208 8.88322 15.69 8.96034 15.7746 9.01761C15.8592 9.07487 15.9565 9.11053 16.0581 9.12147C16.1597 9.1324 16.2624 9.11828 16.3572 9.08033L18.125 8.37314L19.8928 9.08033C19.9876 9.11828 20.0903 9.1324 20.1919 9.12147C20.2935 9.11053 20.3908 9.07487 20.4754 9.01761C20.56 8.96034 20.6292 8.88322 20.6771 8.79299C20.725 8.70276 20.75 8.60216 20.75 8.50002V5.35002H27.325C27.3714 5.35008 27.4159 5.36854 27.4487 5.40134C27.4815 5.43415 27.4999 5.47862 27.5 5.52502V9.95236C26.5026 9.56983 25.4433 9.37412 24.375 9.37502Z" fill="#FD5523"/>
<path d="M18.125 18.125C18.125 19.3611 18.4916 20.5695 19.1783 21.5973C19.8651 22.6251 20.8412 23.4262 21.9832 23.8992C23.1253 24.3723 24.3819 24.4961 25.5943 24.2549C26.8067 24.0138 27.9203 23.4185 28.7944 22.5444C29.6685 21.6703 30.2638 20.5567 30.5049 19.3443C30.7461 18.1319 30.6223 16.8753 30.1492 15.7332C29.6762 14.5912 28.8751 13.6151 27.8473 12.9283C26.8195 12.2416 25.6111 11.875 24.375 11.875C22.718 11.8769 21.1294 12.536 19.9577 13.7077C18.786 14.8794 18.1269 16.468 18.125 18.125ZM29.375 18.125C29.375 19.1139 29.0818 20.0806 28.5323 20.9029C27.9829 21.7251 27.202 22.366 26.2884 22.7444C25.3748 23.1228 24.3695 23.2219 23.3995 23.0289C22.4296 22.836 21.5387 22.3598 20.8395 21.6605C20.1402 20.9613 19.664 20.0704 19.4711 19.1005C19.2781 18.1305 19.3772 17.1252 19.7556 16.2116C20.134 15.298 20.7749 14.5171 21.5971 13.9677C22.4194 13.4182 23.3861 13.125 24.375 13.125C25.7006 13.1265 26.9715 13.6538 27.9089 14.5911C28.8462 15.5285 29.3735 16.7994 29.375 18.125Z" fill="#FD5523"/>
<path d="M21.25 15.625H22.5V20.625H21.25V15.625Z" fill="#FD5523"/>
<path d="M26.25 15.625H26.875V20.625H26.25V15.625Z" fill="#FD5523"/>
<path d="M27.5 15.625H28.125V20.625H27.5V15.625Z" fill="#FD5523"/>
<path d="M23.125 15.625H23.75V20.625H23.125V15.625Z" fill="#FD5523"/>
<path d="M24.375 15.625H25.625V20.625H24.375V15.625Z" fill="#FD5523"/>
<path d="M13.125 16.875H10.625C10.4592 16.875 10.3003 16.9408 10.1831 17.0581C10.0658 17.1753 10 17.3342 10 17.5C10 17.6658 10.0658 17.8247 10.1831 17.9419C10.3003 18.0592 10.4592 18.125 10.625 18.125H13.125C13.2908 18.125 13.4497 18.0592 13.5669 17.9419C13.6842 17.8247 13.75 17.6658 13.75 17.5C13.75 17.3342 13.6842 17.1753 13.5669 17.0581C13.4497 16.9408 13.2908 16.875 13.125 16.875Z" fill="#FD5523"/>
<path d="M12.5 19.375H10.625C10.4592 19.375 10.3003 19.4408 10.1831 19.5581C10.0658 19.6753 10 19.8342 10 20C10 20.1658 10.0658 20.3247 10.1831 20.4419C10.3003 20.5592 10.4592 20.625 10.625 20.625H12.5C12.6658 20.625 12.8247 20.5592 12.9419 20.4419C13.0592 20.3247 13.125 20.1658 13.125 20C13.125 19.8342 13.0592 19.6753 12.9419 19.5581C12.8247 19.4408 12.6658 19.375 12.5 19.375Z" fill="#FD5523"/>
</svg>
