<svg width="40" height="40" viewBox="0 0 40 40" fill="none" xmlns="http://www.w3.org/2000/svg">
<path d="M36.25 7.5H10C9.33719 7.50074 8.70174 7.76438 8.23306 8.23306C7.76438 8.70174 7.50074 9.33719 7.5 10V25H6.25C6.08424 25 5.92527 25.0658 5.80806 25.1831C5.69085 25.3003 5.625 25.4592 5.625 25.625C5.625 25.7908 5.69085 25.9497 5.80806 26.0669C5.92527 26.1842 6.08424 26.25 6.25 26.25H7.5C7.49966 26.6891 7.61571 27.1204 7.83633 27.5H5.625C5.45924 27.5 5.30027 27.5658 5.18306 27.6831C5.06585 27.8003 5 27.9592 5 28.125C5 28.2908 5.06585 28.4497 5.18306 28.5669C5.30027 28.6842 5.45924 28.75 5.625 28.75H36.25C36.9128 28.7493 37.5483 28.4856 38.0169 28.0169C38.4856 27.5483 38.7493 26.9128 38.75 26.25V10C38.7493 9.33719 38.4856 8.70174 38.0169 8.23306C37.5483 7.76438 36.9128 7.50074 36.25 7.5ZM17.5 26.875C17.5 26.7514 17.5367 26.6306 17.6053 26.5278C17.674 26.425 17.7716 26.3449 17.8858 26.2976C18 26.2503 18.1257 26.2379 18.2469 26.262C18.3682 26.2861 18.4795 26.3456 18.5669 26.4331C18.6544 26.5205 18.7139 26.6318 18.738 26.7531C18.7621 26.8743 18.7497 27 18.7024 27.1142C18.6551 27.2284 18.575 27.326 18.4722 27.3947C18.3695 27.4633 18.2486 27.5 18.125 27.5C17.9593 27.4998 17.8004 27.4339 17.6833 27.3167C17.5661 27.1996 17.5002 27.0407 17.5 26.875ZM26.875 26.875C26.875 26.9986 26.8383 27.1194 26.7697 27.2222C26.701 27.325 26.6034 27.4051 26.4892 27.4524C26.375 27.4997 26.2493 27.5121 26.1281 27.488C26.0068 27.4639 25.8955 27.4044 25.8081 27.3169C25.7206 27.2295 25.6611 27.1182 25.637 26.9969C25.6129 26.8757 25.6253 26.75 25.6726 26.6358C25.7199 26.5216 25.8 26.424 25.9028 26.3553C26.0056 26.2867 26.1264 26.25 26.25 26.25C26.4157 26.2502 26.5746 26.3161 26.6917 26.4333C26.8089 26.5504 26.8748 26.7093 26.875 26.875ZM24.4825 27.5H19.8925C20.0358 27.0957 20.0358 26.6543 19.8925 26.25H24.4825C24.3392 26.6543 24.3392 27.0957 24.4825 27.5ZM37.5 26.25C37.4996 26.5814 37.3678 26.8991 37.1334 27.1334C36.8991 27.3678 36.5814 27.4996 36.25 27.5H28.0175C28.1176 27.2172 28.1484 26.9145 28.1073 26.6174C28.0662 26.3202 27.9543 26.0373 27.7811 25.7923C27.6079 25.5474 27.3785 25.3476 27.1121 25.2097C26.8456 25.0718 26.55 24.9999 26.25 25H18.3838L17.7002 24.3164L18.125 23.75H27.1875C27.6018 23.7495 27.9989 23.5848 28.2918 23.2918C28.5848 22.9989 28.7495 22.6018 28.75 22.1875V18.125C28.75 17.9771 28.6975 17.8339 28.6019 17.721C28.5062 17.6081 28.3737 17.5328 28.2277 17.5085L17.5 15.7205V14.375C17.5 14.2721 17.4746 14.1708 17.4261 14.0801C17.3775 13.9894 17.3073 13.9121 17.2217 13.855L15.3467 12.605C15.244 12.5365 15.1234 12.5 15 12.5C14.8766 12.5 14.756 12.5365 14.6533 12.605L12.7783 13.855C12.7095 13.9003 12.6504 13.9588 12.6043 14.027C12.5582 14.0953 12.526 14.172 12.5097 14.2527C12.4933 14.3334 12.4931 14.4166 12.509 14.4974C12.5248 14.5782 12.5565 14.6551 12.6022 14.7236C12.6479 14.7921 12.7067 14.8509 12.7752 14.8966C12.8437 14.9424 12.9205 14.9741 13.0013 14.99C13.0821 15.006 13.1653 15.0058 13.246 14.9895C13.3267 14.9732 13.4034 14.9411 13.4717 14.895L15 13.8762L16.25 14.7095V22.1875C16.25 22.4195 16.3017 22.6486 16.4014 22.8581C16.5011 23.0675 16.6463 23.2522 16.8263 23.3984L16.375 24C16.2847 24.1204 16.2409 24.2692 16.2516 24.4193C16.2622 24.5694 16.3267 24.7106 16.433 24.817L16.9955 25.3795C16.6775 25.6191 16.4441 25.9539 16.3294 26.3353C16.2147 26.7166 16.2245 27.1246 16.3575 27.5H10C9.6686 27.4996 9.35089 27.3678 9.11655 27.1334C8.88222 26.8991 8.75039 26.5814 8.75 26.25H14.375C14.5408 26.25 14.6997 26.1842 14.8169 26.0669C14.9342 25.9497 15 25.7908 15 25.625C15 25.4592 14.9342 25.3003 14.8169 25.1831C14.6997 25.0658 14.5408 25 14.375 25H8.75V10C8.75039 9.6686 8.88222 9.35089 9.11655 9.11655C9.35089 8.88222 9.6686 8.75039 10 8.75H36.25C36.5814 8.75039 36.8991 8.88222 37.1334 9.11655C37.3678 9.35089 37.4996 9.6686 37.5 10V26.25ZM23.125 22.5V21.875H24.375V22.5H23.125ZM20.625 22.5V21.875H21.875V22.5H20.625ZM17.8125 22.5C17.7296 22.5 17.6501 22.4671 17.5915 22.4085C17.5329 22.3499 17.5 22.2704 17.5 22.1875V21.875H19.375V22.5H17.8125ZM27.5 20.625H25.625V20H27.5V20.625ZM24.375 20.625H23.125V20H24.375V20.625ZM21.875 20.625H20.625V20H21.875V20.625ZM19.375 20.625H17.5V20H19.375V20.625ZM25.625 21.875H27.5V22.1875C27.5 22.2704 27.4671 22.3499 27.4085 22.4085C27.3499 22.4671 27.2704 22.5 27.1875 22.5H25.625V21.875ZM27.5 18.75H25.625V18.342L27.5 18.6545V18.75ZM24.375 18.75H23.125V17.9253L24.375 18.1336V18.75ZM21.875 18.75H20.625V17.5086L21.875 17.717V18.75ZM19.375 18.75H17.5V16.9878L19.375 17.3003V18.75Z" fill="#FD5523"/>
<path d="M10 23.125C10 23.2908 10.0658 23.4497 10.1831 23.5669C10.3003 23.6842 10.4592 23.75 10.625 23.75H14.375C14.5408 23.75 14.6997 23.6842 14.8169 23.5669C14.9342 23.4497 15 23.2908 15 23.125C15 22.9592 14.9342 22.8003 14.8169 22.6831C14.6997 22.5658 14.5408 22.5 14.375 22.5H10.625C10.4592 22.5 10.3003 22.5658 10.1831 22.6831C10.0658 22.8003 10 22.9592 10 23.125Z" fill="#FD5523"/>
<path d="M35.3125 10H30.9375C30.6889 10.0003 30.4506 10.0991 30.2749 10.2749C30.0991 10.4506 30.0003 10.6889 30 10.9375V14.0625C30.0003 14.3111 30.0991 14.5494 30.2749 14.7251C30.4506 14.9009 30.6889 14.9997 30.9375 15H35.3125C35.5611 14.9997 35.7994 14.9009 35.9751 14.7251C36.1509 14.5494 36.2497 14.3111 36.25 14.0625V10.9375C36.2497 10.6889 36.1509 10.4506 35.9751 10.2749C35.7994 10.0991 35.5611 10.0003 35.3125 10ZM32.5 11.25V11.875H31.25V11.25H32.5ZM31.25 13.125H32.5V13.75H31.25V13.125ZM35 13.75H33.75V11.25H35V13.75Z" fill="#FD5523"/>
<path d="M20.625 11.25C20.625 11.0842 20.5592 10.9253 20.4419 10.8081C20.3247 10.6908 20.1658 10.625 20 10.625H18.125C17.9592 10.625 17.8003 10.6908 17.6831 10.8081C17.5658 10.9253 17.5 11.0842 17.5 11.25C17.5 11.4158 17.5658 11.5747 17.6831 11.6919C17.8003 11.8092 17.9592 11.875 18.125 11.875H20C20.1658 11.875 20.3247 11.8092 20.4419 11.6919C20.5592 11.5747 20.625 11.4158 20.625 11.25Z" fill="#FD5523"/>
<path d="M28.125 10.625H22.5C22.3342 10.625 22.1753 10.6908 22.0581 10.8081C21.9408 10.9253 21.875 11.0842 21.875 11.25C21.875 11.4158 21.9408 11.5747 22.0581 11.6919C22.1753 11.8092 22.3342 11.875 22.5 11.875H28.125C28.2908 11.875 28.4497 11.8092 28.5669 11.6919C28.6842 11.5747 28.75 11.4158 28.75 11.25C28.75 11.0842 28.6842 10.9253 28.5669 10.8081C28.4497 10.6908 28.2908 10.625 28.125 10.625Z" fill="#FD5523"/>
<path d="M28.125 13.125H20.625C20.4592 13.125 20.3003 13.1908 20.1831 13.3081C20.0658 13.4253 20 13.5842 20 13.75C20 13.9158 20.0658 14.0747 20.1831 14.1919C20.3003 14.3092 20.4592 14.375 20.625 14.375H28.125C28.2908 14.375 28.4497 14.3092 28.5669 14.1919C28.6842 14.0747 28.75 13.9158 28.75 13.75C28.75 13.5842 28.6842 13.4253 28.5669 13.3081C28.4497 13.1908 28.2908 13.125 28.125 13.125Z" fill="#FD5523"/>
<path d="M3.75 23.75H5.625C5.79076 23.75 5.94973 23.6842 6.06694 23.5669C6.18415 23.4497 6.25 23.2908 6.25 23.125C6.25 22.9592 6.18415 22.8003 6.06694 22.6831C5.94973 22.5658 5.79076 22.5 5.625 22.5H3.75C3.58424 22.5 3.42527 22.5658 3.30806 22.6831C3.19085 22.8003 3.125 22.9592 3.125 23.125C3.125 23.2908 3.19085 23.4497 3.30806 23.5669C3.42527 23.6842 3.58424 23.75 3.75 23.75Z" fill="#FD5523"/>
<path d="M2.5 26.25H3.75C3.91576 26.25 4.07473 26.1842 4.19194 26.0669C4.30915 25.9497 4.375 25.7908 4.375 25.625C4.375 25.4592 4.30915 25.3003 4.19194 25.1831C4.07473 25.0658 3.91576 25 3.75 25H2.5C2.33424 25 2.17527 25.0658 2.05806 25.1831C1.94085 25.3003 1.875 25.4592 1.875 25.625C1.875 25.7908 1.94085 25.9497 2.05806 26.0669C2.17527 26.1842 2.33424 26.25 2.5 26.25Z" fill="#FD5523"/>
<path d="M1.875 28.75H3.125C3.29076 28.75 3.44973 28.6842 3.56694 28.5669C3.68415 28.4497 3.75 28.2908 3.75 28.125C3.75 27.9592 3.68415 27.8003 3.56694 27.6831C3.44973 27.5658 3.29076 27.5 3.125 27.5H1.875C1.70924 27.5 1.55027 27.5658 1.43306 27.6831C1.31585 27.8003 1.25 27.9592 1.25 28.125C1.25 28.2908 1.31585 28.4497 1.43306 28.5669C1.55027 28.6842 1.70924 28.75 1.875 28.75Z" fill="#FD5523"/>
</svg>
