<svg width="30" height="30" viewBox="0 0 30 30" fill="none" xmlns="http://www.w3.org/2000/svg">
<g clip-path="url(#clip0_295_5734)">
<path d="M4.46436 13.6633C4.67733 13.8006 4.82835 13.9376 4.89857 14.1869C4.93007 14.4123 4.92999 14.6353 4.92917 14.8623C4.92922 14.9133 4.92927 14.9642 4.92933 15.0167C4.92942 15.1875 4.9291 15.3583 4.92878 15.529C4.92876 15.6514 4.92877 15.7739 4.92881 15.8963C4.92882 16.2287 4.92848 16.5611 4.92807 16.8935C4.9277 17.2409 4.92767 17.5882 4.9276 17.9356C4.92742 18.5934 4.92694 19.2512 4.92635 19.909C4.92557 20.7979 4.92525 21.6868 4.92491 22.5757C4.92436 23.9763 4.92319 25.3768 4.92213 26.7773C6.9524 26.7773 8.98267 26.7773 11.0745 26.7773C11.0718 26.263 11.069 25.7488 11.0662 25.2189C11.0649 24.8501 11.0637 24.4814 11.0627 24.1126C11.0614 23.6358 11.0598 23.159 11.0568 22.6822C11.0544 22.3045 11.0529 21.9268 11.0524 21.5491C11.0521 21.3495 11.0514 21.1498 11.0497 20.9502C11.0374 19.3484 11.0374 19.3484 11.3088 18.6328C11.333 18.5671 11.333 18.5671 11.3577 18.5001C11.5606 17.9979 11.8617 17.6014 12.2463 17.2266C12.2852 17.1858 12.3241 17.145 12.3642 17.103C13.0919 16.3878 14.108 16.08 15.1112 16.0887C16.1468 16.1277 17.0894 16.5428 17.8128 17.2852C17.8535 17.324 17.8943 17.3629 17.9363 17.403C18.1905 17.6616 18.3682 17.9433 18.5342 18.2629C18.5533 18.2987 18.5724 18.3345 18.592 18.3713C19.0139 19.2304 18.9499 20.1781 18.9439 21.1088C18.9427 21.3086 18.9427 21.5084 18.9424 21.7082C18.9419 22.0852 18.9405 22.4622 18.9387 22.8393C18.9365 23.3114 18.9356 23.7834 18.9346 24.2555C18.9329 25.0961 18.9294 25.9367 18.926 26.7773C20.9563 26.7773 22.9866 26.7773 25.0784 26.7773C25.077 25.8854 25.0757 24.9934 25.0743 24.0745C25.0737 23.5102 25.0731 22.946 25.0727 22.3818C25.072 21.4857 25.0711 20.5897 25.0695 19.6936C25.0684 19.0411 25.0676 18.3885 25.0674 17.7359C25.0672 17.3904 25.0668 17.0449 25.066 16.6993C25.0652 16.3741 25.0649 16.0488 25.0651 15.7236C25.0651 15.6042 25.0649 15.4849 25.0644 15.3655C25.0638 15.2025 25.064 15.0394 25.0643 14.8764C25.0638 14.8057 25.0638 14.8057 25.0633 14.7335C25.0649 14.4242 25.0758 14.094 25.2777 13.8432C25.5714 13.6265 25.7673 13.5633 26.1331 13.5937C26.3637 13.6764 26.5034 13.7649 26.6355 13.9744C26.7426 14.2376 26.7436 14.4566 26.7417 14.7379C26.7422 14.8216 26.7422 14.8216 26.7427 14.907C26.7435 15.0938 26.7431 15.2805 26.7427 15.4673C26.743 15.6012 26.7434 15.7352 26.7439 15.8692C26.7449 16.233 26.7449 16.5968 26.7445 16.9606C26.7444 17.2642 26.7447 17.5678 26.7451 17.8714C26.7459 18.6285 26.7457 19.3856 26.745 20.1426C26.7444 20.8 26.7452 21.4573 26.7466 22.1146C26.748 22.7898 26.7486 23.4651 26.7482 24.1403C26.748 24.5193 26.7481 24.8983 26.7492 25.2772C26.7501 25.6335 26.7498 25.9898 26.7487 26.3461C26.7485 26.4769 26.7487 26.6077 26.7493 26.7385C26.7501 26.917 26.7494 27.0954 26.7484 27.2738C26.7489 27.3257 26.7495 27.3775 26.7501 27.431C26.7463 27.7496 26.6955 27.93 26.4846 28.1836C26.2371 28.4079 26.0115 28.4252 25.6857 28.4262C25.6184 28.4265 25.5512 28.4269 25.4818 28.4272C25.3715 28.4273 25.3715 28.4273 25.2589 28.4274C25.1804 28.4277 25.102 28.428 25.0235 28.4283C24.8106 28.4291 24.5976 28.4294 24.3847 28.4297C24.2515 28.4299 24.1184 28.4301 23.9853 28.4304C23.5684 28.4312 23.1516 28.4317 22.7348 28.432C22.2542 28.4322 21.7735 28.4333 21.2928 28.4349C20.921 28.4362 20.5491 28.4368 20.1772 28.4369C19.9553 28.4369 19.7333 28.4373 19.5114 28.4383C19.3025 28.4393 19.0936 28.4394 18.8848 28.4389C18.772 28.4389 18.6592 28.4397 18.5464 28.4405C18.1802 28.4387 17.8974 28.4303 17.5784 28.2422C17.3322 27.9377 17.2782 27.7079 17.2777 27.3254C17.2774 27.2243 17.2774 27.2243 17.277 27.1211C17.2771 27.0105 17.2771 27.0105 17.2771 26.8976C17.2769 26.8189 17.2767 26.7403 17.2765 26.6616C17.276 26.4923 17.2757 26.323 17.2755 26.1537C17.2752 25.8854 17.2742 25.6172 17.2731 25.349C17.2727 25.257 17.2724 25.1651 17.272 25.0731C17.2718 25.0271 17.2716 24.981 17.2714 24.9335C17.269 24.3093 17.267 23.685 17.2663 23.0607C17.2658 22.6394 17.2645 22.2181 17.2622 21.7968C17.2611 21.5741 17.2604 21.3515 17.2607 21.1288C17.2609 20.9189 17.2601 20.7091 17.2585 20.4993C17.2579 20.3865 17.2584 20.2738 17.259 20.161C17.2517 19.4692 17.0761 18.8979 16.5823 18.3984C16.0184 17.9186 15.4946 17.7655 14.7624 17.7924C14.1411 17.8465 13.6451 18.1216 13.242 18.5953C12.8187 19.1656 12.7478 19.6697 12.7521 20.3704C12.7519 20.4499 12.7517 20.5295 12.7514 20.6091C12.7509 20.7794 12.751 20.9497 12.7514 21.1201C12.7521 21.3898 12.7514 21.6594 12.7504 21.9291C12.7483 22.5987 12.748 23.2683 12.7481 23.9379C12.7482 24.4589 12.7478 24.98 12.7458 25.501C12.7448 25.7688 12.7449 26.0365 12.7458 26.3043C12.7462 26.4712 12.7455 26.638 12.7446 26.8049C12.7443 26.9184 12.7451 27.032 12.746 27.1455C12.7426 27.5585 12.7048 27.8331 12.4807 28.1836C12.2435 28.4134 12.0013 28.4252 11.6818 28.4262C11.6145 28.4265 11.5473 28.4269 11.4779 28.4272C11.3676 28.4273 11.3676 28.4273 11.255 28.4274C11.1765 28.4277 11.0981 28.428 11.0196 28.4283C10.8067 28.4291 10.5937 28.4294 10.3808 28.4297C10.2476 28.4299 10.1145 28.4301 9.98135 28.4304C9.56454 28.4312 9.14773 28.4317 8.73091 28.432C8.25025 28.4322 7.76959 28.4333 7.28893 28.4349C6.91705 28.4362 6.54518 28.4368 6.17331 28.4369C5.95135 28.4369 5.72941 28.4373 5.50746 28.4383C5.29859 28.4393 5.08973 28.4394 4.88085 28.4389C4.76806 28.4389 4.65527 28.4397 4.54248 28.4405C4.17564 28.4387 3.89489 28.4285 3.57447 28.2422C3.28547 27.9304 3.27279 27.715 3.27288 27.3024C3.27266 27.2468 3.27245 27.1913 3.27223 27.134C3.27158 26.9467 3.27135 26.7593 3.27113 26.572C3.27076 26.4381 3.27038 26.3043 3.26997 26.1704C3.26894 25.8059 3.26833 25.4414 3.26784 25.0768C3.26754 24.8492 3.26719 24.6216 3.26682 24.394C3.26583 23.7638 3.26497 23.1337 3.26455 22.5035C3.26444 22.3399 3.26432 22.1764 3.26421 22.0128C3.26418 21.9721 3.26415 21.9315 3.26412 21.8896C3.26364 21.2312 3.26215 20.5727 3.26025 19.9143C3.25831 19.2384 3.25727 18.5624 3.25707 17.8864C3.25693 17.5069 3.2564 17.1274 3.25493 16.7478C3.25357 16.3907 3.25332 16.0337 3.25392 15.6766C3.25395 15.5455 3.25358 15.4144 3.25278 15.2834C3.25174 15.1044 3.25215 14.9255 3.25292 14.7465C3.25228 14.6947 3.25164 14.6428 3.25098 14.5894C3.25452 14.2487 3.3173 14.0487 3.51588 13.7695C3.82739 13.5549 4.11137 13.5318 4.46436 13.6633Z" fill="#FD5523"/>
<path d="M15.3511 1.64062C15.598 1.78859 15.8237 1.95881 16.0514 2.13449C16.2233 2.26628 16.398 2.39417 16.5726 2.52234C16.7153 2.62708 16.8577 2.73225 17 2.83744C17.2694 3.03604 17.5404 3.23223 17.8121 3.42773C18.4094 3.8578 19.0012 4.29518 19.5931 4.73264C20.0914 5.10088 20.5905 5.46798 21.0933 5.83007C21.6906 6.26017 22.2824 6.69753 22.8743 7.13499C23.3727 7.50322 23.8717 7.87032 24.3746 8.23242C24.9719 8.66251 25.5637 9.09987 26.1556 9.53733C26.6539 9.90556 27.153 10.2727 27.6558 10.6348C28.0295 10.9039 28.4018 11.1749 28.7728 11.4477C28.8174 11.4805 28.862 11.5132 28.9079 11.547C29.0379 11.6427 29.1673 11.7391 29.2965 11.8359C29.3439 11.8713 29.3913 11.9067 29.4402 11.9431C29.5103 11.9963 29.5103 11.9963 29.5819 12.0506C29.6241 12.0825 29.6662 12.1143 29.7097 12.1471C29.8772 12.2924 29.9879 12.4105 30.025 12.632C30.0254 12.8943 30.0161 13.0864 29.9117 13.3301C29.7198 13.5219 29.5625 13.605 29.2965 13.6523C28.8677 13.6276 28.5771 13.4275 28.2491 13.1689C28.1511 13.0942 28.053 13.0195 27.955 12.9449C27.9054 12.9066 27.8558 12.8684 27.8047 12.829C27.5708 12.6496 27.3332 12.4754 27.0955 12.301C27.0495 12.2671 27.0035 12.2332 26.9561 12.1982C26.6438 11.9681 26.33 11.7403 26.0152 11.5137C25.4179 11.0836 24.8261 10.6462 24.2342 10.2088C23.7359 9.84052 23.2368 9.47342 22.734 9.11132C22.1367 8.68123 21.5449 8.24387 20.953 7.80641C20.4546 7.43818 19.9556 7.07108 19.4527 6.70898C18.8554 6.27889 18.2636 5.84153 17.6717 5.40407C17.5318 5.30066 17.3918 5.19731 17.2518 5.09399C17.2061 5.0603 17.1605 5.02662 17.1135 4.99191C16.7448 4.72028 16.3738 4.4518 16.0012 4.18551C15.732 3.99236 15.472 3.79259 15.2237 3.57284C15.0711 3.49118 14.9881 3.52883 14.8238 3.57421C14.7033 3.64158 14.7033 3.64158 14.5908 3.73054C14.5473 3.76313 14.5037 3.79572 14.4589 3.8293C14.4125 3.86476 14.3662 3.90023 14.3184 3.93676C14.2182 4.01208 14.1179 4.08738 14.0177 4.16267C13.9666 4.20129 13.9155 4.23992 13.8629 4.27971C13.628 4.45669 13.3909 4.63062 13.1539 4.80468C13.0612 4.87295 12.9685 4.94123 12.8758 5.00953C12.8299 5.04336 12.784 5.07719 12.7367 5.11204C12.5967 5.21527 12.4567 5.31861 12.3169 5.42198C11.8218 5.78758 11.3252 6.15062 10.8258 6.51022C10.3196 6.87519 9.81785 7.24626 9.31599 7.61718C8.72765 8.05202 8.13822 8.48506 7.54453 8.91257C7.0383 9.27753 6.5366 9.6486 6.03474 10.0195C5.4464 10.4544 4.85697 10.8874 4.26328 11.3149C3.94539 11.5441 3.62916 11.7754 3.31379 12.0081C3.26807 12.0418 3.22234 12.0755 3.17523 12.1102C2.93473 12.2878 2.69446 12.4656 2.45434 12.6437C2.40509 12.6801 2.35584 12.7166 2.3051 12.7541C2.21191 12.8231 2.1188 12.8921 2.02577 12.9613C1.08222 13.6592 1.08222 13.6592 0.702708 13.6523C0.442356 13.6003 0.276061 13.5187 0.0874741 13.3301C-0.0331877 13.0485 -0.0760898 12.7803 -0.000416506 12.4805C0.205738 12.1625 0.491029 11.9521 0.801585 11.7444C0.890543 11.6832 0.979423 11.622 1.06823 11.5606C1.11413 11.529 1.16002 11.4974 1.20731 11.4648C1.44022 11.3023 1.66837 11.1334 1.89656 10.9644C1.94283 10.9301 1.9891 10.8959 2.03677 10.8607C2.13095 10.791 2.22509 10.7213 2.31922 10.6516C2.95416 10.1812 3.59073 9.71325 4.23198 9.25148C4.73821 8.88652 5.23991 8.51545 5.74177 8.14453C6.33011 7.70969 6.91954 7.27665 7.51323 6.84914C8.01946 6.48418 8.52116 6.11311 9.02302 5.74218C9.61136 5.30735 10.2008 4.87431 10.7945 4.4468C11.3007 4.08183 11.8024 3.71076 12.3043 3.33984C12.675 3.06586 13.046 2.79234 13.4176 2.51953C13.4656 2.48416 13.5137 2.44879 13.5632 2.41235C13.7061 2.3074 13.8493 2.20284 13.9925 2.09838C14.0356 2.06669 14.0786 2.035 14.123 2.00235C14.8603 1.46686 14.8603 1.46686 15.3511 1.64062Z" fill="#FD5523"/>
</g>
<defs>
<clipPath id="clip0_295_5734">
<rect width="30" height="30" fill="white"/>
</clipPath>
</defs>
</svg>
