<svg width="30" height="30" viewBox="0 0 30 30" fill="none" xmlns="http://www.w3.org/2000/svg">
<g clip-path="url(#clip0_303_203)">
<path d="M7.96828 3.75C8.04953 3.8356 8.04953 3.8356 8.12575 3.94775C8.15136 3.98446 8.17696 4.02117 8.20334 4.05899C8.26125 4.16016 8.26125 4.16016 8.26125 4.27734C8.22288 4.28172 8.18451 4.28611 8.14498 4.29062C7.55879 4.37507 6.97751 4.60426 6.56203 5.03906C6.13439 5.62057 5.91401 6.25413 5.7051 6.93832C5.67523 7.03502 5.67523 7.03502 5.64477 7.13366C5.60172 7.27312 5.55878 7.41262 5.51594 7.55215C5.44763 7.77465 5.37904 7.99707 5.31035 8.21946C5.29862 8.25744 5.28689 8.29541 5.2748 8.33454C5.25075 8.4124 5.2267 8.49025 5.20265 8.56811C5.16575 8.68758 5.12889 8.80706 5.09203 8.92654C4.81944 9.80983 4.5436 10.6921 4.26758 11.5743C4.21723 11.7352 4.1669 11.8962 4.11658 12.0571C4.09232 12.1347 4.06806 12.2123 4.04379 12.2899C3.98642 12.4733 3.92909 12.6567 3.87185 12.8402C3.78001 13.1344 3.68792 13.4285 3.59307 13.7218C3.57905 13.7654 3.56503 13.8091 3.55059 13.8541C3.51565 13.9626 3.48031 14.071 3.44492 14.1794C3.37976 14.4237 3.37557 14.632 3.39797 14.8828C3.43236 14.8922 3.46675 14.9015 3.50218 14.9112C3.801 14.9926 4.09977 15.0743 4.39849 15.1561C4.88512 15.2894 5.37191 15.4221 5.85883 15.5543C6.12604 15.6269 6.39319 15.6997 6.66021 15.773C6.92029 15.8444 7.18053 15.9152 7.44088 15.9856C7.53949 16.0124 7.63805 16.0394 7.73655 16.0666C7.87432 16.1046 8.01227 16.1418 8.15028 16.1789C8.19032 16.1901 8.23036 16.2014 8.27161 16.2129C8.55088 16.2868 8.79545 16.2987 9.08156 16.2891C9.31487 15.8209 9.44767 15.3326 9.58671 14.8306C9.6302 14.6736 9.67419 14.5168 9.7183 14.36C9.81167 14.0278 9.90442 13.6954 9.99709 13.363C10.1049 12.9763 10.213 12.5896 10.3217 12.2031C10.3651 12.0485 10.408 11.8937 10.4509 11.739C10.4773 11.6447 10.5038 11.5505 10.5303 11.4562C10.5421 11.4131 10.5539 11.37 10.5661 11.3255C10.6503 11.029 10.6503 11.029 10.7808 10.8984C10.8281 10.9115 10.8281 10.9115 10.8763 10.9247C11.2051 11.0152 11.534 11.1055 11.863 11.1956C11.9856 11.2293 12.1083 11.263 12.2309 11.2967C12.4074 11.3453 12.584 11.3937 12.7606 11.442C12.8152 11.4571 12.8698 11.4722 12.926 11.4877C13.4237 11.6386 13.4237 11.6386 13.9302 11.6016C14.1356 11.4988 14.1356 11.4988 14.2158 11.2866C14.2509 11.081 14.2509 11.081 14.1902 10.9167C13.882 10.5909 13.3843 10.4941 12.9618 10.3871C12.9095 10.3734 12.8572 10.3597 12.8033 10.3456C12.6383 10.3024 12.4731 10.2598 12.3079 10.2173C12.0887 10.1608 11.8697 10.1038 11.6508 10.0465C11.6005 10.0338 11.5502 10.021 11.4984 10.0079C11.452 9.99574 11.4056 9.9836 11.3578 9.97109C11.317 9.96061 11.2762 9.95013 11.2341 9.93933C11.1323 9.90234 11.1323 9.90234 11.0152 9.78516C11.0347 9.72084 11.0542 9.65653 11.0743 9.59026C11.1477 9.34733 11.2193 9.10391 11.2905 8.86033C11.3213 8.75577 11.3526 8.65134 11.3843 8.54705C11.6514 7.66741 11.8714 6.78285 11.4253 5.91797C11.259 5.6299 11.0794 5.38709 10.8394 5.15625C10.8394 5.11758 10.8394 5.07891 10.8394 5.03906C11.2849 4.89055 11.2849 4.89055 11.5425 4.98047C12.1219 5.64417 12.3279 6.5059 12.2715 7.3643C12.1778 8.06724 11.9297 8.75889 11.7183 9.43359C11.8211 9.46058 11.8211 9.46058 11.926 9.48811C12.1822 9.55557 12.4381 9.62407 12.6939 9.69287C12.8043 9.72241 12.9148 9.75168 13.0253 9.78065C13.1849 9.82254 13.3443 9.86544 13.5036 9.90852C13.5524 9.92111 13.6013 9.9337 13.6516 9.94666C14.0463 10.0551 14.4462 10.2089 14.6773 10.5652C14.7811 10.8205 14.7842 10.9779 14.7652 11.25C14.8244 11.2621 14.8836 11.2742 14.9446 11.2866C15.2438 11.3735 15.4824 11.5631 15.6546 11.8231C15.7135 11.9371 15.7653 12.052 15.8153 12.1701C15.8346 12.2134 15.8539 12.2567 15.8739 12.3014C15.9349 12.4388 15.9946 12.5768 16.0542 12.7148C16.0931 12.8027 16.1322 12.8906 16.1713 12.9784C16.2729 13.2071 16.3733 13.4363 16.4732 13.6657C16.5875 13.9278 16.7022 14.1897 16.8169 14.4516C16.8527 14.5334 16.8527 14.5334 16.8892 14.6168C17.1553 15.2241 17.4251 15.8298 17.6948 16.4355C18.0902 17.3235 18.4829 18.2125 18.8728 19.1028C19.2197 19.8946 19.5698 20.6849 19.9214 21.4746C20.2872 22.2965 20.6522 23.1188 21.0144 23.9423C21.0587 24.043 21.103 24.1437 21.1474 24.2444C21.4318 24.8897 21.7067 25.5381 21.9722 26.1914C21.8544 26.1541 21.7374 26.1146 21.6206 26.0742C21.514 26.038 21.514 26.038 21.4052 26.0011C21.1681 25.8761 21.1242 25.7905 21.0239 25.5453C21.0089 25.5097 20.9938 25.4741 20.9783 25.4375C20.9287 25.3194 20.881 25.2006 20.8333 25.0818C20.798 24.9973 20.7627 24.9129 20.7271 24.8285C20.6522 24.6505 20.5779 24.4723 20.5038 24.294C20.3407 23.9034 20.1673 23.5175 19.9941 23.1313C19.895 22.9101 19.7965 22.6886 19.698 22.467C19.678 22.422 19.658 22.377 19.6374 22.3306C19.403 21.8032 19.1716 21.2745 18.94 20.7459C18.5434 19.8409 18.1436 18.9374 17.7418 18.0347C17.4017 17.2705 17.0626 16.5059 16.7248 15.7407C16.6555 15.5838 16.5861 15.4271 16.5168 15.2703C16.3138 14.8116 16.1113 14.3527 15.9111 13.8928C15.8256 13.6965 15.7396 13.5004 15.6536 13.3043C15.6136 13.2129 15.5738 13.1214 15.5343 13.0298C15.48 12.904 15.425 12.7786 15.3699 12.6533C15.3392 12.5828 15.3085 12.5123 15.277 12.4397C15.1296 12.1591 14.9899 11.9392 14.6883 11.814C14.6363 11.8019 14.5843 11.7898 14.5308 11.7773C14.5114 11.8354 14.4921 11.8934 14.4722 11.9531C14.1467 12.1744 13.867 12.2737 13.464 12.222C13.3692 12.1998 13.3692 12.1998 13.2724 12.1772C13.2011 12.1606 13.1299 12.144 13.0565 12.1269C12.6795 12.032 12.3049 11.9303 11.9307 11.825C11.8526 11.8031 11.7744 11.7814 11.6963 11.7596C11.5083 11.7071 11.3203 11.6545 11.1323 11.6016C10.9047 12.3308 10.6879 13.0624 10.4853 13.7991C10.4654 13.8712 10.4455 13.9433 10.425 14.0176C10.3431 14.3148 10.2612 14.6121 10.1804 14.9096C10.1203 15.1305 10.0593 15.351 9.99823 15.5715C9.98022 15.6385 9.96221 15.7055 9.94366 15.7746C9.82814 16.1888 9.72549 16.4899 9.39284 16.7761C9.21243 16.868 9.11816 16.8925 8.92295 16.9105C8.87575 16.915 8.82856 16.9196 8.77994 16.9243C8.72621 16.9289 8.72621 16.9289 8.6714 16.9336C8.67926 16.9884 8.68711 17.0433 8.6952 17.0998C8.88599 18.4328 9.0767 19.7658 9.2673 21.0988C9.35948 21.7434 9.45168 22.388 9.54396 23.0326C9.62436 23.5943 9.70471 24.156 9.78499 24.7176C9.82752 25.0152 9.87008 25.3128 9.91271 25.6103C9.95279 25.8901 9.9928 26.1699 10.0327 26.4497C10.0475 26.5527 10.0622 26.6556 10.077 26.7586C10.0971 26.8986 10.117 27.0387 10.137 27.1787C10.1429 27.2199 10.1489 27.261 10.155 27.3034C10.1948 27.5843 10.1948 27.5843 10.1948 27.7148C10.2353 27.7121 10.2757 27.7094 10.3173 27.7066C10.7174 27.6912 11.0255 27.7303 11.3667 27.9492C11.619 28.2015 11.7231 28.4455 11.7366 28.7988C11.7304 29.0316 11.6946 29.1719 11.5425 29.3555C11.0448 29.8067 10.2574 29.8091 9.61623 29.8938C9.50667 29.9094 9.50667 29.9094 9.3949 29.9253C9.01487 29.9762 8.63671 30.0125 8.25347 30.0213C8.18329 30.023 8.11311 30.0248 8.04081 30.0266C7.80426 29.9934 7.71887 29.942 7.55812 29.7656C7.38275 29.363 7.29457 28.9453 7.20102 28.5175C7.18371 28.4395 7.16636 28.3615 7.14899 28.2835C7.10221 28.0731 7.05585 27.8626 7.00957 27.6521C6.96101 27.4316 6.91207 27.2111 6.86318 26.9907C6.77077 26.5739 6.67871 26.157 6.58678 25.7401C6.48205 25.2652 6.37693 24.7903 6.27177 24.3155C6.05559 23.3394 5.8399 22.3631 5.62453 21.3867C5.5292 21.5297 5.46786 21.6455 5.40413 21.8023C5.38423 21.851 5.36433 21.8997 5.34383 21.9498C5.32233 22.003 5.30084 22.0561 5.27869 22.1109C5.24441 22.195 5.24441 22.195 5.20943 22.2808C5.13398 22.4661 5.05882 22.6515 4.98366 22.8369C4.93151 22.9652 4.87934 23.0934 4.82716 23.2217C4.66294 23.6255 4.49914 24.0295 4.33547 24.4336C4.29466 24.5343 4.29466 24.5343 4.25304 24.6371C3.9088 25.487 3.56522 26.3371 3.22219 27.1875C3.27636 27.2168 3.27636 27.2168 3.33162 27.2467C3.40276 27.2856 3.40276 27.2856 3.47533 27.3253C3.52232 27.3509 3.56931 27.3764 3.61772 27.4028C3.9436 27.5948 4.10167 27.8276 4.21828 28.1836C4.25262 28.5041 4.19259 28.7198 4.0425 29.0039C3.88732 29.1826 3.78298 29.2859 3.54434 29.3143C2.91926 29.3373 2.37174 29.1889 1.77663 29.0126C1.60992 28.9633 1.4427 28.9163 1.27532 28.8694C1.16801 28.8385 1.06074 28.8074 0.953509 28.7762C0.904067 28.7623 0.854625 28.7484 0.803684 28.7341C0.492619 28.6403 0.291158 28.5289 0.0581231 28.3008C-0.186667 27.8112 0.0860624 27.1491 0.230013 26.6597C0.254978 26.5725 0.279863 26.4852 0.304676 26.3979C0.358228 26.2101 0.412297 26.0225 0.466784 25.835C0.553971 25.5349 0.64 25.2346 0.725829 24.9341C0.8171 24.6147 0.908435 24.2954 1.00015 23.9762C1.22945 23.1778 1.45552 22.3786 1.67975 21.5788C1.69589 21.5212 1.71204 21.4636 1.72867 21.4043C1.80935 21.1165 1.88999 20.8287 1.97059 20.5408C2.12057 20.0052 2.27077 19.4697 2.4211 18.9343C2.4351 18.8843 2.44911 18.8344 2.46354 18.783C2.61588 18.2402 2.76914 17.6977 2.92452 17.1557C2.93824 17.1078 2.95196 17.06 2.96609 17.0107C3.03085 16.7848 3.09577 16.559 3.16095 16.3333C3.18386 16.2536 3.20677 16.1739 3.22968 16.0942C3.24954 16.0254 3.2694 15.9566 3.28986 15.8858C3.33271 15.7277 3.36837 15.5711 3.39797 15.4102C3.36534 15.4065 3.33271 15.4029 3.29909 15.3992C3.10495 15.331 3.00511 15.2113 2.87062 15.0586C2.67015 14.4572 2.90276 13.8625 3.08921 13.288C3.11878 13.1945 3.14827 13.101 3.17769 13.0074C3.25684 12.7565 3.3371 12.5059 3.41759 12.2554C3.50141 11.994 3.58428 11.7322 3.6672 11.4705C3.76911 11.149 3.8711 10.8276 3.97354 10.5063C4.18323 9.84838 4.38981 9.1896 4.59294 8.52963C4.6353 8.39208 4.67775 8.25457 4.72025 8.11706C4.73395 8.07271 4.74766 8.02837 4.76178 7.98268C4.78894 7.89481 4.8161 7.80694 4.84327 7.71907C4.90864 7.50748 4.97379 7.29582 5.03845 7.08401C5.11 6.84974 5.18263 6.61582 5.25534 6.38191C5.2758 6.31424 5.29625 6.24658 5.31732 6.17686C5.59547 5.28951 6.04305 4.55631 6.85591 4.07066C7.1977 3.90201 7.58344 3.75 7.96828 3.75ZM3.92531 15.5859C3.74092 16.239 3.5566 16.8921 3.37233 17.5452C3.35818 17.5953 3.34403 17.6455 3.32945 17.6972C2.79421 19.5942 2.26062 21.4918 1.72795 23.3895C1.6985 23.4945 1.66904 23.5994 1.63958 23.7043C1.56798 23.9593 1.49644 24.2143 1.42503 24.4694C1.29526 24.9326 1.16475 25.3955 1.03176 25.8577C0.9708 26.0697 0.910157 26.2817 0.849522 26.4937C0.820742 26.594 0.791795 26.6942 0.76267 26.7943C0.722544 26.9323 0.682983 27.0705 0.643531 27.2087C0.631633 27.249 0.619734 27.2894 0.607475 27.3309C0.542054 27.5625 0.515015 27.7674 0.526873 28.0078C0.816021 28.1375 1.10297 28.2408 1.40715 28.3289C1.45084 28.3417 1.49453 28.3544 1.53954 28.3676C1.63138 28.3943 1.72327 28.4208 1.81519 28.4472C1.95451 28.4874 2.09349 28.5286 2.2325 28.5698C2.32236 28.5958 2.41223 28.6217 2.50212 28.6475C2.5634 28.6659 2.5634 28.6659 2.62591 28.6847C2.91715 28.7666 3.21297 28.8145 3.51515 28.7695C3.67105 28.6136 3.68898 28.5224 3.69826 28.3044C3.60306 28.0453 3.45596 27.9157 3.22219 27.7734C2.97121 27.6721 2.73208 27.5977 2.46047 27.5977C2.4845 27.5402 2.50854 27.4828 2.53331 27.4236C3.05255 26.1819 3.5626 24.9369 4.06081 23.6865C4.38585 22.8709 4.71183 22.0561 5.04979 21.2458C5.37013 20.4766 5.68379 19.7047 5.99806 18.9331C6.04035 18.8293 6.04035 18.8293 6.08349 18.7235C6.24047 18.3382 6.39722 17.9529 6.55361 17.5674C6.6148 17.4167 6.6762 17.2661 6.73764 17.1155C6.77021 17.0352 6.80277 16.9549 6.83531 16.8745C6.87583 16.7749 6.87583 16.7749 6.91717 16.6733C6.97892 16.5317 6.97892 16.5317 6.97219 16.4063C6.54771 16.2893 6.1232 16.1725 5.69867 16.0558C5.55413 16.016 5.40959 15.9762 5.26506 15.9364C5.05783 15.8793 4.85057 15.8223 4.64331 15.7654C4.57825 15.7474 4.51319 15.7295 4.44615 15.711C4.38633 15.6946 4.32651 15.6782 4.26487 15.6612C4.18544 15.6394 4.18544 15.6394 4.1044 15.6171C3.99519 15.5835 3.99519 15.5835 3.92531 15.5859ZM7.49953 16.582C7.28023 16.9983 7.10791 17.4301 6.93556 17.8674C6.8736 18.0244 6.81156 18.1813 6.74948 18.3382C6.73392 18.3776 6.71837 18.417 6.70233 18.4576C6.59928 18.7175 6.4926 18.9756 6.38373 19.2332C6.35632 19.2988 6.32891 19.3645 6.30067 19.4322C6.24916 19.5553 6.19685 19.6782 6.1436 19.8006C6.12058 19.8561 6.09755 19.9117 6.07382 19.969C6.05345 20.0168 6.03307 20.0645 6.01207 20.1137C5.90854 20.5735 6.11111 21.1154 6.2116 21.5653C6.22991 21.648 6.2482 21.7307 6.26647 21.8135C6.3159 22.037 6.36561 22.2604 6.41538 22.4838C6.45697 22.6707 6.49842 22.8575 6.53987 23.0443C6.63764 23.4851 6.73562 23.9257 6.83376 24.3663C6.93492 24.8206 7.03574 25.2749 7.1364 25.7293C7.22295 26.12 7.3097 26.5106 7.39661 26.9012C7.44846 27.1343 7.50024 27.3673 7.55184 27.6005C7.60034 27.8195 7.64908 28.0384 7.698 28.2574C7.7159 28.3376 7.73371 28.4179 7.75143 28.4982C7.77566 28.608 7.80022 28.7176 7.82481 28.8273C7.83845 28.8886 7.85209 28.95 7.86615 29.0132C7.90802 29.1733 7.96179 29.3207 8.02687 29.4727C8.53874 29.4918 9.03017 29.4284 9.53571 29.3571C9.67869 29.3371 9.82179 29.3182 9.96493 29.2993C10.0571 29.2866 10.1492 29.2738 10.2413 29.2609C10.2835 29.2554 10.3257 29.2499 10.3691 29.2443C10.6435 29.2044 10.9872 29.1491 11.1909 28.9453C11.2203 28.7795 11.2203 28.7795 11.1909 28.5938C11.0415 28.412 10.9462 28.3169 10.7222 28.2422C10.6185 28.2367 10.5147 28.2346 10.4109 28.2349C10.3568 28.2347 10.3026 28.2346 10.2468 28.2344C10.0693 28.2426 9.90099 28.2703 9.72609 28.3008C9.71685 28.231 9.70761 28.1613 9.69809 28.0894C9.40072 25.8482 9.08603 23.6097 8.76777 21.3714C8.71384 20.992 8.66004 20.6125 8.60628 20.2331C8.54732 19.817 8.48827 19.4009 8.42917 18.9848C8.40433 18.8099 8.37953 18.635 8.35475 18.4601C8.32052 18.2185 8.28616 17.977 8.25178 17.7355C8.24168 17.6641 8.23157 17.5927 8.22116 17.5191C8.21182 17.4536 8.20247 17.3881 8.19284 17.3206C8.18478 17.2639 8.17673 17.2072 8.16843 17.1488C8.14499 16.9982 8.11535 16.8486 8.08547 16.6992C7.89211 16.6605 7.69875 16.6219 7.49953 16.582Z" fill="#FD5523"/>
<path d="M27.1853 11.8128C27.3875 11.9721 27.4667 12.0905 27.5758 12.323C27.6038 12.3822 27.6038 12.3822 27.6325 12.4426C27.8687 12.9516 28.0819 13.4719 28.2957 13.9906C28.4583 14.3851 28.6237 14.7776 28.7991 15.1666C28.8321 15.2404 28.865 15.3142 28.8978 15.388C28.9595 15.5257 29.022 15.663 29.0856 15.7999C29.2947 16.2707 29.4 16.6939 29.2274 17.1936C29.0051 17.5079 28.6994 17.6527 28.3595 17.8088C28.2869 17.8426 28.2869 17.8426 28.2129 17.8772C27.6875 18.1208 27.1586 18.3564 26.6298 18.5924C25.9321 18.9038 25.2363 19.2194 24.5404 19.5349C24.3848 19.6055 24.2291 19.676 24.0734 19.7465C24.0271 19.7676 23.9808 19.7886 23.9331 19.8102C23.8071 19.8673 23.681 19.924 23.5548 19.9804C23.5162 19.9978 23.4776 20.0152 23.4378 20.033C23.2146 20.1315 23.0381 20.1829 22.7931 20.1855C22.7079 20.1882 22.7079 20.1882 22.6209 20.191C22.3729 20.1429 22.2124 20.0376 22.0313 19.8633C21.9437 19.7251 21.8812 19.6088 21.8189 19.4604C21.8003 19.4185 21.7816 19.3767 21.7624 19.3335C21.6942 19.1787 21.6283 19.023 21.5626 18.8672C21.5346 18.8013 21.5066 18.7354 21.4778 18.6676C21.3158 18.2857 21.1556 17.9031 20.9966 17.52C20.8699 17.2148 20.7414 16.9106 20.6107 16.6072C20.5661 16.5034 20.5661 16.5034 20.5207 16.3975C20.4647 16.2674 20.4085 16.1375 20.352 16.0076C20.327 15.9494 20.302 15.8911 20.2763 15.831C20.2544 15.7806 20.2326 15.7302 20.2101 15.6783C20.1227 15.4328 20.0715 15.1972 20.1344 14.9414C20.1424 14.9051 20.1504 14.8689 20.1586 14.8315C20.3119 14.4927 20.5414 14.3129 20.8725 14.1618C20.9257 14.1371 20.9257 14.1371 20.9799 14.112C21.0968 14.058 21.2143 14.0053 21.3319 13.9526C21.4154 13.9144 21.4988 13.8762 21.5823 13.8378C21.8485 13.716 22.1156 13.5961 22.3829 13.4765C22.4268 13.4569 22.4707 13.4372 22.516 13.4169C22.9123 13.2393 23.3087 13.0622 23.7063 12.8875C24.1423 12.6958 24.5762 12.501 25.0068 12.2976C25.1295 12.2401 25.2522 12.1828 25.375 12.1255C25.4517 12.0893 25.5282 12.0527 25.6045 12.0156C26.1175 11.7664 26.6347 11.5415 27.1853 11.8128ZM26.0011 12.445C25.9328 12.4756 25.9328 12.4756 25.8632 12.5068C25.7185 12.5718 25.5741 12.6378 25.4298 12.7038C25.3328 12.7476 25.2357 12.7913 25.1386 12.8349C24.7638 13.0038 24.3901 13.173 24.0235 13.3594C24.0616 13.6307 24.1694 13.8615 24.2856 14.1067C24.3064 14.1513 24.3272 14.1959 24.3486 14.2419C24.3936 14.3383 24.4387 14.4346 24.4839 14.5308C24.604 14.7867 24.723 15.043 24.842 15.2994C24.8786 15.3782 24.8786 15.3782 24.916 15.4586C25.271 16.2247 25.6114 16.9975 25.9517 17.7703C26.01 17.9027 26.0682 18.0346 26.1329 18.164C26.6128 18.0204 27.0616 17.8166 27.5165 17.6091C27.6497 17.5485 27.7832 17.4885 27.9168 17.4286C28.002 17.39 28.0871 17.3513 28.1722 17.3126C28.212 17.2948 28.2517 17.2771 28.2926 17.2588C28.5645 17.1387 28.5645 17.1387 28.7696 16.9336C28.8508 16.6955 28.8162 16.5586 28.7193 16.3309C28.693 16.2684 28.6668 16.2058 28.6398 16.1414C28.6101 16.0729 28.5805 16.0044 28.5499 15.9338C28.519 15.8612 28.4881 15.7885 28.4573 15.7158C28.3877 15.552 28.3175 15.3885 28.247 15.225C28.134 14.9628 28.0227 14.6999 27.9114 14.4369C27.8115 14.2009 27.7111 13.9652 27.6105 13.7295C27.5605 13.6121 27.5106 13.4947 27.4609 13.3771C27.3904 13.2108 27.3192 13.0449 27.2478 12.8789C27.2266 12.8285 27.2053 12.7781 27.1835 12.7262C27.1635 12.68 27.1434 12.6338 27.1228 12.5863C27.1055 12.5458 27.0883 12.5054 27.0705 12.4638C27.0102 12.3436 27.0102 12.3436 26.836 12.2461C26.5151 12.2056 26.2852 12.3138 26.0011 12.445ZM23.1004 13.7343C23.0581 13.7537 23.0159 13.7731 22.9723 13.793C22.9272 13.8146 22.8821 13.8361 22.8356 13.8583C22.7887 13.8801 22.7417 13.9019 22.6933 13.9243C22.5432 13.9941 22.3935 14.0649 22.2437 14.1357C22.1434 14.1825 22.043 14.2293 21.9425 14.276C21.7166 14.3814 21.4908 14.4867 21.2659 14.5943C21.162 14.6439 21.0574 14.6921 20.9527 14.7401C20.7861 14.8172 20.7861 14.8172 20.6837 15C20.6442 15.3591 20.7464 15.611 20.8897 15.9308C20.9112 15.9805 20.9327 16.0302 20.9549 16.0813C21.0249 16.2424 21.096 16.4031 21.1671 16.5637C21.2155 16.6744 21.2638 16.7851 21.3121 16.8958C21.3847 17.0624 21.4575 17.2289 21.5305 17.3953C21.6761 17.7271 21.819 18.0598 21.9588 18.3941C21.991 18.4708 22.0232 18.5475 22.0554 18.6243C22.1138 18.7637 22.1718 18.9032 22.2295 19.0429C22.2681 19.1345 22.2681 19.1345 22.3076 19.2279C22.3294 19.2803 22.3512 19.3328 22.3737 19.3868C22.4386 19.5295 22.4386 19.5295 22.6173 19.6289C22.9836 19.6471 23.3039 19.523 23.6282 19.3677C23.6719 19.3476 23.7156 19.3274 23.7605 19.3066C23.8986 19.2426 24.0361 19.1776 24.1737 19.1125C24.2661 19.0695 24.3585 19.0266 24.451 18.9838C24.8584 18.7943 25.2629 18.6005 25.6641 18.3984C25.4377 17.8406 25.1909 17.2935 24.939 16.7468C24.8558 16.5661 24.7727 16.3854 24.6896 16.2046C24.6685 16.1587 24.6474 16.1128 24.6257 16.0656C24.476 15.7391 24.3299 15.4112 24.1851 15.0826C24.1259 14.9491 24.0666 14.8156 24.0073 14.6822C23.9694 14.5965 23.9318 14.5106 23.8946 14.4246C23.8428 14.3052 23.79 14.1863 23.737 14.0675C23.7073 13.9999 23.6777 13.9322 23.6472 13.8625C23.572 13.7052 23.572 13.7052 23.4456 13.667C23.2989 13.6498 23.2331 13.6721 23.1004 13.7343Z" fill="#FD5523"/>
<path d="M22.9204 6.38059C23.172 6.54041 23.3016 6.75244 23.4156 7.02395C23.4343 7.06584 23.453 7.10772 23.4722 7.15088C23.5404 7.30568 23.6063 7.46134 23.672 7.61721C23.6999 7.68308 23.7279 7.74896 23.7567 7.81683C23.8855 8.12025 24.0136 8.42389 24.1396 8.72846C24.2975 9.10998 24.4574 9.48993 24.6259 9.86689C24.6559 9.93476 24.6859 10.0026 24.7167 10.0726C24.7728 10.1991 24.8297 10.3253 24.8877 10.451C25.0866 10.904 25.1739 11.3246 25.0086 11.803C24.7863 12.1173 24.4807 12.2621 24.1407 12.4182C24.0681 12.4521 24.0681 12.4521 23.9941 12.4866C23.4688 12.7302 22.9398 12.9659 22.411 13.2018C21.7133 13.5132 21.0175 13.8288 20.3217 14.1443C20.166 14.2149 20.0103 14.2854 19.8547 14.356C19.8083 14.377 19.762 14.398 19.7143 14.4197C19.5883 14.4767 19.4622 14.5334 19.336 14.5899C19.2974 14.6072 19.2588 14.6246 19.219 14.6425C18.9959 14.7409 18.8194 14.7923 18.5743 14.7949C18.4891 14.7977 18.4891 14.7977 18.4022 14.8004C18.1541 14.7523 17.9937 14.647 17.8126 14.4727C17.725 14.3345 17.6625 14.2182 17.6002 14.0698C17.5815 14.028 17.5628 13.9861 17.5436 13.9429C17.4754 13.7881 17.4095 13.6325 17.3438 13.4766C17.3159 13.4107 17.2879 13.3448 17.2591 13.277C17.097 12.8951 16.9368 12.5125 16.7778 12.1294C16.6512 11.8243 16.5226 11.52 16.3919 11.2166C16.3474 11.1128 16.3474 11.1128 16.3019 11.0069C16.246 10.8769 16.1898 10.7469 16.1332 10.6171C16.1082 10.5588 16.0833 10.5005 16.0575 10.4405C16.0357 10.39 16.0138 10.3396 15.9913 10.2877C15.9039 10.0422 15.8527 9.80664 15.9156 9.55081C15.9236 9.51455 15.9316 9.4783 15.9399 9.44094C16.0931 9.10208 16.3226 8.92231 16.6538 8.77123C16.7069 8.74656 16.7069 8.74656 16.7611 8.72139C16.8781 8.66739 16.9956 8.61471 17.1131 8.56204C17.1966 8.52385 17.2801 8.48559 17.3635 8.44727C17.6298 8.32542 17.8969 8.20553 18.1641 8.08596C18.2081 8.06628 18.252 8.04659 18.2972 8.02631C18.6936 7.84874 19.09 7.67157 19.4877 7.49696C19.9231 7.30559 20.3563 7.11091 20.786 6.90699C20.9083 6.84955 21.0307 6.7922 21.153 6.73487C21.2294 6.69875 21.3055 6.66216 21.3814 6.62505C21.8698 6.38621 22.3825 6.15908 22.9204 6.38059ZM21.8885 7.00976C21.8532 7.02583 21.818 7.04191 21.7816 7.05847C21.6693 7.10982 21.5573 7.16206 21.4454 7.21438C21.3355 7.26503 21.2256 7.3155 21.1156 7.36594C21.0427 7.39939 20.9698 7.43293 20.897 7.46654C20.5166 7.64161 20.1319 7.80586 19.7462 7.96878C20.1814 9.01864 20.662 10.0471 21.1401 11.0779C21.4014 11.6416 21.6584 12.2073 21.9141 12.7735C22.3941 12.6298 22.8429 12.4261 23.2977 12.2186C23.431 12.1579 23.5645 12.098 23.6981 12.0381C23.7832 11.9994 23.8684 11.9607 23.9535 11.922C23.9932 11.9043 24.033 11.8865 24.0739 11.8682C24.3457 11.7482 24.3457 11.7482 24.5509 11.543C24.632 11.3049 24.5975 11.1681 24.5005 10.9403C24.4743 10.8778 24.4481 10.8152 24.4211 10.7508C24.3914 10.6823 24.3617 10.6138 24.3311 10.5432C24.3002 10.4706 24.2694 10.3979 24.2386 10.3253C24.1689 10.1615 24.0987 9.99789 24.0282 9.83445C23.9153 9.5722 23.8039 9.30929 23.6927 9.04629C23.5928 8.81034 23.4924 8.57462 23.3918 8.33895C23.3417 8.22155 23.2919 8.10409 23.2421 7.98657C23.1716 7.82027 23.1004 7.65428 23.029 7.48835C23.0078 7.43795 22.9866 7.38755 22.9647 7.33562C22.9447 7.28944 22.9247 7.24326 22.904 7.19568C22.8868 7.15527 22.8695 7.11485 22.8517 7.07321C22.7914 6.95303 22.7914 6.95303 22.6173 6.85549C22.3334 6.82598 22.1448 6.89114 21.8885 7.00976ZM18.8816 8.34374C18.8394 8.36312 18.7971 8.3825 18.7536 8.40247C18.7085 8.42401 18.6633 8.44555 18.6169 8.46774C18.5699 8.48951 18.523 8.51129 18.4746 8.53372C18.3244 8.60356 18.1747 8.67434 18.025 8.74514C17.9246 8.79197 17.8242 8.83874 17.7238 8.88545C17.4979 8.99077 17.272 9.09616 17.0472 9.20374C16.9432 9.25329 16.8386 9.3015 16.7339 9.34956C16.5674 9.42661 16.5674 9.42661 16.4649 9.6094C16.4254 9.96852 16.5276 10.2204 16.6709 10.5403C16.6924 10.5899 16.714 10.6396 16.7362 10.6908C16.8062 10.8519 16.8772 11.0125 16.9483 11.1731C16.9967 11.2838 17.0451 11.3945 17.0933 11.5052C17.166 11.6718 17.2387 11.8383 17.3118 12.0048C17.4574 12.3365 17.6003 12.6692 17.74 13.0035C17.7722 13.0802 17.8045 13.157 17.8367 13.2337C17.895 13.3731 17.9531 13.5126 18.0107 13.6523C18.0494 13.7439 18.0494 13.7439 18.0888 13.8373C18.1107 13.8898 18.1325 13.9422 18.155 13.9963C18.2198 14.1389 18.2198 14.1389 18.3985 14.2383C18.7649 14.2565 19.0852 14.1324 19.4095 13.9772C19.4532 13.957 19.4968 13.9368 19.5418 13.916C19.6798 13.852 19.8174 13.787 19.9549 13.7219C20.0473 13.679 20.1397 13.636 20.2322 13.5932C20.6396 13.4038 21.0441 13.21 21.4454 13.0078C21.219 12.45 20.9721 11.9029 20.7203 11.3562C20.6371 11.1755 20.5539 10.9948 20.4708 10.814C20.4497 10.7681 20.4286 10.7223 20.4069 10.675C20.2572 10.3486 20.1112 10.0206 19.9664 9.69203C19.9071 9.55853 19.8479 9.42506 19.7885 9.2916C19.7507 9.20589 19.7131 9.12004 19.6758 9.03406C19.624 8.91466 19.5712 8.79577 19.5182 8.67694C19.4886 8.60929 19.459 8.54164 19.4284 8.47194C19.3533 8.31462 19.3533 8.31462 19.2268 8.27644C19.0802 8.25922 19.0144 8.28155 18.8816 8.34374Z" fill="#FD5523"/>
<path d="M27.8182 18.8023C28.1022 18.9836 28.2274 19.1846 28.3556 19.4903C28.3749 19.5337 28.3942 19.5771 28.414 19.6219C28.4752 19.7604 28.5345 19.8997 28.5936 20.0391C28.6327 20.1297 28.6719 20.2204 28.711 20.311C28.8301 20.5882 28.9463 20.8666 29.0624 21.1451C29.1209 21.2851 29.1796 21.4251 29.2382 21.5651C29.2771 21.6579 29.3158 21.7507 29.3544 21.8436C29.4554 22.0865 29.5581 22.3285 29.6632 22.5696C29.6956 22.6444 29.6956 22.6444 29.7285 22.7207C29.7696 22.8157 29.8112 22.9105 29.8532 23.005C30.0072 23.3628 30.0858 23.693 29.9999 24.0821C29.8012 24.4942 29.4627 24.6883 29.0546 24.863C28.9933 24.8899 28.9933 24.8899 28.9309 24.9174C28.8427 24.956 28.7545 24.9945 28.6662 25.0328C28.428 25.136 28.1905 25.2408 27.953 25.3453C27.904 25.3668 27.8551 25.3883 27.8047 25.4104C27.3431 25.6134 26.8845 25.8227 26.4263 26.0334C26.2979 26.0924 26.1693 26.1512 26.0407 26.2098C25.9782 26.2384 25.9782 26.2384 25.9143 26.2675C25.8318 26.3052 25.7493 26.3428 25.6668 26.3805C25.4745 26.4684 25.2825 26.5568 25.0911 26.6466C24.8919 26.74 24.692 26.832 24.492 26.9239C24.4355 26.951 24.3789 26.9782 24.3206 27.0061C23.87 27.2105 23.4621 27.2653 22.9833 27.1216C22.3426 26.6753 22.0282 25.3166 21.74 24.6337C21.6634 24.4522 21.5864 24.2709 21.5095 24.0895C21.3728 23.7671 21.2362 23.4447 21.1001 23.122C21.0444 22.991 20.9874 22.8606 20.93 22.7303C20.7925 22.3967 20.8122 22.0502 20.9288 21.7127C21.1514 21.3979 21.4555 21.2554 21.7967 21.1014C21.8424 21.0804 21.8881 21.0593 21.9352 21.0377C22.0842 20.9693 22.2334 20.9015 22.3827 20.8338C22.4866 20.7863 22.5905 20.7387 22.6944 20.6912C23.4292 20.3551 24.1655 20.0222 24.9043 19.6949C25.1556 19.5831 25.4053 19.4687 25.6538 19.3507C25.8067 19.2782 25.9602 19.2067 26.1136 19.1353C26.2203 19.0852 26.3262 19.0336 26.4322 18.9821C26.856 18.7855 27.3649 18.5735 27.8182 18.8023ZM26.706 19.4763C26.6607 19.4967 26.6153 19.5171 26.5686 19.5381C26.4242 19.6032 26.2803 19.6691 26.1363 19.7352C26.0398 19.7789 25.9433 19.8226 25.8467 19.8662C25.6685 19.9467 25.4905 20.0276 25.3126 20.1089C25.099 20.2061 24.8839 20.2991 24.6678 20.3907C24.8942 20.9485 25.1413 21.4955 25.3929 22.0423C25.4759 22.2231 25.5588 22.4039 25.6417 22.5847C25.6628 22.6306 25.6838 22.6765 25.7055 22.7238C25.9554 23.2685 26.203 23.8143 26.4507 24.36C26.4874 24.4411 26.5242 24.5221 26.561 24.6031C26.6089 24.7087 26.6568 24.8143 26.7047 24.9199C26.7471 25.0124 26.7903 25.1044 26.8358 25.1954C27.3157 25.0517 27.7645 24.848 28.2194 24.6405C28.3526 24.5798 28.4861 24.5199 28.6197 24.46C28.7049 24.4213 28.79 24.3827 28.8751 24.3439C28.9149 24.3262 28.9546 24.3084 28.9955 24.2901C29.2674 24.1701 29.2674 24.1701 29.4725 23.9649C29.5537 23.7268 29.5191 23.59 29.4222 23.3623C29.3959 23.2997 29.3697 23.2371 29.3427 23.1727C29.313 23.1042 29.2834 23.0357 29.2528 22.9651C29.2219 22.8925 29.191 22.8199 29.1602 22.7472C29.0906 22.5834 29.0204 22.4198 28.9499 22.2564C28.8369 21.9941 28.7255 21.7312 28.6143 21.4682C28.5144 21.2322 28.414 20.9965 28.3134 20.7609C28.2634 20.6435 28.2135 20.526 28.1638 20.4085C28.0933 20.2422 28.0221 20.0762 27.9507 19.9103C27.9295 19.8599 27.9082 19.8095 27.8864 19.7575C27.8664 19.7113 27.8463 19.6652 27.8257 19.6176C27.8084 19.5772 27.7912 19.5368 27.7734 19.4951C27.7131 19.3749 27.7131 19.3749 27.5389 19.2774C27.2184 19.237 26.9896 19.3448 26.706 19.4763ZM23.8032 20.7656C23.761 20.785 23.7187 20.8044 23.6752 20.8244C23.6301 20.8459 23.585 20.8675 23.5385 20.8896C23.4916 20.9114 23.4446 20.9332 23.3962 20.9556C23.2461 21.0255 23.0963 21.0962 22.9466 21.167C22.8463 21.2139 22.7459 21.2606 22.6454 21.3074C22.4195 21.4127 22.1937 21.5181 21.9688 21.6256C21.8649 21.6752 21.7603 21.7234 21.6556 21.7715C21.489 21.8485 21.489 21.8485 21.3866 22.0313C21.347 22.3904 21.4493 22.6423 21.5926 22.9622C21.6141 23.0118 21.6356 23.0615 21.6578 23.1127C21.7278 23.2738 21.7989 23.4344 21.87 23.595C21.9184 23.7057 21.9667 23.8164 22.015 23.9271C22.0876 24.0937 22.1604 24.2603 22.2334 24.4267C22.379 24.7584 22.5219 25.0911 22.6617 25.4254C22.6939 25.5021 22.7261 25.5789 22.7583 25.6556C22.8167 25.795 22.8747 25.9345 22.9324 26.0742C22.971 26.1658 22.971 26.1658 23.0105 26.2592C23.0323 26.3117 23.0541 26.3641 23.0766 26.4182C23.1415 26.5608 23.1415 26.5608 23.3202 26.6602C23.6865 26.6784 24.0068 26.5543 24.3311 26.3991C24.3748 26.3789 24.4185 26.3587 24.4634 26.3379C24.6015 26.2739 24.739 26.2089 24.8766 26.1439C24.969 26.1009 25.0614 26.058 25.1539 26.0151C25.5613 25.8257 25.9658 25.6319 26.367 25.4297C25.9924 24.5261 25.5848 23.6386 25.1723 22.7518C24.7848 21.9182 24.7848 21.9182 24.6079 21.5083C24.5838 21.4527 24.5597 21.3971 24.5348 21.3399C24.4932 21.2429 24.4522 21.1456 24.4122 21.0479C24.3284 20.8282 24.3284 20.8282 24.1479 20.6965C24.0024 20.6815 23.9349 20.704 23.8032 20.7656Z" fill="#FD5523"/>
<path d="M11.6257 0.322723C12.1415 0.694233 12.5291 1.1856 12.6559 1.81641C12.7343 2.54397 12.672 3.18685 12.2347 3.79394C11.8356 4.26769 11.3489 4.6326 10.7181 4.70057C9.9616 4.75305 9.33064 4.66129 8.73397 4.15855C8.23487 3.68209 7.96822 3.17531 7.94078 2.48231C7.9317 1.74905 8.09677 1.18518 8.61289 0.64453C9.42032 -0.126267 10.6698 -0.273328 11.6257 0.322723ZM8.90586 1.10229C8.55795 1.54949 8.40224 2.02763 8.44787 2.5946C8.53244 3.08982 8.80746 3.54505 9.2041 3.85277C9.62126 4.12491 10.0439 4.26425 10.5417 4.19495C11.1129 4.07332 11.5505 3.83153 11.8813 3.34259C12.1509 2.88982 12.1821 2.45835 12.1285 1.93359C12.0768 1.7374 12.0007 1.57833 11.8941 1.40625C11.8579 1.34496 11.8579 1.34496 11.8209 1.28242C11.5864 0.928706 11.2503 0.68547 10.8472 0.548858C10.1065 0.421335 9.43785 0.539877 8.90586 1.10229Z" fill="#FD5523"/>
<path d="M21.5565 26.4107C22.0454 26.7023 22.3495 27.1059 22.5004 27.6563C22.5589 28.3067 22.5208 28.8712 22.1049 29.4031C21.7734 29.7581 21.3605 29.9761 20.8753 30.0197C20.2533 30.0337 19.7292 29.9633 19.2544 29.5221C18.7833 28.9799 18.7076 28.4633 18.7399 27.7705C18.7803 27.3303 19.0122 26.9516 19.3363 26.6602C19.9655 26.187 20.8343 26.0642 21.5565 26.4107ZM19.4796 27.3576C19.2379 27.7084 19.2358 28.0635 19.2777 28.4766C19.3816 28.866 19.6554 29.1313 19.9808 29.3555C20.3323 29.5278 20.7357 29.5371 21.1124 29.4365C21.4715 29.278 21.7527 28.98 21.9245 28.6295C22.0362 28.2776 22.0354 27.8612 21.8851 27.5208C21.681 27.1728 21.3616 26.8995 20.9769 26.7774C20.3069 26.6979 19.9118 26.852 19.4796 27.3576Z" fill="#FD5523"/>
<path d="M28.8281 25.4882C28.8721 25.6201 28.8721 25.6201 28.8867 25.7812C28.7356 25.963 28.5887 26.0593 28.3725 26.1501C28.2887 26.1858 28.2887 26.1858 28.2033 26.2222C28.1427 26.2473 28.0821 26.2724 28.0197 26.2982C27.9561 26.3252 27.8925 26.3521 27.8269 26.3798C27.6189 26.4677 27.4105 26.5547 27.2021 26.6418C27.0591 26.702 26.916 26.7623 26.7729 26.8226C26.5558 26.9142 26.3386 27.0057 26.1214 27.0968C25.6679 27.2872 25.2153 27.4794 24.7634 27.6736C24.6545 27.7203 24.5456 27.767 24.4366 27.8137C24.284 27.8792 24.1314 27.9447 23.979 28.0105C23.8405 28.0702 23.7018 28.1296 23.5632 28.1888C23.5228 28.2063 23.4825 28.2238 23.441 28.2419C23.273 28.3133 23.1534 28.3593 22.9688 28.3593C22.9494 28.1853 22.9301 28.0113 22.9102 27.832C23.662 27.4726 24.4319 27.1537 25.199 26.8286C25.4829 26.7082 25.7668 26.5878 26.0506 26.4674C26.1539 26.4236 26.1539 26.4236 26.2592 26.3789C26.6393 26.2173 27.0185 26.0537 27.396 25.886C27.4728 25.8522 27.5496 25.8183 27.6264 25.7844C27.7589 25.7257 27.8911 25.6663 28.0229 25.6061C28.5234 25.3853 28.5234 25.3853 28.8281 25.4882Z" fill="#FD5523"/>
<path d="M13.4799 20.8515C13.5436 20.8517 13.5436 20.8517 13.6085 20.8518C13.6752 20.8517 13.6752 20.8517 13.7433 20.8515C13.8911 20.8513 14.0389 20.8514 14.1866 20.8516C14.2889 20.8516 14.3911 20.8515 14.4934 20.8515C14.7079 20.8514 14.9225 20.8515 15.1371 20.8518C15.4127 20.8521 15.6884 20.8519 15.9641 20.8516C16.1753 20.8514 16.3865 20.8514 16.5977 20.8516C16.6994 20.8516 16.8011 20.8516 16.9027 20.8514C17.0446 20.8513 17.1864 20.8515 17.3283 20.8518C17.3707 20.8517 17.4131 20.8516 17.4569 20.8515C17.7468 20.8527 17.7468 20.8527 17.8121 20.918C17.8195 21.0938 17.8195 21.0938 17.8121 21.2696C17.7129 21.3688 17.5893 21.3355 17.4569 21.3361C17.4144 21.336 17.372 21.3359 17.3283 21.3358C17.2838 21.3359 17.2393 21.336 17.1935 21.3361C17.0457 21.3363 16.8979 21.3361 16.7501 21.336C16.6479 21.336 16.5456 21.336 16.4434 21.3361C16.2288 21.3362 16.0143 21.3361 15.7997 21.3358C15.524 21.3355 15.2484 21.3357 14.9727 21.336C14.7615 21.3362 14.5503 21.3362 14.3391 21.336C14.2374 21.336 14.1357 21.336 14.034 21.3362C13.8922 21.3363 13.7503 21.3361 13.6085 21.3358C13.5661 21.3359 13.5236 21.336 13.4799 21.3361C13.1899 21.3349 13.1899 21.3349 13.1246 21.2696C13.1173 21.0938 13.1173 21.0938 13.1246 20.918C13.2239 20.8188 13.3475 20.852 13.4799 20.8515Z" fill="#FD5523"/>
<path d="M13.0537 21.7893C13.1625 21.7891 13.1625 21.7891 13.2735 21.7888C13.3533 21.7889 13.433 21.789 13.5128 21.7891C13.594 21.7891 13.6753 21.789 13.7565 21.789C13.9269 21.7889 14.0974 21.789 14.2678 21.7893C14.4867 21.7896 14.7056 21.7894 14.9245 21.7891C15.0923 21.7889 15.2601 21.7889 15.4279 21.7891C15.5086 21.7891 15.5894 21.7891 15.6701 21.7889C15.7828 21.7888 15.8954 21.789 16.0081 21.7893C16.1044 21.7894 16.1044 21.7894 16.2027 21.7895C16.3473 21.7969 16.3473 21.7969 16.4059 21.8555C16.4132 22.0313 16.4132 22.0313 16.4059 22.2071C16.3016 22.3113 16.1491 22.2731 16.0081 22.2732C15.9355 22.2734 15.863 22.2736 15.7883 22.2738C15.7085 22.2737 15.6287 22.2736 15.549 22.2734C15.4677 22.2735 15.3865 22.2735 15.3053 22.2736C15.1348 22.2737 14.9644 22.2736 14.794 22.2733C14.5751 22.273 14.3562 22.2732 14.1372 22.2735C13.9695 22.2737 13.8017 22.2737 13.6339 22.2735C13.5531 22.2735 13.4724 22.2735 13.3917 22.2737C13.279 22.2738 13.1663 22.2735 13.0537 22.2732C12.9573 22.2732 12.9573 22.2732 12.859 22.2731C12.7145 22.2657 12.7145 22.2657 12.6559 22.2071C12.6486 22.0313 12.6486 22.0313 12.6559 21.8555C12.7601 21.7513 12.9127 21.7894 13.0537 21.7893Z" fill="#FD5523"/>
<path d="M13.0537 19.9143C13.1625 19.9141 13.1625 19.9141 13.2735 19.9138C13.3533 19.9139 13.433 19.914 13.5128 19.9141C13.594 19.9141 13.6753 19.914 13.7565 19.914C13.9269 19.9139 14.0974 19.914 14.2678 19.9143C14.4867 19.9146 14.7056 19.9144 14.9245 19.9141C15.0923 19.9139 15.2601 19.9139 15.4279 19.9141C15.5086 19.9141 15.5894 19.9141 15.6701 19.9139C15.7828 19.9138 15.8954 19.914 16.0081 19.9143C16.1044 19.9144 16.1044 19.9144 16.2027 19.9145C16.3473 19.9219 16.3473 19.9219 16.4059 19.9805C16.4132 20.1563 16.4132 20.1563 16.4059 20.3321C16.3016 20.4363 16.1491 20.3981 16.0081 20.3982C15.9355 20.3984 15.863 20.3986 15.7883 20.3988C15.7085 20.3987 15.6287 20.3986 15.549 20.3984C15.4677 20.3985 15.3865 20.3985 15.3053 20.3986C15.1348 20.3987 14.9644 20.3986 14.794 20.3983C14.5751 20.398 14.3562 20.3982 14.1372 20.3985C13.9695 20.3987 13.8017 20.3987 13.6339 20.3985C13.5531 20.3985 13.4724 20.3985 13.3917 20.3987C13.279 20.3988 13.1663 20.3985 13.0537 20.3982C12.9573 20.3982 12.9573 20.3982 12.859 20.3981C12.7145 20.3907 12.7145 20.3907 12.6559 20.3321C12.6486 20.1563 12.6486 20.1563 12.6559 19.9805C12.7601 19.8763 12.9127 19.9144 13.0537 19.9143Z" fill="#FD5523"/>
<path d="M21.0239 27.5244C21.2818 27.7065 21.2818 27.7065 21.3279 27.8906C21.3553 28.1742 21.3572 28.3027 21.2253 28.5571C21.0264 28.7893 20.9378 28.8205 20.6321 28.8501C20.3794 28.8435 20.232 28.7593 20.0388 28.5937C19.9013 28.4186 19.8971 28.2293 19.9029 28.0096C19.9407 27.7698 20.0725 27.6024 20.2622 27.4585C20.54 27.3791 20.7694 27.3897 21.0239 27.5244ZM20.5662 27.9492C20.5275 28.0265 20.4888 28.1039 20.449 28.1836C20.565 28.2416 20.565 28.2416 20.6834 28.3008C20.722 28.2234 20.7607 28.1461 20.8005 28.0664C20.7232 28.0277 20.6459 27.989 20.5662 27.9492Z" fill="#FD5523"/>
<path d="M24.0239 6.26949C24.0181 6.17415 24.0154 6.12845 24.0156 6.08277C24.0158 6.04243 24.0184 6.0021 24.0232 5.92763L24.0285 5.926L24.1323 6.10686L24.0239 6.26949ZM24.0239 6.26949L24.1996 6.38668M24.0239 6.26949L24.187 6.2597L24.1996 6.38668M24.1996 6.38668C24.2297 6.38368 24.2585 6.37994 24.2864 6.37538L24.2497 6.31153L24.1996 6.38668ZM24.0492 5.91958L24.1501 5.88837L24.1539 5.9264L24.0492 5.91958Z" fill="#FD5523" stroke="#FD5523" stroke-width="13"/>
<path d="M22.834 5.37329C22.8393 5.3255 22.8471 5.28277 22.8573 5.24298L22.9756 5.35475L22.834 5.37329ZM22.834 5.37329C22.842 5.43447 22.8464 5.46782 22.8598 5.49703C22.8758 5.53205 22.9049 5.56111 22.9688 5.625M22.834 5.37329L23.0115 5.39302L22.9688 5.625M22.9688 5.625C23.0351 5.63721 23.0698 5.64361 23.1046 5.64418C23.1429 5.64482 23.1812 5.63842 23.2618 5.625M22.9688 5.625L23.1111 5.48269L23.2618 5.625M23.2618 5.625C23.3277 5.55519 23.3717 5.50855 23.4118 5.45872C23.417 5.45229 23.4221 5.44581 23.4272 5.43921L23.2271 5.41698L23.2618 5.625ZM23.1195 4.73373L23.1316 4.74116L23.1226 4.79004L23.1146 4.74196L23.1195 4.73373ZM23.1195 4.73373L23.1316 4.74099L23.1387 4.70239L23.1195 4.73373ZM23.7516 4.90402C23.7185 4.96196 23.6892 5.01333 23.663 5.05917L23.5827 5.01109L23.712 4.88178L23.7516 4.90402ZM23.7516 4.90402L23.7631 4.88357L23.766 4.87833L23.831 4.76283L23.7344 4.85936L23.7303 4.86347L23.7122 4.88158L23.7516 4.90402ZM23.2787 5.31507L23.4343 5.15946L23.436 5.15774L23.5784 5.01538L23.6595 5.06518C23.6213 5.13192 23.5896 5.1868 23.5621 5.23319C23.5615 5.23408 23.561 5.23496 23.5605 5.23583C23.5508 5.25217 23.5416 5.26744 23.5329 5.2818L23.2787 5.31507Z" fill="#FD5523" stroke="#FD5523" stroke-width="13"/>
<mask id="path-14-inside-1_303_203" fill="white">
<path d="M21.973 2.98828C22.2587 3.03955 22.2587 3.03955 22.3246 3.10547C22.3411 3.34553 22.3382 3.58634 22.3392 3.8269C22.3405 3.89454 22.3417 3.96218 22.3429 4.03187C22.3432 4.09694 22.3435 4.16201 22.3438 4.22905C22.3444 4.28882 22.3449 4.34859 22.3455 4.41017C22.3219 4.59134 22.2699 4.6708 22.1488 4.80469C21.8632 4.75342 21.8632 4.75342 21.7973 4.6875C21.7808 4.44743 21.7837 4.20663 21.7826 3.96606C21.7814 3.89843 21.7802 3.83079 21.7789 3.7611C21.7786 3.69603 21.7783 3.63096 21.778 3.56392C21.7775 3.50415 21.7769 3.44438 21.7764 3.3828C21.8 3.20163 21.852 3.12217 21.973 2.98828Z"/>
</mask>
<path d="M21.973 2.98828C22.2587 3.03955 22.2587 3.03955 22.3246 3.10547C22.3411 3.34553 22.3382 3.58634 22.3392 3.8269C22.3405 3.89454 22.3417 3.96218 22.3429 4.03187C22.3432 4.09694 22.3435 4.16201 22.3438 4.22905C22.3444 4.28882 22.3449 4.34859 22.3455 4.41017C22.3219 4.59134 22.2699 4.6708 22.1488 4.80469C21.8632 4.75342 21.8632 4.75342 21.7973 4.6875C21.7808 4.44743 21.7837 4.20663 21.7826 3.96606C21.7814 3.89843 21.7802 3.83079 21.7789 3.7611C21.7786 3.69603 21.7783 3.63096 21.778 3.56392C21.7775 3.50415 21.7769 3.44438 21.7764 3.3828C21.8 3.20163 21.852 3.12217 21.973 2.98828Z" fill="#FD5523"/>
<path d="M21.973 2.98828L24.2697 -9.80724L17.1695 -11.0816L12.3311 -5.73137L21.973 2.98828ZM22.3246 3.10547L35.294 2.21429L34.9602 -2.6437L31.517 -6.08692L22.3246 3.10547ZM22.3392 3.8269L9.33937 3.88439L9.33976 3.97177L9.34132 4.05914L22.3392 3.8269ZM22.3429 4.03187L35.3428 3.97151L35.3424 3.88556L35.3408 3.79963L22.3429 4.03187ZM22.3438 4.22905L9.34396 4.28941L9.3441 4.31878L9.34437 4.34815L22.3438 4.22905ZM22.3455 4.41017L35.2363 6.09133L35.3532 5.19497L35.3449 4.29107L22.3455 4.41017ZM22.1488 4.80469L19.8522 17.6002L26.9523 18.8746L31.7908 13.5243L22.1488 4.80469ZM21.7973 4.6875L8.82784 5.57868L9.16165 10.4367L12.6049 13.8799L21.7973 4.6875ZM21.7826 3.96606L34.7825 3.90857L34.7821 3.8212L34.7805 3.73383L21.7826 3.96606ZM21.7789 3.7611L8.77908 3.82146L8.77948 3.9074L8.78102 3.99334L21.7789 3.7611ZM21.778 3.56392L34.7779 3.50356L34.7778 3.47419L34.7775 3.44482L21.778 3.56392ZM21.7764 3.3828L8.88553 1.70164L8.76863 2.59799L8.77691 3.5019L21.7764 3.3828ZM19.6764 15.7838C19.8016 15.8063 19.7049 15.7895 19.5897 15.7665C19.5371 15.756 18.9052 15.6359 18.1203 15.3743C17.0974 15.0333 15.8536 14.4733 14.5943 13.5498C13.6483 12.8561 12.9286 12.0942 13.1322 12.2979L31.517 -6.08692C31.5166 -6.08731 31.5059 -6.09796 31.494 -6.10985C31.4812 -6.12262 31.4597 -6.14399 31.4332 -6.17007C31.3828 -6.21968 31.2903 -6.3101 31.1724 -6.42011C30.9349 -6.64175 30.5227 -7.01118 29.9698 -7.41671C28.683 -8.36034 27.409 -8.93589 26.3422 -9.2915C25.5132 -9.56782 24.8237 -9.7016 24.6887 -9.7286C24.4911 -9.76811 24.2873 -9.80408 24.2697 -9.80724L19.6764 15.7838ZM9.35518 3.99665C9.3474 3.88339 9.34344 3.79271 9.34135 3.73176C9.33928 3.67148 9.33877 3.63211 9.33867 3.62456C9.33861 3.61921 9.33875 3.62816 9.33886 3.6755C9.33888 3.68659 9.33891 3.69854 9.33893 3.71292C9.33895 3.7261 9.33898 3.74373 9.33901 3.76021C9.33907 3.79407 9.33916 3.83738 9.33937 3.88439L35.3391 3.76941C35.3389 3.7268 35.339 3.71268 35.3388 3.6174C35.3386 3.54443 35.3383 3.43307 35.3367 3.30744C35.3337 3.05947 35.3255 2.67202 35.294 2.21429L9.35518 3.99665ZM9.34132 4.05914C9.34253 4.12679 9.34374 4.1944 9.34498 4.2641L35.3408 3.79963C35.3396 3.72996 35.3384 3.66229 35.3372 3.59467L9.34132 4.05914ZM9.34305 4.09223C9.34335 4.15742 9.34365 4.22224 9.34396 4.28941L35.3437 4.16869C35.3434 4.10177 35.3431 4.03646 35.3428 3.97151L9.34305 4.09223ZM9.34437 4.34815C9.34492 4.40792 9.34546 4.46769 9.34603 4.52927L35.3449 4.29107C35.3444 4.22949 35.3438 4.16972 35.3433 4.10995L9.34437 4.34815ZM9.45464 2.729C9.57796 1.78341 9.89227 0.262338 10.7714 -1.4136C11.5428 -2.88423 12.4366 -3.83726 12.5068 -3.91496L31.7908 13.5243C31.9821 13.3127 32.9624 12.253 33.796 10.6639C34.7373 8.86949 35.0894 7.21809 35.2363 6.09133L9.45464 2.729ZM24.4454 -7.99084C24.3202 -8.01331 24.417 -7.99656 24.5322 -7.97353C24.5848 -7.96301 25.2166 -7.84296 26.0016 -7.5813C27.0245 -7.24033 28.2682 -6.68035 29.5276 -5.75686C30.4735 -5.06314 31.1933 -4.30124 30.9896 -4.50489L12.6049 13.8799C12.6053 13.8803 12.6159 13.8909 12.6278 13.9028C12.6406 13.9156 12.6621 13.937 12.6886 13.963C12.739 14.0127 12.8316 14.1031 12.9494 14.2131C13.1869 14.4347 13.5991 14.8042 14.1521 15.2097C15.4389 16.1533 16.7128 16.7289 17.7797 17.0845C18.6086 17.3608 19.2981 17.4946 19.4331 17.5216C19.6307 17.5611 19.8346 17.5971 19.8522 17.6002L24.4454 -7.99084ZM34.7667 3.79632C34.7745 3.90958 34.7784 4.00026 34.7805 4.06121C34.7826 4.12149 34.7831 4.16086 34.7832 4.16841C34.7832 4.17376 34.7831 4.16481 34.783 4.11747C34.783 4.10638 34.7829 4.09443 34.7829 4.08005C34.7829 4.06686 34.7829 4.04923 34.7828 4.03276C34.7828 3.9989 34.7827 3.95559 34.7825 3.90857L8.78273 4.02355C8.78292 4.06616 8.78284 4.08029 8.78305 4.17557C8.78322 4.24854 8.78358 4.3599 8.78511 4.48553C8.78813 4.7335 8.79638 5.12095 8.82784 5.57868L34.7667 3.79632ZM34.7805 3.73383C34.7793 3.66618 34.7781 3.59857 34.7769 3.52887L8.78102 3.99334C8.78226 4.06301 8.78347 4.13068 8.78468 4.1983L34.7805 3.73383ZM34.7788 3.70074C34.7785 3.63555 34.7782 3.57072 34.7779 3.50356L8.77817 3.62428C8.77848 3.6912 8.77878 3.75651 8.77908 3.82146L34.7788 3.70074ZM34.7775 3.44482C34.7769 3.38505 34.7764 3.32528 34.7758 3.2637L8.77691 3.5019C8.77748 3.56348 8.77802 3.62325 8.77857 3.68302L34.7775 3.44482ZM34.6672 5.06397C34.5439 6.00956 34.2296 7.53063 33.3505 9.20657C32.5791 10.6772 31.6853 11.6302 31.615 11.7079L12.3311 -5.73137C12.1397 -5.51978 11.1594 -4.46007 10.3258 -2.87095C9.38457 -1.07652 9.03248 0.574874 8.88553 1.70164L34.6672 5.06397Z" fill="#FD5523" mask="url(#path-14-inside-1_303_203)"/>
<path d="M12.4215 20.8521C12.5973 20.8594 12.5973 20.8594 12.6559 20.918C12.6632 21.0938 12.6632 21.0938 12.6559 21.2695C12.5973 21.3281 12.5973 21.3281 12.4215 21.3354C12.2457 21.3281 12.2457 21.3281 12.1871 21.2695C12.1798 21.0938 12.1798 21.0938 12.1871 20.918C12.2457 20.8594 12.2457 20.8594 12.4215 20.8521Z" fill="#FD5523"/>
</g>
<defs>
<clipPath id="clip0_303_203">
<rect width="30" height="30" fill="white"/>
</clipPath>
</defs>
</svg>
