<svg width="40" height="40" viewBox="0 0 40 40" fill="none" xmlns="http://www.w3.org/2000/svg">
<g clip-path="url(#clip0_526_167)">
<path d="M14.639 -0.0293042C14.7111 -0.0292617 14.7832 -0.0292192 14.8576 -0.0291754C17.7376 -0.0213937 20.7778 0.595437 22.9144 2.66723C23.7286 3.52975 24.0768 4.52483 24.0717 5.69148C24.0717 5.75937 24.0717 5.82726 24.0717 5.8972C24.0716 6.12039 24.071 6.34358 24.0704 6.56677C24.0703 6.72199 24.0702 6.87721 24.0701 7.03243C24.0698 7.44008 24.069 7.84773 24.0682 8.25538C24.0674 8.67172 24.067 9.08805 24.0666 9.50439C24.0658 10.3206 24.0644 11.1369 24.0628 11.9531C24.1312 11.9513 24.1312 11.9513 24.201 11.9494C24.4121 11.9445 24.6232 11.9415 24.8343 11.9385C24.906 11.9365 24.9777 11.9345 25.0516 11.9325C25.8898 11.9237 26.638 12.1374 27.2589 12.7176C27.7269 13.2174 28.0583 13.8371 28.056 14.5339C28.056 14.5949 28.056 14.6559 28.056 14.7187C28.0556 14.7837 28.0552 14.8488 28.0548 14.9158C28.0547 14.983 28.0546 15.0501 28.0545 15.1194C28.054 15.3335 28.0531 15.5476 28.0521 15.7617C28.0517 15.9071 28.0513 16.0524 28.051 16.1978C28.0501 16.5537 28.0488 16.9097 28.0472 17.2656C28.1288 17.2653 28.2104 17.2649 28.2945 17.2646C29.0658 17.2614 29.837 17.2591 30.6082 17.2575C31.0047 17.2567 31.4011 17.2556 31.7976 17.2538C32.1805 17.2521 32.5635 17.2512 32.9464 17.2508C33.0922 17.2505 33.2379 17.2499 33.3836 17.2491C33.5886 17.248 33.7935 17.2478 33.9984 17.2479C34.058 17.2473 34.1175 17.2468 34.1789 17.2462C34.8714 17.2488 35.4738 17.3537 35.983 17.8561C36.3863 18.2952 36.6521 18.7739 36.9241 19.3018C37.0199 19.4836 37.1158 19.6654 37.2119 19.8471C37.2599 19.9382 37.308 20.0293 37.3574 20.1231C37.6077 20.5918 37.8711 21.053 38.1348 21.5143C38.2115 21.6488 38.2871 21.7841 38.3616 21.9199C38.478 22.1216 38.5981 22.3124 38.727 22.5058C39.416 23.5831 39.4911 24.4785 39.4626 25.7346C39.4617 25.9206 39.4613 26.1066 39.4613 26.2926C39.4605 26.7771 39.4548 27.2614 39.4478 27.7458C39.437 28.525 39.4326 29.3042 39.4301 30.0835C39.4284 30.3547 39.424 30.6257 39.4193 30.8969C39.418 31.0624 39.4167 31.2279 39.4155 31.3934C39.4135 31.4684 39.4115 31.5435 39.4094 31.6208C39.4092 31.9833 39.4097 32.1335 39.6448 32.4237C39.7106 32.4746 39.7763 32.5256 39.844 32.5781C40.0518 32.8673 40.0255 33.1912 40.0265 33.5342C40.0271 33.5967 40.0276 33.6591 40.0281 33.7234C40.0289 33.8553 40.0293 33.9872 40.0293 34.1192C40.0296 34.3198 40.0324 34.5203 40.0354 34.7209C40.0359 34.8494 40.0362 34.978 40.0363 35.1065C40.0374 35.1659 40.0386 35.2254 40.0397 35.2866C40.036 35.7199 39.9357 35.9711 39.6878 36.3281C39.2452 36.6785 38.9339 36.7288 38.3804 36.7264C38.2792 36.7261 38.178 36.7259 38.0737 36.7256C37.9672 36.725 37.8607 36.7243 37.7542 36.7236C37.6465 36.7232 37.5388 36.7229 37.431 36.7226C37.1677 36.7216 36.9043 36.7204 36.6409 36.7187C36.6265 36.7817 36.6121 36.8446 36.5972 36.9094C36.5774 36.9927 36.5576 37.076 36.5372 37.1619C36.5083 37.2852 36.5083 37.2852 36.4788 37.4111C36.1764 38.4372 35.3642 39.1867 34.4534 39.6875C33.5322 40.1202 32.3313 40.172 31.3577 39.873C30.253 39.4262 29.4901 38.7354 28.9358 37.6776C28.8284 37.4219 28.8284 37.4219 28.6722 36.7969C23.155 36.7711 17.6378 36.7453 11.9534 36.7187C11.9276 36.8992 11.9019 37.0797 11.8753 37.2656C11.4206 38.4417 10.689 39.2253 9.56054 39.7903C8.64288 40.165 7.37406 40.1637 6.45599 39.7909C5.37601 39.2478 4.56042 38.5141 4.15069 37.3535C4.07491 37.1174 4.0628 36.977 4.0628 36.7187C3.97377 36.7204 3.88475 36.722 3.79302 36.7237C3.46048 36.7294 3.12794 36.733 2.79537 36.7359C2.65185 36.7375 2.50834 36.7396 2.36484 36.7423C2.1577 36.7461 1.95063 36.7479 1.74346 36.7493C1.68004 36.7509 1.61662 36.7525 1.55128 36.7541C1.1027 36.7543 0.765865 36.6572 0.390925 36.4062C0.0129421 36.0089 -0.0132586 35.6737 -0.018316 35.1453C-0.0189466 35.0827 -0.0195772 35.0202 -0.020227 34.9558C-0.021307 34.8234 -0.0221453 34.691 -0.0227602 34.5586C-0.0236593 34.4237 -0.0252557 34.2889 -0.0275667 34.154C-0.0309136 33.9587 -0.0321658 33.7635 -0.0329645 33.5681C-0.0343323 33.5084 -0.0357001 33.4488 -0.0371094 33.3873C-0.0353676 32.9523 0.0646533 32.7024 0.3128 32.3437C0.64621 32.0622 0.902164 32.0046 1.32842 31.9531C1.32814 31.8616 1.32785 31.7702 1.32755 31.6759C1.32078 29.5024 1.31563 27.329 1.31247 25.1555C1.31208 24.8878 1.31167 24.6201 1.31126 24.3523C1.31118 24.299 1.3111 24.2457 1.31101 24.1908C1.30965 23.3287 1.30719 22.4666 1.30431 21.6045C1.30139 20.7194 1.29968 19.8343 1.29902 18.9492C1.29861 18.4522 1.29766 17.9553 1.29538 17.4584C1.29326 16.9904 1.29261 16.5224 1.29308 16.0544C1.29299 15.8829 1.29237 15.7114 1.29117 15.5399C1.28961 15.3051 1.28999 15.0704 1.29085 14.8356C1.28993 14.7683 1.28902 14.701 1.28809 14.6316C1.29539 13.8821 1.58814 13.1964 2.10967 12.6562C2.82218 12.0531 3.58966 11.9147 4.50225 11.9385C4.5807 11.9395 4.65916 11.9406 4.73998 11.9417C4.93097 11.9444 5.12186 11.9482 5.3128 11.9531C5.31211 11.8642 5.31141 11.7752 5.3107 11.6836C5.30434 10.8423 5.29967 10.001 5.29661 9.15973C5.29498 8.72729 5.29278 8.29486 5.28922 7.86243C5.28581 7.44452 5.28396 7.02662 5.28315 6.6087C5.28258 6.44986 5.28146 6.29101 5.27976 6.13218C5.2596 4.165 5.2596 4.165 5.89385 3.33007C5.95896 3.24215 5.95896 3.24215 6.02539 3.15246C6.07383 3.09183 6.12227 3.03121 6.17217 2.96874C6.2333 2.8916 6.29443 2.81446 6.35742 2.73498C8.31531 0.494896 11.8403 -0.0355185 14.639 -0.0293042ZM7.42217 3.67187C6.94733 4.23708 6.6735 4.74936 6.69586 5.49712C6.78419 6.2817 7.24039 6.8285 7.8128 7.34374C8.40565 7.80279 9.06692 8.16858 9.76592 8.43749C9.81418 8.4561 9.86243 8.4747 9.91214 8.49387C13.0506 9.68008 16.8435 9.65586 19.9222 8.28124C20.6715 7.93915 21.2977 7.55125 21.8753 6.95312C21.9226 6.90468 21.97 6.85624 22.0187 6.80633C22.451 6.33503 22.6713 5.79836 22.6565 5.15624C22.5214 4.24328 21.8857 3.58444 21.1722 3.04687C19.272 1.76865 16.9427 1.37145 14.6927 1.37695C14.6298 1.37696 14.5669 1.37698 14.5021 1.377C12.044 1.38341 9.25611 1.90048 7.42217 3.67187ZM22.2513 8.47656C19.6925 10.5258 15.9265 10.8804 12.7813 10.5645C10.6744 10.3154 8.50632 9.69186 6.8753 8.28124C6.82374 8.28124 6.77217 8.28124 6.71905 8.28124C6.70733 8.66461 6.69889 9.04787 6.6933 9.43137C6.69097 9.5614 6.68778 9.69141 6.68369 9.82139C6.65367 10.7997 6.76246 11.466 7.36877 12.2717C9.41066 14.2461 12.4539 14.673 15.1766 14.6345C17.4555 14.589 20.0842 14.024 21.7972 12.4219C22.4096 11.7425 22.6708 11.1545 22.6642 10.2402C22.6641 10.1818 22.664 10.1234 22.6638 10.0632C22.6634 9.87773 22.6624 9.69228 22.6614 9.50683C22.661 9.38064 22.6607 9.25445 22.6604 9.12826C22.6595 8.81987 22.6582 8.5115 22.6565 8.20312C22.5019 8.20312 22.3616 8.38298 22.2513 8.47656ZM2.93487 13.8721C2.70146 14.2362 2.72388 14.5775 2.72528 14.9954C2.72521 15.0675 2.72515 15.1396 2.72508 15.2139C2.72495 15.4574 2.72538 15.7008 2.72581 15.9443C2.72583 16.1211 2.72582 16.2979 2.72578 16.4747C2.72576 16.9493 2.72621 17.4238 2.72676 17.8984C2.72721 18.3433 2.72723 18.7882 2.72728 19.2331C2.72769 20.5353 2.72878 21.8375 2.72979 23.1396C2.7314 26.0481 2.73301 28.9565 2.73467 31.9531C10.6237 31.9531 18.5128 31.9531 26.6409 31.9531C26.6474 29.0785 26.6538 26.2039 26.6605 23.2422C26.6633 22.3342 26.6661 21.4263 26.6691 20.4909C26.6701 19.6776 26.6701 19.6776 26.6707 18.8643C26.671 18.5018 26.6722 18.1393 26.6739 17.7769C26.6761 17.3145 26.6767 16.8521 26.6763 16.3897C26.6764 16.22 26.677 16.0503 26.6782 15.8806C26.6797 15.6513 26.6794 15.422 26.6785 15.1926C26.6794 15.1264 26.6803 15.0601 26.6813 14.9919C26.6768 14.5428 26.5785 14.2043 26.3284 13.8281C25.9164 13.4267 25.5434 13.3414 24.9852 13.3456C24.9177 13.3469 24.8501 13.3483 24.7806 13.3496C24.677 13.3507 24.677 13.3507 24.5714 13.3517C24.4018 13.3536 24.2323 13.3564 24.0628 13.3594C24.0623 13.4601 24.0619 13.5607 24.0614 13.6645C24.0569 14.6161 24.0512 15.5678 24.0444 16.5195C24.0409 17.0086 24.0378 17.4978 24.0357 17.987C24.0337 18.4596 24.0305 18.9323 24.0266 19.4049C24.0253 19.5846 24.0244 19.7644 24.0239 19.9442C24.0191 21.5557 23.8989 22.7956 22.7255 23.9984C21.0967 25.6143 18.7949 26.3066 16.5628 26.5625C16.4889 26.5712 16.415 26.5798 16.3388 26.5887C13.1474 26.8954 9.50133 26.4271 6.94396 24.3368C6.14756 23.642 5.47441 22.7615 5.3724 21.6783C5.3406 21.0929 5.34352 20.5067 5.34332 19.9206C5.34215 19.7311 5.34084 19.5415 5.3394 19.3519C5.336 18.8556 5.33443 18.3594 5.33325 17.8631C5.33172 17.3556 5.32844 16.8481 5.32531 16.3406C5.31944 15.3469 5.31545 14.3531 5.3128 13.3594C5.06543 13.3502 4.8181 13.3447 4.57061 13.3398C4.50133 13.3372 4.43204 13.3346 4.36065 13.3319C3.77575 13.3233 3.34477 13.4411 2.93487 13.8721ZM6.71905 13.5937C6.71127 13.9814 6.70563 14.369 6.70188 14.7567C6.70032 14.8884 6.6982 15.02 6.69547 15.1516C6.65734 16.1758 6.65734 16.1758 7.03155 17.1094C7.07022 17.1746 7.10889 17.2399 7.14874 17.3071C8.38171 18.9254 10.6367 19.5721 12.5668 19.8561C15.4093 20.2293 18.7492 19.9591 21.1722 18.2812C21.9179 17.7036 22.472 17.1211 22.6565 16.1719C22.6687 15.9604 22.675 15.7578 22.6718 15.5469C22.6716 15.4905 22.6714 15.4342 22.6711 15.3761C22.6703 15.1987 22.6683 15.0212 22.6663 14.8437C22.6655 14.7224 22.6648 14.601 22.6642 14.4797C22.6625 14.1843 22.6598 13.8891 22.6565 13.5937C22.4052 13.7146 22.2062 13.8546 21.9876 14.0283C20.4789 15.1323 18.6165 15.5901 16.7972 15.8594C16.7445 15.8675 16.6918 15.8757 16.6375 15.8841C16.0133 15.968 15.38 15.9565 14.7513 15.957C14.6887 15.9571 14.6261 15.9571 14.5616 15.9572C13.5461 15.9558 12.5607 15.9061 11.5628 15.7031C11.4977 15.6901 11.4326 15.6771 11.3656 15.6637C9.76872 15.333 8.30307 14.7298 6.97656 13.7784C6.9281 13.7437 6.87965 13.709 6.82972 13.6732C6.7932 13.647 6.75668 13.6208 6.71905 13.5937ZM28.0472 18.6719C28.0472 23.0547 28.0472 27.4375 28.0472 31.9531C31.3214 31.9531 34.5956 31.9531 37.969 31.9531C37.969 29.5555 37.969 27.1578 37.969 24.6875C36.0981 24.6742 36.0981 24.6742 34.2272 24.6642C33.8634 24.6607 33.8634 24.6607 33.6925 24.6586C33.5744 24.6575 33.4563 24.657 33.3383 24.6569C32.5511 24.6561 31.8976 24.6364 31.2649 24.1162C30.8784 23.6413 30.697 23.2223 30.6874 22.6098C30.685 22.4784 30.685 22.4784 30.6827 22.3444C30.6814 22.2503 30.68 22.1563 30.6787 22.0593C30.6771 21.9627 30.6755 21.866 30.6738 21.7664C30.6695 21.51 30.6656 21.2537 30.6618 20.9973C30.6579 20.7355 30.6536 20.4736 30.6493 20.2118C30.6408 19.6985 30.6331 19.1852 30.6253 18.6719C29.7745 18.6719 28.9237 18.6719 28.0472 18.6719ZM32.0315 18.6719C32.0276 19.2558 32.0249 19.8398 32.023 20.4238C32.0222 20.6225 32.0211 20.8212 32.0198 21.0199C32.0179 21.3053 32.017 21.5908 32.0163 21.8762C32.0155 21.9652 32.0147 22.0541 32.0138 22.1458C32.0138 22.2287 32.0138 22.3115 32.0138 22.3969C32.0135 22.4698 32.0131 22.5426 32.0128 22.6177C32.033 22.8273 32.0729 22.9494 32.1878 23.125C32.4648 23.3097 32.5796 23.3003 32.9078 23.299C33.0079 23.299 33.1079 23.299 33.2111 23.2989C33.3203 23.2981 33.4296 23.2973 33.5388 23.2965C33.6506 23.2962 33.7623 23.296 33.8741 23.2958C34.1681 23.2952 34.4621 23.2937 34.7561 23.292C35.0561 23.2904 35.3562 23.2897 35.6563 23.2889C36.2449 23.2872 36.8335 23.2845 37.4222 23.2812C37.0355 22.4952 36.635 21.7212 36.2064 20.957C36.1579 20.8699 36.1094 20.7828 36.0594 20.693C35.9156 20.4355 35.7708 20.1785 35.6253 19.9219C35.5759 19.8344 35.5264 19.7469 35.4755 19.6568C35.4275 19.5731 35.3796 19.4893 35.3302 19.4031C35.2874 19.3281 35.2446 19.2532 35.2005 19.1759C35.0256 18.9015 34.921 18.7756 34.6097 18.6719C34.4133 18.6653 34.2192 18.6628 34.0228 18.6642C33.9375 18.6644 33.9375 18.6644 33.8504 18.6646C33.6689 18.665 33.4874 18.666 33.306 18.667C33.1828 18.6674 33.0597 18.6677 32.9365 18.6681C32.6349 18.6689 32.3332 18.6703 32.0315 18.6719ZM6.71905 18.9062C6.71126 19.2828 6.70563 19.6593 6.70188 20.0359C6.70032 20.1637 6.6982 20.2915 6.69547 20.4193C6.66015 21.4261 6.66015 21.4261 7.03155 22.3437C7.06711 22.3988 7.10267 22.4538 7.13931 22.5105C8.24446 24.1395 10.3811 24.7619 12.2102 25.1181C15.1051 25.6395 18.5065 25.3126 21.0159 23.6719C21.5673 23.2395 22.1229 22.7449 22.4368 22.1094C22.4747 22.0344 22.4747 22.0344 22.5134 21.958C22.6643 21.5841 22.6658 21.2208 22.6642 20.8212C22.664 20.7388 22.664 20.7388 22.6638 20.6547C22.6634 20.4804 22.6624 20.3061 22.6614 20.1318C22.661 20.0132 22.6607 19.8945 22.6604 19.7758C22.6595 19.486 22.6582 19.1961 22.6565 18.9062C22.4212 19.0626 22.1867 19.2195 21.9549 19.3811C18.9977 21.3838 15.036 21.664 11.6038 21.0538C9.93536 20.7308 8.23913 20.1405 6.9345 19.021C6.81701 18.8979 6.81701 18.8979 6.71905 18.9062ZM1.40655 33.3594C1.40655 34.0039 1.40655 34.6484 1.40655 35.3125C2.28311 35.3125 3.15967 35.3125 4.0628 35.3125C4.16592 34.9773 4.26905 34.6422 4.3753 34.2969C4.52696 34.0263 4.67468 33.7725 4.84405 33.5156C4.86983 33.4641 4.89561 33.4125 4.92217 33.3594C3.76202 33.3594 2.60186 33.3594 1.40655 33.3594ZM6.01592 34.2187C5.47567 34.9186 5.31308 35.6108 5.39092 36.4844C5.52665 37.1694 5.88131 37.6723 6.40655 38.125C7.15637 38.5963 7.95021 38.7302 8.82018 38.5458C9.59989 38.2671 10.0868 37.7206 10.4617 37.001C10.7449 36.3245 10.6976 35.5708 10.4272 34.8993C10.0615 34.2224 9.49262 33.7022 8.76495 33.457C7.71571 33.1716 6.80515 33.484 6.01592 34.2187ZM11.094 33.3594C11.2745 33.6687 11.455 33.9781 11.6409 34.2969C11.744 34.632 11.8472 34.9672 11.9534 35.3125C17.4706 35.3125 22.9878 35.3125 28.6722 35.3125C28.8269 34.9 28.9815 34.4875 29.1409 34.0625C29.3655 33.7207 29.3655 33.7207 29.5315 33.5156C29.5315 33.4641 29.5315 33.4125 29.5315 33.3594C23.4472 33.3594 17.3628 33.3594 11.094 33.3594ZM30.7025 34.2273C30.0969 34.9637 29.9898 35.6105 30.0784 36.5625C30.2393 37.2761 30.7185 37.8841 31.3284 38.2812C31.9915 38.6535 32.7532 38.7308 33.4909 38.5394C33.6681 38.4665 33.8228 38.3835 33.9847 38.2812C34.0391 38.2481 34.0934 38.215 34.1495 38.1808C34.8075 37.7368 35.1624 37.0991 35.3128 36.3281C35.4101 35.6159 35.1503 34.9502 34.7394 34.3777C34.2965 33.8348 33.6795 33.4322 32.969 33.3594C32.0954 33.3001 31.3114 33.5888 30.7025 34.2273ZM35.7815 33.3594C35.9362 33.643 36.0909 33.9266 36.2503 34.2187C36.3155 34.373 36.3774 34.5288 36.431 34.6875C36.4548 34.7568 36.4787 34.8261 36.5033 34.8975C36.5229 34.9571 36.5426 35.0167 36.5628 35.0781C36.5886 35.1555 36.6144 35.2328 36.6409 35.3125C37.2855 35.3125 37.93 35.3125 38.594 35.3125C38.594 34.668 38.594 34.0234 38.594 33.3594C37.6659 33.3594 36.7378 33.3594 35.7815 33.3594Z" fill="#FD5523"/>
<path d="M11.5834 28.2791C13.6701 28.6682 15.8599 28.6736 17.9399 28.2383C18.009 28.224 18.0781 28.2097 18.1493 28.1949C18.2121 28.1815 18.2749 28.1681 18.3396 28.1543C18.6038 28.1104 18.8066 28.1263 19.0627 28.2031C19.2895 28.4067 19.3654 28.5263 19.4094 28.8281C19.3678 29.1135 19.3378 29.2388 19.1408 29.4531C16.6296 30.4491 12.922 30.3305 10.3816 29.5213C10.2142 29.4437 10.1177 29.3602 10.0002 29.2188C9.95155 28.9808 9.95998 28.7548 10.0002 28.5156C10.4184 27.958 10.9793 28.1643 11.5834 28.2791Z" fill="#FD5523"/>
<path d="M13.9052 2.64039C13.9916 2.63958 13.9916 2.63958 14.0797 2.63875C14.2644 2.63741 14.449 2.63691 14.6337 2.63673C14.6966 2.63663 14.7595 2.63652 14.8243 2.63641C15.7612 2.63675 16.6624 2.67484 17.578 2.89064C17.6607 2.90937 17.7434 2.9281 17.8286 2.9474C18.4814 3.11738 18.4814 3.11738 18.6718 3.43751C18.7268 3.82293 18.7319 3.97223 18.5155 4.29689C18.13 4.5539 17.8273 4.48649 17.3946 4.40217C17.2096 4.3624 17.0249 4.32099 16.8407 4.27766C16.1756 4.13692 15.5216 4.12608 14.8445 4.12616C14.6745 4.12599 14.5045 4.12457 14.3344 4.12309C13.7289 4.12071 13.1524 4.15314 12.554 4.25988C12.1442 4.33197 11.8471 4.38255 11.4843 4.14064C11.2678 3.81598 11.2729 3.66668 11.328 3.28126C11.557 2.98317 11.7666 2.91116 12.1288 2.83693C12.213 2.8189 12.2972 2.80087 12.3839 2.7823C12.893 2.6927 13.3885 2.6437 13.9052 2.64039Z" fill="#FD5523"/>
<path d="M8.01249 35.2685C8.14565 35.2673 8.14565 35.2673 8.2815 35.266C8.93526 35.2717 8.93526 35.2717 9.16329 35.4617C9.38369 35.7315 9.40887 35.9024 9.37479 36.25C9.23417 36.4609 9.13387 36.6048 8.90604 36.7187C8.61362 36.7439 8.3205 36.7441 8.02714 36.748C7.90553 36.7524 7.90553 36.7524 7.78147 36.7569C7.10896 36.7646 7.10896 36.7646 6.82078 36.5411C6.57758 36.2539 6.57758 36.2539 6.58671 36.0156C6.5864 35.9657 6.5861 35.9157 6.58579 35.8642C6.81698 35.1823 7.40834 35.2558 8.01249 35.2685Z" fill="#FD5523"/>
<path d="M32.7 35.2685C32.8332 35.2672 32.8332 35.2672 32.969 35.2659C33.6204 35.2717 33.6204 35.2717 33.8508 35.455C34.0406 35.6968 34.0623 35.8663 34.0623 36.1718C33.8338 36.6126 33.8338 36.6126 33.5154 36.7187C33.2326 36.7387 32.9493 36.7368 32.6658 36.7383C32.5882 36.7399 32.5105 36.7415 32.4305 36.7431C31.7108 36.747 31.7108 36.747 31.4061 36.4843C31.2827 36.2376 31.2639 35.9682 31.3279 35.7031C31.6611 35.1805 32.1421 35.2568 32.7 35.2685Z" fill="#FD5523"/>
<path d="M22.2652 26.6406C22.4898 26.7627 22.4898 26.7627 22.6558 26.9531C22.7416 27.248 22.7753 27.4144 22.6399 27.6944C22.3437 28.1085 21.9043 28.3826 21.4205 28.5254C21.1332 28.5141 21.004 28.4598 20.7808 28.2812C20.5918 27.9977 20.5823 27.8633 20.6233 27.5332C20.8764 26.9287 21.6505 26.5885 22.2652 26.6406Z" fill="#FD5523"/>
<path d="M7.47416 26.586C7.9336 26.724 8.33682 27.087 8.67167 27.4219C8.72624 27.7505 8.72782 28.0352 8.5496 28.3203C8.27969 28.4864 8.13307 28.526 7.8123 28.5156C7.3768 28.3224 6.91898 28.0462 6.64042 27.6562C6.58611 27.4345 6.5859 27.2529 6.64042 27.0312C6.85742 26.7058 7.07179 26.5637 7.47416 26.586Z" fill="#FD5523"/>
<path d="M9.45279 4.0625C9.6774 4.18457 9.6774 4.18457 9.84342 4.375C9.92665 4.6611 9.95758 4.83405 9.84342 5.11231C9.23717 5.88907 9.23717 5.88907 8.98404 6.01563C8.67267 6.045 8.48984 6.04425 8.21256 5.89356C7.9909 5.6393 7.96272 5.4926 7.96842 5.15625C8.21901 4.54613 8.73646 3.91383 9.45279 4.0625Z" fill="#FD5523"/>
</g>
<defs>
<clipPath id="clip0_526_167">
<rect width="40" height="40" fill="white"/>
</clipPath>
</defs>
</svg>
