<svg width="44" height="45" viewBox="0 0 44 45" fill="none" xmlns="http://www.w3.org/2000/svg">
<mask id="mask0_476_3642" style="mask-type:luminance" maskUnits="userSpaceOnUse" x="1" y="3" width="42" height="39">
<path d="M43 3H1V42H43V3Z" fill="white"/>
<path d="M34.0171 8.8207L39.597 18.8107L29.0671 22.4107L39.597 25.8307L33.6571 36.2707L25.1971 28.4407L27.6271 39.6007H16.1071L18.4471 28.4407L10.1671 36.4507L3.95703 25.7407L14.4871 22.1407L4.13703 18.9007L9.71703 8.9107L18.5371 16.4707L15.9271 5.2207H27.7171L25.1971 16.4707L34.0171 8.8207Z" fill="black"/>
</mask>
<g mask="url(#mask0_476_3642)">
<path d="M34.0171 8.8207L35.7632 7.84541L34.5641 5.69874L32.7066 7.30983L34.0171 8.8207ZM39.5971 18.8107L40.2441 20.7032L42.5119 19.9278L41.3432 17.8354L39.5971 18.8107ZM29.0671 22.4107L28.4201 20.5182L22.7423 22.4594L28.4493 24.3129L29.0671 22.4107ZM39.5971 25.8307L41.3354 26.8197L42.5491 24.6866L40.2149 23.9285L39.5971 25.8307ZM33.6571 36.2707L32.2986 37.7385L34.1487 39.4509L35.3954 37.2597L33.6571 36.2707ZM25.1971 28.4407L26.5556 26.9729L21.8905 22.6552L23.2429 28.8662L25.1971 28.4407ZM27.6271 39.6007V41.6007H30.1094L29.5813 39.1752L27.6271 39.6007ZM16.1071 39.6007L14.1496 39.1903L13.6442 41.6007H16.1071V39.6007ZM18.4471 28.4407L20.4045 28.8511L21.7425 22.4701L17.0565 27.0032L18.4471 28.4407ZM10.1671 36.4507L8.43691 37.4539L9.71968 39.6662L11.5577 37.8882L10.1671 36.4507ZM3.9571 25.7407L3.31011 23.8482L1.00488 24.6364L2.22691 26.7439L3.9571 25.7407ZM14.4871 22.1407L15.1341 24.0332L20.9143 22.057L15.0846 20.232L14.4871 22.1407ZM4.1371 18.9007L2.39102 17.9254L1.19085 20.0741L3.5396 20.8094L4.1371 18.9007ZM9.7171 8.9107L11.0187 7.39218L9.16291 5.80153L7.97102 7.93541L9.7171 8.9107ZM18.5371 16.4707L17.2355 17.9892L21.8626 21.9553L20.4853 16.0187L18.5371 16.4707ZM15.9271 5.2207V3.2207H13.41L13.9788 5.67269L15.9271 5.2207ZM27.7171 5.2207L29.6687 5.65786L30.2146 3.2207H27.7171V5.2207ZM25.1971 16.4707L23.2454 16.0335L21.9173 21.9629L26.5075 17.9816L25.1971 16.4707ZM32.271 9.79599L37.851 19.786L41.3432 17.8354L35.7632 7.84541L32.271 9.79599ZM38.9501 16.9182L28.4201 20.5182L29.7141 24.3032L40.2441 20.7032L38.9501 16.9182ZM28.4493 24.3129L38.9793 27.7329L40.2149 23.9285L29.6849 20.5085L28.4493 24.3129ZM37.8588 24.8417L31.9188 35.2816L35.3954 37.2597L41.3354 26.8197L37.8588 24.8417ZM35.0156 34.8029L26.5556 26.9729L23.8386 29.9085L32.2986 37.7385L35.0156 34.8029ZM23.2429 28.8662L25.6729 40.0262L29.5813 39.1752L27.1513 28.0152L23.2429 28.8662ZM27.6271 37.6007H16.1071V41.6007H27.6271V37.6007ZM18.0645 40.0111L20.4045 28.8511L16.4896 28.0303L14.1496 39.1903L18.0645 40.0111ZM17.0565 27.0032L8.77652 35.0132L11.5577 37.8882L19.8377 29.8782L17.0565 27.0032ZM11.8973 35.4475L5.68729 24.7375L2.22691 26.7439L8.43691 37.4539L11.8973 35.4475ZM4.60409 27.6332L15.1341 24.0332L13.8401 20.2482L3.31011 23.8482L4.60409 27.6332ZM15.0846 20.232L4.73459 16.992L3.5396 20.8094L13.8896 24.0494L15.0846 20.232ZM5.88318 19.876L11.4632 9.88599L7.97102 7.93541L2.39102 17.9254L5.88318 19.876ZM8.41552 10.4292L17.2355 17.9892L19.8387 14.9522L11.0187 7.39218L8.41552 10.4292ZM20.4853 16.0187L17.8753 4.7687L13.9788 5.67269L16.5888 16.9227L20.4853 16.0187ZM15.9271 7.2207H27.7171V3.2207H15.9271V7.2207ZM25.7654 4.78353L23.2454 16.0335L27.1487 16.9079L29.6687 5.65786L25.7654 4.78353ZM26.5075 17.9816L35.3275 10.3316L32.7066 7.30983L23.8866 14.9598L26.5075 17.9816Z" fill="#062E39" fill-opacity="0.5"/>
</g>
</svg>
