<svg width="28" height="29" viewBox="0 0 28 29" fill="none" xmlns="http://www.w3.org/2000/svg">
<g clip-path="url(#clip0_306_6027)">
<path d="M14.0001 0.472656C14.0543 0.47181 14.0543 0.47181 14.1095 0.470947C14.2794 0.516078 14.3371 0.573703 14.4376 0.71875C14.4641 0.88824 14.4583 1.05361 14.4513 1.22461C14.4503 1.27057 14.4493 1.31654 14.4483 1.36389C14.4457 1.477 14.4418 1.59007 14.4376 1.70313C14.489 1.70595 14.489 1.70595 14.5414 1.70883C17.6393 1.89006 20.6398 3.03815 22.8595 5.25781C22.8912 5.64459 22.8912 5.64459 22.7741 5.83203C22.5908 5.94483 22.4706 5.93313 22.2579 5.91406C22.1178 5.82947 22.1178 5.82947 21.9845 5.70898C21.9327 5.66401 21.8809 5.61903 21.8275 5.57269C21.7999 5.54825 21.7722 5.5238 21.7438 5.49862C21.1545 4.98119 20.5311 4.55421 19.8517 4.16406C19.8006 4.13406 19.8006 4.13406 19.7484 4.10345C18.2283 3.21511 16.419 2.72504 14.6651 2.64243C14.547 2.63281 14.547 2.63281 14.4376 2.57813C14.4376 3.46242 14.4376 4.34672 14.4376 5.25781C14.7083 5.27586 14.979 5.29391 15.2579 5.3125C15.4774 5.34768 15.6908 5.38503 15.9074 5.43213C15.9637 5.44424 16.02 5.45634 16.078 5.46882C18.4434 5.9973 20.5425 7.4963 21.8453 9.53869C22.6938 10.9484 23.1331 12.4234 23.2423 14.0625C24.1266 14.0625 25.0109 14.0625 25.922 14.0625C25.904 14.0264 25.8859 13.9903 25.8673 13.9531C25.8579 13.8795 25.8511 13.8056 25.8457 13.7316C25.6688 11.5012 24.9752 9.18102 23.5311 7.42673C23.5059 7.39563 23.4807 7.36452 23.4547 7.33248C23.4058 7.27289 23.356 7.21407 23.3051 7.15621C23.1719 6.99419 23.1167 6.87278 23.1122 6.66687C23.1329 6.46094 23.1329 6.46094 23.2184 6.32422C23.4059 6.20882 23.5181 6.20801 23.7345 6.24219C23.8503 6.33124 23.9188 6.40326 24.0079 6.51563C24.053 6.56681 24.053 6.56681 24.099 6.61902C25.8568 8.68796 26.6249 11.4056 26.797 14.0625C26.8655 14.06 26.9341 14.0574 27.0047 14.0548C27.0949 14.0528 27.1852 14.0508 27.2755 14.0488C27.3206 14.047 27.3658 14.0452 27.4122 14.0433C27.7459 14.0379 27.7459 14.0379 27.9205 14.1591C28.0033 14.2861 28.0312 14.35 28.0309 14.5C28.0321 14.5361 28.0333 14.5722 28.0345 14.6094C27.978 14.7892 27.8875 14.8434 27.7267 14.9375C27.5649 14.9629 27.4081 14.9583 27.2448 14.9512C27.2017 14.9502 27.1585 14.9492 27.1141 14.9482C27.0084 14.9456 26.9027 14.9417 26.797 14.9375C26.7951 14.9718 26.7932 15.006 26.7913 15.0413C26.6523 17.4175 25.9789 19.831 24.5548 21.7734C24.5175 21.8255 24.4802 21.8776 24.4418 21.9313C23.7171 22.923 22.8637 23.8831 21.8751 24.6172C21.8419 24.6419 21.8087 24.6666 21.7745 24.692C19.6034 26.2937 17.1317 27.1623 14.4376 27.2969C14.4402 27.3608 14.4427 27.4248 14.4453 27.4906C14.4474 27.5753 14.4494 27.66 14.4513 27.7446C14.4531 27.7867 14.455 27.8287 14.4569 27.8721C14.4606 28.088 14.4526 28.2009 14.3411 28.3915C14.2127 28.5055 14.1684 28.5364 14.0001 28.5308C13.964 28.5308 13.9279 28.5309 13.8908 28.531C13.722 28.4832 13.6632 28.4261 13.5626 28.2813C13.5362 28.1118 13.542 27.9464 13.549 27.7754C13.55 27.7294 13.5509 27.6835 13.552 27.6361C13.5545 27.523 13.5584 27.4099 13.5626 27.2969C13.5284 27.295 13.4941 27.2931 13.4588 27.2912C11.0677 27.1513 8.6519 26.4744 6.70862 25.0263C6.60686 24.9533 6.5128 24.8874 6.39857 24.8359C6.24514 24.8588 6.24514 24.8588 6.12513 24.9453C5.57686 25.1901 5.08206 25.2473 4.50523 25.0532C3.93538 24.8202 3.57571 24.4478 3.33308 23.887C3.15108 23.3771 3.19229 22.8734 3.39076 22.375C3.42234 22.3242 3.45392 22.2735 3.48646 22.2212C3.56653 22.1067 3.56653 22.1067 3.54649 21.9792C3.48715 21.7858 3.38112 21.6415 3.2643 21.4795C1.92613 19.5396 1.34554 17.2611 1.20326 14.9375C1.13932 14.94 1.07538 14.9426 1.0095 14.9452C0.924839 14.9472 0.840173 14.9492 0.755506 14.9512C0.713455 14.953 0.671405 14.9548 0.62808 14.9567C0.412128 14.9604 0.29921 14.9525 0.108655 14.8409C-0.00538933 14.7125 -0.0362128 14.6682 -0.030627 14.5C-0.0306975 14.4639 -0.030768 14.4278 -0.0308406 14.3906C0.0169574 14.2218 0.0740434 14.1631 0.218885 14.0625C0.388374 14.0361 0.553743 14.0419 0.724744 14.0488C0.770707 14.0498 0.81667 14.0508 0.864026 14.0518C0.977131 14.0544 1.0902 14.0583 1.20326 14.0625C1.20608 14.0111 1.20608 14.0111 1.20896 13.9587C1.31537 12.1399 1.73597 10.4594 2.51576 8.8125C2.53385 8.7742 2.55194 8.73591 2.57058 8.69645C2.90321 8.00586 3.33491 7.32666 3.81185 6.72683C3.89585 6.62883 3.89585 6.62883 3.87611 6.50195C3.82969 6.34395 3.82969 6.34395 3.74281 6.17383C3.57606 5.73962 3.59096 5.12654 3.74281 4.68701C3.9606 4.23605 4.35135 3.82145 4.81263 3.61719C5.35778 3.43439 5.92948 3.42634 6.45582 3.66803C6.56263 3.72656 6.56263 3.72656 6.7267 3.83594C6.94013 3.81861 7.07283 3.74482 7.24623 3.62402C9.14763 2.38276 11.3196 1.84047 13.5626 1.70313C13.5601 1.6346 13.5576 1.56608 13.5549 1.49548C13.5529 1.40519 13.5509 1.3149 13.549 1.22461C13.5471 1.17949 13.5453 1.13438 13.5434 1.08789C13.538 0.754246 13.538 0.754246 13.6592 0.579468C13.7871 0.49631 13.8494 0.470301 14.0001 0.472656ZM7.89906 4.23584C7.85961 4.25818 7.82016 4.28053 7.77951 4.30355C7.63157 4.39117 7.51058 4.46684 7.40922 4.60754C7.37413 4.74564 7.42004 4.83889 7.46348 4.97092C7.58197 5.4756 7.50469 5.97663 7.25776 6.42484C6.98774 6.85876 6.68216 7.13684 6.19221 7.29813C5.65 7.41431 5.11042 7.3694 4.59388 7.17188C3.06213 9.24409 2.24977 11.4898 2.07826 14.0625C2.96256 14.0625 3.84685 14.0625 4.75795 14.0625C4.7884 13.8493 4.81886 13.6361 4.85023 13.4165C5.03137 12.213 5.34276 11.0207 5.96107 9.96094C6.13593 9.87351 6.31817 9.87914 6.50795 9.90625C6.62074 9.9917 6.62074 9.9917 6.67201 10.125C6.65037 10.4133 6.57332 10.6241 6.44301 10.8804C6.13651 11.51 5.9281 12.1653 5.77992 12.8491C5.76684 12.9088 5.76684 12.9088 5.7535 12.9697C5.67916 13.3375 5.66236 13.6801 5.63295 14.0625C6.82404 14.0625 8.01514 14.0625 9.24232 14.0625C9.29646 13.8279 9.3506 13.5933 9.40639 13.3516C9.61138 12.6256 9.90576 12.018 10.3908 11.4375C10.4192 11.4011 10.4477 11.3646 10.4771 11.3271C11.1704 10.4739 12.2637 9.97065 13.3368 9.8223C13.5003 9.81537 13.5003 9.81537 13.5626 9.74219C13.5678 9.62977 13.5691 9.51718 13.5688 9.40465C13.5689 9.35183 13.5689 9.35183 13.5689 9.29795C13.5688 9.18106 13.5684 9.06418 13.568 8.9473C13.5679 8.86645 13.5678 8.78561 13.5677 8.70476C13.5675 8.4916 13.567 8.27843 13.5664 8.06526C13.5658 7.8479 13.5656 7.63053 13.5653 7.41316C13.5647 6.98638 13.5638 6.5596 13.5626 6.13281C13.399 6.14893 13.2353 6.16536 13.0717 6.18195C13.0031 6.18865 13.0031 6.18865 12.9332 6.1955C10.8525 6.40852 8.9721 7.51203 7.60768 9.06949C7.46786 9.22199 7.42806 9.24712 7.2223 9.26025C7.05482 9.25 7.05482 9.25 6.89076 9.14063C6.83866 8.94338 6.80717 8.8167 6.89888 8.62985C7.02047 8.45516 7.15631 8.29818 7.30092 8.14258C7.32993 8.11133 7.35893 8.08008 7.38882 8.04789C7.65734 7.76389 7.94739 7.51845 8.25795 7.28125C8.30835 7.24093 8.35876 7.2006 8.41069 7.15906C8.84389 6.81998 9.30257 6.55027 9.7892 6.29688C9.82297 6.27924 9.85673 6.26161 9.89152 6.24344C11.0527 5.64691 12.2753 5.44172 13.5626 5.25781C13.5626 4.37352 13.5626 3.48922 13.5626 2.57813C11.5786 2.57813 9.60312 3.26062 7.89906 4.23584ZM4.70668 4.82715C4.49851 5.11732 4.51193 5.40446 4.5392 5.75C4.65041 6.06608 4.84733 6.26224 5.12025 6.45068C5.42152 6.55668 5.73326 6.58563 6.03477 6.46372C6.34131 6.28209 6.57641 6.04586 6.67201 5.69531C6.71716 5.33891 6.66243 5.06039 6.45326 4.76563C6.2042 4.49677 5.94993 4.37985 5.58851 4.35889C5.20663 4.36741 4.95294 4.5457 4.70668 4.82715ZM14.4376 6.13281C14.4364 6.60247 14.4354 7.07213 14.4348 7.54179C14.4345 7.75985 14.4341 7.97791 14.4335 8.19597C14.4329 8.40624 14.4326 8.61651 14.4324 8.82678C14.4323 8.90718 14.4321 8.98757 14.4319 9.06796C14.4315 9.18019 14.4314 9.29242 14.4314 9.40465C14.4313 9.46865 14.4312 9.53265 14.4311 9.59859C14.4213 9.73812 14.4213 9.73812 14.4923 9.79688C14.5836 9.81302 14.675 9.82888 14.7665 9.84326C15.9534 10.0341 17.0016 10.6303 17.7531 11.5776C18.2076 12.2116 18.4779 12.868 18.6486 13.625C18.6847 13.7694 18.7208 13.9138 18.7579 14.0625C19.949 14.0625 21.1401 14.0625 22.3673 14.0625C22.1345 11.8507 21.4043 10.0504 19.797 8.48438C19.769 8.45392 19.741 8.42347 19.7122 8.39209C18.4977 7.10217 16.6674 6.35203 14.9285 6.18195C14.881 6.17713 14.8336 6.17231 14.7846 6.16735C14.669 6.15565 14.5533 6.14421 14.4376 6.13281ZM11.1564 11.8203C10.6044 12.4334 10.172 13.225 10.172 14.0625C11.2909 14.0625 12.4098 14.0625 13.5626 14.0625C13.5626 12.9436 13.5626 11.8247 13.5626 10.6719C12.6412 10.6719 11.8001 11.1919 11.1564 11.8203ZM14.4376 10.6719C14.4376 11.7908 14.4376 12.9097 14.4376 14.0625C15.5565 14.0625 16.6754 14.0625 17.8283 14.0625C17.7266 13.046 17.2921 12.2084 16.5275 11.5189C15.9279 11.0435 15.2133 10.6719 14.4376 10.6719ZM2.07826 14.9375C2.24686 16.9607 2.7211 19.9677 4.37513 21.4453C4.4089 21.4335 4.44267 21.4216 4.47746 21.4094C5.01261 21.2335 5.5256 21.2128 6.04545 21.4556C6.60041 21.7645 6.91059 22.1797 7.09584 22.7817C7.14245 23.2595 7.07856 23.6639 6.94545 24.125C8.9898 25.5422 11.0771 26.2147 13.5626 26.4219C13.5626 25.5376 13.5626 24.6533 13.5626 23.7422C13.3495 23.7117 13.1363 23.6813 12.9166 23.6499C10.2731 23.25 8.08059 21.9912 6.46885 19.8395C5.40905 18.3785 4.99261 16.6975 4.75795 14.9375C3.87365 14.9375 2.98935 14.9375 2.07826 14.9375ZM5.63295 14.9375C5.86577 17.1493 6.59599 18.9496 8.20326 20.5156C8.23125 20.5461 8.25923 20.5765 8.28807 20.6079C9.50257 21.8978 11.3328 22.648 13.0717 22.8181C13.1192 22.8229 13.1667 22.8277 13.2156 22.8326C13.3313 22.8443 13.447 22.8558 13.5626 22.8672C13.5639 22.3975 13.5649 21.9279 13.5655 21.4582C13.5658 21.2401 13.5661 21.0221 13.5668 20.804C13.5674 20.5938 13.5677 20.3835 13.5678 20.1732C13.5679 20.0928 13.5681 20.0124 13.5684 19.932C13.5688 19.8198 13.5689 19.7076 13.5688 19.5954C13.569 19.5314 13.5691 19.4674 13.5692 19.4014C13.579 19.2619 13.579 19.2619 13.5079 19.2031C13.4167 19.187 13.3253 19.1711 13.2337 19.1567C12.0469 18.9659 10.9987 18.3697 10.2472 17.4224C9.79267 16.7884 9.52236 16.132 9.3517 15.375C9.29756 15.1584 9.29756 15.1584 9.24232 14.9375C8.05123 14.9375 6.86014 14.9375 5.63295 14.9375ZM10.172 14.9375C10.2737 15.954 10.7082 16.7916 11.4728 17.4811C12.0724 17.9565 12.787 18.3281 13.5626 18.3281C13.5626 17.2092 13.5626 16.0903 13.5626 14.9375C12.4437 14.9375 11.3248 14.9375 10.172 14.9375ZM14.4376 14.9375C14.4376 16.0564 14.4376 17.1753 14.4376 18.3281C15.4542 18.2265 16.2917 17.792 16.9812 17.0274C17.4566 16.4277 17.8283 15.7132 17.8283 14.9375C16.7094 14.9375 15.5904 14.9375 14.4376 14.9375ZM18.7033 14.9922C18.6871 15.0835 18.6713 15.1748 18.6569 15.2664C18.4661 16.4532 17.8699 17.5014 16.9225 18.2529C16.2397 18.7425 15.4979 19.0623 14.6634 19.1777C14.5 19.1846 14.5 19.1846 14.4376 19.2578C14.4325 19.3702 14.4312 19.4828 14.4314 19.5954C14.4314 19.6306 14.4314 19.6658 14.4314 19.7021C14.4314 19.8189 14.4319 19.9358 14.4323 20.0527C14.4324 20.1336 14.4325 20.2144 14.4325 20.2952C14.4327 20.5084 14.4333 20.7216 14.4339 20.9347C14.4344 21.1521 14.4347 21.3695 14.435 21.5868C14.4356 22.0136 14.4365 22.4404 14.4376 22.8672C14.6012 22.8512 14.7646 22.8348 14.9281 22.8183C14.9738 22.8138 15.0194 22.8094 15.0665 22.8048C16.7182 22.636 18.2115 21.9069 19.4689 20.8438C19.4537 20.8073 19.4386 20.7709 19.423 20.7333C19.1882 20.136 19.1184 19.586 19.3495 18.9758C19.582 18.47 19.9382 18.1596 20.4396 17.9316C20.8431 17.8385 21.2496 17.8074 21.6564 17.8906C22.0741 16.9841 22.3673 15.9412 22.3673 14.9375C21.8977 14.9362 21.428 14.9353 20.9583 14.9347C20.7403 14.9344 20.5222 14.934 20.3042 14.9334C20.0939 14.9328 19.8836 14.9325 19.6734 14.9323C19.593 14.9322 19.5126 14.932 19.4322 14.9317C19.3199 14.9313 19.2077 14.9313 19.0955 14.9313C19.0315 14.9312 18.9675 14.931 18.9016 14.9309C18.762 14.9211 18.762 14.9211 18.7033 14.9922ZM23.2423 14.9375C23.213 15.1574 23.1837 15.3774 23.1535 15.604C23.0187 16.5491 22.7604 17.4373 22.422 18.3281C22.4432 18.35 22.4643 18.372 22.4861 18.3946C22.8954 18.8413 23.0429 19.3072 23.0349 19.9055C22.9995 20.4448 22.7692 20.9141 22.3616 21.2733C21.8889 21.6121 21.3579 21.736 20.7814 21.6641C20.6185 21.6124 20.4652 21.5533 20.3097 21.4825C20.1835 21.4336 20.1835 21.4336 20.0732 21.478C19.924 21.58 19.7841 21.691 19.6432 21.8042C18.1056 23.0068 16.343 23.4881 14.4376 23.7422C14.4376 24.6265 14.4376 25.5108 14.4376 26.4219C15.4095 26.3492 15.4095 26.3492 16.3654 26.1997C16.4209 26.1882 16.4765 26.1768 16.5338 26.1649C18.311 25.7764 19.9749 25.0046 21.3829 23.8516C21.411 23.8291 21.4391 23.8066 21.468 23.7834C22.2282 23.173 22.9245 22.4877 23.5025 21.7014C23.5691 21.6112 23.6372 21.5225 23.7057 21.4338C25.1478 19.5312 25.7185 17.2777 25.922 14.9375C25.0377 14.9375 24.1534 14.9375 23.2423 14.9375ZM20.2926 19.022C20.0989 19.3331 19.9844 19.6009 20.0363 19.9722C20.1132 20.275 20.2717 20.4794 20.5079 20.6797C20.7723 20.8335 21.0252 20.9002 21.3283 20.8438C21.6897 20.7244 21.9191 20.5706 22.1026 20.2349C22.2239 19.9653 22.2557 19.7002 22.1678 19.417C22.0409 19.1345 21.8632 18.9319 21.6017 18.7656C21.1111 18.5827 20.6789 18.6686 20.2926 19.022ZM4.38197 22.4741C4.16506 22.747 4.08873 22.9556 4.10853 23.3047C4.15243 23.6412 4.28879 23.8237 4.53236 24.0566C4.84 24.2781 5.07837 24.3118 5.44731 24.2636C5.78305 24.1886 5.98539 23.9575 6.17982 23.6875C6.32402 23.3991 6.30335 23.1205 6.23451 22.8125C6.07563 22.5006 5.84537 22.2799 5.52357 22.1392C5.06714 22.0346 4.69969 22.1287 4.38197 22.4741Z" fill="#FD5523"/>
</g>
<defs>
<clipPath id="clip0_306_6027">
<rect width="28" height="28" fill="white" transform="translate(0 0.5)"/>
</clipPath>
</defs>
</svg>
