<svg width="60" height="60" viewBox="0 0 60 60" fill="none" xmlns="http://www.w3.org/2000/svg">
<path d="M15 30H22.5C22.7486 30 22.9871 29.9012 23.1629 29.7254C23.3387 29.5496 23.4375 29.3111 23.4375 29.0625C23.4375 28.8139 23.3387 28.5754 23.1629 28.3996C22.9871 28.2238 22.7486 28.125 22.5 28.125H15C14.7514 28.125 14.5129 28.2238 14.3371 28.3996C14.1613 28.5754 14.0625 28.8139 14.0625 29.0625C14.0625 29.3111 14.1613 29.5496 14.3371 29.7254C14.5129 29.9012 14.7514 30 15 30Z" fill="white"/>
<path d="M17.8125 31.875H15C14.7514 31.875 14.5129 31.9738 14.3371 32.1496C14.1613 32.3254 14.0625 32.5639 14.0625 32.8125C14.0625 33.0611 14.1613 33.2996 14.3371 33.4754C14.5129 33.6512 14.7514 33.75 15 33.75H17.8125C18.0611 33.75 18.2996 33.6512 18.4754 33.4754C18.6512 33.2996 18.75 33.0611 18.75 32.8125C18.75 32.5639 18.6512 32.3254 18.4754 32.1496C18.2996 31.9738 18.0611 31.875 17.8125 31.875Z" fill="white"/>
<path d="M22.5 33.75C22.7486 33.75 22.9871 33.6512 23.1629 33.4754C23.3387 33.2996 23.4375 33.0611 23.4375 32.8125C23.4375 32.5639 23.3387 32.3254 23.1629 32.1496C22.9871 31.9738 22.7486 31.875 22.5 31.875H21.5625C21.3139 31.875 21.0754 31.9738 20.8996 32.1496C20.7238 32.3254 20.625 32.5639 20.625 32.8125C20.625 33.0611 20.7238 33.2996 20.8996 33.4754C21.0754 33.6512 21.3139 33.75 21.5625 33.75H22.5Z" fill="white"/>
<path d="M49.6875 32.9818V4.92188C49.6866 4.11407 49.3653 3.33961 48.7941 2.7684C48.2229 2.1972 47.4484 1.8759 46.6406 1.875H13.3594C12.5516 1.8759 11.7771 2.1972 11.2059 2.7684C10.6347 3.33961 10.3134 4.11407 10.3125 4.92188V39.1406C10.3134 39.9484 10.6347 40.7229 11.2059 41.2941C11.7771 41.8653 12.5516 42.1866 13.3594 42.1875H21.1001L15.0703 56.8305C15.0117 56.973 14.989 57.1277 15.0044 57.2809C15.0197 57.4342 15.0726 57.5813 15.1583 57.7093C15.2441 57.8373 15.36 57.9421 15.4959 58.0146C15.6318 58.0871 15.7835 58.125 15.9375 58.125H30C30.1908 58.125 30.3771 58.0667 30.534 57.958C30.6908 57.8493 30.8107 57.6954 30.8777 57.5167L33.5034 50.5147L41.3646 49.085C42.8151 48.8183 44.1405 48.0897 45.1431 47.008L53.6201 37.8246C54.1343 37.2678 54.4306 36.5443 54.4547 35.7867C54.4788 35.0292 54.2291 34.2883 53.7513 33.6999C53.2735 33.1115 52.5997 32.7151 51.8533 32.5832C51.1069 32.4513 50.338 32.5928 49.6875 32.9818ZM47.8125 4.92188V7.73438C47.4413 7.57924 47.0429 7.49956 46.6406 7.5H34.6875V3.75H46.6406C46.9513 3.75034 47.2492 3.87392 47.4689 4.09361C47.6886 4.31331 47.8122 4.61118 47.8125 4.92188ZM27.1875 9.375H32.8125V14.0625H27.1875V9.375ZM32.8125 3.75V7.5H27.1875V3.75H32.8125ZM13.3594 3.75H25.3125V7.5H13.3594C12.9571 7.49956 12.5587 7.57924 12.1875 7.73438V4.92188C12.1878 4.61118 12.3114 4.31331 12.5311 4.09361C12.7508 3.87392 13.0487 3.75034 13.3594 3.75ZM12.1875 39.1406V10.5469C12.1878 10.2362 12.3114 9.93831 12.5311 9.71861C12.7508 9.49892 13.0487 9.37534 13.3594 9.375H25.3125V11.25H20.625C20.3764 11.25 20.1379 11.3488 19.9621 11.5246C19.7863 11.7004 19.6875 11.9389 19.6875 12.1875C19.6875 12.4361 19.7863 12.6746 19.9621 12.8504C20.1379 13.0262 20.3764 13.125 20.625 13.125H25.3125V15C25.3125 15.2486 25.4113 15.4871 25.5871 15.6629C25.7629 15.8387 26.0014 15.9375 26.25 15.9375H33.75C33.9986 15.9375 34.2371 15.8387 34.4129 15.6629C34.5887 15.4871 34.6875 15.2486 34.6875 15V9.375H46.6406C46.9513 9.37534 47.2492 9.49892 47.4689 9.71861C47.6886 9.93831 47.8122 10.2362 47.8125 10.5469V34.2684L45.9375 35.5664V28.125C45.9375 27.8764 45.8387 27.6379 45.6629 27.4621C45.4871 27.2863 45.2486 27.1875 45 27.1875H35.625C35.3764 27.1875 35.1379 27.2863 34.9621 27.4621C34.7863 27.6379 34.6875 27.8764 34.6875 28.125V32.8125H31.0337C30.8426 32.8125 26.2365 34.7447 26.2365 34.7447C25.4149 35.0943 24.6708 35.6033 24.0472 36.2424C23.4237 36.8814 22.933 37.6378 22.6037 38.4677L21.8653 40.3125H13.3594C13.0487 40.3122 12.7508 40.1886 12.5311 39.9689C12.3114 39.7492 12.1878 39.4513 12.1875 39.1406ZM44.0625 36.5625H39.2906C39.3937 36.1344 39.4025 35.6889 39.3163 35.2571C39.2301 34.8252 39.0511 34.4172 38.7915 34.0615C38.532 33.7057 38.1983 33.4106 37.8134 33.1966C37.4285 32.9826 37.0017 32.8549 36.5625 32.8222V29.0625H44.0625V36.5625ZM37.0698 38.8083C37.3777 38.7309 37.6716 38.6058 37.9407 38.4375H41.7905L39.082 40.3125H34.1382L35.1668 39.2841L37.0698 38.8083ZM52.2422 36.5532L43.7653 45.7365C43.0393 46.5198 42.0795 47.0474 41.0291 47.2406L32.6447 48.7651C32.4851 48.7941 32.3358 48.8641 32.2114 48.968C32.0869 49.072 31.9916 49.2065 31.9346 49.3583L29.3503 56.25H17.3373L23.3624 41.6179L23.3655 41.6104L23.3668 41.607L23.3705 41.5983L24.3441 39.1641C24.5826 38.5632 24.938 38.0155 25.3896 37.5529C25.8413 37.0902 26.3802 36.7217 26.9752 36.4688L31.1299 34.6875H36.3316C36.5736 34.6875 36.8095 34.7625 37.007 34.9024C37.2044 35.0422 37.3535 35.2398 37.4338 35.468C37.5141 35.6963 37.5216 35.9438 37.4552 36.1764C37.3888 36.409 37.2518 36.6153 37.0631 36.7668C37.0567 36.7719 37.0501 36.7768 37.0438 36.7821C36.9166 36.88 36.7707 36.9505 36.615 36.9894L34.4602 37.5285C34.2953 37.5695 34.1448 37.6546 34.0246 37.7746L31.2121 40.5871C31.0809 40.7182 30.9917 40.8852 30.9555 41.0671C30.9193 41.249 30.9379 41.4375 31.0088 41.6088C31.0798 41.7801 31.2 41.9265 31.3541 42.0295C31.5083 42.1325 31.6896 42.1875 31.875 42.1875H39.375C39.5657 42.1875 39.7519 42.1293 39.9087 42.0207L50.576 34.6357C50.8346 34.4553 51.1508 34.3769 51.4638 34.4156C51.7767 34.4543 52.0643 34.6075 52.2711 34.8455C52.4779 35.0835 52.5894 35.3896 52.584 35.7049C52.5787 36.0202 52.4569 36.3223 52.2422 36.5532Z" fill="white"/>
<path d="M15 13.125H16.875C17.1236 13.125 17.3621 13.0262 17.5379 12.8504C17.7137 12.6746 17.8125 12.4361 17.8125 12.1875C17.8125 11.9389 17.7137 11.7004 17.5379 11.5246C17.3621 11.3488 17.1236 11.25 16.875 11.25H15C14.7514 11.25 14.5129 11.3488 14.3371 11.5246C14.1613 11.7004 14.0625 11.9389 14.0625 12.1875C14.0625 12.4361 14.1613 12.6746 14.3371 12.8504C14.5129 13.0262 14.7514 13.125 15 13.125Z" fill="white"/>
</svg>
