<svg width="30" height="30" viewBox="0 0 30 30" fill="none" xmlns="http://www.w3.org/2000/svg">
<g clip-path="url(#clip0_629_46)">
<mask id="mask0_629_46" style="mask-type:luminance" maskUnits="userSpaceOnUse" x="0" y="0" width="30" height="30">
<path d="M30 0H0V30H30V0Z" fill="white"/>
</mask>
<g mask="url(#mask0_629_46)">
<path d="M2.48098 4.44316C2.52475 4.44301 2.56852 4.44285 2.61361 4.44269C2.7611 4.44224 2.90858 4.44221 3.05607 4.44217C3.16255 4.44194 3.26904 4.44168 3.37552 4.4414C3.66881 4.44069 3.96209 4.44036 4.25537 4.4401C4.57144 4.43975 4.88751 4.43907 5.20358 4.43844C5.96727 4.437 6.73097 4.43614 7.49466 4.43539C7.71036 4.43517 7.92606 4.43494 8.14175 4.4347C9.4811 4.43322 10.8204 4.43193 12.1598 4.4312C12.4701 4.43103 12.7803 4.43085 13.0906 4.43068C13.1677 4.43063 13.2449 4.43059 13.3243 4.43055C14.5734 4.4298 15.8225 4.42786 17.0716 4.42542C18.3539 4.42293 19.6362 4.42155 20.9186 4.42124C21.6386 4.42104 22.3586 4.42036 23.0786 4.41843C23.6918 4.41678 24.3051 4.41614 24.9183 4.4168C25.2311 4.4171 25.5439 4.41693 25.8567 4.41548C26.1433 4.41416 26.43 4.41421 26.7167 4.41532C26.8201 4.41548 26.9235 4.41515 27.0268 4.41427C27.9514 4.40688 28.6472 4.59594 29.3352 5.24701C29.7246 5.65941 30.0055 6.22394 30.007 6.79406C30.0073 6.85325 30.0076 6.91243 30.0079 6.97341C30.008 7.07078 30.008 7.07078 30.008 7.17012C30.0083 7.23917 30.0085 7.30822 30.0088 7.37937C30.0094 7.57111 30.0098 7.76284 30.0101 7.95458C30.0104 8.16137 30.0111 8.36816 30.0118 8.57494C30.0132 9.07445 30.0141 9.57397 30.0148 10.0735C30.015 10.2147 30.0153 10.3558 30.0155 10.497C30.017 11.3741 30.0183 12.2512 30.019 13.1283C30.0192 13.3314 30.0193 13.5346 30.0195 13.7377C30.0196 13.7882 30.0196 13.8386 30.0196 13.8907C30.0204 14.7078 30.0223 15.5249 30.0248 16.3421C30.0273 17.1816 30.0286 18.0211 30.029 18.8606C30.0292 19.3317 30.0298 19.8028 30.0318 20.2739C30.0334 20.6753 30.0341 21.0767 30.0334 21.4781C30.0331 21.6826 30.0333 21.8872 30.0347 22.0918C30.036 22.3142 30.0356 22.5366 30.0346 22.7591C30.0354 22.8228 30.0363 22.8865 30.0371 22.9522C30.0292 23.7234 29.7252 24.3296 29.2032 24.8812C28.7343 25.3239 28.1526 25.5541 27.517 25.553C27.4733 25.5531 27.4295 25.5533 27.3844 25.5535C27.2369 25.5539 27.0894 25.5539 26.942 25.554C26.8355 25.5542 26.729 25.5545 26.6225 25.5548C26.3292 25.5555 26.0359 25.5558 25.7427 25.5561C25.4266 25.5564 25.1105 25.5571 24.7944 25.5577C24.0308 25.5592 23.2671 25.56 22.5034 25.5608C22.2877 25.561 22.072 25.5612 21.8563 25.5615C20.5169 25.5629 19.1776 25.5642 17.8382 25.565C17.5279 25.5651 17.2177 25.5653 16.9074 25.5655C16.7917 25.5655 16.7917 25.5655 16.6737 25.5656C15.4246 25.5664 14.1755 25.5683 12.9265 25.5707C11.6441 25.5732 10.3618 25.5746 9.07947 25.5749C8.35947 25.5751 7.63947 25.5758 6.91946 25.5777C6.30621 25.5794 5.69297 25.58 5.07971 25.5794C4.76692 25.5791 4.45414 25.5792 4.14135 25.5807C3.85468 25.582 3.56803 25.5819 3.28136 25.5808C3.17796 25.5807 3.07457 25.581 2.97118 25.5819C2.04666 25.5893 1.35082 25.4002 0.662784 24.7491C0.273469 24.3367 -0.00747767 23.7722 -0.00900079 23.2021C-0.00929813 23.1429 -0.00959544 23.0837 -0.00990179 23.0227C-0.00993095 22.9578 -0.00996025 22.8929 -0.0099903 22.826C-0.0102471 22.757 -0.0105038 22.6879 -0.0107684 22.6168C-0.0114163 22.425 -0.0118003 22.2333 -0.0120681 22.0416C-0.0124175 21.8348 -0.0130976 21.628 -0.0137257 21.4212C-0.015162 20.9217 -0.0160197 20.4222 -0.0167761 19.9227C-0.0169936 19.7815 -0.0172265 19.6404 -0.0174647 19.4992C-0.0189437 18.6221 -0.0202354 17.745 -0.0209643 16.8679C-0.021136 16.6648 -0.0213096 16.4616 -0.0214862 16.2585C-0.02153 16.208 -0.0215735 16.1575 -0.0216186 16.1055C-0.0223594 15.2884 -0.0243054 14.4712 -0.0267481 13.6541C-0.029237 12.8146 -0.0306149 11.9751 -0.0309207 11.1356C-0.0311204 10.6645 -0.0318049 10.1934 -0.0337392 9.72223C-0.0353846 9.32084 -0.0360224 8.91947 -0.0353685 8.51808C-0.0350657 8.31351 -0.0352259 8.10897 -0.0366848 7.9044C-0.0380182 7.68194 -0.0375264 7.45955 -0.0365978 7.23709C-0.0374112 7.17335 -0.0382245 7.10961 -0.0390625 7.04394C-0.0311743 6.27272 0.272854 5.66659 0.794849 5.11495C1.26375 4.67229 1.84544 4.44207 2.48098 4.44316ZM3.10449 6.209C3.3806 6.53373 3.3806 6.53373 3.67053 6.84134C3.70942 6.88045 3.74831 6.91957 3.78838 6.95987C3.85084 7.02225 3.85084 7.02225 3.91456 7.08589C3.95963 7.13114 4.00471 7.17639 4.05115 7.22301C4.20147 7.37384 4.35199 7.52445 4.50252 7.67506C4.61063 7.78345 4.71874 7.89185 4.82683 8.00026C5.11987 8.29409 5.41312 8.5877 5.70643 8.88126C5.88963 9.06463 6.07279 9.24804 6.25595 9.43145C6.76337 9.93959 7.27085 10.4477 7.77853 10.9556C7.81095 10.988 7.84338 11.0205 7.87679 11.0539C7.9093 11.0864 7.9418 11.1189 7.97529 11.1524C8.04115 11.2183 8.10701 11.2842 8.17287 11.3501C8.20553 11.3827 8.2382 11.4154 8.27186 11.4491C8.80204 11.9795 9.33182 12.5103 9.86143 13.0413C10.4056 13.5868 10.95 14.132 11.4948 14.6769C11.8006 14.9827 12.1062 15.2886 12.4114 15.5949C12.6981 15.8827 12.9854 16.17 13.2729 16.457C13.3784 16.5625 13.4839 16.6682 13.5891 16.774C13.7326 16.9182 13.8765 17.0618 14.0206 17.2053C14.0624 17.2475 14.1041 17.2898 14.1472 17.3333C14.4549 17.6379 14.662 17.7614 15.1068 17.7733C15.5182 17.7041 15.7769 17.4089 16.0565 17.1261C16.103 17.0799 16.1495 17.0336 16.1974 16.9859C16.353 16.8307 16.508 16.6749 16.6629 16.5191C16.7744 16.4077 16.8858 16.2964 16.9973 16.1851C17.2686 15.9141 17.5394 15.6427 17.81 15.3712C18.1251 15.0551 18.4406 14.7395 18.7561 14.424C19.3187 13.8612 19.881 13.298 20.443 12.7346C20.9888 12.1874 21.5349 11.6405 22.0813 11.0939C22.115 11.0602 22.1487 11.0265 22.1834 10.9918C22.2512 10.9239 22.3191 10.856 22.3869 10.7882C22.4204 10.7547 22.4539 10.7212 22.4884 10.6867C22.5218 10.6533 22.5551 10.6199 22.5895 10.5855C23.1098 10.065 23.6298 9.54432 24.1498 9.0236C24.3385 8.83463 24.5272 8.6457 24.716 8.45679C25.0152 8.15735 25.3143 7.85781 25.6131 7.55808C25.7498 7.42105 25.8865 7.28409 26.0233 7.14722C26.1712 6.99921 26.3189 6.85102 26.4666 6.70278C26.5103 6.65907 26.5541 6.61536 26.5992 6.57032C26.658 6.51122 26.658 6.51122 26.7179 6.45093C26.7521 6.41669 26.7862 6.38246 26.8214 6.34718C26.9001 6.27826 26.9001 6.27826 26.8935 6.209C19.0431 6.209 11.1928 6.209 3.10449 6.209ZM1.75684 7.49807C1.75684 12.4481 1.75684 17.3981 1.75684 22.4981C2.01162 22.2797 2.25013 22.0707 2.48547 21.8351C2.51478 21.8058 2.54408 21.7766 2.57427 21.7464C2.67111 21.6497 2.76775 21.5527 2.86438 21.4558C2.93428 21.3859 3.00419 21.316 3.07411 21.2461C3.26295 21.0573 3.4516 20.8683 3.64023 20.6792C3.83773 20.4814 4.0354 20.2837 4.23306 20.0859C4.6069 19.7119 4.98059 19.3377 5.35422 18.9635C5.77978 18.5373 6.20551 18.1113 6.63125 17.6852C7.50663 16.8092 8.3818 15.933 9.25684 15.0567C9.1638 14.8307 9.01963 14.6877 8.8479 14.5161C8.80294 14.4709 8.80294 14.4709 8.75708 14.4248C8.65664 14.3241 8.55579 14.2237 8.45493 14.1234C8.38283 14.0512 8.31075 13.979 8.23869 13.9068C8.04297 13.7108 7.84688 13.5151 7.65072 13.3196C7.44575 13.1151 7.24109 12.9103 7.03638 12.7056C6.69272 12.362 6.34882 12.0186 6.00478 11.6754C5.60645 11.278 5.20842 10.8803 4.81057 10.4824C4.42834 10.1001 4.04595 9.71798 3.66346 9.33598C3.50041 9.17314 3.33742 9.01025 3.17446 8.84732C2.98285 8.65577 2.79109 8.46437 2.59922 8.27309C2.52861 8.20265 2.45806 8.13217 2.38755 8.06163C2.29175 7.9658 2.19577 7.87015 2.09974 7.77455C2.04594 7.72084 1.99213 7.66713 1.9367 7.6118C1.83602 7.49139 1.83602 7.49139 1.75684 7.49807ZM27.9803 7.69283C27.9371 7.73626 27.9371 7.73626 27.893 7.78057C27.8626 7.81096 27.8322 7.84135 27.8008 7.87265C27.698 7.97535 27.5954 8.07826 27.4928 8.18116C27.4195 8.25449 27.3462 8.3278 27.2729 8.40111C27.0731 8.60084 26.8736 8.80076 26.674 9.0007C26.4657 9.20937 26.2573 9.41787 26.0488 9.62639C25.6538 10.0216 25.2589 10.417 24.8641 10.8124C24.4147 11.2624 23.9652 11.7122 23.5157 12.162C22.5907 13.0877 21.6659 14.0135 20.7412 14.9395C20.8342 15.1655 20.9784 15.3085 21.1501 15.4801C21.1951 15.5253 21.1951 15.5253 21.2409 15.5713C21.3414 15.6721 21.4422 15.7725 21.5431 15.8728C21.6152 15.945 21.6873 16.0172 21.7593 16.0894C21.9551 16.2854 22.1511 16.481 22.3473 16.6766C22.5523 16.8811 22.7569 17.0858 22.9616 17.2906C23.3053 17.6342 23.6492 17.9776 23.9932 18.3208C24.3916 18.7182 24.7896 19.1159 25.1875 19.5138C25.5697 19.8961 25.9521 20.2782 26.3346 20.6602C26.4976 20.823 26.6606 20.9859 26.8236 21.1488C27.0152 21.3404 27.2069 21.5318 27.3988 21.7231C27.4694 21.7935 27.54 21.864 27.6105 21.9345C27.7063 22.0304 27.8023 22.126 27.8983 22.2216C27.9521 22.2753 28.0059 22.329 28.0613 22.3844C28.162 22.5048 28.162 22.5048 28.2412 22.4981C28.2412 17.5481 28.2412 12.5981 28.2412 7.49807C28.1244 7.49807 28.0582 7.61524 27.9803 7.69283ZM10.3435 16.4816C10.3004 16.525 10.3004 16.525 10.2563 16.5693C10.2259 16.5996 10.1955 16.63 10.1641 16.6612C10.0613 16.7638 9.95873 16.8665 9.85615 16.9693C9.78284 17.0425 9.70952 17.1158 9.63618 17.189C9.43642 17.3885 9.23685 17.5881 9.03732 17.7879C8.829 17.9963 8.62054 18.2046 8.41211 18.413C8.06202 18.763 7.71206 19.1131 7.36217 19.4632C6.95698 19.8687 6.55159 20.274 6.14609 20.6792C5.79865 21.0264 5.45132 21.3737 5.10409 21.7211C4.8964 21.9288 4.68866 22.1366 4.48082 22.3442C4.28548 22.5394 4.09028 22.7347 3.8952 22.9302C3.82334 23.0021 3.75144 23.074 3.67949 23.1458C3.58172 23.2434 3.48414 23.3412 3.3866 23.439C3.35769 23.4678 3.32877 23.4966 3.29898 23.5262C3.16298 23.6373 3.16298 23.6373 3.10449 23.7872C10.9549 23.7872 18.8053 23.7872 26.8935 23.7872C26.6751 23.5324 26.4661 23.2939 26.2305 23.0585C26.1867 23.0146 26.1867 23.0146 26.1419 22.9697C26.0451 22.8729 25.9482 22.7762 25.8512 22.6796C25.7813 22.6097 25.7114 22.5398 25.6415 22.4699C25.4527 22.281 25.2637 22.0924 25.0747 21.9038C24.8768 21.7063 24.6791 21.5086 24.4814 21.3109C24.1074 20.9371 23.7332 20.5634 23.359 20.1898C22.9327 19.7642 22.5067 19.3385 22.0807 18.9127C21.2047 18.0374 20.3285 17.1622 19.4521 16.2871C19.3872 16.3424 19.3223 16.3977 19.2575 16.453C19.2213 16.4838 19.1852 16.5146 19.148 16.5463C18.999 16.6761 18.8592 16.8138 18.7197 16.9537C18.6683 17.0049 18.617 17.0561 18.5641 17.1088C18.4385 17.2376 18.32 17.3711 18.2024 17.5071C17.4387 18.3867 16.612 19.316 15.4092 19.5098C14.893 19.5429 14.4308 19.5135 13.9443 19.334C13.8984 19.3182 13.8525 19.3023 13.8052 19.286C13.2735 19.0639 12.8823 18.6189 12.4795 18.2207C12.4091 18.1519 12.3386 18.0831 12.2682 18.0143C11.973 17.7238 11.6869 17.4304 11.4186 17.1146C11.2629 16.9403 11.099 16.7749 10.9341 16.6094C10.9026 16.5777 10.8711 16.546 10.8387 16.5133C10.592 16.2516 10.592 16.2516 10.3435 16.4816Z" fill="#FD5523"/>
</g>
</g>
<defs>
<clipPath id="clip0_629_46">
<rect width="30" height="30" fill="white"/>
</clipPath>
</defs>
</svg>
