<svg width="28" height="29" viewBox="0 0 28 29" fill="none" xmlns="http://www.w3.org/2000/svg">
<g clip-path="url(#clip0_306_6024)">
<path d="M11.8948 0.91699C11.931 0.917002 11.9671 0.917013 12.0043 0.917025C13.4435 0.921614 14.7797 1.40017 15.8597 2.35937C15.9016 2.39349 15.9436 2.42761 15.9868 2.46277C17.0214 3.32224 17.7351 4.74904 17.8831 6.07812C18.0016 7.8106 17.6735 9.39826 16.5288 10.7437C16.0095 11.3337 15.4184 11.8495 14.7112 12.2031C14.7401 12.2126 14.769 12.2221 14.7987 12.2319C16.4014 12.7625 17.8861 13.394 19.173 14.5137C19.2154 14.5498 19.2579 14.5859 19.3016 14.623C19.337 14.6549 19.3725 14.6868 19.409 14.7196C19.5258 14.7877 19.5258 14.7877 19.6735 14.7484C19.9059 14.6385 20.0983 14.4936 20.303 14.3394C20.7923 13.9829 21.208 13.7673 21.8294 13.8617C22.2285 13.9526 22.5184 14.1767 22.8381 14.4195C23.2498 14.7222 23.5185 14.8057 24.0286 14.8281C24.547 14.8511 24.9909 14.925 25.3924 15.2793C25.426 15.3078 25.4597 15.3363 25.4943 15.3656C25.7905 15.7182 25.8805 16.1455 25.9805 16.5841C26.0856 17.017 26.2834 17.2794 26.6049 17.5817C27.2737 18.2115 27.2737 18.2115 27.3441 18.6562C27.3541 18.7095 27.3642 18.7627 27.3746 18.8175C27.4248 19.3417 27.2305 19.7313 26.9918 20.188C26.7584 20.6467 26.7703 20.992 26.8391 21.4932C26.8936 21.9875 26.8798 22.4261 26.5904 22.8437C26.2932 23.2044 25.9678 23.3998 25.5394 23.5781C25.6672 23.9261 25.8198 24.2602 25.9809 24.5937C26.0012 24.6358 26.0215 24.678 26.0424 24.7214C26.1274 24.8977 26.2125 25.0739 26.2985 25.2496C26.3618 25.3794 26.4244 25.5094 26.4868 25.6396C26.5062 25.6787 26.5255 25.7178 26.5455 25.758C26.6697 26.0191 26.727 26.2415 26.7425 26.5312C26.656 26.7362 26.5492 26.8546 26.3597 26.9687C25.853 27.0024 25.3211 26.8584 24.8284 26.75C24.8097 26.803 24.8097 26.803 24.7906 26.857C24.6941 27.0816 24.5728 27.288 24.449 27.4985C24.4248 27.5407 24.4006 27.5829 24.3757 27.6264C24.352 27.6667 24.3284 27.7071 24.304 27.7487C24.272 27.8036 24.272 27.8036 24.2393 27.8597C24.1421 27.995 24.0456 28.0559 23.8821 28.0847C23.8125 28.0873 23.8125 28.0873 23.7415 28.0898C23.6954 28.0927 23.6493 28.0955 23.6018 28.0984C23.3956 28.0457 23.305 27.9022 23.1878 27.7344C23.1009 27.5812 23.0268 27.4232 22.9535 27.2631C22.9325 27.2185 22.9116 27.1739 22.89 27.1279C22.8236 26.9862 22.7579 26.8442 22.6922 26.7021C22.6262 26.5606 22.56 26.4191 22.4938 26.2776C22.4529 26.1899 22.412 26.1021 22.3713 26.0142C22.3158 25.8947 22.2598 25.7754 22.2034 25.6562C22.184 25.615 22.1646 25.5738 22.1446 25.5313C22.046 25.3086 22.046 25.3086 21.873 25.1463C21.8149 25.1365 21.8149 25.1365 21.7557 25.1265C21.6987 25.1143 21.6987 25.1143 21.6405 25.1019C21.4093 25.1136 21.2061 25.166 21.0003 25.2734C20.8865 25.4009 20.8259 25.5403 20.7604 25.6971C20.7412 25.739 20.7221 25.7809 20.7023 25.824C20.6417 25.9577 20.5834 26.0923 20.5252 26.227C20.4856 26.3157 20.4458 26.4042 20.4059 26.4927C20.3288 26.6638 20.2522 26.8352 20.1761 27.0067C20.0838 27.2136 19.9898 27.4193 19.8918 27.6235C19.868 27.6733 19.8442 27.7232 19.8197 27.7745C19.7355 27.9096 19.6584 27.9792 19.5237 28.0625C19.4043 28.0881 19.4043 28.0881 19.2811 28.0898C19.2203 28.0924 19.2203 28.0924 19.1582 28.095C18.8883 28.0258 18.7514 27.7878 18.6118 27.5628C18.5633 27.4801 18.5152 27.3972 18.4676 27.314C18.4427 27.2718 18.4179 27.2296 18.3923 27.1861C18.2112 26.8744 18.2112 26.8744 18.2112 26.75C18.1785 26.7566 18.1457 26.7633 18.1119 26.7701C17.9617 26.8002 17.8113 26.8298 17.661 26.8594C17.6094 26.8698 17.5578 26.8802 17.5047 26.891C16.7856 27.0313 16.7856 27.0313 16.4954 26.8594C16.3251 26.6647 16.2914 26.5098 16.2972 26.2578C16.3437 26.1091 16.3899 25.9886 16.4578 25.8511C16.4752 25.8137 16.4926 25.7763 16.5105 25.7379C16.566 25.619 16.6229 25.5009 16.68 25.3828C16.7166 25.3053 16.7532 25.2278 16.7896 25.1502C16.844 25.0343 16.8985 24.9185 16.9534 24.8029C17.145 24.3987 17.3234 23.9889 17.5003 23.5781C17.4526 23.5551 17.4049 23.532 17.3557 23.5082C16.924 23.2995 16.6008 23.1273 16.3519 22.7031C16.3519 22.667 16.3519 22.6309 16.3519 22.5937C16.3195 22.5938 16.287 22.5939 16.2537 22.5939C14.3334 22.5976 12.4131 22.6004 10.4928 22.6021C10.2623 22.6023 10.0318 22.6025 9.80132 22.6028C9.73249 22.6028 9.73249 22.6028 9.66227 22.6029C8.91893 22.6036 8.17559 22.6049 7.43226 22.6064C6.66973 22.6079 5.90721 22.6089 5.14469 22.6092C4.67403 22.6094 4.20338 22.6101 3.73272 22.6115C3.41013 22.6123 3.08755 22.6126 2.76497 22.6124C2.57875 22.6123 2.39254 22.6124 2.20632 22.6133C2.00453 22.6141 1.80276 22.6139 1.60096 22.6135C1.54197 22.614 1.48297 22.6144 1.42219 22.6149C0.922548 22.6119 0.922548 22.6119 0.711247 22.4297C0.521717 22.0506 0.684425 21.4746 0.765934 21.0796C0.783983 20.9913 0.783983 20.9913 0.802397 20.9013C1.24418 18.8461 2.24137 16.8374 3.77375 15.375C3.81661 15.3321 3.85947 15.2893 3.90363 15.2451C3.951 15.1977 3.99838 15.1504 4.04718 15.1016C4.07806 15.0681 4.10894 15.0347 4.14075 15.0003C5.50394 13.564 7.34646 12.8078 9.18781 12.2031C9.14385 12.1781 9.09988 12.1531 9.05459 12.1273C8.99633 12.0938 8.93808 12.0603 8.87806 12.0258C8.82056 11.9929 8.76306 11.96 8.70382 11.9261C8.44497 11.7671 8.21663 11.578 7.98468 11.3828C7.92942 11.3411 7.87415 11.2993 7.8172 11.2563C7.57025 11.0304 7.36898 10.772 7.16437 10.5078C7.13096 10.4649 7.09754 10.4221 7.06311 10.3779C6.12715 9.11289 5.78913 7.51375 6.0062 5.96578C6.26232 4.38325 7.10466 2.96998 8.40509 2.02099C9.06189 1.56028 9.77721 1.2416 10.555 1.04687C10.6143 1.03166 10.6143 1.03166 10.6748 1.01614C11.0801 0.922926 11.4803 0.916441 11.8948 0.91699ZM8.64093 3.07031C8.60343 3.09992 8.56593 3.12953 8.52729 3.16003C8.19474 3.42974 7.95403 3.75899 7.71125 4.10937C7.68072 4.15329 7.6502 4.19721 7.61875 4.24246C6.94552 5.28483 6.73635 6.6039 6.95588 7.81445C7.26839 9.18134 8.00899 10.3586 9.19015 11.1338C10.3532 11.8636 11.7297 12.1265 13.0745 11.8218C14.4514 11.476 15.57 10.6438 16.3134 9.43393C16.9552 8.32862 17.1654 6.92778 16.8646 5.68164C16.6167 4.74842 16.1511 3.97462 15.4769 3.28906C15.436 3.24747 15.3951 3.20588 15.353 3.16302C13.4905 1.38071 10.5544 1.42074 8.64093 3.07031ZM10.4456 12.9687C10.62 13.1467 10.8041 13.3009 11.0028 13.4507C11.1789 13.5836 11.3535 13.7158 11.5216 13.8589C11.5636 13.8945 11.6055 13.9301 11.6487 13.9668C11.6848 13.9987 11.7209 14.0305 11.7581 14.0634C11.8671 14.1311 11.8671 14.1311 11.9948 14.0896C12.1823 13.9847 12.3437 13.8595 12.5101 13.7241C12.5777 13.67 12.6454 13.6159 12.713 13.5618C12.7623 13.5221 12.7623 13.5221 12.8125 13.4817C12.9408 13.3788 13.0705 13.2779 13.2005 13.1772C13.2393 13.1471 13.278 13.117 13.318 13.086C13.3446 13.0654 13.3713 13.0447 13.3987 13.0234C13.0118 12.7655 12.4126 12.8494 11.9632 12.8491C11.8957 12.8484 11.8283 12.8478 11.7588 12.8471C11.3111 12.8464 10.8857 12.8872 10.4456 12.9687ZM8.67853 13.3516C8.59087 13.382 8.59087 13.382 8.50144 13.4131C8.45724 13.4289 8.41304 13.4447 8.3675 13.4609C8.39918 13.6627 8.45403 13.8117 8.55613 13.9882C8.58413 14.0371 8.61214 14.086 8.641 14.1364C8.67143 14.1887 8.70187 14.241 8.73322 14.2949C8.79748 14.4069 8.86171 14.5189 8.92591 14.6309C8.95959 14.6895 8.99327 14.7481 9.02797 14.8084C9.20766 15.1225 9.38391 15.4385 9.56037 15.7544C9.62566 15.8711 9.69096 15.9878 9.75626 16.1045C9.80376 16.1895 9.85126 16.2744 9.89875 16.3594C10.1118 16.1892 10.2894 16.0241 10.4593 15.8091C10.645 15.5769 10.8325 15.3467 11.0233 15.1187C11.07 15.0626 11.1168 15.0066 11.1636 14.9505C11.1974 14.9101 11.2311 14.8697 11.2659 14.8281C11.0903 14.6462 10.913 14.4882 10.7088 14.3394C10.4046 14.1146 10.1049 13.8847 9.80646 13.6523C9.76256 13.6182 9.71867 13.5841 9.67344 13.549C9.35905 13.3041 9.35905 13.3041 9.29718 13.2422C9.06924 13.2225 8.89262 13.2763 8.67853 13.3516ZM14.3998 13.3827C14.3611 13.4134 14.3224 13.4441 14.2825 13.4756C14.2412 13.5091 14.2 13.5426 14.1575 13.5771C14.0698 13.6469 13.9821 13.7167 13.8944 13.7865C13.8491 13.8228 13.8038 13.859 13.7572 13.8964C13.5278 14.0793 13.2957 14.2588 13.0638 14.4385C12.9805 14.5033 12.8971 14.5681 12.8138 14.6329C12.7536 14.6797 12.6934 14.7266 12.6331 14.7734C12.704 14.9269 12.7812 15.0476 12.8933 15.1738C12.9228 15.2073 12.9524 15.2409 12.9828 15.2754C13.014 15.3105 13.0453 15.3457 13.0775 15.3818C13.358 15.7009 13.6298 16.024 13.8909 16.3594C14.0435 16.2237 14.1299 16.0751 14.2274 15.8967C14.2606 15.8364 14.2937 15.7761 14.3279 15.714C14.3453 15.6821 14.3627 15.6502 14.3806 15.6173C14.4715 15.4506 14.5632 15.2843 14.6549 15.118C14.6825 15.0677 14.6825 15.0677 14.7107 15.0164C14.8888 14.6931 15.0711 14.3724 15.2547 14.0522C15.2828 14.0033 15.3109 13.9543 15.3398 13.9038C15.4037 13.7926 15.4676 13.6814 15.5316 13.5703C15.3937 13.4236 15.2925 13.3694 15.0975 13.314C15.0507 13.3002 15.004 13.2865 14.9558 13.2723C14.7138 13.2184 14.5886 13.2309 14.3998 13.3827ZM7.124 13.9988C7.08404 14.0207 7.04408 14.0425 7.00291 14.065C6.96032 14.089 6.91773 14.113 6.87384 14.1377C6.82981 14.1624 6.78577 14.1871 6.7404 14.2126C5.46381 14.9414 4.28757 15.9731 3.44562 17.1797C3.40558 17.2371 3.36554 17.2945 3.32428 17.3536C2.52166 18.5547 1.64093 20.1802 1.64093 21.6641C4.69086 21.6641 7.74078 21.6641 10.8831 21.6641C10.6923 21.4414 10.5025 21.2211 10.3055 21.0044C10.2638 20.9574 10.222 20.9105 10.179 20.8621C10.0696 20.7385 10.0696 20.7385 9.97052 20.6476C9.81426 20.494 9.77256 20.3726 9.76886 20.1614C9.77741 19.6789 9.905 19.2101 10.0115 18.7417C10.0436 18.5998 10.0755 18.4579 10.1068 18.3159C10.1262 18.2281 10.146 18.1404 10.1664 18.0528C10.2111 17.8502 10.2327 17.706 10.1722 17.5078C10.118 17.5439 10.0639 17.58 10.0081 17.6172C9.67121 17.5991 9.67121 17.5991 9.54185 17.4959C9.44088 17.3738 9.36881 17.2465 9.2927 17.1075C9.26013 17.0484 9.22756 16.9893 9.194 16.9284C9.16827 16.8812 9.16827 16.8812 9.14201 16.8331C9.08803 16.7341 9.03372 16.6354 8.97931 16.5367C8.90391 16.3998 8.82861 16.2629 8.75338 16.126C8.58072 15.8122 8.40581 15.4996 8.23078 15.187C8.20069 15.1331 8.1706 15.0792 8.1396 15.0237C8.08161 14.92 8.02336 14.8165 7.96482 14.7132C7.90037 14.5991 7.83682 14.4844 7.77384 14.3694C7.74021 14.3093 7.70659 14.2491 7.67194 14.187C7.64152 14.1318 7.6111 14.0766 7.57976 14.0198C7.55096 13.9797 7.52217 13.9397 7.4925 13.8984C7.3213 13.8984 7.26941 13.9193 7.124 13.9988ZM16.4066 13.8984C16.3083 14.0331 16.3083 14.0331 16.2072 14.2065C16.1783 14.2545 16.1783 14.2545 16.1488 14.3036C15.959 14.6211 15.7796 14.9443 15.6027 15.2691C15.547 15.3711 15.4911 15.4729 15.435 15.5747C15.2859 15.8456 15.1368 16.1164 14.9892 16.3881C14.8937 16.5634 14.7974 16.7383 14.701 16.9131C14.6728 16.9655 14.6446 17.018 14.6155 17.072C14.3633 17.5262 14.3633 17.5262 14.1097 17.6172C13.9552 17.6223 13.8257 17.5911 13.6722 17.5625C13.7109 18.1108 13.8326 18.6397 13.9491 19.1755C13.9757 19.2982 14.0018 19.421 14.0279 19.5439C14.0402 19.5993 14.0402 19.5993 14.0527 19.6559C14.1758 20.2383 14.1758 20.2383 14.0432 20.4654C14.0122 20.4967 13.9811 20.5279 13.949 20.5601C13.9144 20.5964 13.8797 20.6327 13.8439 20.6701C13.8053 20.7093 13.7667 20.7486 13.7269 20.7891C13.6409 20.882 13.5555 20.9755 13.4705 21.0693C13.4308 21.1123 13.3911 21.1553 13.3503 21.1996C13.2252 21.3471 13.122 21.5026 13.0159 21.6641C13.4285 21.6653 13.8412 21.6663 14.2538 21.6669C14.4454 21.6672 14.6369 21.6676 14.8285 21.6682C15.0485 21.6689 15.2686 21.6692 15.4886 21.6694C15.5923 21.6698 15.5923 21.6698 15.698 21.6703C15.7933 21.6703 15.7933 21.6703 15.8904 21.6703C15.9467 21.6704 16.0029 21.6705 16.0608 21.6706C16.1857 21.6784 16.1857 21.6784 16.2425 21.6094C16.2556 21.5369 16.2653 21.4638 16.2733 21.3906C16.2778 21.3511 16.2824 21.3117 16.2871 21.271C16.2921 21.1949 16.2921 21.1949 16.2972 21.1172C16.3005 21.0816 16.3038 21.046 16.3072 21.0093C16.3269 20.6495 16.2184 20.4003 16.0545 20.085C16.009 19.994 15.9634 19.903 15.918 19.8119C15.8977 19.7724 15.8773 19.7329 15.8564 19.6921C15.749 19.4702 15.7363 19.2801 15.7298 19.0356C15.7271 18.9673 15.7244 18.899 15.7217 18.8286C15.7547 18.3069 16.1009 17.9441 16.4681 17.6103C16.7633 17.3418 16.9618 17.1331 17.0628 16.7422C17.0734 16.7027 17.0841 16.6632 17.095 16.6225C17.1164 16.5404 17.1373 16.4582 17.1577 16.3759C17.312 15.7602 17.5039 15.3954 18.0472 15.0469C18.1013 15.0108 18.1555 14.9747 18.2112 14.9375C17.8969 14.7075 17.5744 14.4953 17.2405 14.2949C17.2063 14.2743 17.1722 14.2538 17.1369 14.2326C16.7913 14.0005 16.7913 14.0005 16.4066 13.8984ZM20.8213 15.1229C20.7889 15.1468 20.7565 15.1707 20.7231 15.1953C20.6591 15.2431 20.5956 15.2917 20.5328 15.3412C20.0605 15.6976 19.5222 15.7319 18.9497 15.7624C18.6478 15.7842 18.4417 15.8167 18.2112 16.0312C18.078 16.2744 18.0181 16.5174 17.9578 16.7867C17.8042 17.4628 17.5349 17.9064 16.9989 18.3535C16.7369 18.5673 16.7369 18.5673 16.6061 18.8711C16.5976 19.2292 16.704 19.4806 16.868 19.7944C16.9136 19.8847 16.9592 19.9751 17.0045 20.0655C17.0248 20.1048 17.0452 20.144 17.0661 20.1845C17.1654 20.4017 17.1796 20.5925 17.179 20.8301C17.1789 20.8925 17.1787 20.9549 17.1786 21.0191C17.174 21.1666 17.1659 21.3096 17.1521 21.4562C17.1487 21.4947 17.1453 21.5333 17.1418 21.573C17.1316 21.6831 17.1199 21.7931 17.1081 21.9031C17.1198 22.1509 17.1711 22.2456 17.3362 22.4297C17.4699 22.5196 17.61 22.5859 17.7567 22.6519C17.8354 22.6895 17.9142 22.7271 17.9929 22.7649C18.0657 22.799 18.1385 22.8331 18.2112 22.8672C18.7165 23.1085 18.9887 23.4138 19.2811 23.8892C19.4571 24.1725 19.6079 24.3987 19.9429 24.495C20.1797 24.5116 20.3571 24.4523 20.5799 24.3779C21.3416 24.1425 21.8997 24.1876 22.6717 24.4395C22.8836 24.5053 23.0274 24.5314 23.2425 24.4531C23.543 24.2329 23.7102 23.9868 23.9007 23.6713C24.2069 23.1856 24.5894 22.9344 25.1155 22.7236C25.4819 22.5762 25.7373 22.4713 25.9222 22.1016C25.9172 21.9795 25.9086 21.8576 25.8983 21.7358C25.8417 20.9493 25.8381 20.3671 26.22 19.6579C26.3798 19.3578 26.4657 19.1624 26.4144 18.8203C26.2501 18.5341 26.0349 18.3361 25.786 18.1269C25.3084 17.7094 25.1811 17.2087 25.0299 16.6098C24.943 16.2866 24.8806 16.0726 24.6097 15.8672C24.4845 15.8046 24.397 15.7993 24.2576 15.789C24.2086 15.785 24.1596 15.781 24.1092 15.7768C24.0071 15.7688 23.905 15.7611 23.8028 15.7538C23.2854 15.7103 22.8568 15.6068 22.4359 15.2964C22.3786 15.2547 22.3214 15.2131 22.2624 15.1701C22.1791 15.1091 22.1791 15.1091 22.0941 15.0469C21.583 14.6931 21.3032 14.7664 20.8213 15.1229ZM11.7146 15.6738C11.4053 16.0282 11.34 16.4355 11.251 16.8825C11.2325 16.9703 11.214 17.0581 11.1953 17.1458C11.1569 17.3288 11.1196 17.5119 11.0832 17.6953C11.0365 17.9297 10.9865 18.1633 10.9356 18.3968C10.8967 18.5774 10.8596 18.7585 10.8231 18.9396C10.8054 19.026 10.7871 19.1122 10.7682 19.1982C10.6537 19.6584 10.6537 19.6584 10.7219 20.1129C10.8042 20.2251 10.8887 20.3139 10.9925 20.4062C11.0304 20.4508 11.0684 20.4954 11.1075 20.5413C11.2179 20.6607 11.3288 20.7799 11.4403 20.8984C11.4791 20.9408 11.518 20.9832 11.5581 21.0268C11.6143 21.0868 11.6143 21.0868 11.6716 21.1479C11.7222 21.2022 11.7222 21.2022 11.7738 21.2575C11.8681 21.3535 11.8681 21.3535 12.0316 21.3359C12.1405 21.2315 12.2398 21.1276 12.3392 21.0146C12.3976 20.9489 12.4561 20.8832 12.5146 20.8175C12.5436 20.7847 12.5726 20.752 12.6025 20.7183C12.6793 20.6343 12.7606 20.5545 12.8423 20.4752C12.8872 20.431 12.9321 20.3868 12.9783 20.3413C13.0187 20.3033 13.0591 20.2653 13.1007 20.2262C13.3168 19.8225 13.058 19.1597 12.9702 18.7338C12.9547 18.658 12.9393 18.5822 12.9238 18.5064C12.8916 18.3485 12.8591 18.1908 12.8265 18.033C12.7848 17.8314 12.7438 17.6295 12.7031 17.4277C12.6715 17.2715 12.6393 17.1155 12.6071 16.9594C12.5918 16.8851 12.5767 16.8106 12.5617 16.7362C12.5408 16.6322 12.5191 16.5284 12.4974 16.4246C12.4853 16.3656 12.4732 16.3067 12.4607 16.2459C12.3721 15.94 12.1841 15.7189 11.9769 15.4844C11.8657 15.4844 11.7878 15.6013 11.7146 15.6738ZM24.6644 24.125C24.6033 24.2172 24.5445 24.311 24.4866 24.4053C24.1783 24.8911 23.8965 25.2296 23.3074 25.3629C23.268 25.3695 23.2285 25.3761 23.1878 25.3828C23.3248 25.8423 23.5274 26.2643 23.7347 26.6953C23.9418 26.503 24.0646 26.297 24.2015 26.0523C24.2816 25.9297 24.2816 25.9297 24.4456 25.8203C24.8139 25.7883 25.1771 25.8687 25.5394 25.9297C25.2689 25.3267 24.9979 24.7242 24.7191 24.125C24.701 24.125 24.683 24.125 24.6644 24.125ZM18.3206 24.1797C18.0262 24.7548 17.7533 25.3352 17.5003 25.9297C17.5472 25.9218 17.5941 25.9139 17.6424 25.9058C18.37 25.7876 18.37 25.7876 18.5941 25.8203C18.8424 26.002 18.9747 26.2612 19.1228 26.5253C19.1862 26.6477 19.1862 26.6477 19.305 26.6953C19.3965 26.4972 19.4875 26.2989 19.5784 26.1006C19.6176 26.0159 19.6176 26.0159 19.6575 25.9295C19.6821 25.8755 19.7068 25.8216 19.7322 25.7661C19.7552 25.7162 19.7781 25.6664 19.8017 25.615C19.8588 25.4974 19.8588 25.4974 19.8519 25.3828C19.8175 25.3748 19.7831 25.3667 19.7476 25.3585C19.1093 25.1912 18.8204 24.8584 18.4729 24.3237C18.4407 24.2762 18.4085 24.2286 18.3753 24.1797C18.3573 24.1797 18.3392 24.1797 18.3206 24.1797Z" fill="#FD5523"/>
<path d="M23.6248 17.0355C24.314 17.5713 24.7016 18.4128 24.8288 19.2578C24.9096 20.1099 24.7038 20.9693 24.1667 21.6448C24.0454 21.7839 23.9201 21.9162 23.7897 22.0469C23.7548 22.0824 23.7199 22.1179 23.684 22.1545C23.0382 22.7668 22.2194 22.9507 21.3563 22.9448C20.5343 22.9207 19.794 22.6104 19.1889 22.0469C18.5175 21.3292 18.1665 20.4432 18.1928 19.4586C18.2735 18.5968 18.598 17.7704 19.2506 17.1797C20.5779 16.108 22.2265 16.0748 23.6248 17.0355ZM19.6219 18.1955C19.2255 18.733 19.0778 19.3071 19.1413 19.9687C19.2814 20.6795 19.6433 21.2434 20.235 21.6641C20.8443 21.9964 21.4768 22.0948 22.1606 21.9567C22.8164 21.7369 23.346 21.2916 23.6701 20.6831C23.99 19.9937 23.9494 19.3534 23.6927 18.6496C23.4543 18.1061 23.0027 17.7079 22.4772 17.4531C22.4405 17.4346 22.4037 17.416 22.3659 17.3969C21.3776 16.9837 20.2768 17.4193 19.6219 18.1955Z" fill="#FD5523"/>
</g>
<defs>
<clipPath id="clip0_306_6024">
<rect width="28" height="28" fill="white" transform="translate(0 0.5)"/>
</clipPath>
</defs>
</svg>
