<svg width="30" height="30" viewBox="0 0 30 30" fill="none" xmlns="http://www.w3.org/2000/svg">
<path d="M16.055 6.50395C16.2295 6.61084 16.3967 6.72699 16.5641 6.84452C16.6121 6.87782 16.6601 6.91111 16.7096 6.94542C16.8628 7.05179 17.0156 7.1587 17.1683 7.26566C17.2698 7.33633 17.3713 7.40698 17.4727 7.47761C17.7175 7.64814 17.9615 7.81972 18.2053 7.99153C18.3323 8.08045 18.46 8.16819 18.5881 8.25558C18.6617 8.30646 18.7353 8.35735 18.809 8.40824C18.8718 8.45114 18.9346 8.49405 18.9994 8.53825C19.2411 8.73876 19.4161 8.9612 19.4498 9.27982C19.4673 9.56105 19.4305 9.78021 19.2777 10.0196C18.9861 10.3456 18.624 10.5808 18.2594 10.8172C17.9938 10.9904 17.7353 11.1738 17.4759 11.3562C17.375 11.4271 17.2741 11.4979 17.1731 11.5686C17.1235 11.6035 17.0738 11.6383 17.0227 11.6742C16.7969 11.8324 16.5709 11.9902 16.3444 12.1473C16.3057 12.1743 16.267 12.2014 16.2271 12.2293C15.8575 12.4847 15.5604 12.5262 15.1175 12.4805C14.8027 12.3259 14.5949 12.1157 14.4671 11.7875C14.376 11.4517 14.4022 11.1004 14.4071 10.7557C14.4076 10.6848 14.4082 10.614 14.4087 10.5411C14.4101 10.3672 14.412 10.1934 14.4144 10.0196C13.8413 10.0232 13.2683 10.0277 12.6952 10.0334C12.429 10.036 12.1628 10.0383 11.8966 10.0399C11.639 10.0414 11.3815 10.0438 11.1239 10.0467C11.0263 10.0477 10.9287 10.0484 10.8312 10.0487C9.53071 10.0541 8.30006 10.3179 7.32458 11.25C6.41108 12.284 6.09673 13.3605 6.14272 14.7233C6.21246 15.8377 6.83891 16.7302 7.62991 17.464C8.46754 18.1661 9.49944 18.4089 10.5705 18.4058C10.624 18.4059 10.6776 18.4059 10.7328 18.406C10.9114 18.4062 11.0899 18.406 11.2684 18.4059C11.3969 18.4059 11.5253 18.4061 11.6537 18.4062C11.9299 18.4065 12.2061 18.4066 12.4823 18.4066C12.9198 18.4066 13.3572 18.4074 13.7946 18.4083C13.8686 18.4085 13.9425 18.4086 14.0187 18.4088C14.1698 18.4091 14.321 18.4094 14.4722 18.4097C14.8603 18.4105 15.2483 18.4112 15.6364 18.4118C15.6948 18.4119 15.6948 18.4119 15.7543 18.412C16.384 18.4131 17.0136 18.4132 17.6432 18.4131C18.2913 18.4131 18.9394 18.4141 19.5875 18.4161C19.9507 18.4172 20.3139 18.4178 20.6771 18.417C21.0192 18.4164 21.3612 18.4171 21.7033 18.4188C21.8282 18.4192 21.9531 18.4191 22.078 18.4184C23.0891 18.4136 23.9555 18.5248 24.7855 19.1602C24.8354 19.198 24.8852 19.2359 24.9366 19.2749C25.6488 19.8637 26.1515 20.7572 26.2504 21.6797C26.3145 22.8189 26.0808 23.8254 25.3213 24.7126C24.6218 25.4428 23.7151 25.8789 22.7037 25.9143C22.2952 25.9224 21.8868 25.9202 21.4782 25.9184C21.3211 25.9184 21.164 25.9184 21.0068 25.9185C20.6698 25.9186 20.3327 25.9181 19.9956 25.9171C19.5083 25.9156 19.0209 25.9152 18.5336 25.915C17.7427 25.9146 16.9519 25.9134 16.161 25.9117C15.3932 25.9101 14.6254 25.9089 13.8576 25.9081C13.8102 25.9081 13.7628 25.908 13.7139 25.908C13.4761 25.9078 13.2383 25.9075 13.0004 25.9073C11.0303 25.9055 9.06028 25.9024 7.09021 25.8985C7.07269 25.9436 7.05518 25.9887 7.03714 26.0352C6.91245 26.339 6.72221 26.6097 6.54821 26.8872C6.50977 26.9496 6.47132 27.0119 6.43171 27.0761C5.85825 27.9939 5.85825 27.9939 5.50818 28.125C5.33149 28.1407 5.33149 28.1407 5.12232 28.1421C5.08409 28.1425 5.04585 28.1428 5.00645 28.1433C4.88034 28.1444 4.75424 28.1446 4.62812 28.1447C4.54011 28.1451 4.4521 28.1455 4.36409 28.1459C4.17963 28.1466 3.99518 28.1468 3.81072 28.1468C3.57507 28.1467 3.33947 28.1483 3.10384 28.1504C2.92202 28.1517 2.7402 28.1519 2.55838 28.1518C2.47155 28.152 2.38472 28.1525 2.29789 28.1534C1.45525 28.1614 1.45525 28.1614 1.11364 27.8907C0.926213 27.6671 0.832155 27.3729 0.849743 27.0807C0.981528 26.5116 1.43981 25.9729 1.75818 25.4883C1.53272 25.0622 1.29089 24.6507 1.03376 24.2432C0.854968 23.9428 0.840849 23.6624 0.879269 23.3204C1.035 23.0089 1.24882 22.787 1.58239 22.6758C1.70299 22.6694 1.82377 22.6665 1.94453 22.6654C2.01925 22.6647 2.09398 22.6639 2.17097 22.6632C2.25271 22.6627 2.33446 22.6623 2.41621 22.6619C2.45748 22.6616 2.49876 22.6614 2.54128 22.6611C2.75989 22.6599 2.9785 22.6591 3.19711 22.6585C3.42204 22.6579 3.64694 22.6559 3.87186 22.6535C4.04554 22.652 4.21921 22.6515 4.3929 22.6513C4.47576 22.651 4.55861 22.6503 4.64146 22.6492C5.10965 22.6435 5.4639 22.646 5.85974 22.9102C5.99615 23.0713 5.99615 23.0713 6.10876 23.2618C6.12931 23.2947 6.14985 23.3276 6.17102 23.3616C6.30445 23.5783 6.41615 23.7929 6.51444 24.0278C6.76714 24.5959 6.76714 24.5959 7.23993 24.9695C7.69158 25.0782 8.15462 25.0517 8.61557 25.0391C8.77091 25.0392 8.92618 25.0397 9.0815 25.0408C9.45848 25.0424 9.83515 25.0378 10.2121 25.0312C10.6517 25.0237 11.0913 25.0227 11.5309 25.022C12.3159 25.0205 13.1007 25.0137 13.8856 25.0037C14.6458 24.9939 15.4059 24.9873 16.1661 24.9844C16.2129 24.9843 16.2597 24.9841 16.3079 24.9839C16.4962 24.9832 16.6844 24.9825 16.8726 24.9818C17.6867 24.9789 18.5007 24.9733 19.3148 24.9674C19.4461 24.9665 19.5773 24.9656 19.7086 24.9647C20.1687 24.9617 20.6288 24.9578 21.0889 24.9519C21.279 24.9494 21.469 24.9474 21.6591 24.9461C22.719 24.9386 23.5818 24.9123 24.412 24.1809C24.4579 24.129 24.5038 24.077 24.5511 24.0235C24.5843 23.9862 24.6175 23.949 24.6516 23.9106C24.9262 23.5838 25.0761 23.2599 25.1957 22.8516C25.2069 22.815 25.2182 22.7785 25.2298 22.7408C25.376 22.003 25.2116 21.2758 24.8331 20.636C24.4302 20.0499 23.8802 19.6369 23.177 19.4796C22.5485 19.3697 21.9241 19.3783 21.2879 19.3796C21.1606 19.3794 21.0333 19.3792 20.9059 19.379C20.633 19.3785 20.3601 19.3784 20.0872 19.3785C19.655 19.3787 19.2227 19.3778 18.7904 19.3768C17.5616 19.374 16.3328 19.3726 15.104 19.3723C14.4244 19.372 13.7447 19.371 13.0651 19.369C12.6361 19.3678 12.2072 19.3677 11.7782 19.3683C11.5105 19.3685 11.2427 19.3677 10.9749 19.3666C10.8517 19.3663 10.7284 19.3663 10.6051 19.3669C8.97337 19.3732 7.67649 18.9093 6.50427 17.7539C6.46499 17.7154 6.42572 17.6769 6.38525 17.6372C5.42607 16.6214 5.10407 15.2369 5.13624 13.8824C5.19739 12.5124 5.8407 11.3048 6.82859 10.372C8.02119 9.30037 9.44765 9.0713 10.9926 9.07635C11.0916 9.07646 11.1906 9.07654 11.2896 9.0766C11.5484 9.07682 11.8071 9.0774 12.0658 9.07805C12.3306 9.07865 12.5953 9.07891 12.8601 9.07921C13.3782 9.07983 13.8963 9.08083 14.4144 9.08207C14.413 9.00368 14.413 9.00368 14.4116 8.9237C14.4086 8.72746 14.4064 8.53124 14.4048 8.33499C14.4039 8.25049 14.4027 8.16599 14.4012 8.0815C14.3817 6.9814 14.3817 6.9814 14.6691 6.64634C15.1028 6.25826 15.5501 6.24354 16.055 6.50395Z" fill="#FD5523"/>
<path d="M26.2542 3.34915C26.9542 3.90123 27.5203 4.52901 28.0075 5.27342C28.0558 5.34298 28.0558 5.34298 28.105 5.41395C29.0875 6.91132 29.377 9.00028 29.0274 10.7347C29.002 10.8483 28.9735 10.9613 28.945 11.0742C28.9356 11.1119 28.9262 11.1496 28.9164 11.1885C28.5834 12.4774 27.9271 13.5734 27.0114 14.5312C26.9764 14.57 26.9413 14.6087 26.9052 14.6486C25.7177 15.9156 23.9192 16.6558 22.1996 16.7196C21.4291 16.7348 20.6686 16.7261 19.9216 16.5234C19.8802 16.5124 19.8389 16.5014 19.7963 16.49C18.7536 16.2014 17.815 15.6999 16.9919 15C16.9386 14.9548 16.8852 14.9096 16.8303 14.8631C16.4141 14.5017 16.4141 14.5017 16.3876 14.2163C16.406 14.0039 16.406 14.0039 16.4938 13.8611C16.6949 13.7354 16.8805 13.7293 17.1091 13.7695C17.2798 13.892 17.2798 13.892 17.4387 14.0588C18.4997 15.1119 20.0268 15.7101 21.513 15.7224C21.5824 15.7221 21.6518 15.7218 21.7233 15.7214C21.8322 15.7209 21.8322 15.7209 21.9434 15.7204C22.4637 15.7135 22.9365 15.6782 23.4372 15.5273C23.4758 15.516 23.5145 15.5047 23.5543 15.493C24.479 15.2158 25.3014 14.7755 26.0153 14.1211C26.0955 14.048 26.0955 14.048 26.1774 13.9734C27.2767 12.9248 28.0402 11.4432 28.1351 9.91064C28.176 7.93176 27.7338 6.22376 26.3314 4.74555C25.46 3.85583 24.3978 3.30709 23.2028 2.98826C23.1256 2.96764 23.1256 2.96764 23.0467 2.94661C21.4349 2.57464 19.7527 2.9737 18.3547 3.80629C18.0459 3.9995 17.7642 4.21097 17.5037 4.4657C17.1217 4.83535 17.1217 4.83535 16.8564 4.84861C16.6403 4.80467 16.6403 4.80467 16.4938 4.71312C16.3679 4.50847 16.3658 4.39706 16.406 4.16014C17.2084 2.9329 18.9581 2.29017 20.315 1.96061C22.3879 1.54202 24.584 2.07712 26.2542 3.34915Z" fill="#FD5523"/>
<path d="M25.1262 5.11602C26.1494 6.00202 26.8652 7.30807 26.9665 8.66883C27.0292 10.2815 26.6646 11.6827 25.5629 12.8948C24.6402 13.8515 23.3777 14.5026 22.0336 14.5432C20.4466 14.5658 19.1474 14.1405 17.9766 13.0575C17.8441 12.9209 17.8163 12.857 17.791 12.6673C17.813 12.4805 17.813 12.4805 17.9375 12.3121C18.1389 12.1632 18.2125 12.1577 18.4575 12.1876C18.6061 12.2864 18.6061 12.2864 18.7542 12.4219C19.8206 13.3373 20.9432 13.6237 22.3247 13.5352C23.142 13.4327 23.9411 13.0242 24.5513 12.4805C24.5901 12.4471 24.6289 12.4138 24.6689 12.3794C25.3848 11.7196 25.8946 10.7197 25.9696 9.74623C26.0159 8.39116 25.7427 7.25857 24.8442 6.21099C24.0207 5.33874 22.8786 4.88308 21.6912 4.84503C20.5238 4.86941 19.4537 5.31573 18.6225 6.13203C18.4888 6.23128 18.3883 6.25451 18.2231 6.26959C17.8928 6.13616 17.8928 6.13616 17.813 5.97662C17.786 5.73825 17.7743 5.61512 17.9265 5.42364C17.9857 5.37409 18.0449 5.32454 18.106 5.27349C18.1416 5.2386 18.1773 5.2037 18.214 5.16775C20.0901 3.36863 23.1913 3.51134 25.1262 5.11602Z" fill="#FD5523"/>
<path d="M23.0864 6.32808C23.1551 6.3589 23.1551 6.3589 23.2251 6.39034C24.0545 6.8036 24.5548 7.50478 24.8474 8.36147C25.0883 9.20168 24.9946 10.1095 24.5771 10.8785C24.1054 11.6443 23.4449 12.1878 22.5685 12.4319C21.7296 12.6236 20.85 12.5104 20.102 12.0911C19.8145 11.9018 19.5006 11.6776 19.3364 11.3671C19.3288 11.1373 19.3417 11.0205 19.4902 10.8435C19.6983 10.7504 19.8121 10.7439 20.0395 10.7812C20.1802 10.8738 20.3063 10.9773 20.4357 11.0849C20.8753 11.4417 21.4061 11.5633 21.969 11.534C22.5476 11.4479 23.12 11.1793 23.4966 10.7226C23.8732 10.0898 24.0729 9.5106 23.9273 8.77208C23.7528 8.13507 23.4239 7.66336 22.852 7.32417C22.2577 7.01967 21.6781 6.96301 21.0356 7.14839C20.7286 7.2678 20.4737 7.40928 20.2336 7.63545C20.0798 7.77625 20.0438 7.79228 19.8235 7.82588C19.528 7.77571 19.528 7.77571 19.395 7.61714C19.3254 7.43038 19.3254 7.43038 19.3364 7.20699C19.6231 6.69846 20.2051 6.38101 20.7353 6.18526C21.4877 5.97763 22.3777 5.99039 23.0864 6.32808Z" fill="#FD5523"/>
</svg>
