<svg width="40" height="40" viewBox="0 0 40 40" fill="none" xmlns="http://www.w3.org/2000/svg">
<path d="M36.6239 7.60687C35.8376 6.49664 34.2176 6.15227 31.8086 6.58344C29.9127 6.92289 27.5743 7.74422 25.0007 8.96906V6.875C25.0007 6.77797 24.9781 6.68228 24.9347 6.59549C24.8913 6.50871 24.8283 6.43322 24.7507 6.375L22.2507 4.5C22.1425 4.41886 22.0109 4.375 21.8757 4.375C21.7404 4.375 21.6089 4.41886 21.5007 4.5L19.0007 6.375C18.923 6.43318 18.8599 6.50866 18.8165 6.59545C18.773 6.68223 18.7504 6.77795 18.7504 6.875V9.84422C16.935 10.4069 15.3031 11.4445 14.0234 12.8497C12.7438 14.2548 11.863 15.9765 11.4722 17.8364L11.471 17.8373C8.29473 20.5299 5.7866 23.1986 4.21762 25.5548C2.49606 28.1402 2.06137 30.1777 2.95981 31.447C3.52653 32.2462 4.53098 32.6484 5.95348 32.6484C6.04082 32.6484 6.1302 32.6465 6.22067 32.6435V33.0063C6.22066 33.1246 6.25425 33.2405 6.31752 33.3405C6.3808 33.4405 6.47115 33.5204 6.57809 33.5711L9.92645 35.157C10.0094 35.1964 10.1001 35.217 10.1919 35.2172C10.2838 35.2174 10.3746 35.1972 10.4577 35.1582C10.4589 35.1577 10.4603 35.1576 10.4615 35.157L13.8099 33.5711C13.9168 33.5204 14.0072 33.4405 14.0705 33.3405C14.1337 33.2405 14.1673 33.1246 14.1673 33.0063V30.2797C14.9192 29.9311 15.6844 29.5509 16.463 29.1391C18.1001 30.1135 19.9702 30.627 21.8754 30.625C27.7347 30.625 32.5004 25.8586 32.5004 20C32.5008 19.1241 32.3927 18.2515 32.1786 17.4022C32.9208 16.6209 33.5971 15.8488 34.1964 15.0952C36.8719 11.7317 37.7113 9.14227 36.6239 7.60687ZM29.3709 25.625H26.1097C26.3123 24.7978 26.4751 23.9645 26.5981 23.125H30.7146C30.3963 24.0218 29.9432 24.8648 29.3709 25.625ZM22.5004 29.3537V26.875H24.4638C24.2174 27.6641 23.9324 28.4436 23.6086 29.2138C23.2423 29.2824 22.8722 29.3292 22.5004 29.3537ZM20.1422 29.2138C19.8945 28.6263 19.6698 28.0325 19.4681 27.4325C19.7691 27.2502 20.0705 27.0644 20.3722 26.8751H21.2504V29.3537C20.8786 29.3292 20.5086 29.2824 20.1425 29.2138H20.1422ZM14.3804 14.375H17.3168C17.1639 15.2045 17.0503 16.0379 16.976 16.875H13.0369C13.3551 15.9782 13.8082 15.1352 14.3804 14.375ZM21.2504 10.6463V13.125H18.8643C19.0457 12.3866 19.2607 11.6542 19.5091 10.9278C20.0793 10.7792 20.6624 10.685 21.2504 10.6463ZM24.242 10.9276C24.4903 11.6534 24.7052 12.3858 24.8868 13.1248H22.5004V10.6463C23.0887 10.6849 23.672 10.7792 24.2425 10.9278L24.242 10.9276ZM18.9319 25.625C18.719 24.7984 18.548 23.9651 18.4189 23.125H21.2504V24.8152C20.8367 25.0916 20.4229 25.3615 20.0089 25.625H18.9319ZM18.1463 18.125H21.2504V21.875H18.2582C18.129 20.6294 18.0916 19.3761 18.1463 18.125ZM18.2322 16.875C18.31 16.0383 18.4293 15.205 18.5901 14.375H21.2504V16.875H18.2322ZM22.5004 23.125H23.6673C23.3772 23.3373 22.5964 23.8924 22.5004 23.9597V23.125ZM22.5004 25.4794C22.8378 25.2491 24.6991 23.9221 25.2748 23.4872C25.1543 24.2041 25.0026 24.9167 24.8195 25.625H22.5004V25.4794ZM25.5082 21.7294C25.4464 21.778 25.384 21.8263 25.3218 21.8748H22.5004V18.125H25.6048C25.6577 19.3273 25.6256 20.5318 25.5087 21.7295L25.5082 21.7294ZM26.857 18.125H29.6906C28.8078 18.9661 27.8547 19.8119 26.8436 20.6512C26.888 19.8101 26.8924 18.968 26.857 18.125ZM22.5004 16.875V14.375H25.1611C25.3217 15.2042 25.4409 16.0375 25.5189 16.875H22.5004ZM17.5785 13.125H15.5093C16.2525 12.4355 17.1023 11.8707 18.0257 11.4524C17.8582 12.0066 17.7091 12.5642 17.5785 13.125ZM16.8947 18.125C16.8424 19.3759 16.8778 20.629 17.0007 21.875H12.6892C12.4378 20.6376 12.4378 19.3624 12.6892 18.125H16.8947ZM17.1536 23.125C17.2764 23.9635 17.4392 24.7969 17.642 25.625H14.3804C13.8081 24.8648 13.355 24.0218 13.0367 23.125H17.1536ZM17.9633 26.875C17.4795 27.1577 16.9984 27.4293 16.52 27.6899C16.1648 27.4418 15.8271 27.1695 15.5093 26.875H17.9633ZM25.7714 26.875H28.2425C27.3386 27.7138 26.2783 28.3663 25.1222 28.7953C25.3628 28.1612 25.5791 27.5211 25.7711 26.875H25.7714ZM27.324 21.875C28.6997 20.7476 29.9768 19.6052 31.1261 18.4737C31.3116 19.6019 31.29 20.7545 31.0622 21.875H27.324ZM26.7757 16.875C26.7016 16.0386 26.588 15.2053 26.4349 14.375H29.3711C29.9435 15.1352 30.3966 15.9782 30.7149 16.875H26.7757ZM26.1734 13.125C26.0423 12.5644 25.8931 12.0069 25.7259 11.4524C26.6494 11.8707 27.4993 12.4355 28.2425 13.125H26.1734ZM21.8754 5.78125L23.7504 7.1875V9.5407C23.337 9.46707 22.9196 9.41805 22.5004 9.39391V8.125C22.5004 7.95924 22.4345 7.80027 22.3173 7.68306C22.2001 7.56585 22.0411 7.5 21.8754 7.5C21.7096 7.5 21.5506 7.56585 21.4334 7.68306C21.3162 7.80027 21.2504 7.95924 21.2504 8.125V9.39391C20.8312 9.41806 20.4138 9.46708 20.0004 9.5407V7.1875L21.8754 5.78125ZM10.1938 29.8667L8.37629 29.0058L10.1938 28.2402L12.0113 29.0058L10.1938 29.8667ZM9.56879 33.605L7.47043 32.6111V29.9598L9.56879 30.9538V33.605ZM10.8188 33.605V30.9538L12.8771 29.9788C12.8839 30.0311 12.8974 30.0822 12.9172 30.1311V32.6111L10.8188 33.605ZM14.1625 28.9C14.1518 28.8075 14.1206 28.7185 14.0711 28.6397C14.0216 28.5608 13.955 28.494 13.8764 28.4441C13.8497 28.4273 10.4364 26.9864 10.4364 26.9864C10.3596 26.9541 10.2771 26.9374 10.1938 26.9374C10.1105 26.9374 10.0281 26.9541 9.95129 26.9864C9.95129 26.9864 6.5366 28.428 6.51121 28.4441C6.42214 28.5005 6.34877 28.5785 6.29793 28.6708C6.24709 28.7632 6.22043 28.8669 6.22043 28.9723V31.3936C4.81965 31.4509 4.22824 31.0742 3.98051 30.7243C3.42262 29.9366 3.8884 28.3048 5.2584 26.2473C6.57192 24.2747 8.6777 21.9725 11.256 19.6795C11.2528 19.786 11.2507 19.8927 11.2507 19.9998C11.2506 21.6051 11.6147 23.1894 12.3155 24.6335C13.0163 26.0776 14.0357 27.344 15.2968 28.3371C14.9155 28.5326 14.5374 28.7203 14.1625 28.9ZM18.3697 28.0834C18.4526 28.3216 18.5392 28.5589 18.6296 28.7953C18.3367 28.6868 18.0495 28.5636 17.769 28.4263C17.9689 28.314 18.1691 28.1997 18.3697 28.0834ZM31.7369 16.0452C31.1855 14.6795 30.3576 13.4426 29.3052 12.4122C28.2529 11.3818 26.9989 10.5802 25.6219 10.0576C28.0607 8.9025 30.2602 8.13086 32.029 7.81414C33.8661 7.48531 35.1357 7.6682 35.6039 8.3293C36.0113 8.90469 35.8004 9.83062 35.5518 10.5061C35.1582 11.5749 34.3514 12.8927 33.2185 14.3172C32.7681 14.8834 32.2742 15.4594 31.7368 16.0452H31.7369Z" fill="#FD5523"/>
</svg>
