<svg width="30" height="31" viewBox="0 0 30 31" fill="none" xmlns="http://www.w3.org/2000/svg">
<path d="M12.3632 1.98726C12.5188 2.08496 12.5188 2.08496 12.6562 2.22164C12.6885 2.37752 12.6885 2.37752 12.6827 2.55722C12.6814 2.62471 12.6801 2.69221 12.6787 2.76174C12.6748 2.87088 12.6748 2.87088 12.6708 2.98221C12.6694 3.09706 12.668 3.21191 12.6669 3.32675C12.6637 3.60951 12.6577 3.89214 12.6483 4.17476C12.5629 5.09694 12.5629 5.09694 12.8779 5.90746C13.0609 6.05842 13.2452 6.14828 13.4765 6.20601C13.8683 6.16413 14.1985 5.95323 14.4726 5.67867C14.5673 5.41216 14.5564 5.16514 14.5437 4.88491C14.5431 4.76954 14.5426 4.65418 14.542 4.53882C14.5405 4.37833 14.5357 4.21801 14.5309 4.0576C14.523 3.77592 14.5191 3.49419 14.5168 3.21242C14.5153 3.06267 14.5121 2.91292 14.5071 2.76325C14.5059 2.69557 14.5048 2.62788 14.5037 2.55815C14.5019 2.49867 14.5002 2.43919 14.4984 2.37791C14.5312 2.22164 14.5312 2.22164 14.6685 2.08491C14.8594 1.96512 14.9537 1.95766 15.1757 1.98726C15.6672 2.16451 16.078 2.46271 16.4647 2.80757C16.5064 2.84436 16.548 2.88114 16.5909 2.91904C17.0753 3.37371 17.399 3.94925 17.6366 4.56539C17.6648 4.63835 17.6648 4.63835 17.6936 4.71279C18.0284 5.77788 17.8666 7.02358 17.3693 8.00411C17.1324 8.44315 16.8096 8.7803 16.4647 9.1357C16.0366 9.60809 16.0002 10.0636 15.9642 10.6793C15.9603 10.7442 15.9603 10.7442 15.9563 10.8104C15.9499 10.9162 15.9436 11.022 15.9374 11.1279C16.3149 11.1284 16.6922 11.1262 17.0697 11.1222C17.198 11.1211 17.3263 11.1207 17.4546 11.1209C17.6394 11.121 17.824 11.1189 18.0088 11.1164C18.0659 11.117 18.1231 11.1175 18.1819 11.1181C18.4677 11.112 18.6394 11.0973 18.8475 10.8906C18.8926 10.8335 18.9378 10.7765 18.9843 10.7177C18.9193 10.7162 18.8544 10.7147 18.7874 10.7132C18.7017 10.7099 18.6159 10.7065 18.5302 10.7031C18.4874 10.7023 18.4447 10.7014 18.4006 10.7006C18.2128 10.692 18.0753 10.6782 17.9173 10.5727C17.762 10.3537 17.7788 10.1599 17.7813 9.89742C17.7811 9.84628 17.7808 9.79515 17.7806 9.74247C17.7804 9.63451 17.7809 9.52655 17.7818 9.4186C17.7831 9.25345 17.7819 9.08844 17.7804 8.9233C17.7805 8.81832 17.7808 8.71334 17.7813 8.60836C17.7808 8.55903 17.7803 8.50971 17.7798 8.4589C17.7834 8.23664 17.7862 8.11795 17.9173 7.9331C18.1102 7.80429 18.3054 7.80706 18.5302 7.80269C18.5738 7.80096 18.6175 7.79922 18.6625 7.79743C18.7697 7.7933 18.877 7.79054 18.9843 7.78804C18.9427 7.7505 18.901 7.71297 18.8582 7.67429C18.8043 7.62361 18.7505 7.57293 18.695 7.52071C18.6413 7.47109 18.5876 7.42146 18.5322 7.37033C18.3694 7.16578 18.3349 7.05267 18.3397 6.79195C18.4852 6.54398 18.6555 6.34397 18.8579 6.14101C18.9116 6.08716 18.9653 6.0333 19.0207 5.97782C19.0484 5.95035 19.0761 5.92289 19.1046 5.89459C19.1896 5.81031 19.2738 5.72541 19.358 5.64045C19.4117 5.58689 19.4654 5.53334 19.5208 5.47817C19.594 5.40512 19.594 5.40512 19.6688 5.3306C19.8669 5.15457 19.9719 5.09158 20.2388 5.09616C20.4927 5.16277 20.5909 5.25664 20.7677 5.44796C20.8184 5.50181 20.8691 5.55566 20.9213 5.61115C20.9588 5.65277 20.9964 5.69438 21.0351 5.73726C21.0366 5.67231 21.0381 5.60735 21.0396 5.54042C21.0429 5.45467 21.0463 5.36891 21.0497 5.28316C21.0505 5.24041 21.0514 5.19766 21.0522 5.15361C21.0608 4.96583 21.0746 4.82829 21.1801 4.67027C21.3991 4.51501 21.5929 4.53173 21.8554 4.53426C21.9065 4.53404 21.9576 4.53381 22.0103 4.53358C22.1183 4.53342 22.2262 4.53385 22.3342 4.53483C22.4993 4.53609 22.6643 4.53484 22.8295 4.53334C22.9345 4.5335 23.0395 4.5338 23.1444 4.53426C23.1938 4.53379 23.2431 4.53331 23.2939 4.53282C23.5161 4.53638 23.6348 4.5392 23.8197 4.67027C23.9485 4.86318 23.9457 5.05841 23.9501 5.28316C23.9527 5.34865 23.9527 5.34865 23.9554 5.41545C23.9595 5.52269 23.9623 5.62998 23.9647 5.73726C24.0023 5.69564 24.0398 5.65403 24.0785 5.61115C24.1292 5.55729 24.1799 5.50344 24.2321 5.44796C24.3065 5.3674 24.3065 5.3674 24.3825 5.28522C24.587 5.12241 24.7001 5.08783 24.9608 5.09273C25.2088 5.23813 25.4088 5.40851 25.6118 5.61092C25.6656 5.66462 25.7195 5.71832 25.775 5.77365C25.8162 5.81522 25.8162 5.81522 25.8582 5.85763C25.9425 5.94254 26.0274 6.0268 26.1123 6.11103C26.1927 6.19158 26.1927 6.19158 26.2746 6.27376C26.3477 6.34701 26.3477 6.34701 26.4222 6.42173C26.5982 6.61988 26.6612 6.72485 26.6566 6.99176C26.59 7.24573 26.4962 7.34392 26.3048 7.52071C26.251 7.57139 26.1971 7.62207 26.1416 7.67429C26.1 7.71183 26.0584 7.74937 26.0155 7.78804C26.0805 7.78955 26.1454 7.79107 26.2124 7.79262C26.2981 7.79592 26.3839 7.79928 26.4696 7.80269C26.5124 7.80352 26.5551 7.80435 26.5992 7.80521C26.787 7.81375 26.9245 7.82759 27.0825 7.9331C27.2378 8.15206 27.2211 8.34591 27.2185 8.60836C27.2188 8.65949 27.219 8.71063 27.2192 8.76331C27.2194 8.87127 27.2189 8.97923 27.218 9.08718C27.2167 9.25233 27.2179 9.41733 27.2194 9.58248C27.2193 9.68746 27.219 9.79244 27.2185 9.89742C27.219 9.94674 27.2195 9.99606 27.22 10.0469C27.2164 10.2691 27.2136 10.3878 27.0825 10.5727C26.8896 10.7015 26.6944 10.6987 26.4696 10.7031C26.426 10.7048 26.3823 10.7066 26.3373 10.7083C26.2301 10.7125 26.1228 10.7152 26.0155 10.7177C26.2181 10.9787 26.2181 10.9787 26.5127 11.0974C26.6131 11.1029 26.7137 11.1055 26.8143 11.1045C27.006 11.1368 27.0602 11.2166 27.1874 11.3623C27.2579 11.481 27.3237 11.6025 27.3861 11.7257C27.4045 11.7615 27.4228 11.7974 27.4417 11.8343C27.5017 11.9523 27.5611 12.0706 27.6204 12.189C27.6621 12.2716 27.7038 12.3542 27.7456 12.4368C27.8328 12.6098 27.9196 12.783 28.0062 12.9564C28.1169 13.1778 28.2288 13.3985 28.3411 13.6191C28.4276 13.7895 28.5133 13.9603 28.5987 14.1312C28.6396 14.2128 28.6808 14.2942 28.7223 14.3754C28.7805 14.4893 28.8374 14.6038 28.894 14.7185C28.9266 14.7834 28.9592 14.8483 28.9928 14.9151C29.0808 15.1643 29.0919 15.3178 29.0624 15.581C28.9851 15.6584 28.9077 15.7357 28.828 15.8154C28.2866 15.8154 27.7452 15.8154 27.1874 15.8154C27.1874 17.4976 27.1874 19.1798 27.1874 20.913C27.3421 20.9324 27.4968 20.9517 27.6562 20.9716C28.1686 21.1385 28.5403 21.4706 28.7919 21.9446C29.0256 22.5109 29.0212 23.0703 28.788 23.6358C28.4283 24.3274 27.6915 24.6881 27.0336 25.0476C26.5359 25.3229 26.0411 25.6021 25.5504 25.8899C25.0643 26.1747 24.5774 26.4581 24.0893 26.7395C24.026 26.7759 23.9627 26.8124 23.8975 26.85C23.7692 26.9239 23.6409 26.9979 23.5125 27.0718C23.2578 27.2185 23.0031 27.3655 22.7485 27.5124C22.6223 27.5852 22.4961 27.658 22.3699 27.7307C22.0764 27.8999 21.783 28.0693 21.4902 28.2398C21.3876 28.2994 21.2851 28.359 21.1825 28.4185C21.0546 28.4928 20.9269 28.5671 20.7993 28.6417C19.9422 29.1388 19.2991 29.4269 18.3019 29.4262C18.2217 29.4265 18.1415 29.4269 18.0613 29.4274C17.8444 29.4284 17.6276 29.4287 17.4107 29.4287C17.2749 29.4288 17.139 29.4291 17.0032 29.4294C16.5282 29.4305 16.0532 29.4309 15.5782 29.4309C15.1372 29.4308 14.6962 29.432 14.2552 29.4339C13.8751 29.4354 13.4951 29.436 13.115 29.436C12.8887 29.4359 12.6623 29.4363 12.436 29.4375C12.2228 29.4386 12.0096 29.4386 11.7964 29.4378C11.6821 29.4376 11.5679 29.4386 11.4536 29.4396C10.8152 29.4351 10.2426 29.2832 9.67886 28.9843C9.62047 28.9538 9.56209 28.9233 9.50193 28.8919C9.46001 28.8692 9.41809 28.8465 9.3749 28.8232C9.37762 28.8797 9.38034 28.9362 9.38314 28.9944C9.38526 29.0684 9.38737 29.1424 9.38955 29.2187C9.39227 29.2921 9.39499 29.3655 9.39779 29.4412C9.3749 29.6435 9.3749 29.6435 9.28192 29.7715C9.09103 29.9152 8.96808 29.9076 8.73037 29.9082C8.68957 29.9086 8.64876 29.909 8.60672 29.9095C8.47213 29.9105 8.33762 29.9098 8.20303 29.909C8.10934 29.9092 8.01565 29.9094 7.92196 29.9097C7.72572 29.91 7.52951 29.9095 7.33328 29.9084C7.08185 29.9071 6.83048 29.9079 6.57906 29.9093C6.38563 29.9101 6.19221 29.9099 5.99878 29.9093C5.90609 29.9091 5.81339 29.9093 5.72069 29.9098C5.59107 29.9104 5.46155 29.9095 5.33194 29.9082C5.25822 29.908 5.1845 29.9078 5.10855 29.9076C4.92178 29.8779 4.92178 29.8779 4.77987 29.7817C4.65993 29.6025 4.66346 29.491 4.67276 29.2773C4.67487 29.2142 4.67699 29.151 4.67916 29.086C4.68188 29.0379 4.6846 28.9899 4.6874 28.9404C4.64388 28.9409 4.60036 28.9414 4.55551 28.942C4.14515 28.9467 3.73479 28.9502 3.32441 28.9525C3.11342 28.9538 2.90247 28.9554 2.6915 28.9581C2.48786 28.9606 2.28424 28.962 2.08059 28.9626C1.96517 28.9633 1.84976 28.9651 1.73435 28.9669C1.62879 28.967 1.62879 28.967 1.52111 28.967C1.42821 28.9678 1.42821 28.9678 1.33343 28.9686C1.12688 28.9326 1.06849 28.867 0.937404 28.706C0.90791 28.568 0.90791 28.568 0.907642 28.4125C0.906651 28.3238 0.906651 28.3238 0.905639 28.2332C0.906351 28.1364 0.906351 28.1364 0.907077 28.0377C0.906666 27.9694 0.906256 27.9012 0.905832 27.8309C0.9048 27.605 0.905484 27.3792 0.906276 27.1533C0.906118 26.9965 0.905891 26.8398 0.905596 26.683C0.90517 26.3544 0.905732 26.0258 0.906848 25.6971C0.908124 25.3173 0.90771 24.9375 0.90642 24.5576C0.905356 24.2314 0.905207 23.9052 0.90582 23.5789C0.906185 23.3841 0.906142 23.1893 0.90546 22.9945C0.904866 22.7774 0.90577 22.5603 0.907077 22.3431C0.906603 22.2786 0.906128 22.214 0.905639 22.1475C0.9063 22.0884 0.906961 22.0292 0.907642 21.9683C0.90773 21.917 0.907819 21.8656 0.90791 21.8128C0.947385 21.6281 1.02635 21.557 1.17178 21.4404C1.33343 21.4122 1.33343 21.4122 1.52111 21.4138C1.59148 21.4138 1.66185 21.4138 1.73435 21.4138C1.81004 21.415 1.88573 21.4163 1.96371 21.4175C2.0422 21.4179 2.12068 21.4183 2.19917 21.4185C2.40532 21.4194 2.61144 21.4217 2.81758 21.4243C3.0281 21.4267 3.23863 21.4278 3.44915 21.4289C3.86192 21.4315 4.27466 21.4355 4.6874 21.4404C4.68468 21.3924 4.68197 21.3443 4.67916 21.2948C4.67705 21.2317 4.67493 21.1685 4.67276 21.1035C4.67004 21.0409 4.66732 20.9784 4.66452 20.914C4.6874 20.7373 4.6874 20.7373 4.77987 20.5991C4.97163 20.4691 5.10099 20.4731 5.33194 20.4726C5.37274 20.4722 5.41355 20.4717 5.45559 20.4713C5.59018 20.4703 5.72469 20.471 5.85928 20.4718C5.95297 20.4716 6.04666 20.4714 6.14035 20.4711C6.33658 20.4707 6.5328 20.4712 6.72903 20.4723C6.98046 20.4737 7.23183 20.4729 7.48325 20.4715C7.67668 20.4706 7.8701 20.4709 8.06353 20.4715C8.15622 20.4717 8.24892 20.4715 8.34162 20.4709C8.47124 20.4703 8.60076 20.4713 8.73037 20.4726C8.84095 20.4728 8.84095 20.4728 8.95376 20.4731C9.173 20.5081 9.24228 20.5627 9.3749 20.7373C9.40151 20.8553 9.40151 20.8553 9.39779 20.978C9.39704 21.0222 9.39628 21.0664 9.3955 21.1119C9.39256 21.1803 9.39256 21.1803 9.38955 21.25C9.38849 21.2964 9.38744 21.3429 9.38635 21.3907C9.38359 21.505 9.37939 21.6192 9.3749 21.7334C9.66494 21.656 9.95498 21.5787 10.2538 21.499C10.2731 19.6234 10.2925 17.7478 10.3124 15.8154C9.771 15.8154 9.22959 15.8154 8.67178 15.8154C8.4374 15.581 8.4374 15.581 8.41184 15.3574C8.42504 15.1121 8.50156 14.9259 8.61211 14.7059C8.63069 14.6683 8.64927 14.6307 8.66841 14.592C8.72943 14.4691 8.79177 14.3469 8.8542 14.2247C8.8972 14.1389 8.94013 14.0532 8.98299 13.9674C9.0727 13.7883 9.16304 13.6096 9.25387 13.4311C9.3703 13.2022 9.48547 12.9728 9.60023 12.7431C9.68868 12.5662 9.77761 12.3897 9.8667 12.2132C9.90936 12.1286 9.95189 12.044 9.99432 11.9593C10.0536 11.8413 10.1135 11.7236 10.1735 11.6059C10.2245 11.5054 10.2245 11.5054 10.2765 11.4028C10.371 11.2451 10.371 11.2451 10.5468 11.1279C10.7178 11.1164 10.7178 11.1164 10.9093 11.1206C10.973 11.1216 11.0367 11.1227 11.1023 11.1238C11.151 11.1251 11.1997 11.1265 11.2499 11.1279C11.2369 10.9129 11.2216 10.6982 11.206 10.4834C11.2023 10.423 11.1987 10.3627 11.195 10.3005C11.1515 9.73122 11.0138 9.38831 10.5871 9.0002C9.82636 8.27721 9.38886 7.26079 9.31631 6.21631C9.31631 4.98277 9.68016 3.85737 10.5573 2.96711C11.0147 2.52551 11.6764 1.89278 12.3632 1.98726ZM11.1327 3.80367C10.4419 4.60781 10.2987 5.53707 10.371 6.55758C10.5099 7.37585 10.9894 7.96083 11.5429 8.54976C11.9316 8.9719 12.1277 9.38806 12.1473 9.96059C12.1498 10.0286 12.1523 10.0965 12.1548 10.1666C12.1571 10.2373 12.1594 10.308 12.1618 10.3808C12.1643 10.4524 12.1668 10.524 12.1694 10.5978C12.1756 10.7745 12.1816 10.9512 12.1874 11.1279C12.4968 11.1279 12.8062 11.1279 13.1249 11.1279C13.1271 11.0115 13.1293 10.8951 13.1315 10.7752C13.1344 10.6623 13.1373 10.5495 13.1403 10.4366C13.1432 10.3197 13.1452 10.2028 13.1472 10.0859C13.1493 10.0124 13.1514 9.939 13.1535 9.86332C13.155 9.7955 13.1566 9.72769 13.1582 9.65782C13.1835 9.48726 13.1835 9.48726 13.2662 9.37733C13.3825 9.29505 13.452 9.2879 13.5937 9.28951C13.6535 9.28883 13.6535 9.28883 13.7145 9.28814C13.8671 9.31953 13.91 9.36257 14.0038 9.48726C14.0291 9.65782 14.0291 9.65782 14.0338 9.86332C14.0359 9.93677 14.0379 10.0102 14.0401 10.0859C14.0421 10.2011 14.0421 10.2011 14.0441 10.3186C14.046 10.3968 14.0481 10.475 14.0502 10.5533C14.055 10.7448 14.0588 10.9363 14.0624 11.1279C14.3718 11.1279 14.6812 11.1279 14.9999 11.1279C15.0014 11.0247 15.0029 10.9215 15.0045 10.8152C15.0078 10.6778 15.0111 10.5403 15.0146 10.4028C15.0154 10.335 15.0162 10.2673 15.0171 10.1975C15.0374 9.47682 15.2441 8.9326 15.7726 8.43258C16.4664 7.7502 16.833 6.9479 16.8456 5.97164C16.836 5.02826 16.5004 4.32126 15.8804 3.62262C15.7526 3.50219 15.62 3.42297 15.4687 3.33492C15.4684 3.37037 15.4682 3.40582 15.468 3.44234C15.4656 3.81115 15.4615 4.17992 15.4565 4.54871C15.4548 4.68636 15.4536 4.82401 15.4528 4.96167C15.4515 5.1595 15.4488 5.35726 15.4458 5.55507C15.4457 5.61666 15.4456 5.67826 15.4455 5.74171C15.437 6.16735 15.437 6.16735 15.3095 6.35044C15.2653 6.38012 15.2212 6.4098 15.1757 6.44039C15.1285 6.47579 15.0814 6.5112 15.0328 6.54768C14.8614 6.66442 14.6893 6.77982 14.5165 6.89449C14.4572 6.93535 14.3979 6.97621 14.3368 7.01831C13.7695 7.39436 13.7695 7.39436 13.4889 7.36484C13.192 7.2605 12.9341 7.07706 12.6763 6.90015C12.5714 6.82821 12.4657 6.75779 12.3596 6.68758C11.8463 6.34415 11.8463 6.34415 11.7772 6.20601C11.7703 6.1139 11.7669 6.02151 11.7652 5.92915C11.764 5.87168 11.7629 5.81421 11.7617 5.75499C11.7607 5.6928 11.7597 5.6306 11.7587 5.56652C11.7575 5.50296 11.7563 5.43939 11.755 5.37391C11.7512 5.17032 11.7477 4.96673 11.7443 4.76314C11.7418 4.62535 11.7392 4.48757 11.7366 4.34978C11.7303 4.0115 11.7244 3.67321 11.7187 3.33492C11.5216 3.33492 11.2637 3.6737 11.1327 3.80367ZM22.0312 5.50289C22.029 5.59813 22.0268 5.69338 22.0245 5.79151C22.0207 5.91625 22.0168 6.04099 22.0128 6.16573C22.0115 6.22853 22.0102 6.29134 22.0088 6.35604C22.0068 6.41628 22.0047 6.47652 22.0025 6.53858C22.001 6.59412 21.9995 6.64966 21.9979 6.70688C21.9685 6.8738 21.9291 6.92419 21.7968 7.02633C21.5581 7.15229 21.3608 7.18426 21.0937 7.14351C20.9176 7.02617 20.7733 6.88345 20.6249 6.73336C20.585 6.69423 20.5451 6.65511 20.5041 6.6148C20.4066 6.51853 20.3103 6.42139 20.2147 6.3232C20.151 6.37533 20.0876 6.42791 20.0243 6.48067C19.989 6.5099 19.9536 6.53913 19.9172 6.56925C19.7864 6.69183 19.6795 6.82585 19.5702 6.96773C19.6517 7.04817 19.6517 7.04817 19.7348 7.13024C19.8057 7.20057 19.8765 7.27092 19.9474 7.34127C19.9833 7.37662 20.0191 7.41196 20.056 7.44838C20.1073 7.49937 20.1073 7.49937 20.1596 7.55138C20.1912 7.58268 20.2228 7.61398 20.2554 7.64622C20.3794 7.781 20.3908 7.84984 20.4052 8.03707C20.3859 8.32633 20.3027 8.52038 20.0976 8.72554C19.9605 8.74423 19.9605 8.74423 19.7913 8.74981C19.7309 8.75207 19.6705 8.75434 19.6082 8.75667C19.5449 8.75848 19.4816 8.7603 19.4164 8.76217C19.3208 8.76556 19.3208 8.76556 19.2232 8.76903C19.0655 8.77457 18.9077 8.77942 18.7499 8.78414C18.7499 9.09351 18.7499 9.40289 18.7499 9.72164C18.8451 9.72383 18.9404 9.72602 19.0385 9.72828C19.1633 9.73212 19.288 9.73602 19.4127 9.73995C19.4755 9.74127 19.5384 9.74259 19.6031 9.74395C19.6934 9.74707 19.6934 9.74707 19.7856 9.75025C19.8689 9.75255 19.8689 9.75255 19.9539 9.7549C20.1208 9.78433 20.1712 9.82368 20.2733 9.95601C20.3992 10.1945 20.4268 10.392 20.3905 10.6591C20.2745 10.8138 20.1585 10.9685 20.039 11.1279C20.6964 11.1279 21.3538 11.1279 22.0312 11.1279C21.8956 11.0375 21.7742 10.9695 21.6283 10.9008C21.1757 10.6741 20.9238 10.3778 20.735 9.91069C20.596 9.40041 20.6174 8.79593 20.8485 8.31768C21.0894 7.90264 21.4497 7.61792 21.9041 7.45708C22.5258 7.35626 23.1175 7.39855 23.6578 7.73517C24.0031 7.99172 24.2051 8.37716 24.3163 8.78414C24.373 9.41477 24.3405 9.97633 23.9501 10.5017C23.6636 10.7817 23.3566 10.9626 22.9687 11.0693C22.9687 11.0886 22.9687 11.108 22.9687 11.1279C23.6261 11.1279 24.2835 11.1279 24.9608 11.1279C24.8448 10.9732 24.7288 10.8185 24.6093 10.6591C24.5616 10.3518 24.6256 10.1611 24.7851 9.89742C24.9351 9.74734 24.9998 9.76285 25.2085 9.75597C25.2689 9.7537 25.3293 9.75144 25.3916 9.7491C25.4549 9.74729 25.5182 9.74548 25.5834 9.74361C25.6471 9.74134 25.7109 9.73908 25.7766 9.73674C25.9343 9.73121 26.0921 9.72636 26.2499 9.72164C26.2499 9.41226 26.2499 9.10289 26.2499 8.78414C26.1547 8.78195 26.0594 8.77976 25.9613 8.7775C25.8365 8.77365 25.7118 8.76976 25.5871 8.76583C25.4929 8.76384 25.4929 8.76384 25.3967 8.76182C25.3365 8.75974 25.2763 8.75767 25.2142 8.75553C25.1309 8.75323 25.1309 8.75323 25.0459 8.75088C24.879 8.72144 24.8286 8.6821 24.7265 8.54976C24.6005 8.31109 24.5685 8.11374 24.6093 7.84664C24.7266 7.67063 24.8693 7.52624 25.0194 7.37789C25.0586 7.33801 25.0977 7.29813 25.138 7.25704C25.2343 7.15959 25.3314 7.06324 25.4296 6.96773C25.3775 6.90396 25.3249 6.84056 25.2721 6.7773C25.2283 6.72428 25.2283 6.72428 25.1835 6.67019C25.061 6.53936 24.9269 6.43245 24.7851 6.3232C24.7314 6.37751 24.6778 6.43181 24.6226 6.48777C24.5522 6.55865 24.4819 6.62953 24.4115 6.7004C24.3762 6.73624 24.3408 6.77208 24.3044 6.809C24.2534 6.86027 24.2534 6.86027 24.2014 6.91257C24.1701 6.94418 24.1388 6.97578 24.1066 7.00834C23.9718 7.13235 23.903 7.14376 23.7157 7.15816C23.4265 7.13888 23.2324 7.0557 23.0272 6.85054C23.0086 6.71353 23.0086 6.71353 23.003 6.5443C23.0007 6.48388 22.9985 6.42345 22.9961 6.36119C22.9943 6.2979 22.9925 6.2346 22.9906 6.16939C22.9884 6.10564 22.9861 6.04189 22.9838 5.97621C22.9782 5.81846 22.9734 5.66067 22.9687 5.50289C22.6593 5.50289 22.3499 5.50289 22.0312 5.50289ZM21.7162 8.76217C21.5871 9.03039 21.5743 9.25321 21.621 9.54586C21.7575 9.82937 21.9234 9.99529 22.2069 10.1318C22.4996 10.1785 22.7224 10.1657 22.9906 10.0366C23.2006 9.84658 23.3551 9.69441 23.4012 9.40532C23.4162 9.07229 23.3751 8.86328 23.1444 8.60836C22.8895 8.37772 22.6805 8.33655 22.3475 8.35155C22.0584 8.39769 21.9062 8.55216 21.7162 8.76217ZM11.0741 12.0654C10.1678 13.4168 10.1678 13.4168 9.72647 14.8779C11.9888 14.8779 14.2511 14.8779 16.5819 14.8779C17.4882 13.5265 17.4882 13.5265 17.9296 12.0654C15.6673 12.0654 13.405 12.0654 11.0741 12.0654ZM19.5702 12.0654C19.899 13.0516 20.453 13.9481 20.9179 14.8779C23.1802 14.8779 25.4425 14.8779 27.7733 14.8779C27.4446 13.8917 26.8906 12.9952 26.4257 12.0654C24.1634 12.0654 21.9011 12.0654 19.5702 12.0654ZM18.2226 13.706C18.193 13.7661 18.1634 13.8261 18.133 13.888C18.0235 14.1101 17.9135 14.3321 17.8034 14.5539C17.7558 14.6501 17.7083 14.7463 17.6609 14.8426C17.5929 14.9808 17.5244 15.1188 17.4558 15.2567C17.424 15.3216 17.424 15.3216 17.3916 15.3878C17.2398 15.6915 17.2398 15.6915 17.1093 15.7568C17.0306 15.7628 16.9516 15.7654 16.8727 15.7661C16.7985 15.7669 16.7985 15.7669 16.7229 15.7678C16.6413 15.7683 16.6413 15.7683 16.5581 15.7688C16.5009 15.7694 16.4438 15.77 16.3849 15.7706C16.1953 15.7724 16.0057 15.7739 15.8161 15.7753C15.6849 15.7765 15.5537 15.7778 15.4225 15.779C15.0767 15.7823 14.7309 15.7852 14.385 15.788C13.9704 15.7914 13.5557 15.7953 13.1411 15.7991C12.5107 15.8049 11.8803 15.8101 11.2499 15.8154C11.2499 17.6136 11.2499 19.4119 11.2499 21.2646C11.5689 21.2066 11.5689 21.2066 11.8944 21.1474C12.4735 21.0432 12.983 21.0693 13.5522 21.2026C13.6069 21.2152 13.6616 21.2278 13.7179 21.2408C14.5509 21.4372 15.3759 21.6664 16.2017 21.8908C16.5601 21.9882 16.9187 22.085 17.2772 22.1819C17.4016 22.2156 17.526 22.2494 17.6504 22.2832C17.7249 22.3034 17.7993 22.3235 17.876 22.3443C17.9417 22.3622 18.0074 22.38 18.0751 22.3984C18.2066 22.4389 18.2066 22.4389 18.2812 22.4365C18.2812 19.5554 18.2812 16.6744 18.2812 13.706C18.2618 13.706 18.2425 13.706 18.2226 13.706ZM19.2187 13.706C19.2187 16.6644 19.2187 19.6228 19.2187 22.6709C19.5219 22.7719 19.816 22.8677 20.1228 22.9514C20.6157 23.0873 21.0113 23.224 21.372 23.601C21.4155 23.6421 21.459 23.6832 21.5038 23.7255C21.7586 23.6917 21.9721 23.5462 22.1923 23.4216C22.2382 23.3958 22.2842 23.37 22.3316 23.3435C22.8323 23.0613 23.328 22.7704 23.824 22.48C24.2204 22.2479 24.6179 22.0179 25.0158 21.7883C25.0785 21.752 25.1413 21.7157 25.206 21.6784C25.2957 21.6266 25.2957 21.6266 25.3872 21.5738C25.4394 21.5438 25.4915 21.5137 25.5452 21.4827C25.7791 21.3496 26.0147 21.2195 26.2499 21.0888C26.2499 19.3486 26.2499 17.6084 26.2499 15.8154C25.6185 15.8121 25.6185 15.8121 24.9743 15.8088C24.7081 15.807 24.4419 15.8052 24.1757 15.8031C23.7528 15.8 23.33 15.797 22.9072 15.7951C22.5664 15.7936 22.2256 15.7912 21.8848 15.7882C21.7546 15.7873 21.6244 15.7866 21.4942 15.7862C21.3123 15.7857 21.1303 15.784 20.9484 15.7821C20.8942 15.7822 20.84 15.7823 20.7842 15.7824C20.7347 15.7816 20.6852 15.7809 20.6341 15.7802C20.5911 15.7799 20.548 15.7796 20.5037 15.7793C20.3565 15.75 20.308 15.6967 20.2147 15.581C20.1366 15.4395 20.0634 15.2987 19.9925 15.1537C19.9719 15.1123 19.9514 15.071 19.9302 15.0283C19.8648 14.8966 19.7999 14.7645 19.735 14.6325C19.6907 14.543 19.6463 14.4534 19.6019 14.3639C19.4933 14.1448 19.3852 13.9255 19.2772 13.706C19.2579 13.706 19.2386 13.706 19.2187 13.706ZM5.6249 21.4404C5.6249 23.9154 5.6249 26.3904 5.6249 28.9404C6.55303 28.9404 7.48115 28.9404 8.4374 28.9404C8.4374 26.4654 8.4374 23.9904 8.4374 21.4404C7.50928 21.4404 6.58115 21.4404 5.6249 21.4404ZM26.2462 22.1801C26.196 22.209 26.1458 22.2378 26.094 22.2675C25.9305 22.3618 25.7679 22.4577 25.6054 22.5537C25.495 22.6179 25.3846 22.6821 25.2742 22.7462C25.0415 22.8813 24.8093 23.0172 24.5772 23.1533C24.0978 23.434 23.615 23.7089 23.1322 23.9838C23.0038 24.0569 22.8755 24.1304 22.7474 24.2042C22.6179 24.2777 22.4873 24.3493 22.3558 24.4192C22.2599 24.4714 22.2599 24.4714 22.1621 24.5246C22.1045 24.555 22.0469 24.5854 21.9876 24.6167C21.8418 24.712 21.8418 24.712 21.8068 24.881C21.7946 25.0384 21.7946 25.0384 21.7991 25.2039C21.7933 25.6158 21.5446 25.964 21.2731 26.2572C20.8718 26.6061 20.3953 26.739 19.8726 26.7322C19.4479 26.6901 19.0359 26.5591 18.6254 26.4465C18.5197 26.418 18.4139 26.3896 18.3081 26.3612C18.0762 26.299 17.8444 26.2363 17.6127 26.1734C17.2659 26.0796 16.9187 25.9878 16.5712 25.8965C16.2715 25.8176 15.9718 25.7384 15.6721 25.6591C15.5246 25.6202 15.377 25.5813 15.2294 25.5426C15.0212 25.4879 14.8131 25.4326 14.6051 25.3772C14.5426 25.3609 14.4802 25.3446 14.4158 25.3278C14.358 25.3123 14.3002 25.2968 14.2406 25.2808C14.1904 25.2675 14.1402 25.2542 14.0885 25.2406C13.8841 25.169 13.6933 25.0968 13.5937 24.8974C13.5771 24.7073 13.5705 24.5867 13.6656 24.4187C13.7694 24.3115 13.7694 24.3115 13.8951 24.2838C14.2517 24.2951 14.5712 24.3485 14.9137 24.4469C14.9923 24.4685 14.9923 24.4685 15.0725 24.4905C15.1852 24.5215 15.2978 24.5529 15.4104 24.5846C15.5888 24.6348 15.7675 24.684 15.9463 24.7329C16.39 24.8546 16.8333 24.9778 17.2765 25.1013C17.6518 25.2059 18.0273 25.3097 18.4032 25.4125C18.5787 25.4608 18.7539 25.5102 18.9291 25.5596C19.0373 25.5893 19.1455 25.6189 19.2538 25.6485C19.326 25.6694 19.326 25.6694 19.3997 25.6907C19.8012 25.7982 20.1548 25.8096 20.5297 25.6152C20.787 25.3947 20.8937 25.1886 20.9254 24.8459C20.9081 24.5601 20.769 24.3373 20.5691 24.14C20.3249 23.9738 20.0789 23.9141 19.795 23.8404C19.7345 23.8241 19.674 23.8078 19.6116 23.791C19.41 23.7367 19.2081 23.6835 19.0063 23.6303C18.8647 23.5925 18.7231 23.5545 18.5816 23.5165C18.2759 23.4346 17.97 23.3531 17.6641 23.2718C17.1849 23.1444 16.7062 23.0155 16.2275 22.8862C15.8257 22.7777 15.4238 22.6693 15.0219 22.561C14.9783 22.5492 14.9347 22.5375 14.8897 22.5254C14.6375 22.4574 14.3853 22.3895 14.133 22.3218C14.0192 22.2913 13.9053 22.2606 13.7915 22.2299C13.6891 22.2025 13.6891 22.2025 13.5846 22.1744C13.5252 22.1585 13.4658 22.1425 13.4047 22.1261C12.7792 21.9677 12.2366 22.0189 11.6157 22.1781C11.553 22.1935 11.4903 22.209 11.4257 22.2249C11.2946 22.2575 11.1635 22.2903 11.0325 22.3235C10.8311 22.3746 10.6295 22.4245 10.4278 22.4744C10.3 22.5062 10.1723 22.538 10.0446 22.5699C9.9539 22.5925 9.9539 22.5925 9.86135 22.6156C9.80595 22.6297 9.75055 22.6438 9.69348 22.6583C9.62008 22.6768 9.62008 22.6768 9.5452 22.6957C9.43403 22.7197 9.43403 22.7197 9.3749 22.788C9.36933 22.9414 9.36755 23.0932 9.36825 23.2465C9.36824 23.2945 9.36823 23.3425 9.36823 23.392C9.36827 23.5515 9.36872 23.711 9.36918 23.8704C9.36929 23.9807 9.36937 24.091 9.36943 24.2012C9.36966 24.492 9.37023 24.7829 9.37088 25.0737C9.37148 25.3702 9.37175 25.6667 9.37204 25.9632C9.37267 26.5454 9.37367 27.1277 9.3749 27.7099C9.58412 27.8164 9.79434 27.9208 10.0048 28.0249C10.0924 28.0695 10.0924 28.0695 10.1817 28.115C10.2402 28.1437 10.2988 28.1724 10.3591 28.202C10.4119 28.2284 10.4647 28.2548 10.519 28.282C11.0461 28.4697 11.5917 28.4889 12.1461 28.4868C12.2484 28.4871 12.2484 28.4871 12.3528 28.4874C12.5761 28.4879 12.7993 28.4876 13.0226 28.4872C13.179 28.4873 13.3354 28.4874 13.4918 28.4875C13.8187 28.4878 14.1456 28.4875 14.4724 28.4869C14.8487 28.4863 15.225 28.4865 15.6013 28.4871C15.9263 28.4877 16.2512 28.4877 16.5761 28.4874C16.7693 28.4872 16.9626 28.4873 17.1559 28.4876C17.3715 28.4879 17.5871 28.4875 17.8027 28.4868C17.8656 28.487 17.9284 28.4873 17.9932 28.4875C18.5524 28.4844 19.0721 28.4287 19.5739 28.1677C19.6312 28.138 19.6312 28.138 19.6897 28.1076C20.345 27.762 20.9817 27.3808 21.621 27.0068C21.74 26.9373 21.859 26.8679 21.9781 26.7985C22.1513 26.6975 22.3246 26.5964 22.4978 26.4952C23.1166 26.1338 23.7374 25.7761 24.3584 25.4184C24.5496 25.3082 24.7408 25.1979 24.932 25.0876C24.9949 25.0514 25.0578 25.0151 25.1225 24.9777C25.2484 24.9051 25.3742 24.8324 25.5 24.7596C25.7968 24.5879 26.094 24.417 26.3928 24.2489C26.5336 24.1696 26.6742 24.0898 26.8148 24.01C26.9139 23.954 27.0133 23.8987 27.1128 23.8433C27.1729 23.8091 27.233 23.7749 27.295 23.7397C27.3479 23.71 27.4008 23.6803 27.4553 23.6498C27.6996 23.4781 27.8764 23.2547 27.9491 22.9638C27.9645 22.6612 27.9207 22.4422 27.7257 22.2058C27.57 22.0364 27.4149 21.9285 27.185 21.8882C26.8076 21.8783 26.5659 21.9887 26.2462 22.1801ZM1.8749 22.3779C1.8749 24.2341 1.8749 26.0904 1.8749 28.0029C2.80303 28.0029 3.73115 28.0029 4.6874 28.0029C4.6874 26.1466 4.6874 24.2904 4.6874 22.3779C3.75928 22.3779 2.83115 22.3779 1.8749 22.3779Z" fill="#FD5523"/>
</svg>
