<svg width="30" height="30" viewBox="0 0 30 30" fill="none" xmlns="http://www.w3.org/2000/svg">
<g clip-path="url(#clip0_629_18)">
<path d="M7.49933 2.28207C8.02528 2.7297 8.51128 3.22506 9.00011 3.71235C9.05461 3.76661 9.05461 3.76661 9.11022 3.82196C9.30195 4.01282 9.49351 4.20384 9.68493 4.39501C9.881 4.59075 10.0776 4.78594 10.2743 4.98101C10.4273 5.13288 10.5799 5.28515 10.7323 5.43752C10.8046 5.50963 10.8771 5.5816 10.9496 5.65341C11.7649 6.46052 12.3708 7.24012 12.4212 8.43442C12.3539 9.81325 11.3017 10.7371 10.3851 11.6497C10.3043 11.7309 10.3043 11.7309 10.2219 11.8136C10.1697 11.8657 10.1175 11.9179 10.0637 11.9716C10.0171 12.0181 9.9704 12.0647 9.92233 12.1127C9.78449 12.243 9.64124 12.3611 9.49151 12.4774C9.52573 12.772 9.65983 12.9996 9.80279 13.2538C9.82858 13.2998 9.85436 13.3459 9.88093 13.3934C10.2894 14.1083 10.7785 14.7771 11.3079 15.4071C11.3445 15.451 11.3445 15.451 11.3819 15.4959C12.0939 16.3488 12.8445 17.2015 13.6894 17.9255C13.7939 18.015 13.8973 18.1057 14.0003 18.1969C14.7822 18.8857 15.6172 19.5182 16.5228 20.036C16.5565 20.0557 16.5902 20.0754 16.6249 20.0958C16.7283 20.1561 16.8323 20.2152 16.9366 20.274C16.9977 20.3085 17.0588 20.3431 17.1217 20.3786C17.3027 20.4537 17.3416 20.4545 17.5189 20.3875C17.625 20.3056 17.625 20.3056 17.7244 20.1991C17.7636 20.1594 17.8027 20.1197 17.8431 20.0788C17.9058 20.0138 17.9058 20.0138 17.9698 19.9476C18.0136 19.9032 18.0574 19.8587 18.1025 19.8129C18.2897 19.6228 18.4759 19.4317 18.6621 19.2407C18.7984 19.1012 18.9352 18.9623 19.0721 18.8234C19.1337 18.7595 19.1337 18.7595 19.1966 18.6944C19.5826 18.3028 20.0095 17.9606 20.5254 17.7581C20.582 17.7353 20.6386 17.7125 20.6969 17.689C21.4403 17.4346 22.2281 17.5532 22.9241 17.8863C23.1843 18.0407 23.4041 18.2208 23.6229 18.4281C23.6597 18.4627 23.6965 18.4973 23.7344 18.533C24.3361 19.1039 24.9209 19.6927 25.5073 20.2792C25.6838 20.4557 25.8607 20.6318 26.0378 20.8078C26.176 20.9455 26.3141 21.0834 26.452 21.2214C26.5171 21.2864 26.5823 21.3513 26.6476 21.4162C27.4595 22.2229 28.1712 23.0225 28.2012 24.2144C28.1799 25.4793 27.4179 26.325 26.5652 27.1833C26.5131 27.2359 26.461 27.2885 26.4074 27.3427C26.298 27.4529 26.1885 27.5629 26.0789 27.6728C25.9678 27.7841 25.8573 27.8958 25.7472 28.008C24.5683 29.208 24.5683 29.208 23.9056 29.5282C23.8451 29.5574 23.7847 29.5867 23.7224 29.6169C21.9821 30.4208 19.8526 29.9823 18.1048 29.411C18.054 29.3944 18.0031 29.3778 17.9507 29.3607C14.4825 28.2065 11.2226 26.0873 8.55401 23.6102C8.48879 23.5504 8.42356 23.4906 8.35832 23.4308C6.86551 22.0561 6.86551 22.0561 6.27435 21.3012C6.13591 21.1297 5.98743 20.9693 5.83673 20.8087C5.48718 20.4328 5.17355 20.0339 4.86261 19.6258C4.82937 19.5826 4.79612 19.5394 4.76187 19.4949C3.40937 17.7351 2.25183 15.8539 1.34698 13.825C1.31919 13.7642 1.29139 13.7034 1.26276 13.6408C0.280871 11.4342 -0.53337 8.77502 0.306945 6.39828C0.668758 5.51852 1.30597 4.89616 1.96989 4.23838C2.14956 4.05988 2.32621 3.88214 2.48956 3.68832C3.79409 2.15517 5.57414 0.937637 7.49933 2.28207ZM4.68683 4.03988C4.34233 4.36665 4.00627 4.70216 3.66942 5.03678C3.56166 5.14356 3.45359 5.25003 3.34521 5.35618C3.18729 5.51088 3.03037 5.66653 2.87363 5.82242C2.82564 5.86907 2.77766 5.91572 2.72823 5.96379C2.00939 6.68527 1.74116 7.54463 1.74269 8.54708C1.75729 9.4982 1.99549 10.4049 2.28448 11.3055C2.30182 11.3603 2.31915 11.4151 2.33701 11.4715C2.96986 13.437 3.98058 15.2977 5.15558 16.9891C5.18047 17.0251 5.20537 17.061 5.23102 17.0981C5.79417 17.9083 6.39566 18.6949 7.03058 19.45C7.0689 19.4958 7.0689 19.4958 7.108 19.5425C7.91452 20.504 8.76784 21.4679 9.72726 22.2804C9.87288 22.4053 10.0133 22.5354 10.1544 22.6654C10.4713 22.9534 10.7959 23.2279 11.1321 23.493C11.173 23.5255 11.2139 23.5579 11.2561 23.5914C14.185 25.9058 18.2956 28.5648 22.2064 28.2391C22.9913 28.1249 23.6897 27.6477 24.1901 27.0466C24.3903 26.8155 24.6038 26.6006 24.8216 26.3861C24.8569 26.3512 24.8923 26.3163 24.9287 26.2803C25.0765 26.1347 25.2245 25.9891 25.373 25.8442C25.4826 25.7371 25.5916 25.6295 25.7005 25.5218C25.7336 25.4898 25.7666 25.4578 25.8007 25.4249C26.1284 25.0993 26.4034 24.745 26.4434 24.273C26.4217 23.4189 25.3661 22.6573 24.7989 22.0852C24.7647 22.0506 24.7304 22.0161 24.6952 21.9805C24.5146 21.7984 24.3338 21.6164 24.1529 21.4347C24.0046 21.2856 23.8567 21.1361 23.7092 20.9862C23.529 20.8031 23.3482 20.6208 23.1667 20.4389C23.0984 20.3703 23.0304 20.3013 22.9626 20.2321C22.375 19.6031 22.375 19.6031 21.5912 19.3236C21.0115 19.3489 20.6469 19.757 20.268 20.149C20.1652 20.2535 20.0624 20.3579 19.9595 20.4624C19.7993 20.6263 19.6393 20.7903 19.4794 20.9546C19.3241 21.1138 19.168 21.2723 19.0119 21.4308C18.9414 21.5039 18.9414 21.5039 18.8696 21.5784C18.5279 21.9245 18.1601 22.2432 17.6816 22.3719C17.0804 22.3736 16.6276 22.1345 16.1126 21.8524C16.0452 21.8162 16.0452 21.8162 15.9765 21.7792C14.7338 21.1061 13.6004 20.2426 12.5622 19.2857C12.4436 19.1775 12.3233 19.0725 12.2017 18.9678C11.9406 18.7398 11.6951 18.4982 11.4507 18.2525C11.4088 18.2108 11.3668 18.1691 11.3236 18.1261C11.0523 17.8543 10.7963 17.5733 10.5462 17.2821C10.492 17.2207 10.4376 17.1593 10.3832 17.0981C7.60663 13.9385 7.60663 13.9385 7.58539 12.2313C7.66666 11.8029 7.90782 11.5069 8.2171 11.214C8.26412 11.1678 8.26412 11.1678 8.31209 11.1207C8.48203 10.9554 8.6569 10.7974 8.83646 10.6427C9.11795 10.3982 9.38167 10.1371 9.64532 9.87363C9.69336 9.8263 9.7414 9.77898 9.79089 9.73023C10.42 9.12509 10.42 9.12509 10.6634 8.31723C10.5798 7.55155 9.66861 6.90193 9.15208 6.38386C9.11422 6.34583 9.07636 6.3078 9.03734 6.26862C8.83764 6.06805 8.63777 5.86763 8.43776 5.66736C8.23188 5.46116 8.02655 5.25441 7.82133 5.04754C7.66253 4.88765 7.50334 4.72815 7.34404 4.56876C7.26814 4.49268 7.19238 4.41645 7.11677 4.34008C7.01123 4.23353 6.90514 4.12756 6.79891 4.0217C6.76813 3.99038 6.73734 3.95906 6.70563 3.92679C5.99709 3.22614 5.33689 3.43429 4.68683 4.03988Z" fill="#FD5523"/>
<path d="M17.699 0.156762C17.7628 0.172793 17.8266 0.188825 17.8923 0.205342C20.363 0.837119 22.6168 1.96268 24.5508 3.63577C24.6004 3.67776 24.6499 3.71976 24.701 3.76302C25.4293 4.39784 26.1326 5.09337 26.7188 5.86233C26.7645 5.91951 26.8103 5.97668 26.8575 6.03559C27.7853 7.20038 28.509 8.5043 29.0649 9.88315C29.1148 10.0068 29.166 10.1298 29.2175 10.2527C29.6009 11.2097 30.1605 12.6104 30 13.6553C29.8616 13.9375 29.6963 14.1028 29.4141 14.2412C29.0833 14.2941 28.8168 14.2554 28.5352 14.0655C28.3443 13.8586 28.2632 13.6957 28.2047 13.4216C28.1894 13.3531 28.1741 13.2846 28.1583 13.2141C28.1425 13.1409 28.1267 13.0678 28.1104 12.9925C27.6474 10.959 26.8512 9.03095 25.5691 7.37318C25.487 7.26688 25.406 7.15975 25.3251 7.05251C24.997 6.62179 24.6501 6.23655 24.2578 5.86233C24.12 5.72579 23.9833 5.58877 23.8497 5.44805C22.0863 3.61125 19.4706 2.37703 16.9973 1.87681C16.9498 1.86708 16.9024 1.85735 16.8535 1.84733C16.7635 1.82929 16.6732 1.81221 16.5827 1.79631C16.2726 1.73501 16.1044 1.63261 15.8789 1.4092C15.7232 1.14299 15.6743 0.941545 15.7281 0.642907C15.8011 0.39842 15.9248 0.229897 16.1305 0.0822894C16.6019 -0.153543 17.2149 0.0315882 17.699 0.156762Z" fill="#FD5523"/>
<path d="M20.8764 7.30708C21.2666 7.61819 21.6194 7.97137 21.9718 8.32377C22.0076 8.35685 22.0434 8.38993 22.0803 8.42402C23.3845 9.64776 24.5091 11.8225 24.5756 13.6228C24.5672 13.9118 24.5203 14.0846 24.3156 14.3003C24.0934 14.4745 23.8928 14.52 23.6125 14.5347C23.3286 14.4768 23.091 14.3534 22.9093 14.1245C22.825 13.9354 22.7808 13.7398 22.7336 13.5386C22.3269 11.928 21.6561 10.6316 20.507 9.43705C20.4707 9.39641 20.4345 9.35578 20.3971 9.31391C19.378 8.20833 17.8564 7.55028 16.4136 7.23698C16.0482 7.15743 15.7952 7.09798 15.5762 6.78179C15.4587 6.54838 15.4504 6.35517 15.4679 6.09721C15.5788 5.78917 15.7331 5.63616 15.9953 5.45268C17.4834 5.0275 19.7505 6.4468 20.8764 7.30708Z" fill="#FD5523"/>
</g>
<defs>
<clipPath id="clip0_629_18">
<rect width="30" height="30" fill="white"/>
</clipPath>
</defs>
</svg>
