<svg width="30" height="30" viewBox="0 0 30 30" fill="none" xmlns="http://www.w3.org/2000/svg">
<g clip-path="url(#clip0_295_5737)">
<path d="M23.1043 -0.0256571C23.1683 -0.0251709 23.2323 -0.0246846 23.2982 -0.0241837C24.5625 0.00215046 25.596 0.540695 26.4662 1.44651C27.3062 2.42185 27.5489 3.5318 27.5437 4.79182C27.543 5.02266 27.5442 5.25349 27.5451 5.48433C27.5462 5.77687 27.5467 6.06937 27.545 6.36191C27.5437 6.59954 27.5443 6.8371 27.5463 7.07473C27.5467 7.16483 27.5464 7.25493 27.5453 7.34503C27.5266 7.8354 27.5266 7.8354 27.6845 8.28641C27.7866 8.39021 27.8879 8.47266 28.0079 8.55466C28.0487 8.59142 28.0895 8.62817 28.1316 8.66603C28.1655 8.69461 28.1994 8.7232 28.2343 8.75265C28.5055 8.98702 28.7607 9.23595 29.015 9.4885C29.0607 9.53303 29.1065 9.57755 29.1536 9.62343C29.7164 10.1825 30.0172 10.7207 30.0239 11.5254C30.0235 11.5895 30.0232 11.6537 30.0228 11.7198C30.0233 11.8238 30.0233 11.8238 30.0238 11.93C30.0245 12.1213 30.0244 12.3126 30.0239 12.5039C30.0237 12.7108 30.0244 12.9176 30.025 13.1244C30.026 13.5291 30.026 13.9338 30.0257 14.3385C30.0255 14.6675 30.0256 14.9966 30.0259 15.3257C30.0259 15.3726 30.026 15.4195 30.026 15.4678C30.0261 15.5631 30.0262 15.6584 30.0263 15.7537C30.0271 16.6466 30.0268 17.5395 30.0261 18.4324C30.0255 19.2485 30.0263 20.0645 30.0277 20.8806C30.0291 21.7194 30.0297 22.5583 30.0293 23.3971C30.0291 23.8677 30.0292 24.3383 30.0303 24.8089C30.0311 25.2095 30.0311 25.6101 30.0301 26.0107C30.0296 26.2149 30.0295 26.4191 30.0304 26.6233C30.0312 26.8451 30.0305 27.0669 30.0295 27.2887C30.03 27.3526 30.0306 27.4165 30.0312 27.4823C30.0245 28.1775 29.7845 28.7838 29.308 29.2932C28.7827 29.7845 28.1551 30.0185 27.4416 30.0156C27.392 30.0159 27.3423 30.0162 27.2911 30.0164C27.1255 30.0172 26.9599 30.0171 26.7942 30.017C26.6751 30.0174 26.556 30.0178 26.4369 30.0182C26.1139 30.0192 25.7909 30.0195 25.4679 30.0196C25.266 30.0197 25.064 30.0199 24.862 30.0202C24.1569 30.0213 23.4518 30.0218 22.7467 30.0217C22.0903 30.0216 21.4338 30.0229 20.7774 30.0247C20.2131 30.0262 19.6489 30.0269 19.0846 30.0268C18.7479 30.0268 18.4112 30.0271 18.0745 30.0283C17.7577 30.0295 17.4408 30.0295 17.124 30.0286C17.008 30.0285 16.8921 30.0288 16.7761 30.0295C15.8168 30.035 15.1086 29.8917 14.3739 29.2309C13.8255 28.6558 13.6953 27.9192 13.6868 27.1582C13.6851 27.0636 13.6851 27.0636 13.6833 26.9671C13.6798 26.7671 13.6771 26.5671 13.6744 26.3672C13.6722 26.231 13.6699 26.0948 13.6675 25.9586C13.6619 25.6261 13.6569 25.2935 13.6524 24.9609C13.6155 24.9985 13.6155 24.9985 13.5777 25.0368C13.3197 25.2987 13.061 25.5601 12.802 25.821C12.7056 25.9183 12.6093 26.0158 12.5132 26.1134C12.3746 26.2542 12.2354 26.3944 12.096 26.5345C12.0536 26.5778 12.0112 26.6212 11.9674 26.6658C11.6444 26.989 11.3026 27.2725 10.8582 27.4072C10.8169 27.4202 10.7756 27.4332 10.7331 27.4466C9.99777 27.6419 9.31524 27.5385 8.64893 27.1698C8.22709 26.913 7.8959 26.5614 7.55041 26.2134C7.47483 26.1382 7.39921 26.063 7.32354 25.9878C7.11938 25.7847 6.91596 25.5809 6.71271 25.3769C6.49914 25.1627 6.285 24.9491 6.07095 24.7355C5.71163 24.3766 5.3528 24.0172 4.99425 23.6575C4.58078 23.2428 4.16646 22.8289 3.7517 22.4154C3.39457 22.0593 3.03789 21.7028 2.68159 21.3459C2.46926 21.1332 2.25677 20.9206 2.04386 20.7085C1.84359 20.5089 1.64391 20.3088 1.44465 20.1081C1.3718 20.035 1.29875 19.962 1.22549 19.8893C0.583892 19.2518 -0.0132493 18.5889 -0.0273438 17.6373C-0.0267489 17.5912 -0.0261541 17.5451 -0.0255413 17.4975C-0.0250976 17.4489 -0.0246538 17.4004 -0.0241966 17.3503C-0.000375781 16.4605 0.460872 15.9274 1.06703 15.3232C1.11453 15.2754 1.16203 15.2276 1.21098 15.1784C1.36938 15.0191 1.52819 14.8602 1.68701 14.7014C1.80104 14.5869 1.91499 14.4724 2.02894 14.3579C2.33795 14.0476 2.64738 13.7377 2.95691 13.4279C3.15036 13.2342 3.34372 13.0405 3.53705 12.8467C4.07299 12.3097 4.60901 11.7727 5.14543 11.2361C5.1797 11.2018 5.21397 11.1675 5.24927 11.1322C5.31873 11.0627 5.38819 10.9932 5.45765 10.9238C5.49213 10.8893 5.5266 10.8548 5.56212 10.8193C5.59664 10.7847 5.63116 10.7502 5.66672 10.7146C6.22631 10.1548 6.7852 9.59436 7.3438 9.03358C7.91811 8.45703 8.49297 7.88104 9.06839 7.3056C9.39114 6.98282 9.71365 6.65981 10.0356 6.3362C10.3096 6.06075 10.5841 5.78581 10.8593 5.51152C10.9995 5.37169 11.1394 5.23158 11.2789 5.09096C11.4304 4.93824 11.5828 4.78646 11.7354 4.63487C11.7788 4.59068 11.8223 4.54648 11.867 4.50095C12.34 4.03539 12.9102 3.73768 13.5807 3.7354C13.6315 3.73582 13.6823 3.73624 13.7346 3.73667C13.7889 3.73666 13.8433 3.73664 13.8993 3.73662C14.0781 3.7367 14.2569 3.73761 14.4357 3.73853C14.56 3.73875 14.6843 3.73892 14.8086 3.73904C15.1351 3.73948 15.4617 3.74063 15.7882 3.74193C16.1217 3.74313 16.4551 3.74367 16.7886 3.74426C17.4424 3.74551 18.0963 3.74751 18.7501 3.74998C18.7673 3.66583 18.7673 3.66583 18.7848 3.57998C18.8001 3.50627 18.8155 3.43256 18.8313 3.35662C18.8463 3.2836 18.8614 3.21058 18.8769 3.13535C18.9372 2.88226 19.0258 2.66655 19.1493 2.43894C19.1698 2.39952 19.1904 2.3601 19.2116 2.31948C19.3647 2.03234 19.5347 1.77129 19.7462 1.52342C19.771 1.49033 19.7957 1.45725 19.8213 1.42316C20.5879 0.438146 21.8916 -0.0376698 23.1043 -0.0256571ZM20.8595 2.22654C20.5166 2.64257 20.0978 3.18789 20.0978 3.74998C20.1651 3.75053 20.2324 3.75107 20.3017 3.75164C20.5547 3.754 20.8076 3.75786 21.0605 3.76214C21.1694 3.76378 21.2782 3.76503 21.3871 3.76586C22.2282 3.77265 22.9552 3.81367 23.6134 4.39451C23.6549 4.42978 23.6965 4.46505 23.7393 4.5014C24.1073 4.8224 24.45 5.16835 24.792 5.51669C25.019 5.74665 25.2525 5.96345 25.4973 6.17429C25.6469 6.30586 25.785 6.44551 25.9242 6.58811C26.0122 6.67829 26.101 6.76776 26.1915 6.85545C26.2108 6.85545 26.2302 6.85545 26.2501 6.85545C26.253 6.51999 26.2551 6.18455 26.2565 5.84908C26.2571 5.73533 26.2579 5.62157 26.2589 5.50782C26.2695 4.2975 26.2277 3.15139 25.3646 2.20846C24.735 1.59749 23.9937 1.29354 23.1227 1.27073C22.2549 1.2846 21.4791 1.61476 20.8595 2.22654ZM12.5145 5.73706C12.4671 5.7841 12.4197 5.83115 12.3708 5.87962C12.2126 6.0369 12.0553 6.19501 11.8979 6.35312C11.7845 6.46633 11.6709 6.57936 11.5574 6.6924C11.2814 6.96734 11.006 7.24291 10.7309 7.51872C10.5073 7.74289 10.2834 7.96683 10.0593 8.19061C10.0274 8.2225 9.99551 8.25438 9.96262 8.28723C9.89776 8.35201 9.83291 8.41679 9.76805 8.48157C9.16042 9.08853 8.55351 9.69621 7.94685 10.3041C7.4265 10.8255 6.90555 11.3463 6.38414 11.8666C5.77825 12.4713 5.17275 13.0763 4.56785 13.6819C4.50333 13.7465 4.43881 13.8111 4.37429 13.8757C4.32668 13.9233 4.32668 13.9233 4.2781 13.972C4.05458 14.1957 3.8308 14.4191 3.60691 14.6425C3.33404 14.9147 3.06159 15.1873 2.78968 15.4605C2.65099 15.5998 2.51205 15.7388 2.37273 15.8775C2.22165 16.0279 2.07131 16.1791 1.92114 16.3304C1.87706 16.374 1.83297 16.4175 1.78756 16.4624C1.49711 16.7573 1.26436 17.0477 1.26352 17.4829C1.3077 18.1741 1.783 18.5824 2.24731 19.042C2.32227 19.1172 2.39716 19.1926 2.472 19.2679C2.6746 19.4716 2.87811 19.6744 3.08182 19.8769C3.29531 20.0895 3.50806 20.3027 3.72092 20.5159C4.0784 20.8736 4.43648 21.2308 4.79491 21.5876C5.20882 21.9996 5.62178 22.4126 6.03424 22.826C6.43171 23.2244 6.82984 23.6222 7.22827 24.0196C7.39753 24.1885 7.56655 24.3575 7.73539 24.5268C7.93435 24.7262 8.13388 24.9251 8.33387 25.1234C8.40701 25.1962 8.47995 25.2691 8.55267 25.3423C9.10823 25.9233 9.10823 25.9233 9.83835 26.2225C9.91358 26.2216 9.91358 26.2216 9.99033 26.2207C10.0405 26.2213 10.0906 26.2219 10.1423 26.2225C10.6281 26.1337 10.9382 25.8339 11.2725 25.4952C11.3433 25.4249 11.3433 25.4249 11.4155 25.3532C11.5729 25.1966 11.7294 25.0392 11.886 24.8818C11.9988 24.769 12.1118 24.6565 12.2248 24.5439C12.4994 24.2702 12.7733 23.9958 13.047 23.7212C13.3659 23.4013 13.6854 23.082 14.0049 22.7627C14.575 22.1929 15.1445 21.6226 15.7137 21.052C16.2658 20.4985 16.8184 19.9454 17.3716 19.3929C17.9742 18.7909 18.5766 18.1886 19.1786 17.5859C19.2428 17.5216 19.307 17.4573 19.3711 17.393C19.4185 17.3456 19.4185 17.3456 19.4668 17.2972C19.6893 17.0745 19.9119 16.8519 20.1346 16.6295C20.406 16.3584 20.677 16.087 20.9476 15.8152C21.0857 15.6766 21.2239 15.5382 21.3625 15.4C21.5126 15.2502 21.6623 15.0998 21.8117 14.9493C21.8556 14.9058 21.8995 14.8623 21.9446 14.8175C22.4941 14.2613 22.5089 13.7409 22.5086 12.9896C22.5088 12.9178 22.509 12.846 22.5092 12.7721C22.5097 12.5761 22.5099 12.3801 22.5099 12.1841C22.5099 12.0614 22.5101 11.9387 22.5102 11.8159C22.5108 11.3872 22.511 10.9584 22.511 10.5296C22.5109 10.1311 22.5115 9.7325 22.5125 9.33393C22.5132 8.99076 22.5135 8.6476 22.5135 8.30443C22.5135 8.0999 22.5137 7.89537 22.5143 7.69085C22.515 7.46255 22.5147 7.23426 22.5143 7.00596C22.5147 6.93892 22.515 6.87188 22.5153 6.80281C22.5134 6.31635 22.5028 5.81906 22.1865 5.42332C21.8253 5.08177 21.4135 5.00621 20.9318 5.01329C20.8344 5.01697 20.8344 5.01697 20.735 5.02073C20.6341 5.02271 20.6341 5.02271 20.5313 5.02473C20.3671 5.02815 20.2032 5.03295 20.0392 5.03904C19.9315 5.80282 19.9315 5.80282 20.1682 6.48443C20.3348 6.57997 20.3348 6.57997 20.5134 6.65495C20.8591 6.8241 21.0274 7.17395 21.1781 7.51463C21.2748 8.15933 21.2572 8.71865 20.8904 9.27038C20.6037 9.6343 20.2038 9.87505 19.7462 9.96091C19.2466 10.0022 18.8427 9.96432 18.3985 9.72654C18.3606 9.70668 18.3227 9.68681 18.2836 9.66634C17.907 9.43529 17.6759 9.02813 17.5562 8.6096C17.465 8.03457 17.5105 7.50642 17.8529 7.01658C18.1012 6.7107 18.4 6.50313 18.7501 6.3281C18.7501 5.90271 18.7501 5.47732 18.7501 5.03904C18.0706 5.03374 17.3912 5.02944 16.7117 5.0269C16.3961 5.02567 16.0806 5.02402 15.7651 5.02136C15.4604 5.01881 15.1557 5.01741 14.851 5.0168C14.7349 5.01637 14.6189 5.01553 14.5028 5.01426C14.3399 5.01255 14.1769 5.01232 14.014 5.01243C13.9425 5.01117 13.9425 5.01117 13.8696 5.00988C13.2717 5.01416 12.9195 5.32715 12.5145 5.73706ZM23.7892 6.3867C23.7889 6.44506 23.7889 6.44506 23.7887 6.50461C23.7853 7.45396 23.7808 8.40331 23.7753 9.35266C23.7727 9.81177 23.7704 10.2709 23.7689 10.73C23.7675 11.1304 23.7655 11.5309 23.7629 11.9313C23.7615 12.1431 23.7604 12.3548 23.76 12.5666C23.7596 12.8038 23.7578 13.0409 23.7559 13.278C23.756 13.3473 23.7561 13.4165 23.7562 13.4879C23.7462 14.374 23.5243 15.0491 22.8844 15.677C22.7465 15.8081 22.6065 15.9366 22.4655 16.0643C22.3042 16.2105 22.1444 16.3584 21.9844 16.5061C21.8982 16.5856 21.812 16.665 21.7257 16.7444C21.1672 17.2585 20.6188 17.7832 20.0698 18.3074C19.5375 18.8155 19.0026 19.32 18.4573 19.8142C15.8843 21.9676 15.8843 21.9676 14.7247 24.9544C14.6967 25.8068 14.8146 26.6503 15.0001 27.4804C15.0108 27.5327 15.0215 27.585 15.0325 27.6389C15.0887 27.909 15.141 28.0882 15.3297 28.2934C15.3667 28.3356 15.4037 28.3777 15.4418 28.4212C15.778 28.6869 16.1364 28.737 16.5499 28.734C16.6213 28.7346 16.6213 28.7346 16.6941 28.7351C16.8524 28.7361 17.0107 28.7358 17.1691 28.7355C17.2831 28.736 17.3971 28.7365 17.511 28.737C17.8199 28.7383 18.1287 28.7385 18.4375 28.7384C18.6957 28.7384 18.9539 28.7389 19.212 28.7394C19.8213 28.7405 20.4305 28.7407 21.0397 28.7403C21.6674 28.7399 22.2952 28.7412 22.9229 28.7434C23.4626 28.7452 24.0022 28.7459 24.5419 28.7456C24.8639 28.7455 25.1859 28.7458 25.5079 28.7473C25.8108 28.7486 26.1137 28.7485 26.4166 28.7473C26.5275 28.7471 26.6383 28.7474 26.7492 28.7482C27.5732 28.7676 27.5732 28.7676 28.3009 28.4179C28.5654 28.1315 28.7181 27.8934 28.7189 27.496C28.7193 27.4098 28.7193 27.4098 28.7197 27.322C28.7197 27.2587 28.7197 27.1955 28.7197 27.1304C28.7199 27.0633 28.7201 26.9963 28.7203 26.9272C28.7208 26.7407 28.7211 26.5543 28.7213 26.3679C28.7215 26.1669 28.7221 25.966 28.7226 25.765C28.7237 25.2796 28.7243 24.7941 28.7248 24.3087C28.7251 24.0801 28.7254 23.8515 28.7257 23.6229C28.7267 22.8629 28.7276 22.103 28.728 21.343C28.7281 21.1458 28.7282 20.9486 28.7283 20.7514C28.7284 20.7023 28.7284 20.6533 28.7284 20.6028C28.7289 19.8088 28.7304 19.0148 28.7323 18.2207C28.7342 17.4055 28.7353 16.5903 28.7355 15.7751C28.7356 15.3174 28.7361 14.8597 28.7376 14.402C28.7389 14.0122 28.7393 13.6224 28.7388 13.2325C28.7385 13.0337 28.7388 12.8349 28.7398 12.6361C28.7408 12.4203 28.7404 12.2046 28.7396 11.9888C28.7403 11.9262 28.7409 11.8637 28.7416 11.7992C28.7376 11.3394 28.6378 11.0346 28.3445 10.6802C28.2735 10.6104 28.2735 10.6104 28.2011 10.5393C28.1484 10.4871 28.0958 10.435 28.0416 10.3813C27.9869 10.3283 27.9323 10.2754 27.8761 10.2209C27.8224 10.1678 27.7687 10.1147 27.7133 10.0599C27.4458 9.79675 27.1734 9.54302 26.889 9.29832C26.6449 9.08136 26.4201 8.84401 26.1915 8.61097C26.0023 8.41951 25.8115 8.23407 25.6074 8.05845C25.3042 7.79731 25.0277 7.51085 24.7475 7.22555C24.3094 6.75326 24.3094 6.75326 23.7892 6.3867ZM18.8673 7.79295C18.7727 7.98213 18.7746 8.17434 18.8087 8.37888C18.9569 8.58994 19.057 8.65805 19.3031 8.73411C19.5634 8.72954 19.6678 8.66439 19.8634 8.49607C19.9869 8.34029 19.9806 8.26246 19.9769 8.06028C19.9098 7.80517 19.8448 7.71006 19.629 7.55857C19.3069 7.48438 19.0993 7.55385 18.8673 7.79295Z" fill="#FD5523"/>
</g>
<defs>
<clipPath id="clip0_295_5737">
<rect width="30" height="30" fill="white"/>
</clipPath>
</defs>
</svg>
