<svg width="30" height="30" viewBox="0 0 30 30" fill="none" xmlns="http://www.w3.org/2000/svg">
<g clip-path="url(#clip0_629_55)">
<mask id="mask0_629_55" style="mask-type:luminance" maskUnits="userSpaceOnUse" x="0" y="0" width="30" height="30">
<path d="M30 0H0V30H30V0Z" fill="white"/>
</mask>
<g mask="url(#mask0_629_55)">
<path d="M17.3433 0.234233C17.387 0.245827 17.4307 0.257422 17.4758 0.269367C19.1381 0.725343 20.5398 1.58676 21.7964 2.75377C21.853 2.80452 21.853 2.80452 21.9107 2.85631C23.4853 4.33526 24.5832 6.73159 24.677 8.88889C24.6992 10.9897 24.6992 10.9897 24.4918 11.8357C24.4743 11.9088 24.4743 11.9088 24.4565 11.9832C24.1218 13.3441 23.5046 14.5404 22.7214 15.694C22.5295 15.9778 22.3461 16.2669 22.1627 16.5562C22.1279 16.6109 22.0932 16.6657 22.0574 16.7221C21.9863 16.8342 21.9152 16.9464 21.8442 17.0586C21.6724 17.3296 21.5 17.6003 21.3277 17.8709C21.2604 17.9766 21.1931 18.0824 21.1258 18.1881C20.783 18.7269 20.4401 19.2657 20.0972 19.8045C20.1468 19.8108 20.1963 19.8172 20.2473 19.8237C20.7564 19.8921 21.2524 19.9867 21.7525 20.1048C21.79 20.1136 21.8275 20.1225 21.8662 20.1316C23.8721 20.6066 26.6019 21.3187 27.773 23.2029C28.1837 23.9386 28.2894 24.6237 28.1491 25.456C27.8016 26.6429 26.7441 27.3963 25.7177 27.9753C23.8092 29.0058 21.615 29.4547 19.4857 29.7544C19.445 29.7603 19.4044 29.7661 19.3625 29.7721C17.9659 29.9692 16.567 30.0221 15.1583 30.0184C15.0305 30.0181 14.9027 30.018 14.775 30.0179C13.5141 30.016 12.2672 29.9843 11.0152 29.824C10.9089 29.8113 10.9089 29.8113 10.8005 29.7984C8.32715 29.4997 5.44285 28.9516 3.39802 27.4217C3.3152 27.3604 3.3152 27.3604 3.2307 27.2979C2.55682 26.7746 1.99922 26.1081 1.81598 25.2537C1.72584 24.2231 1.94868 23.5043 2.61066 22.7085C4.33837 20.8306 7.31088 20.2088 9.72614 19.8045C9.78415 19.8045 9.84216 19.8045 9.90192 19.8045C9.46537 19.1121 9.02726 18.4207 8.58745 17.7304C8.44972 17.5142 8.31225 17.2978 8.17501 17.0813C8.10734 16.9746 8.03967 16.8679 7.97199 16.7613C7.93848 16.7084 7.90498 16.6555 7.87045 16.601C7.69356 16.3227 7.51449 16.0461 7.33181 15.7716C5.77699 13.4325 4.89145 10.7947 5.43049 7.96129C5.47085 7.76703 5.51662 7.57482 5.56598 7.38267C5.57696 7.33822 5.58793 7.29377 5.59923 7.24798C5.75715 6.6201 5.98737 6.03127 6.26911 5.44908C6.28716 5.41177 6.30521 5.37445 6.32381 5.33601C7.49204 2.96078 9.59443 1.25984 12.072 0.398714C12.2646 0.335946 12.4594 0.283914 12.6558 0.234233C12.7209 0.217126 12.7209 0.217126 12.7873 0.199672C14.2268 -0.163535 15.9101 -0.146885 17.3433 0.234233ZM13.1246 1.99205C13.0532 2.01189 13.0532 2.01189 12.9804 2.03213C10.8549 2.64434 9.13076 4.0172 8.04725 5.95052C7.62016 6.73981 7.37079 7.5582 7.20661 8.43736C7.19631 8.49189 7.18601 8.54642 7.1754 8.6026C7.03707 9.54392 7.06735 10.6849 7.3238 11.6014C7.34317 11.6717 7.34317 11.6717 7.36294 11.7434C7.65907 12.783 8.13401 13.6994 8.7447 14.5869C8.93737 14.8677 9.11912 15.1553 9.30134 15.4429C9.33615 15.4978 9.37096 15.5527 9.40682 15.6092C9.47803 15.7215 9.5492 15.8338 9.62034 15.9461C9.78956 16.2132 9.95925 16.4799 10.129 16.7466C10.1792 16.8257 10.1792 16.8257 10.2305 16.9063C10.4914 17.3162 10.7532 17.7254 11.0152 18.1346C11.4125 18.7549 11.8084 19.3761 12.2036 19.9978C12.3738 20.2654 12.5441 20.533 12.7144 20.8006C12.7828 20.908 12.8511 21.0154 12.9195 21.1229C12.9533 21.176 12.9872 21.2292 13.022 21.284C13.1246 21.4451 13.2271 21.6063 13.3296 21.7674C13.3635 21.8206 13.3974 21.8739 13.4323 21.9288C13.5002 22.0354 13.568 22.142 13.6358 22.2486C13.8147 22.5296 13.9936 22.8106 14.1726 23.0915C14.2099 23.15 14.2472 23.2085 14.2856 23.2687C14.357 23.3808 14.4284 23.4928 14.4998 23.6047C14.5481 23.6806 14.5481 23.6806 14.5974 23.758C14.6256 23.8022 14.6539 23.8465 14.683 23.8921C14.7434 23.9885 14.8008 24.0869 14.8562 24.1863C14.8842 24.2292 14.9122 24.272 14.941 24.3162C14.9796 24.3162 15.0183 24.3162 15.0582 24.3162C15.1434 24.2057 15.1434 24.2057 15.2289 24.0601C15.2633 24.0042 15.2978 23.9483 15.3333 23.8907C15.3892 23.7986 15.3892 23.7986 15.4463 23.7046C15.5265 23.5746 15.6066 23.4446 15.6869 23.3146C15.7179 23.2643 15.7179 23.2643 15.7495 23.213C15.9631 22.8665 16.1822 22.5236 16.4022 22.1812C16.4409 22.1208 16.4797 22.0604 16.5196 21.9982C16.5983 21.8754 16.6771 21.7527 16.7559 21.6299C16.9544 21.3207 17.1525 21.0112 17.3506 20.7017C17.3895 20.641 17.4284 20.5802 17.4685 20.5176C17.8576 19.9096 18.2451 19.3005 18.6324 18.6912C19.1005 17.9548 19.5696 17.219 20.0402 16.4843C20.3348 16.0244 20.6285 15.564 20.9206 15.1025C21.0732 14.8618 21.227 14.6222 21.3863 14.3857C22.3428 12.9613 22.8755 11.4494 22.8731 9.72276C22.8731 9.68321 22.873 9.64367 22.873 9.60292C22.8654 7.54239 22.0426 5.74314 20.6832 4.21861C20.6275 4.1555 20.6275 4.1555 20.5708 4.09112C19.3465 2.78575 17.4443 1.90649 15.6684 1.80416C15.4502 1.79853 15.2325 1.79696 15.0142 1.79796C14.9757 1.7981 14.9372 1.79825 14.8975 1.7984C14.2881 1.80195 13.7134 1.82801 13.1246 1.99205ZM3.88645 24.0464C3.67393 24.3018 3.58735 24.5481 3.60172 24.8774C3.71819 25.4163 4.20439 25.7822 4.64227 26.0676C6.60773 27.3027 9.01648 27.7547 11.2899 28.0223C11.3312 28.0271 11.3725 28.032 11.4151 28.037C12.2626 28.1356 13.1071 28.1922 13.9607 28.1953C14.0373 28.1957 14.1139 28.1961 14.1929 28.1966C14.4386 28.1977 14.6843 28.198 14.93 28.1981C14.9719 28.1981 15.0138 28.1981 15.0569 28.1981C16.3348 28.1985 17.5984 28.1802 18.8668 28.0076C18.9462 27.9971 19.0256 27.9867 19.1051 27.9762C20.1536 27.8359 21.1849 27.6393 22.2066 27.3631C22.2588 27.3491 22.311 27.3352 22.3648 27.3208C23.6721 26.9658 25.1445 26.462 26.0738 25.4295C26.1011 25.3996 26.1283 25.3697 26.1564 25.3389C26.3479 25.1063 26.4107 24.9224 26.3908 24.6204C26.2978 24.1233 25.8741 23.7675 25.4858 23.4826C23.85 22.3655 20.9819 21.2881 18.9839 21.5037C18.866 21.6093 18.866 21.6093 18.7809 21.7591C18.7293 21.8398 18.7293 21.8398 18.6766 21.922C18.6427 21.9773 18.6087 22.0327 18.5738 22.0897C18.5103 22.1877 18.4467 22.2856 18.3831 22.3835C18.3184 22.4857 18.2538 22.5879 18.1893 22.6902C18.1172 22.8041 18.0451 22.9179 17.973 23.0317C17.9366 23.0893 17.9001 23.1469 17.8626 23.2063C17.6901 23.4789 17.5167 23.7511 17.3433 24.0232C17.1339 24.3522 16.9245 24.6813 16.7157 25.0106C16.5154 25.3265 16.3144 25.6418 16.1129 25.9568C16.0745 26.017 16.0745 26.017 16.0354 26.0784C15.9713 26.1786 15.9066 26.2783 15.8419 26.378C15.7918 26.4554 15.7918 26.4554 15.7407 26.5343C15.594 26.7252 15.4617 26.8184 15.2339 26.8943C14.8955 26.9165 14.7124 26.8966 14.4136 26.7186C14.0639 26.3478 13.8131 25.866 13.5507 25.4313C13.3684 25.1294 13.1816 24.8313 12.9891 24.5359C12.7411 24.1555 12.4963 23.7732 12.253 23.3897C11.9731 22.9489 11.6913 22.5093 11.407 22.0713C11.3744 22.0209 11.3417 21.9705 11.3081 21.9186C11.2781 21.8726 11.2482 21.8265 11.2173 21.7791C11.1777 21.7182 11.1777 21.7182 11.1373 21.6561C11.0794 21.5642 11.0794 21.5642 11.0152 21.5037C8.805 21.4089 5.42426 22.4073 3.88645 24.0464Z" fill="#FD5523"/>
<path d="M17.6195 6.11257C17.8345 6.28841 18.0279 6.48148 18.2207 6.68117C18.2639 6.72256 18.3071 6.76395 18.3516 6.8066C19.1099 7.57672 19.4114 8.67561 19.4218 9.72804C19.4103 10.8952 19.0397 11.9673 18.2033 12.7978C18.151 12.8483 18.0987 12.8988 18.0449 12.9507C18.0035 12.9939 17.9621 13.0371 17.9194 13.0817C17.1493 13.84 16.0504 14.1415 14.998 14.1519C13.8309 14.1404 12.7588 13.7698 11.9282 12.9333C11.8778 12.8811 11.8273 12.8288 11.7753 12.775C11.7321 12.7336 11.6889 12.6922 11.6444 12.6495C10.8861 11.8794 10.5846 10.7805 10.5742 9.72804C10.5857 8.56093 10.9563 7.48884 11.7927 6.65828C11.845 6.60783 11.8973 6.55737 11.9511 6.50539C11.9925 6.46218 12.0339 6.41898 12.0766 6.37447C13.4943 4.97839 16.059 4.95079 17.6195 6.11257ZM13.1816 7.85304C13.1443 7.88794 13.107 7.92284 13.0685 7.95879C12.5712 8.47317 12.4002 9.13872 12.3973 9.83435C12.4097 10.509 12.6639 11.0547 13.123 11.5445C13.1753 11.6005 13.1753 11.6005 13.2287 11.6576C13.7431 12.1549 14.4087 12.3259 15.1043 12.3288C15.7789 12.3164 16.3246 12.0621 16.8144 11.6031C16.8704 11.5507 16.8704 11.5507 16.9275 11.4973C17.4248 10.983 17.5958 10.3174 17.5987 9.62174C17.5863 8.94715 17.3321 8.40143 16.873 7.91164C16.8207 7.85567 16.8207 7.85567 16.7673 7.79857C16.2529 7.30126 15.5873 7.13021 14.8917 7.12736C14.2171 7.13977 13.6714 7.39398 13.1816 7.85304Z" fill="#FD5523"/>
</g>
</g>
<defs>
<clipPath id="clip0_629_55">
<rect width="30" height="30" fill="white"/>
</clipPath>
</defs>
</svg>
