<svg width="40" height="40" viewBox="0 0 40 40" fill="none" xmlns="http://www.w3.org/2000/svg">
<path d="M7.20516 14.926C7.30491 14.9794 7.41727 15.0046 7.53026 14.9991C7.64324 14.9936 7.75262 14.9575 7.84672 14.8948C8.03703 14.7679 8.23039 14.6481 8.4268 14.5354L12.1437 22.5H10.625C10.4592 22.5 10.3003 22.5658 10.1831 22.6831C10.0658 22.8003 10 22.9592 10 23.125V34.375C10.0013 35.5349 10.4627 36.647 11.2828 37.4672C12.103 38.2873 13.2151 38.7487 14.375 38.75H26.875C27.7035 38.7491 28.4978 38.4195 29.0837 37.8337C29.6695 37.2478 29.9991 36.4535 30 35.625V23.125C30 22.9592 29.9342 22.8003 29.8169 22.6831C29.6997 22.5658 29.5408 22.5 29.375 22.5H27.7857L31.5698 14.5334C31.7671 14.6473 31.9616 14.7678 32.1533 14.895C32.2474 14.9578 32.3568 14.9938 32.4698 14.9993C32.5828 15.0047 32.6951 14.9794 32.7949 14.926C32.8946 14.8727 32.978 14.7932 33.0362 14.6962C33.0943 14.5991 33.125 14.4881 33.125 14.375C33.125 7.13781 27.2372 1.25 20 1.25C12.7628 1.25 6.875 7.13781 6.875 14.375C6.87501 14.4881 6.90573 14.5991 6.96387 14.6962C7.02202 14.7932 7.10541 14.8726 7.20516 14.926ZM13.6602 13.1178C13.7173 13.127 13.7756 13.1274 13.8329 13.1189C15.5563 13.1407 17.2482 13.5842 18.7606 14.4109L19.3199 14.7159L19.0648 16.5021C18.3784 16.2754 17.651 16.2003 16.9328 16.282C16.2146 16.3637 15.5227 16.6003 14.9048 16.9753C14.2869 17.3504 13.7578 17.8551 13.3538 18.4545C12.9499 19.054 12.6809 19.7339 12.5652 20.4474L9.54461 13.9747C10.8448 13.415 12.2446 13.1236 13.6602 13.1178ZM26.25 22.5H22.5V21.25C22.5006 19.9519 21.9944 18.7049 21.0894 17.7744C21.6588 17.5438 22.2762 17.4565 22.8872 17.5203C23.4982 17.584 24.0843 17.7968 24.5938 18.14C25.1034 18.4832 25.5209 18.9463 25.8097 19.4885C26.0984 20.0308 26.2496 20.6356 26.25 21.25V22.5ZM13.75 22.5V21.25C13.7496 20.6378 13.8991 20.0348 14.1855 19.4938C14.472 18.9528 14.8866 18.4901 15.3932 18.1464C15.8997 17.8026 16.4828 17.5882 17.0913 17.5218C17.6999 17.4554 18.3155 17.5391 18.8842 17.7656L18.2079 22.5H13.75ZM20.0426 18.4967C20.4233 18.8472 20.7273 19.2728 20.9351 19.7467C21.1429 20.2206 21.2501 20.7325 21.25 21.25V22.5H19.4706L20.0426 18.4967ZM11.25 34.375V23.75H12.5V25.625C12.5 25.7908 12.5658 25.9497 12.6831 26.0669C12.8003 26.1842 12.9592 26.25 13.125 26.25C13.2908 26.25 13.4497 26.1842 13.5669 26.0669C13.6842 25.9497 13.75 25.7908 13.75 25.625V23.75H21.25V25.625C21.25 25.7908 21.3158 25.9497 21.4331 26.0669C21.5503 26.1842 21.7092 26.25 21.875 26.25C22.0408 26.25 22.1997 26.1842 22.3169 26.0669C22.4342 25.9497 22.5 25.7908 22.5 25.625V23.75H23.75V35.625C23.7493 36.3015 23.9693 36.9599 24.3767 37.5H14.375C13.5465 37.4991 12.7522 37.1695 12.1663 36.5837C11.5805 35.9978 11.2509 35.2035 11.25 34.375ZM28.75 35.625C28.75 36.1223 28.5525 36.5992 28.2008 36.9508C27.8492 37.3025 27.3723 37.5 26.875 37.5C26.3777 37.5 25.9008 37.3025 25.5492 36.9508C25.1975 36.5992 25 36.1223 25 35.625V23.75H28.75V35.625ZM27.4188 20.3588C27.2807 19.5974 26.9678 18.8783 26.5047 18.2583C26.0416 17.6383 25.4409 17.1342 24.7499 16.7858C24.0589 16.4373 23.2965 16.2539 22.5226 16.2501C21.7488 16.2462 20.9846 16.422 20.2902 16.7636L20.5745 14.7736L21.2394 14.4109C22.7518 13.5843 24.4436 13.1407 26.167 13.1188C26.1945 13.1227 26.2222 13.1248 26.25 13.125C26.2802 13.1247 26.3103 13.1223 26.3401 13.1178C27.7543 13.1236 29.1528 13.4146 30.452 13.9734L27.4188 20.3588ZM31.8215 13.2431C30.2885 12.4289 28.5944 11.9637 26.8605 11.8808C26.7185 8.57953 25.4453 5.4276 23.2545 2.95398C27.875 4.27258 31.3545 8.32531 31.8215 13.2431ZM21.0703 2.54844L21.1346 2.60469C22.4672 3.77086 23.5505 5.19421 24.3195 6.78935C25.0884 8.38449 25.5272 10.1185 25.6095 11.8874C23.8683 11.99 22.1714 12.4771 20.6408 13.3136L20.0002 13.663L19.3595 13.3136C17.829 12.477 16.1321 11.9897 14.3908 11.8869C14.4731 10.1181 14.9119 8.3842 15.6808 6.78916C16.4496 5.19413 17.5328 3.77084 18.8652 2.60469L18.9295 2.54844C19.2822 2.51719 19.6391 2.5 19.9998 2.5C20.3604 2.5 20.7178 2.5168 21.0703 2.54844ZM16.7454 2.95398C14.5545 5.42763 13.2813 8.57963 13.1393 11.8809C11.4055 11.9639 9.71142 12.429 8.17836 13.2431C8.64555 8.32531 12.125 4.2725 16.7456 2.95398H16.7454Z" fill="#FD5523"/>
</svg>
