<svg width="30" height="30" viewBox="0 0 30 30" fill="none" xmlns="http://www.w3.org/2000/svg">
<g clip-path="url(#clip0_295_789)">
<path d="M10.9792 -0.0219323C11.0333 -0.0219005 11.0874 -0.0218686 11.1432 -0.0218358C13.3032 -0.0159995 15.5834 0.446624 17.1858 2.00047C17.7965 2.64736 18.0576 3.39367 18.0538 4.26866C18.0538 4.31957 18.0538 4.37049 18.0538 4.42295C18.0537 4.59034 18.0533 4.75773 18.0528 4.92512C18.0527 5.04154 18.0526 5.15795 18.0526 5.27437C18.0523 5.58011 18.0518 5.88584 18.0511 6.19158C18.0505 6.50383 18.0503 6.81608 18.05 7.12834C18.0493 7.74052 18.0483 8.3527 18.0471 8.96488C18.0984 8.9635 18.0984 8.9635 18.1508 8.96209C18.3091 8.95839 18.4674 8.95614 18.6257 8.9539C18.6795 8.95243 18.7333 8.95095 18.7887 8.94943C19.4174 8.94279 19.9785 9.10306 20.4442 9.53823C20.7952 9.91306 21.0437 10.3779 21.042 10.9005C21.042 10.9462 21.042 10.9919 21.042 11.0391C21.0417 11.0878 21.0414 11.1366 21.0411 11.1869C21.041 11.2373 21.0409 11.2876 21.0409 11.3396C21.0405 11.5002 21.0398 11.6607 21.039 11.8213C21.0387 11.9304 21.0385 12.0394 21.0382 12.1484C21.0376 12.4154 21.0366 12.6823 21.0354 12.9493C21.0966 12.949 21.1578 12.9487 21.2209 12.9485C21.7993 12.9461 22.3778 12.9443 22.9562 12.9432C23.2535 12.9426 23.5508 12.9417 23.8482 12.9404C24.1354 12.9391 24.4226 12.9384 24.7098 12.9381C24.8191 12.9379 24.9284 12.9375 25.0377 12.9369C25.1914 12.936 25.3451 12.9359 25.4988 12.936C25.5435 12.9355 25.5881 12.9351 25.6342 12.9347C26.1535 12.9366 26.6054 13.0153 26.9873 13.3921C27.2897 13.7215 27.489 14.0805 27.6931 14.4764C27.7649 14.6128 27.8369 14.7491 27.9089 14.8854C27.945 14.9537 27.981 15.022 28.0181 15.0924C28.2058 15.4439 28.4033 15.7898 28.6011 16.1358C28.6587 16.2367 28.7154 16.3381 28.7712 16.44C28.8585 16.5913 28.9486 16.7344 29.0452 16.8794C29.562 17.6874 29.6184 18.3589 29.5969 19.301C29.5963 19.4405 29.596 19.58 29.596 19.7195C29.5954 20.0828 29.5911 20.4461 29.5858 20.8094C29.5777 21.3938 29.5744 21.9782 29.5726 22.5627C29.5713 22.7661 29.568 22.9693 29.5645 23.1727C29.5635 23.2968 29.5625 23.421 29.5617 23.5451C29.5601 23.6014 29.5586 23.6577 29.5571 23.7156C29.5569 23.9875 29.5572 24.1002 29.7336 24.3178C29.7829 24.356 29.8322 24.3942 29.883 24.4336C30.0389 24.6505 30.0192 24.8934 30.0199 25.1507C30.0203 25.1975 30.0207 25.2444 30.0211 25.2926C30.0217 25.3915 30.022 25.4905 30.0219 25.5894C30.0222 25.7399 30.0243 25.8903 30.0265 26.0407C30.0269 26.1371 30.0271 26.2335 30.0272 26.3299C30.0281 26.3745 30.0289 26.4191 30.0298 26.465C30.027 26.7899 29.9518 26.9784 29.7658 27.2461C29.4339 27.5089 29.2004 27.5466 28.7853 27.5448C28.7094 27.5446 28.6335 27.5444 28.5553 27.5443C28.4754 27.5438 28.3955 27.5433 28.3157 27.5428C28.2349 27.5425 28.1541 27.5422 28.0733 27.542C27.8757 27.5413 27.6782 27.5403 27.4807 27.5391C27.4699 27.5863 27.4591 27.6335 27.4479 27.6821C27.433 27.7446 27.4182 27.8071 27.4029 27.8714C27.3812 27.964 27.3812 27.964 27.3591 28.0584C27.1323 28.828 26.5231 29.3901 25.8401 29.7657C25.1491 30.0902 24.2485 30.1291 23.5183 29.9048C22.6897 29.5697 22.1176 29.0516 21.7019 28.2583C21.6213 28.0664 21.6213 28.0664 21.5041 27.5977C17.3662 27.5784 13.2283 27.559 8.96507 27.5391C8.94573 27.6745 8.9264 27.8098 8.90648 27.9493C8.56543 28.8313 8.01672 29.419 7.17041 29.8428C6.48216 30.1238 5.53054 30.1228 4.84199 29.8433C4.03201 29.4359 3.42031 28.8856 3.11302 28.0152C3.05618 27.8381 3.0471 27.7328 3.0471 27.5391C2.98033 27.5403 2.91356 27.5416 2.84477 27.5428C2.59536 27.5471 2.34596 27.5498 2.09652 27.552C1.98889 27.5532 1.88125 27.5547 1.77363 27.5568C1.61828 27.5597 1.46297 27.561 1.3076 27.562C1.26003 27.5632 1.21247 27.5644 1.16346 27.5657C0.827022 27.5658 0.574399 27.4929 0.293194 27.3047C0.00970657 27.0067 -0.00994395 26.7553 -0.013737 26.359C-0.01421 26.3121 -0.0146829 26.2652 -0.0151702 26.2169C-0.0159803 26.1176 -0.0166089 26.0183 -0.0170701 25.919C-0.0177445 25.8178 -0.0189418 25.7167 -0.020675 25.6156C-0.0231852 25.4691 -0.0241244 25.3226 -0.0247234 25.1761C-0.0257492 25.1314 -0.0267751 25.0866 -0.027832 25.0405C-0.0265257 24.7143 0.04849 24.5269 0.2346 24.2579C0.484658 24.0467 0.676623 24.0035 0.996319 23.9649C0.996102 23.8963 0.995887 23.8277 0.995664 23.757C0.990584 22.1269 0.986722 20.4968 0.98435 18.8667C0.984057 18.6659 0.983754 18.4651 0.983444 18.2643C0.983382 18.2243 0.983321 18.1843 0.983258 18.1432C0.982239 17.4966 0.980392 16.85 0.978236 16.2034C0.976041 15.5396 0.974759 14.8758 0.974266 14.2119C0.973961 13.8392 0.973244 13.4665 0.971538 13.0938C0.969944 12.7428 0.969457 12.3919 0.969808 12.0409C0.969744 11.9122 0.96928 11.7836 0.96838 11.655C0.967208 11.4789 0.967496 11.3029 0.968134 11.1268C0.967451 11.0763 0.966768 11.0258 0.966065 10.9737C0.97154 10.4116 1.19111 9.89732 1.58226 9.49223C2.11664 9.0399 2.69225 8.93608 3.37669 8.9539C3.43553 8.95469 3.49437 8.95548 3.55499 8.9563C3.69823 8.95835 3.8414 8.96122 3.9846 8.96488C3.98408 8.89818 3.98356 8.83147 3.98302 8.76274C3.97826 8.13178 3.97475 7.50082 3.97246 6.86984C3.97124 6.54551 3.96959 6.22119 3.96692 5.89687C3.96436 5.58343 3.96297 5.27001 3.96236 4.95657C3.96193 4.83744 3.96109 4.71831 3.95982 4.59918C3.9447 3.1238 3.9447 3.1238 4.42039 2.4976C4.46922 2.43166 4.46922 2.43166 4.51904 2.36439C4.55537 2.31892 4.5917 2.27345 4.62913 2.2266C4.67498 2.16875 4.72083 2.11089 4.76806 2.05128C6.23648 0.371217 8.88023 -0.0265931 10.9792 -0.0219323ZM5.56663 2.75395C5.2105 3.17785 5.00513 3.56206 5.02189 4.12289C5.08815 4.71132 5.43029 5.12142 5.8596 5.50785C6.30424 5.85214 6.80019 6.12648 7.32444 6.32817C7.36063 6.34212 7.39682 6.35607 7.43411 6.37045C9.78792 7.26011 12.6327 7.24194 14.9416 6.21098C15.5036 5.95441 15.9733 5.66348 16.4065 5.21488C16.442 5.17855 16.4775 5.14222 16.514 5.10479C16.8383 4.75132 17.0034 4.34882 16.9924 3.86723C16.8911 3.18251 16.4143 2.68838 15.8791 2.2852C14.454 1.32653 12.707 1.02864 11.0195 1.03276C10.9723 1.03277 10.9252 1.03278 10.8765 1.03279C9.03302 1.0376 6.94208 1.42541 5.56663 2.75395ZM16.6885 6.35746C14.7693 7.89437 11.9449 8.16036 9.58595 7.92346C8.00579 7.73663 6.37974 7.26894 5.15647 6.21098C5.1178 6.21098 5.07913 6.21098 5.03929 6.21098C5.0305 6.4985 5.02417 6.78595 5.01998 7.07358C5.01822 7.17109 5.01584 7.2686 5.01277 7.36609C4.99025 8.09985 5.07184 8.59957 5.52658 9.20384C7.05799 10.6846 9.34046 11.0048 11.3824 10.9759C13.0916 10.9418 15.0631 10.518 16.3479 9.31645C16.8072 8.80693 17.0031 8.36592 16.9981 7.68017C16.9981 7.63637 16.998 7.59256 16.9979 7.54743C16.9976 7.40834 16.9968 7.26926 16.9961 7.13017C16.9958 7.03552 16.9955 6.94088 16.9953 6.84624C16.9946 6.61495 16.9936 6.38367 16.9924 6.15238C16.8764 6.15238 16.7712 6.28728 16.6885 6.35746ZM2.20115 10.4041C2.02609 10.6772 2.04291 10.9332 2.04396 11.2466C2.04391 11.3007 2.04386 11.3547 2.04381 11.4105C2.04371 11.5931 2.04403 11.7757 2.04435 11.9582C2.04437 12.0908 2.04436 12.2235 2.04433 12.3561C2.04432 12.712 2.04466 13.0679 2.04507 13.4239C2.04541 13.7575 2.04542 14.0912 2.04546 14.4249C2.04577 15.4015 2.04659 16.3782 2.04734 17.3548C2.04855 19.5361 2.04976 21.7174 2.05101 23.9649C7.9678 23.9649 13.8846 23.9649 19.9807 23.9649C19.9855 21.8089 19.9904 19.653 19.9953 17.4317C19.9975 16.7507 19.9996 16.0698 20.0018 15.3682C20.0026 14.7582 20.0026 14.7582 20.0031 14.1482C20.0033 13.8764 20.0042 13.6045 20.0054 13.3327C20.007 12.9859 20.0075 12.6391 20.0072 12.2923C20.0073 12.165 20.0077 12.0378 20.0086 11.9105C20.0098 11.7385 20.0095 11.5666 20.0089 11.3945C20.0096 11.3448 20.0102 11.2952 20.0109 11.244C20.0076 10.9071 19.9339 10.6533 19.7463 10.3711C19.4373 10.0701 19.1575 10.0061 18.7389 10.0093C18.6883 10.0103 18.6376 10.0112 18.5854 10.0122C18.5078 10.013 18.5078 10.013 18.4285 10.0138C18.3014 10.0152 18.1742 10.0173 18.0471 10.0196C18.0468 10.0951 18.0464 10.1706 18.0461 10.2484C18.0427 10.9622 18.0384 11.6759 18.0333 12.3896C18.0307 12.7565 18.0284 13.1234 18.0268 13.4903C18.0253 13.8448 18.0229 14.1992 18.02 14.5537C18.019 14.6885 18.0183 14.8234 18.0179 14.9582C18.0143 16.1668 17.9242 17.0968 17.0441 17.9989C15.8225 19.2108 14.0961 19.73 12.4221 19.9219C12.3667 19.9284 12.3112 19.9349 12.2541 19.9416C9.86053 20.1716 7.12599 19.8204 5.20797 18.2527C4.61067 17.7316 4.10581 17.0712 4.0293 16.2588C4.00545 15.8197 4.00764 15.3801 4.00749 14.9405C4.00661 14.7983 4.00563 14.6562 4.00455 14.514C4.002 14.1418 4.00082 13.7696 3.99994 13.3974C3.99879 13.0167 3.99633 12.6361 3.99398 12.2555C3.98958 11.5102 3.98658 10.7649 3.9846 10.0196C3.79907 10.0127 3.61358 10.0086 3.42796 10.0049C3.37599 10.003 3.32403 10.001 3.27049 9.99897C2.83181 9.99252 2.50858 10.0809 2.20115 10.4041ZM5.03929 10.1954C5.03345 10.4861 5.02922 10.7768 5.02641 11.0676C5.02524 11.1663 5.02365 11.265 5.02161 11.3637C4.99301 12.1319 4.99301 12.1319 5.27366 12.8321C5.30267 12.881 5.33167 12.93 5.36155 12.9804C6.28628 14.1941 7.97752 14.6792 9.42511 14.8921C11.557 15.172 14.0619 14.9694 15.8791 13.711C16.4384 13.2777 16.854 12.8409 16.9924 12.1289C17.0016 11.9703 17.0063 11.8184 17.0039 11.6602C17.0037 11.6179 17.0035 11.5757 17.0034 11.5322C17.0027 11.399 17.0012 11.266 16.9997 11.1329C16.9991 11.0418 16.9986 10.9508 16.9981 10.8598C16.9969 10.6383 16.9948 10.4168 16.9924 10.1954C16.8039 10.286 16.6547 10.391 16.4907 10.5213C15.3592 11.3493 13.9624 11.6927 12.5979 11.8946C12.5584 11.9007 12.5189 11.9068 12.4782 11.9131C12.01 11.9761 11.535 11.9675 11.0635 11.9678C11.0165 11.9679 10.9696 11.9679 10.9212 11.9679C10.1596 11.9669 9.42052 11.9296 8.6721 11.7774C8.62329 11.7676 8.57448 11.7579 8.52419 11.7479C7.32654 11.4998 6.22731 11.0474 5.23242 10.3339C5.19608 10.3078 5.15973 10.2818 5.12229 10.255C5.0949 10.2353 5.06751 10.2156 5.03929 10.1954ZM21.0354 14.0039C21.0354 17.2911 21.0354 20.5782 21.0354 23.9649C23.491 23.9649 25.9467 23.9649 28.4768 23.9649C28.4768 22.1666 28.4768 20.3684 28.4768 18.5157C27.0736 18.5057 27.0736 18.5057 25.6704 18.4982C25.3975 18.4956 25.3975 18.4956 25.2693 18.494C25.1808 18.4932 25.0922 18.4928 25.0037 18.4927C24.4133 18.4921 23.9232 18.4773 23.4487 18.0872C23.1588 17.731 23.0228 17.4167 23.0155 16.9574C23.0138 16.8589 23.0138 16.8589 23.012 16.7584C23.011 16.6878 23.01 16.6172 23.009 16.5445C23.0078 16.472 23.0066 16.3995 23.0053 16.3248C23.0022 16.1326 22.9992 15.9403 22.9964 15.748C22.9934 15.5517 22.9902 15.3553 22.9869 15.1589C22.9806 14.7739 22.9748 14.3889 22.969 14.0039C22.3309 14.0039 21.6928 14.0039 21.0354 14.0039ZM24.0237 14.0039C24.0207 14.4419 24.0186 14.8799 24.0172 15.3179C24.0166 15.4669 24.0158 15.6159 24.0148 15.7649C24.0134 15.979 24.0127 16.1931 24.0122 16.4072C24.0116 16.4739 24.011 16.5406 24.0104 16.6094C24.0104 16.6715 24.0104 16.7337 24.0104 16.7977C24.0101 16.8524 24.0098 16.907 24.0096 16.9633C24.0247 17.1205 24.0547 17.2121 24.1408 17.3438C24.3486 17.4823 24.4347 17.4753 24.6808 17.4743C24.7559 17.4743 24.831 17.4743 24.9083 17.4743C24.9902 17.4737 25.0722 17.473 25.1541 17.4724C25.2379 17.4722 25.3218 17.472 25.4056 17.4719C25.6261 17.4715 25.8466 17.4703 26.0671 17.469C26.2921 17.4678 26.5172 17.4673 26.7422 17.4667C27.1837 17.4654 27.6252 17.4634 28.0666 17.461C27.7766 16.8715 27.4763 16.2909 27.1548 15.7178C27.1184 15.6525 27.082 15.5871 27.0446 15.5198C26.9367 15.3266 26.8281 15.1339 26.719 14.9414C26.6819 14.8758 26.6448 14.8102 26.6066 14.7427C26.5707 14.6799 26.5347 14.6171 26.4976 14.5523C26.4655 14.4961 26.4335 14.4399 26.4004 14.382C26.2692 14.1762 26.1907 14.0818 25.9573 14.0039C25.81 13.999 25.6644 13.9971 25.5171 13.9982C25.4531 13.9983 25.4531 13.9983 25.3878 13.9985C25.2517 13.9988 25.1156 13.9995 24.9795 14.0003C24.8871 14.0006 24.7948 14.0008 24.7024 14.0011C24.4762 14.0017 24.2499 14.0027 24.0237 14.0039ZM5.03929 14.1797C5.03345 14.4621 5.02922 14.7445 5.02641 15.0269C5.02524 15.1228 5.02365 15.2187 5.02161 15.3145C4.99511 16.0696 4.99511 16.0696 5.27366 16.7579C5.30033 16.7991 5.32701 16.8404 5.35449 16.8829C6.18335 18.1047 7.78586 18.5715 9.15764 18.8386C11.3288 19.2297 13.8799 18.9845 15.7619 17.7539C16.1755 17.4297 16.5922 17.0587 16.8276 16.5821C16.8561 16.5259 16.8561 16.5259 16.8851 16.4685C16.9982 16.1881 16.9993 15.9157 16.9981 15.616C16.998 15.5542 16.998 15.5542 16.9979 15.4911C16.9976 15.3604 16.9968 15.2296 16.9961 15.0989C16.9958 15.0099 16.9955 14.9209 16.9953 14.8319C16.9946 14.6145 16.9936 14.3971 16.9924 14.1797C16.8159 14.297 16.64 14.4147 16.4662 14.5359C14.2482 16.0379 11.277 16.2481 8.70283 15.7904C7.45152 15.5481 6.17935 15.1054 5.20088 14.2658C5.11276 14.1735 5.11276 14.1735 5.03929 14.1797ZM1.05491 25.0196C1.05491 25.503 1.05491 25.9864 1.05491 26.4844C1.71233 26.4844 2.36976 26.4844 3.0471 26.4844C3.12444 26.233 3.20179 25.9817 3.28147 25.7227C3.39522 25.5197 3.50601 25.3294 3.63304 25.1368C3.65237 25.0981 3.67171 25.0594 3.69163 25.0196C2.82151 25.0196 1.9514 25.0196 1.05491 25.0196ZM4.51194 25.6641C4.10676 26.189 3.98481 26.7082 4.04319 27.3633C4.14499 27.8771 4.41098 28.2543 4.80491 28.5938C5.36728 28.9473 5.96266 29.0477 6.61514 28.9094C7.19992 28.7004 7.56512 28.2905 7.84629 27.7508C8.05867 27.2434 8.02318 26.6781 7.82043 26.1745C7.54612 25.6668 7.11947 25.2767 6.57371 25.0928C5.78678 24.8787 5.10386 25.1131 4.51194 25.6641ZM8.32054 25.0196C8.45589 25.2516 8.59124 25.4836 8.73069 25.7227C8.80804 25.9741 8.88538 26.2254 8.96507 26.4844C13.103 26.4844 17.2408 26.4844 21.5041 26.4844C21.6201 26.175 21.7362 25.8657 21.8557 25.5469C22.0241 25.2906 22.0241 25.2906 22.1487 25.1368C22.1487 25.0981 22.1487 25.0594 22.1487 25.0196C17.5854 25.0196 13.0221 25.0196 8.32054 25.0196ZM23.0269 25.6705C22.5726 26.2228 22.4923 26.7079 22.5588 27.4219C22.6795 27.9571 23.0389 28.4131 23.4963 28.711C23.9936 28.9902 24.5649 29.0482 25.1182 28.9046C25.2511 28.8499 25.3671 28.7877 25.4885 28.711C25.5293 28.6861 25.5701 28.6613 25.6121 28.6357C26.1056 28.3026 26.3718 27.8243 26.4846 27.2461C26.5576 26.712 26.3627 26.2127 26.0545 25.7834C25.7224 25.3762 25.2597 25.0742 24.7268 25.0196C24.0715 24.9751 23.4836 25.1916 23.0269 25.6705ZM26.8362 25.0196C26.9522 25.2323 27.0682 25.445 27.1877 25.6641C27.2366 25.7798 27.283 25.8967 27.3232 26.0157C27.3411 26.0676 27.359 26.1196 27.3775 26.1731C27.3922 26.2179 27.4069 26.2626 27.4221 26.3086C27.4414 26.3666 27.4608 26.4247 27.4807 26.4844C27.9641 26.4844 28.4475 26.4844 28.9455 26.4844C28.9455 26.001 28.9455 25.5176 28.9455 25.0196C28.2494 25.0196 27.5533 25.0196 26.8362 25.0196Z" fill="white"/>
<path d="M8.68758 21.2094C10.2525 21.5011 11.8949 21.5053 13.4549 21.1787C13.5067 21.168 13.5586 21.1573 13.612 21.1462C13.6591 21.1361 13.7062 21.1261 13.7547 21.1157C13.9529 21.0828 14.105 21.0948 14.297 21.1524C14.4671 21.305 14.524 21.3947 14.557 21.6211C14.5258 21.8351 14.5033 21.9291 14.3556 22.0899C12.4722 22.8368 9.69152 22.7479 7.78617 22.141C7.66066 22.0828 7.58831 22.0202 7.50014 21.9141C7.46366 21.7356 7.46998 21.5661 7.50014 21.3867C7.8138 20.9685 8.2345 21.1232 8.68758 21.2094Z" fill="white"/>
<path d="M10.4292 1.98028C10.4939 1.97967 10.4939 1.97967 10.56 1.97905C10.6985 1.97804 10.837 1.97767 10.9755 1.97753C11.0227 1.97745 11.0698 1.97738 11.1184 1.97729C11.8212 1.97755 12.497 2.00612 13.1838 2.16796C13.2458 2.18201 13.3078 2.19606 13.3717 2.21053C13.8613 2.33802 13.8613 2.33802 14.0041 2.57812C14.0454 2.86718 14.0492 2.97916 13.8869 3.22265C13.5977 3.41541 13.3707 3.36485 13.0462 3.30161C12.9074 3.27178 12.7689 3.24073 12.6308 3.20823C12.132 3.10267 11.6414 3.09455 11.1336 3.0946C11.0061 3.09448 10.8786 3.09341 10.7511 3.0923C10.2969 3.09052 9.86452 3.11484 9.41571 3.1949C9.10841 3.24896 8.8856 3.2869 8.61344 3.10546C8.45111 2.86197 8.45496 2.74999 8.49625 2.46093C8.668 2.23736 8.82521 2.18336 9.09684 2.12768C9.15998 2.11416 9.22312 2.10064 9.28818 2.08671C9.66999 2.01951 10.0416 1.98276 10.4292 1.98028Z" fill="white"/>
<path d="M6.00937 26.4515C6.10924 26.4505 6.10924 26.4505 6.21113 26.4495C6.70144 26.4539 6.70144 26.4539 6.87247 26.5964C7.03777 26.7987 7.05665 26.9269 7.03109 27.1876C6.92563 27.3458 6.8504 27.4537 6.67953 27.5391C6.46022 27.558 6.24038 27.5581 6.02035 27.5611C5.92915 27.5644 5.92915 27.5644 5.8361 27.5677C5.33172 27.5735 5.33172 27.5735 5.11558 27.4059C4.93318 27.1905 4.93318 27.1905 4.94003 27.0118C4.9398 26.9743 4.93958 26.9368 4.93934 26.8982C5.11274 26.3868 5.55626 26.4419 6.00937 26.4515Z" fill="white"/>
<path d="M24.5253 26.4513C24.6251 26.4503 24.6251 26.4503 24.727 26.4494C25.2156 26.4537 25.2156 26.4537 25.3883 26.5912C25.5307 26.7725 25.547 26.8996 25.547 27.1288C25.3756 27.4594 25.3756 27.4594 25.1368 27.5389C24.9247 27.5539 24.7122 27.5525 24.4996 27.5536C24.4414 27.5548 24.3831 27.556 24.3231 27.5573C23.7833 27.5601 23.7833 27.5601 23.5548 27.3632C23.4623 27.1781 23.4482 26.9761 23.4962 26.7772C23.7461 26.3853 24.1068 26.4425 24.5253 26.4513Z" fill="white"/>
<path d="M16.6994 19.9805C16.8678 20.072 16.8678 20.072 16.9923 20.2149C17.0567 20.4361 17.082 20.5609 16.9804 20.7708C16.7582 21.0814 16.4287 21.287 16.0658 21.3941C15.8504 21.3856 15.7535 21.3449 15.5861 21.211C15.4443 20.9983 15.4372 20.8975 15.468 20.65C15.6578 20.1966 16.2384 19.9414 16.6994 19.9805Z" fill="white"/>
<path d="M5.60562 19.9394C5.9502 20.0429 6.25262 20.3152 6.50376 20.5663C6.54468 20.8128 6.54587 21.0263 6.4122 21.2402C6.20976 21.3648 6.0998 21.3944 5.85922 21.3867C5.5326 21.2417 5.18923 21.0346 4.98032 20.7421C4.93958 20.5758 4.93942 20.4396 4.98032 20.2734C5.14307 20.0293 5.30384 19.9227 5.60562 19.9394Z" fill="white"/>
<path d="M7.08984 3.04676C7.2583 3.13831 7.2583 3.13831 7.38281 3.28113C7.44523 3.4957 7.46843 3.62542 7.38281 3.83411C6.92812 4.41668 6.92812 4.41668 6.73828 4.5116C6.50475 4.53363 6.36762 4.53307 6.15966 4.42005C5.99342 4.22935 5.97228 4.11933 5.97656 3.86707C6.1645 3.40947 6.55259 2.93525 7.08984 3.04676Z" fill="white"/>
</g>
<defs>
<clipPath id="clip0_295_789">
<rect width="30" height="30" fill="white"/>
</clipPath>
</defs>
</svg>
