<svg width="119" height="121" viewBox="0 0 119 121" fill="none" xmlns="http://www.w3.org/2000/svg">
<path d="M63.004 11.4869L62.1582 0.925781L64.2331 1.2972L64.5802 9.49376L68.066 1.98329L70.213 2.36761L70.8194 10.6106L74.0027 3.04596L76.092 3.41996L71.5631 13.019L69.2432 12.6037L68.6278 4.90935L65.3095 11.8996L63.004 11.4869Z" fill="#FD5523"/>
<path d="M80.0269 16.2641C79.4799 15.9833 79.0731 15.6647 78.8063 15.3083C78.544 14.9433 78.4018 14.5686 78.3797 14.1843C78.3708 13.7957 78.4599 13.4191 78.6471 13.0545C78.8522 12.6552 79.1325 12.3548 79.4882 12.1535C79.8526 11.9566 80.2833 11.8761 80.7805 11.912C81.2864 11.9523 81.8518 12.133 82.4769 12.4539L84.1047 13.2897C84.2696 12.9685 84.3621 12.6814 84.3823 12.4285C84.4069 12.1669 84.3548 11.9372 84.226 11.7394C84.0972 11.5416 83.8808 11.3647 83.577 11.2087C83.2471 11.0393 82.9271 10.9682 82.6169 10.9955C82.3199 11.0185 82.0695 11.1642 81.8659 11.4326L80.16 10.5567C80.4441 10.1102 80.8033 9.78454 81.2376 9.57969C81.685 9.37061 82.1748 9.28202 82.7069 9.3139C83.2477 9.35024 83.7873 9.50659 84.3255 9.78296C84.9419 10.0994 85.4223 10.4778 85.7668 10.9179C86.1112 11.358 86.3047 11.8358 86.3472 12.3513C86.3897 12.8668 86.2638 13.411 85.9696 13.984L83.8835 18.0469L82.399 17.2847L82.7185 16.1817C82.5339 16.3063 82.3408 16.4046 82.1392 16.4766C81.9377 16.5487 81.7234 16.5922 81.4962 16.6072C81.2691 16.6222 81.0337 16.6001 80.7899 16.5407C80.5417 16.4901 80.2873 16.3979 80.0269 16.2641ZM81.1389 15.1238C81.3647 15.2397 81.5844 15.3032 81.7981 15.3142C82.025 15.321 82.2392 15.2883 82.4408 15.2163C82.6468 15.1356 82.8313 15.0219 82.9944 14.8752C83.1706 14.7244 83.3274 14.5471 83.4649 14.3434L83.4716 14.3304L82.1303 13.6417C81.8612 13.5036 81.622 13.4246 81.4127 13.4049C81.2165 13.381 81.0482 13.4097 80.9076 13.4912C80.7671 13.5726 80.6567 13.6914 80.5765 13.8477C80.4873 14.0213 80.4529 14.1846 80.473 14.3376C80.4932 14.4906 80.5615 14.6353 80.6779 14.7719C80.7943 14.9084 80.948 15.0257 81.1389 15.1238Z" fill="#FD5523"/>
<path d="M90.5412 22.6624C90.1408 22.335 89.8389 21.9873 89.6355 21.6193C89.4459 21.25 89.3854 20.8538 89.4539 20.4308C89.5286 20.0003 89.7729 19.5319 90.1868 19.0258L92.1698 16.6007L91.1952 15.8038L92.2423 14.5232L93.2168 15.3201L94.6563 13.9066L96.0161 15.0185L94.7467 16.571L96.2539 17.8034L95.2068 19.084L93.6996 17.8516L91.6981 20.2993C91.4881 20.5562 91.3996 20.7801 91.4326 20.971C91.4656 21.1618 91.6181 21.3685 91.8901 21.5908L92.638 22.2024L91.5724 23.5056L90.5412 22.6624Z" fill="#FD5523"/>
<path d="M97.2056 29.4618C96.7458 28.8799 96.4676 28.2602 96.3709 27.6027C96.2743 26.9452 96.352 26.3116 96.6041 25.702C96.8562 25.0923 97.2732 24.5576 97.8551 24.0978C98.4523 23.6258 99.0766 23.3377 99.7281 23.2334C100.387 23.123 101.025 23.1909 101.643 23.4369C102.268 23.6769 102.81 24.0878 103.27 24.6698C103.857 25.4125 104.155 26.1908 104.163 27.0047C104.172 27.8186 103.89 28.5638 103.318 29.2401L102.02 27.5977C102.234 27.317 102.329 27.0052 102.307 26.6621C102.291 26.3267 102.164 26.0097 101.928 25.7111C101.717 25.4431 101.457 25.2563 101.15 25.1509C100.856 25.047 100.531 25.0366 100.174 25.1199C99.8305 25.2047 99.4827 25.3862 99.1305 25.6646C98.8625 25.8763 98.6486 26.1014 98.4886 26.3397C98.3363 26.572 98.232 26.8099 98.1757 27.0534C98.127 27.2909 98.131 27.5241 98.1875 27.753C98.2501 27.9896 98.3601 28.2075 98.5174 28.4066C98.6747 28.6056 98.8513 28.7584 99.0473 28.8647C99.2493 28.9787 99.457 29.0447 99.6702 29.0628C99.8912 29.0748 100.112 29.0311 100.332 28.9318L101.63 30.5742C100.855 30.9628 100.065 31.0579 99.2617 30.8595C98.4718 30.6627 97.7865 30.1968 97.2056 29.4618Z" fill="#FD5523"/>
<path d="M102.482 36.346L112.104 32.0469L112.911 33.8512L109.021 35.5887C109.468 35.6563 109.88 35.8249 110.257 36.0947C110.638 36.3734 110.938 36.7577 111.157 37.2478C111.408 37.8091 111.499 38.3351 111.429 38.8257C111.369 39.3123 111.16 39.7532 110.802 40.1482C110.444 40.5433 109.935 40.8881 109.276 41.1827L105.413 42.9083L104.613 41.1174L108.315 39.4634C108.85 39.2246 109.21 38.9301 109.396 38.5799C109.59 38.2258 109.58 37.8082 109.365 37.3271C109.234 37.033 109.043 36.7976 108.793 36.6207C108.543 36.4438 108.248 36.3458 107.908 36.3266C107.581 36.3124 107.23 36.3889 106.856 36.5561L103.288 38.1503L102.482 36.346Z" fill="#FD5523"/>
<path d="M108.736 58.1386L118.973 54.377L118.979 56.4849L110.76 59.3479L118.995 62.1792L119.001 64.2724L108.743 60.5686L108.736 58.1386Z" fill="#FD5523"/>
<path d="M108.181 68.7407L115.4 70.2638L114.992 72.1974L107.773 70.6743L108.181 68.7407ZM116.182 71.4463C116.255 71.1025 116.416 70.8372 116.665 70.6503C116.921 70.475 117.207 70.4206 117.522 70.4871C117.837 70.5536 118.072 70.7178 118.226 70.9797C118.387 71.2532 118.432 71.5619 118.36 71.9056C118.285 72.2589 118.12 72.5232 117.863 72.6985C117.614 72.8854 117.332 72.9455 117.017 72.8791C116.702 72.8126 116.464 72.6426 116.302 72.3691C116.148 72.1072 116.108 71.7996 116.182 71.4463Z" fill="#FD5523"/>
<path d="M105.241 78.7975C105.513 78.1811 105.908 77.6942 106.428 77.3366C106.944 76.9879 107.531 76.7931 108.189 76.7521C108.846 76.711 109.51 76.838 110.18 77.1328C110.868 77.4355 111.414 77.8413 111.82 78.3501C112.23 78.8718 112.478 79.4451 112.566 80.0701C112.658 80.7078 112.569 81.3349 112.298 81.9512C112.085 82.4335 111.809 82.8185 111.47 83.1061C111.13 83.3937 110.745 83.5764 110.317 83.6542L114.082 85.3112L113.285 87.12L103.639 82.8742L104.346 81.2665L105.359 81.4724C105.231 81.2558 105.127 81.0075 105.048 80.7274C104.964 80.4562 104.935 80.1605 104.958 79.8404C104.982 79.5202 105.076 79.1726 105.241 78.7975ZM106.634 79.922C106.476 80.2793 106.419 80.6273 106.462 80.966C106.51 81.3176 106.648 81.6342 106.876 81.9158C107.103 82.1973 107.409 82.4227 107.794 82.5917C108.178 82.7607 108.55 82.8342 108.912 82.8121C109.274 82.79 109.596 82.6759 109.878 82.4697C110.166 82.2765 110.388 82.0012 110.546 81.6439C110.695 81.3045 110.746 80.959 110.698 80.6074C110.659 80.2597 110.528 79.9407 110.304 79.6502C110.076 79.3686 109.774 79.1452 109.399 78.9801C109.006 78.8072 108.629 78.7317 108.267 78.7538C107.902 78.7849 107.575 78.897 107.287 79.0903C107.005 79.2964 106.787 79.5737 106.634 79.922Z" fill="#FD5523"/>
<path d="M98.7775 90.3325C99.2385 89.7515 99.7702 89.3325 100.373 89.0756C100.977 88.8323 101.601 88.7604 102.244 88.8599C102.889 88.9732 103.506 89.2633 104.095 89.7303C104.699 90.2095 105.133 90.7534 105.398 91.3619C105.67 91.9766 105.76 92.6087 105.668 93.2583C105.578 93.9217 105.299 94.5477 104.832 95.1364C104.377 95.7097 103.854 96.1104 103.262 96.3384C102.67 96.5663 102.066 96.629 101.45 96.5263C100.834 96.4236 100.254 96.157 99.7115 95.7263C99.6351 95.6657 99.5471 95.5959 99.4478 95.5171C99.356 95.4443 99.2665 95.3608 99.1793 95.2667L102.9 90.5765L103.841 91.3225L101.339 94.4761C101.732 94.7504 102.132 94.8501 102.54 94.7753C102.942 94.7081 103.286 94.4949 103.571 94.1356C103.777 93.8756 103.907 93.5863 103.961 93.2675C104.022 92.9549 103.982 92.6365 103.84 92.3124C103.693 91.996 103.431 91.6892 103.057 91.392L102.724 91.1281C102.411 90.8795 102.09 90.7184 101.762 90.6451C101.436 90.5854 101.123 90.6111 100.823 90.722C100.531 90.8391 100.272 91.039 100.048 91.3219C99.8236 91.6047 99.6998 91.8864 99.6765 92.167C99.6472 92.4551 99.6917 92.7209 99.8101 92.9643L98.5545 94.5468C98.2801 94.1547 98.0977 93.7173 98.0074 93.2345C97.917 92.7517 97.9333 92.2601 98.0563 91.7597C98.1792 91.2593 98.4196 90.7836 98.7775 90.3325Z" fill="#FD5523"/>
<path d="M90.4457 98.9992C91.0046 98.5734 91.6068 98.3171 92.2522 98.2303C92.8957 98.1572 93.5239 98.2491 94.1368 98.5061C94.7478 98.7767 95.2809 99.2109 95.7363 99.8087C96.2035 100.422 96.4834 101.055 96.5761 101.708C96.667 102.375 96.5849 103.008 96.3297 103.607C96.0805 104.214 95.6765 104.731 95.1175 105.156C94.5508 105.588 93.9457 105.841 93.3021 105.914C92.6567 106 92.0285 105.909 91.4175 105.638C90.8047 105.381 90.2676 104.95 89.8064 104.344C89.3451 103.739 89.069 103.102 88.9782 102.436C88.8855 101.782 88.9637 101.152 89.2129 100.545C89.468 99.9463 89.8789 99.4309 90.4457 98.9992ZM91.4835 100.362C91.2195 100.563 91.0339 100.802 90.9267 101.08C90.8117 101.364 90.7936 101.678 90.8723 102.023C90.9432 102.374 91.1236 102.74 91.4133 103.12C91.7031 103.5 92.0047 103.768 92.3181 103.921C92.6297 104.089 92.9376 104.155 93.2419 104.119C93.5442 104.098 93.8235 103.989 94.0797 103.794C94.3281 103.605 94.5069 103.364 94.6159 103.073C94.7309 102.789 94.7529 102.472 94.682 102.121C94.6092 101.784 94.428 101.425 94.1382 101.044C93.8484 100.664 93.5478 100.39 93.2362 100.223C92.9168 100.061 92.6089 99.995 92.3124 100.025C92.0082 100.06 91.7319 100.172 91.4835 100.362Z" fill="#FD5523"/>
<path d="M75.5655 113.033L75.8234 115.085L77.0306 113.416L78.0869 114.483L76.4501 115.676L78.4452 115.887L78.0963 117.253L76.1705 116.447L76.998 118.363L75.6116 118.731L75.3924 116.654L74.1211 118.31L73.1581 117.309L74.7912 116.102L72.764 115.884L73.1299 114.468L75.0312 115.296L74.2075 113.394L75.5655 113.033Z" fill="#FD5523"/>
<path d="M55.8718 110.282L56.6885 120.846L54.6146 120.469L54.2901 112.271L50.7836 119.772L48.6377 119.382L48.054 111.137L44.8499 118.693L42.7616 118.313L47.3169 108.727L49.6357 109.148L50.2299 116.844L53.5674 109.863L55.8718 110.282Z" fill="#FD5523"/>
<path d="M38.8601 105.458C39.4062 105.74 39.8122 106.06 40.078 106.417C40.3393 106.783 40.4804 107.158 40.5014 107.542C40.5093 107.931 40.4191 108.307 40.2308 108.671C40.0247 109.07 39.7435 109.37 39.3872 109.57C39.0223 109.766 38.5913 109.845 38.0942 109.808C37.5885 109.766 37.0235 109.584 36.3994 109.261L34.774 108.421C34.6081 108.742 34.5148 109.028 34.4939 109.281C34.4686 109.543 34.52 109.773 34.6483 109.971C34.7766 110.169 34.9924 110.346 35.2958 110.503C35.6252 110.674 35.9451 110.746 36.2553 110.719C36.5524 110.697 36.8032 110.552 37.0075 110.284L38.711 111.165C38.4256 111.611 38.0655 111.935 37.6307 112.139C37.1827 112.347 36.6926 112.434 36.1606 112.401C35.6199 112.363 35.0808 112.205 34.5433 111.927C33.9278 111.609 33.4485 111.229 33.1052 110.788C32.762 110.347 32.5699 109.869 32.5288 109.353C32.4878 108.837 32.6152 108.293 32.911 107.721L35.0084 103.664L36.4908 104.431L36.1682 105.533C36.3532 105.409 36.5466 105.311 36.7483 105.239C36.9501 105.168 37.1645 105.125 37.3917 105.111C37.6188 105.096 37.8542 105.119 38.0978 105.179C38.3459 105.23 38.6 105.323 38.8601 105.458ZM37.7448 106.595C37.5194 106.479 37.2999 106.414 37.0861 106.403C36.8593 106.395 36.645 106.427 36.4432 106.499C36.237 106.579 36.0522 106.692 35.8887 106.838C35.7121 106.989 35.5547 107.166 35.4167 107.369L35.41 107.382L36.7493 108.074C37.018 108.213 37.257 108.293 37.4663 108.313C37.6623 108.338 37.8308 108.309 37.9715 108.228C38.1123 108.147 38.223 108.029 38.3037 107.873C38.3933 107.699 38.4283 107.536 38.4085 107.383C38.3887 107.23 38.3209 107.085 38.2049 106.948C38.0889 106.811 37.9355 106.694 37.7448 106.595Z" fill="#FD5523"/>
<path d="M28.3636 99.0295C28.7631 99.358 29.064 99.7065 29.2663 100.075C29.4549 100.445 29.5144 100.841 29.4447 101.264C29.3688 101.694 29.1232 102.162 28.7079 102.667L26.7182 105.087L27.6906 105.886L26.64 107.164L25.6676 106.364L24.2243 107.774L22.8675 106.658L24.1412 105.109L22.6374 103.873L23.6881 102.595L25.1918 103.832L27.2001 101.389C27.4108 101.133 27.5 100.909 27.4675 100.718C27.435 100.527 27.2831 100.32 27.0117 100.097L26.2655 99.4836L27.3347 98.1834L28.3636 99.0295Z" fill="#FD5523"/>
<path d="M21.7182 92.2106C22.1765 92.7938 22.453 93.4143 22.5478 94.072C22.6426 94.7298 22.5632 95.3631 22.3094 95.9721C22.0556 96.581 21.6371 97.1146 21.0539 97.5728C20.4554 98.0431 19.8303 98.3295 19.1786 98.432C18.5192 98.5405 17.8812 98.4709 17.2646 98.2232C16.6403 97.9815 16.099 97.569 15.6408 96.9858C15.0559 96.2415 14.7602 95.4623 14.7536 94.6484C14.7471 93.8344 15.031 93.0901 15.6054 92.4154L16.8987 94.0614C16.6844 94.3414 16.5879 94.653 16.6093 94.9962C16.6246 95.3316 16.7499 95.649 16.985 95.9482C17.196 96.2168 17.455 96.4043 17.762 96.5106C18.0552 96.6153 18.3805 96.6265 18.7379 96.5443C19.0816 96.4604 19.4299 96.2798 19.7829 96.0025C20.0514 95.7915 20.266 95.567 20.4266 95.3291C20.5795 95.0973 20.6845 94.8597 20.7415 94.6163C20.7908 94.379 20.7875 94.1458 20.7316 93.9166C20.6697 93.6799 20.5604 93.4617 20.4036 93.2622C20.2468 93.0627 20.0706 92.9095 19.8749 92.8026C19.6732 92.688 19.4658 92.6215 19.2525 92.6028C19.0317 92.5902 18.811 92.6332 18.5907 92.7319L17.2974 91.0859C18.0735 90.6995 18.8631 90.6066 19.6661 90.8072C20.4554 91.0062 21.1394 91.474 21.7182 92.2106Z" fill="#FD5523"/>
<path d="M16.4611 85.3119L6.82617 89.584L6.02516 87.7774L9.91929 86.0508C9.47247 85.982 9.06092 85.8122 8.68463 85.5414C8.30438 85.2616 8.00548 84.8764 7.78792 84.3858C7.53872 83.8237 7.44951 83.2975 7.52029 82.8071C7.58215 82.3206 7.7926 81.8804 8.15164 81.4863C8.51068 81.0923 9.02029 80.7489 9.68046 80.4562L13.5478 78.7414L14.3429 80.5346L10.6361 82.1781C10.1008 82.4155 9.73991 82.7089 9.55332 83.0586C9.35781 83.4121 9.36686 83.8298 9.58046 84.3115C9.711 84.6059 9.90103 84.8419 10.1506 85.0195C10.4001 85.1971 10.6948 85.2959 11.0347 85.3161C11.3616 85.3312 11.7125 85.2557 12.0872 85.0896L15.6601 83.5054L16.4611 85.3119Z" fill="#FD5523"/>
<path d="M10.2672 63.5012L0.0205078 67.2344L0.0204238 65.1265L8.24706 62.2863L0.020197 59.4321L0.0201136 57.3389L10.2671 61.0712L10.2672 63.5012Z" fill="#FD5523"/>
<path d="M10.8526 52.9002L3.63813 51.3567L4.05158 49.4242L11.266 50.9678L10.8526 52.9002ZM2.85869 50.172C2.78519 50.5155 2.62374 50.7803 2.37433 50.9665C2.11743 51.1411 1.83152 51.1947 1.5166 51.1273C1.20169 51.0599 0.967508 50.895 0.814068 50.6327C0.653125 50.3587 0.609405 50.05 0.682908 49.7064C0.758452 49.3534 0.924677 49.0895 1.18158 48.915C1.43098 48.7288 1.71314 48.6694 2.02806 48.7368C2.34298 48.8042 2.58091 48.9748 2.74185 49.2488C2.89529 49.5111 2.93424 49.8189 2.85869 50.172Z" fill="#FD5523"/>
<path d="M13.8201 42.8533C13.5471 43.4688 13.1501 43.9547 12.6292 44.3108C12.1123 44.658 11.5248 44.8512 10.8669 44.8904C10.209 44.9295 9.54553 44.8007 8.87646 44.504C8.18955 44.1994 7.64425 43.7921 7.24056 43.2821C6.83191 42.7592 6.58473 42.1852 6.49902 41.5601C6.40834 40.922 6.4995 40.2952 6.77249 39.6797C6.98613 39.1979 7.26327 38.8138 7.6039 38.5271C7.94453 38.2405 8.32934 38.0589 8.75832 37.9822L4.99815 36.3146L5.79932 34.5081L15.4339 38.781L14.7218 40.3868L13.7094 40.178C13.8374 40.3949 13.9407 40.6435 14.0192 40.9239C14.1016 41.1953 14.1306 41.4911 14.1061 41.8111C14.0816 42.1312 13.9862 42.4786 13.8201 42.8533ZM12.431 41.7248C12.5892 41.368 12.6474 41.0201 12.6055 40.6813C12.5587 40.3295 12.4217 40.0126 12.1945 39.7304C11.9674 39.4481 11.662 39.222 11.2784 39.0519C10.8948 38.8817 10.5222 38.8072 10.1606 38.8283C9.79893 38.8494 9.47649 38.9626 9.19326 39.168C8.90508 39.3604 8.68185 39.6351 8.5236 39.9919C8.37326 40.3309 8.32151 40.6762 8.36836 41.028C8.40629 41.3757 8.53684 41.6952 8.76002 41.9863C8.98715 42.2685 9.28805 42.4927 9.66273 42.6589C10.0553 42.833 10.4323 42.9095 10.794 42.8884C11.1596 42.8584 11.4865 42.7471 11.7747 42.5547C12.0579 42.3493 12.2767 42.0727 12.431 41.7248Z" fill="#FD5523"/>
<path d="M20.316 31.3372C19.8534 31.917 19.3205 32.3345 18.7173 32.5898C18.1125 32.8313 17.4885 32.9015 16.8452 32.8002C16.2004 32.6852 15.5843 32.3934 14.9969 31.9247C14.3943 31.4438 13.9615 30.8988 13.6986 30.2895C13.4281 29.6741 13.3396 29.0417 13.4333 28.3923C13.5254 27.7292 13.8058 27.104 14.2745 26.5166C14.7309 25.9445 15.2555 25.5453 15.8481 25.319C16.4406 25.0927 17.0449 25.0317 17.6607 25.1361C18.2766 25.2404 18.8553 25.5087 19.3969 25.9408C19.4732 26.0017 19.5609 26.0717 19.6601 26.1508C19.7516 26.2239 19.8409 26.3076 19.9279 26.402L16.1938 31.0819L15.2555 30.3332L17.7662 27.1866C17.3742 26.9112 16.974 26.8104 16.5656 26.8841C16.1633 26.9501 15.8192 27.1624 15.5331 27.5209C15.3262 27.7803 15.1955 28.0693 15.141 28.3879C15.0789 28.7004 15.1182 29.0189 15.2588 29.3433C15.4055 29.6601 15.6658 29.9677 16.0396 30.2659L16.3714 30.5307C16.6841 30.7802 17.0044 30.9421 17.3322 31.0164C17.6584 31.0769 17.9716 31.0522 18.2717 30.942C18.5642 30.8258 18.823 30.6266 19.0482 30.3444C19.2734 30.0621 19.398 29.7808 19.4221 29.5003C19.4522 29.2122 19.4084 28.9463 19.2907 28.7026L20.5506 27.1236C20.824 27.5165 21.0051 27.9544 21.0941 28.4374C21.1832 28.9204 21.1655 29.412 21.0412 29.912C20.9168 30.4121 20.6751 30.8872 20.316 31.3372Z" fill="#FD5523"/>
<path d="M28.6714 22.6939C28.1113 23.1181 27.5084 23.3727 26.8628 23.4577C26.219 23.5291 25.5911 23.4354 24.979 23.1767C24.3687 22.9044 23.8367 22.4687 23.3831 21.8697C22.9176 21.2551 22.6394 20.6211 22.5485 19.9677C22.4595 19.3006 22.5434 18.6678 22.8002 18.0694C23.051 17.4631 23.4566 16.9479 24.0167 16.5237C24.5846 16.0936 25.1904 15.8428 25.8342 15.7715C26.4798 15.6865 27.1078 15.7801 27.718 16.0525C28.3301 16.3112 28.866 16.7439 29.3256 17.3507C29.7851 17.9575 30.0594 18.5944 30.1484 19.2615C30.2393 19.915 30.1593 20.5448 29.9085 21.151C29.6517 21.7495 29.2393 22.2638 28.6714 22.6939ZM27.6374 21.3286C27.9019 21.1283 28.0882 20.8893 28.1961 20.6116C28.3119 20.328 28.3309 20.0137 28.2532 19.6686C28.1832 19.3176 28.0039 18.9515 27.7152 18.5703C27.4265 18.1891 27.1256 17.9212 26.8126 17.7665C26.5015 17.5982 26.1938 17.5313 25.8894 17.5659C25.587 17.5869 25.3074 17.6945 25.0507 17.889C24.8018 18.0775 24.6224 18.3175 24.5125 18.6088C24.3967 18.8923 24.3738 19.2096 24.4438 19.5606C24.5156 19.8979 24.6959 20.2572 24.9846 20.6384C25.2733 21.0196 25.5732 21.2944 25.8843 21.4627C26.2032 21.6252 26.511 21.692 26.8075 21.6633C27.1118 21.6287 27.3885 21.5171 27.6374 21.3286Z" fill="#FD5523"/>
<path d="M43.5928 8.70112L43.3407 6.64839L42.1288 8.3141L41.0755 7.24393L42.7157 6.05592L40.7212 5.83865L41.0739 4.4745L42.9975 5.28558L42.1754 3.36757L43.5628 3.00281L43.7761 5.08086L45.0521 3.42858L46.0122 4.43241L44.3758 5.63458L46.4023 5.85857L46.0325 7.27263L44.1335 6.43995L44.9519 8.3438L43.5928 8.70112Z" fill="#FD5523"/>
</svg>
