<svg width="60" height="60" viewBox="0 0 60 60" fill="none" xmlns="http://www.w3.org/2000/svg">
<circle cx="30" cy="30" r="30" fill="white"/>
<g clip-path="url(#clip0_1798_122)">
<path fill-rule="evenodd" clip-rule="evenodd" d="M37.6641 19.5245C40.7853 20.2488 41.9792 22.0739 43.4761 24.5859H37.6641V19.5245ZM19.4235 24.7969C20.0346 24.7969 20.4781 25.0919 20.4781 25.7812C20.4781 26.3627 20.0077 26.8343 19.4265 26.8359H13.0547C12.4721 26.8359 12 27.3083 12 27.8906C12 28.4732 12.4721 28.9453 13.0547 28.9453H22.5469C23.1349 28.9453 23.6057 29.4172 23.6057 30C23.6057 30.5826 23.1335 31.0547 22.551 31.0547H13.0547C12.4721 31.0547 12 31.5268 12 32.1094C12 32.6919 12.4721 33.1641 13.0547 33.1641H15.375V36.3281C15.375 36.9107 15.8471 37.3828 16.4297 37.3828H18.5498C18.9277 39.2444 20.5726 40.6172 22.5117 40.6172C24.4508 40.6172 26.0957 39.2444 26.4737 37.3828H37.1826C37.5605 39.2444 39.2054 40.6172 41.1445 40.6172C43.0836 40.6172 44.7285 39.2444 45.1065 37.3828H46.9453C47.5279 37.3828 48 36.9107 48 36.3281V30C48 26.9054 44.736 26.7 44.7329 26.6953H36.6094C36.0268 26.6953 35.5547 26.2232 35.5547 25.6406V19.3125H16.4297C15.8471 19.3125 15.375 19.7846 15.375 20.3672V22.6875H14.1094C13.5268 22.6875 13.0547 23.1596 13.0547 23.7422C13.0547 24.3247 13.5268 24.7969 14.1094 24.7969H19.4235ZM42.5118 35.207C43.2668 35.962 43.2668 37.1867 42.5118 37.9417C41.2972 39.1563 39.2109 38.2922 39.2109 36.5742C39.2109 34.8565 41.2972 33.9924 42.5118 35.207ZM23.879 35.207C24.634 35.962 24.634 37.1867 23.879 37.9417C22.6644 39.1563 20.5781 38.2922 20.5781 36.5742C20.5781 34.8565 22.6644 33.9924 23.879 35.207Z" fill="#FD5523"/>
</g>
<defs>
<clipPath id="clip0_1798_122">
<rect width="36" height="36" fill="white" transform="translate(12 12)"/>
</clipPath>
</defs>
</svg>
