<svg width="145" height="50" viewBox="0 0 145 50" fill="none" xmlns="http://www.w3.org/2000/svg">
<circle cx="25" cy="25" r="25" fill="#FD5523"/>
<g clip-path="url(#clip0_12_47)">
<path fill-rule="evenodd" clip-rule="evenodd" d="M31.3867 16.2704C33.9877 16.874 34.9827 18.3949 36.2301 20.4883H31.3867V16.2704ZM16.1862 20.6641C16.6955 20.6641 17.0651 20.9099 17.0651 21.4844C17.0651 21.9689 16.673 22.3619 16.1887 22.3633H10.8789C10.3934 22.3633 10 22.757 10 23.2422C10 23.7276 10.3934 24.1211 10.8789 24.1211H18.7891C19.2791 24.1211 19.6714 24.5143 19.6714 25C19.6714 25.4855 19.278 25.8789 18.7925 25.8789H10.8789C10.3934 25.8789 10 26.2724 10 26.7578C10 27.2433 10.3934 27.6367 10.8789 27.6367H12.8125V30.2734C12.8125 30.7589 13.2059 31.1523 13.6914 31.1523H15.4581C15.7731 32.7037 17.1439 33.8477 18.7598 33.8477C20.3757 33.8477 21.7464 32.7037 22.0614 31.1523H30.9855C31.3004 32.7037 32.6712 33.8477 34.2871 33.8477C35.903 33.8477 37.2738 32.7037 37.5887 31.1523H39.1211C39.6066 31.1523 40 30.7589 40 30.2734V25C40 22.4212 37.28 22.25 37.2775 22.2461H30.5078C30.0224 22.2461 29.6289 21.8526 29.6289 21.3672V16.0938H13.6914C13.2059 16.0938 12.8125 16.4872 12.8125 16.9727V18.9062H11.7578C11.2724 18.9062 10.8789 19.2997 10.8789 19.7852C10.8789 20.2706 11.2724 20.6641 11.7578 20.6641H16.1862ZM35.4265 29.3391C36.0557 29.9683 36.0557 30.9889 35.4265 31.6181C34.4144 32.6302 32.6758 31.9102 32.6758 30.4785C32.6758 29.0471 34.4144 28.327 35.4265 29.3391ZM19.8991 29.3391C20.5283 29.9683 20.5283 30.9889 19.8991 31.6181C18.887 32.6302 17.1484 31.9102 17.1484 30.4785C17.1484 29.0471 18.887 28.327 19.8991 29.3391Z" fill="white"/>
</g>
<path d="M61.632 34V17.2H65.664L70.728 27.544L75.72 17.2H79.728V34H76.368V22.888L72.024 31.648H69.36L64.992 22.888V34H61.632ZM88.6716 34.288C87.5196 34.288 86.4796 34.024 85.5516 33.496C84.6236 32.952 83.8876 32.2 83.3436 31.24C82.8156 30.28 82.5516 29.192 82.5516 27.976C82.5516 26.728 82.8156 25.624 83.3436 24.664C83.8876 23.704 84.6236 22.96 85.5516 22.432C86.4796 21.888 87.5276 21.616 88.6956 21.616C89.8636 21.616 90.9116 21.888 91.8396 22.432C92.7676 22.96 93.4956 23.704 94.0236 24.664C94.5676 25.608 94.8396 26.704 94.8396 27.952C94.8396 29.2 94.5676 30.304 94.0236 31.264C93.4796 32.208 92.7436 32.952 91.8156 33.496C90.9036 34.024 89.8556 34.288 88.6716 34.288ZM88.6716 31.384C89.1996 31.384 89.6636 31.256 90.0636 31C90.4636 30.744 90.7836 30.36 91.0236 29.848C91.2796 29.336 91.4076 28.704 91.4076 27.952C91.4076 27.2 91.2876 26.568 91.0476 26.056C90.8076 25.544 90.4796 25.16 90.0636 24.904C89.6636 24.648 89.2076 24.52 88.6956 24.52C88.1996 24.52 87.7436 24.648 87.3276 24.904C86.9116 25.16 86.5836 25.544 86.3436 26.056C86.1036 26.568 85.9836 27.2 85.9836 27.952C85.9836 28.704 86.1036 29.336 86.3436 29.848C86.5836 30.36 86.9036 30.744 87.3036 31C87.7196 31.256 88.1756 31.384 88.6716 31.384ZM100.26 34L95.8684 21.904H99.3964L102.324 30.832L105.276 21.904H108.756L104.364 34H100.26ZM116.002 34.288C114.786 34.288 113.706 34.032 112.762 33.52C111.834 32.992 111.106 32.264 110.578 31.336C110.05 30.392 109.786 29.304 109.786 28.072C109.786 26.824 110.042 25.72 110.554 24.76C111.082 23.784 111.81 23.016 112.738 22.456C113.682 21.896 114.778 21.616 116.026 21.616C117.226 21.616 118.274 21.88 119.17 22.408C120.082 22.936 120.786 23.648 121.282 24.544C121.794 25.44 122.05 26.472 122.05 27.64C122.05 27.8 122.042 27.976 122.026 28.168C122.026 28.36 122.01 28.568 121.978 28.792H112.186V26.752H118.642C118.594 26.016 118.322 25.432 117.826 25C117.346 24.552 116.746 24.328 116.026 24.328C115.482 24.328 114.986 24.456 114.538 24.712C114.09 24.968 113.738 25.344 113.482 25.84C113.226 26.336 113.098 26.968 113.098 27.736V28.432C113.098 29.056 113.218 29.608 113.458 30.088C113.698 30.552 114.034 30.912 114.466 31.168C114.898 31.424 115.402 31.552 115.978 31.552C116.554 31.552 117.026 31.432 117.394 31.192C117.778 30.952 118.066 30.64 118.258 30.256H121.69C121.466 31.008 121.082 31.688 120.538 32.296C120.01 32.904 119.362 33.392 118.594 33.76C117.826 34.112 116.962 34.288 116.002 34.288ZM124.773 34V21.904H128.133V34H124.773ZM126.453 20.344C125.845 20.344 125.349 20.168 124.965 19.816C124.581 19.448 124.389 19 124.389 18.472C124.389 17.928 124.581 17.48 124.965 17.128C125.349 16.776 125.845 16.6 126.453 16.6C127.061 16.6 127.557 16.776 127.941 17.128C128.325 17.48 128.517 17.928 128.517 18.472C128.517 19 128.325 19.448 127.941 19.816C127.557 20.168 127.061 20.344 126.453 20.344ZM131.357 34V21.904H134.309L134.549 23.872C134.917 23.2 135.437 22.656 136.109 22.24C136.797 21.824 137.621 21.616 138.581 21.616C139.573 21.616 140.413 21.832 141.101 22.264C141.789 22.68 142.309 23.288 142.661 24.088C143.029 24.888 143.213 25.872 143.213 27.04V34H139.877V27.352C139.877 26.424 139.677 25.712 139.277 25.216C138.893 24.704 138.277 24.448 137.429 24.448C136.917 24.448 136.453 24.576 136.037 24.832C135.621 25.072 135.293 25.424 135.053 25.888C134.829 26.336 134.717 26.888 134.717 27.544V34H131.357Z" fill="#F4F5F9"/>
<defs>
<clipPath id="clip0_12_47">
<rect width="30" height="30" fill="white" transform="translate(10 10)"/>
</clipPath>
</defs>
</svg>
