<?xml version="1.0" encoding="UTF-8"?>
<svg id="Layer_1" xmlns="http://www.w3.org/2000/svg" version="1.1" viewBox="0 350 1080 350">

  <defs>
    <style>
      .st0 {
        fill: #3a3a39;
      }

      .st1 {
        fill: #df2128;
      }
    </style>
  </defs>
  <path class="st1" d="M316.26,569.74c-2.06,15.24-19.3,46.84-28.79,59.38-79.42,104.92-245.08,69.1-270.78-59.78-29.8-149.41,158.31-242.82,261.56-129.75,4.05,4.43,9.35,11.26,11.44,16.81h-30.43c-65.85-72.05-187.63-45.38-214.64,49.24-37.13,130.04,133.15,217.76,217.62,113.7,11.45-14.1,28.31-45.98,28.31-64.13v-14.97l-121.33.07c-3.02-3.43-7.49-.29-11.91-.04-8.1.45-16.36-.39-24.46-.04.4,3.35-.73,6.5-.89,9.8-.5,10.24,2.43,22.66.84,32.49-.6,3.73-8.26,9.24-9.36,12.91-.36,1.2.09,1.52,1.26,1.26,13.53-13.79,26.25-27.94,39-42.35,8.84.05,17.85-2.48,26.58-.42v31.65l3.03-.85,29.34-30.57c2.75-1.22,21.86-1.83,24.51-.96.72.24,1.07.55,1.29,1.28.1.32.97,6.39.97,6.73v62.45c0,.09-1.19,1.28-1.29,1.28h-23.14c-.09,0-1.29-1.19-1.29-1.28v-31.22l-3.04.81-28.08,30.55-1.87,1.14h-24c-.09,0-1.29-1.19-1.29-1.28v-31.22c-1.34-.23-1.98.13-3.04.81-5.77,3.72-16.29,17.92-21.79,23.59-1.37,1.41-7.8,8.1-9.02,8.1h-24.43v-84.69h-41.14v-25.66h39.85c.09,0,1.29-1.19,1.29-1.28v-68.86c6.15-.69,12.25-.98,18.46-.89,11.34.16,31.24-.21,41.54,2.16,31.48,7.25,45.85,44.6,28.97,71.72l-15.27,16.83c4.15-.69,9.03-4.38,12-7.26s6.81-10.08,8.93-11.62c2.34-1.7,21.92-.62,26.66-.76,2.26-.06,4.34-.88,6.78-.93,27.06-.58,54.06.61,81.03.9v55.18ZM155.57,469.22c-6.36-.67-14.78,0-21.43,0-.09,0-1.29,1.19-1.29,1.28v42.77c0,.09,1.19,1.28,1.29,1.28h19.71c1.28,0,7.6-1.44,9.17-1.97,21.39-7.25,18.52-40.63-7.45-43.37Z"/>
  <path class="st1" d="M477.39,515.42l8.15,44.49c2.39-.05,3.78-8.79,4.31-11.1,2.48-11.02,3.93-22.37,6.4-33.39h24.85v76.99h-16.28l.44-50.49-1.97.63-10.01,49.04c-.93,1.32-12.85,1.17-13.42.32-.4-.6-.76-2.91-1.04-3.93-3.83-14.15-5.13-30.09-9.08-43.97-.37-1.3-.2-2.98-2.2-2.94-.22,13.75-.06,27.72.39,41.53.05,1.63,2.24,9.8-.39,9.8h-14.57c-.09,0-1.29-1.19-1.29-1.28v-75.71h25.71Z"/>
  <path class="st1" d="M573.89,518.36c3.96,3.06,6.7,9.66,7.2,14.6,1.03,10.16.93,30.81.04,41.08-.76,8.79-4.22,15.99-12.88,18.79-15.08,4.88-33.83.76-35.91-17.2-1.16-10.06-1.06-32.5-.13-42.72,1.81-19.88,27.58-25.44,41.68-14.56ZM552.17,579.35c3.65,3.42,9.98,1.15,10.87-4.54,1.17-7.52.94-33.09.05-41.01-.28-2.55-.91-5.83-3.88-6.4-5.75-1.1-8.23.99-8.9,6.48-1.06,8.65-1.06,31.44-.1,40.15.15,1.32,1.08,4.5,1.96,5.32Z"/>
  <path class="st1" d="M777.79,566.74c3.18.98-2.04,12.65,7.07,14.38,6.36,1.21,8.87-5.07,7.89-10.48-1.12-6.15-15.51-11.8-20.54-16.29-7.42-6.61-9.68-13.93-8.34-23.74,2.1-15.34,15.22-17.47,28.49-16.05,10.96,1.17,17.57,13.75,16.71,23.96h-16.28c2.05-19.36-21.15-9.78-9.46,2.17,6.34,6.48,19.23,8.44,23.8,18.16,3.06,6.51,2.71,18.42-.2,25.01-6.81,15.42-37.44,14-43.33-1.24-.86-2.22-3.31-15.87-.39-15.87,3.11,0,12.5-.64,14.57,0Z"/>
  <path class="st1" d="M605.95,515.42l10.28,50.47,8.58-50.47h18l-16.45,75.55-.64,1.07c-3.2.29-19.91,1.22-21.08-.44l-15.82-76.17h17.14Z"/>
  <path class="st1" d="M668.51,530.82v13.69h19.28c.46,0,1.91,1.32,3,.86v14.54h-21c-.09,0-1.29,1.19-1.29,1.28v15.83h24v15.4h-41.14v-76.99h39c.09,0,1.29,1.19,1.29,1.28v12.83c0,.09-1.19,1.28-1.29,1.28h-21.85Z"/>
  <path class="st1" d="M396.4,592.41c-.96-.27-2.23-3.36-4.26-3.4-1.57-.03-5.55,2.76-7.69,3.45-31.77,10.19-42.33-29.57-17.68-45.04-1.99-5.29-6.09-11.09-5.96-16.99.35-16.09,26.33-21.81,35.54-8.96,7.04,9.82,1.04,23.25-8.97,27.77,10.07,23.46,8.32,2.97,9.46,2.97h12.86c.24,5.39-1.2,11.3-2.81,16.45-.74,2.39-3.45,5.71-3.22,7.9.28,2.68,9.03,11.89,9.46,15.86-4.41-.8-12.92,1.08-16.71,0ZM383.77,526.74c-1.56-1.56-6.79-1.7-7.94.65-1.6,3.27.62,13.73,4.71,11.55,3.56-1.9,6.19-9.25,3.23-12.2ZM370.72,576.53c3.53,5.09,13.56,5.34,14.91.78.4-1.33-10.35-17.97-11.6-18.23-2.8-.59-5.15,7.89-5.29,10.07-.21,3.22.4,5.09,1.99,7.38Z"/>
  <path class="st1" d="M753.36,592.41h-17.57c-4.88,0,1.25-25.46-5.62-29.47-1.69-.98-9.38-2.33-9.38-.04v29.51h-16.71c-.09,0-1.29-1.19-1.29-1.28v-75.71h32.14c2.29,0,9.76,2.92,11.61,4.66,5.51,5.2,6.49,18.75,4.02,25.48-1.48,4.04-5,5.11-6.63,8.75,13.22,7.54,5.02,25.66,9.43,38.09ZM720.79,529.53c-1.21,3.88.9,13.76,0,18.39,11.81,1.97,14.98-3.54,12.43-14.57-1.3-5.64-11.62-6.43-12.43-3.82Z"/>
  <path class="st1" d="M867.35,411.05v26.95c0,.16,1.38,1.52,1.7,1.28l13.29-28.23h16.71c-3.64,11.93-11.76,22.52-15.42,34.58l17.13,42.41h-18.43c-2.97-3.31-7.65-22.89-9.81-24.43-.61-.44-2.13-.64-2.58-.35-.26.17-2.61,5.23-2.61,5.53v19.25h-16.71c-.09,0-1.29-1.19-1.29-1.28v-74.42c0-.09,1.19-1.28,1.29-1.28h16.71Z"/>
  <path class="st1" d="M821.07,437.57c-.13-2.9.32-5.89-.2-8.78-1.44-8.06-11.86-8.93-12.71-.25-1.36,13.89.98,30.21.22,44.37,2.55,5.81,12.69,2.73,12.69-2.4v-12.4h18v14.97c0,.39-2.52,6.51-3.03,7.24-1.96,2.85-7.77,6.7-11.07,7.77-15.18,4.96-33.15.39-34.79-17.55-.94-10.28-1.08-33.49.13-43.57,1.14-9.55,8.07-16.38,17.57-17.54,11.29-1.37,26.69.52,30.13,13.37.53,1.99,2.21,14.77-.22,14.77h-16.71Z"/>
  <path class="st1" d="M1049.9,434.15c.92-20.52-22.56-8.77-8.49,2.92,8.97,7.45,22.52,9.29,24.55,23.4,1.71,11.82-.55,24.26-13.02,28.48-17.84,6.03-37.67-4.46-33.93-25.14.49-2.17,15.99-1.76,17.08-.48,1.19,1.39-2.49,11.96,5.01,13.45,6.81,1.35,10.12-5.14,8.4-11.01-1.92-6.51-17.98-12.08-23.58-19.23-8.95-11.44-7.17-31.99,8.38-36.08,18-4.74,32.2,4.89,31.89,23.7h-16.28Z"/>
  <path class="st1" d="M697.65,458.1v29.94h-18v-76.99h30.43c1.21,0,6.62,1.57,8.05,2.23,13.87,6.35,13.94,34.61.67,41.56-6.83,3.58-13.78,2.2-21.15,3.27ZM697.65,424.74c-.84,1.32.63,15.85,0,18.82,10.69,1.88,14.46-3.86,12.65-13.92-1.09-6.01-11.25-7.1-12.65-4.9Z"/>
  <path class="st1" d="M925.63,426.45v13.69h21c.09,0,1.29,1.19,1.29,1.28v14.11h-21c-.09,0-1.29,1.19-1.29,1.28v15.83h24v15.4h-41.14v-76.99h39c.09,0,1.29,1.19,1.29,1.28v12.83c0,.09-1.19,1.28-1.29,1.28h-21.85Z"/>
  <path class="st1" d="M992.05,411.05c14.32,1.57,18.77,14.59,16.32,27.41-1.13,5.93-4.23,7.27-7.32,11.48,13.91,7.92,3.64,26.13,10.28,38.1h-18.43c-3.43,0-1.79-18.71-2.14-21.82-.91-8.18-5.1-9.8-12.86-8.98v30.8h-16.71c-.09,0-1.29-1.19-1.29-1.28v-74.42c0-.09,1.19-1.28,1.29-1.28,9.45,0,21.84-.99,30.85,0ZM977.91,443.56c6.04-.29,11.66,2.02,12.77-5.64,1.65-11.34-1.44-14.39-12.77-14.03v19.68Z"/>
  <path class="st1" d="M551.53,411.05l12.86,38.5c1.91.75,1.22-1.98,1.28-2.99.62-11.88-1.1-23.66-.86-35.51h16.28v76.99h-18l-12.87-39.35c-1.59.4-1.59,1.35-1.53,2.73.54,12.2,2.3,24.35,1.54,36.62h-15c-.09,0-1.29-1.19-1.29-1.28v-74.42c0-.09,1.19-1.28,1.29-1.28h16.28Z"/>
  <path class="st1" d="M461.96,488.04h-17.57c-3.35,0-1.85-17.91-2.15-20.95-.86-8.66-4.19-10.74-12.85-9.85v29.51c0,.09-1.19,1.28-1.29,1.28h-15.43c-.09,0-1.29-1.19-1.29-1.28v-75.71h32.14c.29,0,4.99,1.06,5.59,1.26,10.98,3.75,13.25,18.93,9.83,28.67-1.45,4.12-4.62,5.41-6.42,8.96,13.09,8,4.68,25.74,9.43,38.09ZM429.4,423.89v19.68c7.55-.06,12.16,1.8,12.9-7.22.88-10.83-2.48-12.6-12.9-12.45Z"/>
  <path class="st1" d="M592.24,488.04v-76.99h29.57c.57,0,5.67,1.52,6.67,1.9,5.06,1.94,9.4,6.3,10.52,11.74,1.63,7.91,1.29,38.75.42,47.57-.59,6.01-4.81,11.27-10.33,13.64-1.07.46-6.57,2.14-7.29,2.14h-29.57ZM609.38,424.74v49.62c10.83.71,12.23-1.44,12.89-11.51.41-6.3.8-30.11-1.32-34.69-2.05-4.45-7.32-3.29-11.58-3.41Z"/>
  <path class="st1" d="M389.11,488.04c-.22-.22.13-3.64,0-4.7-3.59-.81-3.95,3.39-8.6,5.1-14.09,5.21-26.18-3.4-27.43-17.91-.77-8.92-1.26-36.26.23-44.31,1.51-8.16,9.14-15.15,17.36-16.03,20.72-2.23,32.28,5.59,30.43,27.38h-18c0-6.83,1.75-15.3-8.09-13.64-4.54.77-4.53,4.94-4.8,8.9-.56,8.48-1.14,29.77.24,37.47.84,4.7,4.86,6.94,9.47,5.58s5.41-15.06,2.64-15.95c-1.24-.4-5.45.15-5.45-.12v-12.4c0-.09,1.19-1.28,1.29-1.28h22.71v41.92c-1.82-.31-11.58.42-12,0Z"/>
  <path class="st1" d="M524.53,488.04h-18c-.75-2.73-1.59-13.81-3.4-15-1.04-.69-11.94-.72-12.94-.02-2.05,1.43-1.6,15.02-3.81,15.02h-16.71c4.45-25.73,10.69-51.37,17.11-76.6,3.26-.31,19.77-1.27,21.05.44l16.69,76.16ZM491.98,458.92c2.18.76,9.25,2.14,10.15-.51l-4.18-31.96-5.97,32.46Z"/>
  <path class="st1" d="M728.51,488.04l16.68-76.17c1.36-1.93,17.93-.22,21.37-.87l16.81,77.04h-16.71c-2.73-2.45-1.94-12.48-3.38-14.59-.89-1.31-13.83-1.27-14.68,0-.94,1.39-.85,14.6-3.37,14.6h-16.71ZM761.94,459.82c-1.06-8.7-2.02-18.12-3.69-26.69-.36-1.86-.27-4.99-2.3-5.82l-4.3,32.51h10.29Z"/>
  <path class="st0" d="M366.83,654.85l1.92-1.1,12.21-26.28,4.72-.84c-2.02,10.48-2.37,22.74-5.18,32.9-.53,1.92-1.45,3.08-3.4,1.74-1.14-2.15,4.25-21.75,2.15-21.82l-10.28,21.39c-1.19,1.45-3.99,1.33-4.58-.56-1.63-5.28-.59-14.1-2.61-19.63-.44-1.2.25-1.45-1.81-1.19-.3,2.8-2.66,21.43-3.53,22.13-.3.25-3.21.21-3.33.1-1.26-1.19,5.31-29.97,5.56-34.22,1.54-1.52,3.5-1.37,4.54.61,2.61,4.94,1.91,20.5,3.61,26.76Z"/>
  <path class="st0" d="M660.8,626.63l2.69,21.7,2.02,6.54c3.03-3.73,11.17-27.14,13.86-28.09,1.11-.39,2.53-.09,3.71-.14l-5.16,35.06c-.82-.1-3.19.22-3.4.02-1.43-1.36,3.24-18.94,2.56-22.24l-10.7,21.38c-.72.95-2.31,1.13-3.35.9-1.74-.38-2.98-20.94-4.37-24.01-1.72-.06-3.74,22.99-4.81,23.86-.53.43-2.4-.05-3.33.1l5.3-33.62c.69-2.06,3.14-1.42,4.97-1.45Z"/>
  <path class="st0" d="M492.82,661.7l5.94-34.7c8.49-1.41,20.63-.81,17.87,11-.53,2.28-3.27,3.75-3.26,5.3,0,2.18,3.78,4.23,2.39,10.94-.65,3.15-4.8,7.46-7.94,7.46h-15ZM501.43,630.95c-.32,7.29-5.43,12.51,5.45,10.99,3.57-.5,6.54-2.37,6.55-6.33.01-6.93-7.26-4.34-12-4.66ZM497.11,657.42c5.65-.5,13.5,2.46,15.09-5.09.75-3.58-.58-6.21-4.43-6.83-11.35-1.8-8.85,3.13-10.66,11.92Z"/>
  <path class="st0" d="M899.84,626.72c.99.68,6.41,19.62,7.73,22.64.49,1.13.68,2.05,2.2,2.08s3.55-23.68,4.82-24.72c.52-.42,2.4.05,3.33-.1-.6,4.26-4.69,34.4-6.51,35.01-1.08.36-2.62.25-3.35-.78-3.06-7.25-4.86-15.79-7.9-22.91-.45-1.05-.47-2.52-1.94-2.76-1.28,3.31-3.36,25.56-4.35,26.46-.38.34-2.48-.09-3.37.06l5.31-33.62c.21-1.52,3.12-1.99,4.03-1.36Z"/>
  <path class="st0" d="M601.7,639.43c1.15.79,3.37-2.47,5.06-3.02,3.2-1.04,6.3-.49,7.38,3,.52,1.66-2.27,21.47-3.1,22.22-.16.15-3.25.17-3.37.05-.81-.78,4.05-19.13,2.57-22.24-11.63-1.78-8.3,17.45-11.6,21.36-.78.92-2.53,1.33-2.96.88-1.09-1.11,2.79-15.29,2.64-18.39-.17-3.63-1.23-5.14-4.84-3.03-5.75,3.36-4.81,14.53-6.54,19.99-.54,1.72-1.79,1.56-3.26,1.44-.03-1.81-.1-3.64.1-5.45.29-2.62,2.95-18.11,3.74-19.36,1.34-2.14,2.73.8,4.29.86s3.08-1.96,5.92-1.69c3.71.35,3.54,3.09,3.98,3.39Z"/>
  <path class="st0" d="M947.07,653.14l7.67-16.71c5.44-3.43,2.84,13.78,4.75,16.72,1.18.03,5.56-14.6,6.89-16.23.98-1.19,1.56-.97,2.96-.89-.22,3.2-8.26,24.52-9.39,25.26-1.02.67-2.32.37-3.45.4-1.11-4.4-.56-8.85-.87-13.27-.06-.82.37-2.99-1.27-2.12-2.21,1.18-4.14,12.29-6.01,14.53-3.16,3.79-4.5-1.18-4.71-3.85-.54-6.93-.85-13.99-.86-20.95,6.13,1.34,2.35,12.12,4.29,17.1Z"/>
  <path class="st0" d="M479.1,636.04c-1.21,7.78-1.6,29.84-8.13,34.22-5.24,3.51-13.23,1.05-12.43-5.99,5.49-1.32,2.23,4.96,8.61,3.9,3.3-.55,4.7-3.86,5.09-6.92s-2.8.04-4.05.3c-10.8,2.27-11.14-18.26-3.23-23.81,7.06-4.95,9.34,1.72,10.29,1.7.87-.02,1.66-4.11,3.85-3.4ZM464.74,657.21c7.08,7.16,15.56-18.38,4.57-17.74-6.11.36-8.24,14.03-4.57,17.74Z"/>
  <path class="st0" d="M777.36,636.89c-5.22,1-3.43-2.61-5.07-4.77-2.69-3.54-11.3-2.29-11.85,2.75-.79,7.33,15.59,7,15.01,17.63-.75,13.67-24.17,12.62-22.08-1.92,5.13-1.17,2.8,2.7,5.11,5.59,2.78,3.48,10.64,2.89,12.43-1.33,4.09-9.62-15.83-8.26-14.08-20.87,1.6-11.59,21.73-9.48,20.53,2.92Z"/>
  <path class="st0" d="M522.81,650.58c-.17,4.6,2.54,9.65,7.7,7.27.45-.21,7.1-9.11,5.98-2.61-1.63,9.43-19.19,10.43-17.03-6.73s21.43-17.53,18.83.68c-.1.38-2.82,1.39-3.05,1.39h-12.43ZM528.57,639.63c-1.6.48-6.4,5.66-4.06,7.13,1.29.81,9.91.8,10.81-.41,1.8-2.44-1.72-8.23-6.74-6.72Z"/>
  <path class="st0" d="M875.93,649.73l-15.43.85c-.56,4.92,2.18,9.62,7.52,7.07,1.29-.62,4.37-6.32,6.19-4.5,1.44,1.44-3.94,7.84-5.74,8.37-17.4,5.16-13.86-28.79,1.7-25.3,5.46,1.22,6.33,8.88,5.76,13.51ZM872.5,647.16c1.92-10.37-9.81-10.47-11.15-1.28-.25,1.74.14,1.12,1.27,1.28,3.01.42,6.76-.31,9.88,0Z"/>
  <path class="st0" d="M620.52,650.58c-.28,4.74,2.22,9.77,7.71,7.26.58-.27,5.63-7.58,6.02-4.26.97,8.29-14.35,12.9-16.76,1.33-3.93-18.85,19.78-28.67,18.52-5.72-.1.38-2.82,1.39-3.05,1.39h-12.43ZM621.38,647.15c3.27-.68,12.38,2.08,11.85-2.77-.96-8.75-12.39-5.09-11.85,2.77Z"/>
  <path class="st0" d="M797.82,649.61c-.58.93-11.06.13-13.36.33-4.24.37-1.28,11.13,5.74,7.9,1.38-.63,1.85-2.42,2.71-3.28,5.21-5.23,4.19,4.61-1.88,6.67-18.12,6.14-14.14-29.81,2.01-25.01,4.76,1.41,5.66,9.27,4.78,13.39ZM788.26,639.63c-1.52.46-5.7,5.03-4.49,6.69.92,1.27,9.48,1.23,10.78.44,1.64-1.01.17-9.08-6.29-7.13Z"/>
  <path class="st0" d="M735.95,638.02c2.67,2.91,1.94,8.06,1.99,11.71l-15.43.85c-.28,4.73,2.23,9.77,7.71,7.25.58-.27,5.63-7.58,6.02-4.26,1.01,8.65-15.52,13.18-17.08-.09-.62-5.3,2.31-15.9,8.25-17.27,2.74-.63,6.57-.36,8.55,1.79ZM728.27,639.63c-2.64.59-6.21,5.81-4.07,7.12,1.09.67,6.65.63,8.21.44,5.83-.72,2.66-9.08-4.14-7.56Z"/>
  <path class="st0" d="M685.93,659.72c-6.25-6.88-.44-28.23,12.36-23.03,8.08,3.28,5.27,23.5-3.68,24.96-2.74.45-6.72.23-8.68-1.93ZM693.14,639.61c-5.58,1.16-8.15,15.56-3.53,18.58,9.06,5.91,15.33-21.04,3.53-18.58Z"/>
  <path class="st0" d="M389.36,660.59c-7-5.7-1.98-29.42,11.54-23.91,7.8,3.19,5.44,21.9-2.39,24.54-2.38.8-7.18.97-9.15-.64ZM391.94,658.01c8.34,6.93,16.17-21,3.8-18.4-5.52,1.16-7.97,14.94-3.8,18.4Z"/>
  <path class="st0" d="M570.59,636.24c16.07-2.78,11.74,24.17,1.55,25.51-16.26,2.15-12.04-23.7-1.55-25.51ZM570.56,639.63c-5.46,1.64-8.76,18.44-.92,19.28,8.52.91,12.43-22.73.92-19.28Z"/>
  <path class="st0" d="M927.12,636.25c17.38-4.53,13.88,30.35-3.25,25.06-9.06-2.8-4.95-22.93,3.25-25.06ZM931.37,657.15c5.88-5.34,4.93-22.29-4.5-16.88-8.16,4.68-4.5,25.06,4.5,16.88Z"/>
  <path class="st0" d="M444.06,638.53c.74.51,13.24-8.01,12.7,4.65-.07,1.7-2.72,17.84-3.42,18.47-.15.14-3.25.17-3.37.05-1.8-1.72,8.82-27-2.56-21.8-6.53,2.98-4.66,15.79-7.06,20.32-.92,1.73-1.36,1.64-3.23,1.47-.84-.89,2.82-22.39,3.61-24.19,1.8-4.11,2.96.77,3.34,1.03Z"/>
  <path class="st0" d="M827.92,636.04c1.74,1.83-4.71,19.78-1.77,21.87,5.67,4.04,9.06-6.07,9.94-9.87.96-4.1-.08-12.48,5.54-12-1.17,3.8-3.11,24.57-5.57,25.66-3.09,1.36-1.67-2.52-2.58-2.57-3,2.98-9.95,4.28-11.38-.6-.76-2.59,1.52-18.09,2.57-21.03.56-1.56,2.71-2.02,3.24-1.46Z"/>
  <path class="st0" d="M819.35,644.59c-2.14,2.18-4.04-4.47-5.74-4.99-8.49-2.62-11.52,19.19-4.85,19.32,4.5.09,5.04-5.99,6.82-6.54,5.22-1.61,1.46,7.09-2.45,8.68-17.69,7.16-14.13-29.75,1.98-24.63,2.8.89,5.78,6.59,4.23,8.16Z"/>
  <path class="st0" d="M559.66,644.59c-5.37,1.64-2.39-4.56-6.45-5.18-9.17-1.41-10.65,23.87-1.81,18.78,3.07-1.77,2.84-7.34,6.56-5.47.47,5.54-3.5,9.31-9.02,9.06-11.79-.53-7.29-23.69,1.06-25.57,5.88-1.32,10.85,2.17,9.67,8.38Z"/>
  <path class="st0" d="M414.83,654.85c1.56.32,1.69-.42,2.36-1.48,2.49-3.98,4.38-11.5,7.05-15.2,2.83-3.92,4.33-2.65,2.76,1.9-1.13,3.29-7.47,17.37-9.24,19.87-1.2,1.7-3.81,3.11-4.77.58-.73-1.91-4.18-23.59-3.31-24.48.45-.46,2.3-.02,2.97.87,1.83,2.44,1.91,14.37,2.17,17.94Z"/>
  <path class="st0" d="M850.23,638.6c1.02.68,4.92-4.21,7.69-2.56.16,5.75-2.16,3.42-5.12,4.71-5.17,2.26-4.75,15.01-6.18,19.51-.54,1.72-1.79,1.56-3.26,1.44-.84-.89,2.9-22.58,3.61-24.19,1.88-4.26,3.04.95,3.26,1.09Z"/>
  <path class="st0" d="M712.22,636.03l.44,2.58c2.66-1.3,3.75-3.42,7.27-2.57.83,5.51-2.4,3.4-5.13,4.71-4.95,2.37-3.93,15.77-6.17,19.51-.75,1.25-2.48,2.24-3.26,1.44-.83-.84,3.03-21.62,3.63-23.32.46-1.31,1.68-2.6,3.22-2.35Z"/>
  <path class="st0" d="M431.01,661.6c-.49.4-3.48.9-3.34-1.17.18-2.68,3.57-22.57,4.29-23.84.84-1.47,3.25-.49,3.38,1.5.08,1.23-3.41,22.76-4.34,23.51Z"/>
  <path class="st0" d="M437.11,626.63c.21.19-.76,4.85-.96,5.02-4.05,3.32-5.15-6.82.96-5.02Z"/>
</svg>