<svg width="103" height="65" viewBox="0 0 103 65" fill="none" xmlns="http://www.w3.org/2000/svg">
<mask id="path-1-inside-1_469_17" fill="white">
<path d="M8.81055 60.4297C8.81055 60.4297 27.7744 -1.43111 96.4819 21.4894Z"/>
</mask>
<path d="M8.81055 60.4297C8.3325 60.2831 8.33252 60.2831 8.33253 60.2831C8.33254 60.283 8.33255 60.283 8.33256 60.283C8.33258 60.2829 8.33261 60.2828 8.33265 60.2827C8.33271 60.2825 8.3328 60.2822 8.33291 60.2818C8.33312 60.2811 8.33341 60.2802 8.33378 60.279C8.33451 60.2766 8.33556 60.2732 8.33693 60.2688C8.33967 60.2601 8.34367 60.2473 8.34895 60.2306C8.35951 60.1973 8.3752 60.1483 8.39615 60.0842C8.43805 59.9562 8.50099 59.768 8.58601 59.5248C8.75605 59.0383 9.01449 58.3313 9.36974 57.4439L10.2981 57.8156C9.94876 58.6883 9.6955 59.3813 9.53 59.8547C9.44726 60.0915 9.38646 60.2733 9.34657 60.3952C9.32663 60.4562 9.31191 60.5021 9.30229 60.5325C9.29748 60.5477 9.29394 60.559 9.29167 60.5663C9.29053 60.57 9.2897 60.5726 9.28919 60.5743C9.28893 60.5751 9.28876 60.5757 9.28866 60.576C9.28861 60.5762 9.28858 60.5763 9.28856 60.5763C9.28856 60.5763 9.28856 60.5763 9.28856 60.5763C9.28856 60.5763 9.28857 60.5763 9.28857 60.5763C9.28858 60.5763 9.28859 60.5762 8.81055 60.4297ZM11.859 51.9506C12.6774 50.3276 13.6525 48.5391 14.7986 46.653L15.6532 47.1723C14.522 49.0339 13.5596 50.7991 12.7519 52.4009L11.859 51.9506ZM18.1375 41.6218C19.2715 40.0548 20.5177 38.4632 21.8831 36.8795L22.6405 37.5325C21.2949 39.0932 20.0662 40.6623 18.9476 42.2081L18.1375 41.6218ZM26.0251 32.4907C27.4383 31.1249 28.9504 29.7889 30.5661 28.5057L31.188 29.2887C29.599 30.5508 28.1113 31.8652 26.72 33.2098L26.0251 32.4907ZM35.4923 24.9869C37.1537 23.9255 38.9053 22.9263 40.7508 22.0065L41.1968 22.9015C39.3841 23.8049 37.6633 24.7866 36.0307 25.8296L35.4923 24.9869ZM46.3034 19.602C48.1453 18.9192 50.0671 18.3156 52.0714 17.8044L52.3186 18.7734C50.3486 19.2759 48.4604 19.8689 46.6511 20.5397L46.3034 19.602ZM58.0171 16.607C59.9471 16.3179 61.9444 16.1121 64.011 15.9985L64.0658 16.997C62.0302 17.1089 60.064 17.3116 58.1652 17.596L58.0171 16.607ZM70.0397 15.9308C71.9895 15.9914 73.9949 16.1313 76.0573 16.3568L75.9486 17.3509C73.9115 17.1282 71.9319 16.9901 70.0086 16.9303L70.0397 15.9308ZM82.0252 17.2248C83.9437 17.5712 85.9075 17.9891 87.9176 18.4827L87.6792 19.4538C85.6886 18.965 83.745 18.5515 81.8475 18.2089L82.0252 17.2248ZM93.7213 20.0827C94.6843 20.3766 95.6572 20.6872 96.6401 21.0151L96.3237 21.9638C95.3488 21.6385 94.3841 21.3305 93.4294 21.0392L93.7213 20.0827ZM8.81055 60.4297C7.85446 60.1366 7.85449 60.1365 7.85451 60.1364C7.85452 60.1364 7.85454 60.1363 7.85456 60.1363C7.8546 60.1362 7.85464 60.136 7.85469 60.1359C7.85478 60.1356 7.8549 60.1352 7.85503 60.1347C7.8553 60.1339 7.85564 60.1328 7.85607 60.1314C7.85692 60.1286 7.85808 60.1249 7.85956 60.1201C7.86253 60.1106 7.86676 60.0971 7.87228 60.0797C7.88331 60.0448 7.89949 59.9943 7.92094 59.9287C7.96385 59.7976 8.02785 59.6063 8.11401 59.3598C8.28633 58.8668 8.54735 58.1529 8.90556 57.2581L10.7623 58.0014C10.4159 58.8667 10.1652 59.5528 10.002 60.0197C9.9204 60.2532 9.86067 60.4318 9.82178 60.5507C9.80234 60.6101 9.78811 60.6546 9.77896 60.6835C9.77439 60.6979 9.77108 60.7085 9.76903 60.715C9.76801 60.7183 9.7673 60.7206 9.7669 60.7219C9.7667 60.7226 9.76658 60.723 9.76653 60.7231C9.76651 60.7232 9.76651 60.7232 9.76652 60.7231C9.76653 60.7231 9.76654 60.7231 9.76656 60.723C9.76657 60.723 9.76659 60.7229 9.76659 60.7229C9.76661 60.7228 9.76663 60.7228 8.81055 60.4297ZM11.4126 51.7255C12.2363 50.0918 13.2178 48.2917 14.3713 46.3934L16.0805 47.4319C14.9568 49.2813 14.0007 51.0349 13.1984 52.626L11.4126 51.7255ZM17.7324 41.3287C18.8741 39.751 20.1291 38.1482 21.5045 36.553L23.0192 37.859C21.6835 39.4082 20.4635 40.9661 19.3527 42.5012L17.7324 41.3287ZM25.6776 32.1312C27.1018 30.7547 28.626 29.408 30.2551 28.1142L31.499 29.6803C29.9234 30.9317 28.4477 32.2353 27.0675 33.5693L25.6776 32.1312ZM35.2231 24.5655C36.8989 23.4949 38.6659 22.4869 40.5277 21.559L41.4199 23.349C39.6235 24.2443 37.9181 25.2172 36.2999 26.251L35.2231 24.5655ZM46.1296 19.1332C47.9878 18.4443 49.9264 17.8355 51.9479 17.3199L52.4422 19.2578C50.4894 19.756 48.6179 20.3437 46.8249 21.0085L46.1296 19.1332ZM57.943 16.1125C59.8886 15.8211 61.9015 15.6137 63.9835 15.4992L64.0933 17.4962C62.0731 17.6073 60.1225 17.8084 58.2393 18.0905L57.943 16.1125ZM70.0552 15.431C72.0183 15.4921 74.0367 15.6329 76.1117 15.8598L75.8943 17.848C73.8697 17.6266 71.9031 17.4894 69.993 17.43L70.0552 15.431ZM82.114 16.7328C84.043 17.0811 86.017 17.5011 88.0369 17.9971L87.5599 19.9394C85.5791 19.453 83.6457 19.0417 81.7587 18.7009L82.114 16.7328ZM93.8672 19.6045C94.8344 19.8996 95.8114 20.2116 96.7984 20.5408L96.1654 22.4381C95.1946 22.1142 94.234 21.8074 93.2835 21.5174L93.8672 19.6045Z" fill="#FD5523" mask="url(#path-1-inside-1_469_17)"/>
<path d="M98.477 15.9586L102.017 23.9287L94.0469 27.4688L98.477 15.9586Z" fill="#FD5523"/>
</svg>
